<?xml version="1.0" encoding="utf-8" standalone="no"?>
<!DOCTYPE svg PUBLIC "-//W3C//DTD SVG 1.1//EN"
  "http://www.w3.org/Graphics/SVG/1.1/DTD/svg11.dtd">
<svg xmlns:xlink="http://www.w3.org/1999/xlink" width="691.2pt" height="50.4pt" viewBox="0 0 691.2 50.4" xmlns="http://www.w3.org/2000/svg" version="1.1">
 <metadata>
  <rdf:RDF xmlns:dc="http://purl.org/dc/elements/1.1/" xmlns:cc="http://creativecommons.org/ns#" xmlns:rdf="http://www.w3.org/1999/02/22-rdf-syntax-ns#">
   <cc:Work>
    <dc:type rdf:resource="http://purl.org/dc/dcmitype/StillImage"/>
    <dc:date>2026-04-04T14:41:36.974889</dc:date>
    <dc:format>image/svg+xml</dc:format>
    <dc:creator>
     <cc:Agent>
      <dc:title>Matplotlib v3.10.8, https://matplotlib.org/</dc:title>
     </cc:Agent>
    </dc:creator>
   </cc:Work>
  </rdf:RDF>
 </metadata>
 <defs>
  <style type="text/css">*{stroke-linejoin: round; stroke-linecap: butt}</style>
 </defs>
 <g id="figure_1">
  <g id="patch_1">
   <path d="M 0 50.4 
L 691.2 50.4 
L 691.2 0 
L 0 0 
L 0 50.4 
z
" style="fill: none"/>
  </g>
  <g id="axes_1">
   <g id="patch_2">
    <path d="M 55.296 37.8 
L 63.696 37.8 
L 63.696 12.6 
L 55.296 12.6 
z
" clip-path="url(#pcc807dc2c1)" style="fill: #9b4f96"/>
   </g>
   <g id="text_1">
    <!-- C# -->
    <g style="fill: #6b5a8a" transform="translate(70.608 21.169) scale(0.11 -0.11)">
     <defs>
      <path id="JetBrainsMono-Bold-43" d="M 1971 -64 
Q 1517 -64 1184 105 
Q 851 275 668 585 
Q 486 896 486 1318 
L 486 3354 
Q 486 3776 668 4086 
Q 851 4397 1184 4566 
Q 1517 4736 1971 4736 
Q 2419 4736 2752 4566 
Q 3085 4397 3270 4086 
Q 3456 3776 3456 3354 
L 2650 3354 
Q 2650 3680 2474 3856 
Q 2298 4032 1971 4032 
Q 1645 4032 1465 3856 
Q 1286 3680 1286 3354 
L 1286 1318 
Q 1286 992 1465 816 
Q 1645 640 1971 640 
Q 2298 640 2474 816 
Q 2650 992 2650 1318 
L 3456 1318 
Q 3456 896 3270 585 
Q 3085 275 2752 105 
Q 2419 -64 1971 -64 
z
" transform="scale(0.015625)"/>
      <path id="JetBrainsMono-Bold-23" d="M 493 0 
L 710 1216 
L 224 1216 
L 224 1760 
L 800 1760 
L 998 2912 
L 448 2912 
L 448 3456 
L 1094 3456 
L 1312 4672 
L 1875 4672 
L 1658 3456 
L 2566 3456 
L 2784 4672 
L 3347 4672 
L 3130 3456 
L 3616 3456 
L 3616 2912 
L 3034 2912 
L 2835 1760 
L 3392 1760 
L 3392 1216 
L 2739 1216 
L 2528 0 
L 1965 0 
L 2182 1216 
L 1267 1216 
L 1056 0 
L 493 0 
z
M 1363 1760 
L 2272 1760 
L 2470 2912 
L 1562 2912 
L 1363 1760 
z
" transform="scale(0.015625)"/>
     </defs>
     <use xlink:href="#JetBrainsMono-Bold-43"/>
     <use xlink:href="#JetBrainsMono-Bold-23" transform="translate(59.999985 0)"/>
    </g>
   </g>
   <g id="text_2">
    <!-- 93.6% -->
    <g style="fill: #9b8bb8" transform="translate(70.608 34.731) scale(0.09 -0.09)">
     <defs>
      <path id="JetBrainsMono-Regular-39" d="M 1248 0 
L 2400 2003 
L 2381 2016 
Q 2317 1914 2144 1853 
Q 1971 1792 1766 1792 
Q 1363 1792 1059 1974 
Q 755 2157 582 2477 
Q 410 2797 410 3219 
Q 410 3674 602 4013 
Q 794 4352 1133 4544 
Q 1472 4736 1914 4736 
Q 2368 4736 2707 4547 
Q 3046 4358 3238 4022 
Q 3430 3686 3430 3245 
Q 3430 2938 3315 2614 
Q 3200 2291 3002 1939 
L 1920 0 
L 1248 0 
z
M 1920 2240 
Q 2336 2240 2595 2515 
Q 2854 2790 2854 3232 
Q 2854 3674 2595 3949 
Q 2336 4224 1920 4224 
Q 1504 4224 1245 3949 
Q 986 3674 986 3232 
Q 986 2790 1245 2515 
Q 1504 2240 1920 2240 
z
" transform="scale(0.015625)"/>
      <path id="JetBrainsMono-Regular-33" d="M 1850 -64 
Q 1203 -64 825 297 
Q 448 659 448 1280 
L 1024 1280 
Q 1024 896 1248 672 
Q 1472 448 1856 448 
Q 2240 448 2464 672 
Q 2688 896 2688 1280 
L 2688 1600 
Q 2688 1984 2464 2208 
Q 2240 2432 1856 2432 
L 1350 2432 
L 1350 2931 
L 2496 4147 
L 576 4147 
L 576 4672 
L 3149 4672 
L 3149 4134 
L 2022 2938 
Q 2598 2893 2931 2537 
Q 3264 2182 3264 1600 
L 3264 1280 
Q 3264 659 2883 297 
Q 2502 -64 1850 -64 
z
" transform="scale(0.015625)"/>
      <path id="JetBrainsMono-Regular-2e" d="M 1920 -64 
Q 1683 -64 1539 77 
Q 1395 218 1395 442 
Q 1395 678 1539 825 
Q 1683 973 1920 973 
Q 2157 973 2301 825 
Q 2445 678 2445 442 
Q 2445 218 2301 77 
Q 2157 -64 1920 -64 
z
" transform="scale(0.015625)"/>
      <path id="JetBrainsMono-Regular-36" d="M 1926 -64 
Q 1478 -64 1136 125 
Q 794 314 602 650 
Q 410 986 410 1427 
Q 410 1734 525 2057 
Q 640 2381 838 2733 
L 1920 4672 
L 2560 4672 
L 1408 2669 
L 1427 2656 
Q 1510 2765 1676 2822 
Q 1843 2880 2042 2880 
Q 2458 2880 2768 2697 
Q 3078 2515 3254 2195 
Q 3430 1875 3430 1453 
Q 3430 1005 3238 662 
Q 3046 320 2710 128 
Q 2374 -64 1926 -64 
z
M 1920 448 
Q 2336 448 2595 723 
Q 2854 998 2854 1440 
Q 2854 1882 2595 2157 
Q 2336 2432 1920 2432 
Q 1504 2432 1245 2157 
Q 986 1882 986 1440 
Q 986 998 1245 723 
Q 1504 448 1920 448 
z
" transform="scale(0.015625)"/>
      <path id="JetBrainsMono-Regular-25" d="M 979 2560 
Q 570 2560 330 2793 
Q 90 3027 96 3424 
L 96 3840 
Q 90 4237 330 4470 
Q 570 4704 979 4704 
Q 1389 4704 1629 4470 
Q 1869 4237 1875 3840 
L 1875 3424 
Q 1875 3027 1635 2793 
Q 1395 2560 979 2560 
z
M 90 0 
L 3277 4672 
L 3750 4672 
L 563 0 
L 90 0 
z
M 986 2995 
Q 1178 2995 1290 3110 
Q 1402 3226 1402 3424 
L 1402 3840 
Q 1402 4038 1290 4153 
Q 1178 4269 986 4269 
Q 794 4269 682 4153 
Q 570 4038 570 3840 
L 570 3424 
Q 570 3226 682 3110 
Q 794 2995 986 2995 
z
M 2854 -32 
Q 2445 -32 2205 201 
Q 1965 435 1965 832 
L 1965 1248 
Q 1958 1645 2201 1878 
Q 2445 2112 2854 2112 
Q 3264 2112 3504 1878 
Q 3744 1645 3744 1248 
L 3744 832 
Q 3744 435 3504 201 
Q 3264 -32 2854 -32 
z
M 2854 410 
Q 3046 410 3158 522 
Q 3270 634 3270 832 
L 3270 1248 
Q 3270 1446 3158 1561 
Q 3046 1677 2848 1677 
Q 2662 1677 2550 1561 
Q 2438 1446 2438 1248 
L 2438 832 
Q 2432 634 2544 522 
Q 2656 410 2854 410 
z
" transform="scale(0.015625)"/>
     </defs>
     <use xlink:href="#JetBrainsMono-Regular-39"/>
     <use xlink:href="#JetBrainsMono-Regular-33" transform="translate(59.999985 0)"/>
     <use xlink:href="#JetBrainsMono-Regular-2e" transform="translate(119.999969 0)"/>
     <use xlink:href="#JetBrainsMono-Regular-36" transform="translate(179.999954 0)"/>
     <use xlink:href="#JetBrainsMono-Regular-25" transform="translate(239.999939 0)"/>
    </g>
   </g>
   <g id="patch_3">
    <path d="M 262.656 37.8 
L 271.056 37.8 
L 271.056 12.6 
L 262.656 12.6 
z
" clip-path="url(#pcc807dc2c1)" style="fill: #3572a5"/>
   </g>
   <g id="text_3">
    <!-- Python -->
    <g style="fill: #6b5a8a" transform="translate(277.968 21.169) scale(0.11 -0.11)">
     <defs>
      <path id="JetBrainsMono-Bold-50" d="M 493 0 
L 493 4672 
L 2048 4672 
Q 2515 4672 2864 4493 
Q 3213 4314 3405 3990 
Q 3597 3667 3597 3232 
Q 3597 2797 3405 2473 
Q 3213 2150 2864 1971 
Q 2515 1792 2048 1792 
L 1293 1792 
L 1293 0 
L 493 0 
z
M 1293 2496 
L 2048 2496 
Q 2387 2496 2585 2701 
Q 2784 2906 2784 3232 
Q 2784 3558 2585 3763 
Q 2387 3968 2048 3968 
L 1293 3968 
L 1293 2496 
z
" transform="scale(0.015625)"/>
      <path id="JetBrainsMono-Bold-79" d="M 1056 -1152 
L 1555 192 
L 230 3520 
L 1075 3520 
L 1754 1722 
Q 1811 1562 1868 1373 
Q 1926 1184 1952 1024 
Q 1971 1184 2025 1373 
Q 2080 1562 2138 1722 
L 2765 3520 
L 3610 3520 
L 1894 -1152 
L 1056 -1152 
z
" transform="scale(0.015625)"/>
      <path id="JetBrainsMono-Bold-74" d="M 2272 0 
Q 1779 0 1488 285 
Q 1197 570 1197 1056 
L 1197 2797 
L 224 2797 
L 224 3520 
L 1197 3520 
L 1197 4512 
L 2003 4512 
L 2003 3520 
L 3405 3520 
L 3405 2797 
L 2003 2797 
L 2003 1075 
Q 2003 922 2089 822 
Q 2176 723 2330 723 
L 3373 723 
L 3373 0 
L 2272 0 
z
" transform="scale(0.015625)"/>
      <path id="JetBrainsMono-Bold-68" d="M 493 0 
L 493 4672 
L 1293 4672 
L 1293 3520 
L 1274 2867 
Q 1338 3200 1587 3392 
Q 1837 3584 2221 3584 
Q 2739 3584 3049 3238 
Q 3360 2893 3360 2310 
L 3360 0 
L 2560 0 
L 2560 2214 
Q 2560 2541 2390 2717 
Q 2221 2893 1933 2893 
Q 1632 2893 1462 2713 
Q 1293 2534 1293 2202 
L 1293 0 
L 493 0 
z
" transform="scale(0.015625)"/>
      <path id="JetBrainsMono-Bold-6f" d="M 1920 -58 
Q 1242 -58 845 323 
Q 448 704 448 1350 
L 448 2170 
Q 448 2822 845 3200 
Q 1242 3578 1920 3578 
Q 2598 3578 2995 3200 
Q 3392 2822 3392 2170 
L 3392 1350 
Q 3392 704 2995 323 
Q 2598 -58 1920 -58 
z
M 1920 640 
Q 2240 640 2416 816 
Q 2592 992 2592 1325 
L 2592 2195 
Q 2592 2528 2416 2704 
Q 2240 2880 1920 2880 
Q 1600 2880 1424 2704 
Q 1248 2528 1248 2195 
L 1248 1325 
Q 1248 992 1424 816 
Q 1600 640 1920 640 
z
" transform="scale(0.015625)"/>
      <path id="JetBrainsMono-Bold-6e" d="M 493 0 
L 493 3520 
L 1274 3520 
L 1274 2861 
Q 1338 3194 1587 3389 
Q 1837 3584 2221 3584 
Q 2739 3584 3049 3238 
Q 3360 2893 3360 2310 
L 3360 0 
L 2560 0 
L 2560 2214 
Q 2560 2541 2390 2717 
Q 2221 2893 1933 2893 
Q 1632 2893 1462 2713 
Q 1293 2534 1293 2202 
L 1293 0 
L 493 0 
z
" transform="scale(0.015625)"/>
     </defs>
     <use xlink:href="#JetBrainsMono-Bold-50"/>
     <use xlink:href="#JetBrainsMono-Bold-79" transform="translate(59.999985 0)"/>
     <use xlink:href="#JetBrainsMono-Bold-74" transform="translate(119.999969 0)"/>
     <use xlink:href="#JetBrainsMono-Bold-68" transform="translate(179.999954 0)"/>
     <use xlink:href="#JetBrainsMono-Bold-6f" transform="translate(239.999939 0)"/>
     <use xlink:href="#JetBrainsMono-Bold-6e" transform="translate(299.999924 0)"/>
    </g>
   </g>
   <g id="text_4">
    <!-- 4.3% -->
    <g style="fill: #9b8bb8" transform="translate(277.968 34.731) scale(0.09 -0.09)">
     <defs>
      <path id="JetBrainsMono-Regular-34" d="M 2560 0 
L 2560 1024 
L 448 1024 
L 448 1926 
L 2150 4672 
L 2803 4672 
L 1024 1798 
L 1024 1549 
L 2560 1549 
L 2560 2688 
L 3136 2688 
L 3136 0 
L 2560 0 
z
" transform="scale(0.015625)"/>
     </defs>
     <use xlink:href="#JetBrainsMono-Regular-34"/>
     <use xlink:href="#JetBrainsMono-Regular-2e" transform="translate(59.999985 0)"/>
     <use xlink:href="#JetBrainsMono-Regular-33" transform="translate(119.999969 0)"/>
     <use xlink:href="#JetBrainsMono-Regular-25" transform="translate(179.999954 0)"/>
    </g>
   </g>
   <g id="patch_4">
    <path d="M 470.016 37.8 
L 478.416 37.8 
L 478.416 12.6 
L 470.016 12.6 
z
" clip-path="url(#pcc807dc2c1)" style="fill: #6e6e6e"/>
   </g>
   <g id="text_5">
    <!-- C -->
    <g style="fill: #6b5a8a" transform="translate(485.328 21.169) scale(0.11 -0.11)">
     <use xlink:href="#JetBrainsMono-Bold-43"/>
    </g>
   </g>
   <g id="text_6">
    <!-- 2.1% -->
    <g style="fill: #9b8bb8" transform="translate(485.328 34.731) scale(0.09 -0.09)">
     <defs>
      <path id="JetBrainsMono-Regular-32" d="M 550 0 
L 550 531 
L 2106 2195 
Q 2445 2554 2585 2835 
Q 2726 3117 2726 3386 
Q 2726 3770 2505 3997 
Q 2285 4224 1907 4224 
Q 1517 4224 1289 3990 
Q 1062 3757 1062 3360 
L 486 3360 
Q 506 3994 890 4365 
Q 1274 4736 1907 4736 
Q 2554 4736 2934 4371 
Q 3315 4006 3315 3379 
Q 3315 3046 3132 2675 
Q 2950 2304 2509 1843 
L 1248 525 
L 3373 525 
L 3373 0 
L 550 0 
z
" transform="scale(0.015625)"/>
      <path id="JetBrainsMono-Regular-31" d="M 576 0 
L 576 525 
L 1843 525 
L 1843 4173 
L 576 3226 
L 576 3885 
L 1632 4672 
L 2419 4672 
L 2419 525 
L 3456 525 
L 3456 0 
L 576 0 
z
" transform="scale(0.015625)"/>
     </defs>
     <use xlink:href="#JetBrainsMono-Regular-32"/>
     <use xlink:href="#JetBrainsMono-Regular-2e" transform="translate(59.999985 0)"/>
     <use xlink:href="#JetBrainsMono-Regular-31" transform="translate(119.999969 0)"/>
     <use xlink:href="#JetBrainsMono-Regular-25" transform="translate(179.999954 0)"/>
    </g>
   </g>
   <g id="text_7">
    <!-- 47 solved -->
    <g style="fill: #9b8bb8; opacity: 0.7" transform="translate(628.776 27.675) scale(0.09 -0.09)">
     <defs>
      <path id="JetBrainsMono-Regular-37" d="M 1216 0 
L 2880 4147 
L 1101 4147 
L 1101 3392 
L 525 3392 
L 525 4672 
L 3494 4672 
L 3494 4134 
L 1843 0 
L 1216 0 
z
" transform="scale(0.015625)"/>
      <path id="JetBrainsMono-Regular-20" transform="scale(0.015625)"/>
      <path id="JetBrainsMono-Regular-73" d="M 1779 -51 
Q 1190 -51 867 214 
Q 544 480 544 966 
L 1120 966 
Q 1120 723 1293 585 
Q 1466 448 1779 448 
L 2061 448 
Q 2381 448 2557 589 
Q 2733 730 2733 986 
Q 2733 1440 2317 1498 
L 1344 1638 
Q 986 1690 787 1936 
Q 589 2182 589 2586 
Q 589 3046 905 3308 
Q 1222 3571 1779 3571 
L 2061 3571 
Q 2573 3571 2896 3318 
Q 3219 3066 3245 2656 
L 2662 2656 
Q 2650 2842 2486 2963 
Q 2323 3085 2061 3085 
L 1779 3085 
Q 1485 3085 1318 2950 
Q 1152 2816 1152 2586 
Q 1152 2214 1491 2163 
L 2400 2035 
Q 3296 1907 3296 986 
Q 3296 493 2973 221 
Q 2650 -51 2061 -51 
L 1779 -51 
z
" transform="scale(0.015625)"/>
      <path id="JetBrainsMono-Regular-6f" d="M 1920 -51 
Q 1286 -51 912 320 
Q 538 691 538 1357 
L 538 2163 
Q 538 2835 909 3203 
Q 1280 3571 1920 3571 
Q 2560 3571 2931 3203 
Q 3302 2835 3302 2163 
L 3302 1357 
Q 3302 691 2928 320 
Q 2554 -51 1920 -51 
z
M 1920 461 
Q 2298 461 2512 672 
Q 2726 883 2726 1293 
L 2726 2227 
Q 2726 2637 2512 2848 
Q 2298 3059 1920 3059 
Q 1549 3059 1331 2848 
Q 1114 2637 1114 2227 
L 1114 1293 
Q 1114 883 1331 672 
Q 1549 461 1920 461 
z
" transform="scale(0.015625)"/>
      <path id="JetBrainsMono-Regular-6c" d="M 2432 0 
Q 1965 0 1686 272 
Q 1408 544 1408 992 
L 1408 4147 
L 192 4147 
L 192 4672 
L 1984 4672 
L 1984 992 
Q 1984 774 2105 649 
Q 2227 525 2432 525 
L 3520 525 
L 3520 0 
L 2432 0 
z
" transform="scale(0.015625)"/>
      <path id="JetBrainsMono-Regular-76" d="M 1542 0 
L 346 3520 
L 966 3520 
L 1734 1152 
Q 1805 941 1856 745 
Q 1907 550 1933 442 
Q 1965 550 2009 745 
Q 2054 941 2118 1152 
L 2886 3520 
L 3494 3520 
L 2298 0 
L 1542 0 
z
" transform="scale(0.015625)"/>
      <path id="JetBrainsMono-Regular-65" d="M 1920 -64 
Q 1299 -64 918 310 
Q 538 685 538 1344 
L 538 2176 
Q 538 2835 918 3209 
Q 1299 3584 1920 3584 
Q 2336 3584 2646 3417 
Q 2957 3251 3129 2950 
Q 3302 2650 3302 2240 
L 3302 1613 
L 1101 1613 
L 1101 1280 
Q 1101 890 1325 662 
Q 1549 435 1920 435 
Q 2240 435 2448 560 
Q 2656 685 2701 896 
L 3277 896 
Q 3219 454 2848 195 
Q 2477 -64 1920 -64 
z
M 1101 2061 
L 2739 2061 
L 2739 2240 
Q 2739 2656 2524 2883 
Q 2310 3110 1920 3110 
Q 1530 3110 1315 2883 
Q 1101 2656 1101 2240 
L 1101 2061 
z
" transform="scale(0.015625)"/>
      <path id="JetBrainsMono-Regular-64" d="M 1715 -64 
Q 1190 -64 873 288 
Q 557 640 557 1242 
L 557 2272 
Q 557 2880 870 3232 
Q 1184 3584 1715 3584 
Q 2112 3584 2371 3385 
Q 2630 3187 2682 2848 
L 2688 2848 
L 2675 3648 
L 2675 4672 
L 3251 4672 
L 3251 0 
L 2675 0 
L 2675 672 
L 2669 672 
Q 2624 326 2368 131 
Q 2112 -64 1715 -64 
z
M 1907 435 
Q 2266 435 2470 659 
Q 2675 883 2675 1280 
L 2675 2240 
Q 2675 2637 2470 2861 
Q 2266 3085 1907 3085 
Q 1542 3085 1337 2896 
Q 1133 2707 1133 2272 
L 1133 1248 
Q 1133 819 1337 627 
Q 1542 435 1907 435 
z
" transform="scale(0.015625)"/>
     </defs>
     <use xlink:href="#JetBrainsMono-Regular-34"/>
     <use xlink:href="#JetBrainsMono-Regular-37" transform="translate(59.999985 0)"/>
     <use xlink:href="#JetBrainsMono-Regular-20" transform="translate(119.999969 0)"/>
     <use xlink:href="#JetBrainsMono-Regular-73" transform="translate(179.999954 0)"/>
     <use xlink:href="#JetBrainsMono-Regular-6f" transform="translate(239.999939 0)"/>
     <use xlink:href="#JetBrainsMono-Regular-6c" transform="translate(299.999924 0)"/>
     <use xlink:href="#JetBrainsMono-Regular-76" transform="translate(359.999908 0)"/>
     <use xlink:href="#JetBrainsMono-Regular-65" transform="translate(419.999893 0)"/>
     <use xlink:href="#JetBrainsMono-Regular-64" transform="translate(479.999878 0)"/>
    </g>
   </g>
  </g>
 </g>
 <defs>
  <clipPath id="pcc807dc2c1">
   <rect x="0" y="0" width="691.2" height="50.4"/>
  </clipPath>
 </defs>
</svg>
