<?xml version="1.0" encoding="utf-8" standalone="no"?>
<!DOCTYPE svg PUBLIC "-//W3C//DTD SVG 1.1//EN"
  "http://www.w3.org/Graphics/SVG/1.1/DTD/svg11.dtd">
<svg xmlns:xlink="http://www.w3.org/1999/xlink" width="691.2pt" height="50.4pt" viewBox="0 0 691.2 50.4" xmlns="http://www.w3.org/2000/svg" version="1.1">
 <metadata>
  <rdf:RDF xmlns:dc="http://purl.org/dc/elements/1.1/" xmlns:cc="http://creativecommons.org/ns#" xmlns:rdf="http://www.w3.org/1999/02/22-rdf-syntax-ns#">
   <cc:Work>
    <dc:type rdf:resource="http://purl.org/dc/dcmitype/StillImage"/>
    <dc:date>2026-04-06T16:30:01.995153</dc:date>
    <dc:format>image/svg+xml</dc:format>
    <dc:creator>
     <cc:Agent>
      <dc:title>Matplotlib v3.10.8, https://matplotlib.org/</dc:title>
     </cc:Agent>
    </dc:creator>
   </cc:Work>
  </rdf:RDF>
 </metadata>
 <defs>
  <style type="text/css">*{stroke-linejoin: round; stroke-linecap: butt}</style>
 </defs>
 <g id="figure_1">
  <g id="patch_1">
   <path d="M 0 50.4 
L 691.2 50.4 
L 691.2 0 
L 0 0 
L 0 50.4 
z
" style="fill: none"/>
  </g>
  <g id="axes_1">
   <g id="patch_2">
    <path d="M 55.296 37.8 
L 63.696 37.8 
L 63.696 12.6 
L 55.296 12.6 
z
" clip-path="url(#pe5825d2c5d)" style="fill: #9b4f96"/>
   </g>
   <g id="text_1">
    <!-- C# -->
    <g style="fill: #6b5a8a" transform="translate(70.608 21.169) scale(0.11 -0.11)">
     <defs>
      <path id="JetBrainsMono-Bold-43" d="M 1971 -64 
Q 1517 -64 1184 105 
Q 851 275 668 585 
Q 486 896 486 1318 
L 486 3354 
Q 486 3776 668 4086 
Q 851 4397 1184 4566 
Q 1517 4736 1971 4736 
Q 2419 4736 2752 4566 
Q 3085 4397 3270 4086 
Q 3456 3776 3456 3354 
L 2650 3354 
Q 2650 3680 2474 3856 
Q 2298 4032 1971 4032 
Q 1645 4032 1465 3856 
Q 1286 3680 1286 3354 
L 1286 1318 
Q 1286 992 1465 816 
Q 1645 640 1971 640 
Q 2298 640 2474 816 
Q 2650 992 2650 1318 
L 3456 1318 
Q 3456 896 3270 585 
Q 3085 275 2752 105 
Q 2419 -64 1971 -64 
z
" transform="scale(0.015625)"/>
      <path id="JetBrainsMono-Bold-23" d="M 493 0 
L 710 1216 
L 224 1216 
L 224 1760 
L 800 1760 
L 998 2912 
L 448 2912 
L 448 3456 
L 1094 3456 
L 1312 4672 
L 1875 4672 
L 1658 3456 
L 2566 3456 
L 2784 4672 
L 3347 4672 
L 3130 3456 
L 3616 3456 
L 3616 2912 
L 3034 2912 
L 2835 1760 
L 3392 1760 
L 3392 1216 
L 2739 1216 
L 2528 0 
L 1965 0 
L 2182 1216 
L 1267 1216 
L 1056 0 
L 493 0 
z
M 1363 1760 
L 2272 1760 
L 2470 2912 
L 1562 2912 
L 1363 1760 
z
" transform="scale(0.015625)"/>
     </defs>
     <use xlink:href="#JetBrainsMono-Bold-43"/>
     <use xlink:href="#JetBrainsMono-Bold-23" transform="translate(59.999985 0)"/>
    </g>
   </g>
   <g id="text_2">
    <!-- 94.0% -->
    <g style="fill: #9b8bb8" transform="translate(70.608 34.731) scale(0.09 -0.09)">
     <defs>
      <path id="JetBrainsMono-Regular-39" d="M 1248 0 
L 2400 2003 
L 2381 2016 
Q 2317 1914 2144 1853 
Q 1971 1792 1766 1792 
Q 1363 1792 1059 1974 
Q 755 2157 582 2477 
Q 410 2797 410 3219 
Q 410 3674 602 4013 
Q 794 4352 1133 4544 
Q 1472 4736 1914 4736 
Q 2368 4736 2707 4547 
Q 3046 4358 3238 4022 
Q 3430 3686 3430 3245 
Q 3430 2938 3315 2614 
Q 3200 2291 3002 1939 
L 1920 0 
L 1248 0 
z
M 1920 2240 
Q 2336 2240 2595 2515 
Q 2854 2790 2854 3232 
Q 2854 3674 2595 3949 
Q 2336 4224 1920 4224 
Q 1504 4224 1245 3949 
Q 986 3674 986 3232 
Q 986 2790 1245 2515 
Q 1504 2240 1920 2240 
z
" transform="scale(0.015625)"/>
      <path id="JetBrainsMono-Regular-34" d="M 2560 0 
L 2560 1024 
L 448 1024 
L 448 1926 
L 2150 4672 
L 2803 4672 
L 1024 1798 
L 1024 1549 
L 2560 1549 
L 2560 2688 
L 3136 2688 
L 3136 0 
L 2560 0 
z
" transform="scale(0.015625)"/>
      <path id="JetBrainsMono-Regular-2e" d="M 1920 -64 
Q 1683 -64 1539 77 
Q 1395 218 1395 442 
Q 1395 678 1539 825 
Q 1683 973 1920 973 
Q 2157 973 2301 825 
Q 2445 678 2445 442 
Q 2445 218 2301 77 
Q 2157 -64 1920 -64 
z
" transform="scale(0.015625)"/>
      <path id="JetBrainsMono-Regular-30" d="M 1920 -64 
Q 1274 -64 893 310 
Q 512 685 512 1312 
L 512 3360 
Q 512 3987 893 4361 
Q 1274 4736 1920 4736 
Q 2566 4736 2947 4361 
Q 3328 3987 3328 3360 
L 3328 1312 
Q 3328 896 3155 585 
Q 2982 275 2665 105 
Q 2349 -64 1920 -64 
z
M 1920 429 
Q 2304 429 2537 675 
Q 2771 922 2771 1312 
L 2771 3360 
Q 2771 3750 2537 3996 
Q 2304 4243 1920 4243 
Q 1536 4243 1302 3996 
Q 1069 3750 1069 3360 
L 1069 1312 
Q 1069 922 1302 675 
Q 1536 429 1920 429 
z
M 1920 1984 
Q 1747 1984 1641 2080 
Q 1536 2176 1536 2355 
Q 1536 2528 1641 2621 
Q 1747 2714 1920 2714 
Q 2093 2714 2198 2621 
Q 2304 2528 2304 2355 
Q 2304 2176 2198 2080 
Q 2093 1984 1920 1984 
z
" transform="scale(0.015625)"/>
      <path id="JetBrainsMono-Regular-25" d="M 979 2560 
Q 570 2560 330 2793 
Q 90 3027 96 3424 
L 96 3840 
Q 90 4237 330 4470 
Q 570 4704 979 4704 
Q 1389 4704 1629 4470 
Q 1869 4237 1875 3840 
L 1875 3424 
Q 1875 3027 1635 2793 
Q 1395 2560 979 2560 
z
M 90 0 
L 3277 4672 
L 3750 4672 
L 563 0 
L 90 0 
z
M 986 2995 
Q 1178 2995 1290 3110 
Q 1402 3226 1402 3424 
L 1402 3840 
Q 1402 4038 1290 4153 
Q 1178 4269 986 4269 
Q 794 4269 682 4153 
Q 570 4038 570 3840 
L 570 3424 
Q 570 3226 682 3110 
Q 794 2995 986 2995 
z
M 2854 -32 
Q 2445 -32 2205 201 
Q 1965 435 1965 832 
L 1965 1248 
Q 1958 1645 2201 1878 
Q 2445 2112 2854 2112 
Q 3264 2112 3504 1878 
Q 3744 1645 3744 1248 
L 3744 832 
Q 3744 435 3504 201 
Q 3264 -32 2854 -32 
z
M 2854 410 
Q 3046 410 3158 522 
Q 3270 634 3270 832 
L 3270 1248 
Q 3270 1446 3158 1561 
Q 3046 1677 2848 1677 
Q 2662 1677 2550 1561 
Q 2438 1446 2438 1248 
L 2438 832 
Q 2432 634 2544 522 
Q 2656 410 2854 410 
z
" transform="scale(0.015625)"/>
     </defs>
     <use xlink:href="#JetBrainsMono-Regular-39"/>
     <use xlink:href="#JetBrainsMono-Regular-34" transform="translate(59.999985 0)"/>
     <use xlink:href="#JetBrainsMono-Regular-2e" transform="translate(119.999969 0)"/>
     <use xlink:href="#JetBrainsMono-Regular-30" transform="translate(179.999954 0)"/>
     <use xlink:href="#JetBrainsMono-Regular-25" transform="translate(239.999939 0)"/>
    </g>
   </g>
   <g id="patch_3">
    <path d="M 262.656 37.8 
L 271.056 37.8 
L 271.056 12.6 
L 262.656 12.6 
z
" clip-path="url(#pe5825d2c5d)" style="fill: #3572a5"/>
   </g>
   <g id="text_3">
    <!-- Python -->
    <g style="fill: #6b5a8a" transform="translate(277.968 21.169) scale(0.11 -0.11)">
     <defs>
      <path id="JetBrainsMono-Bold-50" d="M 493 0 
L 493 4672 
L 2048 4672 
Q 2515 4672 2864 4493 
Q 3213 4314 3405 3990 
Q 3597 3667 3597 3232 
Q 3597 2797 3405 2473 
Q 3213 2150 2864 1971 
Q 2515 1792 2048 1792 
L 1293 1792 
L 1293 0 
L 493 0 
z
M 1293 2496 
L 2048 2496 
Q 2387 2496 2585 2701 
Q 2784 2906 2784 3232 
Q 2784 3558 2585 3763 
Q 2387 3968 2048 3968 
L 1293 3968 
L 1293 2496 
z
" transform="scale(0.015625)"/>
      <path id="JetBrainsMono-Bold-79" d="M 1056 -1152 
L 1555 192 
L 230 3520 
L 1075 3520 
L 1754 1722 
Q 1811 1562 1868 1373 
Q 1926 1184 1952 1024 
Q 1971 1184 2025 1373 
Q 2080 1562 2138 1722 
L 2765 3520 
L 3610 3520 
L 1894 -1152 
L 1056 -1152 
z
" transform="scale(0.015625)"/>
      <path id="JetBrainsMono-Bold-74" d="M 2272 0 
Q 1779 0 1488 285 
Q 1197 570 1197 1056 
L 1197 2797 
L 224 2797 
L 224 3520 
L 1197 3520 
L 1197 4512 
L 2003 4512 
L 2003 3520 
L 3405 3520 
L 3405 2797 
L 2003 2797 
L 2003 1075 
Q 2003 922 2089 822 
Q 2176 723 2330 723 
L 3373 723 
L 3373 0 
L 2272 0 
z
" transform="scale(0.015625)"/>
      <path id="JetBrainsMono-Bold-68" d="M 493 0 
L 493 4672 
L 1293 4672 
L 1293 3520 
L 1274 2867 
Q 1338 3200 1587 3392 
Q 1837 3584 2221 3584 
Q 2739 3584 3049 3238 
Q 3360 2893 3360 2310 
L 3360 0 
L 2560 0 
L 2560 2214 
Q 2560 2541 2390 2717 
Q 2221 2893 1933 2893 
Q 1632 2893 1462 2713 
Q 1293 2534 1293 2202 
L 1293 0 
L 493 0 
z
" transform="scale(0.015625)"/>
      <path id="JetBrainsMono-Bold-6f" d="M 1920 -58 
Q 1242 -58 845 323 
Q 448 704 448 1350 
L 448 2170 
Q 448 2822 845 3200 
Q 1242 3578 1920 3578 
Q 2598 3578 2995 3200 
Q 3392 2822 3392 2170 
L 3392 1350 
Q 3392 704 2995 323 
Q 2598 -58 1920 -58 
z
M 1920 640 
Q 2240 640 2416 816 
Q 2592 992 2592 1325 
L 2592 2195 
Q 2592 2528 2416 2704 
Q 2240 2880 1920 2880 
Q 1600 2880 1424 2704 
Q 1248 2528 1248 2195 
L 1248 1325 
Q 1248 992 1424 816 
Q 1600 640 1920 640 
z
" transform="scale(0.015625)"/>
      <path id="JetBrainsMono-Bold-6e" d="M 493 0 
L 493 3520 
L 1274 3520 
L 1274 2861 
Q 1338 3194 1587 3389 
Q 1837 3584 2221 3584 
Q 2739 3584 3049 3238 
Q 3360 2893 3360 2310 
L 3360 0 
L 2560 0 
L 2560 2214 
Q 2560 2541 2390 2717 
Q 2221 2893 1933 2893 
Q 1632 2893 1462 2713 
Q 1293 2534 1293 2202 
L 1293 0 
L 493 0 
z
" transform="scale(0.015625)"/>
     </defs>
     <use xlink:href="#JetBrainsMono-Bold-50"/>
     <use xlink:href="#JetBrainsMono-Bold-79" transform="translate(59.999985 0)"/>
     <use xlink:href="#JetBrainsMono-Bold-74" transform="translate(119.999969 0)"/>
     <use xlink:href="#JetBrainsMono-Bold-68" transform="translate(179.999954 0)"/>
     <use xlink:href="#JetBrainsMono-Bold-6f" transform="translate(239.999939 0)"/>
     <use xlink:href="#JetBrainsMono-Bold-6e" transform="translate(299.999924 0)"/>
    </g>
   </g>
   <g id="text_4">
    <!-- 4.0% -->
    <g style="fill: #9b8bb8" transform="translate(277.968 34.731) scale(0.09 -0.09)">
     <use xlink:href="#JetBrainsMono-Regular-34"/>
     <use xlink:href="#JetBrainsMono-Regular-2e" transform="translate(59.999985 0)"/>
     <use xlink:href="#JetBrainsMono-Regular-30" transform="translate(119.999969 0)"/>
     <use xlink:href="#JetBrainsMono-Regular-25" transform="translate(179.999954 0)"/>
    </g>
   </g>
   <g id="patch_4">
    <path d="M 470.016 37.8 
L 478.416 37.8 
L 478.416 12.6 
L 470.016 12.6 
z
" clip-path="url(#pe5825d2c5d)" style="fill: #6e6e6e"/>
   </g>
   <g id="text_5">
    <!-- C -->
    <g style="fill: #6b5a8a" transform="translate(485.328 21.169) scale(0.11 -0.11)">
     <use xlink:href="#JetBrainsMono-Bold-43"/>
    </g>
   </g>
   <g id="text_6">
    <!-- 2.0% -->
    <g style="fill: #9b8bb8" transform="translate(485.328 34.731) scale(0.09 -0.09)">
     <defs>
      <path id="JetBrainsMono-Regular-32" d="M 550 0 
L 550 531 
L 2106 2195 
Q 2445 2554 2585 2835 
Q 2726 3117 2726 3386 
Q 2726 3770 2505 3997 
Q 2285 4224 1907 4224 
Q 1517 4224 1289 3990 
Q 1062 3757 1062 3360 
L 486 3360 
Q 506 3994 890 4365 
Q 1274 4736 1907 4736 
Q 2554 4736 2934 4371 
Q 3315 4006 3315 3379 
Q 3315 3046 3132 2675 
Q 2950 2304 2509 1843 
L 1248 525 
L 3373 525 
L 3373 0 
L 550 0 
z
" transform="scale(0.015625)"/>
     </defs>
     <use xlink:href="#JetBrainsMono-Regular-32"/>
     <use xlink:href="#JetBrainsMono-Regular-2e" transform="translate(59.999985 0)"/>
     <use xlink:href="#JetBrainsMono-Regular-30" transform="translate(119.999969 0)"/>
     <use xlink:href="#JetBrainsMono-Regular-25" transform="translate(179.999954 0)"/>
    </g>
   </g>
  </g>
 </g>
 <defs>
  <clipPath id="pe5825d2c5d">
   <rect x="0" y="0" width="691.2" height="50.4"/>
  </clipPath>
 </defs>
</svg>
