<?xml version="1.0" encoding="utf-8" standalone="no"?>
<!DOCTYPE svg PUBLIC "-//W3C//DTD SVG 1.1//EN"
  "http://www.w3.org/Graphics/SVG/1.1/DTD/svg11.dtd">
<svg xmlns:xlink="http://www.w3.org/1999/xlink" width="619.68384pt" height="239.29173pt" viewBox="0 0 619.68384 239.29173" xmlns="http://www.w3.org/2000/svg" version="1.1">
 <metadata>
  <rdf:RDF xmlns:dc="http://purl.org/dc/elements/1.1/" xmlns:cc="http://creativecommons.org/ns#" xmlns:rdf="http://www.w3.org/1999/02/22-rdf-syntax-ns#">
   <cc:Work>
    <dc:type rdf:resource="http://purl.org/dc/dcmitype/StillImage"/>
    <dc:date>2026-03-31T17:28:12.820781</dc:date>
    <dc:format>image/svg+xml</dc:format>
    <dc:creator>
     <cc:Agent>
      <dc:title>Matplotlib v3.10.8, https://matplotlib.org/</dc:title>
     </cc:Agent>
    </dc:creator>
   </cc:Work>
  </rdf:RDF>
 </metadata>
 <defs>
  <style type="text/css">*{stroke-linejoin: round; stroke-linecap: butt}</style>
 </defs>
 <g id="figure_1">
  <g id="patch_1">
   <path d="M 0 239.29173 
L 619.68384 239.29173 
L 619.68384 0 
L 0 0 
L 0 239.29173 
z
" style="fill: none"/>
  </g>
  <g id="axes_1">
   <g id="patch_2">
    <path d="M 120.00384 45.46773 
C 109.87599 45.46773 99.833258 47.322717 90.373683 50.940697 
C 80.914108 54.558678 72.196693 59.878839 64.653752 66.637343 
C 57.110811 73.395847 50.86913 81.479094 46.238248 90.486217 
C 41.607365 99.49334 38.66512 109.272944 37.557424 119.340036 
C 36.449728 129.407128 37.1952 139.592496 39.75687 149.391026 
C 42.31854 159.189556 46.65335 168.436548 52.546328 176.673426 
C 58.439307 184.910303 65.791401 191.998615 74.238004 197.586837 
C 82.684608 203.175059 92.083746 207.169262 101.969295 209.371364 
C 111.854844 211.573466 122.060643 211.946454 132.080564 210.471829 
C 142.100486 208.997205 151.766109 205.699755 160.598095 200.743006 
C 169.430082 195.786258 177.279979 189.253528 183.758493 181.468787 
C 190.237008 173.684046 195.235245 164.778145 198.505332 155.192746 
C 201.775419 145.607348 203.262391 135.503568 202.892505 125.382475 
C 202.522619 115.261382 200.302092 105.293097 196.341045 95.971967 
C 192.379999 86.650838 186.745012 78.13354 179.715536 70.842463 
C 172.686059 63.551386 164.380249 57.609083 155.210007 53.310246 
L 140.423417 84.852869 
C 145.742157 87.346195 150.559527 90.79273 154.636624 95.021555 
C 158.71372 99.25038 161.982012 104.190413 164.279419 109.596668 
C 166.576826 115.002923 167.864732 120.784528 168.079266 126.654762 
C 168.2938 132.524996 167.431356 138.385188 165.534706 143.944719 
C 163.638055 149.504251 160.739077 154.669673 156.981539 159.184823 
C 153.224001 163.699973 148.67106 167.488956 143.548508 170.36387 
C 138.425956 173.238784 132.819894 175.151305 127.00834 176.006587 
C 121.196786 176.86187 115.277422 176.645537 109.543804 175.368318 
C 103.810185 174.091098 98.358685 171.774461 93.459655 168.533292 
C 88.560625 165.292123 84.296411 161.180902 80.878483 156.403513 
C 77.460556 151.626125 74.946366 146.262869 73.460597 140.579722 
C 71.974829 134.896575 71.542455 128.989061 72.184919 123.150148 
C 72.827383 117.311234 74.533885 111.639064 77.219796 106.414933 
C 79.905708 101.190801 83.525883 96.502518 87.900789 92.582586 
C 92.275695 88.662653 97.331796 85.57696 102.818349 83.478531 
C 108.304902 81.380102 114.129687 80.30421 120.00384 80.30421 
z
" style="fill: #9b4f96; stroke: #ffffff; stroke-width: 1.5; stroke-linejoin: miter"/>
   </g>
   <g id="patch_3">
    <path d="M 155.210015 53.310249 
C 151.550426 51.5947 147.77035 50.148946 143.899975 48.984521 
C 140.029599 47.820097 136.079264 46.940117 132.080591 46.351636 
L 127.008355 80.816875 
C 129.327586 81.158194 131.61878 81.668583 133.863598 82.343949 
C 136.108416 83.019315 138.30086 83.857852 140.423421 84.852871 
z
" style="fill: #3572a5; stroke: #ffffff; stroke-width: 1.5; stroke-linejoin: miter"/>
   </g>
   <g id="patch_4">
    <path d="M 132.080591 46.351636 
C 130.081924 46.057491 128.073199 45.836467 126.058393 45.689002 
C 124.043587 45.541537 122.024047 45.46773 120.003852 45.46773 
L 120.003847 80.30421 
C 121.17556 80.30421 122.346893 80.347018 123.515481 80.432548 
C 124.684068 80.518077 125.849129 80.646272 127.008355 80.816875 
z
" style="fill: #6e6e6e; stroke: #ffffff; stroke-width: 1.5; stroke-linejoin: miter"/>
   </g>
   <g id="text_1">
    <!-- 43 -->
    <g style="fill: #6b5a8a" transform="translate(109.80384 124.79233) scale(0.17 -0.17)">
     <defs>
      <path id="JetBrainsMono-Bold-34" d="M 2445 0 
L 2445 928 
L 378 928 
L 378 2086 
L 2106 4672 
L 2995 4672 
L 1146 1875 
L 1146 1632 
L 2445 1632 
L 2445 2688 
L 3251 2688 
L 3251 0 
L 2445 0 
z
" transform="scale(0.015625)"/>
      <path id="JetBrainsMono-Bold-33" d="M 1875 -64 
Q 1184 -64 781 297 
Q 378 659 378 1280 
L 1184 1280 
Q 1184 986 1369 810 
Q 1555 634 1882 634 
Q 2202 634 2387 810 
Q 2573 986 2573 1280 
L 2573 1632 
Q 2573 1946 2390 2122 
Q 2208 2298 1882 2298 
L 1293 2298 
L 1293 2938 
L 2368 3968 
L 544 3968 
L 544 4672 
L 3245 4672 
L 3245 3994 
L 2170 2963 
Q 2733 2886 3056 2537 
Q 3379 2189 3379 1632 
L 3379 1280 
Q 3379 659 2972 297 
Q 2566 -64 1875 -64 
z
" transform="scale(0.015625)"/>
     </defs>
     <use xlink:href="#JetBrainsMono-Bold-34"/>
     <use xlink:href="#JetBrainsMono-Bold-33" transform="translate(59.999985 0)"/>
    </g>
   </g>
   <g id="text_2">
    <!-- files -->
    <g style="fill: #9b8bb8" transform="translate(108.00384 148.85941) scale(0.08 -0.08)">
     <defs>
      <path id="JetBrainsMono-Regular-66" d="M 1376 0 
L 1376 2515 
L 352 2515 
L 352 3040 
L 1376 3040 
L 1376 3776 
Q 1376 4192 1638 4432 
Q 1901 4672 2362 4672 
L 3392 4672 
L 3392 4147 
L 2362 4147 
Q 1952 4147 1952 3776 
L 1952 3040 
L 3392 3040 
L 3392 2515 
L 1952 2515 
L 1952 0 
L 1376 0 
z
" transform="scale(0.015625)"/>
      <path id="JetBrainsMono-Regular-69" d="M 544 0 
L 544 525 
L 1792 525 
L 1792 2995 
L 672 2995 
L 672 3520 
L 2368 3520 
L 2368 525 
L 3552 525 
L 3552 0 
L 544 0 
z
M 2016 4154 
Q 1805 4154 1683 4262 
Q 1562 4371 1562 4557 
Q 1562 4749 1683 4861 
Q 1805 4973 2016 4973 
Q 2227 4973 2348 4861 
Q 2470 4749 2470 4557 
Q 2470 4371 2348 4262 
Q 2227 4154 2016 4154 
z
" transform="scale(0.015625)"/>
      <path id="JetBrainsMono-Regular-6c" d="M 2432 0 
Q 1965 0 1686 272 
Q 1408 544 1408 992 
L 1408 4147 
L 192 4147 
L 192 4672 
L 1984 4672 
L 1984 992 
Q 1984 774 2105 649 
Q 2227 525 2432 525 
L 3520 525 
L 3520 0 
L 2432 0 
z
" transform="scale(0.015625)"/>
      <path id="JetBrainsMono-Regular-65" d="M 1920 -64 
Q 1299 -64 918 310 
Q 538 685 538 1344 
L 538 2176 
Q 538 2835 918 3209 
Q 1299 3584 1920 3584 
Q 2336 3584 2646 3417 
Q 2957 3251 3129 2950 
Q 3302 2650 3302 2240 
L 3302 1613 
L 1101 1613 
L 1101 1280 
Q 1101 890 1325 662 
Q 1549 435 1920 435 
Q 2240 435 2448 560 
Q 2656 685 2701 896 
L 3277 896 
Q 3219 454 2848 195 
Q 2477 -64 1920 -64 
z
M 1101 2061 
L 2739 2061 
L 2739 2240 
Q 2739 2656 2524 2883 
Q 2310 3110 1920 3110 
Q 1530 3110 1315 2883 
Q 1101 2656 1101 2240 
L 1101 2061 
z
" transform="scale(0.015625)"/>
      <path id="JetBrainsMono-Regular-73" d="M 1779 -51 
Q 1190 -51 867 214 
Q 544 480 544 966 
L 1120 966 
Q 1120 723 1293 585 
Q 1466 448 1779 448 
L 2061 448 
Q 2381 448 2557 589 
Q 2733 730 2733 986 
Q 2733 1440 2317 1498 
L 1344 1638 
Q 986 1690 787 1936 
Q 589 2182 589 2586 
Q 589 3046 905 3308 
Q 1222 3571 1779 3571 
L 2061 3571 
Q 2573 3571 2896 3318 
Q 3219 3066 3245 2656 
L 2662 2656 
Q 2650 2842 2486 2963 
Q 2323 3085 2061 3085 
L 1779 3085 
Q 1485 3085 1318 2950 
Q 1152 2816 1152 2586 
Q 1152 2214 1491 2163 
L 2400 2035 
Q 3296 1907 3296 986 
Q 3296 493 2973 221 
Q 2650 -51 2061 -51 
L 1779 -51 
z
" transform="scale(0.015625)"/>
     </defs>
     <use xlink:href="#JetBrainsMono-Regular-66"/>
     <use xlink:href="#JetBrainsMono-Regular-69" transform="translate(59.999985 0)"/>
     <use xlink:href="#JetBrainsMono-Regular-6c" transform="translate(119.999969 0)"/>
     <use xlink:href="#JetBrainsMono-Regular-65" transform="translate(179.999954 0)"/>
     <use xlink:href="#JetBrainsMono-Regular-73" transform="translate(239.999939 0)"/>
    </g>
   </g>
   <g id="patch_5">
    <path d="M -4.41216 17.26677 
C -2.6524 17.26677 -0.964477 16.56761 0.279861 15.323271 
C 1.5242 14.078933 2.22336 12.39101 2.22336 10.63125 
C 2.22336 8.87149 1.5242 7.183567 0.279861 5.939229 
C -0.964477 4.69489 -2.6524 3.99573 -4.41216 3.99573 
C -6.17192 3.99573 -7.859843 4.69489 -9.104181 5.939229 
C -10.34852 7.183567 -11.04768 8.87149 -11.04768 10.63125 
C -11.04768 12.39101 -10.34852 14.078933 -9.104181 15.323271 
C -7.859843 16.56761 -6.17192 17.26677 -4.41216 17.26677 
z
" clip-path="url(#p649b95f849)" style="fill: #9b4f96; stroke: #9b4f96; stroke-linejoin: miter"/>
   </g>
   <g id="text_3">
    <!-- C# 93% -->
    <g style="fill: #6b5a8a" transform="translate(7.2 12.69375) scale(0.075 -0.075)">
     <defs>
      <path id="JetBrainsMono-Regular-43" d="M 1971 -64 
Q 1331 -64 960 294 
Q 589 653 589 1280 
L 589 3392 
Q 589 4019 960 4377 
Q 1331 4736 1971 4736 
Q 2598 4736 2969 4374 
Q 3341 4013 3341 3392 
L 2765 3392 
Q 2765 3789 2557 4003 
Q 2349 4218 1971 4218 
Q 1594 4218 1379 4003 
Q 1165 3789 1165 3392 
L 1165 1280 
Q 1165 883 1379 668 
Q 1594 454 1971 454 
Q 2349 454 2557 668 
Q 2765 883 2765 1280 
L 3341 1280 
Q 3341 659 2969 297 
Q 2598 -64 1971 -64 
z
" transform="scale(0.015625)"/>
      <path id="JetBrainsMono-Regular-23" d="M 531 0 
L 781 1344 
L 224 1344 
L 224 1760 
L 851 1760 
L 1069 2912 
L 448 2912 
L 448 3328 
L 1139 3328 
L 1389 4672 
L 1837 4672 
L 1587 3328 
L 2611 3328 
L 2861 4672 
L 3309 4672 
L 3059 3328 
L 3616 3328 
L 3616 2912 
L 2989 2912 
L 2771 1760 
L 3392 1760 
L 3392 1344 
L 2701 1344 
L 2451 0 
L 2003 0 
L 2253 1344 
L 1229 1344 
L 979 0 
L 531 0 
z
M 1299 1760 
L 2323 1760 
L 2541 2912 
L 1517 2912 
L 1299 1760 
z
" transform="scale(0.015625)"/>
      <path id="JetBrainsMono-Regular-20" transform="scale(0.015625)"/>
      <path id="JetBrainsMono-Regular-39" d="M 1248 0 
L 2400 2003 
L 2381 2016 
Q 2317 1914 2144 1853 
Q 1971 1792 1766 1792 
Q 1363 1792 1059 1974 
Q 755 2157 582 2477 
Q 410 2797 410 3219 
Q 410 3674 602 4013 
Q 794 4352 1133 4544 
Q 1472 4736 1914 4736 
Q 2368 4736 2707 4547 
Q 3046 4358 3238 4022 
Q 3430 3686 3430 3245 
Q 3430 2938 3315 2614 
Q 3200 2291 3002 1939 
L 1920 0 
L 1248 0 
z
M 1920 2240 
Q 2336 2240 2595 2515 
Q 2854 2790 2854 3232 
Q 2854 3674 2595 3949 
Q 2336 4224 1920 4224 
Q 1504 4224 1245 3949 
Q 986 3674 986 3232 
Q 986 2790 1245 2515 
Q 1504 2240 1920 2240 
z
" transform="scale(0.015625)"/>
      <path id="JetBrainsMono-Regular-33" d="M 1850 -64 
Q 1203 -64 825 297 
Q 448 659 448 1280 
L 1024 1280 
Q 1024 896 1248 672 
Q 1472 448 1856 448 
Q 2240 448 2464 672 
Q 2688 896 2688 1280 
L 2688 1600 
Q 2688 1984 2464 2208 
Q 2240 2432 1856 2432 
L 1350 2432 
L 1350 2931 
L 2496 4147 
L 576 4147 
L 576 4672 
L 3149 4672 
L 3149 4134 
L 2022 2938 
Q 2598 2893 2931 2537 
Q 3264 2182 3264 1600 
L 3264 1280 
Q 3264 659 2883 297 
Q 2502 -64 1850 -64 
z
" transform="scale(0.015625)"/>
      <path id="JetBrainsMono-Regular-25" d="M 979 2560 
Q 570 2560 330 2793 
Q 90 3027 96 3424 
L 96 3840 
Q 90 4237 330 4470 
Q 570 4704 979 4704 
Q 1389 4704 1629 4470 
Q 1869 4237 1875 3840 
L 1875 3424 
Q 1875 3027 1635 2793 
Q 1395 2560 979 2560 
z
M 90 0 
L 3277 4672 
L 3750 4672 
L 563 0 
L 90 0 
z
M 986 2995 
Q 1178 2995 1290 3110 
Q 1402 3226 1402 3424 
L 1402 3840 
Q 1402 4038 1290 4153 
Q 1178 4269 986 4269 
Q 794 4269 682 4153 
Q 570 4038 570 3840 
L 570 3424 
Q 570 3226 682 3110 
Q 794 2995 986 2995 
z
M 2854 -32 
Q 2445 -32 2205 201 
Q 1965 435 1965 832 
L 1965 1248 
Q 1958 1645 2201 1878 
Q 2445 2112 2854 2112 
Q 3264 2112 3504 1878 
Q 3744 1645 3744 1248 
L 3744 832 
Q 3744 435 3504 201 
Q 3264 -32 2854 -32 
z
M 2854 410 
Q 3046 410 3158 522 
Q 3270 634 3270 832 
L 3270 1248 
Q 3270 1446 3158 1561 
Q 3046 1677 2848 1677 
Q 2662 1677 2550 1561 
Q 2438 1446 2438 1248 
L 2438 832 
Q 2432 634 2544 522 
Q 2656 410 2854 410 
z
" transform="scale(0.015625)"/>
     </defs>
     <use xlink:href="#JetBrainsMono-Regular-43"/>
     <use xlink:href="#JetBrainsMono-Regular-23" transform="translate(59.999985 0)"/>
     <use xlink:href="#JetBrainsMono-Regular-20" transform="translate(119.999969 0)"/>
     <use xlink:href="#JetBrainsMono-Regular-39" transform="translate(179.999954 0)"/>
     <use xlink:href="#JetBrainsMono-Regular-33" transform="translate(239.999939 0)"/>
     <use xlink:href="#JetBrainsMono-Regular-25" transform="translate(299.999924 0)"/>
    </g>
   </g>
   <g id="patch_6">
    <path d="M 107.56224 17.26677 
C 109.322 17.26677 111.009923 16.56761 112.254261 15.323271 
C 113.4986 14.078933 114.19776 12.39101 114.19776 10.63125 
C 114.19776 8.87149 113.4986 7.183567 112.254261 5.939229 
C 111.009923 4.69489 109.322 3.99573 107.56224 3.99573 
C 105.80248 3.99573 104.114557 4.69489 102.870219 5.939229 
C 101.62588 7.183567 100.92672 8.87149 100.92672 10.63125 
C 100.92672 12.39101 101.62588 14.078933 102.870219 15.323271 
C 104.114557 16.56761 105.80248 17.26677 107.56224 17.26677 
z
" clip-path="url(#p649b95f849)" style="fill: #3572a5; stroke: #3572a5; stroke-linejoin: miter"/>
   </g>
   <g id="text_4">
    <!-- Python 5% -->
    <g style="fill: #6b5a8a" transform="translate(119.1744 12.7125) scale(0.075 -0.075)">
     <defs>
      <path id="JetBrainsMono-Regular-50" d="M 589 0 
L 589 4672 
L 2093 4672 
Q 2746 4672 3133 4297 
Q 3520 3923 3520 3296 
Q 3520 2669 3133 2294 
Q 2746 1920 2093 1920 
L 1165 1920 
L 1165 0 
L 589 0 
z
M 1165 2438 
L 2093 2438 
Q 2470 2438 2697 2672 
Q 2925 2906 2925 3296 
Q 2925 3693 2697 3923 
Q 2470 4154 2093 4154 
L 1165 4154 
L 1165 2438 
z
" transform="scale(0.015625)"/>
      <path id="JetBrainsMono-Regular-79" d="M 1139 -1152 
L 1658 218 
L 346 3520 
L 966 3520 
L 1798 1344 
Q 1850 1216 1894 1075 
Q 1939 934 1958 832 
Q 1978 934 2022 1075 
Q 2067 1216 2112 1344 
L 2886 3520 
L 3494 3520 
L 1741 -1152 
L 1139 -1152 
z
" transform="scale(0.015625)"/>
      <path id="JetBrainsMono-Regular-74" d="M 2272 0 
Q 1837 0 1574 253 
Q 1312 506 1312 928 
L 1312 2995 
L 301 2995 
L 301 3520 
L 1312 3520 
L 1312 4512 
L 1888 4512 
L 1888 3520 
L 3328 3520 
L 3328 2995 
L 1888 2995 
L 1888 928 
Q 1888 749 1993 637 
Q 2099 525 2272 525 
L 3296 525 
L 3296 0 
L 2272 0 
z
" transform="scale(0.015625)"/>
      <path id="JetBrainsMono-Regular-68" d="M 589 0 
L 589 4672 
L 1165 4672 
L 1165 2848 
L 1171 2848 
Q 1216 3200 1459 3392 
Q 1702 3584 2106 3584 
Q 2637 3584 2950 3257 
Q 3264 2931 3264 2368 
L 3264 0 
L 2688 0 
L 2688 2272 
Q 2688 2669 2486 2883 
Q 2285 3098 1939 3098 
Q 1581 3098 1373 2874 
Q 1165 2650 1165 2240 
L 1165 0 
L 589 0 
z
" transform="scale(0.015625)"/>
      <path id="JetBrainsMono-Regular-6f" d="M 1920 -51 
Q 1286 -51 912 320 
Q 538 691 538 1357 
L 538 2163 
Q 538 2835 909 3203 
Q 1280 3571 1920 3571 
Q 2560 3571 2931 3203 
Q 3302 2835 3302 2163 
L 3302 1357 
Q 3302 691 2928 320 
Q 2554 -51 1920 -51 
z
M 1920 461 
Q 2298 461 2512 672 
Q 2726 883 2726 1293 
L 2726 2227 
Q 2726 2637 2512 2848 
Q 2298 3059 1920 3059 
Q 1549 3059 1331 2848 
Q 1114 2637 1114 2227 
L 1114 1293 
Q 1114 883 1331 672 
Q 1549 461 1920 461 
z
" transform="scale(0.015625)"/>
      <path id="JetBrainsMono-Regular-6e" d="M 589 0 
L 589 3520 
L 1165 3520 
L 1165 2848 
L 1171 2848 
Q 1216 3200 1459 3392 
Q 1702 3584 2106 3584 
Q 2637 3584 2950 3257 
Q 3264 2931 3264 2368 
L 3264 0 
L 2688 0 
L 2688 2266 
Q 2688 2669 2486 2883 
Q 2285 3098 1939 3098 
Q 1581 3098 1373 2874 
Q 1165 2650 1165 2240 
L 1165 0 
L 589 0 
z
" transform="scale(0.015625)"/>
      <path id="JetBrainsMono-Regular-35" d="M 1882 -64 
Q 1235 -64 857 297 
Q 480 659 480 1280 
L 1056 1280 
Q 1056 896 1280 672 
Q 1504 448 1888 448 
Q 2272 448 2496 672 
Q 2720 896 2720 1280 
L 2720 1568 
Q 2720 1952 2502 2176 
Q 2285 2400 1914 2400 
L 640 2400 
L 640 4672 
L 3130 4672 
L 3130 4147 
L 1178 4147 
L 1190 2925 
L 1946 2925 
Q 2592 2925 2944 2569 
Q 3296 2214 3296 1568 
L 3296 1280 
Q 3296 659 2915 297 
Q 2534 -64 1882 -64 
z
" transform="scale(0.015625)"/>
     </defs>
     <use xlink:href="#JetBrainsMono-Regular-50"/>
     <use xlink:href="#JetBrainsMono-Regular-79" transform="translate(59.999985 0)"/>
     <use xlink:href="#JetBrainsMono-Regular-74" transform="translate(119.999969 0)"/>
     <use xlink:href="#JetBrainsMono-Regular-68" transform="translate(179.999954 0)"/>
     <use xlink:href="#JetBrainsMono-Regular-6f" transform="translate(239.999939 0)"/>
     <use xlink:href="#JetBrainsMono-Regular-6e" transform="translate(299.999924 0)"/>
     <use xlink:href="#JetBrainsMono-Regular-20" transform="translate(359.999908 0)"/>
     <use xlink:href="#JetBrainsMono-Regular-35" transform="translate(419.999893 0)"/>
     <use xlink:href="#JetBrainsMono-Regular-25" transform="translate(479.999878 0)"/>
    </g>
   </g>
   <g id="patch_7">
    <path d="M -4.41216 43.80885 
C -2.6524 43.80885 -0.964477 43.10969 0.279861 41.865351 
C 1.5242 40.621013 2.22336 38.93309 2.22336 37.17333 
C 2.22336 35.41357 1.5242 33.725647 0.279861 32.481309 
C -0.964477 31.23697 -2.6524 30.53781 -4.41216 30.53781 
C -6.17192 30.53781 -7.859843 31.23697 -9.104181 32.481309 
C -10.34852 33.725647 -11.04768 35.41357 -11.04768 37.17333 
C -11.04768 38.93309 -10.34852 40.621013 -9.104181 41.865351 
C -7.859843 43.10969 -6.17192 43.80885 -4.41216 43.80885 
z
" clip-path="url(#p649b95f849)" style="fill: #6e6e6e; stroke: #6e6e6e; stroke-linejoin: miter"/>
   </g>
   <g id="text_5">
    <!-- C 2% -->
    <g style="fill: #6b5a8a" transform="translate(7.2 39.23583) scale(0.075 -0.075)">
     <defs>
      <path id="JetBrainsMono-Regular-32" d="M 550 0 
L 550 531 
L 2106 2195 
Q 2445 2554 2585 2835 
Q 2726 3117 2726 3386 
Q 2726 3770 2505 3997 
Q 2285 4224 1907 4224 
Q 1517 4224 1289 3990 
Q 1062 3757 1062 3360 
L 486 3360 
Q 506 3994 890 4365 
Q 1274 4736 1907 4736 
Q 2554 4736 2934 4371 
Q 3315 4006 3315 3379 
Q 3315 3046 3132 2675 
Q 2950 2304 2509 1843 
L 1248 525 
L 3373 525 
L 3373 0 
L 550 0 
z
" transform="scale(0.015625)"/>
     </defs>
     <use xlink:href="#JetBrainsMono-Regular-43"/>
     <use xlink:href="#JetBrainsMono-Regular-20" transform="translate(59.999985 0)"/>
     <use xlink:href="#JetBrainsMono-Regular-32" transform="translate(119.999969 0)"/>
     <use xlink:href="#JetBrainsMono-Regular-25" transform="translate(179.999954 0)"/>
    </g>
   </g>
  </g>
  <g id="axes_2">
   <g id="patch_8">
    <path d="M 264.11904 225.87093 
L 592.910313 225.87093 
L 592.910313 212.39253 
L 264.11904 212.39253 
z
" clip-path="url(#p2d001e71d9)" style="fill: #ad5600"/>
   </g>
   <g id="patch_9">
    <path d="M 592.910313 225.87093 
L 597.96864 225.87093 
L 597.96864 212.39253 
L 592.910313 212.39253 
z
" clip-path="url(#p2d001e71d9)" style="fill: #435f7a"/>
   </g>
   <g id="line2d_1">
    <path d="M 264.11904 127.37493 
L 597.96864 127.37493 
" clip-path="url(#p2d001e71d9)" style="fill: none; stroke: #d8c8ef; stroke-width: 0.8; stroke-linecap: square"/>
   </g>
   <g id="line2d_2">
    <path d="M 264.11904 159.51573 
L 597.96864 159.51573 
" clip-path="url(#p2d001e71d9)" style="fill: none; stroke: #d8c8ef; stroke-width: 0.8; stroke-linecap: square"/>
   </g>
   <g id="text_6">
    <!-- sernn -->
    <g style="fill: #6b5a8a" transform="translate(264.11904 49.59273) scale(0.15 -0.15)">
     <defs>
      <path id="JetBrainsMono-Bold-73" d="M 1773 -58 
Q 1146 -58 781 227 
Q 416 512 416 998 
L 1203 998 
Q 1203 794 1353 685 
Q 1504 576 1773 576 
L 2054 576 
Q 2342 576 2499 685 
Q 2656 794 2656 998 
Q 2656 1190 2547 1283 
Q 2438 1376 2214 1408 
L 1338 1523 
Q 915 1581 688 1849 
Q 461 2118 461 2547 
Q 461 3046 793 3312 
Q 1126 3578 1754 3578 
L 2048 3578 
Q 2637 3578 2995 3309 
Q 3354 3040 3366 2592 
L 2573 2592 
Q 2566 2758 2425 2857 
Q 2285 2957 2048 2957 
L 1754 2957 
Q 1498 2957 1363 2851 
Q 1229 2746 1229 2566 
Q 1229 2406 1328 2329 
Q 1427 2253 1619 2234 
L 2445 2118 
Q 2931 2061 3177 1776 
Q 3424 1491 3424 1011 
Q 3424 499 3075 220 
Q 2726 -58 2054 -58 
L 1773 -58 
z
" transform="scale(0.015625)"/>
      <path id="JetBrainsMono-Bold-65" d="M 1926 -64 
Q 1478 -64 1145 109 
Q 813 282 630 598 
Q 448 915 448 1344 
L 448 2176 
Q 448 2605 630 2921 
Q 813 3238 1145 3411 
Q 1478 3584 1926 3584 
Q 2368 3584 2697 3411 
Q 3027 3238 3209 2928 
Q 3392 2618 3392 2202 
L 3392 1562 
L 1216 1562 
L 1216 1318 
Q 1216 960 1401 777 
Q 1587 595 1926 595 
Q 2176 595 2352 681 
Q 2528 768 2560 934 
L 3354 934 
Q 3270 480 2880 208 
Q 2490 -64 1926 -64 
z
M 1216 2202 
L 1216 2080 
L 2624 2086 
L 2624 2208 
Q 2624 2573 2445 2771 
Q 2266 2970 1926 2970 
Q 1574 2970 1395 2768 
Q 1216 2566 1216 2202 
z
" transform="scale(0.015625)"/>
      <path id="JetBrainsMono-Bold-72" d="M 621 0 
L 621 3520 
L 1402 3520 
L 1402 2835 
Q 1466 3181 1718 3382 
Q 1971 3584 2374 3584 
Q 2912 3584 3213 3238 
Q 3514 2893 3514 2272 
L 3514 1939 
L 2714 1939 
L 2714 2234 
Q 2714 2554 2547 2723 
Q 2381 2893 2074 2893 
Q 1754 2893 1587 2701 
Q 1421 2509 1421 2157 
L 1421 0 
L 621 0 
z
" transform="scale(0.015625)"/>
      <path id="JetBrainsMono-Bold-6e" d="M 493 0 
L 493 3520 
L 1274 3520 
L 1274 2861 
Q 1338 3194 1587 3389 
Q 1837 3584 2221 3584 
Q 2739 3584 3049 3238 
Q 3360 2893 3360 2310 
L 3360 0 
L 2560 0 
L 2560 2214 
Q 2560 2541 2390 2717 
Q 2221 2893 1933 2893 
Q 1632 2893 1462 2713 
Q 1293 2534 1293 2202 
L 1293 0 
L 493 0 
z
" transform="scale(0.015625)"/>
     </defs>
     <use xlink:href="#JetBrainsMono-Bold-73"/>
     <use xlink:href="#JetBrainsMono-Bold-65" transform="translate(59.999985 0)"/>
     <use xlink:href="#JetBrainsMono-Bold-72" transform="translate(119.999969 0)"/>
     <use xlink:href="#JetBrainsMono-Bold-6e" transform="translate(179.999954 0)"/>
     <use xlink:href="#JetBrainsMono-Bold-6e" transform="translate(239.999939 0)"/>
    </g>
   </g>
   <g id="text_7">
    <!-- Silver V -->
    <g style="fill: #435f7a" transform="translate(264.11904 77.52313) scale(0.11 -0.11)">
     <defs>
      <path id="JetBrainsMono-Bold-53" d="M 1939 -64 
Q 1466 -64 1110 102 
Q 755 269 560 579 
Q 365 890 365 1318 
L 1152 1318 
Q 1152 1005 1366 819 
Q 1581 634 1939 634 
Q 2285 634 2486 816 
Q 2688 998 2688 1306 
Q 2688 1536 2557 1712 
Q 2426 1888 2182 1952 
L 1555 2112 
Q 1050 2240 755 2592 
Q 461 2944 461 3430 
Q 461 4026 851 4381 
Q 1242 4736 1894 4736 
Q 2336 4736 2665 4576 
Q 2995 4416 3174 4125 
Q 3354 3834 3354 3443 
L 2573 3443 
Q 2573 3712 2387 3878 
Q 2202 4045 1894 4045 
Q 1594 4045 1418 3881 
Q 1242 3718 1242 3456 
Q 1242 3238 1366 3097 
Q 1491 2957 1715 2893 
L 2362 2733 
Q 2880 2605 3177 2221 
Q 3475 1837 3475 1306 
Q 3475 890 3286 582 
Q 3098 275 2752 105 
Q 2406 -64 1939 -64 
z
" transform="scale(0.015625)"/>
      <path id="JetBrainsMono-Bold-69" d="M 486 0 
L 486 723 
L 1690 723 
L 1690 2797 
L 614 2797 
L 614 3520 
L 2490 3520 
L 2490 723 
L 3571 723 
L 3571 0 
L 486 0 
z
M 2032 4109 
Q 1789 4109 1648 4233 
Q 1507 4358 1507 4570 
Q 1507 4781 1648 4905 
Q 1789 5030 2032 5030 
Q 2275 5030 2416 4905 
Q 2557 4781 2557 4570 
Q 2557 4358 2416 4233 
Q 2275 4109 2032 4109 
z
" transform="scale(0.015625)"/>
      <path id="JetBrainsMono-Bold-6c" d="M 2490 0 
Q 1965 0 1648 313 
Q 1331 627 1331 1139 
L 1331 3949 
L 173 3949 
L 173 4672 
L 2131 4672 
L 2131 1158 
Q 2131 960 2243 841 
Q 2355 723 2547 723 
L 3578 723 
L 3578 0 
L 2490 0 
z
" transform="scale(0.015625)"/>
      <path id="JetBrainsMono-Bold-76" d="M 1414 0 
L 230 3520 
L 1069 3520 
L 1747 1382 
Q 1811 1190 1859 995 
Q 1907 800 1926 659 
Q 1952 800 1993 995 
Q 2035 1190 2093 1376 
L 2765 3520 
L 3610 3520 
L 2432 0 
L 1414 0 
z
" transform="scale(0.015625)"/>
      <path id="JetBrainsMono-Bold-20" transform="scale(0.015625)"/>
      <path id="JetBrainsMono-Bold-56" d="M 1402 0 
L 224 4672 
L 1050 4672 
L 1760 1626 
Q 1818 1402 1866 1142 
Q 1914 883 1939 730 
Q 1965 883 2013 1142 
Q 2061 1402 2118 1632 
L 2803 4672 
L 3616 4672 
L 2438 0 
L 1402 0 
z
" transform="scale(0.015625)"/>
     </defs>
     <use xlink:href="#JetBrainsMono-Bold-53"/>
     <use xlink:href="#JetBrainsMono-Bold-69" transform="translate(59.999985 0)"/>
     <use xlink:href="#JetBrainsMono-Bold-6c" transform="translate(119.999969 0)"/>
     <use xlink:href="#JetBrainsMono-Bold-76" transform="translate(179.999954 0)"/>
     <use xlink:href="#JetBrainsMono-Bold-65" transform="translate(239.999939 0)"/>
     <use xlink:href="#JetBrainsMono-Bold-72" transform="translate(299.999924 0)"/>
     <use xlink:href="#JetBrainsMono-Bold-20" transform="translate(359.999908 0)"/>
     <use xlink:href="#JetBrainsMono-Bold-56" transform="translate(419.999893 0)"/>
    </g>
   </g>
   <g id="text_8">
    <!-- Rating -->
    <g style="fill: #9b8bb8" transform="translate(264.11904 114.211055) scale(0.08 -0.08)">
     <defs>
      <path id="JetBrainsMono-Regular-52" d="M 595 0 
L 595 4672 
L 2035 4672 
Q 2451 4672 2764 4502 
Q 3078 4333 3251 4032 
Q 3424 3731 3424 3328 
Q 3424 2854 3181 2515 
Q 2938 2176 2534 2042 
L 3488 0 
L 2854 0 
L 1939 1984 
L 1165 1984 
L 1165 0 
L 595 0 
z
M 1165 2502 
L 2035 2502 
Q 2394 2502 2611 2729 
Q 2829 2957 2829 3328 
Q 2829 3706 2611 3930 
Q 2394 4154 2035 4154 
L 1165 4154 
L 1165 2502 
z
" transform="scale(0.015625)"/>
      <path id="JetBrainsMono-Regular-61" d="M 1613 -64 
Q 1069 -64 749 240 
Q 429 544 429 1037 
Q 429 1363 576 1606 
Q 723 1850 985 1987 
Q 1248 2125 1587 2125 
L 2675 2125 
L 2675 2400 
Q 2675 3085 1926 3085 
Q 1594 3085 1389 2963 
Q 1184 2842 1171 2624 
L 595 2624 
Q 627 3040 982 3312 
Q 1338 3584 1926 3584 
Q 2566 3584 2908 3277 
Q 3251 2970 3251 2419 
L 3251 0 
L 2682 0 
L 2682 640 
L 2669 640 
Q 2618 314 2342 125 
Q 2067 -64 1613 -64 
z
M 1754 422 
Q 2176 422 2425 627 
Q 2675 832 2675 1184 
L 2675 1677 
L 1651 1677 
Q 1370 1677 1194 1507 
Q 1018 1338 1018 1056 
Q 1018 762 1213 592 
Q 1408 422 1754 422 
z
" transform="scale(0.015625)"/>
      <path id="JetBrainsMono-Regular-67" d="M 1030 -1152 
L 1030 -627 
L 2022 -627 
Q 2323 -627 2496 -457 
Q 2669 -288 2669 0 
L 2669 320 
L 2682 896 
L 2662 896 
Q 2611 582 2361 412 
Q 2112 243 1734 243 
Q 1190 243 876 588 
Q 563 934 563 1536 
L 563 2278 
Q 563 2880 876 3232 
Q 1190 3584 1734 3584 
Q 2112 3584 2361 3405 
Q 2611 3226 2662 2912 
L 2675 2912 
L 2675 3520 
L 3245 3520 
L 3245 0 
Q 3245 -531 2915 -841 
Q 2586 -1152 2016 -1152 
L 1030 -1152 
z
M 1907 723 
Q 2266 723 2470 947 
Q 2675 1171 2675 1568 
L 2675 2240 
Q 2675 2637 2470 2861 
Q 2266 3085 1907 3085 
Q 1542 3085 1340 2873 
Q 1139 2662 1139 2304 
L 1139 1504 
Q 1139 1146 1340 934 
Q 1542 723 1907 723 
z
" transform="scale(0.015625)"/>
     </defs>
     <use xlink:href="#JetBrainsMono-Regular-52"/>
     <use xlink:href="#JetBrainsMono-Regular-61" transform="translate(59.999985 0)"/>
     <use xlink:href="#JetBrainsMono-Regular-74" transform="translate(119.999969 0)"/>
     <use xlink:href="#JetBrainsMono-Regular-69" transform="translate(179.999954 0)"/>
     <use xlink:href="#JetBrainsMono-Regular-6e" transform="translate(239.999939 0)"/>
     <use xlink:href="#JetBrainsMono-Regular-67" transform="translate(299.999924 0)"/>
    </g>
   </g>
   <g id="text_9">
    <!-- 201 -->
    <g style="fill: #6b5a8a" transform="translate(579.06864 114.71043) scale(0.105 -0.105)">
     <defs>
      <path id="JetBrainsMono-Bold-32" d="M 474 0 
L 474 723 
L 2157 2445 
Q 2566 2874 2566 3315 
Q 2566 3629 2384 3824 
Q 2202 4019 1894 4019 
Q 1581 4019 1392 3817 
Q 1203 3616 1203 3283 
L 403 3283 
Q 403 3718 595 4044 
Q 787 4371 1126 4553 
Q 1466 4736 1914 4736 
Q 2355 4736 2688 4563 
Q 3021 4390 3203 4080 
Q 3386 3770 3386 3354 
Q 3386 2995 3216 2636 
Q 3046 2278 2656 1894 
L 1478 723 
L 3443 723 
L 3443 0 
L 474 0 
z
" transform="scale(0.015625)"/>
      <path id="JetBrainsMono-Bold-30" d="M 1920 -64 
Q 1466 -64 1133 109 
Q 800 282 617 595 
Q 435 909 435 1331 
L 435 3341 
Q 435 3763 617 4076 
Q 800 4390 1133 4563 
Q 1466 4736 1920 4736 
Q 2374 4736 2707 4563 
Q 3040 4390 3222 4076 
Q 3405 3763 3405 3341 
L 3405 1331 
Q 3405 909 3222 595 
Q 3040 282 2707 109 
Q 2374 -64 1920 -64 
z
M 1920 627 
Q 2253 627 2451 819 
Q 2650 1011 2650 1331 
L 2650 3341 
Q 2650 3661 2454 3853 
Q 2259 4045 1920 4045 
Q 1581 4045 1385 3853 
Q 1190 3661 1190 3341 
L 1190 1331 
Q 1190 1011 1388 819 
Q 1587 627 1920 627 
z
M 1920 1952 
Q 1728 1952 1613 2057 
Q 1498 2163 1498 2355 
Q 1498 2547 1613 2646 
Q 1728 2746 1920 2746 
Q 2112 2746 2227 2646 
Q 2342 2547 2342 2355 
Q 2342 2163 2227 2057 
Q 2112 1952 1920 1952 
z
" transform="scale(0.015625)"/>
      <path id="JetBrainsMono-Bold-31" d="M 538 0 
L 538 723 
L 1754 723 
L 1754 3898 
L 531 3002 
L 531 3898 
L 1606 4672 
L 2554 4672 
L 2554 723 
L 3533 723 
L 3533 0 
L 538 0 
z
" transform="scale(0.015625)"/>
     </defs>
     <use xlink:href="#JetBrainsMono-Bold-32"/>
     <use xlink:href="#JetBrainsMono-Bold-30" transform="translate(59.999985 0)"/>
     <use xlink:href="#JetBrainsMono-Bold-31" transform="translate(119.999969 0)"/>
    </g>
   </g>
   <g id="text_10">
    <!-- Rank -->
    <g style="fill: #9b8bb8" transform="translate(264.11904 146.16373) scale(0.08 -0.08)">
     <defs>
      <path id="JetBrainsMono-Regular-6b" d="M 621 0 
L 621 4672 
L 1197 4672 
L 1197 2067 
L 1869 2067 
L 2854 3520 
L 3514 3520 
L 2381 1843 
L 3578 0 
L 2906 0 
L 1882 1568 
L 1197 1568 
L 1197 0 
L 621 0 
z
" transform="scale(0.015625)"/>
     </defs>
     <use xlink:href="#JetBrainsMono-Regular-52"/>
     <use xlink:href="#JetBrainsMono-Regular-61" transform="translate(59.999985 0)"/>
     <use xlink:href="#JetBrainsMono-Regular-6e" transform="translate(119.999969 0)"/>
     <use xlink:href="#JetBrainsMono-Regular-6b" transform="translate(179.999954 0)"/>
    </g>
   </g>
   <g id="text_11">
    <!-- #131,317 -->
    <g style="fill: #6b5a8a" transform="translate(547.56864 146.85123) scale(0.105 -0.105)">
     <defs>
      <path id="JetBrainsMono-Bold-23" d="M 493 0 
L 710 1216 
L 224 1216 
L 224 1760 
L 800 1760 
L 998 2912 
L 448 2912 
L 448 3456 
L 1094 3456 
L 1312 4672 
L 1875 4672 
L 1658 3456 
L 2566 3456 
L 2784 4672 
L 3347 4672 
L 3130 3456 
L 3616 3456 
L 3616 2912 
L 3034 2912 
L 2835 1760 
L 3392 1760 
L 3392 1216 
L 2739 1216 
L 2528 0 
L 1965 0 
L 2182 1216 
L 1267 1216 
L 1056 0 
L 493 0 
z
M 1363 1760 
L 2272 1760 
L 2470 2912 
L 1562 2912 
L 1363 1760 
z
" transform="scale(0.015625)"/>
      <path id="JetBrainsMono-Bold-2c" d="M 1216 -1024 
L 1555 934 
L 2470 934 
L 1984 -1024 
L 1216 -1024 
z
" transform="scale(0.015625)"/>
      <path id="JetBrainsMono-Bold-37" d="M 1011 0 
L 2720 3968 
L 1229 3968 
L 1229 3206 
L 429 3206 
L 429 4672 
L 3584 4672 
L 3584 3968 
L 1888 0 
L 1011 0 
z
" transform="scale(0.015625)"/>
     </defs>
     <use xlink:href="#JetBrainsMono-Bold-23"/>
     <use xlink:href="#JetBrainsMono-Bold-31" transform="translate(59.999985 0)"/>
     <use xlink:href="#JetBrainsMono-Bold-33" transform="translate(119.999969 0)"/>
     <use xlink:href="#JetBrainsMono-Bold-31" transform="translate(179.999954 0)"/>
     <use xlink:href="#JetBrainsMono-Bold-2c" transform="translate(239.999939 0)"/>
     <use xlink:href="#JetBrainsMono-Bold-33" transform="translate(299.999924 0)"/>
     <use xlink:href="#JetBrainsMono-Bold-31" transform="translate(359.999908 0)"/>
     <use xlink:href="#JetBrainsMono-Bold-37" transform="translate(419.999893 0)"/>
    </g>
   </g>
   <g id="text_12">
    <!-- Solved -->
    <g style="fill: #9b8bb8" transform="translate(264.11904 178.30453) scale(0.08 -0.08)">
     <defs>
      <path id="JetBrainsMono-Regular-53" d="M 1946 -64 
Q 1267 -64 864 294 
Q 461 653 461 1280 
L 1037 1280 
Q 1037 890 1286 669 
Q 1536 448 1946 448 
Q 2342 448 2579 678 
Q 2816 909 2816 1280 
Q 2816 1562 2665 1770 
Q 2515 1978 2234 2054 
L 1523 2253 
Q 1082 2381 829 2710 
Q 576 3040 576 3488 
Q 576 3859 742 4140 
Q 909 4422 1209 4579 
Q 1510 4736 1901 4736 
Q 2298 4736 2602 4579 
Q 2906 4422 3078 4144 
Q 3251 3866 3251 3501 
L 2675 3501 
Q 2675 3821 2457 4022 
Q 2240 4224 1901 4224 
Q 1562 4224 1350 4022 
Q 1139 3821 1139 3501 
Q 1139 3245 1276 3062 
Q 1414 2880 1664 2810 
L 2394 2605 
Q 2861 2477 3120 2121 
Q 3379 1766 3379 1280 
Q 3379 666 2988 301 
Q 2598 -64 1946 -64 
z
" transform="scale(0.015625)"/>
      <path id="JetBrainsMono-Regular-76" d="M 1542 0 
L 346 3520 
L 966 3520 
L 1734 1152 
Q 1805 941 1856 745 
Q 1907 550 1933 442 
Q 1965 550 2009 745 
Q 2054 941 2118 1152 
L 2886 3520 
L 3494 3520 
L 2298 0 
L 1542 0 
z
" transform="scale(0.015625)"/>
      <path id="JetBrainsMono-Regular-64" d="M 1715 -64 
Q 1190 -64 873 288 
Q 557 640 557 1242 
L 557 2272 
Q 557 2880 870 3232 
Q 1184 3584 1715 3584 
Q 2112 3584 2371 3385 
Q 2630 3187 2682 2848 
L 2688 2848 
L 2675 3648 
L 2675 4672 
L 3251 4672 
L 3251 0 
L 2675 0 
L 2675 672 
L 2669 672 
Q 2624 326 2368 131 
Q 2112 -64 1715 -64 
z
M 1907 435 
Q 2266 435 2470 659 
Q 2675 883 2675 1280 
L 2675 2240 
Q 2675 2637 2470 2861 
Q 2266 3085 1907 3085 
Q 1542 3085 1337 2896 
Q 1133 2707 1133 2272 
L 1133 1248 
Q 1133 819 1337 627 
Q 1542 435 1907 435 
z
" transform="scale(0.015625)"/>
     </defs>
     <use xlink:href="#JetBrainsMono-Regular-53"/>
     <use xlink:href="#JetBrainsMono-Regular-6f" transform="translate(59.999985 0)"/>
     <use xlink:href="#JetBrainsMono-Regular-6c" transform="translate(119.999969 0)"/>
     <use xlink:href="#JetBrainsMono-Regular-76" transform="translate(179.999954 0)"/>
     <use xlink:href="#JetBrainsMono-Regular-65" transform="translate(239.999939 0)"/>
     <use xlink:href="#JetBrainsMono-Regular-64" transform="translate(299.999924 0)"/>
    </g>
   </g>
   <g id="text_13">
    <!-- 66 -->
    <g style="fill: #6b5a8a" transform="translate(585.36864 178.99203) scale(0.105 -0.105)">
     <defs>
      <path id="JetBrainsMono-Bold-36" d="M 1920 -64 
Q 1440 -64 1085 128 
Q 730 320 534 669 
Q 339 1018 339 1485 
Q 339 1760 457 2115 
Q 576 2470 781 2835 
L 1792 4672 
L 2701 4672 
L 1498 2611 
L 1523 2598 
Q 1619 2733 1804 2809 
Q 1990 2886 2208 2886 
Q 2598 2886 2889 2710 
Q 3181 2534 3341 2214 
Q 3501 1894 3501 1459 
Q 3501 998 3305 656 
Q 3110 314 2755 125 
Q 2400 -64 1920 -64 
z
M 1920 614 
Q 2278 614 2496 841 
Q 2714 1069 2714 1446 
Q 2714 1830 2496 2057 
Q 2278 2285 1920 2285 
Q 1562 2285 1344 2057 
Q 1126 1830 1126 1446 
Q 1126 1069 1344 841 
Q 1562 614 1920 614 
z
" transform="scale(0.015625)"/>
     </defs>
     <use xlink:href="#JetBrainsMono-Bold-36"/>
     <use xlink:href="#JetBrainsMono-Bold-36" transform="translate(59.999985 0)"/>
    </g>
   </g>
   <g id="text_14">
    <!-- Difficulty -->
    <g style="fill: #9b8bb8" transform="translate(264.11904 210.334939) scale(0.07 -0.07)">
     <defs>
      <path id="JetBrainsMono-Regular-44" d="M 589 0 
L 589 4672 
L 1798 4672 
Q 2253 4672 2582 4499 
Q 2912 4326 3094 4012 
Q 3277 3699 3277 3270 
L 3277 1408 
Q 3277 979 3094 662 
Q 2912 346 2582 173 
Q 2253 0 1798 0 
L 589 0 
z
M 1165 512 
L 1798 512 
Q 2221 512 2461 749 
Q 2701 986 2701 1408 
L 2701 3270 
Q 2701 3686 2461 3923 
Q 2221 4160 1798 4160 
L 1165 4160 
L 1165 512 
z
" transform="scale(0.015625)"/>
      <path id="JetBrainsMono-Regular-63" d="M 1971 -64 
Q 1331 -64 947 294 
Q 563 653 563 1280 
L 563 2240 
Q 563 2867 947 3225 
Q 1331 3584 1971 3584 
Q 2579 3584 2953 3257 
Q 3328 2931 3347 2368 
L 2771 2368 
Q 2752 2707 2541 2889 
Q 2330 3072 1971 3072 
Q 1594 3072 1366 2857 
Q 1139 2643 1139 2246 
L 1139 1280 
Q 1139 883 1366 665 
Q 1594 448 1971 448 
Q 2330 448 2541 633 
Q 2752 819 2771 1152 
L 3347 1152 
Q 3328 589 2953 262 
Q 2579 -64 1971 -64 
z
" transform="scale(0.015625)"/>
      <path id="JetBrainsMono-Regular-75" d="M 1914 -64 
Q 1306 -64 941 297 
Q 576 659 576 1280 
L 576 3520 
L 1152 3520 
L 1152 1280 
Q 1152 896 1357 669 
Q 1562 442 1914 442 
Q 2272 442 2480 669 
Q 2688 896 2688 1280 
L 2688 3520 
L 3264 3520 
L 3264 1280 
Q 3264 659 2893 297 
Q 2522 -64 1914 -64 
z
" transform="scale(0.015625)"/>
     </defs>
     <use xlink:href="#JetBrainsMono-Regular-44"/>
     <use xlink:href="#JetBrainsMono-Regular-69" transform="translate(59.999985 0)"/>
     <use xlink:href="#JetBrainsMono-Regular-66" transform="translate(119.999969 0)"/>
     <use xlink:href="#JetBrainsMono-Regular-66" transform="translate(179.999954 0)"/>
     <use xlink:href="#JetBrainsMono-Regular-69" transform="translate(239.999939 0)"/>
     <use xlink:href="#JetBrainsMono-Regular-63" transform="translate(299.999924 0)"/>
     <use xlink:href="#JetBrainsMono-Regular-75" transform="translate(359.999908 0)"/>
     <use xlink:href="#JetBrainsMono-Regular-6c" transform="translate(419.999893 0)"/>
     <use xlink:href="#JetBrainsMono-Regular-74" transform="translate(479.999878 0)"/>
     <use xlink:href="#JetBrainsMono-Regular-79" transform="translate(539.999863 0)"/>
    </g>
   </g>
   <g id="text_15">
    <!-- B -->
    <g style="fill: #ffffff" transform="translate(426.564676 220.91923) scale(0.065 -0.065)">
     <defs>
      <path id="JetBrainsMono-Bold-42" d="M 493 0 
L 493 4672 
L 1926 4672 
Q 2598 4672 2998 4345 
Q 3398 4019 3398 3469 
Q 3398 3085 3177 2809 
Q 2957 2534 2605 2477 
L 2605 2464 
Q 2867 2432 3072 2275 
Q 3277 2118 3392 1872 
Q 3507 1626 3507 1331 
Q 3507 928 3321 627 
Q 3136 326 2797 163 
Q 2458 0 1997 0 
L 493 0 
z
M 1274 2746 
L 1914 2746 
Q 2227 2746 2412 2915 
Q 2598 3085 2598 3379 
Q 2598 3667 2416 3836 
Q 2234 4006 1914 4006 
L 1274 4006 
L 1274 2746 
z
M 1274 666 
L 1952 666 
Q 2304 666 2505 854 
Q 2707 1043 2707 1370 
Q 2707 1696 2505 1897 
Q 2304 2099 1952 2099 
L 1274 2099 
L 1274 666 
z
" transform="scale(0.015625)"/>
     </defs>
     <use xlink:href="#JetBrainsMono-Bold-42"/>
    </g>
   </g>
  </g>
 </g>
 <defs>
  <clipPath id="p649b95f849">
   <rect x="16.32384" y="24.73173" width="207.36" height="207.36"/>
  </clipPath>
  <clipPath id="p2d001e71d9">
   <rect x="249.60384" y="24.73173" width="362.88" height="207.36"/>
  </clipPath>
 </defs>
</svg>
