<?xml version="1.0" encoding="utf-8" standalone="no"?>
<!DOCTYPE svg PUBLIC "-//W3C//DTD SVG 1.1//EN"
  "http://www.w3.org/Graphics/SVG/1.1/DTD/svg11.dtd">
<svg xmlns:xlink="http://www.w3.org/1999/xlink" width="691.2pt" height="230.4pt" viewBox="0 0 691.2 230.4" xmlns="http://www.w3.org/2000/svg" version="1.1">
 <metadata>
  <rdf:RDF xmlns:dc="http://purl.org/dc/elements/1.1/" xmlns:cc="http://creativecommons.org/ns#" xmlns:rdf="http://www.w3.org/1999/02/22-rdf-syntax-ns#">
   <cc:Work>
    <dc:type rdf:resource="http://purl.org/dc/dcmitype/StillImage"/>
    <dc:date>2026-04-09T16:10:24.986935</dc:date>
    <dc:format>image/svg+xml</dc:format>
    <dc:creator>
     <cc:Agent>
      <dc:title>Matplotlib v3.10.8, https://matplotlib.org/</dc:title>
     </cc:Agent>
    </dc:creator>
   </cc:Work>
  </rdf:RDF>
 </metadata>
 <defs>
  <style type="text/css">*{stroke-linejoin: round; stroke-linecap: butt}</style>
 </defs>
 <g id="figure_1">
  <g id="patch_1">
   <path d="M 0 230.4 
L 691.2 230.4 
L 691.2 0 
L 0 0 
L 0 230.4 
z
" style="fill: none"/>
  </g>
  <g id="axes_1">
   <g id="patch_2">
    <path d="M 179.712 26.439344 
C 168.684143 26.439344 157.752249 28.494539 147.477317 32.499461 
C 137.202385 36.504382 127.763236 42.389331 119.644267 49.852303 
C 111.525298 57.315276 104.867807 66.22639 100.013443 76.128348 
C 95.159078 86.030306 92.192323 96.750777 91.265425 107.739612 
C 90.338527 118.728446 91.467617 129.794399 94.594753 140.369589 
C 97.721888 150.944779 102.792646 160.84516 109.546807 169.562668 
C 116.300967 178.280176 124.620983 185.663093 134.079891 191.332546 
C 143.538798 197.001999 153.971977 200.859319 164.844021 202.706555 
C 175.716065 204.553792 186.837761 204.358797 197.638368 202.131578 
C 208.438976 199.904359 218.730525 195.683678 227.984877 189.686129 
C 237.239229 183.68858 245.295325 176.018543 251.739743 167.069627 
C 258.184162 158.120711 262.904747 148.04866 265.659249 137.370349 
C 268.413752 126.692037 269.154232 115.593306 267.842692 104.643717 
C 266.531152 93.694129 263.190416 83.084246 257.991924 73.358543 
C 252.793431 63.63284 245.827655 54.960579 237.452062 47.786802 
C 229.07647 40.613026 219.436827 35.062582 209.027818 31.420308 
L 196.128858 68.283372 
C 201.957903 70.323046 207.356103 73.431294 212.046435 77.448609 
C 216.736767 81.465924 220.637601 86.32239 223.548757 91.768784 
C 226.459913 97.215178 228.330725 103.156712 229.065188 109.288482 
C 229.79965 115.420251 229.384981 121.635541 227.84246 127.615395 
C 226.299938 133.59525 223.656411 139.235598 220.047536 144.246991 
C 216.438662 149.258384 211.927248 153.553605 206.744811 156.912232 
C 201.562374 160.270859 195.799106 162.634441 189.750766 163.881684 
C 183.702426 165.128927 177.474276 165.238123 171.385932 164.203671 
C 165.297587 163.169218 159.455007 161.00912 154.158019 157.834226 
C 148.861031 154.659332 144.201822 150.524898 140.419492 145.643094 
C 136.637162 140.76129 133.797537 135.217076 132.046341 129.29497 
C 130.295145 123.372863 129.662855 117.17593 130.181918 111.022183 
C 130.700981 104.868435 132.362364 98.864971 135.080808 93.319875 
C 137.799252 87.774779 141.527447 82.784555 146.07407 78.60529 
C 150.620692 74.426025 155.906616 71.130454 161.660577 68.887698 
C 167.414539 66.644942 173.5364 65.494033 179.712 65.494033 
z
" style="fill: #9b4f96; stroke: #ffffff; stroke-width: 0.8; stroke-linejoin: miter"/>
   </g>
   <g id="patch_3">
    <path d="M 209.027809 31.420305 
C 205.893633 30.323606 202.700383 29.403649 199.463124 28.664765 
C 196.225864 27.925882 192.94969 27.369237 189.650057 26.997455 
L 185.277312 65.806575 
C 187.125106 66.014773 188.959764 66.326494 190.772629 66.740269 
C 192.585495 67.154043 194.373715 67.669219 196.128853 68.283371 
z
" style="fill: #3572a5; stroke: #ffffff; stroke-width: 0.8; stroke-linejoin: miter"/>
   </g>
   <g id="patch_4">
    <path d="M 189.650057 26.997455 
C 188.000564 26.811603 186.346182 26.672054 184.688864 26.578983 
C 183.031545 26.485912 181.371942 26.439344 179.712012 26.439344 
L 179.712007 65.494033 
C 180.641568 65.494033 181.570945 65.520111 182.499044 65.57223 
C 183.427142 65.62435 184.353596 65.702498 185.277312 65.806575 
z
" style="fill: #6e6e6e; stroke: #ffffff; stroke-width: 0.8; stroke-linejoin: miter"/>
   </g>
  </g>
  <g id="axes_2">
   <g id="patch_5">
    <path d="M 362.520576 213.90336 
L 661.118976 213.90336 
Q 665.432064 213.90336 665.432064 211.20768 
L 665.432064 200.01024 
Q 665.432064 197.31456 661.118976 197.31456 
L 362.520576 197.31456 
Q 358.207488 197.31456 358.207488 200.01024 
L 358.207488 211.20768 
Q 358.207488 213.90336 362.520576 213.90336 
z
" clip-path="url(#p09d548f4a8)" style="fill: #d8c8ef; opacity: 0.4"/>
   </g>
   <g id="line2d_1">
    <path d="M 358.87104 114.1632 
L 664.10496 114.1632 
" clip-path="url(#p09d548f4a8)" style="fill: none; stroke: #d8c8ef; stroke-width: 0.8; stroke-linecap: square"/>
   </g>
   <g id="line2d_2">
    <path d="M 358.87104 146.304 
L 664.10496 146.304 
" clip-path="url(#p09d548f4a8)" style="fill: none; stroke: #d8c8ef; stroke-width: 0.8; stroke-linecap: square"/>
   </g>
   <g id="patch_6">
    <path d="M 362.454221 212.45184 
L 652.794338 212.45184 
Q 655.780322 212.45184 655.780322 210.5856 
L 655.780322 200.63232 
Q 655.780322 198.76608 652.794338 198.76608 
L 362.454221 198.76608 
Q 359.468237 198.76608 359.468237 200.63232 
L 359.468237 210.5856 
Q 359.468237 212.45184 362.454221 212.45184 
z
" clip-path="url(#p09d548f4a8)" style="fill: #ad5600"/>
   </g>
   <g id="patch_7">
    <path d="M 659.9607 212.45184 
L 660.521779 212.45184 
Q 663.507763 212.45184 663.507763 210.5856 
L 663.507763 200.63232 
Q 663.507763 198.76608 660.521779 198.76608 
L 659.9607 198.76608 
Q 656.974716 198.76608 656.974716 200.63232 
L 656.974716 210.5856 
Q 656.974716 212.45184 659.9607 212.45184 
z
" clip-path="url(#p09d548f4a8)" style="fill: #435f7a"/>
   </g>
   <g id="text_1">
    <!-- sernn -->
    <g style="fill: #6b5a8a" transform="translate(358.87104 39.131) scale(0.25 -0.25)">
     <defs>
      <path id="JetBrainsMono-Bold-73" d="M 1773 -58 
Q 1146 -58 781 227 
Q 416 512 416 998 
L 1203 998 
Q 1203 794 1353 685 
Q 1504 576 1773 576 
L 2054 576 
Q 2342 576 2499 685 
Q 2656 794 2656 998 
Q 2656 1190 2547 1283 
Q 2438 1376 2214 1408 
L 1338 1523 
Q 915 1581 688 1849 
Q 461 2118 461 2547 
Q 461 3046 793 3312 
Q 1126 3578 1754 3578 
L 2048 3578 
Q 2637 3578 2995 3309 
Q 3354 3040 3366 2592 
L 2573 2592 
Q 2566 2758 2425 2857 
Q 2285 2957 2048 2957 
L 1754 2957 
Q 1498 2957 1363 2851 
Q 1229 2746 1229 2566 
Q 1229 2406 1328 2329 
Q 1427 2253 1619 2234 
L 2445 2118 
Q 2931 2061 3177 1776 
Q 3424 1491 3424 1011 
Q 3424 499 3075 220 
Q 2726 -58 2054 -58 
L 1773 -58 
z
" transform="scale(0.015625)"/>
      <path id="JetBrainsMono-Bold-65" d="M 1926 -64 
Q 1478 -64 1145 109 
Q 813 282 630 598 
Q 448 915 448 1344 
L 448 2176 
Q 448 2605 630 2921 
Q 813 3238 1145 3411 
Q 1478 3584 1926 3584 
Q 2368 3584 2697 3411 
Q 3027 3238 3209 2928 
Q 3392 2618 3392 2202 
L 3392 1562 
L 1216 1562 
L 1216 1318 
Q 1216 960 1401 777 
Q 1587 595 1926 595 
Q 2176 595 2352 681 
Q 2528 768 2560 934 
L 3354 934 
Q 3270 480 2880 208 
Q 2490 -64 1926 -64 
z
M 1216 2202 
L 1216 2080 
L 2624 2086 
L 2624 2208 
Q 2624 2573 2445 2771 
Q 2266 2970 1926 2970 
Q 1574 2970 1395 2768 
Q 1216 2566 1216 2202 
z
" transform="scale(0.015625)"/>
      <path id="JetBrainsMono-Bold-72" d="M 621 0 
L 621 3520 
L 1402 3520 
L 1402 2835 
Q 1466 3181 1718 3382 
Q 1971 3584 2374 3584 
Q 2912 3584 3213 3238 
Q 3514 2893 3514 2272 
L 3514 1939 
L 2714 1939 
L 2714 2234 
Q 2714 2554 2547 2723 
Q 2381 2893 2074 2893 
Q 1754 2893 1587 2701 
Q 1421 2509 1421 2157 
L 1421 0 
L 621 0 
z
" transform="scale(0.015625)"/>
      <path id="JetBrainsMono-Bold-6e" d="M 493 0 
L 493 3520 
L 1274 3520 
L 1274 2861 
Q 1338 3194 1587 3389 
Q 1837 3584 2221 3584 
Q 2739 3584 3049 3238 
Q 3360 2893 3360 2310 
L 3360 0 
L 2560 0 
L 2560 2214 
Q 2560 2541 2390 2717 
Q 2221 2893 1933 2893 
Q 1632 2893 1462 2713 
Q 1293 2534 1293 2202 
L 1293 0 
L 493 0 
z
" transform="scale(0.015625)"/>
     </defs>
     <use xlink:href="#JetBrainsMono-Bold-73"/>
     <use xlink:href="#JetBrainsMono-Bold-65" transform="translate(59.999985 0)"/>
     <use xlink:href="#JetBrainsMono-Bold-72" transform="translate(119.999969 0)"/>
     <use xlink:href="#JetBrainsMono-Bold-6e" transform="translate(179.999954 0)"/>
     <use xlink:href="#JetBrainsMono-Bold-6e" transform="translate(239.999939 0)"/>
    </g>
   </g>
   <g id="text_2">
    <!-- Silver V -->
    <g style="fill: #435f7a" transform="translate(601.70496 64.8614) scale(0.13 -0.13)">
     <defs>
      <path id="JetBrainsMono-Bold-53" d="M 1939 -64 
Q 1466 -64 1110 102 
Q 755 269 560 579 
Q 365 890 365 1318 
L 1152 1318 
Q 1152 1005 1366 819 
Q 1581 634 1939 634 
Q 2285 634 2486 816 
Q 2688 998 2688 1306 
Q 2688 1536 2557 1712 
Q 2426 1888 2182 1952 
L 1555 2112 
Q 1050 2240 755 2592 
Q 461 2944 461 3430 
Q 461 4026 851 4381 
Q 1242 4736 1894 4736 
Q 2336 4736 2665 4576 
Q 2995 4416 3174 4125 
Q 3354 3834 3354 3443 
L 2573 3443 
Q 2573 3712 2387 3878 
Q 2202 4045 1894 4045 
Q 1594 4045 1418 3881 
Q 1242 3718 1242 3456 
Q 1242 3238 1366 3097 
Q 1491 2957 1715 2893 
L 2362 2733 
Q 2880 2605 3177 2221 
Q 3475 1837 3475 1306 
Q 3475 890 3286 582 
Q 3098 275 2752 105 
Q 2406 -64 1939 -64 
z
" transform="scale(0.015625)"/>
      <path id="JetBrainsMono-Bold-69" d="M 486 0 
L 486 723 
L 1690 723 
L 1690 2797 
L 614 2797 
L 614 3520 
L 2490 3520 
L 2490 723 
L 3571 723 
L 3571 0 
L 486 0 
z
M 2032 4109 
Q 1789 4109 1648 4233 
Q 1507 4358 1507 4570 
Q 1507 4781 1648 4905 
Q 1789 5030 2032 5030 
Q 2275 5030 2416 4905 
Q 2557 4781 2557 4570 
Q 2557 4358 2416 4233 
Q 2275 4109 2032 4109 
z
" transform="scale(0.015625)"/>
      <path id="JetBrainsMono-Bold-6c" d="M 2490 0 
Q 1965 0 1648 313 
Q 1331 627 1331 1139 
L 1331 3949 
L 173 3949 
L 173 4672 
L 2131 4672 
L 2131 1158 
Q 2131 960 2243 841 
Q 2355 723 2547 723 
L 3578 723 
L 3578 0 
L 2490 0 
z
" transform="scale(0.015625)"/>
      <path id="JetBrainsMono-Bold-76" d="M 1414 0 
L 230 3520 
L 1069 3520 
L 1747 1382 
Q 1811 1190 1859 995 
Q 1907 800 1926 659 
Q 1952 800 1993 995 
Q 2035 1190 2093 1376 
L 2765 3520 
L 3610 3520 
L 2432 0 
L 1414 0 
z
" transform="scale(0.015625)"/>
      <path id="JetBrainsMono-Bold-20" transform="scale(0.015625)"/>
      <path id="JetBrainsMono-Bold-56" d="M 1402 0 
L 224 4672 
L 1050 4672 
L 1760 1626 
Q 1818 1402 1866 1142 
Q 1914 883 1939 730 
Q 1965 883 2013 1142 
Q 2061 1402 2118 1632 
L 2803 4672 
L 3616 4672 
L 2438 0 
L 1402 0 
z
" transform="scale(0.015625)"/>
     </defs>
     <use xlink:href="#JetBrainsMono-Bold-53"/>
     <use xlink:href="#JetBrainsMono-Bold-69" transform="translate(59.999985 0)"/>
     <use xlink:href="#JetBrainsMono-Bold-6c" transform="translate(119.999969 0)"/>
     <use xlink:href="#JetBrainsMono-Bold-76" transform="translate(179.999954 0)"/>
     <use xlink:href="#JetBrainsMono-Bold-65" transform="translate(239.999939 0)"/>
     <use xlink:href="#JetBrainsMono-Bold-72" transform="translate(299.999924 0)"/>
     <use xlink:href="#JetBrainsMono-Bold-20" transform="translate(359.999908 0)"/>
     <use xlink:href="#JetBrainsMono-Bold-56" transform="translate(419.999893 0)"/>
    </g>
   </g>
   <g id="text_3">
    <!-- Rating -->
    <g style="fill: #9b8bb8" transform="translate(358.87104 101.47695) scale(0.096 -0.096)">
     <defs>
      <path id="JetBrainsMono-Regular-52" d="M 595 0 
L 595 4672 
L 2035 4672 
Q 2451 4672 2764 4502 
Q 3078 4333 3251 4032 
Q 3424 3731 3424 3328 
Q 3424 2854 3181 2515 
Q 2938 2176 2534 2042 
L 3488 0 
L 2854 0 
L 1939 1984 
L 1165 1984 
L 1165 0 
L 595 0 
z
M 1165 2502 
L 2035 2502 
Q 2394 2502 2611 2729 
Q 2829 2957 2829 3328 
Q 2829 3706 2611 3930 
Q 2394 4154 2035 4154 
L 1165 4154 
L 1165 2502 
z
" transform="scale(0.015625)"/>
      <path id="JetBrainsMono-Regular-61" d="M 1613 -64 
Q 1069 -64 749 240 
Q 429 544 429 1037 
Q 429 1363 576 1606 
Q 723 1850 985 1987 
Q 1248 2125 1587 2125 
L 2675 2125 
L 2675 2400 
Q 2675 3085 1926 3085 
Q 1594 3085 1389 2963 
Q 1184 2842 1171 2624 
L 595 2624 
Q 627 3040 982 3312 
Q 1338 3584 1926 3584 
Q 2566 3584 2908 3277 
Q 3251 2970 3251 2419 
L 3251 0 
L 2682 0 
L 2682 640 
L 2669 640 
Q 2618 314 2342 125 
Q 2067 -64 1613 -64 
z
M 1754 422 
Q 2176 422 2425 627 
Q 2675 832 2675 1184 
L 2675 1677 
L 1651 1677 
Q 1370 1677 1194 1507 
Q 1018 1338 1018 1056 
Q 1018 762 1213 592 
Q 1408 422 1754 422 
z
" transform="scale(0.015625)"/>
      <path id="JetBrainsMono-Regular-74" d="M 2272 0 
Q 1837 0 1574 253 
Q 1312 506 1312 928 
L 1312 2995 
L 301 2995 
L 301 3520 
L 1312 3520 
L 1312 4512 
L 1888 4512 
L 1888 3520 
L 3328 3520 
L 3328 2995 
L 1888 2995 
L 1888 928 
Q 1888 749 1993 637 
Q 2099 525 2272 525 
L 3296 525 
L 3296 0 
L 2272 0 
z
" transform="scale(0.015625)"/>
      <path id="JetBrainsMono-Regular-69" d="M 544 0 
L 544 525 
L 1792 525 
L 1792 2995 
L 672 2995 
L 672 3520 
L 2368 3520 
L 2368 525 
L 3552 525 
L 3552 0 
L 544 0 
z
M 2016 4154 
Q 1805 4154 1683 4262 
Q 1562 4371 1562 4557 
Q 1562 4749 1683 4861 
Q 1805 4973 2016 4973 
Q 2227 4973 2348 4861 
Q 2470 4749 2470 4557 
Q 2470 4371 2348 4262 
Q 2227 4154 2016 4154 
z
" transform="scale(0.015625)"/>
      <path id="JetBrainsMono-Regular-6e" d="M 589 0 
L 589 3520 
L 1165 3520 
L 1165 2848 
L 1171 2848 
Q 1216 3200 1459 3392 
Q 1702 3584 2106 3584 
Q 2637 3584 2950 3257 
Q 3264 2931 3264 2368 
L 3264 0 
L 2688 0 
L 2688 2266 
Q 2688 2669 2486 2883 
Q 2285 3098 1939 3098 
Q 1581 3098 1373 2874 
Q 1165 2650 1165 2240 
L 1165 0 
L 589 0 
z
" transform="scale(0.015625)"/>
      <path id="JetBrainsMono-Regular-67" d="M 1030 -1152 
L 1030 -627 
L 2022 -627 
Q 2323 -627 2496 -457 
Q 2669 -288 2669 0 
L 2669 320 
L 2682 896 
L 2662 896 
Q 2611 582 2361 412 
Q 2112 243 1734 243 
Q 1190 243 876 588 
Q 563 934 563 1536 
L 563 2278 
Q 563 2880 876 3232 
Q 1190 3584 1734 3584 
Q 2112 3584 2361 3405 
Q 2611 3226 2662 2912 
L 2675 2912 
L 2675 3520 
L 3245 3520 
L 3245 0 
Q 3245 -531 2915 -841 
Q 2586 -1152 2016 -1152 
L 1030 -1152 
z
M 1907 723 
Q 2266 723 2470 947 
Q 2675 1171 2675 1568 
L 2675 2240 
Q 2675 2637 2470 2861 
Q 2266 3085 1907 3085 
Q 1542 3085 1340 2873 
Q 1139 2662 1139 2304 
L 1139 1504 
Q 1139 1146 1340 934 
Q 1542 723 1907 723 
z
" transform="scale(0.015625)"/>
     </defs>
     <use xlink:href="#JetBrainsMono-Regular-52"/>
     <use xlink:href="#JetBrainsMono-Regular-61" transform="translate(59.999985 0)"/>
     <use xlink:href="#JetBrainsMono-Regular-74" transform="translate(119.999969 0)"/>
     <use xlink:href="#JetBrainsMono-Regular-69" transform="translate(179.999954 0)"/>
     <use xlink:href="#JetBrainsMono-Regular-6e" transform="translate(239.999939 0)"/>
     <use xlink:href="#JetBrainsMono-Regular-67" transform="translate(299.999924 0)"/>
    </g>
   </g>
   <g id="text_4">
    <!-- 241 -->
    <g style="fill: #6b5a8a" transform="translate(641.42496 102.0762) scale(0.126 -0.126)">
     <defs>
      <path id="JetBrainsMono-Bold-32" d="M 474 0 
L 474 723 
L 2157 2445 
Q 2566 2874 2566 3315 
Q 2566 3629 2384 3824 
Q 2202 4019 1894 4019 
Q 1581 4019 1392 3817 
Q 1203 3616 1203 3283 
L 403 3283 
Q 403 3718 595 4044 
Q 787 4371 1126 4553 
Q 1466 4736 1914 4736 
Q 2355 4736 2688 4563 
Q 3021 4390 3203 4080 
Q 3386 3770 3386 3354 
Q 3386 2995 3216 2636 
Q 3046 2278 2656 1894 
L 1478 723 
L 3443 723 
L 3443 0 
L 474 0 
z
" transform="scale(0.015625)"/>
      <path id="JetBrainsMono-Bold-34" d="M 2445 0 
L 2445 928 
L 378 928 
L 378 2086 
L 2106 4672 
L 2995 4672 
L 1146 1875 
L 1146 1632 
L 2445 1632 
L 2445 2688 
L 3251 2688 
L 3251 0 
L 2445 0 
z
" transform="scale(0.015625)"/>
      <path id="JetBrainsMono-Bold-31" d="M 538 0 
L 538 723 
L 1754 723 
L 1754 3898 
L 531 3002 
L 531 3898 
L 1606 4672 
L 2554 4672 
L 2554 723 
L 3533 723 
L 3533 0 
L 538 0 
z
" transform="scale(0.015625)"/>
     </defs>
     <use xlink:href="#JetBrainsMono-Bold-32"/>
     <use xlink:href="#JetBrainsMono-Bold-34" transform="translate(59.999985 0)"/>
     <use xlink:href="#JetBrainsMono-Bold-31" transform="translate(119.999969 0)"/>
    </g>
   </g>
   <g id="text_5">
    <!-- Rank -->
    <g style="fill: #9b8bb8" transform="translate(358.87104 133.392) scale(0.096 -0.096)">
     <defs>
      <path id="JetBrainsMono-Regular-6b" d="M 621 0 
L 621 4672 
L 1197 4672 
L 1197 2067 
L 1869 2067 
L 2854 3520 
L 3514 3520 
L 2381 1843 
L 3578 0 
L 2906 0 
L 1882 1568 
L 1197 1568 
L 1197 0 
L 621 0 
z
" transform="scale(0.015625)"/>
     </defs>
     <use xlink:href="#JetBrainsMono-Regular-52"/>
     <use xlink:href="#JetBrainsMono-Regular-61" transform="translate(59.999985 0)"/>
     <use xlink:href="#JetBrainsMono-Regular-6e" transform="translate(119.999969 0)"/>
     <use xlink:href="#JetBrainsMono-Regular-6b" transform="translate(179.999954 0)"/>
    </g>
   </g>
   <g id="text_6">
    <!-- #122,556 -->
    <g style="fill: #6b5a8a" transform="translate(603.62496 134.217) scale(0.126 -0.126)">
     <defs>
      <path id="JetBrainsMono-Bold-23" d="M 493 0 
L 710 1216 
L 224 1216 
L 224 1760 
L 800 1760 
L 998 2912 
L 448 2912 
L 448 3456 
L 1094 3456 
L 1312 4672 
L 1875 4672 
L 1658 3456 
L 2566 3456 
L 2784 4672 
L 3347 4672 
L 3130 3456 
L 3616 3456 
L 3616 2912 
L 3034 2912 
L 2835 1760 
L 3392 1760 
L 3392 1216 
L 2739 1216 
L 2528 0 
L 1965 0 
L 2182 1216 
L 1267 1216 
L 1056 0 
L 493 0 
z
M 1363 1760 
L 2272 1760 
L 2470 2912 
L 1562 2912 
L 1363 1760 
z
" transform="scale(0.015625)"/>
      <path id="JetBrainsMono-Bold-2c" d="M 1216 -1024 
L 1555 934 
L 2470 934 
L 1984 -1024 
L 1216 -1024 
z
" transform="scale(0.015625)"/>
      <path id="JetBrainsMono-Bold-35" d="M 1894 -64 
Q 1210 -64 803 297 
Q 397 659 397 1280 
L 1197 1280 
Q 1197 986 1385 810 
Q 1574 634 1901 634 
Q 2227 634 2409 810 
Q 2592 986 2592 1299 
L 2592 1606 
Q 2592 1920 2413 2096 
Q 2234 2272 1907 2272 
L 557 2272 
L 557 4672 
L 3219 4672 
L 3219 3949 
L 1312 3949 
L 1318 2976 
L 1946 2976 
Q 2637 2976 3014 2617 
Q 3392 2259 3392 1606 
L 3392 1299 
Q 3392 666 2992 301 
Q 2592 -64 1894 -64 
z
" transform="scale(0.015625)"/>
      <path id="JetBrainsMono-Bold-36" d="M 1920 -64 
Q 1440 -64 1085 128 
Q 730 320 534 669 
Q 339 1018 339 1485 
Q 339 1760 457 2115 
Q 576 2470 781 2835 
L 1792 4672 
L 2701 4672 
L 1498 2611 
L 1523 2598 
Q 1619 2733 1804 2809 
Q 1990 2886 2208 2886 
Q 2598 2886 2889 2710 
Q 3181 2534 3341 2214 
Q 3501 1894 3501 1459 
Q 3501 998 3305 656 
Q 3110 314 2755 125 
Q 2400 -64 1920 -64 
z
M 1920 614 
Q 2278 614 2496 841 
Q 2714 1069 2714 1446 
Q 2714 1830 2496 2057 
Q 2278 2285 1920 2285 
Q 1562 2285 1344 2057 
Q 1126 1830 1126 1446 
Q 1126 1069 1344 841 
Q 1562 614 1920 614 
z
" transform="scale(0.015625)"/>
     </defs>
     <use xlink:href="#JetBrainsMono-Bold-23"/>
     <use xlink:href="#JetBrainsMono-Bold-31" transform="translate(59.999985 0)"/>
     <use xlink:href="#JetBrainsMono-Bold-32" transform="translate(119.999969 0)"/>
     <use xlink:href="#JetBrainsMono-Bold-32" transform="translate(179.999954 0)"/>
     <use xlink:href="#JetBrainsMono-Bold-2c" transform="translate(239.999939 0)"/>
     <use xlink:href="#JetBrainsMono-Bold-35" transform="translate(299.999924 0)"/>
     <use xlink:href="#JetBrainsMono-Bold-35" transform="translate(359.999908 0)"/>
     <use xlink:href="#JetBrainsMono-Bold-36" transform="translate(419.999893 0)"/>
    </g>
   </g>
   <g id="text_7">
    <!-- Solved -->
    <g style="fill: #9b8bb8" transform="translate(358.87104 165.5328) scale(0.096 -0.096)">
     <defs>
      <path id="JetBrainsMono-Regular-53" d="M 1946 -64 
Q 1267 -64 864 294 
Q 461 653 461 1280 
L 1037 1280 
Q 1037 890 1286 669 
Q 1536 448 1946 448 
Q 2342 448 2579 678 
Q 2816 909 2816 1280 
Q 2816 1562 2665 1770 
Q 2515 1978 2234 2054 
L 1523 2253 
Q 1082 2381 829 2710 
Q 576 3040 576 3488 
Q 576 3859 742 4140 
Q 909 4422 1209 4579 
Q 1510 4736 1901 4736 
Q 2298 4736 2602 4579 
Q 2906 4422 3078 4144 
Q 3251 3866 3251 3501 
L 2675 3501 
Q 2675 3821 2457 4022 
Q 2240 4224 1901 4224 
Q 1562 4224 1350 4022 
Q 1139 3821 1139 3501 
Q 1139 3245 1276 3062 
Q 1414 2880 1664 2810 
L 2394 2605 
Q 2861 2477 3120 2121 
Q 3379 1766 3379 1280 
Q 3379 666 2988 301 
Q 2598 -64 1946 -64 
z
" transform="scale(0.015625)"/>
      <path id="JetBrainsMono-Regular-6f" d="M 1920 -51 
Q 1286 -51 912 320 
Q 538 691 538 1357 
L 538 2163 
Q 538 2835 909 3203 
Q 1280 3571 1920 3571 
Q 2560 3571 2931 3203 
Q 3302 2835 3302 2163 
L 3302 1357 
Q 3302 691 2928 320 
Q 2554 -51 1920 -51 
z
M 1920 461 
Q 2298 461 2512 672 
Q 2726 883 2726 1293 
L 2726 2227 
Q 2726 2637 2512 2848 
Q 2298 3059 1920 3059 
Q 1549 3059 1331 2848 
Q 1114 2637 1114 2227 
L 1114 1293 
Q 1114 883 1331 672 
Q 1549 461 1920 461 
z
" transform="scale(0.015625)"/>
      <path id="JetBrainsMono-Regular-6c" d="M 2432 0 
Q 1965 0 1686 272 
Q 1408 544 1408 992 
L 1408 4147 
L 192 4147 
L 192 4672 
L 1984 4672 
L 1984 992 
Q 1984 774 2105 649 
Q 2227 525 2432 525 
L 3520 525 
L 3520 0 
L 2432 0 
z
" transform="scale(0.015625)"/>
      <path id="JetBrainsMono-Regular-76" d="M 1542 0 
L 346 3520 
L 966 3520 
L 1734 1152 
Q 1805 941 1856 745 
Q 1907 550 1933 442 
Q 1965 550 2009 745 
Q 2054 941 2118 1152 
L 2886 3520 
L 3494 3520 
L 2298 0 
L 1542 0 
z
" transform="scale(0.015625)"/>
      <path id="JetBrainsMono-Regular-65" d="M 1920 -64 
Q 1299 -64 918 310 
Q 538 685 538 1344 
L 538 2176 
Q 538 2835 918 3209 
Q 1299 3584 1920 3584 
Q 2336 3584 2646 3417 
Q 2957 3251 3129 2950 
Q 3302 2650 3302 2240 
L 3302 1613 
L 1101 1613 
L 1101 1280 
Q 1101 890 1325 662 
Q 1549 435 1920 435 
Q 2240 435 2448 560 
Q 2656 685 2701 896 
L 3277 896 
Q 3219 454 2848 195 
Q 2477 -64 1920 -64 
z
M 1101 2061 
L 2739 2061 
L 2739 2240 
Q 2739 2656 2524 2883 
Q 2310 3110 1920 3110 
Q 1530 3110 1315 2883 
Q 1101 2656 1101 2240 
L 1101 2061 
z
" transform="scale(0.015625)"/>
      <path id="JetBrainsMono-Regular-64" d="M 1715 -64 
Q 1190 -64 873 288 
Q 557 640 557 1242 
L 557 2272 
Q 557 2880 870 3232 
Q 1184 3584 1715 3584 
Q 2112 3584 2371 3385 
Q 2630 3187 2682 2848 
L 2688 2848 
L 2675 3648 
L 2675 4672 
L 3251 4672 
L 3251 0 
L 2675 0 
L 2675 672 
L 2669 672 
Q 2624 326 2368 131 
Q 2112 -64 1715 -64 
z
M 1907 435 
Q 2266 435 2470 659 
Q 2675 883 2675 1280 
L 2675 2240 
Q 2675 2637 2470 2861 
Q 2266 3085 1907 3085 
Q 1542 3085 1337 2896 
Q 1133 2707 1133 2272 
L 1133 1248 
Q 1133 819 1337 627 
Q 1542 435 1907 435 
z
" transform="scale(0.015625)"/>
     </defs>
     <use xlink:href="#JetBrainsMono-Regular-53"/>
     <use xlink:href="#JetBrainsMono-Regular-6f" transform="translate(59.999985 0)"/>
     <use xlink:href="#JetBrainsMono-Regular-6c" transform="translate(119.999969 0)"/>
     <use xlink:href="#JetBrainsMono-Regular-76" transform="translate(179.999954 0)"/>
     <use xlink:href="#JetBrainsMono-Regular-65" transform="translate(239.999939 0)"/>
     <use xlink:href="#JetBrainsMono-Regular-64" transform="translate(299.999924 0)"/>
    </g>
   </g>
   <g id="text_8">
    <!-- 79 -->
    <g style="fill: #6b5a8a" transform="translate(648.98496 166.3578) scale(0.126 -0.126)">
     <defs>
      <path id="JetBrainsMono-Bold-37" d="M 1011 0 
L 2720 3968 
L 1229 3968 
L 1229 3206 
L 429 3206 
L 429 4672 
L 3584 4672 
L 3584 3968 
L 1888 0 
L 1011 0 
z
" transform="scale(0.015625)"/>
      <path id="JetBrainsMono-Bold-39" d="M 1120 0 
L 2214 1888 
Q 2138 1830 2035 1788 
Q 1933 1747 1728 1747 
Q 1344 1747 1027 1932 
Q 710 2118 524 2448 
Q 339 2778 339 3213 
Q 339 3674 534 4016 
Q 730 4358 1085 4547 
Q 1440 4736 1920 4736 
Q 2400 4736 2755 4544 
Q 3110 4352 3305 4003 
Q 3501 3654 3501 3187 
Q 3501 2912 3382 2557 
Q 3264 2202 3059 1837 
L 2048 0 
L 1120 0 
z
M 1920 2387 
Q 2278 2387 2496 2614 
Q 2714 2842 2714 3226 
Q 2714 3603 2496 3830 
Q 2278 4058 1920 4058 
Q 1562 4058 1344 3830 
Q 1126 3603 1126 3226 
Q 1126 2842 1344 2614 
Q 1562 2387 1920 2387 
z
" transform="scale(0.015625)"/>
     </defs>
     <use xlink:href="#JetBrainsMono-Bold-37"/>
     <use xlink:href="#JetBrainsMono-Bold-39" transform="translate(59.999985 0)"/>
    </g>
   </g>
   <g id="text_9">
    <!-- Difficulty -->
    <g style="fill: #9b8bb8" transform="translate(358.87104 196.504331) scale(0.084 -0.084)">
     <defs>
      <path id="JetBrainsMono-Regular-44" d="M 589 0 
L 589 4672 
L 1798 4672 
Q 2253 4672 2582 4499 
Q 2912 4326 3094 4012 
Q 3277 3699 3277 3270 
L 3277 1408 
Q 3277 979 3094 662 
Q 2912 346 2582 173 
Q 2253 0 1798 0 
L 589 0 
z
M 1165 512 
L 1798 512 
Q 2221 512 2461 749 
Q 2701 986 2701 1408 
L 2701 3270 
Q 2701 3686 2461 3923 
Q 2221 4160 1798 4160 
L 1165 4160 
L 1165 512 
z
" transform="scale(0.015625)"/>
      <path id="JetBrainsMono-Regular-66" d="M 1376 0 
L 1376 2515 
L 352 2515 
L 352 3040 
L 1376 3040 
L 1376 3776 
Q 1376 4192 1638 4432 
Q 1901 4672 2362 4672 
L 3392 4672 
L 3392 4147 
L 2362 4147 
Q 1952 4147 1952 3776 
L 1952 3040 
L 3392 3040 
L 3392 2515 
L 1952 2515 
L 1952 0 
L 1376 0 
z
" transform="scale(0.015625)"/>
      <path id="JetBrainsMono-Regular-63" d="M 1971 -64 
Q 1331 -64 947 294 
Q 563 653 563 1280 
L 563 2240 
Q 563 2867 947 3225 
Q 1331 3584 1971 3584 
Q 2579 3584 2953 3257 
Q 3328 2931 3347 2368 
L 2771 2368 
Q 2752 2707 2541 2889 
Q 2330 3072 1971 3072 
Q 1594 3072 1366 2857 
Q 1139 2643 1139 2246 
L 1139 1280 
Q 1139 883 1366 665 
Q 1594 448 1971 448 
Q 2330 448 2541 633 
Q 2752 819 2771 1152 
L 3347 1152 
Q 3328 589 2953 262 
Q 2579 -64 1971 -64 
z
" transform="scale(0.015625)"/>
      <path id="JetBrainsMono-Regular-75" d="M 1914 -64 
Q 1306 -64 941 297 
Q 576 659 576 1280 
L 576 3520 
L 1152 3520 
L 1152 1280 
Q 1152 896 1357 669 
Q 1562 442 1914 442 
Q 2272 442 2480 669 
Q 2688 896 2688 1280 
L 2688 3520 
L 3264 3520 
L 3264 1280 
Q 3264 659 2893 297 
Q 2522 -64 1914 -64 
z
" transform="scale(0.015625)"/>
      <path id="JetBrainsMono-Regular-79" d="M 1139 -1152 
L 1658 218 
L 346 3520 
L 966 3520 
L 1798 1344 
Q 1850 1216 1894 1075 
Q 1939 934 1958 832 
Q 1978 934 2022 1075 
Q 2067 1216 2112 1344 
L 2886 3520 
L 3494 3520 
L 1741 -1152 
L 1139 -1152 
z
" transform="scale(0.015625)"/>
     </defs>
     <use xlink:href="#JetBrainsMono-Regular-44"/>
     <use xlink:href="#JetBrainsMono-Regular-69" transform="translate(59.999985 0)"/>
     <use xlink:href="#JetBrainsMono-Regular-66" transform="translate(119.999969 0)"/>
     <use xlink:href="#JetBrainsMono-Regular-66" transform="translate(179.999954 0)"/>
     <use xlink:href="#JetBrainsMono-Regular-69" transform="translate(239.999939 0)"/>
     <use xlink:href="#JetBrainsMono-Regular-63" transform="translate(299.999924 0)"/>
     <use xlink:href="#JetBrainsMono-Regular-75" transform="translate(359.999908 0)"/>
     <use xlink:href="#JetBrainsMono-Regular-6c" transform="translate(419.999893 0)"/>
     <use xlink:href="#JetBrainsMono-Regular-74" transform="translate(479.999878 0)"/>
     <use xlink:href="#JetBrainsMono-Regular-79" transform="translate(539.999863 0)"/>
    </g>
   </g>
  </g>
 </g>
 <defs>
  <clipPath id="p09d548f4a8">
   <rect x="345.6" y="11.52" width="331.776" height="207.36"/>
  </clipPath>
 </defs>
</svg>
