<?xml version="1.0" encoding="utf-8" standalone="no"?>
<!DOCTYPE svg PUBLIC "-//W3C//DTD SVG 1.1//EN"
  "http://www.w3.org/Graphics/SVG/1.1/DTD/svg11.dtd">
<svg xmlns:xlink="http://www.w3.org/1999/xlink" width="641.088pt" height="230.976pt" viewBox="0 0 641.088 230.976" xmlns="http://www.w3.org/2000/svg" version="1.1">
 <metadata>
  <rdf:RDF xmlns:dc="http://purl.org/dc/elements/1.1/" xmlns:cc="http://creativecommons.org/ns#" xmlns:rdf="http://www.w3.org/1999/02/22-rdf-syntax-ns#">
   <cc:Work>
    <dc:type rdf:resource="http://purl.org/dc/dcmitype/StillImage"/>
    <dc:date>2026-04-03T23:30:15.167018</dc:date>
    <dc:format>image/svg+xml</dc:format>
    <dc:creator>
     <cc:Agent>
      <dc:title>Matplotlib v3.10.8, https://matplotlib.org/</dc:title>
     </cc:Agent>
    </dc:creator>
   </cc:Work>
  </rdf:RDF>
 </metadata>
 <defs>
  <style type="text/css">*{stroke-linejoin: round; stroke-linecap: butt}</style>
 </defs>
 <g id="figure_1">
  <g id="patch_1">
   <path d="M 0 230.976 
L 641.088 230.976 
L 641.088 -0 
L 0 -0 
L 0 230.976 
z
" style="fill: none"/>
  </g>
  <g id="axes_1">
   <g id="patch_2">
    <path d="M 115.488 26.727344 
C 104.649909 26.727344 93.902905 28.712416 83.779954 32.584117 
C 73.657003 36.455817 64.328257 42.149068 56.256348 49.38153 
C 48.184439 56.613991 41.505045 65.264095 36.549411 74.902866 
C 31.593776 84.541636 28.445199 95.007058 27.259823 105.780131 
C 26.074446 116.553203 26.872196 127.452846 29.61351 137.938522 
C 32.354823 148.424198 36.993623 158.319659 43.299861 167.134168 
C 49.6061 175.948677 57.473778 183.534074 66.51272 189.514184 
C 75.551663 195.494295 85.609939 199.768601 96.188737 202.125131 
C 106.767536 204.481661 117.689042 204.880805 128.411635 203.302769 
C 139.134228 201.724733 149.477678 198.196041 158.929029 192.891688 
C 168.380381 187.587336 176.780772 180.596481 183.713608 172.265816 
C 190.646445 163.935151 195.995196 154.404701 199.494606 144.147102 
C 202.994016 133.889503 204.585265 123.077171 204.18944 112.246311 
C 203.793615 101.415451 201.417368 90.748115 197.178543 80.773318 
C 192.939718 70.798521 186.909564 61.683926 179.387128 53.881544 
C 171.864692 46.079162 162.976416 39.72014 153.163088 35.119836 
L 136.586049 70.481828 
C 142.081513 73.057999 147.058948 76.619051 151.271512 80.988385 
C 155.484076 85.357718 158.860962 90.461892 161.234704 96.047778 
C 163.608446 101.633664 164.939144 107.607372 165.160806 113.672654 
C 165.382469 119.737936 164.491369 125.792842 162.531699 131.537097 
C 160.57203 137.281353 157.576729 142.618404 153.694341 147.283577 
C 149.811952 151.94875 145.107733 155.863628 139.814976 158.834066 
C 134.522219 161.804503 128.729888 163.78057 122.725236 164.664271 
C 116.720583 165.547971 110.60454 165.32445 104.680413 164.004793 
C 98.756286 162.685137 93.123651 160.291525 88.061843 156.942663 
C 83.000035 153.593801 78.594136 149.345979 75.062642 144.409854 
C 71.531149 139.473729 68.933421 133.932271 67.398285 128.060292 
C 65.86315 122.188314 65.41641 116.084514 66.080221 110.051593 
C 66.744031 104.018673 68.507235 98.158036 71.28239 92.760325 
C 74.057545 87.362613 77.798006 82.518555 82.318275 78.468377 
C 86.838544 74.418198 92.062642 71.229978 97.731494 69.061825 
C 103.400347 66.893673 109.418669 65.782033 115.488 65.782033 
z
" style="fill: #9b4f96; stroke: #ffffff; stroke-width: 0.8; stroke-linejoin: miter"/>
   </g>
   <g id="patch_3">
    <path d="M 153.163096 35.11984 
C 149.246869 33.283983 145.201706 31.736842 141.059911 30.490759 
C 136.918116 29.244677 132.690753 28.302986 128.411663 27.673236 
L 122.725251 66.311732 
C 125.121542 66.664392 127.488865 67.191739 129.80827 67.889545 
C 132.127675 68.587351 134.392967 69.453751 136.586054 70.48183 
z
" style="fill: #3572a5; stroke: #ffffff; stroke-width: 0.8; stroke-linejoin: miter"/>
   </g>
   <g id="patch_4">
    <path d="M 128.411663 27.673236 
C 126.272835 27.358464 124.123243 27.12194 121.967144 26.964133 
C 119.811044 26.806327 117.649879 26.727344 115.488012 26.727344 
L 115.488007 65.782033 
C 116.698652 65.782033 117.908905 65.826263 119.11632 65.914635 
C 120.323736 66.003006 121.527508 66.13546 122.725251 66.311732 
z
" style="fill: #6e6e6e; stroke: #ffffff; stroke-width: 0.8; stroke-linejoin: miter"/>
   </g>
  </g>
  <g id="axes_2">
   <g id="patch_5">
    <path d="M 292.794624 214.19136 
L 616.276224 214.19136 
Q 620.948736 214.19136 620.948736 211.49568 
L 620.948736 200.29824 
Q 620.948736 197.60256 616.276224 197.60256 
L 292.794624 197.60256 
Q 288.122112 197.60256 288.122112 200.29824 
L 288.122112 211.49568 
Q 288.122112 214.19136 292.794624 214.19136 
z
" clip-path="url(#p9771191f9e)" style="fill: #d8c8ef; opacity: 0.4"/>
   </g>
   <g id="line2d_1">
    <path d="M 288.84096 114.4512 
L 619.51104 114.4512 
" clip-path="url(#p9771191f9e)" style="fill: none; stroke: #d8c8ef; stroke-width: 0.8; stroke-linecap: square"/>
   </g>
   <g id="line2d_2">
    <path d="M 288.84096 146.592 
L 619.51104 146.592 
" clip-path="url(#p9771191f9e)" style="fill: none; stroke: #d8c8ef; stroke-width: 0.8; stroke-linecap: square"/>
   </g>
   <g id="patch_6">
    <path d="M 292.722739 212.73984 
L 606.181544 212.73984 
Q 609.41636 212.73984 609.41636 210.8736 
L 609.41636 200.92032 
Q 609.41636 199.05408 606.181544 199.05408 
L 292.722739 199.05408 
Q 289.487923 199.05408 289.487923 200.92032 
L 289.487923 210.8736 
Q 289.487923 212.73984 292.722739 212.73984 
z
" clip-path="url(#p9771191f9e)" style="fill: #ad5600"/>
   </g>
   <g id="patch_7">
    <path d="M 613.945103 212.73984 
L 615.629261 212.73984 
Q 618.864077 212.73984 618.864077 210.8736 
L 618.864077 200.92032 
Q 618.864077 199.05408 615.629261 199.05408 
L 613.945103 199.05408 
Q 610.710287 199.05408 610.710287 200.92032 
L 610.710287 210.8736 
Q 610.710287 212.73984 613.945103 212.73984 
z
" clip-path="url(#p9771191f9e)" style="fill: #435f7a"/>
   </g>
   <g id="text_1">
    <!-- sernn -->
    <g style="fill: #6b5a8a" transform="translate(288.84096 39.477594) scale(0.25 -0.25)">
     <defs>
      <path id="Menlo-Regular-73" d="M 3041 3378 
L 3041 2816 
Q 2794 2959 2544 3031 
Q 2294 3103 2034 3103 
Q 1644 3103 1451 2976 
Q 1259 2850 1259 2591 
Q 1259 2356 1403 2240 
Q 1547 2125 2119 2016 
L 2350 1972 
Q 2778 1891 2998 1647 
Q 3219 1403 3219 1013 
Q 3219 494 2850 201 
Q 2481 -91 1825 -91 
Q 1566 -91 1281 -36 
Q 997 19 666 128 
L 666 722 
Q 988 556 1281 473 
Q 1575 391 1838 391 
Q 2219 391 2428 545 
Q 2638 700 2638 978 
Q 2638 1378 1872 1531 
L 1847 1538 
L 1631 1581 
Q 1134 1678 906 1908 
Q 678 2138 678 2534 
Q 678 3038 1018 3311 
Q 1359 3584 1991 3584 
Q 2272 3584 2531 3532 
Q 2791 3481 3041 3378 
z
" transform="scale(0.015625)"/>
      <path id="Menlo-Regular-65" d="M 3500 2038 
L 3500 1756 
L 1009 1756 
L 1009 1738 
Q 984 1022 1282 709 
Q 1581 397 2125 397 
Q 2400 397 2700 484 
Q 3000 572 3341 750 
L 3341 178 
Q 3013 44 2708 -23 
Q 2403 -91 2119 -91 
Q 1303 -91 843 398 
Q 384 888 384 1747 
Q 384 2584 834 3084 
Q 1284 3584 2034 3584 
Q 2703 3584 3089 3131 
Q 3475 2678 3500 2038 
z
M 2925 2206 
Q 2888 2569 2661 2833 
Q 2434 3097 2009 3097 
Q 1594 3097 1325 2822 
Q 1056 2547 1031 2203 
L 2925 2206 
z
" transform="scale(0.015625)"/>
      <path id="Menlo-Regular-72" d="M 3609 2778 
Q 3425 2922 3234 2987 
Q 3044 3053 2816 3053 
Q 2278 3053 1993 2715 
Q 1709 2378 1709 1741 
L 1709 0 
L 1131 0 
L 1131 3500 
L 1709 3500 
L 1709 2816 
Q 1853 3188 2151 3386 
Q 2450 3584 2859 3584 
Q 3072 3584 3256 3531 
Q 3441 3478 3609 3366 
L 3609 2778 
z
" transform="scale(0.015625)"/>
      <path id="Menlo-Regular-6e" d="M 3284 2169 
L 3284 0 
L 2706 0 
L 2706 2169 
Q 2706 2641 2540 2862 
Q 2375 3084 2022 3084 
Q 1619 3084 1401 2798 
Q 1184 2513 1184 1978 
L 1184 0 
L 609 0 
L 609 3500 
L 1184 3500 
L 1184 2975 
Q 1338 3275 1600 3429 
Q 1863 3584 2222 3584 
Q 2756 3584 3020 3232 
Q 3284 2881 3284 2169 
z
" transform="scale(0.015625)"/>
     </defs>
     <use xlink:href="#Menlo-Regular-73"/>
     <use xlink:href="#Menlo-Regular-65" transform="translate(60.205078 0)"/>
     <use xlink:href="#Menlo-Regular-72" transform="translate(120.410156 0)"/>
     <use xlink:href="#Menlo-Regular-6e" transform="translate(180.615234 0)"/>
     <use xlink:href="#Menlo-Regular-6e" transform="translate(240.820312 0)"/>
    </g>
   </g>
   <g id="text_2">
    <!-- Silver V -->
    <g style="fill: #435f7a" transform="translate(556.89979 65.179869) scale(0.13 -0.13)">
     <defs>
      <path id="Menlo-Regular-53" d="M 3163 4506 
L 3163 3866 
Q 2875 4050 2586 4144 
Q 2297 4238 2003 4238 
Q 1556 4238 1297 4030 
Q 1038 3822 1038 3469 
Q 1038 3159 1208 2996 
Q 1378 2834 1844 2725 
L 2175 2650 
Q 2831 2497 3131 2169 
Q 3431 1841 3431 1275 
Q 3431 609 3018 259 
Q 2606 -91 1819 -91 
Q 1491 -91 1159 -20 
Q 828 50 494 191 
L 494 863 
Q 853 634 1173 528 
Q 1494 422 1819 422 
Q 2297 422 2562 636 
Q 2828 850 2828 1234 
Q 2828 1584 2645 1768 
Q 2463 1953 2009 2053 
L 1672 2131 
Q 1022 2278 728 2575 
Q 434 2872 434 3372 
Q 434 3997 854 4373 
Q 1275 4750 1972 4750 
Q 2241 4750 2537 4689 
Q 2834 4628 3163 4506 
z
" transform="scale(0.015625)"/>
      <path id="Menlo-Regular-69" d="M 988 3488 
L 2459 3488 
L 2459 447 
L 3600 447 
L 3600 0 
L 744 0 
L 744 447 
L 1884 447 
L 1884 3041 
L 988 3041 
L 988 3488 
z
M 1884 4847 
L 2459 4847 
L 2459 4122 
L 1884 4122 
L 1884 4847 
z
" transform="scale(0.015625)"/>
      <path id="Menlo-Regular-6c" d="M 2247 1266 
Q 2247 878 2389 681 
Q 2531 484 2809 484 
L 3481 484 
L 3481 0 
L 2753 0 
Q 2238 0 1955 329 
Q 1672 659 1672 1266 
L 1672 4431 
L 750 4431 
L 750 4881 
L 2247 4881 
L 2247 1266 
z
" transform="scale(0.015625)"/>
      <path id="Menlo-Regular-76" d="M 313 3500 
L 909 3500 
L 1925 563 
L 2944 3500 
L 3541 3500 
L 2297 0 
L 1556 0 
L 313 3500 
z
" transform="scale(0.015625)"/>
      <path id="Menlo-Regular-20" transform="scale(0.015625)"/>
      <path id="Menlo-Regular-56" d="M 1925 531 
L 3022 4666 
L 3675 4666 
L 2309 0 
L 1544 0 
L 178 4666 
L 831 4666 
L 1925 531 
z
" transform="scale(0.015625)"/>
     </defs>
     <use xlink:href="#Menlo-Regular-53"/>
     <use xlink:href="#Menlo-Regular-69" transform="translate(60.205078 0)"/>
     <use xlink:href="#Menlo-Regular-6c" transform="translate(120.410156 0)"/>
     <use xlink:href="#Menlo-Regular-76" transform="translate(180.615234 0)"/>
     <use xlink:href="#Menlo-Regular-65" transform="translate(240.820312 0)"/>
     <use xlink:href="#Menlo-Regular-72" transform="translate(301.025391 0)"/>
     <use xlink:href="#Menlo-Regular-20" transform="translate(361.230469 0)"/>
     <use xlink:href="#Menlo-Regular-56" transform="translate(421.435547 0)"/>
    </g>
   </g>
   <g id="text_3">
    <!-- Rating -->
    <g style="fill: #9b8bb8" transform="translate(288.84096 101.5032) scale(0.096 -0.096)">
     <defs>
      <path id="Menlo-Regular-52" d="M 2375 2203 
Q 2619 2141 2791 1967 
Q 2963 1794 3219 1275 
L 3853 0 
L 3175 0 
L 2619 1178 
Q 2378 1681 2186 1826 
Q 1994 1972 1684 1972 
L 1081 1972 
L 1081 0 
L 447 0 
L 447 4666 
L 1747 4666 
Q 2516 4666 2925 4319 
Q 3334 3972 3334 3316 
Q 3334 2853 3082 2561 
Q 2831 2269 2375 2203 
z
M 1081 4147 
L 1081 2491 
L 1772 2491 
Q 2225 2491 2447 2694 
Q 2669 2897 2669 3316 
Q 2669 3719 2433 3933 
Q 2197 4147 1747 4147 
L 1081 4147 
z
" transform="scale(0.015625)"/>
      <path id="Menlo-Regular-61" d="M 2194 1759 
L 2003 1759 
Q 1500 1759 1245 1582 
Q 991 1406 991 1056 
Q 991 741 1181 566 
Q 1372 391 1709 391 
Q 2184 391 2456 720 
Q 2728 1050 2731 1631 
L 2731 1759 
L 2194 1759 
z
M 3309 1997 
L 3309 0 
L 2731 0 
L 2731 519 
Q 2547 206 2267 57 
Q 1988 -91 1588 -91 
Q 1053 -91 734 211 
Q 416 513 416 1019 
Q 416 1603 808 1906 
Q 1200 2209 1959 2209 
L 2731 2209 
L 2731 2300 
Q 2728 2719 2518 2908 
Q 2309 3097 1850 3097 
Q 1556 3097 1256 3012 
Q 956 2928 672 2766 
L 672 3341 
Q 991 3463 1283 3523 
Q 1575 3584 1850 3584 
Q 2284 3584 2592 3456 
Q 2900 3328 3091 3072 
Q 3209 2916 3259 2686 
Q 3309 2456 3309 1997 
z
" transform="scale(0.015625)"/>
      <path id="Menlo-Regular-74" d="M 1919 4494 
L 1919 3500 
L 3225 3500 
L 3225 3053 
L 1919 3053 
L 1919 1153 
Q 1919 766 2066 612 
Q 2213 459 2578 459 
L 3225 459 
L 3225 0 
L 2522 0 
Q 1875 0 1609 259 
Q 1344 519 1344 1153 
L 1344 3053 
L 409 3053 
L 409 3500 
L 1344 3500 
L 1344 4494 
L 1919 4494 
z
" transform="scale(0.015625)"/>
      <path id="Menlo-Regular-67" d="M 2681 1778 
Q 2681 2425 2470 2761 
Q 2259 3097 1856 3097 
Q 1434 3097 1212 2761 
Q 991 2425 991 1778 
Q 991 1131 1214 792 
Q 1438 453 1863 453 
Q 2259 453 2470 793 
Q 2681 1134 2681 1778 
z
M 3256 225 
Q 3256 -563 2884 -969 
Q 2513 -1375 1791 -1375 
Q 1553 -1375 1293 -1331 
Q 1034 -1288 775 -1203 
L 775 -634 
Q 1081 -778 1331 -847 
Q 1581 -916 1791 -916 
Q 2256 -916 2468 -662 
Q 2681 -409 2681 141 
L 2681 166 
L 2681 556 
Q 2544 263 2306 119 
Q 2069 -25 1728 -25 
Q 1116 -25 750 465 
Q 384 956 384 1778 
Q 384 2603 750 3093 
Q 1116 3584 1728 3584 
Q 2066 3584 2300 3450 
Q 2534 3316 2681 3034 
L 2681 3488 
L 3256 3488 
L 3256 225 
z
" transform="scale(0.015625)"/>
     </defs>
     <use xlink:href="#Menlo-Regular-52"/>
     <use xlink:href="#Menlo-Regular-61" transform="translate(60.205078 0)"/>
     <use xlink:href="#Menlo-Regular-74" transform="translate(120.410156 0)"/>
     <use xlink:href="#Menlo-Regular-69" transform="translate(180.615234 0)"/>
     <use xlink:href="#Menlo-Regular-6e" transform="translate(240.820312 0)"/>
     <use xlink:href="#Menlo-Regular-67" transform="translate(301.025391 0)"/>
    </g>
   </g>
   <g id="text_4">
    <!-- 214 -->
    <g style="fill: #6b5a8a" transform="translate(596.754259 102.393731) scale(0.126 -0.126)">
     <defs>
      <path id="Menlo-Regular-32" d="M 1166 531 
L 3309 531 
L 3309 0 
L 475 0 
L 475 531 
Q 1059 1147 1496 1619 
Q 1934 2091 2100 2284 
Q 2413 2666 2522 2902 
Q 2631 3138 2631 3384 
Q 2631 3775 2401 3997 
Q 2172 4219 1772 4219 
Q 1488 4219 1175 4116 
Q 863 4013 513 3803 
L 513 4441 
Q 834 4594 1145 4672 
Q 1456 4750 1759 4750 
Q 2444 4750 2861 4386 
Q 3278 4022 3278 3431 
Q 3278 3131 3139 2831 
Q 3000 2531 2688 2169 
Q 2513 1966 2180 1606 
Q 1847 1247 1166 531 
z
" transform="scale(0.015625)"/>
      <path id="Menlo-Regular-31" d="M 844 528 
L 1825 528 
L 1825 4053 
L 650 3488 
L 650 4094 
L 1819 4650 
L 2450 4650 
L 2450 528 
L 3419 528 
L 3419 0 
L 844 0 
L 844 528 
z
" transform="scale(0.015625)"/>
      <path id="Menlo-Regular-34" d="M 2297 4091 
L 825 1625 
L 2297 1625 
L 2297 4091 
z
M 2194 4666 
L 2925 4666 
L 2925 1625 
L 3547 1625 
L 3547 1113 
L 2925 1113 
L 2925 0 
L 2297 0 
L 2297 1113 
L 319 1113 
L 319 1709 
L 2194 4666 
z
" transform="scale(0.015625)"/>
     </defs>
     <use xlink:href="#Menlo-Regular-32"/>
     <use xlink:href="#Menlo-Regular-31" transform="translate(60.205078 0)"/>
     <use xlink:href="#Menlo-Regular-34" transform="translate(120.410156 0)"/>
    </g>
   </g>
   <g id="text_5">
    <!-- Rank -->
    <g style="fill: #9b8bb8" transform="translate(288.84096 133.7025) scale(0.096 -0.096)">
     <defs>
      <path id="Menlo-Regular-6b" d="M 738 4863 
L 1331 4863 
L 1331 2047 
L 2841 3500 
L 3541 3500 
L 2163 2181 
L 3756 0 
L 3053 0 
L 1759 1806 
L 1331 1403 
L 1331 0 
L 738 0 
L 738 4863 
z
" transform="scale(0.015625)"/>
     </defs>
     <use xlink:href="#Menlo-Regular-52"/>
     <use xlink:href="#Menlo-Regular-61" transform="translate(60.205078 0)"/>
     <use xlink:href="#Menlo-Regular-6e" transform="translate(120.410156 0)"/>
     <use xlink:href="#Menlo-Regular-6b" transform="translate(180.615234 0)"/>
    </g>
   </g>
   <g id="text_6">
    <!-- #128,252 -->
    <g style="fill: #6b5a8a" transform="translate(558.82629 134.534531) scale(0.126 -0.126)">
     <defs>
      <path id="Menlo-Regular-23" d="M 2138 4578 
L 1856 3472 
L 2622 3472 
L 2906 4578 
L 3406 4578 
L 3122 3472 
L 3884 3472 
L 3884 2994 
L 3006 2994 
L 2700 1766 
L 3481 1766 
L 3481 1288 
L 2578 1288 
L 2253 0 
L 1753 0 
L 2081 1288 
L 1313 1288 
L 984 0 
L 488 0 
L 813 1288 
L 6 1288 
L 6 1766 
L 934 1766 
L 1241 2994 
L 409 2994 
L 409 3472 
L 1356 3472 
L 1638 4578 
L 2138 4578 
z
M 2506 2994 
L 1741 2994 
L 1434 1766 
L 2203 1766 
L 2506 2994 
z
" transform="scale(0.015625)"/>
      <path id="Menlo-Regular-38" d="M 1925 2216 
Q 1503 2216 1273 1980 
Q 1044 1744 1044 1313 
Q 1044 881 1276 642 
Q 1509 403 1925 403 
Q 2350 403 2579 639 
Q 2809 875 2809 1313 
Q 2809 1741 2576 1978 
Q 2344 2216 1925 2216 
z
M 1375 2478 
Q 972 2581 745 2862 
Q 519 3144 519 3541 
Q 519 4097 897 4423 
Q 1275 4750 1925 4750 
Q 2578 4750 2956 4423 
Q 3334 4097 3334 3541 
Q 3334 3144 3107 2862 
Q 2881 2581 2478 2478 
Q 2947 2375 3195 2062 
Q 3444 1750 3444 1253 
Q 3444 622 3041 265 
Q 2638 -91 1925 -91 
Q 1213 -91 811 264 
Q 409 619 409 1247 
Q 409 1747 657 2061 
Q 906 2375 1375 2478 
z
M 1147 3481 
Q 1147 3106 1347 2909 
Q 1547 2713 1925 2713 
Q 2306 2713 2506 2909 
Q 2706 3106 2706 3481 
Q 2706 3863 2507 4063 
Q 2309 4263 1925 4263 
Q 1547 4263 1347 4061 
Q 1147 3859 1147 3481 
z
" transform="scale(0.015625)"/>
      <path id="Menlo-Regular-2c" d="M 1381 1128 
L 2356 1128 
L 2356 300 
L 1663 -1047 
L 1038 -1050 
L 1381 300 
L 1381 1128 
z
" transform="scale(0.015625)"/>
      <path id="Menlo-Regular-35" d="M 647 4666 
L 3009 4666 
L 3009 4134 
L 1222 4134 
L 1222 2988 
Q 1356 3038 1492 3061 
Q 1628 3084 1766 3084 
Q 2491 3084 2916 2656 
Q 3341 2228 3341 1497 
Q 3341 759 2895 334 
Q 2450 -91 1678 -91 
Q 1306 -91 998 -41 
Q 691 9 447 109 
L 447 750 
Q 734 594 1025 517 
Q 1316 441 1619 441 
Q 2141 441 2423 716 
Q 2706 991 2706 1497 
Q 2706 1997 2414 2275 
Q 2122 2553 1600 2553 
Q 1347 2553 1106 2495 
Q 866 2438 647 2322 
L 647 4666 
z
" transform="scale(0.015625)"/>
     </defs>
     <use xlink:href="#Menlo-Regular-23"/>
     <use xlink:href="#Menlo-Regular-31" transform="translate(60.205078 0)"/>
     <use xlink:href="#Menlo-Regular-32" transform="translate(120.410156 0)"/>
     <use xlink:href="#Menlo-Regular-38" transform="translate(180.615234 0)"/>
     <use xlink:href="#Menlo-Regular-2c" transform="translate(240.820312 0)"/>
     <use xlink:href="#Menlo-Regular-32" transform="translate(301.025391 0)"/>
     <use xlink:href="#Menlo-Regular-35" transform="translate(361.230469 0)"/>
     <use xlink:href="#Menlo-Regular-32" transform="translate(421.435547 0)"/>
    </g>
   </g>
   <g id="text_7">
    <!-- Solved -->
    <g style="fill: #9b8bb8" transform="translate(288.84096 165.8433) scale(0.096 -0.096)">
     <defs>
      <path id="Menlo-Regular-6f" d="M 1925 3097 
Q 1488 3097 1263 2756 
Q 1038 2416 1038 1747 
Q 1038 1081 1263 739 
Q 1488 397 1925 397 
Q 2366 397 2591 739 
Q 2816 1081 2816 1747 
Q 2816 2416 2591 2756 
Q 2366 3097 1925 3097 
z
M 1925 3584 
Q 2653 3584 3039 3112 
Q 3425 2641 3425 1747 
Q 3425 850 3040 379 
Q 2656 -91 1925 -91 
Q 1197 -91 812 379 
Q 428 850 428 1747 
Q 428 2641 812 3112 
Q 1197 3584 1925 3584 
z
" transform="scale(0.015625)"/>
      <path id="Menlo-Regular-64" d="M 2681 3053 
L 2681 4863 
L 3256 4863 
L 3256 0 
L 2681 0 
L 2681 441 
Q 2538 181 2298 45 
Q 2059 -91 1747 -91 
Q 1113 -91 748 401 
Q 384 894 384 1759 
Q 384 2613 750 3098 
Q 1116 3584 1747 3584 
Q 2063 3584 2303 3448 
Q 2544 3313 2681 3053 
z
M 991 1747 
Q 991 1078 1203 737 
Q 1416 397 1831 397 
Q 2247 397 2464 740 
Q 2681 1084 2681 1747 
Q 2681 2413 2464 2755 
Q 2247 3097 1831 3097 
Q 1416 3097 1203 2756 
Q 991 2416 991 1747 
z
" transform="scale(0.015625)"/>
     </defs>
     <use xlink:href="#Menlo-Regular-53"/>
     <use xlink:href="#Menlo-Regular-6f" transform="translate(60.205078 0)"/>
     <use xlink:href="#Menlo-Regular-6c" transform="translate(120.410156 0)"/>
     <use xlink:href="#Menlo-Regular-76" transform="translate(180.615234 0)"/>
     <use xlink:href="#Menlo-Regular-65" transform="translate(240.820312 0)"/>
     <use xlink:href="#Menlo-Regular-64" transform="translate(301.025391 0)"/>
    </g>
   </g>
   <g id="text_8">
    <!-- 70 -->
    <g style="fill: #6b5a8a" transform="translate(604.339853 166.675331) scale(0.126 -0.126)">
     <defs>
      <path id="Menlo-Regular-37" d="M 434 4666 
L 3372 4666 
L 3372 4397 
L 1703 0 
L 1044 0 
L 2669 4134 
L 434 4134 
L 434 4666 
z
" transform="scale(0.015625)"/>
      <path id="Menlo-Regular-30" d="M 1925 4734 
Q 2672 4734 3055 4125 
Q 3438 3516 3438 2322 
Q 3438 1128 3055 518 
Q 2672 -91 1925 -91 
Q 1178 -91 797 518 
Q 416 1128 416 2322 
Q 416 3516 797 4125 
Q 1178 4734 1925 4734 
z
M 1925 409 
Q 2369 409 2586 881 
Q 2803 1353 2803 2322 
Q 2803 2838 2741 3253 
L 1253 925 
Q 1488 409 1925 409 
z
M 1925 4234 
Q 1484 4234 1267 3762 
Q 1050 3291 1050 2322 
Q 1050 1881 1109 1497 
L 2566 3819 
Q 2328 4234 1925 4234 
z
" transform="scale(0.015625)"/>
     </defs>
     <use xlink:href="#Menlo-Regular-37"/>
     <use xlink:href="#Menlo-Regular-30" transform="translate(60.205078 0)"/>
    </g>
   </g>
   <g id="text_9">
    <!-- Difficulty -->
    <g style="fill: #9b8bb8" transform="translate(288.84096 196.614487) scale(0.084 -0.084)">
     <defs>
      <path id="Menlo-Regular-44" d="M 1363 519 
Q 2159 519 2475 911 
Q 2791 1303 2791 2328 
Q 2791 3363 2477 3755 
Q 2163 4147 1363 4147 
L 1063 4147 
L 1063 519 
L 1363 519 
z
M 1375 4666 
Q 2444 4666 2950 4097 
Q 3456 3528 3456 2328 
Q 3456 1134 2950 567 
Q 2444 0 1375 0 
L 428 0 
L 428 4666 
L 1375 4666 
z
" transform="scale(0.015625)"/>
      <path id="Menlo-Regular-66" d="M 3322 4863 
L 3322 4384 
L 2669 4384 
Q 2359 4384 2239 4257 
Q 2119 4131 2119 3809 
L 2119 3500 
L 3322 3500 
L 3322 3053 
L 2119 3053 
L 2119 0 
L 1544 0 
L 1544 3053 
L 609 3053 
L 609 3500 
L 1544 3500 
L 1544 3744 
Q 1544 4319 1808 4591 
Q 2072 4863 2631 4863 
L 3322 4863 
z
" transform="scale(0.015625)"/>
      <path id="Menlo-Regular-63" d="M 3316 178 
Q 3084 44 2839 -23 
Q 2594 -91 2338 -91 
Q 1525 -91 1067 396 
Q 609 884 609 1747 
Q 609 2609 1067 3096 
Q 1525 3584 2338 3584 
Q 2591 3584 2831 3518 
Q 3072 3453 3316 3316 
L 3316 2713 
Q 3088 2916 2858 3006 
Q 2628 3097 2338 3097 
Q 1797 3097 1506 2747 
Q 1216 2397 1216 1747 
Q 1216 1100 1508 748 
Q 1800 397 2338 397 
Q 2638 397 2875 489 
Q 3113 581 3316 775 
L 3316 178 
z
" transform="scale(0.015625)"/>
      <path id="Menlo-Regular-75" d="M 609 1325 
L 609 3494 
L 1184 3494 
L 1184 1325 
Q 1184 853 1351 631 
Q 1519 409 1869 409 
Q 2275 409 2490 695 
Q 2706 981 2706 1516 
L 2706 3494 
L 3284 3494 
L 3284 0 
L 2706 0 
L 2706 525 
Q 2553 222 2289 65 
Q 2025 -91 1672 -91 
Q 1134 -91 871 261 
Q 609 613 609 1325 
z
" transform="scale(0.015625)"/>
      <path id="Menlo-Regular-79" d="M 2681 1125 
Q 2538 759 2316 163 
Q 2006 -663 1900 -844 
Q 1756 -1088 1540 -1209 
Q 1325 -1331 1038 -1331 
L 575 -1331 
L 575 -850 
L 916 -850 
Q 1169 -850 1312 -703 
Q 1456 -556 1678 56 
L 325 3500 
L 934 3500 
L 1972 763 
L 2994 3500 
L 3603 3500 
L 2681 1125 
z
" transform="scale(0.015625)"/>
     </defs>
     <use xlink:href="#Menlo-Regular-44"/>
     <use xlink:href="#Menlo-Regular-69" transform="translate(60.205078 0)"/>
     <use xlink:href="#Menlo-Regular-66" transform="translate(120.410156 0)"/>
     <use xlink:href="#Menlo-Regular-66" transform="translate(180.615234 0)"/>
     <use xlink:href="#Menlo-Regular-69" transform="translate(240.820312 0)"/>
     <use xlink:href="#Menlo-Regular-63" transform="translate(301.025391 0)"/>
     <use xlink:href="#Menlo-Regular-75" transform="translate(361.230469 0)"/>
     <use xlink:href="#Menlo-Regular-6c" transform="translate(421.435547 0)"/>
     <use xlink:href="#Menlo-Regular-74" transform="translate(481.640625 0)"/>
     <use xlink:href="#Menlo-Regular-79" transform="translate(541.845703 0)"/>
    </g>
   </g>
  </g>
 </g>
 <defs>
  <clipPath id="p9771191f9e">
   <rect x="274.464" y="11.808" width="359.424" height="207.36"/>
  </clipPath>
 </defs>
</svg>
