<?xml version="1.0" encoding="utf-8" standalone="no"?>
<!DOCTYPE svg PUBLIC "-//W3C//DTD SVG 1.1//EN"
  "http://www.w3.org/Graphics/SVG/1.1/DTD/svg11.dtd">
<svg xmlns:xlink="http://www.w3.org/1999/xlink" width="691.2pt" height="396pt" viewBox="0 0 691.2 396" xmlns="http://www.w3.org/2000/svg" version="1.1">
 <metadata>
  <rdf:RDF xmlns:dc="http://purl.org/dc/elements/1.1/" xmlns:cc="http://creativecommons.org/ns#" xmlns:rdf="http://www.w3.org/1999/02/22-rdf-syntax-ns#">
   <cc:Work>
    <dc:type rdf:resource="http://purl.org/dc/dcmitype/StillImage"/>
    <dc:date>2026-04-10T15:39:21.343464</dc:date>
    <dc:format>image/svg+xml</dc:format>
    <dc:creator>
     <cc:Agent>
      <dc:title>Matplotlib v3.10.8, https://matplotlib.org/</dc:title>
     </cc:Agent>
    </dc:creator>
   </cc:Work>
  </rdf:RDF>
 </metadata>
 <defs>
  <style type="text/css">*{stroke-linejoin: round; stroke-linecap: butt}</style>
 </defs>
 <g id="figure_1">
  <g id="patch_1">
   <path d="M 0 396 
L 691.2 396 
L 691.2 0 
L 0 0 
L 0 396 
z
" style="fill: none"/>
  </g>
  <g id="axes_1">
   <g id="patch_2">
    <path d="M 55.296 324.72 
L 546.048 324.72 
L 546.048 55.44 
L 55.296 55.44 
L 55.296 324.72 
z
" style="fill: none"/>
   </g>
   <g id="matplotlib.axis_1">
    <g id="xtick_1">
     <g id="line2d_1">
      <path d="M 77.602909 324.72 
L 77.602909 55.44 
" clip-path="url(#p429e3a1038)" style="fill: none; stroke-dasharray: 2.22,0.96; stroke-dashoffset: 0; stroke: #e2d5f5; stroke-opacity: 0.7; stroke-width: 0.6"/>
     </g>
     <g id="line2d_2">
      <defs>
       <path id="m3dc5772e7a" d="M 0 0 
L 0 3.5 
" style="stroke: #9b8bb8; stroke-width: 0.8"/>
      </defs>
      <g>
       <use xlink:href="#m3dc5772e7a" x="77.602909" y="324.72" style="fill: #9b8bb8; stroke: #9b8bb8; stroke-width: 0.8"/>
      </g>
     </g>
     <g id="text_1">
      <!-- 03/31 -->
      <g style="fill: #9b8bb8" transform="translate(66.062528 353.301793) rotate(-30) scale(0.1 -0.1)">
       <defs>
        <path id="JetBrainsMono-Regular-30" d="M 1920 -64 
Q 1274 -64 893 310 
Q 512 685 512 1312 
L 512 3360 
Q 512 3987 893 4361 
Q 1274 4736 1920 4736 
Q 2566 4736 2947 4361 
Q 3328 3987 3328 3360 
L 3328 1312 
Q 3328 896 3155 585 
Q 2982 275 2665 105 
Q 2349 -64 1920 -64 
z
M 1920 429 
Q 2304 429 2537 675 
Q 2771 922 2771 1312 
L 2771 3360 
Q 2771 3750 2537 3996 
Q 2304 4243 1920 4243 
Q 1536 4243 1302 3996 
Q 1069 3750 1069 3360 
L 1069 1312 
Q 1069 922 1302 675 
Q 1536 429 1920 429 
z
M 1920 1984 
Q 1747 1984 1641 2080 
Q 1536 2176 1536 2355 
Q 1536 2528 1641 2621 
Q 1747 2714 1920 2714 
Q 2093 2714 2198 2621 
Q 2304 2528 2304 2355 
Q 2304 2176 2198 2080 
Q 2093 1984 1920 1984 
z
" transform="scale(0.015625)"/>
        <path id="JetBrainsMono-Regular-33" d="M 1850 -64 
Q 1203 -64 825 297 
Q 448 659 448 1280 
L 1024 1280 
Q 1024 896 1248 672 
Q 1472 448 1856 448 
Q 2240 448 2464 672 
Q 2688 896 2688 1280 
L 2688 1600 
Q 2688 1984 2464 2208 
Q 2240 2432 1856 2432 
L 1350 2432 
L 1350 2931 
L 2496 4147 
L 576 4147 
L 576 4672 
L 3149 4672 
L 3149 4134 
L 2022 2938 
Q 2598 2893 2931 2537 
Q 3264 2182 3264 1600 
L 3264 1280 
Q 3264 659 2883 297 
Q 2502 -64 1850 -64 
z
" transform="scale(0.015625)"/>
        <path id="JetBrainsMono-Regular-2f" d="M 480 -704 
L 2752 5312 
L 3360 5312 
L 1088 -704 
L 480 -704 
z
" transform="scale(0.015625)"/>
        <path id="JetBrainsMono-Regular-31" d="M 576 0 
L 576 525 
L 1843 525 
L 1843 4173 
L 576 3226 
L 576 3885 
L 1632 4672 
L 2419 4672 
L 2419 525 
L 3456 525 
L 3456 0 
L 576 0 
z
" transform="scale(0.015625)"/>
       </defs>
       <use xlink:href="#JetBrainsMono-Regular-30"/>
       <use xlink:href="#JetBrainsMono-Regular-33" transform="translate(59.999985 0)"/>
       <use xlink:href="#JetBrainsMono-Regular-2f" transform="translate(119.999969 0)"/>
       <use xlink:href="#JetBrainsMono-Regular-33" transform="translate(179.999954 0)"/>
       <use xlink:href="#JetBrainsMono-Regular-31" transform="translate(239.999939 0)"/>
      </g>
     </g>
    </g>
    <g id="xtick_2">
     <g id="line2d_3">
      <path d="M 122.216727 324.72 
L 122.216727 55.44 
" clip-path="url(#p429e3a1038)" style="fill: none; stroke-dasharray: 2.22,0.96; stroke-dashoffset: 0; stroke: #e2d5f5; stroke-opacity: 0.7; stroke-width: 0.6"/>
     </g>
     <g id="line2d_4">
      <g>
       <use xlink:href="#m3dc5772e7a" x="122.216727" y="324.72" style="fill: #9b8bb8; stroke: #9b8bb8; stroke-width: 0.8"/>
      </g>
     </g>
     <g id="text_2">
      <!-- 04/01 -->
      <g style="fill: #9b8bb8" transform="translate(110.676346 353.301793) rotate(-30) scale(0.1 -0.1)">
       <defs>
        <path id="JetBrainsMono-Regular-34" d="M 2560 0 
L 2560 1024 
L 448 1024 
L 448 1926 
L 2150 4672 
L 2803 4672 
L 1024 1798 
L 1024 1549 
L 2560 1549 
L 2560 2688 
L 3136 2688 
L 3136 0 
L 2560 0 
z
" transform="scale(0.015625)"/>
       </defs>
       <use xlink:href="#JetBrainsMono-Regular-30"/>
       <use xlink:href="#JetBrainsMono-Regular-34" transform="translate(59.999985 0)"/>
       <use xlink:href="#JetBrainsMono-Regular-2f" transform="translate(119.999969 0)"/>
       <use xlink:href="#JetBrainsMono-Regular-30" transform="translate(179.999954 0)"/>
       <use xlink:href="#JetBrainsMono-Regular-31" transform="translate(239.999939 0)"/>
      </g>
     </g>
    </g>
    <g id="xtick_3">
     <g id="line2d_5">
      <path d="M 166.830545 324.72 
L 166.830545 55.44 
" clip-path="url(#p429e3a1038)" style="fill: none; stroke-dasharray: 2.22,0.96; stroke-dashoffset: 0; stroke: #e2d5f5; stroke-opacity: 0.7; stroke-width: 0.6"/>
     </g>
     <g id="line2d_6">
      <g>
       <use xlink:href="#m3dc5772e7a" x="166.830545" y="324.72" style="fill: #9b8bb8; stroke: #9b8bb8; stroke-width: 0.8"/>
      </g>
     </g>
     <g id="text_3">
      <!-- 04/02 -->
      <g style="fill: #9b8bb8" transform="translate(155.290164 353.301793) rotate(-30) scale(0.1 -0.1)">
       <defs>
        <path id="JetBrainsMono-Regular-32" d="M 550 0 
L 550 531 
L 2106 2195 
Q 2445 2554 2585 2835 
Q 2726 3117 2726 3386 
Q 2726 3770 2505 3997 
Q 2285 4224 1907 4224 
Q 1517 4224 1289 3990 
Q 1062 3757 1062 3360 
L 486 3360 
Q 506 3994 890 4365 
Q 1274 4736 1907 4736 
Q 2554 4736 2934 4371 
Q 3315 4006 3315 3379 
Q 3315 3046 3132 2675 
Q 2950 2304 2509 1843 
L 1248 525 
L 3373 525 
L 3373 0 
L 550 0 
z
" transform="scale(0.015625)"/>
       </defs>
       <use xlink:href="#JetBrainsMono-Regular-30"/>
       <use xlink:href="#JetBrainsMono-Regular-34" transform="translate(59.999985 0)"/>
       <use xlink:href="#JetBrainsMono-Regular-2f" transform="translate(119.999969 0)"/>
       <use xlink:href="#JetBrainsMono-Regular-30" transform="translate(179.999954 0)"/>
       <use xlink:href="#JetBrainsMono-Regular-32" transform="translate(239.999939 0)"/>
      </g>
     </g>
    </g>
    <g id="xtick_4">
     <g id="line2d_7">
      <path d="M 211.444364 324.72 
L 211.444364 55.44 
" clip-path="url(#p429e3a1038)" style="fill: none; stroke-dasharray: 2.22,0.96; stroke-dashoffset: 0; stroke: #e2d5f5; stroke-opacity: 0.7; stroke-width: 0.6"/>
     </g>
     <g id="line2d_8">
      <g>
       <use xlink:href="#m3dc5772e7a" x="211.444364" y="324.72" style="fill: #9b8bb8; stroke: #9b8bb8; stroke-width: 0.8"/>
      </g>
     </g>
     <g id="text_4">
      <!-- 04/03 -->
      <g style="fill: #9b8bb8" transform="translate(199.903983 353.301793) rotate(-30) scale(0.1 -0.1)">
       <use xlink:href="#JetBrainsMono-Regular-30"/>
       <use xlink:href="#JetBrainsMono-Regular-34" transform="translate(59.999985 0)"/>
       <use xlink:href="#JetBrainsMono-Regular-2f" transform="translate(119.999969 0)"/>
       <use xlink:href="#JetBrainsMono-Regular-30" transform="translate(179.999954 0)"/>
       <use xlink:href="#JetBrainsMono-Regular-33" transform="translate(239.999939 0)"/>
      </g>
     </g>
    </g>
    <g id="xtick_5">
     <g id="line2d_9">
      <path d="M 256.058182 324.72 
L 256.058182 55.44 
" clip-path="url(#p429e3a1038)" style="fill: none; stroke-dasharray: 2.22,0.96; stroke-dashoffset: 0; stroke: #e2d5f5; stroke-opacity: 0.7; stroke-width: 0.6"/>
     </g>
     <g id="line2d_10">
      <g>
       <use xlink:href="#m3dc5772e7a" x="256.058182" y="324.72" style="fill: #9b8bb8; stroke: #9b8bb8; stroke-width: 0.8"/>
      </g>
     </g>
     <g id="text_5">
      <!-- 04/04 -->
      <g style="fill: #9b8bb8" transform="translate(244.517801 353.301793) rotate(-30) scale(0.1 -0.1)">
       <use xlink:href="#JetBrainsMono-Regular-30"/>
       <use xlink:href="#JetBrainsMono-Regular-34" transform="translate(59.999985 0)"/>
       <use xlink:href="#JetBrainsMono-Regular-2f" transform="translate(119.999969 0)"/>
       <use xlink:href="#JetBrainsMono-Regular-30" transform="translate(179.999954 0)"/>
       <use xlink:href="#JetBrainsMono-Regular-34" transform="translate(239.999939 0)"/>
      </g>
     </g>
    </g>
    <g id="xtick_6">
     <g id="line2d_11">
      <path d="M 300.672 324.72 
L 300.672 55.44 
" clip-path="url(#p429e3a1038)" style="fill: none; stroke-dasharray: 2.22,0.96; stroke-dashoffset: 0; stroke: #e2d5f5; stroke-opacity: 0.7; stroke-width: 0.6"/>
     </g>
     <g id="line2d_12">
      <g>
       <use xlink:href="#m3dc5772e7a" x="300.672" y="324.72" style="fill: #9b8bb8; stroke: #9b8bb8; stroke-width: 0.8"/>
      </g>
     </g>
     <g id="text_6">
      <!-- 04/05 -->
      <g style="fill: #9b8bb8" transform="translate(289.131619 353.301793) rotate(-30) scale(0.1 -0.1)">
       <defs>
        <path id="JetBrainsMono-Regular-35" d="M 1882 -64 
Q 1235 -64 857 297 
Q 480 659 480 1280 
L 1056 1280 
Q 1056 896 1280 672 
Q 1504 448 1888 448 
Q 2272 448 2496 672 
Q 2720 896 2720 1280 
L 2720 1568 
Q 2720 1952 2502 2176 
Q 2285 2400 1914 2400 
L 640 2400 
L 640 4672 
L 3130 4672 
L 3130 4147 
L 1178 4147 
L 1190 2925 
L 1946 2925 
Q 2592 2925 2944 2569 
Q 3296 2214 3296 1568 
L 3296 1280 
Q 3296 659 2915 297 
Q 2534 -64 1882 -64 
z
" transform="scale(0.015625)"/>
       </defs>
       <use xlink:href="#JetBrainsMono-Regular-30"/>
       <use xlink:href="#JetBrainsMono-Regular-34" transform="translate(59.999985 0)"/>
       <use xlink:href="#JetBrainsMono-Regular-2f" transform="translate(119.999969 0)"/>
       <use xlink:href="#JetBrainsMono-Regular-30" transform="translate(179.999954 0)"/>
       <use xlink:href="#JetBrainsMono-Regular-35" transform="translate(239.999939 0)"/>
      </g>
     </g>
    </g>
    <g id="xtick_7">
     <g id="line2d_13">
      <path d="M 345.285818 324.72 
L 345.285818 55.44 
" clip-path="url(#p429e3a1038)" style="fill: none; stroke-dasharray: 2.22,0.96; stroke-dashoffset: 0; stroke: #e2d5f5; stroke-opacity: 0.7; stroke-width: 0.6"/>
     </g>
     <g id="line2d_14">
      <g>
       <use xlink:href="#m3dc5772e7a" x="345.285818" y="324.72" style="fill: #9b8bb8; stroke: #9b8bb8; stroke-width: 0.8"/>
      </g>
     </g>
     <g id="text_7">
      <!-- 04/06 -->
      <g style="fill: #9b8bb8" transform="translate(333.745437 353.301793) rotate(-30) scale(0.1 -0.1)">
       <defs>
        <path id="JetBrainsMono-Regular-36" d="M 1926 -64 
Q 1478 -64 1136 125 
Q 794 314 602 650 
Q 410 986 410 1427 
Q 410 1734 525 2057 
Q 640 2381 838 2733 
L 1920 4672 
L 2560 4672 
L 1408 2669 
L 1427 2656 
Q 1510 2765 1676 2822 
Q 1843 2880 2042 2880 
Q 2458 2880 2768 2697 
Q 3078 2515 3254 2195 
Q 3430 1875 3430 1453 
Q 3430 1005 3238 662 
Q 3046 320 2710 128 
Q 2374 -64 1926 -64 
z
M 1920 448 
Q 2336 448 2595 723 
Q 2854 998 2854 1440 
Q 2854 1882 2595 2157 
Q 2336 2432 1920 2432 
Q 1504 2432 1245 2157 
Q 986 1882 986 1440 
Q 986 998 1245 723 
Q 1504 448 1920 448 
z
" transform="scale(0.015625)"/>
       </defs>
       <use xlink:href="#JetBrainsMono-Regular-30"/>
       <use xlink:href="#JetBrainsMono-Regular-34" transform="translate(59.999985 0)"/>
       <use xlink:href="#JetBrainsMono-Regular-2f" transform="translate(119.999969 0)"/>
       <use xlink:href="#JetBrainsMono-Regular-30" transform="translate(179.999954 0)"/>
       <use xlink:href="#JetBrainsMono-Regular-36" transform="translate(239.999939 0)"/>
      </g>
     </g>
    </g>
    <g id="xtick_8">
     <g id="line2d_15">
      <path d="M 389.899636 324.72 
L 389.899636 55.44 
" clip-path="url(#p429e3a1038)" style="fill: none; stroke-dasharray: 2.22,0.96; stroke-dashoffset: 0; stroke: #e2d5f5; stroke-opacity: 0.7; stroke-width: 0.6"/>
     </g>
     <g id="line2d_16">
      <g>
       <use xlink:href="#m3dc5772e7a" x="389.899636" y="324.72" style="fill: #9b8bb8; stroke: #9b8bb8; stroke-width: 0.8"/>
      </g>
     </g>
     <g id="text_8">
      <!-- 04/07 -->
      <g style="fill: #9b8bb8" transform="translate(378.359255 353.301793) rotate(-30) scale(0.1 -0.1)">
       <defs>
        <path id="JetBrainsMono-Regular-37" d="M 1216 0 
L 2880 4147 
L 1101 4147 
L 1101 3392 
L 525 3392 
L 525 4672 
L 3494 4672 
L 3494 4134 
L 1843 0 
L 1216 0 
z
" transform="scale(0.015625)"/>
       </defs>
       <use xlink:href="#JetBrainsMono-Regular-30"/>
       <use xlink:href="#JetBrainsMono-Regular-34" transform="translate(59.999985 0)"/>
       <use xlink:href="#JetBrainsMono-Regular-2f" transform="translate(119.999969 0)"/>
       <use xlink:href="#JetBrainsMono-Regular-30" transform="translate(179.999954 0)"/>
       <use xlink:href="#JetBrainsMono-Regular-37" transform="translate(239.999939 0)"/>
      </g>
     </g>
    </g>
    <g id="xtick_9">
     <g id="line2d_17">
      <path d="M 434.513455 324.72 
L 434.513455 55.44 
" clip-path="url(#p429e3a1038)" style="fill: none; stroke-dasharray: 2.22,0.96; stroke-dashoffset: 0; stroke: #e2d5f5; stroke-opacity: 0.7; stroke-width: 0.6"/>
     </g>
     <g id="line2d_18">
      <g>
       <use xlink:href="#m3dc5772e7a" x="434.513455" y="324.72" style="fill: #9b8bb8; stroke: #9b8bb8; stroke-width: 0.8"/>
      </g>
     </g>
     <g id="text_9">
      <!-- 04/08 -->
      <g style="fill: #9b8bb8" transform="translate(422.973073 353.301793) rotate(-30) scale(0.1 -0.1)">
       <defs>
        <path id="JetBrainsMono-Regular-38" d="M 1920 -64 
Q 1478 -64 1139 109 
Q 800 282 611 592 
Q 422 902 422 1306 
Q 422 1747 675 2067 
Q 928 2387 1350 2458 
L 1350 2477 
Q 986 2560 768 2845 
Q 550 3130 550 3501 
Q 550 3866 723 4144 
Q 896 4422 1206 4579 
Q 1517 4736 1920 4736 
Q 2330 4736 2637 4579 
Q 2944 4422 3117 4144 
Q 3290 3866 3290 3501 
Q 3290 3130 3072 2845 
Q 2854 2560 2490 2477 
L 2490 2458 
Q 2912 2387 3165 2067 
Q 3418 1747 3418 1306 
Q 3418 902 3229 592 
Q 3040 282 2704 109 
Q 2368 -64 1920 -64 
z
M 1920 2701 
Q 2278 2701 2496 2912 
Q 2714 3123 2714 3462 
Q 2714 3802 2496 4013 
Q 2278 4224 1920 4224 
Q 1568 4224 1347 4013 
Q 1126 3802 1126 3462 
Q 1126 3123 1347 2912 
Q 1568 2701 1920 2701 
z
M 1920 454 
Q 2330 454 2586 694 
Q 2842 934 2842 1318 
Q 2842 1709 2586 1949 
Q 2330 2189 1920 2189 
Q 1510 2189 1254 1949 
Q 998 1709 998 1318 
Q 998 934 1254 694 
Q 1510 454 1920 454 
z
" transform="scale(0.015625)"/>
       </defs>
       <use xlink:href="#JetBrainsMono-Regular-30"/>
       <use xlink:href="#JetBrainsMono-Regular-34" transform="translate(59.999985 0)"/>
       <use xlink:href="#JetBrainsMono-Regular-2f" transform="translate(119.999969 0)"/>
       <use xlink:href="#JetBrainsMono-Regular-30" transform="translate(179.999954 0)"/>
       <use xlink:href="#JetBrainsMono-Regular-38" transform="translate(239.999939 0)"/>
      </g>
     </g>
    </g>
    <g id="xtick_10">
     <g id="line2d_19">
      <path d="M 479.127273 324.72 
L 479.127273 55.44 
" clip-path="url(#p429e3a1038)" style="fill: none; stroke-dasharray: 2.22,0.96; stroke-dashoffset: 0; stroke: #e2d5f5; stroke-opacity: 0.7; stroke-width: 0.6"/>
     </g>
     <g id="line2d_20">
      <g>
       <use xlink:href="#m3dc5772e7a" x="479.127273" y="324.72" style="fill: #9b8bb8; stroke: #9b8bb8; stroke-width: 0.8"/>
      </g>
     </g>
     <g id="text_10">
      <!-- 04/09 -->
      <g style="fill: #9b8bb8" transform="translate(467.586892 353.301793) rotate(-30) scale(0.1 -0.1)">
       <defs>
        <path id="JetBrainsMono-Regular-39" d="M 1248 0 
L 2400 2003 
L 2381 2016 
Q 2317 1914 2144 1853 
Q 1971 1792 1766 1792 
Q 1363 1792 1059 1974 
Q 755 2157 582 2477 
Q 410 2797 410 3219 
Q 410 3674 602 4013 
Q 794 4352 1133 4544 
Q 1472 4736 1914 4736 
Q 2368 4736 2707 4547 
Q 3046 4358 3238 4022 
Q 3430 3686 3430 3245 
Q 3430 2938 3315 2614 
Q 3200 2291 3002 1939 
L 1920 0 
L 1248 0 
z
M 1920 2240 
Q 2336 2240 2595 2515 
Q 2854 2790 2854 3232 
Q 2854 3674 2595 3949 
Q 2336 4224 1920 4224 
Q 1504 4224 1245 3949 
Q 986 3674 986 3232 
Q 986 2790 1245 2515 
Q 1504 2240 1920 2240 
z
" transform="scale(0.015625)"/>
       </defs>
       <use xlink:href="#JetBrainsMono-Regular-30"/>
       <use xlink:href="#JetBrainsMono-Regular-34" transform="translate(59.999985 0)"/>
       <use xlink:href="#JetBrainsMono-Regular-2f" transform="translate(119.999969 0)"/>
       <use xlink:href="#JetBrainsMono-Regular-30" transform="translate(179.999954 0)"/>
       <use xlink:href="#JetBrainsMono-Regular-39" transform="translate(239.999939 0)"/>
      </g>
     </g>
    </g>
    <g id="xtick_11">
     <g id="line2d_21">
      <path d="M 523.741091 324.72 
L 523.741091 55.44 
" clip-path="url(#p429e3a1038)" style="fill: none; stroke-dasharray: 2.22,0.96; stroke-dashoffset: 0; stroke: #e2d5f5; stroke-opacity: 0.7; stroke-width: 0.6"/>
     </g>
     <g id="line2d_22">
      <g>
       <use xlink:href="#m3dc5772e7a" x="523.741091" y="324.72" style="fill: #9b8bb8; stroke: #9b8bb8; stroke-width: 0.8"/>
      </g>
     </g>
     <g id="text_11">
      <!-- 04/10 -->
      <g style="fill: #9b8bb8" transform="translate(512.20071 353.301793) rotate(-30) scale(0.1 -0.1)">
       <use xlink:href="#JetBrainsMono-Regular-30"/>
       <use xlink:href="#JetBrainsMono-Regular-34" transform="translate(59.999985 0)"/>
       <use xlink:href="#JetBrainsMono-Regular-2f" transform="translate(119.999969 0)"/>
       <use xlink:href="#JetBrainsMono-Regular-31" transform="translate(179.999954 0)"/>
       <use xlink:href="#JetBrainsMono-Regular-30" transform="translate(239.999939 0)"/>
      </g>
     </g>
    </g>
   </g>
   <g id="matplotlib.axis_2">
    <g id="ytick_1">
     <g id="line2d_23">
      <path d="M 55.296 303.784723 
L 546.048 303.784723 
" clip-path="url(#p429e3a1038)" style="fill: none; stroke-dasharray: 2.22,0.96; stroke-dashoffset: 0; stroke: #e2d5f5; stroke-opacity: 0.7; stroke-width: 0.6"/>
     </g>
     <g id="line2d_24">
      <defs>
       <path id="m01fbda7d21" d="M 0 0 
L -3.5 0 
" style="stroke: #9b8bb8; stroke-width: 0.8"/>
      </defs>
      <g>
       <use xlink:href="#m01fbda7d21" x="55.296" y="303.784723" style="fill: #9b8bb8; stroke: #9b8bb8; stroke-width: 0.8"/>
      </g>
     </g>
     <g id="text_12">
      <!-- 200 -->
      <g style="fill: #9b8bb8" transform="translate(30.296 307.434723) scale(0.1 -0.1)">
       <use xlink:href="#JetBrainsMono-Regular-32"/>
       <use xlink:href="#JetBrainsMono-Regular-30" transform="translate(59.999985 0)"/>
       <use xlink:href="#JetBrainsMono-Regular-30" transform="translate(119.999969 0)"/>
      </g>
     </g>
    </g>
    <g id="ytick_2">
     <g id="line2d_25">
      <path d="M 55.296 251.446531 
L 546.048 251.446531 
" clip-path="url(#p429e3a1038)" style="fill: none; stroke-dasharray: 2.22,0.96; stroke-dashoffset: 0; stroke: #e2d5f5; stroke-opacity: 0.7; stroke-width: 0.6"/>
     </g>
     <g id="line2d_26">
      <g>
       <use xlink:href="#m01fbda7d21" x="55.296" y="251.446531" style="fill: #9b8bb8; stroke: #9b8bb8; stroke-width: 0.8"/>
      </g>
     </g>
     <g id="text_13">
      <!-- 210 -->
      <g style="fill: #9b8bb8" transform="translate(30.296 255.096531) scale(0.1 -0.1)">
       <use xlink:href="#JetBrainsMono-Regular-32"/>
       <use xlink:href="#JetBrainsMono-Regular-31" transform="translate(59.999985 0)"/>
       <use xlink:href="#JetBrainsMono-Regular-30" transform="translate(119.999969 0)"/>
      </g>
     </g>
    </g>
    <g id="ytick_3">
     <g id="line2d_27">
      <path d="M 55.296 199.108338 
L 546.048 199.108338 
" clip-path="url(#p429e3a1038)" style="fill: none; stroke-dasharray: 2.22,0.96; stroke-dashoffset: 0; stroke: #e2d5f5; stroke-opacity: 0.7; stroke-width: 0.6"/>
     </g>
     <g id="line2d_28">
      <g>
       <use xlink:href="#m01fbda7d21" x="55.296" y="199.108338" style="fill: #9b8bb8; stroke: #9b8bb8; stroke-width: 0.8"/>
      </g>
     </g>
     <g id="text_14">
      <!-- 220 -->
      <g style="fill: #9b8bb8" transform="translate(30.296 202.758338) scale(0.1 -0.1)">
       <use xlink:href="#JetBrainsMono-Regular-32"/>
       <use xlink:href="#JetBrainsMono-Regular-32" transform="translate(59.999985 0)"/>
       <use xlink:href="#JetBrainsMono-Regular-30" transform="translate(119.999969 0)"/>
      </g>
     </g>
    </g>
    <g id="ytick_4">
     <g id="line2d_29">
      <path d="M 55.296 146.770146 
L 546.048 146.770146 
" clip-path="url(#p429e3a1038)" style="fill: none; stroke-dasharray: 2.22,0.96; stroke-dashoffset: 0; stroke: #e2d5f5; stroke-opacity: 0.7; stroke-width: 0.6"/>
     </g>
     <g id="line2d_30">
      <g>
       <use xlink:href="#m01fbda7d21" x="55.296" y="146.770146" style="fill: #9b8bb8; stroke: #9b8bb8; stroke-width: 0.8"/>
      </g>
     </g>
     <g id="text_15">
      <!-- 230 -->
      <g style="fill: #9b8bb8" transform="translate(30.296 150.420146) scale(0.1 -0.1)">
       <use xlink:href="#JetBrainsMono-Regular-32"/>
       <use xlink:href="#JetBrainsMono-Regular-33" transform="translate(59.999985 0)"/>
       <use xlink:href="#JetBrainsMono-Regular-30" transform="translate(119.999969 0)"/>
      </g>
     </g>
    </g>
    <g id="ytick_5">
     <g id="line2d_31">
      <path d="M 55.296 94.431953 
L 546.048 94.431953 
" clip-path="url(#p429e3a1038)" style="fill: none; stroke-dasharray: 2.22,0.96; stroke-dashoffset: 0; stroke: #e2d5f5; stroke-opacity: 0.7; stroke-width: 0.6"/>
     </g>
     <g id="line2d_32">
      <g>
       <use xlink:href="#m01fbda7d21" x="55.296" y="94.431953" style="fill: #9b8bb8; stroke: #9b8bb8; stroke-width: 0.8"/>
      </g>
     </g>
     <g id="text_16">
      <!-- 240 -->
      <g style="fill: #9b8bb8" transform="translate(30.296 98.081953) scale(0.1 -0.1)">
       <use xlink:href="#JetBrainsMono-Regular-32"/>
       <use xlink:href="#JetBrainsMono-Regular-34" transform="translate(59.999985 0)"/>
       <use xlink:href="#JetBrainsMono-Regular-30" transform="translate(119.999969 0)"/>
      </g>
     </g>
    </g>
    <g id="text_17">
     <!-- Rating -->
     <g style="fill: #9b8bb8" transform="translate(24.496 208.08) rotate(-90) scale(0.1 -0.1)">
      <defs>
       <path id="JetBrainsMono-Regular-52" d="M 595 0 
L 595 4672 
L 2035 4672 
Q 2451 4672 2764 4502 
Q 3078 4333 3251 4032 
Q 3424 3731 3424 3328 
Q 3424 2854 3181 2515 
Q 2938 2176 2534 2042 
L 3488 0 
L 2854 0 
L 1939 1984 
L 1165 1984 
L 1165 0 
L 595 0 
z
M 1165 2502 
L 2035 2502 
Q 2394 2502 2611 2729 
Q 2829 2957 2829 3328 
Q 2829 3706 2611 3930 
Q 2394 4154 2035 4154 
L 1165 4154 
L 1165 2502 
z
" transform="scale(0.015625)"/>
       <path id="JetBrainsMono-Regular-61" d="M 1613 -64 
Q 1069 -64 749 240 
Q 429 544 429 1037 
Q 429 1363 576 1606 
Q 723 1850 985 1987 
Q 1248 2125 1587 2125 
L 2675 2125 
L 2675 2400 
Q 2675 3085 1926 3085 
Q 1594 3085 1389 2963 
Q 1184 2842 1171 2624 
L 595 2624 
Q 627 3040 982 3312 
Q 1338 3584 1926 3584 
Q 2566 3584 2908 3277 
Q 3251 2970 3251 2419 
L 3251 0 
L 2682 0 
L 2682 640 
L 2669 640 
Q 2618 314 2342 125 
Q 2067 -64 1613 -64 
z
M 1754 422 
Q 2176 422 2425 627 
Q 2675 832 2675 1184 
L 2675 1677 
L 1651 1677 
Q 1370 1677 1194 1507 
Q 1018 1338 1018 1056 
Q 1018 762 1213 592 
Q 1408 422 1754 422 
z
" transform="scale(0.015625)"/>
       <path id="JetBrainsMono-Regular-74" d="M 2272 0 
Q 1837 0 1574 253 
Q 1312 506 1312 928 
L 1312 2995 
L 301 2995 
L 301 3520 
L 1312 3520 
L 1312 4512 
L 1888 4512 
L 1888 3520 
L 3328 3520 
L 3328 2995 
L 1888 2995 
L 1888 928 
Q 1888 749 1993 637 
Q 2099 525 2272 525 
L 3296 525 
L 3296 0 
L 2272 0 
z
" transform="scale(0.015625)"/>
       <path id="JetBrainsMono-Regular-69" d="M 544 0 
L 544 525 
L 1792 525 
L 1792 2995 
L 672 2995 
L 672 3520 
L 2368 3520 
L 2368 525 
L 3552 525 
L 3552 0 
L 544 0 
z
M 2016 4154 
Q 1805 4154 1683 4262 
Q 1562 4371 1562 4557 
Q 1562 4749 1683 4861 
Q 1805 4973 2016 4973 
Q 2227 4973 2348 4861 
Q 2470 4749 2470 4557 
Q 2470 4371 2348 4262 
Q 2227 4154 2016 4154 
z
" transform="scale(0.015625)"/>
       <path id="JetBrainsMono-Regular-6e" d="M 589 0 
L 589 3520 
L 1165 3520 
L 1165 2848 
L 1171 2848 
Q 1216 3200 1459 3392 
Q 1702 3584 2106 3584 
Q 2637 3584 2950 3257 
Q 3264 2931 3264 2368 
L 3264 0 
L 2688 0 
L 2688 2266 
Q 2688 2669 2486 2883 
Q 2285 3098 1939 3098 
Q 1581 3098 1373 2874 
Q 1165 2650 1165 2240 
L 1165 0 
L 589 0 
z
" transform="scale(0.015625)"/>
       <path id="JetBrainsMono-Regular-67" d="M 1030 -1152 
L 1030 -627 
L 2022 -627 
Q 2323 -627 2496 -457 
Q 2669 -288 2669 0 
L 2669 320 
L 2682 896 
L 2662 896 
Q 2611 582 2361 412 
Q 2112 243 1734 243 
Q 1190 243 876 588 
Q 563 934 563 1536 
L 563 2278 
Q 563 2880 876 3232 
Q 1190 3584 1734 3584 
Q 2112 3584 2361 3405 
Q 2611 3226 2662 2912 
L 2675 2912 
L 2675 3520 
L 3245 3520 
L 3245 0 
Q 3245 -531 2915 -841 
Q 2586 -1152 2016 -1152 
L 1030 -1152 
z
M 1907 723 
Q 2266 723 2470 947 
Q 2675 1171 2675 1568 
L 2675 2240 
Q 2675 2637 2470 2861 
Q 2266 3085 1907 3085 
Q 1542 3085 1340 2873 
Q 1139 2662 1139 2304 
L 1139 1504 
Q 1139 1146 1340 934 
Q 1542 723 1907 723 
z
" transform="scale(0.015625)"/>
      </defs>
      <use xlink:href="#JetBrainsMono-Regular-52"/>
      <use xlink:href="#JetBrainsMono-Regular-61" transform="translate(59.999985 0)"/>
      <use xlink:href="#JetBrainsMono-Regular-74" transform="translate(119.999969 0)"/>
      <use xlink:href="#JetBrainsMono-Regular-69" transform="translate(179.999954 0)"/>
      <use xlink:href="#JetBrainsMono-Regular-6e" transform="translate(239.999939 0)"/>
      <use xlink:href="#JetBrainsMono-Regular-67" transform="translate(299.999924 0)"/>
     </g>
    </g>
   </g>
   <g id="patch_3">
    <path d="M 55.296 324.72 
L 55.296 55.44 
" style="fill: none; stroke: #d8c8ef; stroke-width: 0.8; stroke-linejoin: miter; stroke-linecap: square"/>
   </g>
   <g id="patch_4">
    <path d="M 55.296 324.72 
L 546.048 324.72 
" style="fill: none; stroke: #d8c8ef; stroke-width: 0.8; stroke-linejoin: miter; stroke-linecap: square"/>
   </g>
   <g id="FillBetweenPolyCollection_1">
    <defs>
     <path id="macdab726d8" d="M 77.602909 -71.28 
L 77.602909 -97.449096 
L 79.09501 -98.885263 
L 80.587111 -100.174881 
L 82.079212 -101.323023 
L 83.571313 -102.33476 
L 85.063414 -103.215161 
L 86.555515 -103.969298 
L 88.047616 -104.602241 
L 89.539717 -105.119062 
L 91.031818 -105.524832 
L 92.523919 -105.824621 
L 94.016019 -106.023499 
L 95.50812 -106.126539 
L 97.000221 -106.138811 
L 98.492322 -106.065385 
L 99.984423 -105.911332 
L 101.476524 -105.681724 
L 102.968625 -105.381631 
L 104.460726 -105.016124 
L 105.952827 -104.590274 
L 107.444928 -104.109152 
L 108.937029 -103.577828 
L 110.42913 -103.001374 
L 111.921231 -102.38486 
L 113.413332 -101.733357 
L 114.905433 -101.051936 
L 116.397534 -100.345668 
L 117.889635 -99.619623 
L 119.381735 -98.878873 
L 120.873836 -98.128489 
L 122.365937 -97.373541 
L 123.858038 -96.619099 
L 125.350139 -95.870236 
L 126.84224 -95.132022 
L 128.334341 -94.409527 
L 129.826442 -93.707822 
L 131.318543 -93.031979 
L 132.810644 -92.387069 
L 134.302745 -91.778161 
L 135.794846 -91.210327 
L 137.286947 -90.688638 
L 138.779048 -90.218164 
L 140.271149 -89.803977 
L 141.76325 -89.451147 
L 143.255351 -89.164746 
L 144.747452 -88.949843 
L 146.239552 -88.81151 
L 147.731653 -88.754818 
L 149.223754 -88.784838 
L 150.715855 -88.906639 
L 152.207956 -89.125294 
L 153.700057 -89.445874 
L 155.192158 -89.873448 
L 156.684259 -90.413088 
L 158.17636 -91.069864 
L 159.668461 -91.848848 
L 161.160562 -92.755111 
L 162.652663 -93.793723 
L 164.144764 -94.969754 
L 165.636865 -96.288277 
L 167.128966 -97.754341 
L 168.621067 -99.368714 
L 170.113168 -101.122607 
L 171.605268 -103.005938 
L 173.097369 -105.008625 
L 174.58947 -107.120585 
L 176.081571 -109.331736 
L 177.573672 -111.631997 
L 179.065773 -114.011285 
L 180.557874 -116.459518 
L 182.049975 -118.966614 
L 183.542076 -121.522491 
L 185.034177 -124.117066 
L 186.526278 -126.740258 
L 188.018379 -129.381985 
L 189.51048 -132.032164 
L 191.002581 -134.680713 
L 192.494682 -137.31755 
L 193.986783 -139.932593 
L 195.478884 -142.51576 
L 196.970984 -145.056969 
L 198.463085 -147.546138 
L 199.955186 -149.973184 
L 201.447287 -152.328025 
L 202.939388 -154.60058 
L 204.431489 -156.780765 
L 205.92359 -158.8585 
L 207.415691 -160.823702 
L 208.907792 -162.666289 
L 210.399893 -164.376178 
L 211.891994 -165.943365 
L 213.384095 -167.363814 
L 214.876196 -168.643608 
L 216.368297 -169.789809 
L 217.860398 -170.809482 
L 219.352499 -171.709687 
L 220.8446 -172.49749 
L 222.336701 -173.179952 
L 223.828801 -173.764136 
L 225.320902 -174.257106 
L 226.813003 -174.665923 
L 228.305104 -174.997652 
L 229.797205 -175.259355 
L 231.289306 -175.458095 
L 232.781407 -175.600934 
L 234.273508 -175.694937 
L 235.765609 -175.747165 
L 237.25771 -175.764682 
L 238.749811 -175.75455 
L 240.241912 -175.723832 
L 241.734013 -175.679592 
L 243.226114 -175.628893 
L 244.718215 -175.578796 
L 246.210316 -175.536365 
L 247.702417 -175.508664 
L 249.194517 -175.502754 
L 250.686618 -175.5257 
L 252.178719 -175.584563 
L 253.67082 -175.686406 
L 255.162921 -175.838293 
L 256.655022 -176.047181 
L 258.147123 -176.315895 
L 259.639224 -176.641897 
L 261.131325 -177.02229 
L 262.623426 -177.454175 
L 264.115527 -177.934657 
L 265.607628 -178.460836 
L 267.099729 -179.029816 
L 268.59183 -179.6387 
L 270.083931 -180.28459 
L 271.576032 -180.964588 
L 273.068133 -181.675798 
L 274.560234 -182.415322 
L 276.052334 -183.180261 
L 277.544435 -183.96772 
L 279.036536 -184.774801 
L 280.528637 -185.598605 
L 282.020738 -186.436236 
L 283.512839 -187.284797 
L 285.00494 -188.14139 
L 286.497041 -189.003117 
L 287.989142 -189.867081 
L 289.481243 -190.730385 
L 290.973344 -191.590131 
L 292.465445 -192.443423 
L 293.957546 -193.287361 
L 295.449647 -194.11905 
L 296.941748 -194.935592 
L 298.433849 -195.734089 
L 299.92595 -196.511643 
L 301.41805 -197.26544 
L 302.910151 -197.99453 
L 304.402252 -198.699836 
L 305.894353 -199.38236 
L 307.386454 -200.043103 
L 308.878555 -200.683069 
L 310.370656 -201.30326 
L 311.862757 -201.904678 
L 313.354858 -202.488326 
L 314.846959 -203.055206 
L 316.33906 -203.60632 
L 317.831161 -204.142671 
L 319.323262 -204.66526 
L 320.815363 -205.175092 
L 322.307464 -205.673167 
L 323.799565 -206.160488 
L 325.291666 -206.638058 
L 326.783766 -207.106879 
L 328.275867 -207.567953 
L 329.767968 -208.022283 
L 331.260069 -208.470871 
L 332.75217 -208.914719 
L 334.244271 -209.354831 
L 335.736372 -209.792207 
L 337.228473 -210.227852 
L 338.720574 -210.662766 
L 340.212675 -211.097952 
L 341.704776 -211.534413 
L 343.196877 -211.973152 
L 344.688978 -212.41517 
L 346.181079 -212.86152 
L 347.67318 -213.314016 
L 349.165281 -213.775054 
L 350.657382 -214.247046 
L 352.149483 -214.732406 
L 353.641583 -215.233545 
L 355.133684 -215.752875 
L 356.625785 -216.292808 
L 358.117886 -216.855758 
L 359.609987 -217.444135 
L 361.102088 -218.060353 
L 362.594189 -218.706823 
L 364.08629 -219.385959 
L 365.578391 -220.100171 
L 367.070492 -220.851873 
L 368.562593 -221.643476 
L 370.054694 -222.477393 
L 371.546795 -223.356036 
L 373.038896 -224.281817 
L 374.530997 -225.257148 
L 376.023098 -226.284443 
L 377.515199 -227.366112 
L 379.007299 -228.504569 
L 380.4994 -229.702225 
L 381.991501 -230.961493 
L 383.483602 -232.284785 
L 384.975703 -233.674512 
L 386.467804 -235.133089 
L 387.959905 -236.662926 
L 389.452006 -238.266436 
L 390.944107 -239.945553 
L 392.436208 -241.697274 
L 393.928309 -243.515686 
L 395.42041 -245.394836 
L 396.912511 -247.328771 
L 398.404612 -249.311539 
L 399.896713 -251.337189 
L 401.388814 -253.399767 
L 402.880915 -255.493323 
L 404.373016 -257.611902 
L 405.865116 -259.749554 
L 407.357217 -261.900326 
L 408.849318 -264.058266 
L 410.341419 -266.217422 
L 411.83352 -268.37184 
L 413.325621 -270.51557 
L 414.817722 -272.642659 
L 416.309823 -274.747155 
L 417.801924 -276.823105 
L 419.294025 -278.864557 
L 420.786126 -280.865559 
L 422.278227 -282.820159 
L 423.770328 -284.722405 
L 425.262429 -286.566344 
L 426.75453 -288.346024 
L 428.246631 -290.055493 
L 429.738732 -291.688798 
L 431.230832 -293.239988 
L 432.722933 -294.703111 
L 434.215034 -296.072213 
L 435.707135 -297.342173 
L 437.199236 -298.514004 
L 438.691337 -299.591466 
L 440.183438 -300.578336 
L 441.675539 -301.478388 
L 443.16764 -302.295398 
L 444.659741 -303.033139 
L 446.151842 -303.695387 
L 447.643943 -304.285918 
L 449.136044 -304.808505 
L 450.628145 -305.266925 
L 452.120246 -305.664951 
L 453.612347 -306.006359 
L 455.104448 -306.294924 
L 456.596548 -306.534421 
L 458.088649 -306.728624 
L 459.58075 -306.881309 
L 461.072851 -306.996251 
L 462.564952 -307.077225 
L 464.057053 -307.128005 
L 465.549154 -307.152366 
L 467.041255 -307.154084 
L 468.533356 -307.136934 
L 470.025457 -307.10469 
L 471.517558 -307.061127 
L 473.009659 -307.010021 
L 474.50176 -306.955146 
L 475.993861 -306.900277 
L 477.485962 -306.849189 
L 478.978063 -306.805658 
L 480.470164 -306.773458 
L 481.962265 -306.756364 
L 483.454365 -306.758151 
L 484.946466 -306.782594 
L 486.438567 -306.833468 
L 487.930668 -306.914547 
L 489.422769 -307.029608 
L 490.91487 -307.182425 
L 492.406971 -307.376772 
L 493.899072 -307.616426 
L 495.391173 -307.90516 
L 496.883274 -308.246749 
L 498.375375 -308.64497 
L 499.867476 -309.103596 
L 501.359577 -309.626402 
L 502.851678 -310.217164 
L 504.343779 -310.879657 
L 505.83588 -311.617655 
L 507.327981 -312.434933 
L 508.820081 -313.335267 
L 510.312182 -314.322431 
L 511.804283 -315.400201 
L 513.296384 -316.572351 
L 514.788485 -317.842656 
L 516.280586 -319.214891 
L 517.772687 -320.692831 
L 519.264788 -322.280251 
L 520.756889 -323.980927 
L 522.24899 -325.798632 
L 523.741091 -327.737143 
L 523.741091 -71.28 
L 523.741091 -71.28 
L 522.24899 -71.28 
L 520.756889 -71.28 
L 519.264788 -71.28 
L 517.772687 -71.28 
L 516.280586 -71.28 
L 514.788485 -71.28 
L 513.296384 -71.28 
L 511.804283 -71.28 
L 510.312182 -71.28 
L 508.820081 -71.28 
L 507.327981 -71.28 
L 505.83588 -71.28 
L 504.343779 -71.28 
L 502.851678 -71.28 
L 501.359577 -71.28 
L 499.867476 -71.28 
L 498.375375 -71.28 
L 496.883274 -71.28 
L 495.391173 -71.28 
L 493.899072 -71.28 
L 492.406971 -71.28 
L 490.91487 -71.28 
L 489.422769 -71.28 
L 487.930668 -71.28 
L 486.438567 -71.28 
L 484.946466 -71.28 
L 483.454365 -71.28 
L 481.962265 -71.28 
L 480.470164 -71.28 
L 478.978063 -71.28 
L 477.485962 -71.28 
L 475.993861 -71.28 
L 474.50176 -71.28 
L 473.009659 -71.28 
L 471.517558 -71.28 
L 470.025457 -71.28 
L 468.533356 -71.28 
L 467.041255 -71.28 
L 465.549154 -71.28 
L 464.057053 -71.28 
L 462.564952 -71.28 
L 461.072851 -71.28 
L 459.58075 -71.28 
L 458.088649 -71.28 
L 456.596548 -71.28 
L 455.104448 -71.28 
L 453.612347 -71.28 
L 452.120246 -71.28 
L 450.628145 -71.28 
L 449.136044 -71.28 
L 447.643943 -71.28 
L 446.151842 -71.28 
L 444.659741 -71.28 
L 443.16764 -71.28 
L 441.675539 -71.28 
L 440.183438 -71.28 
L 438.691337 -71.28 
L 437.199236 -71.28 
L 435.707135 -71.28 
L 434.215034 -71.28 
L 432.722933 -71.28 
L 431.230832 -71.28 
L 429.738732 -71.28 
L 428.246631 -71.28 
L 426.75453 -71.28 
L 425.262429 -71.28 
L 423.770328 -71.28 
L 422.278227 -71.28 
L 420.786126 -71.28 
L 419.294025 -71.28 
L 417.801924 -71.28 
L 416.309823 -71.28 
L 414.817722 -71.28 
L 413.325621 -71.28 
L 411.83352 -71.28 
L 410.341419 -71.28 
L 408.849318 -71.28 
L 407.357217 -71.28 
L 405.865116 -71.28 
L 404.373016 -71.28 
L 402.880915 -71.28 
L 401.388814 -71.28 
L 399.896713 -71.28 
L 398.404612 -71.28 
L 396.912511 -71.28 
L 395.42041 -71.28 
L 393.928309 -71.28 
L 392.436208 -71.28 
L 390.944107 -71.28 
L 389.452006 -71.28 
L 387.959905 -71.28 
L 386.467804 -71.28 
L 384.975703 -71.28 
L 383.483602 -71.28 
L 381.991501 -71.28 
L 380.4994 -71.28 
L 379.007299 -71.28 
L 377.515199 -71.28 
L 376.023098 -71.28 
L 374.530997 -71.28 
L 373.038896 -71.28 
L 371.546795 -71.28 
L 370.054694 -71.28 
L 368.562593 -71.28 
L 367.070492 -71.28 
L 365.578391 -71.28 
L 364.08629 -71.28 
L 362.594189 -71.28 
L 361.102088 -71.28 
L 359.609987 -71.28 
L 358.117886 -71.28 
L 356.625785 -71.28 
L 355.133684 -71.28 
L 353.641583 -71.28 
L 352.149483 -71.28 
L 350.657382 -71.28 
L 349.165281 -71.28 
L 347.67318 -71.28 
L 346.181079 -71.28 
L 344.688978 -71.28 
L 343.196877 -71.28 
L 341.704776 -71.28 
L 340.212675 -71.28 
L 338.720574 -71.28 
L 337.228473 -71.28 
L 335.736372 -71.28 
L 334.244271 -71.28 
L 332.75217 -71.28 
L 331.260069 -71.28 
L 329.767968 -71.28 
L 328.275867 -71.28 
L 326.783766 -71.28 
L 325.291666 -71.28 
L 323.799565 -71.28 
L 322.307464 -71.28 
L 320.815363 -71.28 
L 319.323262 -71.28 
L 317.831161 -71.28 
L 316.33906 -71.28 
L 314.846959 -71.28 
L 313.354858 -71.28 
L 311.862757 -71.28 
L 310.370656 -71.28 
L 308.878555 -71.28 
L 307.386454 -71.28 
L 305.894353 -71.28 
L 304.402252 -71.28 
L 302.910151 -71.28 
L 301.41805 -71.28 
L 299.92595 -71.28 
L 298.433849 -71.28 
L 296.941748 -71.28 
L 295.449647 -71.28 
L 293.957546 -71.28 
L 292.465445 -71.28 
L 290.973344 -71.28 
L 289.481243 -71.28 
L 287.989142 -71.28 
L 286.497041 -71.28 
L 285.00494 -71.28 
L 283.512839 -71.28 
L 282.020738 -71.28 
L 280.528637 -71.28 
L 279.036536 -71.28 
L 277.544435 -71.28 
L 276.052334 -71.28 
L 274.560234 -71.28 
L 273.068133 -71.28 
L 271.576032 -71.28 
L 270.083931 -71.28 
L 268.59183 -71.28 
L 267.099729 -71.28 
L 265.607628 -71.28 
L 264.115527 -71.28 
L 262.623426 -71.28 
L 261.131325 -71.28 
L 259.639224 -71.28 
L 258.147123 -71.28 
L 256.655022 -71.28 
L 255.162921 -71.28 
L 253.67082 -71.28 
L 252.178719 -71.28 
L 250.686618 -71.28 
L 249.194517 -71.28 
L 247.702417 -71.28 
L 246.210316 -71.28 
L 244.718215 -71.28 
L 243.226114 -71.28 
L 241.734013 -71.28 
L 240.241912 -71.28 
L 238.749811 -71.28 
L 237.25771 -71.28 
L 235.765609 -71.28 
L 234.273508 -71.28 
L 232.781407 -71.28 
L 231.289306 -71.28 
L 229.797205 -71.28 
L 228.305104 -71.28 
L 226.813003 -71.28 
L 225.320902 -71.28 
L 223.828801 -71.28 
L 222.336701 -71.28 
L 220.8446 -71.28 
L 219.352499 -71.28 
L 217.860398 -71.28 
L 216.368297 -71.28 
L 214.876196 -71.28 
L 213.384095 -71.28 
L 211.891994 -71.28 
L 210.399893 -71.28 
L 208.907792 -71.28 
L 207.415691 -71.28 
L 205.92359 -71.28 
L 204.431489 -71.28 
L 202.939388 -71.28 
L 201.447287 -71.28 
L 199.955186 -71.28 
L 198.463085 -71.28 
L 196.970984 -71.28 
L 195.478884 -71.28 
L 193.986783 -71.28 
L 192.494682 -71.28 
L 191.002581 -71.28 
L 189.51048 -71.28 
L 188.018379 -71.28 
L 186.526278 -71.28 
L 185.034177 -71.28 
L 183.542076 -71.28 
L 182.049975 -71.28 
L 180.557874 -71.28 
L 179.065773 -71.28 
L 177.573672 -71.28 
L 176.081571 -71.28 
L 174.58947 -71.28 
L 173.097369 -71.28 
L 171.605268 -71.28 
L 170.113168 -71.28 
L 168.621067 -71.28 
L 167.128966 -71.28 
L 165.636865 -71.28 
L 164.144764 -71.28 
L 162.652663 -71.28 
L 161.160562 -71.28 
L 159.668461 -71.28 
L 158.17636 -71.28 
L 156.684259 -71.28 
L 155.192158 -71.28 
L 153.700057 -71.28 
L 152.207956 -71.28 
L 150.715855 -71.28 
L 149.223754 -71.28 
L 147.731653 -71.28 
L 146.239552 -71.28 
L 144.747452 -71.28 
L 143.255351 -71.28 
L 141.76325 -71.28 
L 140.271149 -71.28 
L 138.779048 -71.28 
L 137.286947 -71.28 
L 135.794846 -71.28 
L 134.302745 -71.28 
L 132.810644 -71.28 
L 131.318543 -71.28 
L 129.826442 -71.28 
L 128.334341 -71.28 
L 126.84224 -71.28 
L 125.350139 -71.28 
L 123.858038 -71.28 
L 122.365937 -71.28 
L 120.873836 -71.28 
L 119.381735 -71.28 
L 117.889635 -71.28 
L 116.397534 -71.28 
L 114.905433 -71.28 
L 113.413332 -71.28 
L 111.921231 -71.28 
L 110.42913 -71.28 
L 108.937029 -71.28 
L 107.444928 -71.28 
L 105.952827 -71.28 
L 104.460726 -71.28 
L 102.968625 -71.28 
L 101.476524 -71.28 
L 99.984423 -71.28 
L 98.492322 -71.28 
L 97.000221 -71.28 
L 95.50812 -71.28 
L 94.016019 -71.28 
L 92.523919 -71.28 
L 91.031818 -71.28 
L 89.539717 -71.28 
L 88.047616 -71.28 
L 86.555515 -71.28 
L 85.063414 -71.28 
L 83.571313 -71.28 
L 82.079212 -71.28 
L 80.587111 -71.28 
L 79.09501 -71.28 
L 77.602909 -71.28 
z
" style="stroke: #8b5cf6; stroke-opacity: 0.12"/>
    </defs>
    <g clip-path="url(#p429e3a1038)">
     <use xlink:href="#macdab726d8" x="0" y="396" style="fill: #8b5cf6; fill-opacity: 0.12; stroke: #8b5cf6; stroke-opacity: 0.12"/>
    </g>
   </g>
   <g id="text_18">
    <!-- 245 -->
    <g style="fill: #8b5cf6" transform="translate(526.741091 65.262857) scale(0.12 -0.12)">
     <defs>
      <path id="JetBrainsMono-Bold-32" d="M 474 0 
L 474 723 
L 2157 2445 
Q 2566 2874 2566 3315 
Q 2566 3629 2384 3824 
Q 2202 4019 1894 4019 
Q 1581 4019 1392 3817 
Q 1203 3616 1203 3283 
L 403 3283 
Q 403 3718 595 4044 
Q 787 4371 1126 4553 
Q 1466 4736 1914 4736 
Q 2355 4736 2688 4563 
Q 3021 4390 3203 4080 
Q 3386 3770 3386 3354 
Q 3386 2995 3216 2636 
Q 3046 2278 2656 1894 
L 1478 723 
L 3443 723 
L 3443 0 
L 474 0 
z
" transform="scale(0.015625)"/>
      <path id="JetBrainsMono-Bold-34" d="M 2445 0 
L 2445 928 
L 378 928 
L 378 2086 
L 2106 4672 
L 2995 4672 
L 1146 1875 
L 1146 1632 
L 2445 1632 
L 2445 2688 
L 3251 2688 
L 3251 0 
L 2445 0 
z
" transform="scale(0.015625)"/>
      <path id="JetBrainsMono-Bold-35" d="M 1894 -64 
Q 1210 -64 803 297 
Q 397 659 397 1280 
L 1197 1280 
Q 1197 986 1385 810 
Q 1574 634 1901 634 
Q 2227 634 2409 810 
Q 2592 986 2592 1299 
L 2592 1606 
Q 2592 1920 2413 2096 
Q 2234 2272 1907 2272 
L 557 2272 
L 557 4672 
L 3219 4672 
L 3219 3949 
L 1312 3949 
L 1318 2976 
L 1946 2976 
Q 2637 2976 3014 2617 
Q 3392 2259 3392 1606 
L 3392 1299 
Q 3392 666 2992 301 
Q 2592 -64 1894 -64 
z
" transform="scale(0.015625)"/>
     </defs>
     <use xlink:href="#JetBrainsMono-Bold-32"/>
     <use xlink:href="#JetBrainsMono-Bold-34" transform="translate(59.999985 0)"/>
     <use xlink:href="#JetBrainsMono-Bold-35" transform="translate(119.999969 0)"/>
    </g>
   </g>
   <g id="text_19">
    <!-- Rating History -->
    <g style="fill: #8b5cf6" transform="translate(55.296 50.44) scale(0.17 -0.17)">
     <defs>
      <path id="JetBrainsMono-Bold-52" d="M 493 0 
L 493 4672 
L 1965 4672 
Q 2432 4672 2774 4499 
Q 3117 4326 3309 4016 
Q 3501 3706 3501 3283 
Q 3501 2816 3270 2467 
Q 3040 2118 2650 1971 
L 3565 0 
L 2688 0 
L 1869 1856 
L 1286 1856 
L 1286 0 
L 493 0 
z
M 1286 2560 
L 1965 2560 
Q 2304 2560 2496 2745 
Q 2688 2931 2688 3258 
Q 2688 3584 2493 3776 
Q 2298 3968 1965 3968 
L 1286 3968 
L 1286 2560 
z
" transform="scale(0.015625)"/>
      <path id="JetBrainsMono-Bold-61" d="M 1530 -64 
Q 992 -64 681 240 
Q 371 544 371 1037 
Q 371 1549 723 1853 
Q 1075 2157 1690 2157 
L 2547 2157 
L 2547 2406 
Q 2547 2938 1926 2938 
Q 1645 2938 1478 2829 
Q 1312 2720 1293 2522 
L 525 2522 
Q 550 2995 924 3289 
Q 1299 3584 1933 3584 
Q 2605 3584 2976 3270 
Q 3347 2957 3347 2387 
L 3347 0 
L 2566 0 
L 2566 659 
Q 2522 320 2246 128 
Q 1971 -64 1530 -64 
z
M 1786 589 
Q 2138 589 2342 761 
Q 2547 934 2547 1222 
L 2547 1638 
L 1728 1638 
Q 1466 1638 1312 1491 
Q 1158 1344 1158 1114 
Q 1158 877 1321 733 
Q 1485 589 1786 589 
z
" transform="scale(0.015625)"/>
      <path id="JetBrainsMono-Bold-74" d="M 2272 0 
Q 1779 0 1488 285 
Q 1197 570 1197 1056 
L 1197 2797 
L 224 2797 
L 224 3520 
L 1197 3520 
L 1197 4512 
L 2003 4512 
L 2003 3520 
L 3405 3520 
L 3405 2797 
L 2003 2797 
L 2003 1075 
Q 2003 922 2089 822 
Q 2176 723 2330 723 
L 3373 723 
L 3373 0 
L 2272 0 
z
" transform="scale(0.015625)"/>
      <path id="JetBrainsMono-Bold-69" d="M 486 0 
L 486 723 
L 1690 723 
L 1690 2797 
L 614 2797 
L 614 3520 
L 2490 3520 
L 2490 723 
L 3571 723 
L 3571 0 
L 486 0 
z
M 2032 4109 
Q 1789 4109 1648 4233 
Q 1507 4358 1507 4570 
Q 1507 4781 1648 4905 
Q 1789 5030 2032 5030 
Q 2275 5030 2416 4905 
Q 2557 4781 2557 4570 
Q 2557 4358 2416 4233 
Q 2275 4109 2032 4109 
z
" transform="scale(0.015625)"/>
      <path id="JetBrainsMono-Bold-6e" d="M 493 0 
L 493 3520 
L 1274 3520 
L 1274 2861 
Q 1338 3194 1587 3389 
Q 1837 3584 2221 3584 
Q 2739 3584 3049 3238 
Q 3360 2893 3360 2310 
L 3360 0 
L 2560 0 
L 2560 2214 
Q 2560 2541 2390 2717 
Q 2221 2893 1933 2893 
Q 1632 2893 1462 2713 
Q 1293 2534 1293 2202 
L 1293 0 
L 493 0 
z
" transform="scale(0.015625)"/>
      <path id="JetBrainsMono-Bold-67" d="M 973 -1152 
L 973 -486 
L 1965 -486 
Q 2246 -486 2400 -336 
Q 2554 -186 2554 70 
L 2554 282 
L 2566 832 
Q 2458 538 2218 374 
Q 1978 211 1632 211 
Q 1094 211 777 572 
Q 461 934 461 1555 
L 461 2240 
Q 461 2854 777 3219 
Q 1094 3584 1632 3584 
Q 1978 3584 2218 3421 
Q 2458 3258 2566 2957 
L 2566 3520 
L 3347 3520 
L 3347 51 
Q 3347 -506 2979 -829 
Q 2611 -1152 1978 -1152 
L 973 -1152 
z
M 1901 896 
Q 2208 896 2377 1078 
Q 2547 1261 2547 1587 
L 2547 2202 
Q 2547 2528 2377 2710 
Q 2208 2893 1901 2893 
Q 1594 2893 1427 2717 
Q 1261 2541 1261 2227 
L 1261 1562 
Q 1261 1248 1427 1072 
Q 1594 896 1901 896 
z
" transform="scale(0.015625)"/>
      <path id="JetBrainsMono-Bold-20" transform="scale(0.015625)"/>
      <path id="JetBrainsMono-Bold-48" d="M 493 0 
L 493 4672 
L 1293 4672 
L 1293 2778 
L 2547 2778 
L 2547 4672 
L 3347 4672 
L 3347 0 
L 2547 0 
L 2547 2054 
L 1293 2054 
L 1293 0 
L 493 0 
z
" transform="scale(0.015625)"/>
      <path id="JetBrainsMono-Bold-73" d="M 1773 -58 
Q 1146 -58 781 227 
Q 416 512 416 998 
L 1203 998 
Q 1203 794 1353 685 
Q 1504 576 1773 576 
L 2054 576 
Q 2342 576 2499 685 
Q 2656 794 2656 998 
Q 2656 1190 2547 1283 
Q 2438 1376 2214 1408 
L 1338 1523 
Q 915 1581 688 1849 
Q 461 2118 461 2547 
Q 461 3046 793 3312 
Q 1126 3578 1754 3578 
L 2048 3578 
Q 2637 3578 2995 3309 
Q 3354 3040 3366 2592 
L 2573 2592 
Q 2566 2758 2425 2857 
Q 2285 2957 2048 2957 
L 1754 2957 
Q 1498 2957 1363 2851 
Q 1229 2746 1229 2566 
Q 1229 2406 1328 2329 
Q 1427 2253 1619 2234 
L 2445 2118 
Q 2931 2061 3177 1776 
Q 3424 1491 3424 1011 
Q 3424 499 3075 220 
Q 2726 -58 2054 -58 
L 1773 -58 
z
" transform="scale(0.015625)"/>
      <path id="JetBrainsMono-Bold-6f" d="M 1920 -58 
Q 1242 -58 845 323 
Q 448 704 448 1350 
L 448 2170 
Q 448 2822 845 3200 
Q 1242 3578 1920 3578 
Q 2598 3578 2995 3200 
Q 3392 2822 3392 2170 
L 3392 1350 
Q 3392 704 2995 323 
Q 2598 -58 1920 -58 
z
M 1920 640 
Q 2240 640 2416 816 
Q 2592 992 2592 1325 
L 2592 2195 
Q 2592 2528 2416 2704 
Q 2240 2880 1920 2880 
Q 1600 2880 1424 2704 
Q 1248 2528 1248 2195 
L 1248 1325 
Q 1248 992 1424 816 
Q 1600 640 1920 640 
z
" transform="scale(0.015625)"/>
      <path id="JetBrainsMono-Bold-72" d="M 621 0 
L 621 3520 
L 1402 3520 
L 1402 2835 
Q 1466 3181 1718 3382 
Q 1971 3584 2374 3584 
Q 2912 3584 3213 3238 
Q 3514 2893 3514 2272 
L 3514 1939 
L 2714 1939 
L 2714 2234 
Q 2714 2554 2547 2723 
Q 2381 2893 2074 2893 
Q 1754 2893 1587 2701 
Q 1421 2509 1421 2157 
L 1421 0 
L 621 0 
z
" transform="scale(0.015625)"/>
      <path id="JetBrainsMono-Bold-79" d="M 1056 -1152 
L 1555 192 
L 230 3520 
L 1075 3520 
L 1754 1722 
Q 1811 1562 1868 1373 
Q 1926 1184 1952 1024 
Q 1971 1184 2025 1373 
Q 2080 1562 2138 1722 
L 2765 3520 
L 3610 3520 
L 1894 -1152 
L 1056 -1152 
z
" transform="scale(0.015625)"/>
     </defs>
     <use xlink:href="#JetBrainsMono-Bold-52"/>
     <use xlink:href="#JetBrainsMono-Bold-61" transform="translate(59.999985 0)"/>
     <use xlink:href="#JetBrainsMono-Bold-74" transform="translate(119.999969 0)"/>
     <use xlink:href="#JetBrainsMono-Bold-69" transform="translate(179.999954 0)"/>
     <use xlink:href="#JetBrainsMono-Bold-6e" transform="translate(239.999939 0)"/>
     <use xlink:href="#JetBrainsMono-Bold-67" transform="translate(299.999924 0)"/>
     <use xlink:href="#JetBrainsMono-Bold-20" transform="translate(359.999908 0)"/>
     <use xlink:href="#JetBrainsMono-Bold-48" transform="translate(419.999893 0)"/>
     <use xlink:href="#JetBrainsMono-Bold-69" transform="translate(479.999878 0)"/>
     <use xlink:href="#JetBrainsMono-Bold-73" transform="translate(539.999863 0)"/>
     <use xlink:href="#JetBrainsMono-Bold-74" transform="translate(599.999847 0)"/>
     <use xlink:href="#JetBrainsMono-Bold-6f" transform="translate(659.999832 0)"/>
     <use xlink:href="#JetBrainsMono-Bold-72" transform="translate(719.999817 0)"/>
     <use xlink:href="#JetBrainsMono-Bold-79" transform="translate(779.999802 0)"/>
    </g>
   </g>
   <g id="line2d_33">
    <path d="M 77.602909 298.550904 
L 80.587111 295.825119 
L 83.571313 293.66524 
L 86.555515 292.030702 
L 89.539717 290.880938 
L 92.523919 290.175379 
L 95.50812 289.873461 
L 98.492322 289.934615 
L 101.476524 290.318276 
L 104.460726 290.983876 
L 107.444928 291.890848 
L 110.42913 292.998626 
L 114.905433 294.948064 
L 120.873836 297.871511 
L 129.826442 302.292178 
L 134.302745 304.221839 
L 137.286947 305.311362 
L 140.271149 306.196023 
L 143.255351 306.835254 
L 146.239552 307.18849 
L 149.223754 307.215162 
L 152.207956 306.874706 
L 155.192158 306.126552 
L 158.17636 304.930136 
L 159.668461 304.151152 
L 161.160562 303.244889 
L 162.652663 302.206277 
L 164.144764 301.030246 
L 167.128966 298.245659 
L 170.113168 294.877393 
L 173.097369 290.991375 
L 176.081571 286.668264 
L 179.065773 281.988715 
L 183.542076 274.477509 
L 191.002581 261.319287 
L 196.970984 250.943031 
L 201.447287 243.671975 
L 204.431489 239.219235 
L 207.415691 235.176298 
L 210.399893 231.623822 
L 213.384095 228.636186 
L 216.368297 226.210191 
L 219.352499 224.290313 
L 222.336701 222.820048 
L 225.320902 221.742894 
L 228.305104 221.002348 
L 231.289306 220.541905 
L 234.273508 220.305063 
L 238.749811 220.24545 
L 252.178719 220.415437 
L 255.162921 220.161707 
L 258.147123 219.684105 
L 261.131325 218.97771 
L 264.115527 218.065343 
L 267.099729 216.970184 
L 271.576032 215.035412 
L 276.052334 212.819739 
L 282.020738 209.563764 
L 299.92595 199.488357 
L 304.402252 197.300164 
L 308.878555 195.316931 
L 314.846959 192.944794 
L 320.815363 190.824908 
L 328.275867 188.432047 
L 340.212675 184.902048 
L 350.657382 181.752954 
L 356.625785 179.707192 
L 361.102088 177.939647 
L 365.578391 175.899829 
L 370.054694 173.522607 
L 373.038896 171.718183 
L 376.023098 169.715557 
L 379.007299 167.495431 
L 381.991501 165.038507 
L 384.975703 162.325488 
L 387.959905 159.337074 
L 390.944107 156.054447 
L 393.928309 152.484314 
L 398.404612 146.688461 
L 402.880915 140.506677 
L 413.325621 125.48443 
L 419.294025 117.135443 
L 423.770328 111.277595 
L 426.75453 107.653976 
L 429.738732 104.311202 
L 432.722933 101.296889 
L 435.707135 98.657827 
L 438.691337 96.408534 
L 441.675539 94.521612 
L 444.659741 92.966861 
L 447.643943 91.714082 
L 450.628145 90.733075 
L 453.612347 89.993641 
L 456.596548 89.465579 
L 459.58075 89.118691 
L 464.057053 88.871995 
L 468.533356 88.863066 
L 486.438567 89.166532 
L 490.91487 88.817575 
L 493.899072 88.383574 
L 496.883274 87.753251 
L 499.867476 86.896404 
L 502.851678 85.782836 
L 505.83588 84.382345 
L 508.820081 82.664733 
L 511.804283 80.599799 
L 514.788485 78.157344 
L 517.772687 75.307169 
L 520.756889 72.019073 
L 523.741091 68.262857 
L 523.741091 68.262857 
" clip-path="url(#p429e3a1038)" style="fill: none; stroke: #8b5cf6; stroke-width: 1.2; stroke-linecap: round"/>
   </g>
   <g id="PathCollection_1">
    <defs>
     <path id="mf3d8292f07" d="M 0 2.236068 
C 0.593012 2.236068 1.161816 2.000462 1.581139 1.581139 
C 2.000462 1.161816 2.236068 0.593012 2.236068 0 
C 2.236068 -0.593012 2.000462 -1.161816 1.581139 -1.581139 
C 1.161816 -2.000462 0.593012 -2.236068 0 -2.236068 
C -0.593012 -2.236068 -1.161816 -2.000462 -1.581139 -1.581139 
C -2.000462 -1.161816 -2.236068 -0.593012 -2.236068 0 
C -2.236068 0.593012 -2.000462 1.161816 -1.581139 1.581139 
C -1.161816 2.000462 -0.593012 2.236068 0 2.236068 
z
" style="stroke: #ffffff; stroke-width: 0.8"/>
    </defs>
    <g clip-path="url(#p429e3a1038)">
     <use xlink:href="#mf3d8292f07" x="523.741091" y="68.262857" style="fill: #8b5cf6; stroke: #ffffff; stroke-width: 0.8"/>
    </g>
   </g>
  </g>
  <g id="axes_2">
   <g id="text_20">
    <!-- Rating -->
    <g style="fill: #9b8bb8" transform="translate(565.7472 48.312) scale(0.11 -0.11)">
     <use xlink:href="#JetBrainsMono-Regular-52"/>
     <use xlink:href="#JetBrainsMono-Regular-61" transform="translate(59.999985 0)"/>
     <use xlink:href="#JetBrainsMono-Regular-74" transform="translate(119.999969 0)"/>
     <use xlink:href="#JetBrainsMono-Regular-69" transform="translate(179.999954 0)"/>
     <use xlink:href="#JetBrainsMono-Regular-6e" transform="translate(239.999939 0)"/>
     <use xlink:href="#JetBrainsMono-Regular-67" transform="translate(299.999924 0)"/>
    </g>
   </g>
   <g id="text_21">
    <!-- 245 -->
    <g style="fill: #8b5cf6" transform="translate(565.7472 81.548) scale(0.26 -0.26)">
     <use xlink:href="#JetBrainsMono-Bold-32"/>
     <use xlink:href="#JetBrainsMono-Bold-34" transform="translate(59.999985 0)"/>
     <use xlink:href="#JetBrainsMono-Bold-35" transform="translate(119.999969 0)"/>
    </g>
   </g>
   <g id="text_22">
    <!-- Rank -->
    <g style="fill: #9b8bb8" transform="translate(565.7472 119.592) scale(0.11 -0.11)">
     <defs>
      <path id="JetBrainsMono-Regular-6b" d="M 621 0 
L 621 4672 
L 1197 4672 
L 1197 2067 
L 1869 2067 
L 2854 3520 
L 3514 3520 
L 2381 1843 
L 3578 0 
L 2906 0 
L 1882 1568 
L 1197 1568 
L 1197 0 
L 621 0 
z
" transform="scale(0.015625)"/>
     </defs>
     <use xlink:href="#JetBrainsMono-Regular-52"/>
     <use xlink:href="#JetBrainsMono-Regular-61" transform="translate(59.999985 0)"/>
     <use xlink:href="#JetBrainsMono-Regular-6e" transform="translate(119.999969 0)"/>
     <use xlink:href="#JetBrainsMono-Regular-6b" transform="translate(179.999954 0)"/>
    </g>
   </g>
   <g id="text_23">
    <!-- #121,720 -->
    <g style="fill: #8b5cf6" transform="translate(565.7472 148.104) scale(0.14 -0.14)">
     <defs>
      <path id="JetBrainsMono-Bold-23" d="M 493 0 
L 710 1216 
L 224 1216 
L 224 1760 
L 800 1760 
L 998 2912 
L 448 2912 
L 448 3456 
L 1094 3456 
L 1312 4672 
L 1875 4672 
L 1658 3456 
L 2566 3456 
L 2784 4672 
L 3347 4672 
L 3130 3456 
L 3616 3456 
L 3616 2912 
L 3034 2912 
L 2835 1760 
L 3392 1760 
L 3392 1216 
L 2739 1216 
L 2528 0 
L 1965 0 
L 2182 1216 
L 1267 1216 
L 1056 0 
L 493 0 
z
M 1363 1760 
L 2272 1760 
L 2470 2912 
L 1562 2912 
L 1363 1760 
z
" transform="scale(0.015625)"/>
      <path id="JetBrainsMono-Bold-31" d="M 538 0 
L 538 723 
L 1754 723 
L 1754 3898 
L 531 3002 
L 531 3898 
L 1606 4672 
L 2554 4672 
L 2554 723 
L 3533 723 
L 3533 0 
L 538 0 
z
" transform="scale(0.015625)"/>
      <path id="JetBrainsMono-Bold-2c" d="M 1216 -1024 
L 1555 934 
L 2470 934 
L 1984 -1024 
L 1216 -1024 
z
" transform="scale(0.015625)"/>
      <path id="JetBrainsMono-Bold-37" d="M 1011 0 
L 2720 3968 
L 1229 3968 
L 1229 3206 
L 429 3206 
L 429 4672 
L 3584 4672 
L 3584 3968 
L 1888 0 
L 1011 0 
z
" transform="scale(0.015625)"/>
      <path id="JetBrainsMono-Bold-30" d="M 1920 -64 
Q 1466 -64 1133 109 
Q 800 282 617 595 
Q 435 909 435 1331 
L 435 3341 
Q 435 3763 617 4076 
Q 800 4390 1133 4563 
Q 1466 4736 1920 4736 
Q 2374 4736 2707 4563 
Q 3040 4390 3222 4076 
Q 3405 3763 3405 3341 
L 3405 1331 
Q 3405 909 3222 595 
Q 3040 282 2707 109 
Q 2374 -64 1920 -64 
z
M 1920 627 
Q 2253 627 2451 819 
Q 2650 1011 2650 1331 
L 2650 3341 
Q 2650 3661 2454 3853 
Q 2259 4045 1920 4045 
Q 1581 4045 1385 3853 
Q 1190 3661 1190 3341 
L 1190 1331 
Q 1190 1011 1388 819 
Q 1587 627 1920 627 
z
M 1920 1952 
Q 1728 1952 1613 2057 
Q 1498 2163 1498 2355 
Q 1498 2547 1613 2646 
Q 1728 2746 1920 2746 
Q 2112 2746 2227 2646 
Q 2342 2547 2342 2355 
Q 2342 2163 2227 2057 
Q 2112 1952 1920 1952 
z
" transform="scale(0.015625)"/>
     </defs>
     <use xlink:href="#JetBrainsMono-Bold-23"/>
     <use xlink:href="#JetBrainsMono-Bold-31" transform="translate(59.999985 0)"/>
     <use xlink:href="#JetBrainsMono-Bold-32" transform="translate(119.999969 0)"/>
     <use xlink:href="#JetBrainsMono-Bold-31" transform="translate(179.999954 0)"/>
     <use xlink:href="#JetBrainsMono-Bold-2c" transform="translate(239.999939 0)"/>
     <use xlink:href="#JetBrainsMono-Bold-37" transform="translate(299.999924 0)"/>
     <use xlink:href="#JetBrainsMono-Bold-32" transform="translate(359.999908 0)"/>
     <use xlink:href="#JetBrainsMono-Bold-30" transform="translate(419.999893 0)"/>
    </g>
   </g>
   <g id="text_24">
    <!-- ▲ +4 -->
    <g style="fill: #4caf50" transform="translate(565.7472 169.488) scale(0.11 -0.11)">
     <defs>
      <path id="JetBrainsMono-Bold-25b2" d="M -64 384 
L 1920 4288 
L 3904 384 
L -64 384 
z
" transform="scale(0.015625)"/>
      <path id="JetBrainsMono-Bold-2b" d="M 1523 589 
L 1523 1741 
L 378 1741 
L 378 2483 
L 1523 2483 
L 1523 3635 
L 2317 3635 
L 2317 2483 
L 3462 2483 
L 3462 1741 
L 2317 1741 
L 2317 589 
L 1523 589 
z
" transform="scale(0.015625)"/>
     </defs>
     <use xlink:href="#JetBrainsMono-Bold-25b2"/>
     <use xlink:href="#JetBrainsMono-Bold-20" transform="translate(59.999985 0)"/>
     <use xlink:href="#JetBrainsMono-Bold-2b" transform="translate(119.999969 0)"/>
     <use xlink:href="#JetBrainsMono-Bold-34" transform="translate(179.999954 0)"/>
    </g>
   </g>
  </g>
 </g>
 <defs>
  <clipPath id="p429e3a1038">
   <rect x="55.296" y="55.44" width="490.752" height="269.28"/>
  </clipPath>
 </defs>
</svg>
