<?xml version="1.0" encoding="utf-8" standalone="no"?>
<!DOCTYPE svg PUBLIC "-//W3C//DTD SVG 1.1//EN"
  "http://www.w3.org/Graphics/SVG/1.1/DTD/svg11.dtd">
<svg xmlns:xlink="http://www.w3.org/1999/xlink" width="691.2pt" height="396pt" viewBox="0 0 691.2 396" xmlns="http://www.w3.org/2000/svg" version="1.1">
 <metadata>
  <rdf:RDF xmlns:dc="http://purl.org/dc/elements/1.1/" xmlns:cc="http://creativecommons.org/ns#" xmlns:rdf="http://www.w3.org/1999/02/22-rdf-syntax-ns#">
   <cc:Work>
    <dc:type rdf:resource="http://purl.org/dc/dcmitype/StillImage"/>
    <dc:date>2026-04-05T15:21:36.812783</dc:date>
    <dc:format>image/svg+xml</dc:format>
    <dc:creator>
     <cc:Agent>
      <dc:title>Matplotlib v3.10.8, https://matplotlib.org/</dc:title>
     </cc:Agent>
    </dc:creator>
   </cc:Work>
  </rdf:RDF>
 </metadata>
 <defs>
  <style type="text/css">*{stroke-linejoin: round; stroke-linecap: butt}</style>
 </defs>
 <g id="figure_1">
  <g id="patch_1">
   <path d="M 0 396 
L 691.2 396 
L 691.2 0 
L 0 0 
L 0 396 
z
" style="fill: none"/>
  </g>
  <g id="axes_1">
   <g id="patch_2">
    <path d="M 55.296 324.72 
L 546.048 324.72 
L 546.048 55.44 
L 55.296 55.44 
L 55.296 324.72 
z
" style="fill: none"/>
   </g>
   <g id="matplotlib.axis_1">
    <g id="xtick_1">
     <g id="line2d_1">
      <path d="M 96.192 324.72 
L 96.192 55.44 
" clip-path="url(#p08bde97da7)" style="fill: none; stroke-dasharray: 2.22,0.96; stroke-dashoffset: 0; stroke: #e2d5f5; stroke-opacity: 0.7; stroke-width: 0.6"/>
     </g>
     <g id="line2d_2">
      <defs>
       <path id="m1e6b8a3fe7" d="M 0 0 
L 0 3.5 
" style="stroke: #9b8bb8; stroke-width: 0.8"/>
      </defs>
      <g>
       <use xlink:href="#m1e6b8a3fe7" x="96.192" y="324.72" style="fill: #9b8bb8; stroke: #9b8bb8; stroke-width: 0.8"/>
      </g>
     </g>
     <g id="text_1">
      <!-- 03/31 -->
      <g style="fill: #9b8bb8" transform="translate(84.651619 353.301793) rotate(-30) scale(0.1 -0.1)">
       <defs>
        <path id="JetBrainsMono-Regular-30" d="M 1920 -64 
Q 1274 -64 893 310 
Q 512 685 512 1312 
L 512 3360 
Q 512 3987 893 4361 
Q 1274 4736 1920 4736 
Q 2566 4736 2947 4361 
Q 3328 3987 3328 3360 
L 3328 1312 
Q 3328 896 3155 585 
Q 2982 275 2665 105 
Q 2349 -64 1920 -64 
z
M 1920 429 
Q 2304 429 2537 675 
Q 2771 922 2771 1312 
L 2771 3360 
Q 2771 3750 2537 3996 
Q 2304 4243 1920 4243 
Q 1536 4243 1302 3996 
Q 1069 3750 1069 3360 
L 1069 1312 
Q 1069 922 1302 675 
Q 1536 429 1920 429 
z
M 1920 1984 
Q 1747 1984 1641 2080 
Q 1536 2176 1536 2355 
Q 1536 2528 1641 2621 
Q 1747 2714 1920 2714 
Q 2093 2714 2198 2621 
Q 2304 2528 2304 2355 
Q 2304 2176 2198 2080 
Q 2093 1984 1920 1984 
z
" transform="scale(0.015625)"/>
        <path id="JetBrainsMono-Regular-33" d="M 1850 -64 
Q 1203 -64 825 297 
Q 448 659 448 1280 
L 1024 1280 
Q 1024 896 1248 672 
Q 1472 448 1856 448 
Q 2240 448 2464 672 
Q 2688 896 2688 1280 
L 2688 1600 
Q 2688 1984 2464 2208 
Q 2240 2432 1856 2432 
L 1350 2432 
L 1350 2931 
L 2496 4147 
L 576 4147 
L 576 4672 
L 3149 4672 
L 3149 4134 
L 2022 2938 
Q 2598 2893 2931 2537 
Q 3264 2182 3264 1600 
L 3264 1280 
Q 3264 659 2883 297 
Q 2502 -64 1850 -64 
z
" transform="scale(0.015625)"/>
        <path id="JetBrainsMono-Regular-2f" d="M 480 -704 
L 2752 5312 
L 3360 5312 
L 1088 -704 
L 480 -704 
z
" transform="scale(0.015625)"/>
        <path id="JetBrainsMono-Regular-31" d="M 576 0 
L 576 525 
L 1843 525 
L 1843 4173 
L 576 3226 
L 576 3885 
L 1632 4672 
L 2419 4672 
L 2419 525 
L 3456 525 
L 3456 0 
L 576 0 
z
" transform="scale(0.015625)"/>
       </defs>
       <use xlink:href="#JetBrainsMono-Regular-30"/>
       <use xlink:href="#JetBrainsMono-Regular-33" transform="translate(59.999985 0)"/>
       <use xlink:href="#JetBrainsMono-Regular-2f" transform="translate(119.999969 0)"/>
       <use xlink:href="#JetBrainsMono-Regular-33" transform="translate(179.999954 0)"/>
       <use xlink:href="#JetBrainsMono-Regular-31" transform="translate(239.999939 0)"/>
      </g>
     </g>
    </g>
    <g id="xtick_2">
     <g id="line2d_3">
      <path d="M 177.984 324.72 
L 177.984 55.44 
" clip-path="url(#p08bde97da7)" style="fill: none; stroke-dasharray: 2.22,0.96; stroke-dashoffset: 0; stroke: #e2d5f5; stroke-opacity: 0.7; stroke-width: 0.6"/>
     </g>
     <g id="line2d_4">
      <g>
       <use xlink:href="#m1e6b8a3fe7" x="177.984" y="324.72" style="fill: #9b8bb8; stroke: #9b8bb8; stroke-width: 0.8"/>
      </g>
     </g>
     <g id="text_2">
      <!-- 04/01 -->
      <g style="fill: #9b8bb8" transform="translate(166.443619 353.301793) rotate(-30) scale(0.1 -0.1)">
       <defs>
        <path id="JetBrainsMono-Regular-34" d="M 2560 0 
L 2560 1024 
L 448 1024 
L 448 1926 
L 2150 4672 
L 2803 4672 
L 1024 1798 
L 1024 1549 
L 2560 1549 
L 2560 2688 
L 3136 2688 
L 3136 0 
L 2560 0 
z
" transform="scale(0.015625)"/>
       </defs>
       <use xlink:href="#JetBrainsMono-Regular-30"/>
       <use xlink:href="#JetBrainsMono-Regular-34" transform="translate(59.999985 0)"/>
       <use xlink:href="#JetBrainsMono-Regular-2f" transform="translate(119.999969 0)"/>
       <use xlink:href="#JetBrainsMono-Regular-30" transform="translate(179.999954 0)"/>
       <use xlink:href="#JetBrainsMono-Regular-31" transform="translate(239.999939 0)"/>
      </g>
     </g>
    </g>
    <g id="xtick_3">
     <g id="line2d_5">
      <path d="M 259.776 324.72 
L 259.776 55.44 
" clip-path="url(#p08bde97da7)" style="fill: none; stroke-dasharray: 2.22,0.96; stroke-dashoffset: 0; stroke: #e2d5f5; stroke-opacity: 0.7; stroke-width: 0.6"/>
     </g>
     <g id="line2d_6">
      <g>
       <use xlink:href="#m1e6b8a3fe7" x="259.776" y="324.72" style="fill: #9b8bb8; stroke: #9b8bb8; stroke-width: 0.8"/>
      </g>
     </g>
     <g id="text_3">
      <!-- 04/02 -->
      <g style="fill: #9b8bb8" transform="translate(248.235619 353.301793) rotate(-30) scale(0.1 -0.1)">
       <defs>
        <path id="JetBrainsMono-Regular-32" d="M 550 0 
L 550 531 
L 2106 2195 
Q 2445 2554 2585 2835 
Q 2726 3117 2726 3386 
Q 2726 3770 2505 3997 
Q 2285 4224 1907 4224 
Q 1517 4224 1289 3990 
Q 1062 3757 1062 3360 
L 486 3360 
Q 506 3994 890 4365 
Q 1274 4736 1907 4736 
Q 2554 4736 2934 4371 
Q 3315 4006 3315 3379 
Q 3315 3046 3132 2675 
Q 2950 2304 2509 1843 
L 1248 525 
L 3373 525 
L 3373 0 
L 550 0 
z
" transform="scale(0.015625)"/>
       </defs>
       <use xlink:href="#JetBrainsMono-Regular-30"/>
       <use xlink:href="#JetBrainsMono-Regular-34" transform="translate(59.999985 0)"/>
       <use xlink:href="#JetBrainsMono-Regular-2f" transform="translate(119.999969 0)"/>
       <use xlink:href="#JetBrainsMono-Regular-30" transform="translate(179.999954 0)"/>
       <use xlink:href="#JetBrainsMono-Regular-32" transform="translate(239.999939 0)"/>
      </g>
     </g>
    </g>
    <g id="xtick_4">
     <g id="line2d_7">
      <path d="M 341.568 324.72 
L 341.568 55.44 
" clip-path="url(#p08bde97da7)" style="fill: none; stroke-dasharray: 2.22,0.96; stroke-dashoffset: 0; stroke: #e2d5f5; stroke-opacity: 0.7; stroke-width: 0.6"/>
     </g>
     <g id="line2d_8">
      <g>
       <use xlink:href="#m1e6b8a3fe7" x="341.568" y="324.72" style="fill: #9b8bb8; stroke: #9b8bb8; stroke-width: 0.8"/>
      </g>
     </g>
     <g id="text_4">
      <!-- 04/03 -->
      <g style="fill: #9b8bb8" transform="translate(330.027619 353.301793) rotate(-30) scale(0.1 -0.1)">
       <use xlink:href="#JetBrainsMono-Regular-30"/>
       <use xlink:href="#JetBrainsMono-Regular-34" transform="translate(59.999985 0)"/>
       <use xlink:href="#JetBrainsMono-Regular-2f" transform="translate(119.999969 0)"/>
       <use xlink:href="#JetBrainsMono-Regular-30" transform="translate(179.999954 0)"/>
       <use xlink:href="#JetBrainsMono-Regular-33" transform="translate(239.999939 0)"/>
      </g>
     </g>
    </g>
    <g id="xtick_5">
     <g id="line2d_9">
      <path d="M 423.36 324.72 
L 423.36 55.44 
" clip-path="url(#p08bde97da7)" style="fill: none; stroke-dasharray: 2.22,0.96; stroke-dashoffset: 0; stroke: #e2d5f5; stroke-opacity: 0.7; stroke-width: 0.6"/>
     </g>
     <g id="line2d_10">
      <g>
       <use xlink:href="#m1e6b8a3fe7" x="423.36" y="324.72" style="fill: #9b8bb8; stroke: #9b8bb8; stroke-width: 0.8"/>
      </g>
     </g>
     <g id="text_5">
      <!-- 04/04 -->
      <g style="fill: #9b8bb8" transform="translate(411.819619 353.301793) rotate(-30) scale(0.1 -0.1)">
       <use xlink:href="#JetBrainsMono-Regular-30"/>
       <use xlink:href="#JetBrainsMono-Regular-34" transform="translate(59.999985 0)"/>
       <use xlink:href="#JetBrainsMono-Regular-2f" transform="translate(119.999969 0)"/>
       <use xlink:href="#JetBrainsMono-Regular-30" transform="translate(179.999954 0)"/>
       <use xlink:href="#JetBrainsMono-Regular-34" transform="translate(239.999939 0)"/>
      </g>
     </g>
    </g>
    <g id="xtick_6">
     <g id="line2d_11">
      <path d="M 505.152 324.72 
L 505.152 55.44 
" clip-path="url(#p08bde97da7)" style="fill: none; stroke-dasharray: 2.22,0.96; stroke-dashoffset: 0; stroke: #e2d5f5; stroke-opacity: 0.7; stroke-width: 0.6"/>
     </g>
     <g id="line2d_12">
      <g>
       <use xlink:href="#m1e6b8a3fe7" x="505.152" y="324.72" style="fill: #9b8bb8; stroke: #9b8bb8; stroke-width: 0.8"/>
      </g>
     </g>
     <g id="text_6">
      <!-- 04/05 -->
      <g style="fill: #9b8bb8" transform="translate(493.611619 353.301793) rotate(-30) scale(0.1 -0.1)">
       <defs>
        <path id="JetBrainsMono-Regular-35" d="M 1882 -64 
Q 1235 -64 857 297 
Q 480 659 480 1280 
L 1056 1280 
Q 1056 896 1280 672 
Q 1504 448 1888 448 
Q 2272 448 2496 672 
Q 2720 896 2720 1280 
L 2720 1568 
Q 2720 1952 2502 2176 
Q 2285 2400 1914 2400 
L 640 2400 
L 640 4672 
L 3130 4672 
L 3130 4147 
L 1178 4147 
L 1190 2925 
L 1946 2925 
Q 2592 2925 2944 2569 
Q 3296 2214 3296 1568 
L 3296 1280 
Q 3296 659 2915 297 
Q 2534 -64 1882 -64 
z
" transform="scale(0.015625)"/>
       </defs>
       <use xlink:href="#JetBrainsMono-Regular-30"/>
       <use xlink:href="#JetBrainsMono-Regular-34" transform="translate(59.999985 0)"/>
       <use xlink:href="#JetBrainsMono-Regular-2f" transform="translate(119.999969 0)"/>
       <use xlink:href="#JetBrainsMono-Regular-30" transform="translate(179.999954 0)"/>
       <use xlink:href="#JetBrainsMono-Regular-35" transform="translate(239.999939 0)"/>
      </g>
     </g>
    </g>
   </g>
   <g id="matplotlib.axis_2">
    <g id="ytick_1">
     <g id="line2d_13">
      <path d="M 55.296 281.977143 
L 546.048 281.977143 
" clip-path="url(#p08bde97da7)" style="fill: none; stroke-dasharray: 2.22,0.96; stroke-dashoffset: 0; stroke: #e2d5f5; stroke-opacity: 0.7; stroke-width: 0.6"/>
     </g>
     <g id="line2d_14">
      <defs>
       <path id="m7657d6a3a1" d="M 0 0 
L -3.5 0 
" style="stroke: #9b8bb8; stroke-width: 0.8"/>
      </defs>
      <g>
       <use xlink:href="#m7657d6a3a1" x="55.296" y="281.977143" style="fill: #9b8bb8; stroke: #9b8bb8; stroke-width: 0.8"/>
      </g>
     </g>
     <g id="text_7">
      <!-- 200 -->
      <g style="fill: #9b8bb8" transform="translate(30.296 285.627143) scale(0.1 -0.1)">
       <use xlink:href="#JetBrainsMono-Regular-32"/>
       <use xlink:href="#JetBrainsMono-Regular-30" transform="translate(59.999985 0)"/>
       <use xlink:href="#JetBrainsMono-Regular-30" transform="translate(119.999969 0)"/>
      </g>
     </g>
    </g>
    <g id="ytick_2">
     <g id="line2d_15">
      <path d="M 55.296 228.548571 
L 546.048 228.548571 
" clip-path="url(#p08bde97da7)" style="fill: none; stroke-dasharray: 2.22,0.96; stroke-dashoffset: 0; stroke: #e2d5f5; stroke-opacity: 0.7; stroke-width: 0.6"/>
     </g>
     <g id="line2d_16">
      <g>
       <use xlink:href="#m7657d6a3a1" x="55.296" y="228.548571" style="fill: #9b8bb8; stroke: #9b8bb8; stroke-width: 0.8"/>
      </g>
     </g>
     <g id="text_8">
      <!-- 205 -->
      <g style="fill: #9b8bb8" transform="translate(30.296 232.198571) scale(0.1 -0.1)">
       <use xlink:href="#JetBrainsMono-Regular-32"/>
       <use xlink:href="#JetBrainsMono-Regular-30" transform="translate(59.999985 0)"/>
       <use xlink:href="#JetBrainsMono-Regular-35" transform="translate(119.999969 0)"/>
      </g>
     </g>
    </g>
    <g id="ytick_3">
     <g id="line2d_17">
      <path d="M 55.296 175.12 
L 546.048 175.12 
" clip-path="url(#p08bde97da7)" style="fill: none; stroke-dasharray: 2.22,0.96; stroke-dashoffset: 0; stroke: #e2d5f5; stroke-opacity: 0.7; stroke-width: 0.6"/>
     </g>
     <g id="line2d_18">
      <g>
       <use xlink:href="#m7657d6a3a1" x="55.296" y="175.12" style="fill: #9b8bb8; stroke: #9b8bb8; stroke-width: 0.8"/>
      </g>
     </g>
     <g id="text_9">
      <!-- 210 -->
      <g style="fill: #9b8bb8" transform="translate(30.296 178.77) scale(0.1 -0.1)">
       <use xlink:href="#JetBrainsMono-Regular-32"/>
       <use xlink:href="#JetBrainsMono-Regular-31" transform="translate(59.999985 0)"/>
       <use xlink:href="#JetBrainsMono-Regular-30" transform="translate(119.999969 0)"/>
      </g>
     </g>
    </g>
    <g id="ytick_4">
     <g id="line2d_19">
      <path d="M 55.296 121.691429 
L 546.048 121.691429 
" clip-path="url(#p08bde97da7)" style="fill: none; stroke-dasharray: 2.22,0.96; stroke-dashoffset: 0; stroke: #e2d5f5; stroke-opacity: 0.7; stroke-width: 0.6"/>
     </g>
     <g id="line2d_20">
      <g>
       <use xlink:href="#m7657d6a3a1" x="55.296" y="121.691429" style="fill: #9b8bb8; stroke: #9b8bb8; stroke-width: 0.8"/>
      </g>
     </g>
     <g id="text_10">
      <!-- 215 -->
      <g style="fill: #9b8bb8" transform="translate(30.296 125.341429) scale(0.1 -0.1)">
       <use xlink:href="#JetBrainsMono-Regular-32"/>
       <use xlink:href="#JetBrainsMono-Regular-31" transform="translate(59.999985 0)"/>
       <use xlink:href="#JetBrainsMono-Regular-35" transform="translate(119.999969 0)"/>
      </g>
     </g>
    </g>
    <g id="ytick_5">
     <g id="line2d_21">
      <path d="M 55.296 68.262857 
L 546.048 68.262857 
" clip-path="url(#p08bde97da7)" style="fill: none; stroke-dasharray: 2.22,0.96; stroke-dashoffset: 0; stroke: #e2d5f5; stroke-opacity: 0.7; stroke-width: 0.6"/>
     </g>
     <g id="line2d_22">
      <g>
       <use xlink:href="#m7657d6a3a1" x="55.296" y="68.262857" style="fill: #9b8bb8; stroke: #9b8bb8; stroke-width: 0.8"/>
      </g>
     </g>
     <g id="text_11">
      <!-- 220 -->
      <g style="fill: #9b8bb8" transform="translate(30.296 71.912857) scale(0.1 -0.1)">
       <use xlink:href="#JetBrainsMono-Regular-32"/>
       <use xlink:href="#JetBrainsMono-Regular-32" transform="translate(59.999985 0)"/>
       <use xlink:href="#JetBrainsMono-Regular-30" transform="translate(119.999969 0)"/>
      </g>
     </g>
    </g>
    <g id="text_12">
     <!-- Rating -->
     <g style="fill: #9b8bb8" transform="translate(24.496 208.08) rotate(-90) scale(0.1 -0.1)">
      <defs>
       <path id="JetBrainsMono-Regular-52" d="M 595 0 
L 595 4672 
L 2035 4672 
Q 2451 4672 2764 4502 
Q 3078 4333 3251 4032 
Q 3424 3731 3424 3328 
Q 3424 2854 3181 2515 
Q 2938 2176 2534 2042 
L 3488 0 
L 2854 0 
L 1939 1984 
L 1165 1984 
L 1165 0 
L 595 0 
z
M 1165 2502 
L 2035 2502 
Q 2394 2502 2611 2729 
Q 2829 2957 2829 3328 
Q 2829 3706 2611 3930 
Q 2394 4154 2035 4154 
L 1165 4154 
L 1165 2502 
z
" transform="scale(0.015625)"/>
       <path id="JetBrainsMono-Regular-61" d="M 1613 -64 
Q 1069 -64 749 240 
Q 429 544 429 1037 
Q 429 1363 576 1606 
Q 723 1850 985 1987 
Q 1248 2125 1587 2125 
L 2675 2125 
L 2675 2400 
Q 2675 3085 1926 3085 
Q 1594 3085 1389 2963 
Q 1184 2842 1171 2624 
L 595 2624 
Q 627 3040 982 3312 
Q 1338 3584 1926 3584 
Q 2566 3584 2908 3277 
Q 3251 2970 3251 2419 
L 3251 0 
L 2682 0 
L 2682 640 
L 2669 640 
Q 2618 314 2342 125 
Q 2067 -64 1613 -64 
z
M 1754 422 
Q 2176 422 2425 627 
Q 2675 832 2675 1184 
L 2675 1677 
L 1651 1677 
Q 1370 1677 1194 1507 
Q 1018 1338 1018 1056 
Q 1018 762 1213 592 
Q 1408 422 1754 422 
z
" transform="scale(0.015625)"/>
       <path id="JetBrainsMono-Regular-74" d="M 2272 0 
Q 1837 0 1574 253 
Q 1312 506 1312 928 
L 1312 2995 
L 301 2995 
L 301 3520 
L 1312 3520 
L 1312 4512 
L 1888 4512 
L 1888 3520 
L 3328 3520 
L 3328 2995 
L 1888 2995 
L 1888 928 
Q 1888 749 1993 637 
Q 2099 525 2272 525 
L 3296 525 
L 3296 0 
L 2272 0 
z
" transform="scale(0.015625)"/>
       <path id="JetBrainsMono-Regular-69" d="M 544 0 
L 544 525 
L 1792 525 
L 1792 2995 
L 672 2995 
L 672 3520 
L 2368 3520 
L 2368 525 
L 3552 525 
L 3552 0 
L 544 0 
z
M 2016 4154 
Q 1805 4154 1683 4262 
Q 1562 4371 1562 4557 
Q 1562 4749 1683 4861 
Q 1805 4973 2016 4973 
Q 2227 4973 2348 4861 
Q 2470 4749 2470 4557 
Q 2470 4371 2348 4262 
Q 2227 4154 2016 4154 
z
" transform="scale(0.015625)"/>
       <path id="JetBrainsMono-Regular-6e" d="M 589 0 
L 589 3520 
L 1165 3520 
L 1165 2848 
L 1171 2848 
Q 1216 3200 1459 3392 
Q 1702 3584 2106 3584 
Q 2637 3584 2950 3257 
Q 3264 2931 3264 2368 
L 3264 0 
L 2688 0 
L 2688 2266 
Q 2688 2669 2486 2883 
Q 2285 3098 1939 3098 
Q 1581 3098 1373 2874 
Q 1165 2650 1165 2240 
L 1165 0 
L 589 0 
z
" transform="scale(0.015625)"/>
       <path id="JetBrainsMono-Regular-67" d="M 1030 -1152 
L 1030 -627 
L 2022 -627 
Q 2323 -627 2496 -457 
Q 2669 -288 2669 0 
L 2669 320 
L 2682 896 
L 2662 896 
Q 2611 582 2361 412 
Q 2112 243 1734 243 
Q 1190 243 876 588 
Q 563 934 563 1536 
L 563 2278 
Q 563 2880 876 3232 
Q 1190 3584 1734 3584 
Q 2112 3584 2361 3405 
Q 2611 3226 2662 2912 
L 2675 2912 
L 2675 3520 
L 3245 3520 
L 3245 0 
Q 3245 -531 2915 -841 
Q 2586 -1152 2016 -1152 
L 1030 -1152 
z
M 1907 723 
Q 2266 723 2470 947 
Q 2675 1171 2675 1568 
L 2675 2240 
Q 2675 2637 2470 2861 
Q 2266 3085 1907 3085 
Q 1542 3085 1340 2873 
Q 1139 2662 1139 2304 
L 1139 1504 
Q 1139 1146 1340 934 
Q 1542 723 1907 723 
z
" transform="scale(0.015625)"/>
      </defs>
      <use xlink:href="#JetBrainsMono-Regular-52"/>
      <use xlink:href="#JetBrainsMono-Regular-61" transform="translate(59.999985 0)"/>
      <use xlink:href="#JetBrainsMono-Regular-74" transform="translate(119.999969 0)"/>
      <use xlink:href="#JetBrainsMono-Regular-69" transform="translate(179.999954 0)"/>
      <use xlink:href="#JetBrainsMono-Regular-6e" transform="translate(239.999939 0)"/>
      <use xlink:href="#JetBrainsMono-Regular-67" transform="translate(299.999924 0)"/>
     </g>
    </g>
   </g>
   <g id="patch_3">
    <path d="M 55.296 324.72 
L 55.296 55.44 
" style="fill: none; stroke: #d8c8ef; stroke-width: 0.8; stroke-linejoin: miter; stroke-linecap: square"/>
   </g>
   <g id="patch_4">
    <path d="M 55.296 324.72 
L 546.048 324.72 
" style="fill: none; stroke: #d8c8ef; stroke-width: 0.8; stroke-linejoin: miter; stroke-linecap: square"/>
   </g>
   <g id="FillBetweenPolyCollection_1">
    <defs>
     <path id="m8ecf8e6bcf" d="M 96.192 -71.28 
L 96.192 -124.708571 
L 97.559759 -126.179878 
L 98.927518 -127.57675 
L 100.295278 -128.900455 
L 101.663037 -130.152258 
L 103.030796 -131.333425 
L 104.398555 -132.445221 
L 105.766314 -133.488914 
L 107.134074 -134.465768 
L 108.501833 -135.377049 
L 109.869592 -136.224023 
L 111.237351 -137.007957 
L 112.60511 -137.730116 
L 113.97287 -138.391766 
L 115.340629 -138.994173 
L 116.708388 -139.538602 
L 118.076147 -140.02632 
L 119.443906 -140.458593 
L 120.811666 -140.836686 
L 122.179425 -141.161865 
L 123.547184 -141.435396 
L 124.914943 -141.658545 
L 126.282702 -141.832578 
L 127.650462 -141.958761 
L 129.018221 -142.03836 
L 130.38598 -142.07264 
L 131.753739 -142.062867 
L 133.121498 -142.010308 
L 134.489258 -141.916228 
L 135.857017 -141.781892 
L 137.224776 -141.608568 
L 138.592535 -141.397521 
L 139.960294 -141.150016 
L 141.328054 -140.86732 
L 142.695813 -140.550698 
L 144.063572 -140.201417 
L 145.431331 -139.820741 
L 146.79909 -139.409938 
L 148.166849 -138.970273 
L 149.534609 -138.503012 
L 150.902368 -138.00942 
L 152.270127 -137.490764 
L 153.637886 -136.948309 
L 155.005645 -136.383322 
L 156.373405 -135.797068 
L 157.741164 -135.190813 
L 159.108923 -134.565823 
L 160.476682 -133.923364 
L 161.844441 -133.264701 
L 163.212201 -132.591101 
L 164.57996 -131.90383 
L 165.947719 -131.204153 
L 167.315478 -130.493337 
L 168.683237 -129.772646 
L 170.050997 -129.043348 
L 171.418756 -128.306707 
L 172.786515 -127.56399 
L 174.154274 -126.816463 
L 175.522033 -126.065392 
L 176.889793 -125.312041 
L 178.257552 -124.557679 
L 179.625311 -123.803569 
L 180.99307 -123.050978 
L 182.360829 -122.301173 
L 183.728589 -121.555418 
L 185.096348 -120.814979 
L 186.464107 -120.081124 
L 187.831866 -119.355117 
L 189.199625 -118.638224 
L 190.567385 -117.931711 
L 191.935144 -117.236845 
L 193.302903 -116.55489 
L 194.670662 -115.887113 
L 196.038421 -115.23478 
L 197.406181 -114.599157 
L 198.77394 -113.981509 
L 200.141699 -113.383103 
L 201.509458 -112.805203 
L 202.877217 -112.249077 
L 204.244977 -111.71599 
L 205.612736 -111.207208 
L 206.980495 -110.723996 
L 208.348254 -110.267621 
L 209.716013 -109.839349 
L 211.083773 -109.440445 
L 212.451532 -109.072176 
L 213.819291 -108.735806 
L 215.18705 -108.432603 
L 216.554809 -108.163831 
L 217.922569 -107.930757 
L 219.290328 -107.734647 
L 220.658087 -107.576767 
L 222.025846 -107.458382 
L 223.393605 -107.380758 
L 224.761365 -107.345162 
L 226.129124 -107.352858 
L 227.496883 -107.405114 
L 228.864642 -107.503194 
L 230.232401 -107.648365 
L 231.600161 -107.841893 
L 232.96792 -108.085043 
L 234.335679 -108.379081 
L 235.703438 -108.725274 
L 237.071197 -109.124887 
L 238.438957 -109.579186 
L 239.806716 -110.089436 
L 241.174475 -110.656905 
L 242.542234 -111.282857 
L 243.909993 -111.968558 
L 245.277753 -112.715275 
L 246.645512 -113.524273 
L 248.013271 -114.396819 
L 249.38103 -115.334177 
L 250.748789 -116.337615 
L 252.116548 -117.408397 
L 253.484308 -118.547789 
L 254.852067 -119.757059 
L 256.219826 -121.03747 
L 257.587585 -122.39029 
L 258.955344 -123.816785 
L 260.323104 -125.31818 
L 261.690863 -126.894168 
L 263.058622 -128.542452 
L 264.426381 -130.260599 
L 265.79414 -132.046177 
L 267.1619 -133.896755 
L 268.529659 -135.8099 
L 269.897418 -137.783182 
L 271.265177 -139.814167 
L 272.632936 -141.900425 
L 274.000696 -144.039524 
L 275.368455 -146.229031 
L 276.736214 -148.466515 
L 278.103973 -150.749543 
L 279.471732 -153.075685 
L 280.839492 -155.442509 
L 282.207251 -157.847582 
L 283.57501 -160.288473 
L 284.942769 -162.762749 
L 286.310528 -165.26798 
L 287.678288 -167.801733 
L 289.046047 -170.361576 
L 290.413806 -172.945078 
L 291.781565 -175.549807 
L 293.149324 -178.173331 
L 294.517084 -180.813218 
L 295.884843 -183.467036 
L 297.252602 -186.132354 
L 298.620361 -188.806739 
L 299.98812 -191.487761 
L 301.35588 -194.172986 
L 302.723639 -196.859984 
L 304.091398 -199.546322 
L 305.459157 -202.229569 
L 306.826916 -204.907292 
L 308.194676 -207.57706 
L 309.562435 -210.236442 
L 310.930194 -212.883005 
L 312.297953 -215.514317 
L 313.665712 -218.127947 
L 315.033472 -220.721463 
L 316.401231 -223.292433 
L 317.76899 -225.838425 
L 319.136749 -228.357007 
L 320.504508 -230.845748 
L 321.872268 -233.302216 
L 323.240027 -235.723978 
L 324.607786 -238.108604 
L 325.975545 -240.453661 
L 327.343304 -242.756717 
L 328.711064 -245.015341 
L 330.078823 -247.227101 
L 331.446582 -249.389565 
L 332.814341 -251.500301 
L 334.1821 -253.556877 
L 335.54986 -255.556862 
L 336.917619 -257.497824 
L 338.285378 -259.37733 
L 339.653137 -261.19295 
L 341.020896 -262.942251 
L 342.388656 -264.622934 
L 343.756415 -266.234693 
L 345.124174 -267.778754 
L 346.491933 -269.256383 
L 347.859692 -270.668846 
L 349.227452 -272.017409 
L 350.595211 -273.303337 
L 351.96297 -274.527897 
L 353.330729 -275.692354 
L 354.698488 -276.797975 
L 356.066247 -277.846024 
L 357.434007 -278.837769 
L 358.801766 -279.774474 
L 360.169525 -280.657406 
L 361.537284 -281.487831 
L 362.905043 -282.267015 
L 364.272803 -282.996223 
L 365.640562 -283.676721 
L 367.008321 -284.309775 
L 368.37608 -284.896651 
L 369.743839 -285.438616 
L 371.111599 -285.936934 
L 372.479358 -286.392872 
L 373.847117 -286.807695 
L 375.214876 -287.18267 
L 376.582635 -287.519062 
L 377.950395 -287.818137 
L 379.318154 -288.081162 
L 380.685913 -288.309401 
L 382.053672 -288.504121 
L 383.421431 -288.666588 
L 384.789191 -288.798068 
L 386.15695 -288.899826 
L 387.524709 -288.973128 
L 388.892468 -289.019241 
L 390.260227 -289.03943 
L 391.627987 -289.034961 
L 392.995746 -289.007099 
L 394.363505 -288.957112 
L 395.731264 -288.886264 
L 397.099023 -288.795821 
L 398.466783 -288.68705 
L 399.834542 -288.561217 
L 401.202301 -288.419586 
L 402.57006 -288.263424 
L 403.937819 -288.093998 
L 405.305579 -287.912572 
L 406.673338 -287.720413 
L 408.041097 -287.518786 
L 409.408856 -287.308958 
L 410.776615 -287.092194 
L 412.144375 -286.86976 
L 413.512134 -286.642923 
L 414.879893 -286.412947 
L 416.247652 -286.181099 
L 417.615411 -285.948645 
L 418.983171 -285.716851 
L 420.35093 -285.486982 
L 421.718689 -285.260304 
L 423.086448 -285.038084 
L 424.454207 -284.821586 
L 425.821967 -284.612078 
L 427.189726 -284.410824 
L 428.557485 -284.219092 
L 429.925244 -284.038145 
L 431.293003 -283.869252 
L 432.660763 -283.713677 
L 434.028522 -283.572686 
L 435.396281 -283.447545 
L 436.76404 -283.33952 
L 438.131799 -283.249877 
L 439.499559 -283.179882 
L 440.867318 -283.1308 
L 442.235077 -283.103898 
L 443.602836 -283.100442 
L 444.970595 -283.121697 
L 446.338355 -283.168929 
L 447.706114 -283.243404 
L 449.073873 -283.346388 
L 450.441632 -283.479146 
L 451.809391 -283.642946 
L 453.177151 -283.839052 
L 454.54491 -284.06873 
L 455.912669 -284.333247 
L 457.280428 -284.633868 
L 458.648187 -284.971859 
L 460.015946 -285.348487 
L 461.383706 -285.765015 
L 462.751465 -286.222712 
L 464.119224 -286.722842 
L 465.486983 -287.266672 
L 466.854742 -287.855467 
L 468.222502 -288.490494 
L 469.590261 -289.173017 
L 470.95802 -289.904304 
L 472.325779 -290.685619 
L 473.693538 -291.51823 
L 475.061298 -292.4034 
L 476.429057 -293.342398 
L 477.796816 -294.336488 
L 479.164575 -295.386936 
L 480.532334 -296.495008 
L 481.900094 -297.66197 
L 483.267853 -298.889088 
L 484.635612 -300.177628 
L 486.003371 -301.528856 
L 487.37113 -302.944037 
L 488.73889 -304.424438 
L 490.106649 -305.971324 
L 491.474408 -307.585961 
L 492.842167 -309.269616 
L 494.209926 -311.023553 
L 495.577686 -312.849039 
L 496.945445 -314.74734 
L 498.313204 -316.719721 
L 499.680963 -318.767449 
L 501.048722 -320.891789 
L 502.416482 -323.094008 
L 503.784241 -325.37537 
L 505.152 -327.737143 
L 505.152 -71.28 
L 505.152 -71.28 
L 503.784241 -71.28 
L 502.416482 -71.28 
L 501.048722 -71.28 
L 499.680963 -71.28 
L 498.313204 -71.28 
L 496.945445 -71.28 
L 495.577686 -71.28 
L 494.209926 -71.28 
L 492.842167 -71.28 
L 491.474408 -71.28 
L 490.106649 -71.28 
L 488.73889 -71.28 
L 487.37113 -71.28 
L 486.003371 -71.28 
L 484.635612 -71.28 
L 483.267853 -71.28 
L 481.900094 -71.28 
L 480.532334 -71.28 
L 479.164575 -71.28 
L 477.796816 -71.28 
L 476.429057 -71.28 
L 475.061298 -71.28 
L 473.693538 -71.28 
L 472.325779 -71.28 
L 470.95802 -71.28 
L 469.590261 -71.28 
L 468.222502 -71.28 
L 466.854742 -71.28 
L 465.486983 -71.28 
L 464.119224 -71.28 
L 462.751465 -71.28 
L 461.383706 -71.28 
L 460.015946 -71.28 
L 458.648187 -71.28 
L 457.280428 -71.28 
L 455.912669 -71.28 
L 454.54491 -71.28 
L 453.177151 -71.28 
L 451.809391 -71.28 
L 450.441632 -71.28 
L 449.073873 -71.28 
L 447.706114 -71.28 
L 446.338355 -71.28 
L 444.970595 -71.28 
L 443.602836 -71.28 
L 442.235077 -71.28 
L 440.867318 -71.28 
L 439.499559 -71.28 
L 438.131799 -71.28 
L 436.76404 -71.28 
L 435.396281 -71.28 
L 434.028522 -71.28 
L 432.660763 -71.28 
L 431.293003 -71.28 
L 429.925244 -71.28 
L 428.557485 -71.28 
L 427.189726 -71.28 
L 425.821967 -71.28 
L 424.454207 -71.28 
L 423.086448 -71.28 
L 421.718689 -71.28 
L 420.35093 -71.28 
L 418.983171 -71.28 
L 417.615411 -71.28 
L 416.247652 -71.28 
L 414.879893 -71.28 
L 413.512134 -71.28 
L 412.144375 -71.28 
L 410.776615 -71.28 
L 409.408856 -71.28 
L 408.041097 -71.28 
L 406.673338 -71.28 
L 405.305579 -71.28 
L 403.937819 -71.28 
L 402.57006 -71.28 
L 401.202301 -71.28 
L 399.834542 -71.28 
L 398.466783 -71.28 
L 397.099023 -71.28 
L 395.731264 -71.28 
L 394.363505 -71.28 
L 392.995746 -71.28 
L 391.627987 -71.28 
L 390.260227 -71.28 
L 388.892468 -71.28 
L 387.524709 -71.28 
L 386.15695 -71.28 
L 384.789191 -71.28 
L 383.421431 -71.28 
L 382.053672 -71.28 
L 380.685913 -71.28 
L 379.318154 -71.28 
L 377.950395 -71.28 
L 376.582635 -71.28 
L 375.214876 -71.28 
L 373.847117 -71.28 
L 372.479358 -71.28 
L 371.111599 -71.28 
L 369.743839 -71.28 
L 368.37608 -71.28 
L 367.008321 -71.28 
L 365.640562 -71.28 
L 364.272803 -71.28 
L 362.905043 -71.28 
L 361.537284 -71.28 
L 360.169525 -71.28 
L 358.801766 -71.28 
L 357.434007 -71.28 
L 356.066247 -71.28 
L 354.698488 -71.28 
L 353.330729 -71.28 
L 351.96297 -71.28 
L 350.595211 -71.28 
L 349.227452 -71.28 
L 347.859692 -71.28 
L 346.491933 -71.28 
L 345.124174 -71.28 
L 343.756415 -71.28 
L 342.388656 -71.28 
L 341.020896 -71.28 
L 339.653137 -71.28 
L 338.285378 -71.28 
L 336.917619 -71.28 
L 335.54986 -71.28 
L 334.1821 -71.28 
L 332.814341 -71.28 
L 331.446582 -71.28 
L 330.078823 -71.28 
L 328.711064 -71.28 
L 327.343304 -71.28 
L 325.975545 -71.28 
L 324.607786 -71.28 
L 323.240027 -71.28 
L 321.872268 -71.28 
L 320.504508 -71.28 
L 319.136749 -71.28 
L 317.76899 -71.28 
L 316.401231 -71.28 
L 315.033472 -71.28 
L 313.665712 -71.28 
L 312.297953 -71.28 
L 310.930194 -71.28 
L 309.562435 -71.28 
L 308.194676 -71.28 
L 306.826916 -71.28 
L 305.459157 -71.28 
L 304.091398 -71.28 
L 302.723639 -71.28 
L 301.35588 -71.28 
L 299.98812 -71.28 
L 298.620361 -71.28 
L 297.252602 -71.28 
L 295.884843 -71.28 
L 294.517084 -71.28 
L 293.149324 -71.28 
L 291.781565 -71.28 
L 290.413806 -71.28 
L 289.046047 -71.28 
L 287.678288 -71.28 
L 286.310528 -71.28 
L 284.942769 -71.28 
L 283.57501 -71.28 
L 282.207251 -71.28 
L 280.839492 -71.28 
L 279.471732 -71.28 
L 278.103973 -71.28 
L 276.736214 -71.28 
L 275.368455 -71.28 
L 274.000696 -71.28 
L 272.632936 -71.28 
L 271.265177 -71.28 
L 269.897418 -71.28 
L 268.529659 -71.28 
L 267.1619 -71.28 
L 265.79414 -71.28 
L 264.426381 -71.28 
L 263.058622 -71.28 
L 261.690863 -71.28 
L 260.323104 -71.28 
L 258.955344 -71.28 
L 257.587585 -71.28 
L 256.219826 -71.28 
L 254.852067 -71.28 
L 253.484308 -71.28 
L 252.116548 -71.28 
L 250.748789 -71.28 
L 249.38103 -71.28 
L 248.013271 -71.28 
L 246.645512 -71.28 
L 245.277753 -71.28 
L 243.909993 -71.28 
L 242.542234 -71.28 
L 241.174475 -71.28 
L 239.806716 -71.28 
L 238.438957 -71.28 
L 237.071197 -71.28 
L 235.703438 -71.28 
L 234.335679 -71.28 
L 232.96792 -71.28 
L 231.600161 -71.28 
L 230.232401 -71.28 
L 228.864642 -71.28 
L 227.496883 -71.28 
L 226.129124 -71.28 
L 224.761365 -71.28 
L 223.393605 -71.28 
L 222.025846 -71.28 
L 220.658087 -71.28 
L 219.290328 -71.28 
L 217.922569 -71.28 
L 216.554809 -71.28 
L 215.18705 -71.28 
L 213.819291 -71.28 
L 212.451532 -71.28 
L 211.083773 -71.28 
L 209.716013 -71.28 
L 208.348254 -71.28 
L 206.980495 -71.28 
L 205.612736 -71.28 
L 204.244977 -71.28 
L 202.877217 -71.28 
L 201.509458 -71.28 
L 200.141699 -71.28 
L 198.77394 -71.28 
L 197.406181 -71.28 
L 196.038421 -71.28 
L 194.670662 -71.28 
L 193.302903 -71.28 
L 191.935144 -71.28 
L 190.567385 -71.28 
L 189.199625 -71.28 
L 187.831866 -71.28 
L 186.464107 -71.28 
L 185.096348 -71.28 
L 183.728589 -71.28 
L 182.360829 -71.28 
L 180.99307 -71.28 
L 179.625311 -71.28 
L 178.257552 -71.28 
L 176.889793 -71.28 
L 175.522033 -71.28 
L 174.154274 -71.28 
L 172.786515 -71.28 
L 171.418756 -71.28 
L 170.050997 -71.28 
L 168.683237 -71.28 
L 167.315478 -71.28 
L 165.947719 -71.28 
L 164.57996 -71.28 
L 163.212201 -71.28 
L 161.844441 -71.28 
L 160.476682 -71.28 
L 159.108923 -71.28 
L 157.741164 -71.28 
L 156.373405 -71.28 
L 155.005645 -71.28 
L 153.637886 -71.28 
L 152.270127 -71.28 
L 150.902368 -71.28 
L 149.534609 -71.28 
L 148.166849 -71.28 
L 146.79909 -71.28 
L 145.431331 -71.28 
L 144.063572 -71.28 
L 142.695813 -71.28 
L 141.328054 -71.28 
L 139.960294 -71.28 
L 138.592535 -71.28 
L 137.224776 -71.28 
L 135.857017 -71.28 
L 134.489258 -71.28 
L 133.121498 -71.28 
L 131.753739 -71.28 
L 130.38598 -71.28 
L 129.018221 -71.28 
L 127.650462 -71.28 
L 126.282702 -71.28 
L 124.914943 -71.28 
L 123.547184 -71.28 
L 122.179425 -71.28 
L 120.811666 -71.28 
L 119.443906 -71.28 
L 118.076147 -71.28 
L 116.708388 -71.28 
L 115.340629 -71.28 
L 113.97287 -71.28 
L 112.60511 -71.28 
L 111.237351 -71.28 
L 109.869592 -71.28 
L 108.501833 -71.28 
L 107.134074 -71.28 
L 105.766314 -71.28 
L 104.398555 -71.28 
L 103.030796 -71.28 
L 101.663037 -71.28 
L 100.295278 -71.28 
L 98.927518 -71.28 
L 97.559759 -71.28 
L 96.192 -71.28 
z
" style="stroke: #8b5cf6; stroke-opacity: 0.12"/>
    </defs>
    <g clip-path="url(#p08bde97da7)">
     <use xlink:href="#m8ecf8e6bcf" x="0" y="396" style="fill: #8b5cf6; fill-opacity: 0.12; stroke: #8b5cf6; stroke-opacity: 0.12"/>
    </g>
   </g>
   <g id="text_13">
    <!-- 220 -->
    <g style="fill: #8b5cf6" transform="translate(508.152 65.262857) scale(0.12 -0.12)">
     <defs>
      <path id="JetBrainsMono-Bold-32" d="M 474 0 
L 474 723 
L 2157 2445 
Q 2566 2874 2566 3315 
Q 2566 3629 2384 3824 
Q 2202 4019 1894 4019 
Q 1581 4019 1392 3817 
Q 1203 3616 1203 3283 
L 403 3283 
Q 403 3718 595 4044 
Q 787 4371 1126 4553 
Q 1466 4736 1914 4736 
Q 2355 4736 2688 4563 
Q 3021 4390 3203 4080 
Q 3386 3770 3386 3354 
Q 3386 2995 3216 2636 
Q 3046 2278 2656 1894 
L 1478 723 
L 3443 723 
L 3443 0 
L 474 0 
z
" transform="scale(0.015625)"/>
      <path id="JetBrainsMono-Bold-30" d="M 1920 -64 
Q 1466 -64 1133 109 
Q 800 282 617 595 
Q 435 909 435 1331 
L 435 3341 
Q 435 3763 617 4076 
Q 800 4390 1133 4563 
Q 1466 4736 1920 4736 
Q 2374 4736 2707 4563 
Q 3040 4390 3222 4076 
Q 3405 3763 3405 3341 
L 3405 1331 
Q 3405 909 3222 595 
Q 3040 282 2707 109 
Q 2374 -64 1920 -64 
z
M 1920 627 
Q 2253 627 2451 819 
Q 2650 1011 2650 1331 
L 2650 3341 
Q 2650 3661 2454 3853 
Q 2259 4045 1920 4045 
Q 1581 4045 1385 3853 
Q 1190 3661 1190 3341 
L 1190 1331 
Q 1190 1011 1388 819 
Q 1587 627 1920 627 
z
M 1920 1952 
Q 1728 1952 1613 2057 
Q 1498 2163 1498 2355 
Q 1498 2547 1613 2646 
Q 1728 2746 1920 2746 
Q 2112 2746 2227 2646 
Q 2342 2547 2342 2355 
Q 2342 2163 2227 2057 
Q 2112 1952 1920 1952 
z
" transform="scale(0.015625)"/>
     </defs>
     <use xlink:href="#JetBrainsMono-Bold-32"/>
     <use xlink:href="#JetBrainsMono-Bold-32" transform="translate(59.999985 0)"/>
     <use xlink:href="#JetBrainsMono-Bold-30" transform="translate(119.999969 0)"/>
    </g>
   </g>
   <g id="text_14">
    <!-- Rating History -->
    <g style="fill: #8b5cf6" transform="translate(55.296 50.44) scale(0.17 -0.17)">
     <defs>
      <path id="JetBrainsMono-Bold-52" d="M 493 0 
L 493 4672 
L 1965 4672 
Q 2432 4672 2774 4499 
Q 3117 4326 3309 4016 
Q 3501 3706 3501 3283 
Q 3501 2816 3270 2467 
Q 3040 2118 2650 1971 
L 3565 0 
L 2688 0 
L 1869 1856 
L 1286 1856 
L 1286 0 
L 493 0 
z
M 1286 2560 
L 1965 2560 
Q 2304 2560 2496 2745 
Q 2688 2931 2688 3258 
Q 2688 3584 2493 3776 
Q 2298 3968 1965 3968 
L 1286 3968 
L 1286 2560 
z
" transform="scale(0.015625)"/>
      <path id="JetBrainsMono-Bold-61" d="M 1530 -64 
Q 992 -64 681 240 
Q 371 544 371 1037 
Q 371 1549 723 1853 
Q 1075 2157 1690 2157 
L 2547 2157 
L 2547 2406 
Q 2547 2938 1926 2938 
Q 1645 2938 1478 2829 
Q 1312 2720 1293 2522 
L 525 2522 
Q 550 2995 924 3289 
Q 1299 3584 1933 3584 
Q 2605 3584 2976 3270 
Q 3347 2957 3347 2387 
L 3347 0 
L 2566 0 
L 2566 659 
Q 2522 320 2246 128 
Q 1971 -64 1530 -64 
z
M 1786 589 
Q 2138 589 2342 761 
Q 2547 934 2547 1222 
L 2547 1638 
L 1728 1638 
Q 1466 1638 1312 1491 
Q 1158 1344 1158 1114 
Q 1158 877 1321 733 
Q 1485 589 1786 589 
z
" transform="scale(0.015625)"/>
      <path id="JetBrainsMono-Bold-74" d="M 2272 0 
Q 1779 0 1488 285 
Q 1197 570 1197 1056 
L 1197 2797 
L 224 2797 
L 224 3520 
L 1197 3520 
L 1197 4512 
L 2003 4512 
L 2003 3520 
L 3405 3520 
L 3405 2797 
L 2003 2797 
L 2003 1075 
Q 2003 922 2089 822 
Q 2176 723 2330 723 
L 3373 723 
L 3373 0 
L 2272 0 
z
" transform="scale(0.015625)"/>
      <path id="JetBrainsMono-Bold-69" d="M 486 0 
L 486 723 
L 1690 723 
L 1690 2797 
L 614 2797 
L 614 3520 
L 2490 3520 
L 2490 723 
L 3571 723 
L 3571 0 
L 486 0 
z
M 2032 4109 
Q 1789 4109 1648 4233 
Q 1507 4358 1507 4570 
Q 1507 4781 1648 4905 
Q 1789 5030 2032 5030 
Q 2275 5030 2416 4905 
Q 2557 4781 2557 4570 
Q 2557 4358 2416 4233 
Q 2275 4109 2032 4109 
z
" transform="scale(0.015625)"/>
      <path id="JetBrainsMono-Bold-6e" d="M 493 0 
L 493 3520 
L 1274 3520 
L 1274 2861 
Q 1338 3194 1587 3389 
Q 1837 3584 2221 3584 
Q 2739 3584 3049 3238 
Q 3360 2893 3360 2310 
L 3360 0 
L 2560 0 
L 2560 2214 
Q 2560 2541 2390 2717 
Q 2221 2893 1933 2893 
Q 1632 2893 1462 2713 
Q 1293 2534 1293 2202 
L 1293 0 
L 493 0 
z
" transform="scale(0.015625)"/>
      <path id="JetBrainsMono-Bold-67" d="M 973 -1152 
L 973 -486 
L 1965 -486 
Q 2246 -486 2400 -336 
Q 2554 -186 2554 70 
L 2554 282 
L 2566 832 
Q 2458 538 2218 374 
Q 1978 211 1632 211 
Q 1094 211 777 572 
Q 461 934 461 1555 
L 461 2240 
Q 461 2854 777 3219 
Q 1094 3584 1632 3584 
Q 1978 3584 2218 3421 
Q 2458 3258 2566 2957 
L 2566 3520 
L 3347 3520 
L 3347 51 
Q 3347 -506 2979 -829 
Q 2611 -1152 1978 -1152 
L 973 -1152 
z
M 1901 896 
Q 2208 896 2377 1078 
Q 2547 1261 2547 1587 
L 2547 2202 
Q 2547 2528 2377 2710 
Q 2208 2893 1901 2893 
Q 1594 2893 1427 2717 
Q 1261 2541 1261 2227 
L 1261 1562 
Q 1261 1248 1427 1072 
Q 1594 896 1901 896 
z
" transform="scale(0.015625)"/>
      <path id="JetBrainsMono-Bold-20" transform="scale(0.015625)"/>
      <path id="JetBrainsMono-Bold-48" d="M 493 0 
L 493 4672 
L 1293 4672 
L 1293 2778 
L 2547 2778 
L 2547 4672 
L 3347 4672 
L 3347 0 
L 2547 0 
L 2547 2054 
L 1293 2054 
L 1293 0 
L 493 0 
z
" transform="scale(0.015625)"/>
      <path id="JetBrainsMono-Bold-73" d="M 1773 -58 
Q 1146 -58 781 227 
Q 416 512 416 998 
L 1203 998 
Q 1203 794 1353 685 
Q 1504 576 1773 576 
L 2054 576 
Q 2342 576 2499 685 
Q 2656 794 2656 998 
Q 2656 1190 2547 1283 
Q 2438 1376 2214 1408 
L 1338 1523 
Q 915 1581 688 1849 
Q 461 2118 461 2547 
Q 461 3046 793 3312 
Q 1126 3578 1754 3578 
L 2048 3578 
Q 2637 3578 2995 3309 
Q 3354 3040 3366 2592 
L 2573 2592 
Q 2566 2758 2425 2857 
Q 2285 2957 2048 2957 
L 1754 2957 
Q 1498 2957 1363 2851 
Q 1229 2746 1229 2566 
Q 1229 2406 1328 2329 
Q 1427 2253 1619 2234 
L 2445 2118 
Q 2931 2061 3177 1776 
Q 3424 1491 3424 1011 
Q 3424 499 3075 220 
Q 2726 -58 2054 -58 
L 1773 -58 
z
" transform="scale(0.015625)"/>
      <path id="JetBrainsMono-Bold-6f" d="M 1920 -58 
Q 1242 -58 845 323 
Q 448 704 448 1350 
L 448 2170 
Q 448 2822 845 3200 
Q 1242 3578 1920 3578 
Q 2598 3578 2995 3200 
Q 3392 2822 3392 2170 
L 3392 1350 
Q 3392 704 2995 323 
Q 2598 -58 1920 -58 
z
M 1920 640 
Q 2240 640 2416 816 
Q 2592 992 2592 1325 
L 2592 2195 
Q 2592 2528 2416 2704 
Q 2240 2880 1920 2880 
Q 1600 2880 1424 2704 
Q 1248 2528 1248 2195 
L 1248 1325 
Q 1248 992 1424 816 
Q 1600 640 1920 640 
z
" transform="scale(0.015625)"/>
      <path id="JetBrainsMono-Bold-72" d="M 621 0 
L 621 3520 
L 1402 3520 
L 1402 2835 
Q 1466 3181 1718 3382 
Q 1971 3584 2374 3584 
Q 2912 3584 3213 3238 
Q 3514 2893 3514 2272 
L 3514 1939 
L 2714 1939 
L 2714 2234 
Q 2714 2554 2547 2723 
Q 2381 2893 2074 2893 
Q 1754 2893 1587 2701 
Q 1421 2509 1421 2157 
L 1421 0 
L 621 0 
z
" transform="scale(0.015625)"/>
      <path id="JetBrainsMono-Bold-79" d="M 1056 -1152 
L 1555 192 
L 230 3520 
L 1075 3520 
L 1754 1722 
Q 1811 1562 1868 1373 
Q 1926 1184 1952 1024 
Q 1971 1184 2025 1373 
Q 2080 1562 2138 1722 
L 2765 3520 
L 3610 3520 
L 1894 -1152 
L 1056 -1152 
z
" transform="scale(0.015625)"/>
     </defs>
     <use xlink:href="#JetBrainsMono-Bold-52"/>
     <use xlink:href="#JetBrainsMono-Bold-61" transform="translate(59.999985 0)"/>
     <use xlink:href="#JetBrainsMono-Bold-74" transform="translate(119.999969 0)"/>
     <use xlink:href="#JetBrainsMono-Bold-69" transform="translate(179.999954 0)"/>
     <use xlink:href="#JetBrainsMono-Bold-6e" transform="translate(239.999939 0)"/>
     <use xlink:href="#JetBrainsMono-Bold-67" transform="translate(299.999924 0)"/>
     <use xlink:href="#JetBrainsMono-Bold-20" transform="translate(359.999908 0)"/>
     <use xlink:href="#JetBrainsMono-Bold-48" transform="translate(419.999893 0)"/>
     <use xlink:href="#JetBrainsMono-Bold-69" transform="translate(479.999878 0)"/>
     <use xlink:href="#JetBrainsMono-Bold-73" transform="translate(539.999863 0)"/>
     <use xlink:href="#JetBrainsMono-Bold-74" transform="translate(599.999847 0)"/>
     <use xlink:href="#JetBrainsMono-Bold-6f" transform="translate(659.999832 0)"/>
     <use xlink:href="#JetBrainsMono-Bold-72" transform="translate(719.999817 0)"/>
     <use xlink:href="#JetBrainsMono-Bold-79" transform="translate(779.999802 0)"/>
    </g>
   </g>
   <g id="line2d_23">
    <path d="M 96.192 271.291429 
L 98.927518 268.42325 
L 101.663037 265.847742 
L 104.398555 263.554779 
L 107.134074 261.534232 
L 109.869592 259.775977 
L 112.60511 258.269884 
L 115.340629 257.005827 
L 118.076147 255.97368 
L 120.811666 255.163314 
L 123.547184 254.564604 
L 126.282702 254.167422 
L 129.018221 253.96164 
L 131.753739 253.937133 
L 134.489258 254.083772 
L 137.224776 254.391432 
L 141.328054 255.13268 
L 145.431331 256.179259 
L 149.534609 257.496988 
L 153.637886 259.051691 
L 157.741164 260.809187 
L 163.212201 263.408899 
L 170.050997 266.956652 
L 194.670662 280.112887 
L 200.141699 282.616897 
L 204.244977 284.28401 
L 208.348254 285.732379 
L 212.451532 286.927824 
L 216.554809 287.836169 
L 220.658087 288.423233 
L 223.393605 288.619242 
L 226.129124 288.647142 
L 228.864642 288.496806 
L 231.600161 288.158107 
L 234.335679 287.620919 
L 237.071197 286.875113 
L 239.806716 285.910564 
L 242.542234 284.717143 
L 245.277753 283.284725 
L 248.013271 281.603181 
L 250.748789 279.662385 
L 253.484308 277.452211 
L 256.219826 274.96253 
L 258.955344 272.183215 
L 261.690863 269.105832 
L 264.426381 265.739401 
L 267.1619 262.103245 
L 271.265177 256.185833 
L 275.368455 249.770969 
L 279.471732 242.924315 
L 284.942769 233.237251 
L 290.413806 223.054922 
L 298.620361 207.193261 
L 313.665712 177.872053 
L 319.136749 167.642993 
L 324.607786 157.891396 
L 328.711064 150.984659 
L 332.814341 144.499699 
L 336.917619 138.502176 
L 339.653137 134.80705 
L 342.388656 131.377066 
L 345.124174 128.221246 
L 347.859692 125.331154 
L 350.595211 122.696663 
L 353.330729 120.307646 
L 356.066247 118.153976 
L 358.801766 116.225526 
L 361.537284 114.512169 
L 364.272803 113.003777 
L 367.008321 111.690225 
L 369.743839 110.561384 
L 372.479358 109.607128 
L 375.214876 108.81733 
L 379.318154 107.918838 
L 383.421431 107.333412 
L 387.524709 107.026872 
L 391.627987 106.965039 
L 395.731264 107.113736 
L 401.202301 107.580414 
L 406.673338 108.279587 
L 414.879893 109.587053 
L 427.189726 111.589176 
L 432.660763 112.286323 
L 438.131799 112.750123 
L 442.235077 112.896102 
L 446.338355 112.831071 
L 450.441632 112.520854 
L 454.54491 111.93127 
L 458.648187 111.028141 
L 461.383706 110.234985 
L 464.119224 109.277158 
L 466.854742 108.144533 
L 469.590261 106.826983 
L 472.325779 105.314381 
L 475.061298 103.5966 
L 477.796816 101.663512 
L 480.532334 99.504992 
L 483.267853 97.110912 
L 486.003371 94.471144 
L 488.73889 91.575562 
L 491.474408 88.414039 
L 494.209926 84.976447 
L 496.945445 81.25266 
L 499.680963 77.232551 
L 502.416482 72.905992 
L 505.152 68.262857 
L 505.152 68.262857 
" clip-path="url(#p08bde97da7)" style="fill: none; stroke: #8b5cf6; stroke-width: 1.2; stroke-linecap: round"/>
   </g>
   <g id="PathCollection_1">
    <defs>
     <path id="m83dfb0908f" d="M 0 2.236068 
C 0.593012 2.236068 1.161816 2.000462 1.581139 1.581139 
C 2.000462 1.161816 2.236068 0.593012 2.236068 0 
C 2.236068 -0.593012 2.000462 -1.161816 1.581139 -1.581139 
C 1.161816 -2.000462 0.593012 -2.236068 0 -2.236068 
C -0.593012 -2.236068 -1.161816 -2.000462 -1.581139 -1.581139 
C -2.000462 -1.161816 -2.236068 -0.593012 -2.236068 0 
C -2.236068 0.593012 -2.000462 1.161816 -1.581139 1.581139 
C -1.161816 2.000462 -0.593012 2.236068 0 2.236068 
z
" style="stroke: #ffffff; stroke-width: 0.8"/>
    </defs>
    <g clip-path="url(#p08bde97da7)">
     <use xlink:href="#m83dfb0908f" x="505.152" y="68.262857" style="fill: #8b5cf6; stroke: #ffffff; stroke-width: 0.8"/>
    </g>
   </g>
  </g>
  <g id="axes_2">
   <g id="text_15">
    <!-- Rating -->
    <g style="fill: #9b8bb8" transform="translate(565.7472 48.312) scale(0.11 -0.11)">
     <use xlink:href="#JetBrainsMono-Regular-52"/>
     <use xlink:href="#JetBrainsMono-Regular-61" transform="translate(59.999985 0)"/>
     <use xlink:href="#JetBrainsMono-Regular-74" transform="translate(119.999969 0)"/>
     <use xlink:href="#JetBrainsMono-Regular-69" transform="translate(179.999954 0)"/>
     <use xlink:href="#JetBrainsMono-Regular-6e" transform="translate(239.999939 0)"/>
     <use xlink:href="#JetBrainsMono-Regular-67" transform="translate(299.999924 0)"/>
    </g>
   </g>
   <g id="text_16">
    <!-- 220 -->
    <g style="fill: #8b5cf6" transform="translate(565.7472 81.548) scale(0.26 -0.26)">
     <use xlink:href="#JetBrainsMono-Bold-32"/>
     <use xlink:href="#JetBrainsMono-Bold-32" transform="translate(59.999985 0)"/>
     <use xlink:href="#JetBrainsMono-Bold-30" transform="translate(119.999969 0)"/>
    </g>
   </g>
   <g id="text_17">
    <!-- Rank -->
    <g style="fill: #9b8bb8" transform="translate(565.7472 119.592) scale(0.11 -0.11)">
     <defs>
      <path id="JetBrainsMono-Regular-6b" d="M 621 0 
L 621 4672 
L 1197 4672 
L 1197 2067 
L 1869 2067 
L 2854 3520 
L 3514 3520 
L 2381 1843 
L 3578 0 
L 2906 0 
L 1882 1568 
L 1197 1568 
L 1197 0 
L 621 0 
z
" transform="scale(0.015625)"/>
     </defs>
     <use xlink:href="#JetBrainsMono-Regular-52"/>
     <use xlink:href="#JetBrainsMono-Regular-61" transform="translate(59.999985 0)"/>
     <use xlink:href="#JetBrainsMono-Regular-6e" transform="translate(119.999969 0)"/>
     <use xlink:href="#JetBrainsMono-Regular-6b" transform="translate(179.999954 0)"/>
    </g>
   </g>
   <g id="text_18">
    <!-- #126,931 -->
    <g style="fill: #8b5cf6" transform="translate(565.7472 148.104) scale(0.14 -0.14)">
     <defs>
      <path id="JetBrainsMono-Bold-23" d="M 493 0 
L 710 1216 
L 224 1216 
L 224 1760 
L 800 1760 
L 998 2912 
L 448 2912 
L 448 3456 
L 1094 3456 
L 1312 4672 
L 1875 4672 
L 1658 3456 
L 2566 3456 
L 2784 4672 
L 3347 4672 
L 3130 3456 
L 3616 3456 
L 3616 2912 
L 3034 2912 
L 2835 1760 
L 3392 1760 
L 3392 1216 
L 2739 1216 
L 2528 0 
L 1965 0 
L 2182 1216 
L 1267 1216 
L 1056 0 
L 493 0 
z
M 1363 1760 
L 2272 1760 
L 2470 2912 
L 1562 2912 
L 1363 1760 
z
" transform="scale(0.015625)"/>
      <path id="JetBrainsMono-Bold-31" d="M 538 0 
L 538 723 
L 1754 723 
L 1754 3898 
L 531 3002 
L 531 3898 
L 1606 4672 
L 2554 4672 
L 2554 723 
L 3533 723 
L 3533 0 
L 538 0 
z
" transform="scale(0.015625)"/>
      <path id="JetBrainsMono-Bold-36" d="M 1920 -64 
Q 1440 -64 1085 128 
Q 730 320 534 669 
Q 339 1018 339 1485 
Q 339 1760 457 2115 
Q 576 2470 781 2835 
L 1792 4672 
L 2701 4672 
L 1498 2611 
L 1523 2598 
Q 1619 2733 1804 2809 
Q 1990 2886 2208 2886 
Q 2598 2886 2889 2710 
Q 3181 2534 3341 2214 
Q 3501 1894 3501 1459 
Q 3501 998 3305 656 
Q 3110 314 2755 125 
Q 2400 -64 1920 -64 
z
M 1920 614 
Q 2278 614 2496 841 
Q 2714 1069 2714 1446 
Q 2714 1830 2496 2057 
Q 2278 2285 1920 2285 
Q 1562 2285 1344 2057 
Q 1126 1830 1126 1446 
Q 1126 1069 1344 841 
Q 1562 614 1920 614 
z
" transform="scale(0.015625)"/>
      <path id="JetBrainsMono-Bold-2c" d="M 1216 -1024 
L 1555 934 
L 2470 934 
L 1984 -1024 
L 1216 -1024 
z
" transform="scale(0.015625)"/>
      <path id="JetBrainsMono-Bold-39" d="M 1120 0 
L 2214 1888 
Q 2138 1830 2035 1788 
Q 1933 1747 1728 1747 
Q 1344 1747 1027 1932 
Q 710 2118 524 2448 
Q 339 2778 339 3213 
Q 339 3674 534 4016 
Q 730 4358 1085 4547 
Q 1440 4736 1920 4736 
Q 2400 4736 2755 4544 
Q 3110 4352 3305 4003 
Q 3501 3654 3501 3187 
Q 3501 2912 3382 2557 
Q 3264 2202 3059 1837 
L 2048 0 
L 1120 0 
z
M 1920 2387 
Q 2278 2387 2496 2614 
Q 2714 2842 2714 3226 
Q 2714 3603 2496 3830 
Q 2278 4058 1920 4058 
Q 1562 4058 1344 3830 
Q 1126 3603 1126 3226 
Q 1126 2842 1344 2614 
Q 1562 2387 1920 2387 
z
" transform="scale(0.015625)"/>
      <path id="JetBrainsMono-Bold-33" d="M 1875 -64 
Q 1184 -64 781 297 
Q 378 659 378 1280 
L 1184 1280 
Q 1184 986 1369 810 
Q 1555 634 1882 634 
Q 2202 634 2387 810 
Q 2573 986 2573 1280 
L 2573 1632 
Q 2573 1946 2390 2122 
Q 2208 2298 1882 2298 
L 1293 2298 
L 1293 2938 
L 2368 3968 
L 544 3968 
L 544 4672 
L 3245 4672 
L 3245 3994 
L 2170 2963 
Q 2733 2886 3056 2537 
Q 3379 2189 3379 1632 
L 3379 1280 
Q 3379 659 2972 297 
Q 2566 -64 1875 -64 
z
" transform="scale(0.015625)"/>
     </defs>
     <use xlink:href="#JetBrainsMono-Bold-23"/>
     <use xlink:href="#JetBrainsMono-Bold-31" transform="translate(59.999985 0)"/>
     <use xlink:href="#JetBrainsMono-Bold-32" transform="translate(119.999969 0)"/>
     <use xlink:href="#JetBrainsMono-Bold-36" transform="translate(179.999954 0)"/>
     <use xlink:href="#JetBrainsMono-Bold-2c" transform="translate(239.999939 0)"/>
     <use xlink:href="#JetBrainsMono-Bold-39" transform="translate(299.999924 0)"/>
     <use xlink:href="#JetBrainsMono-Bold-33" transform="translate(359.999908 0)"/>
     <use xlink:href="#JetBrainsMono-Bold-31" transform="translate(419.999893 0)"/>
    </g>
   </g>
   <g id="text_19">
    <!-- ▲ +4 -->
    <g style="fill: #4caf50" transform="translate(565.7472 169.488) scale(0.11 -0.11)">
     <defs>
      <path id="JetBrainsMono-Bold-25b2" d="M -64 384 
L 1920 4288 
L 3904 384 
L -64 384 
z
" transform="scale(0.015625)"/>
      <path id="JetBrainsMono-Bold-2b" d="M 1523 589 
L 1523 1741 
L 378 1741 
L 378 2483 
L 1523 2483 
L 1523 3635 
L 2317 3635 
L 2317 2483 
L 3462 2483 
L 3462 1741 
L 2317 1741 
L 2317 589 
L 1523 589 
z
" transform="scale(0.015625)"/>
      <path id="JetBrainsMono-Bold-34" d="M 2445 0 
L 2445 928 
L 378 928 
L 378 2086 
L 2106 4672 
L 2995 4672 
L 1146 1875 
L 1146 1632 
L 2445 1632 
L 2445 2688 
L 3251 2688 
L 3251 0 
L 2445 0 
z
" transform="scale(0.015625)"/>
     </defs>
     <use xlink:href="#JetBrainsMono-Bold-25b2"/>
     <use xlink:href="#JetBrainsMono-Bold-20" transform="translate(59.999985 0)"/>
     <use xlink:href="#JetBrainsMono-Bold-2b" transform="translate(119.999969 0)"/>
     <use xlink:href="#JetBrainsMono-Bold-34" transform="translate(179.999954 0)"/>
    </g>
   </g>
  </g>
 </g>
 <defs>
  <clipPath id="p08bde97da7">
   <rect x="55.296" y="55.44" width="490.752" height="269.28"/>
  </clipPath>
 </defs>
</svg>
