<?xml version="1.0" encoding="utf-8" standalone="no"?>
<!DOCTYPE svg PUBLIC "-//W3C//DTD SVG 1.1//EN"
  "http://www.w3.org/Graphics/SVG/1.1/DTD/svg11.dtd">
<svg xmlns:xlink="http://www.w3.org/1999/xlink" width="691.2pt" height="396pt" viewBox="0 0 691.2 396" xmlns="http://www.w3.org/2000/svg" version="1.1">
 <metadata>
  <rdf:RDF xmlns:dc="http://purl.org/dc/elements/1.1/" xmlns:cc="http://creativecommons.org/ns#" xmlns:rdf="http://www.w3.org/1999/02/22-rdf-syntax-ns#">
   <cc:Work>
    <dc:type rdf:resource="http://purl.org/dc/dcmitype/StillImage"/>
    <dc:date>2026-04-04T13:46:33.862036</dc:date>
    <dc:format>image/svg+xml</dc:format>
    <dc:creator>
     <cc:Agent>
      <dc:title>Matplotlib v3.10.8, https://matplotlib.org/</dc:title>
     </cc:Agent>
    </dc:creator>
   </cc:Work>
  </rdf:RDF>
 </metadata>
 <defs>
  <style type="text/css">*{stroke-linejoin: round; stroke-linecap: butt}</style>
 </defs>
 <g id="figure_1">
  <g id="patch_1">
   <path d="M 0 396 
L 691.2 396 
L 691.2 0 
L 0 0 
L 0 396 
z
" style="fill: none"/>
  </g>
  <g id="axes_1">
   <g id="patch_2">
    <path d="M 55.296 324.72 
L 546.048 324.72 
L 546.048 55.44 
L 55.296 55.44 
L 55.296 324.72 
z
" style="fill: none"/>
   </g>
   <g id="matplotlib.axis_1">
    <g id="xtick_1">
     <g id="line2d_1">
      <path d="M 104.3712 324.72 
L 104.3712 55.44 
" clip-path="url(#p89384c6320)" style="fill: none; stroke-dasharray: 2.22,0.96; stroke-dashoffset: 0; stroke: #e2d5f5; stroke-opacity: 0.7; stroke-width: 0.6"/>
     </g>
     <g id="line2d_2">
      <defs>
       <path id="m38b0765cc0" d="M 0 0 
L 0 3.5 
" style="stroke: #9b8bb8; stroke-width: 0.8"/>
      </defs>
      <g>
       <use xlink:href="#m38b0765cc0" x="104.3712" y="324.72" style="fill: #9b8bb8; stroke: #9b8bb8; stroke-width: 0.8"/>
      </g>
     </g>
     <g id="text_1">
      <!-- 03/31 -->
      <g style="fill: #9b8bb8" transform="translate(92.830819 353.301793) rotate(-30) scale(0.1 -0.1)">
       <defs>
        <path id="JetBrainsMono-Regular-30" d="M 1920 -64 
Q 1274 -64 893 310 
Q 512 685 512 1312 
L 512 3360 
Q 512 3987 893 4361 
Q 1274 4736 1920 4736 
Q 2566 4736 2947 4361 
Q 3328 3987 3328 3360 
L 3328 1312 
Q 3328 896 3155 585 
Q 2982 275 2665 105 
Q 2349 -64 1920 -64 
z
M 1920 429 
Q 2304 429 2537 675 
Q 2771 922 2771 1312 
L 2771 3360 
Q 2771 3750 2537 3996 
Q 2304 4243 1920 4243 
Q 1536 4243 1302 3996 
Q 1069 3750 1069 3360 
L 1069 1312 
Q 1069 922 1302 675 
Q 1536 429 1920 429 
z
M 1920 1984 
Q 1747 1984 1641 2080 
Q 1536 2176 1536 2355 
Q 1536 2528 1641 2621 
Q 1747 2714 1920 2714 
Q 2093 2714 2198 2621 
Q 2304 2528 2304 2355 
Q 2304 2176 2198 2080 
Q 2093 1984 1920 1984 
z
" transform="scale(0.015625)"/>
        <path id="JetBrainsMono-Regular-33" d="M 1850 -64 
Q 1203 -64 825 297 
Q 448 659 448 1280 
L 1024 1280 
Q 1024 896 1248 672 
Q 1472 448 1856 448 
Q 2240 448 2464 672 
Q 2688 896 2688 1280 
L 2688 1600 
Q 2688 1984 2464 2208 
Q 2240 2432 1856 2432 
L 1350 2432 
L 1350 2931 
L 2496 4147 
L 576 4147 
L 576 4672 
L 3149 4672 
L 3149 4134 
L 2022 2938 
Q 2598 2893 2931 2537 
Q 3264 2182 3264 1600 
L 3264 1280 
Q 3264 659 2883 297 
Q 2502 -64 1850 -64 
z
" transform="scale(0.015625)"/>
        <path id="JetBrainsMono-Regular-2f" d="M 480 -704 
L 2752 5312 
L 3360 5312 
L 1088 -704 
L 480 -704 
z
" transform="scale(0.015625)"/>
        <path id="JetBrainsMono-Regular-31" d="M 576 0 
L 576 525 
L 1843 525 
L 1843 4173 
L 576 3226 
L 576 3885 
L 1632 4672 
L 2419 4672 
L 2419 525 
L 3456 525 
L 3456 0 
L 576 0 
z
" transform="scale(0.015625)"/>
       </defs>
       <use xlink:href="#JetBrainsMono-Regular-30"/>
       <use xlink:href="#JetBrainsMono-Regular-33" transform="translate(59.999985 0)"/>
       <use xlink:href="#JetBrainsMono-Regular-2f" transform="translate(119.999969 0)"/>
       <use xlink:href="#JetBrainsMono-Regular-33" transform="translate(179.999954 0)"/>
       <use xlink:href="#JetBrainsMono-Regular-31" transform="translate(239.999939 0)"/>
      </g>
     </g>
    </g>
    <g id="xtick_2">
     <g id="line2d_3">
      <path d="M 202.5216 324.72 
L 202.5216 55.44 
" clip-path="url(#p89384c6320)" style="fill: none; stroke-dasharray: 2.22,0.96; stroke-dashoffset: 0; stroke: #e2d5f5; stroke-opacity: 0.7; stroke-width: 0.6"/>
     </g>
     <g id="line2d_4">
      <g>
       <use xlink:href="#m38b0765cc0" x="202.5216" y="324.72" style="fill: #9b8bb8; stroke: #9b8bb8; stroke-width: 0.8"/>
      </g>
     </g>
     <g id="text_2">
      <!-- 04/01 -->
      <g style="fill: #9b8bb8" transform="translate(190.981219 353.301793) rotate(-30) scale(0.1 -0.1)">
       <defs>
        <path id="JetBrainsMono-Regular-34" d="M 2560 0 
L 2560 1024 
L 448 1024 
L 448 1926 
L 2150 4672 
L 2803 4672 
L 1024 1798 
L 1024 1549 
L 2560 1549 
L 2560 2688 
L 3136 2688 
L 3136 0 
L 2560 0 
z
" transform="scale(0.015625)"/>
       </defs>
       <use xlink:href="#JetBrainsMono-Regular-30"/>
       <use xlink:href="#JetBrainsMono-Regular-34" transform="translate(59.999985 0)"/>
       <use xlink:href="#JetBrainsMono-Regular-2f" transform="translate(119.999969 0)"/>
       <use xlink:href="#JetBrainsMono-Regular-30" transform="translate(179.999954 0)"/>
       <use xlink:href="#JetBrainsMono-Regular-31" transform="translate(239.999939 0)"/>
      </g>
     </g>
    </g>
    <g id="xtick_3">
     <g id="line2d_5">
      <path d="M 300.672 324.72 
L 300.672 55.44 
" clip-path="url(#p89384c6320)" style="fill: none; stroke-dasharray: 2.22,0.96; stroke-dashoffset: 0; stroke: #e2d5f5; stroke-opacity: 0.7; stroke-width: 0.6"/>
     </g>
     <g id="line2d_6">
      <g>
       <use xlink:href="#m38b0765cc0" x="300.672" y="324.72" style="fill: #9b8bb8; stroke: #9b8bb8; stroke-width: 0.8"/>
      </g>
     </g>
     <g id="text_3">
      <!-- 04/02 -->
      <g style="fill: #9b8bb8" transform="translate(289.131619 353.301793) rotate(-30) scale(0.1 -0.1)">
       <defs>
        <path id="JetBrainsMono-Regular-32" d="M 550 0 
L 550 531 
L 2106 2195 
Q 2445 2554 2585 2835 
Q 2726 3117 2726 3386 
Q 2726 3770 2505 3997 
Q 2285 4224 1907 4224 
Q 1517 4224 1289 3990 
Q 1062 3757 1062 3360 
L 486 3360 
Q 506 3994 890 4365 
Q 1274 4736 1907 4736 
Q 2554 4736 2934 4371 
Q 3315 4006 3315 3379 
Q 3315 3046 3132 2675 
Q 2950 2304 2509 1843 
L 1248 525 
L 3373 525 
L 3373 0 
L 550 0 
z
" transform="scale(0.015625)"/>
       </defs>
       <use xlink:href="#JetBrainsMono-Regular-30"/>
       <use xlink:href="#JetBrainsMono-Regular-34" transform="translate(59.999985 0)"/>
       <use xlink:href="#JetBrainsMono-Regular-2f" transform="translate(119.999969 0)"/>
       <use xlink:href="#JetBrainsMono-Regular-30" transform="translate(179.999954 0)"/>
       <use xlink:href="#JetBrainsMono-Regular-32" transform="translate(239.999939 0)"/>
      </g>
     </g>
    </g>
    <g id="xtick_4">
     <g id="line2d_7">
      <path d="M 398.8224 324.72 
L 398.8224 55.44 
" clip-path="url(#p89384c6320)" style="fill: none; stroke-dasharray: 2.22,0.96; stroke-dashoffset: 0; stroke: #e2d5f5; stroke-opacity: 0.7; stroke-width: 0.6"/>
     </g>
     <g id="line2d_8">
      <g>
       <use xlink:href="#m38b0765cc0" x="398.8224" y="324.72" style="fill: #9b8bb8; stroke: #9b8bb8; stroke-width: 0.8"/>
      </g>
     </g>
     <g id="text_4">
      <!-- 04/03 -->
      <g style="fill: #9b8bb8" transform="translate(387.282019 353.301793) rotate(-30) scale(0.1 -0.1)">
       <use xlink:href="#JetBrainsMono-Regular-30"/>
       <use xlink:href="#JetBrainsMono-Regular-34" transform="translate(59.999985 0)"/>
       <use xlink:href="#JetBrainsMono-Regular-2f" transform="translate(119.999969 0)"/>
       <use xlink:href="#JetBrainsMono-Regular-30" transform="translate(179.999954 0)"/>
       <use xlink:href="#JetBrainsMono-Regular-33" transform="translate(239.999939 0)"/>
      </g>
     </g>
    </g>
    <g id="xtick_5">
     <g id="line2d_9">
      <path d="M 496.9728 324.72 
L 496.9728 55.44 
" clip-path="url(#p89384c6320)" style="fill: none; stroke-dasharray: 2.22,0.96; stroke-dashoffset: 0; stroke: #e2d5f5; stroke-opacity: 0.7; stroke-width: 0.6"/>
     </g>
     <g id="line2d_10">
      <g>
       <use xlink:href="#m38b0765cc0" x="496.9728" y="324.72" style="fill: #9b8bb8; stroke: #9b8bb8; stroke-width: 0.8"/>
      </g>
     </g>
     <g id="text_5">
      <!-- 04/04 -->
      <g style="fill: #9b8bb8" transform="translate(485.432419 353.301793) rotate(-30) scale(0.1 -0.1)">
       <use xlink:href="#JetBrainsMono-Regular-30"/>
       <use xlink:href="#JetBrainsMono-Regular-34" transform="translate(59.999985 0)"/>
       <use xlink:href="#JetBrainsMono-Regular-2f" transform="translate(119.999969 0)"/>
       <use xlink:href="#JetBrainsMono-Regular-30" transform="translate(179.999954 0)"/>
       <use xlink:href="#JetBrainsMono-Regular-34" transform="translate(239.999939 0)"/>
      </g>
     </g>
    </g>
   </g>
   <g id="matplotlib.axis_2">
    <g id="ytick_1">
     <g id="line2d_11">
      <path d="M 55.296 323.660833 
L 546.048 323.660833 
" clip-path="url(#p89384c6320)" style="fill: none; stroke-dasharray: 2.22,0.96; stroke-dashoffset: 0; stroke: #e2d5f5; stroke-opacity: 0.7; stroke-width: 0.6"/>
     </g>
     <g id="line2d_12">
      <defs>
       <path id="mc8101b76f6" d="M 0 0 
L -3.5 0 
" style="stroke: #9b8bb8; stroke-width: 0.8"/>
      </defs>
      <g>
       <use xlink:href="#mc8101b76f6" x="55.296" y="323.660833" style="fill: #9b8bb8; stroke: #9b8bb8; stroke-width: 0.8"/>
      </g>
     </g>
     <g id="text_6">
      <!-- 195 -->
      <g style="fill: #9b8bb8" transform="translate(30.296 327.310833) scale(0.1 -0.1)">
       <defs>
        <path id="JetBrainsMono-Regular-39" d="M 1248 0 
L 2400 2003 
L 2381 2016 
Q 2317 1914 2144 1853 
Q 1971 1792 1766 1792 
Q 1363 1792 1059 1974 
Q 755 2157 582 2477 
Q 410 2797 410 3219 
Q 410 3674 602 4013 
Q 794 4352 1133 4544 
Q 1472 4736 1914 4736 
Q 2368 4736 2707 4547 
Q 3046 4358 3238 4022 
Q 3430 3686 3430 3245 
Q 3430 2938 3315 2614 
Q 3200 2291 3002 1939 
L 1920 0 
L 1248 0 
z
M 1920 2240 
Q 2336 2240 2595 2515 
Q 2854 2790 2854 3232 
Q 2854 3674 2595 3949 
Q 2336 4224 1920 4224 
Q 1504 4224 1245 3949 
Q 986 3674 986 3232 
Q 986 2790 1245 2515 
Q 1504 2240 1920 2240 
z
" transform="scale(0.015625)"/>
        <path id="JetBrainsMono-Regular-35" d="M 1882 -64 
Q 1235 -64 857 297 
Q 480 659 480 1280 
L 1056 1280 
Q 1056 896 1280 672 
Q 1504 448 1888 448 
Q 2272 448 2496 672 
Q 2720 896 2720 1280 
L 2720 1568 
Q 2720 1952 2502 2176 
Q 2285 2400 1914 2400 
L 640 2400 
L 640 4672 
L 3130 4672 
L 3130 4147 
L 1178 4147 
L 1190 2925 
L 1946 2925 
Q 2592 2925 2944 2569 
Q 3296 2214 3296 1568 
L 3296 1280 
Q 3296 659 2915 297 
Q 2534 -64 1882 -64 
z
" transform="scale(0.015625)"/>
       </defs>
       <use xlink:href="#JetBrainsMono-Regular-31"/>
       <use xlink:href="#JetBrainsMono-Regular-39" transform="translate(59.999985 0)"/>
       <use xlink:href="#JetBrainsMono-Regular-35" transform="translate(119.999969 0)"/>
      </g>
     </g>
    </g>
    <g id="ytick_2">
     <g id="line2d_13">
      <path d="M 55.296 267.756667 
L 546.048 267.756667 
" clip-path="url(#p89384c6320)" style="fill: none; stroke-dasharray: 2.22,0.96; stroke-dashoffset: 0; stroke: #e2d5f5; stroke-opacity: 0.7; stroke-width: 0.6"/>
     </g>
     <g id="line2d_14">
      <g>
       <use xlink:href="#mc8101b76f6" x="55.296" y="267.756667" style="fill: #9b8bb8; stroke: #9b8bb8; stroke-width: 0.8"/>
      </g>
     </g>
     <g id="text_7">
      <!-- 200 -->
      <g style="fill: #9b8bb8" transform="translate(30.296 271.406667) scale(0.1 -0.1)">
       <use xlink:href="#JetBrainsMono-Regular-32"/>
       <use xlink:href="#JetBrainsMono-Regular-30" transform="translate(59.999985 0)"/>
       <use xlink:href="#JetBrainsMono-Regular-30" transform="translate(119.999969 0)"/>
      </g>
     </g>
    </g>
    <g id="ytick_3">
     <g id="line2d_15">
      <path d="M 55.296 211.852501 
L 546.048 211.852501 
" clip-path="url(#p89384c6320)" style="fill: none; stroke-dasharray: 2.22,0.96; stroke-dashoffset: 0; stroke: #e2d5f5; stroke-opacity: 0.7; stroke-width: 0.6"/>
     </g>
     <g id="line2d_16">
      <g>
       <use xlink:href="#mc8101b76f6" x="55.296" y="211.852501" style="fill: #9b8bb8; stroke: #9b8bb8; stroke-width: 0.8"/>
      </g>
     </g>
     <g id="text_8">
      <!-- 205 -->
      <g style="fill: #9b8bb8" transform="translate(30.296 215.502501) scale(0.1 -0.1)">
       <use xlink:href="#JetBrainsMono-Regular-32"/>
       <use xlink:href="#JetBrainsMono-Regular-30" transform="translate(59.999985 0)"/>
       <use xlink:href="#JetBrainsMono-Regular-35" transform="translate(119.999969 0)"/>
      </g>
     </g>
    </g>
    <g id="ytick_4">
     <g id="line2d_17">
      <path d="M 55.296 155.948336 
L 546.048 155.948336 
" clip-path="url(#p89384c6320)" style="fill: none; stroke-dasharray: 2.22,0.96; stroke-dashoffset: 0; stroke: #e2d5f5; stroke-opacity: 0.7; stroke-width: 0.6"/>
     </g>
     <g id="line2d_18">
      <g>
       <use xlink:href="#mc8101b76f6" x="55.296" y="155.948336" style="fill: #9b8bb8; stroke: #9b8bb8; stroke-width: 0.8"/>
      </g>
     </g>
     <g id="text_9">
      <!-- 210 -->
      <g style="fill: #9b8bb8" transform="translate(30.296 159.598336) scale(0.1 -0.1)">
       <use xlink:href="#JetBrainsMono-Regular-32"/>
       <use xlink:href="#JetBrainsMono-Regular-31" transform="translate(59.999985 0)"/>
       <use xlink:href="#JetBrainsMono-Regular-30" transform="translate(119.999969 0)"/>
      </g>
     </g>
    </g>
    <g id="ytick_5">
     <g id="line2d_19">
      <path d="M 55.296 100.04417 
L 546.048 100.04417 
" clip-path="url(#p89384c6320)" style="fill: none; stroke-dasharray: 2.22,0.96; stroke-dashoffset: 0; stroke: #e2d5f5; stroke-opacity: 0.7; stroke-width: 0.6"/>
     </g>
     <g id="line2d_20">
      <g>
       <use xlink:href="#mc8101b76f6" x="55.296" y="100.04417" style="fill: #9b8bb8; stroke: #9b8bb8; stroke-width: 0.8"/>
      </g>
     </g>
     <g id="text_10">
      <!-- 215 -->
      <g style="fill: #9b8bb8" transform="translate(30.296 103.69417) scale(0.1 -0.1)">
       <use xlink:href="#JetBrainsMono-Regular-32"/>
       <use xlink:href="#JetBrainsMono-Regular-31" transform="translate(59.999985 0)"/>
       <use xlink:href="#JetBrainsMono-Regular-35" transform="translate(119.999969 0)"/>
      </g>
     </g>
    </g>
    <g id="text_11">
     <!-- Rating -->
     <g style="fill: #9b8bb8" transform="translate(24.496 208.08) rotate(-90) scale(0.1 -0.1)">
      <defs>
       <path id="JetBrainsMono-Regular-52" d="M 595 0 
L 595 4672 
L 2035 4672 
Q 2451 4672 2764 4502 
Q 3078 4333 3251 4032 
Q 3424 3731 3424 3328 
Q 3424 2854 3181 2515 
Q 2938 2176 2534 2042 
L 3488 0 
L 2854 0 
L 1939 1984 
L 1165 1984 
L 1165 0 
L 595 0 
z
M 1165 2502 
L 2035 2502 
Q 2394 2502 2611 2729 
Q 2829 2957 2829 3328 
Q 2829 3706 2611 3930 
Q 2394 4154 2035 4154 
L 1165 4154 
L 1165 2502 
z
" transform="scale(0.015625)"/>
       <path id="JetBrainsMono-Regular-61" d="M 1613 -64 
Q 1069 -64 749 240 
Q 429 544 429 1037 
Q 429 1363 576 1606 
Q 723 1850 985 1987 
Q 1248 2125 1587 2125 
L 2675 2125 
L 2675 2400 
Q 2675 3085 1926 3085 
Q 1594 3085 1389 2963 
Q 1184 2842 1171 2624 
L 595 2624 
Q 627 3040 982 3312 
Q 1338 3584 1926 3584 
Q 2566 3584 2908 3277 
Q 3251 2970 3251 2419 
L 3251 0 
L 2682 0 
L 2682 640 
L 2669 640 
Q 2618 314 2342 125 
Q 2067 -64 1613 -64 
z
M 1754 422 
Q 2176 422 2425 627 
Q 2675 832 2675 1184 
L 2675 1677 
L 1651 1677 
Q 1370 1677 1194 1507 
Q 1018 1338 1018 1056 
Q 1018 762 1213 592 
Q 1408 422 1754 422 
z
" transform="scale(0.015625)"/>
       <path id="JetBrainsMono-Regular-74" d="M 2272 0 
Q 1837 0 1574 253 
Q 1312 506 1312 928 
L 1312 2995 
L 301 2995 
L 301 3520 
L 1312 3520 
L 1312 4512 
L 1888 4512 
L 1888 3520 
L 3328 3520 
L 3328 2995 
L 1888 2995 
L 1888 928 
Q 1888 749 1993 637 
Q 2099 525 2272 525 
L 3296 525 
L 3296 0 
L 2272 0 
z
" transform="scale(0.015625)"/>
       <path id="JetBrainsMono-Regular-69" d="M 544 0 
L 544 525 
L 1792 525 
L 1792 2995 
L 672 2995 
L 672 3520 
L 2368 3520 
L 2368 525 
L 3552 525 
L 3552 0 
L 544 0 
z
M 2016 4154 
Q 1805 4154 1683 4262 
Q 1562 4371 1562 4557 
Q 1562 4749 1683 4861 
Q 1805 4973 2016 4973 
Q 2227 4973 2348 4861 
Q 2470 4749 2470 4557 
Q 2470 4371 2348 4262 
Q 2227 4154 2016 4154 
z
" transform="scale(0.015625)"/>
       <path id="JetBrainsMono-Regular-6e" d="M 589 0 
L 589 3520 
L 1165 3520 
L 1165 2848 
L 1171 2848 
Q 1216 3200 1459 3392 
Q 1702 3584 2106 3584 
Q 2637 3584 2950 3257 
Q 3264 2931 3264 2368 
L 3264 0 
L 2688 0 
L 2688 2266 
Q 2688 2669 2486 2883 
Q 2285 3098 1939 3098 
Q 1581 3098 1373 2874 
Q 1165 2650 1165 2240 
L 1165 0 
L 589 0 
z
" transform="scale(0.015625)"/>
       <path id="JetBrainsMono-Regular-67" d="M 1030 -1152 
L 1030 -627 
L 2022 -627 
Q 2323 -627 2496 -457 
Q 2669 -288 2669 0 
L 2669 320 
L 2682 896 
L 2662 896 
Q 2611 582 2361 412 
Q 2112 243 1734 243 
Q 1190 243 876 588 
Q 563 934 563 1536 
L 563 2278 
Q 563 2880 876 3232 
Q 1190 3584 1734 3584 
Q 2112 3584 2361 3405 
Q 2611 3226 2662 2912 
L 2675 2912 
L 2675 3520 
L 3245 3520 
L 3245 0 
Q 3245 -531 2915 -841 
Q 2586 -1152 2016 -1152 
L 1030 -1152 
z
M 1907 723 
Q 2266 723 2470 947 
Q 2675 1171 2675 1568 
L 2675 2240 
Q 2675 2637 2470 2861 
Q 2266 3085 1907 3085 
Q 1542 3085 1340 2873 
Q 1139 2662 1139 2304 
L 1139 1504 
Q 1139 1146 1340 934 
Q 1542 723 1907 723 
z
" transform="scale(0.015625)"/>
      </defs>
      <use xlink:href="#JetBrainsMono-Regular-52"/>
      <use xlink:href="#JetBrainsMono-Regular-61" transform="translate(59.999985 0)"/>
      <use xlink:href="#JetBrainsMono-Regular-74" transform="translate(119.999969 0)"/>
      <use xlink:href="#JetBrainsMono-Regular-69" transform="translate(179.999954 0)"/>
      <use xlink:href="#JetBrainsMono-Regular-6e" transform="translate(239.999939 0)"/>
      <use xlink:href="#JetBrainsMono-Regular-67" transform="translate(299.999924 0)"/>
     </g>
    </g>
   </g>
   <g id="patch_3">
    <path d="M 55.296 324.72 
L 55.296 55.44 
" style="fill: none; stroke: #d8c8ef; stroke-width: 0.8; stroke-linejoin: miter; stroke-linecap: square"/>
   </g>
   <g id="patch_4">
    <path d="M 55.296 324.72 
L 546.048 324.72 
" style="fill: none; stroke: #d8c8ef; stroke-width: 0.8; stroke-linejoin: miter; stroke-linecap: square"/>
   </g>
   <g id="FillBetweenPolyCollection_1">
    <defs>
     <path id="m2ff26361e6" d="M 104.3712 -83.52 
L 104.3712 -139.424166 
L 105.684249 -140.535793 
L 106.997298 -141.602506 
L 108.310346 -142.624914 
L 109.623395 -143.603626 
L 110.936444 -144.53925 
L 112.249493 -145.432396 
L 113.562542 -146.283673 
L 114.875591 -147.09369 
L 116.188639 -147.863056 
L 117.501688 -148.592379 
L 118.814737 -149.282269 
L 120.127786 -149.933335 
L 121.440835 -150.546186 
L 122.753884 -151.121431 
L 124.066932 -151.659679 
L 125.379981 -152.161538 
L 126.69303 -152.627619 
L 128.006079 -153.058529 
L 129.319128 -153.454878 
L 130.632177 -153.817275 
L 131.945225 -154.146329 
L 133.258274 -154.442649 
L 134.571323 -154.706843 
L 135.884372 -154.939522 
L 137.197421 -155.141293 
L 138.51047 -155.312767 
L 139.823518 -155.454551 
L 141.136567 -155.567255 
L 142.449616 -155.651488 
L 143.762665 -155.70786 
L 145.075714 -155.736978 
L 146.388763 -155.739452 
L 147.701811 -155.715891 
L 149.01486 -155.666904 
L 150.327909 -155.5931 
L 151.640958 -155.495088 
L 152.954007 -155.373477 
L 154.267056 -155.228876 
L 155.580104 -155.061894 
L 156.893153 -154.87314 
L 158.206202 -154.663223 
L 159.519251 -154.432752 
L 160.8323 -154.182336 
L 162.145348 -153.912584 
L 163.458397 -153.624106 
L 164.771446 -153.317509 
L 166.084495 -152.993403 
L 167.397544 -152.652398 
L 168.710593 -152.295101 
L 170.023641 -151.922123 
L 171.33669 -151.534071 
L 172.649739 -151.131556 
L 173.962788 -150.715186 
L 175.275837 -150.28557 
L 176.588886 -149.843317 
L 177.901934 -149.389036 
L 179.214983 -148.923336 
L 180.528032 -148.446827 
L 181.841081 -147.960116 
L 183.15413 -147.463814 
L 184.467179 -146.958529 
L 185.780227 -146.44487 
L 187.093276 -145.923446 
L 188.406325 -145.394866 
L 189.719374 -144.85974 
L 191.032423 -144.318676 
L 192.345472 -143.772282 
L 193.65852 -143.22117 
L 194.971569 -142.665946 
L 196.284618 -142.10722 
L 197.597667 -141.545602 
L 198.910716 -140.9817 
L 200.223765 -140.416123 
L 201.536813 -139.849481 
L 202.849862 -139.282382 
L 204.162911 -138.715434 
L 205.47596 -138.149249 
L 206.789009 -137.584433 
L 208.102058 -137.021597 
L 209.415106 -136.461349 
L 210.728155 -135.904298 
L 212.041204 -135.351054 
L 213.354253 -134.802225 
L 214.667302 -134.25842 
L 215.980351 -133.720248 
L 217.293399 -133.188319 
L 218.606448 -132.663241 
L 219.919497 -132.145624 
L 221.232546 -131.636076 
L 222.545595 -131.135206 
L 223.858643 -130.643623 
L 225.171692 -130.161937 
L 226.484741 -129.690756 
L 227.79779 -129.23069 
L 229.110839 -128.782347 
L 230.423888 -128.346336 
L 231.736936 -127.923267 
L 233.049985 -127.513748 
L 234.363034 -127.118389 
L 235.676083 -126.737798 
L 236.989132 -126.372584 
L 238.302181 -126.023357 
L 239.615229 -125.690725 
L 240.928278 -125.375298 
L 242.241327 -125.077684 
L 243.554376 -124.798492 
L 244.867425 -124.538332 
L 246.180474 -124.297813 
L 247.493522 -124.077543 
L 248.806571 -123.878131 
L 250.11962 -123.700187 
L 251.432669 -123.54432 
L 252.745718 -123.411137 
L 254.058767 -123.30125 
L 255.371815 -123.215266 
L 256.684864 -123.153794 
L 257.997913 -123.117444 
L 259.310962 -123.106824 
L 260.624011 -123.122544 
L 261.93706 -123.165213 
L 263.250108 -123.235439 
L 264.563157 -123.333832 
L 265.876206 -123.461 
L 267.189255 -123.617553 
L 268.502304 -123.804099 
L 269.815353 -124.021248 
L 271.128401 -124.269608 
L 272.44145 -124.549789 
L 273.754499 -124.8624 
L 275.067548 -125.208049 
L 276.380597 -125.587346 
L 277.693645 -126.0009 
L 279.006694 -126.449319 
L 280.319743 -126.933213 
L 281.632792 -127.45319 
L 282.945841 -128.00986 
L 284.25889 -128.603832 
L 285.571938 -129.235714 
L 286.884987 -129.906116 
L 288.198036 -130.615647 
L 289.511085 -131.364915 
L 290.824134 -132.154531 
L 292.137183 -132.985101 
L 293.450231 -133.857237 
L 294.76328 -134.771546 
L 296.076329 -135.728638 
L 297.389378 -136.729121 
L 298.702427 -137.773606 
L 300.015476 -138.8627 
L 301.328524 -139.99698 
L 302.641573 -141.176272 
L 303.954622 -142.399652 
L 305.267671 -143.666163 
L 306.58072 -144.974847 
L 307.893769 -146.324749 
L 309.206817 -147.714909 
L 310.519866 -149.144373 
L 311.832915 -150.612182 
L 313.145964 -152.11738 
L 314.459013 -153.659009 
L 315.772062 -155.236113 
L 317.08511 -156.847735 
L 318.398159 -158.492917 
L 319.711208 -160.170703 
L 321.024257 -161.880136 
L 322.337306 -163.620258 
L 323.650355 -165.390113 
L 324.963403 -167.188743 
L 326.276452 -169.015192 
L 327.589501 -170.868502 
L 328.90255 -172.747717 
L 330.215599 -174.651879 
L 331.528647 -176.580032 
L 332.841696 -178.531218 
L 334.154745 -180.504481 
L 335.467794 -182.498863 
L 336.780843 -184.513408 
L 338.093892 -186.547158 
L 339.40694 -188.599157 
L 340.719989 -190.668447 
L 342.033038 -192.754072 
L 343.346087 -194.855074 
L 344.659136 -196.970496 
L 345.972185 -199.099382 
L 347.285233 -201.240774 
L 348.598282 -203.393716 
L 349.911331 -205.55725 
L 351.22438 -207.730419 
L 352.537429 -209.912266 
L 353.850478 -212.101835 
L 355.163526 -214.298169 
L 356.476575 -216.500309 
L 357.789624 -218.7073 
L 359.102673 -220.918184 
L 360.415722 -223.132005 
L 361.728771 -225.347804 
L 363.041819 -227.564626 
L 364.354868 -229.781514 
L 365.667917 -231.997509 
L 366.980966 -234.211656 
L 368.294015 -236.422997 
L 369.607064 -238.630575 
L 370.920112 -240.833433 
L 372.233161 -243.030615 
L 373.54621 -245.221162 
L 374.859259 -247.404119 
L 376.172308 -249.578528 
L 377.485357 -251.743432 
L 378.798405 -253.897875 
L 380.111454 -256.040898 
L 381.424503 -258.171546 
L 382.737552 -260.28886 
L 384.050601 -262.391885 
L 385.363649 -264.479663 
L 386.676698 -266.551237 
L 387.989747 -268.60565 
L 389.302796 -270.641945 
L 390.615845 -272.659165 
L 391.928894 -274.656353 
L 393.241942 -276.632552 
L 394.554991 -278.586805 
L 395.86804 -280.518155 
L 397.181089 -282.425646 
L 398.494138 -284.308319 
L 399.807187 -286.165218 
L 401.120235 -287.995386 
L 402.433284 -289.797866 
L 403.746333 -291.571701 
L 405.059382 -293.315934 
L 406.372431 -295.029607 
L 407.68548 -296.711765 
L 408.998528 -298.36145 
L 410.311577 -299.977704 
L 411.624626 -301.559572 
L 412.937675 -303.106095 
L 414.250724 -304.616317 
L 415.563773 -306.089281 
L 416.876821 -307.52403 
L 418.18987 -308.919606 
L 419.502919 -310.275054 
L 420.815968 -311.589415 
L 422.129017 -312.861733 
L 423.442066 -314.091051 
L 424.755114 -315.276411 
L 426.068163 -316.416858 
L 427.381212 -317.511433 
L 428.694261 -318.55918 
L 430.00731 -319.559141 
L 431.320359 -320.510361 
L 432.633407 -321.411881 
L 433.946456 -322.262745 
L 435.259505 -323.061995 
L 436.572554 -323.808675 
L 437.885603 -324.501828 
L 439.198652 -325.140496 
L 440.5117 -325.723723 
L 441.824749 -326.250552 
L 443.137798 -326.720026 
L 444.450847 -327.131187 
L 445.763896 -327.483078 
L 447.076944 -327.774743 
L 448.389993 -328.005225 
L 449.703042 -328.173567 
L 451.016091 -328.27881 
L 452.32914 -328.32 
L 453.642189 -328.296178 
L 454.955237 -328.206388 
L 456.268286 -328.049672 
L 457.581335 -327.825073 
L 458.894384 -327.531636 
L 460.207433 -327.168401 
L 461.520482 -326.734413 
L 462.83353 -326.228715 
L 464.146579 -325.650349 
L 465.459628 -324.998359 
L 466.772677 -324.271787 
L 468.085726 -323.469676 
L 469.398775 -322.59107 
L 470.711823 -321.635011 
L 472.024872 -320.600543 
L 473.337921 -319.486708 
L 474.65097 -318.292549 
L 475.964019 -317.01711 
L 477.277068 -315.659433 
L 478.590116 -314.218562 
L 479.903165 -312.693538 
L 481.216214 -311.083407 
L 482.529263 -309.387209 
L 483.842312 -307.603989 
L 485.155361 -305.732789 
L 486.468409 -303.772653 
L 487.781458 -301.722622 
L 489.094507 -299.581741 
L 490.407556 -297.349052 
L 491.720605 -295.023599 
L 493.033654 -292.604424 
L 494.346702 -290.09057 
L 495.659751 -287.48108 
L 496.9728 -284.774997 
L 496.9728 -83.52 
L 496.9728 -83.52 
L 495.659751 -83.52 
L 494.346702 -83.52 
L 493.033654 -83.52 
L 491.720605 -83.52 
L 490.407556 -83.52 
L 489.094507 -83.52 
L 487.781458 -83.52 
L 486.468409 -83.52 
L 485.155361 -83.52 
L 483.842312 -83.52 
L 482.529263 -83.52 
L 481.216214 -83.52 
L 479.903165 -83.52 
L 478.590116 -83.52 
L 477.277068 -83.52 
L 475.964019 -83.52 
L 474.65097 -83.52 
L 473.337921 -83.52 
L 472.024872 -83.52 
L 470.711823 -83.52 
L 469.398775 -83.52 
L 468.085726 -83.52 
L 466.772677 -83.52 
L 465.459628 -83.52 
L 464.146579 -83.52 
L 462.83353 -83.52 
L 461.520482 -83.52 
L 460.207433 -83.52 
L 458.894384 -83.52 
L 457.581335 -83.52 
L 456.268286 -83.52 
L 454.955237 -83.52 
L 453.642189 -83.52 
L 452.32914 -83.52 
L 451.016091 -83.52 
L 449.703042 -83.52 
L 448.389993 -83.52 
L 447.076944 -83.52 
L 445.763896 -83.52 
L 444.450847 -83.52 
L 443.137798 -83.52 
L 441.824749 -83.52 
L 440.5117 -83.52 
L 439.198652 -83.52 
L 437.885603 -83.52 
L 436.572554 -83.52 
L 435.259505 -83.52 
L 433.946456 -83.52 
L 432.633407 -83.52 
L 431.320359 -83.52 
L 430.00731 -83.52 
L 428.694261 -83.52 
L 427.381212 -83.52 
L 426.068163 -83.52 
L 424.755114 -83.52 
L 423.442066 -83.52 
L 422.129017 -83.52 
L 420.815968 -83.52 
L 419.502919 -83.52 
L 418.18987 -83.52 
L 416.876821 -83.52 
L 415.563773 -83.52 
L 414.250724 -83.52 
L 412.937675 -83.52 
L 411.624626 -83.52 
L 410.311577 -83.52 
L 408.998528 -83.52 
L 407.68548 -83.52 
L 406.372431 -83.52 
L 405.059382 -83.52 
L 403.746333 -83.52 
L 402.433284 -83.52 
L 401.120235 -83.52 
L 399.807187 -83.52 
L 398.494138 -83.52 
L 397.181089 -83.52 
L 395.86804 -83.52 
L 394.554991 -83.52 
L 393.241942 -83.52 
L 391.928894 -83.52 
L 390.615845 -83.52 
L 389.302796 -83.52 
L 387.989747 -83.52 
L 386.676698 -83.52 
L 385.363649 -83.52 
L 384.050601 -83.52 
L 382.737552 -83.52 
L 381.424503 -83.52 
L 380.111454 -83.52 
L 378.798405 -83.52 
L 377.485357 -83.52 
L 376.172308 -83.52 
L 374.859259 -83.52 
L 373.54621 -83.52 
L 372.233161 -83.52 
L 370.920112 -83.52 
L 369.607064 -83.52 
L 368.294015 -83.52 
L 366.980966 -83.52 
L 365.667917 -83.52 
L 364.354868 -83.52 
L 363.041819 -83.52 
L 361.728771 -83.52 
L 360.415722 -83.52 
L 359.102673 -83.52 
L 357.789624 -83.52 
L 356.476575 -83.52 
L 355.163526 -83.52 
L 353.850478 -83.52 
L 352.537429 -83.52 
L 351.22438 -83.52 
L 349.911331 -83.52 
L 348.598282 -83.52 
L 347.285233 -83.52 
L 345.972185 -83.52 
L 344.659136 -83.52 
L 343.346087 -83.52 
L 342.033038 -83.52 
L 340.719989 -83.52 
L 339.40694 -83.52 
L 338.093892 -83.52 
L 336.780843 -83.52 
L 335.467794 -83.52 
L 334.154745 -83.52 
L 332.841696 -83.52 
L 331.528647 -83.52 
L 330.215599 -83.52 
L 328.90255 -83.52 
L 327.589501 -83.52 
L 326.276452 -83.52 
L 324.963403 -83.52 
L 323.650355 -83.52 
L 322.337306 -83.52 
L 321.024257 -83.52 
L 319.711208 -83.52 
L 318.398159 -83.52 
L 317.08511 -83.52 
L 315.772062 -83.52 
L 314.459013 -83.52 
L 313.145964 -83.52 
L 311.832915 -83.52 
L 310.519866 -83.52 
L 309.206817 -83.52 
L 307.893769 -83.52 
L 306.58072 -83.52 
L 305.267671 -83.52 
L 303.954622 -83.52 
L 302.641573 -83.52 
L 301.328524 -83.52 
L 300.015476 -83.52 
L 298.702427 -83.52 
L 297.389378 -83.52 
L 296.076329 -83.52 
L 294.76328 -83.52 
L 293.450231 -83.52 
L 292.137183 -83.52 
L 290.824134 -83.52 
L 289.511085 -83.52 
L 288.198036 -83.52 
L 286.884987 -83.52 
L 285.571938 -83.52 
L 284.25889 -83.52 
L 282.945841 -83.52 
L 281.632792 -83.52 
L 280.319743 -83.52 
L 279.006694 -83.52 
L 277.693645 -83.52 
L 276.380597 -83.52 
L 275.067548 -83.52 
L 273.754499 -83.52 
L 272.44145 -83.52 
L 271.128401 -83.52 
L 269.815353 -83.52 
L 268.502304 -83.52 
L 267.189255 -83.52 
L 265.876206 -83.52 
L 264.563157 -83.52 
L 263.250108 -83.52 
L 261.93706 -83.52 
L 260.624011 -83.52 
L 259.310962 -83.52 
L 257.997913 -83.52 
L 256.684864 -83.52 
L 255.371815 -83.52 
L 254.058767 -83.52 
L 252.745718 -83.52 
L 251.432669 -83.52 
L 250.11962 -83.52 
L 248.806571 -83.52 
L 247.493522 -83.52 
L 246.180474 -83.52 
L 244.867425 -83.52 
L 243.554376 -83.52 
L 242.241327 -83.52 
L 240.928278 -83.52 
L 239.615229 -83.52 
L 238.302181 -83.52 
L 236.989132 -83.52 
L 235.676083 -83.52 
L 234.363034 -83.52 
L 233.049985 -83.52 
L 231.736936 -83.52 
L 230.423888 -83.52 
L 229.110839 -83.52 
L 227.79779 -83.52 
L 226.484741 -83.52 
L 225.171692 -83.52 
L 223.858643 -83.52 
L 222.545595 -83.52 
L 221.232546 -83.52 
L 219.919497 -83.52 
L 218.606448 -83.52 
L 217.293399 -83.52 
L 215.980351 -83.52 
L 214.667302 -83.52 
L 213.354253 -83.52 
L 212.041204 -83.52 
L 210.728155 -83.52 
L 209.415106 -83.52 
L 208.102058 -83.52 
L 206.789009 -83.52 
L 205.47596 -83.52 
L 204.162911 -83.52 
L 202.849862 -83.52 
L 201.536813 -83.52 
L 200.223765 -83.52 
L 198.910716 -83.52 
L 197.597667 -83.52 
L 196.284618 -83.52 
L 194.971569 -83.52 
L 193.65852 -83.52 
L 192.345472 -83.52 
L 191.032423 -83.52 
L 189.719374 -83.52 
L 188.406325 -83.52 
L 187.093276 -83.52 
L 185.780227 -83.52 
L 184.467179 -83.52 
L 183.15413 -83.52 
L 181.841081 -83.52 
L 180.528032 -83.52 
L 179.214983 -83.52 
L 177.901934 -83.52 
L 176.588886 -83.52 
L 175.275837 -83.52 
L 173.962788 -83.52 
L 172.649739 -83.52 
L 171.33669 -83.52 
L 170.023641 -83.52 
L 168.710593 -83.52 
L 167.397544 -83.52 
L 166.084495 -83.52 
L 164.771446 -83.52 
L 163.458397 -83.52 
L 162.145348 -83.52 
L 160.8323 -83.52 
L 159.519251 -83.52 
L 158.206202 -83.52 
L 156.893153 -83.52 
L 155.580104 -83.52 
L 154.267056 -83.52 
L 152.954007 -83.52 
L 151.640958 -83.52 
L 150.327909 -83.52 
L 149.01486 -83.52 
L 147.701811 -83.52 
L 146.388763 -83.52 
L 145.075714 -83.52 
L 143.762665 -83.52 
L 142.449616 -83.52 
L 141.136567 -83.52 
L 139.823518 -83.52 
L 138.51047 -83.52 
L 137.197421 -83.52 
L 135.884372 -83.52 
L 134.571323 -83.52 
L 133.258274 -83.52 
L 131.945225 -83.52 
L 130.632177 -83.52 
L 129.319128 -83.52 
L 128.006079 -83.52 
L 126.69303 -83.52 
L 125.379981 -83.52 
L 124.066932 -83.52 
L 122.753884 -83.52 
L 121.440835 -83.52 
L 120.127786 -83.52 
L 118.814737 -83.52 
L 117.501688 -83.52 
L 116.188639 -83.52 
L 114.875591 -83.52 
L 113.562542 -83.52 
L 112.249493 -83.52 
L 110.936444 -83.52 
L 109.623395 -83.52 
L 108.310346 -83.52 
L 106.997298 -83.52 
L 105.684249 -83.52 
L 104.3712 -83.52 
z
" style="stroke: #8b5cf6; stroke-opacity: 0.12"/>
    </defs>
    <g clip-path="url(#p89384c6320)">
     <use xlink:href="#m2ff26361e6" x="0" y="396" style="fill: #8b5cf6; fill-opacity: 0.12; stroke: #8b5cf6; stroke-opacity: 0.12"/>
    </g>
   </g>
   <g id="text_12">
    <!-- 214 -->
    <g style="fill: #8b5cf6" transform="translate(499.9728 108.225003) scale(0.12 -0.12)">
     <defs>
      <path id="JetBrainsMono-Bold-32" d="M 474 0 
L 474 723 
L 2157 2445 
Q 2566 2874 2566 3315 
Q 2566 3629 2384 3824 
Q 2202 4019 1894 4019 
Q 1581 4019 1392 3817 
Q 1203 3616 1203 3283 
L 403 3283 
Q 403 3718 595 4044 
Q 787 4371 1126 4553 
Q 1466 4736 1914 4736 
Q 2355 4736 2688 4563 
Q 3021 4390 3203 4080 
Q 3386 3770 3386 3354 
Q 3386 2995 3216 2636 
Q 3046 2278 2656 1894 
L 1478 723 
L 3443 723 
L 3443 0 
L 474 0 
z
" transform="scale(0.015625)"/>
      <path id="JetBrainsMono-Bold-31" d="M 538 0 
L 538 723 
L 1754 723 
L 1754 3898 
L 531 3002 
L 531 3898 
L 1606 4672 
L 2554 4672 
L 2554 723 
L 3533 723 
L 3533 0 
L 538 0 
z
" transform="scale(0.015625)"/>
      <path id="JetBrainsMono-Bold-34" d="M 2445 0 
L 2445 928 
L 378 928 
L 378 2086 
L 2106 4672 
L 2995 4672 
L 1146 1875 
L 1146 1632 
L 2445 1632 
L 2445 2688 
L 3251 2688 
L 3251 0 
L 2445 0 
z
" transform="scale(0.015625)"/>
     </defs>
     <use xlink:href="#JetBrainsMono-Bold-32"/>
     <use xlink:href="#JetBrainsMono-Bold-31" transform="translate(59.999985 0)"/>
     <use xlink:href="#JetBrainsMono-Bold-34" transform="translate(119.999969 0)"/>
    </g>
   </g>
   <g id="text_13">
    <!-- Rating History -->
    <g style="fill: #8b5cf6" transform="translate(55.296 50.44) scale(0.17 -0.17)">
     <defs>
      <path id="JetBrainsMono-Bold-52" d="M 493 0 
L 493 4672 
L 1965 4672 
Q 2432 4672 2774 4499 
Q 3117 4326 3309 4016 
Q 3501 3706 3501 3283 
Q 3501 2816 3270 2467 
Q 3040 2118 2650 1971 
L 3565 0 
L 2688 0 
L 1869 1856 
L 1286 1856 
L 1286 0 
L 493 0 
z
M 1286 2560 
L 1965 2560 
Q 2304 2560 2496 2745 
Q 2688 2931 2688 3258 
Q 2688 3584 2493 3776 
Q 2298 3968 1965 3968 
L 1286 3968 
L 1286 2560 
z
" transform="scale(0.015625)"/>
      <path id="JetBrainsMono-Bold-61" d="M 1530 -64 
Q 992 -64 681 240 
Q 371 544 371 1037 
Q 371 1549 723 1853 
Q 1075 2157 1690 2157 
L 2547 2157 
L 2547 2406 
Q 2547 2938 1926 2938 
Q 1645 2938 1478 2829 
Q 1312 2720 1293 2522 
L 525 2522 
Q 550 2995 924 3289 
Q 1299 3584 1933 3584 
Q 2605 3584 2976 3270 
Q 3347 2957 3347 2387 
L 3347 0 
L 2566 0 
L 2566 659 
Q 2522 320 2246 128 
Q 1971 -64 1530 -64 
z
M 1786 589 
Q 2138 589 2342 761 
Q 2547 934 2547 1222 
L 2547 1638 
L 1728 1638 
Q 1466 1638 1312 1491 
Q 1158 1344 1158 1114 
Q 1158 877 1321 733 
Q 1485 589 1786 589 
z
" transform="scale(0.015625)"/>
      <path id="JetBrainsMono-Bold-74" d="M 2272 0 
Q 1779 0 1488 285 
Q 1197 570 1197 1056 
L 1197 2797 
L 224 2797 
L 224 3520 
L 1197 3520 
L 1197 4512 
L 2003 4512 
L 2003 3520 
L 3405 3520 
L 3405 2797 
L 2003 2797 
L 2003 1075 
Q 2003 922 2089 822 
Q 2176 723 2330 723 
L 3373 723 
L 3373 0 
L 2272 0 
z
" transform="scale(0.015625)"/>
      <path id="JetBrainsMono-Bold-69" d="M 486 0 
L 486 723 
L 1690 723 
L 1690 2797 
L 614 2797 
L 614 3520 
L 2490 3520 
L 2490 723 
L 3571 723 
L 3571 0 
L 486 0 
z
M 2032 4109 
Q 1789 4109 1648 4233 
Q 1507 4358 1507 4570 
Q 1507 4781 1648 4905 
Q 1789 5030 2032 5030 
Q 2275 5030 2416 4905 
Q 2557 4781 2557 4570 
Q 2557 4358 2416 4233 
Q 2275 4109 2032 4109 
z
" transform="scale(0.015625)"/>
      <path id="JetBrainsMono-Bold-6e" d="M 493 0 
L 493 3520 
L 1274 3520 
L 1274 2861 
Q 1338 3194 1587 3389 
Q 1837 3584 2221 3584 
Q 2739 3584 3049 3238 
Q 3360 2893 3360 2310 
L 3360 0 
L 2560 0 
L 2560 2214 
Q 2560 2541 2390 2717 
Q 2221 2893 1933 2893 
Q 1632 2893 1462 2713 
Q 1293 2534 1293 2202 
L 1293 0 
L 493 0 
z
" transform="scale(0.015625)"/>
      <path id="JetBrainsMono-Bold-67" d="M 973 -1152 
L 973 -486 
L 1965 -486 
Q 2246 -486 2400 -336 
Q 2554 -186 2554 70 
L 2554 282 
L 2566 832 
Q 2458 538 2218 374 
Q 1978 211 1632 211 
Q 1094 211 777 572 
Q 461 934 461 1555 
L 461 2240 
Q 461 2854 777 3219 
Q 1094 3584 1632 3584 
Q 1978 3584 2218 3421 
Q 2458 3258 2566 2957 
L 2566 3520 
L 3347 3520 
L 3347 51 
Q 3347 -506 2979 -829 
Q 2611 -1152 1978 -1152 
L 973 -1152 
z
M 1901 896 
Q 2208 896 2377 1078 
Q 2547 1261 2547 1587 
L 2547 2202 
Q 2547 2528 2377 2710 
Q 2208 2893 1901 2893 
Q 1594 2893 1427 2717 
Q 1261 2541 1261 2227 
L 1261 1562 
Q 1261 1248 1427 1072 
Q 1594 896 1901 896 
z
" transform="scale(0.015625)"/>
      <path id="JetBrainsMono-Bold-20" transform="scale(0.015625)"/>
      <path id="JetBrainsMono-Bold-48" d="M 493 0 
L 493 4672 
L 1293 4672 
L 1293 2778 
L 2547 2778 
L 2547 4672 
L 3347 4672 
L 3347 0 
L 2547 0 
L 2547 2054 
L 1293 2054 
L 1293 0 
L 493 0 
z
" transform="scale(0.015625)"/>
      <path id="JetBrainsMono-Bold-73" d="M 1773 -58 
Q 1146 -58 781 227 
Q 416 512 416 998 
L 1203 998 
Q 1203 794 1353 685 
Q 1504 576 1773 576 
L 2054 576 
Q 2342 576 2499 685 
Q 2656 794 2656 998 
Q 2656 1190 2547 1283 
Q 2438 1376 2214 1408 
L 1338 1523 
Q 915 1581 688 1849 
Q 461 2118 461 2547 
Q 461 3046 793 3312 
Q 1126 3578 1754 3578 
L 2048 3578 
Q 2637 3578 2995 3309 
Q 3354 3040 3366 2592 
L 2573 2592 
Q 2566 2758 2425 2857 
Q 2285 2957 2048 2957 
L 1754 2957 
Q 1498 2957 1363 2851 
Q 1229 2746 1229 2566 
Q 1229 2406 1328 2329 
Q 1427 2253 1619 2234 
L 2445 2118 
Q 2931 2061 3177 1776 
Q 3424 1491 3424 1011 
Q 3424 499 3075 220 
Q 2726 -58 2054 -58 
L 1773 -58 
z
" transform="scale(0.015625)"/>
      <path id="JetBrainsMono-Bold-6f" d="M 1920 -58 
Q 1242 -58 845 323 
Q 448 704 448 1350 
L 448 2170 
Q 448 2822 845 3200 
Q 1242 3578 1920 3578 
Q 2598 3578 2995 3200 
Q 3392 2822 3392 2170 
L 3392 1350 
Q 3392 704 2995 323 
Q 2598 -58 1920 -58 
z
M 1920 640 
Q 2240 640 2416 816 
Q 2592 992 2592 1325 
L 2592 2195 
Q 2592 2528 2416 2704 
Q 2240 2880 1920 2880 
Q 1600 2880 1424 2704 
Q 1248 2528 1248 2195 
L 1248 1325 
Q 1248 992 1424 816 
Q 1600 640 1920 640 
z
" transform="scale(0.015625)"/>
      <path id="JetBrainsMono-Bold-72" d="M 621 0 
L 621 3520 
L 1402 3520 
L 1402 2835 
Q 1466 3181 1718 3382 
Q 1971 3584 2374 3584 
Q 2912 3584 3213 3238 
Q 3514 2893 3514 2272 
L 3514 1939 
L 2714 1939 
L 2714 2234 
Q 2714 2554 2547 2723 
Q 2381 2893 2074 2893 
Q 1754 2893 1587 2701 
Q 1421 2509 1421 2157 
L 1421 0 
L 621 0 
z
" transform="scale(0.015625)"/>
      <path id="JetBrainsMono-Bold-79" d="M 1056 -1152 
L 1555 192 
L 230 3520 
L 1075 3520 
L 1754 1722 
Q 1811 1562 1868 1373 
Q 1926 1184 1952 1024 
Q 1971 1184 2025 1373 
Q 2080 1562 2138 1722 
L 2765 3520 
L 3610 3520 
L 1894 -1152 
L 1056 -1152 
z
" transform="scale(0.015625)"/>
     </defs>
     <use xlink:href="#JetBrainsMono-Bold-52"/>
     <use xlink:href="#JetBrainsMono-Bold-61" transform="translate(59.999985 0)"/>
     <use xlink:href="#JetBrainsMono-Bold-74" transform="translate(119.999969 0)"/>
     <use xlink:href="#JetBrainsMono-Bold-69" transform="translate(179.999954 0)"/>
     <use xlink:href="#JetBrainsMono-Bold-6e" transform="translate(239.999939 0)"/>
     <use xlink:href="#JetBrainsMono-Bold-67" transform="translate(299.999924 0)"/>
     <use xlink:href="#JetBrainsMono-Bold-20" transform="translate(359.999908 0)"/>
     <use xlink:href="#JetBrainsMono-Bold-48" transform="translate(419.999893 0)"/>
     <use xlink:href="#JetBrainsMono-Bold-69" transform="translate(479.999878 0)"/>
     <use xlink:href="#JetBrainsMono-Bold-73" transform="translate(539.999863 0)"/>
     <use xlink:href="#JetBrainsMono-Bold-74" transform="translate(599.999847 0)"/>
     <use xlink:href="#JetBrainsMono-Bold-6f" transform="translate(659.999832 0)"/>
     <use xlink:href="#JetBrainsMono-Bold-72" transform="translate(719.999817 0)"/>
     <use xlink:href="#JetBrainsMono-Bold-79" transform="translate(779.999802 0)"/>
    </g>
   </g>
   <g id="line2d_21">
    <path d="M 104.3712 256.575834 
L 108.310346 253.375086 
L 112.249493 250.567604 
L 116.188639 248.136944 
L 120.127786 246.066665 
L 124.066932 244.340321 
L 128.006079 242.941471 
L 131.945225 241.853671 
L 135.884372 241.060478 
L 139.823518 240.545449 
L 143.762665 240.29214 
L 147.701811 240.284109 
L 151.640958 240.504912 
L 155.580104 240.938106 
L 159.519251 241.567248 
L 163.458397 242.375894 
L 168.710593 243.704899 
L 173.962788 245.284814 
L 179.214983 247.076664 
L 185.780227 249.55513 
L 193.65852 252.77883 
L 221.232546 264.363924 
L 227.79779 266.76931 
L 233.049985 268.486252 
L 238.302181 269.976643 
L 243.554376 271.201508 
L 247.493522 271.922457 
L 251.432669 272.45568 
L 255.371815 272.784734 
L 259.310962 272.893176 
L 263.250108 272.764561 
L 267.189255 272.382447 
L 271.128401 271.730392 
L 275.067548 270.791951 
L 279.006694 269.550681 
L 282.945841 267.99014 
L 286.884987 266.093884 
L 290.824134 263.845469 
L 294.76328 261.228454 
L 298.702427 258.226394 
L 302.641573 254.823728 
L 306.58072 251.025153 
L 310.519866 246.855627 
L 314.459013 242.340991 
L 318.398159 237.507083 
L 322.337306 232.379742 
L 327.589501 225.131498 
L 332.841696 217.468782 
L 338.093892 209.452842 
L 344.659136 199.029504 
L 352.537429 186.087734 
L 366.980966 161.788344 
L 378.798405 142.102125 
L 386.676698 129.448763 
L 393.241942 119.367448 
L 398.494138 111.691681 
L 403.746333 104.428299 
L 407.68548 99.288235 
L 411.624626 94.440428 
L 415.563773 89.910719 
L 419.502919 85.724946 
L 423.442066 81.908949 
L 427.381212 78.488567 
L 430.00731 76.440859 
L 432.633407 74.588119 
L 435.259505 72.938005 
L 437.885603 71.498172 
L 440.5117 70.276277 
L 443.137798 69.279974 
L 445.763896 68.516922 
L 448.389993 67.994775 
L 451.016091 67.72119 
L 453.642189 67.703822 
L 456.268286 67.950328 
L 458.894384 68.468364 
L 461.520482 69.265587 
L 464.146579 70.349651 
L 466.772677 71.728213 
L 469.398775 73.40893 
L 472.024872 75.399457 
L 474.65097 77.707451 
L 477.277068 80.340567 
L 479.903165 83.306462 
L 482.529263 86.612791 
L 485.155361 90.267211 
L 487.781458 94.277378 
L 490.407556 98.650948 
L 493.033654 103.395576 
L 495.659751 108.51892 
L 496.9728 111.225003 
L 496.9728 111.225003 
" clip-path="url(#p89384c6320)" style="fill: none; stroke: #8b5cf6; stroke-width: 1.2; stroke-linecap: round"/>
   </g>
   <g id="PathCollection_1">
    <defs>
     <path id="m067cedf4d7" d="M 0 2.236068 
C 0.593012 2.236068 1.161816 2.000462 1.581139 1.581139 
C 2.000462 1.161816 2.236068 0.593012 2.236068 0 
C 2.236068 -0.593012 2.000462 -1.161816 1.581139 -1.581139 
C 1.161816 -2.000462 0.593012 -2.236068 0 -2.236068 
C -0.593012 -2.236068 -1.161816 -2.000462 -1.581139 -1.581139 
C -2.000462 -1.161816 -2.236068 -0.593012 -2.236068 0 
C -2.236068 0.593012 -2.000462 1.161816 -1.581139 1.581139 
C -1.161816 2.000462 -0.593012 2.236068 0 2.236068 
z
" style="stroke: #ffffff; stroke-width: 0.8"/>
    </defs>
    <g clip-path="url(#p89384c6320)">
     <use xlink:href="#m067cedf4d7" x="496.9728" y="111.225003" style="fill: #8b5cf6; stroke: #ffffff; stroke-width: 0.8"/>
    </g>
   </g>
  </g>
  <g id="axes_2">
   <g id="text_14">
    <!-- Rating -->
    <g style="fill: #9b8bb8" transform="translate(565.7472 48.312) scale(0.11 -0.11)">
     <use xlink:href="#JetBrainsMono-Regular-52"/>
     <use xlink:href="#JetBrainsMono-Regular-61" transform="translate(59.999985 0)"/>
     <use xlink:href="#JetBrainsMono-Regular-74" transform="translate(119.999969 0)"/>
     <use xlink:href="#JetBrainsMono-Regular-69" transform="translate(179.999954 0)"/>
     <use xlink:href="#JetBrainsMono-Regular-6e" transform="translate(239.999939 0)"/>
     <use xlink:href="#JetBrainsMono-Regular-67" transform="translate(299.999924 0)"/>
    </g>
   </g>
   <g id="text_15">
    <!-- 214 -->
    <g style="fill: #8b5cf6" transform="translate(565.7472 81.548) scale(0.26 -0.26)">
     <use xlink:href="#JetBrainsMono-Bold-32"/>
     <use xlink:href="#JetBrainsMono-Bold-31" transform="translate(59.999985 0)"/>
     <use xlink:href="#JetBrainsMono-Bold-34" transform="translate(119.999969 0)"/>
    </g>
   </g>
   <g id="text_16">
    <!-- Rank -->
    <g style="fill: #9b8bb8" transform="translate(565.7472 119.592) scale(0.11 -0.11)">
     <defs>
      <path id="JetBrainsMono-Regular-6b" d="M 621 0 
L 621 4672 
L 1197 4672 
L 1197 2067 
L 1869 2067 
L 2854 3520 
L 3514 3520 
L 2381 1843 
L 3578 0 
L 2906 0 
L 1882 1568 
L 1197 1568 
L 1197 0 
L 621 0 
z
" transform="scale(0.015625)"/>
     </defs>
     <use xlink:href="#JetBrainsMono-Regular-52"/>
     <use xlink:href="#JetBrainsMono-Regular-61" transform="translate(59.999985 0)"/>
     <use xlink:href="#JetBrainsMono-Regular-6e" transform="translate(119.999969 0)"/>
     <use xlink:href="#JetBrainsMono-Regular-6b" transform="translate(179.999954 0)"/>
    </g>
   </g>
   <g id="text_17">
    <!-- #128,292 -->
    <g style="fill: #8b5cf6" transform="translate(565.7472 148.104) scale(0.14 -0.14)">
     <defs>
      <path id="JetBrainsMono-Bold-23" d="M 493 0 
L 710 1216 
L 224 1216 
L 224 1760 
L 800 1760 
L 998 2912 
L 448 2912 
L 448 3456 
L 1094 3456 
L 1312 4672 
L 1875 4672 
L 1658 3456 
L 2566 3456 
L 2784 4672 
L 3347 4672 
L 3130 3456 
L 3616 3456 
L 3616 2912 
L 3034 2912 
L 2835 1760 
L 3392 1760 
L 3392 1216 
L 2739 1216 
L 2528 0 
L 1965 0 
L 2182 1216 
L 1267 1216 
L 1056 0 
L 493 0 
z
M 1363 1760 
L 2272 1760 
L 2470 2912 
L 1562 2912 
L 1363 1760 
z
" transform="scale(0.015625)"/>
      <path id="JetBrainsMono-Bold-38" d="M 1920 -64 
Q 1453 -64 1094 112 
Q 736 288 537 598 
Q 339 909 339 1318 
Q 339 1747 585 2067 
Q 832 2387 1229 2470 
L 1229 2483 
Q 890 2554 682 2829 
Q 474 3104 474 3482 
Q 474 3853 656 4134 
Q 838 4416 1164 4576 
Q 1491 4736 1920 4736 
Q 2349 4736 2678 4576 
Q 3008 4416 3190 4134 
Q 3373 3853 3373 3482 
Q 3373 3104 3161 2829 
Q 2950 2554 2611 2483 
L 2611 2470 
Q 3008 2387 3254 2067 
Q 3501 1747 3501 1318 
Q 3501 909 3302 598 
Q 3104 288 2745 112 
Q 2387 -64 1920 -64 
z
M 1920 2758 
Q 2221 2758 2406 2940 
Q 2592 3123 2592 3411 
Q 2592 3706 2406 3888 
Q 2221 4070 1920 4070 
Q 1619 4070 1433 3888 
Q 1248 3706 1248 3411 
Q 1248 3123 1433 2940 
Q 1619 2758 1920 2758 
z
M 1920 614 
Q 2272 614 2496 819 
Q 2720 1024 2720 1357 
Q 2720 1696 2496 1904 
Q 2272 2112 1920 2112 
Q 1568 2112 1344 1904 
Q 1120 1696 1120 1357 
Q 1120 1024 1344 819 
Q 1568 614 1920 614 
z
" transform="scale(0.015625)"/>
      <path id="JetBrainsMono-Bold-2c" d="M 1216 -1024 
L 1555 934 
L 2470 934 
L 1984 -1024 
L 1216 -1024 
z
" transform="scale(0.015625)"/>
      <path id="JetBrainsMono-Bold-39" d="M 1120 0 
L 2214 1888 
Q 2138 1830 2035 1788 
Q 1933 1747 1728 1747 
Q 1344 1747 1027 1932 
Q 710 2118 524 2448 
Q 339 2778 339 3213 
Q 339 3674 534 4016 
Q 730 4358 1085 4547 
Q 1440 4736 1920 4736 
Q 2400 4736 2755 4544 
Q 3110 4352 3305 4003 
Q 3501 3654 3501 3187 
Q 3501 2912 3382 2557 
Q 3264 2202 3059 1837 
L 2048 0 
L 1120 0 
z
M 1920 2387 
Q 2278 2387 2496 2614 
Q 2714 2842 2714 3226 
Q 2714 3603 2496 3830 
Q 2278 4058 1920 4058 
Q 1562 4058 1344 3830 
Q 1126 3603 1126 3226 
Q 1126 2842 1344 2614 
Q 1562 2387 1920 2387 
z
" transform="scale(0.015625)"/>
     </defs>
     <use xlink:href="#JetBrainsMono-Bold-23"/>
     <use xlink:href="#JetBrainsMono-Bold-31" transform="translate(59.999985 0)"/>
     <use xlink:href="#JetBrainsMono-Bold-32" transform="translate(119.999969 0)"/>
     <use xlink:href="#JetBrainsMono-Bold-38" transform="translate(179.999954 0)"/>
     <use xlink:href="#JetBrainsMono-Bold-2c" transform="translate(239.999939 0)"/>
     <use xlink:href="#JetBrainsMono-Bold-32" transform="translate(299.999924 0)"/>
     <use xlink:href="#JetBrainsMono-Bold-39" transform="translate(359.999908 0)"/>
     <use xlink:href="#JetBrainsMono-Bold-32" transform="translate(419.999893 0)"/>
    </g>
   </g>
   <g id="text_18">
    <!-- ─ 0 -->
    <g style="fill: #9b8bb8" transform="translate(565.7472 169.488) scale(0.11 -0.11)">
     <defs>
      <path id="JetBrainsMono-Bold-2500" d="M -128 2048 
L -128 2688 
L 3968 2688 
L 3968 2048 
L -128 2048 
z
" transform="scale(0.015625)"/>
      <path id="JetBrainsMono-Bold-30" d="M 1920 -64 
Q 1466 -64 1133 109 
Q 800 282 617 595 
Q 435 909 435 1331 
L 435 3341 
Q 435 3763 617 4076 
Q 800 4390 1133 4563 
Q 1466 4736 1920 4736 
Q 2374 4736 2707 4563 
Q 3040 4390 3222 4076 
Q 3405 3763 3405 3341 
L 3405 1331 
Q 3405 909 3222 595 
Q 3040 282 2707 109 
Q 2374 -64 1920 -64 
z
M 1920 627 
Q 2253 627 2451 819 
Q 2650 1011 2650 1331 
L 2650 3341 
Q 2650 3661 2454 3853 
Q 2259 4045 1920 4045 
Q 1581 4045 1385 3853 
Q 1190 3661 1190 3341 
L 1190 1331 
Q 1190 1011 1388 819 
Q 1587 627 1920 627 
z
M 1920 1952 
Q 1728 1952 1613 2057 
Q 1498 2163 1498 2355 
Q 1498 2547 1613 2646 
Q 1728 2746 1920 2746 
Q 2112 2746 2227 2646 
Q 2342 2547 2342 2355 
Q 2342 2163 2227 2057 
Q 2112 1952 1920 1952 
z
" transform="scale(0.015625)"/>
     </defs>
     <use xlink:href="#JetBrainsMono-Bold-2500"/>
     <use xlink:href="#JetBrainsMono-Bold-20" transform="translate(59.999985 0)"/>
     <use xlink:href="#JetBrainsMono-Bold-30" transform="translate(119.999969 0)"/>
    </g>
   </g>
  </g>
 </g>
 <defs>
  <clipPath id="p89384c6320">
   <rect x="55.296" y="55.44" width="490.752" height="269.28"/>
  </clipPath>
 </defs>
</svg>
