<?xml version="1.0" encoding="utf-8" standalone="no"?>
<!DOCTYPE svg PUBLIC "-//W3C//DTD SVG 1.1//EN"
  "http://www.w3.org/Graphics/SVG/1.1/DTD/svg11.dtd">
<svg xmlns:xlink="http://www.w3.org/1999/xlink" width="691.2pt" height="396pt" viewBox="0 0 691.2 396" xmlns="http://www.w3.org/2000/svg" version="1.1">
 <metadata>
  <rdf:RDF xmlns:dc="http://purl.org/dc/elements/1.1/" xmlns:cc="http://creativecommons.org/ns#" xmlns:rdf="http://www.w3.org/1999/02/22-rdf-syntax-ns#">
   <cc:Work>
    <dc:type rdf:resource="http://purl.org/dc/dcmitype/StillImage"/>
    <dc:date>2026-04-16T16:14:50.596883</dc:date>
    <dc:format>image/svg+xml</dc:format>
    <dc:creator>
     <cc:Agent>
      <dc:title>Matplotlib v3.10.8, https://matplotlib.org/</dc:title>
     </cc:Agent>
    </dc:creator>
   </cc:Work>
  </rdf:RDF>
 </metadata>
 <defs>
  <style type="text/css">*{stroke-linejoin: round; stroke-linecap: butt}</style>
 </defs>
 <g id="figure_1">
  <g id="patch_1">
   <path d="M 0 396 
L 691.2 396 
L 691.2 0 
L 0 0 
L 0 396 
z
" style="fill: none"/>
  </g>
  <g id="axes_1">
   <g id="patch_2">
    <path d="M 55.296 324.72 
L 546.048 324.72 
L 546.048 55.44 
L 55.296 55.44 
L 55.296 324.72 
z
" style="fill: none"/>
   </g>
   <g id="matplotlib.axis_1">
    <g id="xtick_1">
     <g id="line2d_1">
      <path d="M 69.729882 324.72 
L 69.729882 55.44 
" clip-path="url(#p7c79ec3793)" style="fill: none; stroke-dasharray: 2.22,0.96; stroke-dashoffset: 0; stroke: #e2d5f5; stroke-opacity: 0.7; stroke-width: 0.6"/>
     </g>
     <g id="line2d_2">
      <defs>
       <path id="m630b0cbdca" d="M 0 0 
L 0 3.5 
" style="stroke: #9b8bb8; stroke-width: 0.8"/>
      </defs>
      <g>
       <use xlink:href="#m630b0cbdca" x="69.729882" y="324.72" style="fill: #9b8bb8; stroke: #9b8bb8; stroke-width: 0.8"/>
      </g>
     </g>
     <g id="text_1">
      <!-- 03/31 -->
      <g style="fill: #9b8bb8" transform="translate(58.189501 353.301793) rotate(-30) scale(0.1 -0.1)">
       <defs>
        <path id="JetBrainsMono-Regular-30" d="M 1920 -64 
Q 1274 -64 893 310 
Q 512 685 512 1312 
L 512 3360 
Q 512 3987 893 4361 
Q 1274 4736 1920 4736 
Q 2566 4736 2947 4361 
Q 3328 3987 3328 3360 
L 3328 1312 
Q 3328 896 3155 585 
Q 2982 275 2665 105 
Q 2349 -64 1920 -64 
z
M 1920 429 
Q 2304 429 2537 675 
Q 2771 922 2771 1312 
L 2771 3360 
Q 2771 3750 2537 3996 
Q 2304 4243 1920 4243 
Q 1536 4243 1302 3996 
Q 1069 3750 1069 3360 
L 1069 1312 
Q 1069 922 1302 675 
Q 1536 429 1920 429 
z
M 1920 1984 
Q 1747 1984 1641 2080 
Q 1536 2176 1536 2355 
Q 1536 2528 1641 2621 
Q 1747 2714 1920 2714 
Q 2093 2714 2198 2621 
Q 2304 2528 2304 2355 
Q 2304 2176 2198 2080 
Q 2093 1984 1920 1984 
z
" transform="scale(0.015625)"/>
        <path id="JetBrainsMono-Regular-33" d="M 1850 -64 
Q 1203 -64 825 297 
Q 448 659 448 1280 
L 1024 1280 
Q 1024 896 1248 672 
Q 1472 448 1856 448 
Q 2240 448 2464 672 
Q 2688 896 2688 1280 
L 2688 1600 
Q 2688 1984 2464 2208 
Q 2240 2432 1856 2432 
L 1350 2432 
L 1350 2931 
L 2496 4147 
L 576 4147 
L 576 4672 
L 3149 4672 
L 3149 4134 
L 2022 2938 
Q 2598 2893 2931 2537 
Q 3264 2182 3264 1600 
L 3264 1280 
Q 3264 659 2883 297 
Q 2502 -64 1850 -64 
z
" transform="scale(0.015625)"/>
        <path id="JetBrainsMono-Regular-2f" d="M 480 -704 
L 2752 5312 
L 3360 5312 
L 1088 -704 
L 480 -704 
z
" transform="scale(0.015625)"/>
        <path id="JetBrainsMono-Regular-31" d="M 576 0 
L 576 525 
L 1843 525 
L 1843 4173 
L 576 3226 
L 576 3885 
L 1632 4672 
L 2419 4672 
L 2419 525 
L 3456 525 
L 3456 0 
L 576 0 
z
" transform="scale(0.015625)"/>
       </defs>
       <use xlink:href="#JetBrainsMono-Regular-30"/>
       <use xlink:href="#JetBrainsMono-Regular-33" transform="translate(59.999985 0)"/>
       <use xlink:href="#JetBrainsMono-Regular-2f" transform="translate(119.999969 0)"/>
       <use xlink:href="#JetBrainsMono-Regular-33" transform="translate(179.999954 0)"/>
       <use xlink:href="#JetBrainsMono-Regular-31" transform="translate(239.999939 0)"/>
      </g>
     </g>
    </g>
    <g id="xtick_2">
     <g id="line2d_3">
      <path d="M 127.465412 324.72 
L 127.465412 55.44 
" clip-path="url(#p7c79ec3793)" style="fill: none; stroke-dasharray: 2.22,0.96; stroke-dashoffset: 0; stroke: #e2d5f5; stroke-opacity: 0.7; stroke-width: 0.6"/>
     </g>
     <g id="line2d_4">
      <g>
       <use xlink:href="#m630b0cbdca" x="127.465412" y="324.72" style="fill: #9b8bb8; stroke: #9b8bb8; stroke-width: 0.8"/>
      </g>
     </g>
     <g id="text_2">
      <!-- 04/02 -->
      <g style="fill: #9b8bb8" transform="translate(115.925031 353.301793) rotate(-30) scale(0.1 -0.1)">
       <defs>
        <path id="JetBrainsMono-Regular-34" d="M 2560 0 
L 2560 1024 
L 448 1024 
L 448 1926 
L 2150 4672 
L 2803 4672 
L 1024 1798 
L 1024 1549 
L 2560 1549 
L 2560 2688 
L 3136 2688 
L 3136 0 
L 2560 0 
z
" transform="scale(0.015625)"/>
        <path id="JetBrainsMono-Regular-32" d="M 550 0 
L 550 531 
L 2106 2195 
Q 2445 2554 2585 2835 
Q 2726 3117 2726 3386 
Q 2726 3770 2505 3997 
Q 2285 4224 1907 4224 
Q 1517 4224 1289 3990 
Q 1062 3757 1062 3360 
L 486 3360 
Q 506 3994 890 4365 
Q 1274 4736 1907 4736 
Q 2554 4736 2934 4371 
Q 3315 4006 3315 3379 
Q 3315 3046 3132 2675 
Q 2950 2304 2509 1843 
L 1248 525 
L 3373 525 
L 3373 0 
L 550 0 
z
" transform="scale(0.015625)"/>
       </defs>
       <use xlink:href="#JetBrainsMono-Regular-30"/>
       <use xlink:href="#JetBrainsMono-Regular-34" transform="translate(59.999985 0)"/>
       <use xlink:href="#JetBrainsMono-Regular-2f" transform="translate(119.999969 0)"/>
       <use xlink:href="#JetBrainsMono-Regular-30" transform="translate(179.999954 0)"/>
       <use xlink:href="#JetBrainsMono-Regular-32" transform="translate(239.999939 0)"/>
      </g>
     </g>
    </g>
    <g id="xtick_3">
     <g id="line2d_5">
      <path d="M 185.200941 324.72 
L 185.200941 55.44 
" clip-path="url(#p7c79ec3793)" style="fill: none; stroke-dasharray: 2.22,0.96; stroke-dashoffset: 0; stroke: #e2d5f5; stroke-opacity: 0.7; stroke-width: 0.6"/>
     </g>
     <g id="line2d_6">
      <g>
       <use xlink:href="#m630b0cbdca" x="185.200941" y="324.72" style="fill: #9b8bb8; stroke: #9b8bb8; stroke-width: 0.8"/>
      </g>
     </g>
     <g id="text_3">
      <!-- 04/04 -->
      <g style="fill: #9b8bb8" transform="translate(173.66056 353.301793) rotate(-30) scale(0.1 -0.1)">
       <use xlink:href="#JetBrainsMono-Regular-30"/>
       <use xlink:href="#JetBrainsMono-Regular-34" transform="translate(59.999985 0)"/>
       <use xlink:href="#JetBrainsMono-Regular-2f" transform="translate(119.999969 0)"/>
       <use xlink:href="#JetBrainsMono-Regular-30" transform="translate(179.999954 0)"/>
       <use xlink:href="#JetBrainsMono-Regular-34" transform="translate(239.999939 0)"/>
      </g>
     </g>
    </g>
    <g id="xtick_4">
     <g id="line2d_7">
      <path d="M 242.936471 324.72 
L 242.936471 55.44 
" clip-path="url(#p7c79ec3793)" style="fill: none; stroke-dasharray: 2.22,0.96; stroke-dashoffset: 0; stroke: #e2d5f5; stroke-opacity: 0.7; stroke-width: 0.6"/>
     </g>
     <g id="line2d_8">
      <g>
       <use xlink:href="#m630b0cbdca" x="242.936471" y="324.72" style="fill: #9b8bb8; stroke: #9b8bb8; stroke-width: 0.8"/>
      </g>
     </g>
     <g id="text_4">
      <!-- 04/06 -->
      <g style="fill: #9b8bb8" transform="translate(231.39609 353.301793) rotate(-30) scale(0.1 -0.1)">
       <defs>
        <path id="JetBrainsMono-Regular-36" d="M 1926 -64 
Q 1478 -64 1136 125 
Q 794 314 602 650 
Q 410 986 410 1427 
Q 410 1734 525 2057 
Q 640 2381 838 2733 
L 1920 4672 
L 2560 4672 
L 1408 2669 
L 1427 2656 
Q 1510 2765 1676 2822 
Q 1843 2880 2042 2880 
Q 2458 2880 2768 2697 
Q 3078 2515 3254 2195 
Q 3430 1875 3430 1453 
Q 3430 1005 3238 662 
Q 3046 320 2710 128 
Q 2374 -64 1926 -64 
z
M 1920 448 
Q 2336 448 2595 723 
Q 2854 998 2854 1440 
Q 2854 1882 2595 2157 
Q 2336 2432 1920 2432 
Q 1504 2432 1245 2157 
Q 986 1882 986 1440 
Q 986 998 1245 723 
Q 1504 448 1920 448 
z
" transform="scale(0.015625)"/>
       </defs>
       <use xlink:href="#JetBrainsMono-Regular-30"/>
       <use xlink:href="#JetBrainsMono-Regular-34" transform="translate(59.999985 0)"/>
       <use xlink:href="#JetBrainsMono-Regular-2f" transform="translate(119.999969 0)"/>
       <use xlink:href="#JetBrainsMono-Regular-30" transform="translate(179.999954 0)"/>
       <use xlink:href="#JetBrainsMono-Regular-36" transform="translate(239.999939 0)"/>
      </g>
     </g>
    </g>
    <g id="xtick_5">
     <g id="line2d_9">
      <path d="M 300.672 324.72 
L 300.672 55.44 
" clip-path="url(#p7c79ec3793)" style="fill: none; stroke-dasharray: 2.22,0.96; stroke-dashoffset: 0; stroke: #e2d5f5; stroke-opacity: 0.7; stroke-width: 0.6"/>
     </g>
     <g id="line2d_10">
      <g>
       <use xlink:href="#m630b0cbdca" x="300.672" y="324.72" style="fill: #9b8bb8; stroke: #9b8bb8; stroke-width: 0.8"/>
      </g>
     </g>
     <g id="text_5">
      <!-- 04/08 -->
      <g style="fill: #9b8bb8" transform="translate(289.131619 353.301793) rotate(-30) scale(0.1 -0.1)">
       <defs>
        <path id="JetBrainsMono-Regular-38" d="M 1920 -64 
Q 1478 -64 1139 109 
Q 800 282 611 592 
Q 422 902 422 1306 
Q 422 1747 675 2067 
Q 928 2387 1350 2458 
L 1350 2477 
Q 986 2560 768 2845 
Q 550 3130 550 3501 
Q 550 3866 723 4144 
Q 896 4422 1206 4579 
Q 1517 4736 1920 4736 
Q 2330 4736 2637 4579 
Q 2944 4422 3117 4144 
Q 3290 3866 3290 3501 
Q 3290 3130 3072 2845 
Q 2854 2560 2490 2477 
L 2490 2458 
Q 2912 2387 3165 2067 
Q 3418 1747 3418 1306 
Q 3418 902 3229 592 
Q 3040 282 2704 109 
Q 2368 -64 1920 -64 
z
M 1920 2701 
Q 2278 2701 2496 2912 
Q 2714 3123 2714 3462 
Q 2714 3802 2496 4013 
Q 2278 4224 1920 4224 
Q 1568 4224 1347 4013 
Q 1126 3802 1126 3462 
Q 1126 3123 1347 2912 
Q 1568 2701 1920 2701 
z
M 1920 454 
Q 2330 454 2586 694 
Q 2842 934 2842 1318 
Q 2842 1709 2586 1949 
Q 2330 2189 1920 2189 
Q 1510 2189 1254 1949 
Q 998 1709 998 1318 
Q 998 934 1254 694 
Q 1510 454 1920 454 
z
" transform="scale(0.015625)"/>
       </defs>
       <use xlink:href="#JetBrainsMono-Regular-30"/>
       <use xlink:href="#JetBrainsMono-Regular-34" transform="translate(59.999985 0)"/>
       <use xlink:href="#JetBrainsMono-Regular-2f" transform="translate(119.999969 0)"/>
       <use xlink:href="#JetBrainsMono-Regular-30" transform="translate(179.999954 0)"/>
       <use xlink:href="#JetBrainsMono-Regular-38" transform="translate(239.999939 0)"/>
      </g>
     </g>
    </g>
    <g id="xtick_6">
     <g id="line2d_11">
      <path d="M 358.407529 324.72 
L 358.407529 55.44 
" clip-path="url(#p7c79ec3793)" style="fill: none; stroke-dasharray: 2.22,0.96; stroke-dashoffset: 0; stroke: #e2d5f5; stroke-opacity: 0.7; stroke-width: 0.6"/>
     </g>
     <g id="line2d_12">
      <g>
       <use xlink:href="#m630b0cbdca" x="358.407529" y="324.72" style="fill: #9b8bb8; stroke: #9b8bb8; stroke-width: 0.8"/>
      </g>
     </g>
     <g id="text_6">
      <!-- 04/10 -->
      <g style="fill: #9b8bb8" transform="translate(346.867148 353.301793) rotate(-30) scale(0.1 -0.1)">
       <use xlink:href="#JetBrainsMono-Regular-30"/>
       <use xlink:href="#JetBrainsMono-Regular-34" transform="translate(59.999985 0)"/>
       <use xlink:href="#JetBrainsMono-Regular-2f" transform="translate(119.999969 0)"/>
       <use xlink:href="#JetBrainsMono-Regular-31" transform="translate(179.999954 0)"/>
       <use xlink:href="#JetBrainsMono-Regular-30" transform="translate(239.999939 0)"/>
      </g>
     </g>
    </g>
    <g id="xtick_7">
     <g id="line2d_13">
      <path d="M 416.143059 324.72 
L 416.143059 55.44 
" clip-path="url(#p7c79ec3793)" style="fill: none; stroke-dasharray: 2.22,0.96; stroke-dashoffset: 0; stroke: #e2d5f5; stroke-opacity: 0.7; stroke-width: 0.6"/>
     </g>
     <g id="line2d_14">
      <g>
       <use xlink:href="#m630b0cbdca" x="416.143059" y="324.72" style="fill: #9b8bb8; stroke: #9b8bb8; stroke-width: 0.8"/>
      </g>
     </g>
     <g id="text_7">
      <!-- 04/12 -->
      <g style="fill: #9b8bb8" transform="translate(404.602678 353.301793) rotate(-30) scale(0.1 -0.1)">
       <use xlink:href="#JetBrainsMono-Regular-30"/>
       <use xlink:href="#JetBrainsMono-Regular-34" transform="translate(59.999985 0)"/>
       <use xlink:href="#JetBrainsMono-Regular-2f" transform="translate(119.999969 0)"/>
       <use xlink:href="#JetBrainsMono-Regular-31" transform="translate(179.999954 0)"/>
       <use xlink:href="#JetBrainsMono-Regular-32" transform="translate(239.999939 0)"/>
      </g>
     </g>
    </g>
    <g id="xtick_8">
     <g id="line2d_15">
      <path d="M 473.878588 324.72 
L 473.878588 55.44 
" clip-path="url(#p7c79ec3793)" style="fill: none; stroke-dasharray: 2.22,0.96; stroke-dashoffset: 0; stroke: #e2d5f5; stroke-opacity: 0.7; stroke-width: 0.6"/>
     </g>
     <g id="line2d_16">
      <g>
       <use xlink:href="#m630b0cbdca" x="473.878588" y="324.72" style="fill: #9b8bb8; stroke: #9b8bb8; stroke-width: 0.8"/>
      </g>
     </g>
     <g id="text_8">
      <!-- 04/14 -->
      <g style="fill: #9b8bb8" transform="translate(462.338207 353.301793) rotate(-30) scale(0.1 -0.1)">
       <use xlink:href="#JetBrainsMono-Regular-30"/>
       <use xlink:href="#JetBrainsMono-Regular-34" transform="translate(59.999985 0)"/>
       <use xlink:href="#JetBrainsMono-Regular-2f" transform="translate(119.999969 0)"/>
       <use xlink:href="#JetBrainsMono-Regular-31" transform="translate(179.999954 0)"/>
       <use xlink:href="#JetBrainsMono-Regular-34" transform="translate(239.999939 0)"/>
      </g>
     </g>
    </g>
    <g id="xtick_9">
     <g id="line2d_17">
      <path d="M 531.614118 324.72 
L 531.614118 55.44 
" clip-path="url(#p7c79ec3793)" style="fill: none; stroke-dasharray: 2.22,0.96; stroke-dashoffset: 0; stroke: #e2d5f5; stroke-opacity: 0.7; stroke-width: 0.6"/>
     </g>
     <g id="line2d_18">
      <g>
       <use xlink:href="#m630b0cbdca" x="531.614118" y="324.72" style="fill: #9b8bb8; stroke: #9b8bb8; stroke-width: 0.8"/>
      </g>
     </g>
     <g id="text_9">
      <!-- 04/16 -->
      <g style="fill: #9b8bb8" transform="translate(520.073737 353.301793) rotate(-30) scale(0.1 -0.1)">
       <use xlink:href="#JetBrainsMono-Regular-30"/>
       <use xlink:href="#JetBrainsMono-Regular-34" transform="translate(59.999985 0)"/>
       <use xlink:href="#JetBrainsMono-Regular-2f" transform="translate(119.999969 0)"/>
       <use xlink:href="#JetBrainsMono-Regular-31" transform="translate(179.999954 0)"/>
       <use xlink:href="#JetBrainsMono-Regular-36" transform="translate(239.999939 0)"/>
      </g>
     </g>
    </g>
   </g>
   <g id="matplotlib.axis_2">
    <g id="ytick_1">
     <g id="line2d_19">
      <path d="M 55.296 310.019131 
L 546.048 310.019131 
" clip-path="url(#p7c79ec3793)" style="fill: none; stroke-dasharray: 2.22,0.96; stroke-dashoffset: 0; stroke: #e2d5f5; stroke-opacity: 0.7; stroke-width: 0.6"/>
     </g>
     <g id="line2d_20">
      <defs>
       <path id="m923c23b76b" d="M 0 0 
L -3.5 0 
" style="stroke: #9b8bb8; stroke-width: 0.8"/>
      </defs>
      <g>
       <use xlink:href="#m923c23b76b" x="55.296" y="310.019131" style="fill: #9b8bb8; stroke: #9b8bb8; stroke-width: 0.8"/>
      </g>
     </g>
     <g id="text_10">
      <!-- 200 -->
      <g style="fill: #9b8bb8" transform="translate(30.296 313.669131) scale(0.1 -0.1)">
       <use xlink:href="#JetBrainsMono-Regular-32"/>
       <use xlink:href="#JetBrainsMono-Regular-30" transform="translate(59.999985 0)"/>
       <use xlink:href="#JetBrainsMono-Regular-30" transform="translate(119.999969 0)"/>
      </g>
     </g>
    </g>
    <g id="ytick_2">
     <g id="line2d_21">
      <path d="M 55.296 273.266957 
L 546.048 273.266957 
" clip-path="url(#p7c79ec3793)" style="fill: none; stroke-dasharray: 2.22,0.96; stroke-dashoffset: 0; stroke: #e2d5f5; stroke-opacity: 0.7; stroke-width: 0.6"/>
     </g>
     <g id="line2d_22">
      <g>
       <use xlink:href="#m923c23b76b" x="55.296" y="273.266957" style="fill: #9b8bb8; stroke: #9b8bb8; stroke-width: 0.8"/>
      </g>
     </g>
     <g id="text_11">
      <!-- 210 -->
      <g style="fill: #9b8bb8" transform="translate(30.296 276.916957) scale(0.1 -0.1)">
       <use xlink:href="#JetBrainsMono-Regular-32"/>
       <use xlink:href="#JetBrainsMono-Regular-31" transform="translate(59.999985 0)"/>
       <use xlink:href="#JetBrainsMono-Regular-30" transform="translate(119.999969 0)"/>
      </g>
     </g>
    </g>
    <g id="ytick_3">
     <g id="line2d_23">
      <path d="M 55.296 236.514784 
L 546.048 236.514784 
" clip-path="url(#p7c79ec3793)" style="fill: none; stroke-dasharray: 2.22,0.96; stroke-dashoffset: 0; stroke: #e2d5f5; stroke-opacity: 0.7; stroke-width: 0.6"/>
     </g>
     <g id="line2d_24">
      <g>
       <use xlink:href="#m923c23b76b" x="55.296" y="236.514784" style="fill: #9b8bb8; stroke: #9b8bb8; stroke-width: 0.8"/>
      </g>
     </g>
     <g id="text_12">
      <!-- 220 -->
      <g style="fill: #9b8bb8" transform="translate(30.296 240.164784) scale(0.1 -0.1)">
       <use xlink:href="#JetBrainsMono-Regular-32"/>
       <use xlink:href="#JetBrainsMono-Regular-32" transform="translate(59.999985 0)"/>
       <use xlink:href="#JetBrainsMono-Regular-30" transform="translate(119.999969 0)"/>
      </g>
     </g>
    </g>
    <g id="ytick_4">
     <g id="line2d_25">
      <path d="M 55.296 199.76261 
L 546.048 199.76261 
" clip-path="url(#p7c79ec3793)" style="fill: none; stroke-dasharray: 2.22,0.96; stroke-dashoffset: 0; stroke: #e2d5f5; stroke-opacity: 0.7; stroke-width: 0.6"/>
     </g>
     <g id="line2d_26">
      <g>
       <use xlink:href="#m923c23b76b" x="55.296" y="199.76261" style="fill: #9b8bb8; stroke: #9b8bb8; stroke-width: 0.8"/>
      </g>
     </g>
     <g id="text_13">
      <!-- 230 -->
      <g style="fill: #9b8bb8" transform="translate(30.296 203.41261) scale(0.1 -0.1)">
       <use xlink:href="#JetBrainsMono-Regular-32"/>
       <use xlink:href="#JetBrainsMono-Regular-33" transform="translate(59.999985 0)"/>
       <use xlink:href="#JetBrainsMono-Regular-30" transform="translate(119.999969 0)"/>
      </g>
     </g>
    </g>
    <g id="ytick_5">
     <g id="line2d_27">
      <path d="M 55.296 163.010437 
L 546.048 163.010437 
" clip-path="url(#p7c79ec3793)" style="fill: none; stroke-dasharray: 2.22,0.96; stroke-dashoffset: 0; stroke: #e2d5f5; stroke-opacity: 0.7; stroke-width: 0.6"/>
     </g>
     <g id="line2d_28">
      <g>
       <use xlink:href="#m923c23b76b" x="55.296" y="163.010437" style="fill: #9b8bb8; stroke: #9b8bb8; stroke-width: 0.8"/>
      </g>
     </g>
     <g id="text_14">
      <!-- 240 -->
      <g style="fill: #9b8bb8" transform="translate(30.296 166.660437) scale(0.1 -0.1)">
       <use xlink:href="#JetBrainsMono-Regular-32"/>
       <use xlink:href="#JetBrainsMono-Regular-34" transform="translate(59.999985 0)"/>
       <use xlink:href="#JetBrainsMono-Regular-30" transform="translate(119.999969 0)"/>
      </g>
     </g>
    </g>
    <g id="ytick_6">
     <g id="line2d_29">
      <path d="M 55.296 126.258263 
L 546.048 126.258263 
" clip-path="url(#p7c79ec3793)" style="fill: none; stroke-dasharray: 2.22,0.96; stroke-dashoffset: 0; stroke: #e2d5f5; stroke-opacity: 0.7; stroke-width: 0.6"/>
     </g>
     <g id="line2d_30">
      <g>
       <use xlink:href="#m923c23b76b" x="55.296" y="126.258263" style="fill: #9b8bb8; stroke: #9b8bb8; stroke-width: 0.8"/>
      </g>
     </g>
     <g id="text_15">
      <!-- 250 -->
      <g style="fill: #9b8bb8" transform="translate(30.296 129.908263) scale(0.1 -0.1)">
       <defs>
        <path id="JetBrainsMono-Regular-35" d="M 1882 -64 
Q 1235 -64 857 297 
Q 480 659 480 1280 
L 1056 1280 
Q 1056 896 1280 672 
Q 1504 448 1888 448 
Q 2272 448 2496 672 
Q 2720 896 2720 1280 
L 2720 1568 
Q 2720 1952 2502 2176 
Q 2285 2400 1914 2400 
L 640 2400 
L 640 4672 
L 3130 4672 
L 3130 4147 
L 1178 4147 
L 1190 2925 
L 1946 2925 
Q 2592 2925 2944 2569 
Q 3296 2214 3296 1568 
L 3296 1280 
Q 3296 659 2915 297 
Q 2534 -64 1882 -64 
z
" transform="scale(0.015625)"/>
       </defs>
       <use xlink:href="#JetBrainsMono-Regular-32"/>
       <use xlink:href="#JetBrainsMono-Regular-35" transform="translate(59.999985 0)"/>
       <use xlink:href="#JetBrainsMono-Regular-30" transform="translate(119.999969 0)"/>
      </g>
     </g>
    </g>
    <g id="ytick_7">
     <g id="line2d_31">
      <path d="M 55.296 89.50609 
L 546.048 89.50609 
" clip-path="url(#p7c79ec3793)" style="fill: none; stroke-dasharray: 2.22,0.96; stroke-dashoffset: 0; stroke: #e2d5f5; stroke-opacity: 0.7; stroke-width: 0.6"/>
     </g>
     <g id="line2d_32">
      <g>
       <use xlink:href="#m923c23b76b" x="55.296" y="89.50609" style="fill: #9b8bb8; stroke: #9b8bb8; stroke-width: 0.8"/>
      </g>
     </g>
     <g id="text_16">
      <!-- 260 -->
      <g style="fill: #9b8bb8" transform="translate(30.296 93.15609) scale(0.1 -0.1)">
       <use xlink:href="#JetBrainsMono-Regular-32"/>
       <use xlink:href="#JetBrainsMono-Regular-36" transform="translate(59.999985 0)"/>
       <use xlink:href="#JetBrainsMono-Regular-30" transform="translate(119.999969 0)"/>
      </g>
     </g>
    </g>
    <g id="text_17">
     <!-- Rating -->
     <g style="fill: #9b8bb8" transform="translate(24.496 208.08) rotate(-90) scale(0.1 -0.1)">
      <defs>
       <path id="JetBrainsMono-Regular-52" d="M 595 0 
L 595 4672 
L 2035 4672 
Q 2451 4672 2764 4502 
Q 3078 4333 3251 4032 
Q 3424 3731 3424 3328 
Q 3424 2854 3181 2515 
Q 2938 2176 2534 2042 
L 3488 0 
L 2854 0 
L 1939 1984 
L 1165 1984 
L 1165 0 
L 595 0 
z
M 1165 2502 
L 2035 2502 
Q 2394 2502 2611 2729 
Q 2829 2957 2829 3328 
Q 2829 3706 2611 3930 
Q 2394 4154 2035 4154 
L 1165 4154 
L 1165 2502 
z
" transform="scale(0.015625)"/>
       <path id="JetBrainsMono-Regular-61" d="M 1613 -64 
Q 1069 -64 749 240 
Q 429 544 429 1037 
Q 429 1363 576 1606 
Q 723 1850 985 1987 
Q 1248 2125 1587 2125 
L 2675 2125 
L 2675 2400 
Q 2675 3085 1926 3085 
Q 1594 3085 1389 2963 
Q 1184 2842 1171 2624 
L 595 2624 
Q 627 3040 982 3312 
Q 1338 3584 1926 3584 
Q 2566 3584 2908 3277 
Q 3251 2970 3251 2419 
L 3251 0 
L 2682 0 
L 2682 640 
L 2669 640 
Q 2618 314 2342 125 
Q 2067 -64 1613 -64 
z
M 1754 422 
Q 2176 422 2425 627 
Q 2675 832 2675 1184 
L 2675 1677 
L 1651 1677 
Q 1370 1677 1194 1507 
Q 1018 1338 1018 1056 
Q 1018 762 1213 592 
Q 1408 422 1754 422 
z
" transform="scale(0.015625)"/>
       <path id="JetBrainsMono-Regular-74" d="M 2272 0 
Q 1837 0 1574 253 
Q 1312 506 1312 928 
L 1312 2995 
L 301 2995 
L 301 3520 
L 1312 3520 
L 1312 4512 
L 1888 4512 
L 1888 3520 
L 3328 3520 
L 3328 2995 
L 1888 2995 
L 1888 928 
Q 1888 749 1993 637 
Q 2099 525 2272 525 
L 3296 525 
L 3296 0 
L 2272 0 
z
" transform="scale(0.015625)"/>
       <path id="JetBrainsMono-Regular-69" d="M 544 0 
L 544 525 
L 1792 525 
L 1792 2995 
L 672 2995 
L 672 3520 
L 2368 3520 
L 2368 525 
L 3552 525 
L 3552 0 
L 544 0 
z
M 2016 4154 
Q 1805 4154 1683 4262 
Q 1562 4371 1562 4557 
Q 1562 4749 1683 4861 
Q 1805 4973 2016 4973 
Q 2227 4973 2348 4861 
Q 2470 4749 2470 4557 
Q 2470 4371 2348 4262 
Q 2227 4154 2016 4154 
z
" transform="scale(0.015625)"/>
       <path id="JetBrainsMono-Regular-6e" d="M 589 0 
L 589 3520 
L 1165 3520 
L 1165 2848 
L 1171 2848 
Q 1216 3200 1459 3392 
Q 1702 3584 2106 3584 
Q 2637 3584 2950 3257 
Q 3264 2931 3264 2368 
L 3264 0 
L 2688 0 
L 2688 2266 
Q 2688 2669 2486 2883 
Q 2285 3098 1939 3098 
Q 1581 3098 1373 2874 
Q 1165 2650 1165 2240 
L 1165 0 
L 589 0 
z
" transform="scale(0.015625)"/>
       <path id="JetBrainsMono-Regular-67" d="M 1030 -1152 
L 1030 -627 
L 2022 -627 
Q 2323 -627 2496 -457 
Q 2669 -288 2669 0 
L 2669 320 
L 2682 896 
L 2662 896 
Q 2611 582 2361 412 
Q 2112 243 1734 243 
Q 1190 243 876 588 
Q 563 934 563 1536 
L 563 2278 
Q 563 2880 876 3232 
Q 1190 3584 1734 3584 
Q 2112 3584 2361 3405 
Q 2611 3226 2662 2912 
L 2675 2912 
L 2675 3520 
L 3245 3520 
L 3245 0 
Q 3245 -531 2915 -841 
Q 2586 -1152 2016 -1152 
L 1030 -1152 
z
M 1907 723 
Q 2266 723 2470 947 
Q 2675 1171 2675 1568 
L 2675 2240 
Q 2675 2637 2470 2861 
Q 2266 3085 1907 3085 
Q 1542 3085 1340 2873 
Q 1139 2662 1139 2304 
L 1139 1504 
Q 1139 1146 1340 934 
Q 1542 723 1907 723 
z
" transform="scale(0.015625)"/>
      </defs>
      <use xlink:href="#JetBrainsMono-Regular-52"/>
      <use xlink:href="#JetBrainsMono-Regular-61" transform="translate(59.999985 0)"/>
      <use xlink:href="#JetBrainsMono-Regular-74" transform="translate(119.999969 0)"/>
      <use xlink:href="#JetBrainsMono-Regular-69" transform="translate(179.999954 0)"/>
      <use xlink:href="#JetBrainsMono-Regular-6e" transform="translate(239.999939 0)"/>
      <use xlink:href="#JetBrainsMono-Regular-67" transform="translate(299.999924 0)"/>
     </g>
    </g>
   </g>
   <g id="patch_3">
    <path d="M 55.296 324.72 
L 55.296 55.44 
" style="fill: none; stroke: #d8c8ef; stroke-width: 0.8; stroke-linejoin: miter; stroke-linecap: square"/>
   </g>
   <g id="patch_4">
    <path d="M 55.296 324.72 
L 546.048 324.72 
" style="fill: none; stroke: #d8c8ef; stroke-width: 0.8; stroke-linejoin: miter; stroke-linecap: square"/>
   </g>
   <g id="FillBetweenPolyCollection_1">
    <defs>
     <path id="m7decfa3dcf" d="M 69.729882 -71.28 
L 69.729882 -89.656087 
L 71.274646 -91.219999 
L 72.819409 -92.525947 
L 74.364172 -93.588514 
L 75.908936 -94.422285 
L 77.453699 -95.041845 
L 78.998462 -95.461779 
L 80.543226 -95.696671 
L 82.087989 -95.761105 
L 83.632752 -95.669666 
L 85.177516 -95.43694 
L 86.722279 -95.077509 
L 88.267042 -94.60596 
L 89.811806 -94.036876 
L 91.356569 -93.384842 
L 92.901332 -92.664443 
L 94.446096 -91.890264 
L 95.990859 -91.076888 
L 97.535622 -90.238901 
L 99.080386 -89.390886 
L 100.625149 -88.54743 
L 102.169912 -87.723116 
L 103.714676 -86.932528 
L 105.259439 -86.190253 
L 106.804202 -85.510873 
L 108.348966 -84.908974 
L 109.893729 -84.39914 
L 111.438492 -83.995955 
L 112.983256 -83.714006 
L 114.528019 -83.567875 
L 116.072782 -83.572148 
L 117.617546 -83.741409 
L 119.162309 -84.090243 
L 120.707072 -84.633234 
L 122.251836 -85.384967 
L 123.796599 -86.360026 
L 125.341362 -87.572997 
L 126.886126 -89.038464 
L 128.430889 -90.769237 
L 129.975652 -92.754054 
L 131.520416 -94.964301 
L 133.065179 -97.370981 
L 134.609942 -99.945097 
L 136.154705 -102.657653 
L 137.699469 -105.479652 
L 139.244232 -108.382098 
L 140.788995 -111.335993 
L 142.333759 -114.312341 
L 143.878522 -117.282145 
L 145.423285 -120.216409 
L 146.968049 -123.086135 
L 148.512812 -125.862328 
L 150.057575 -128.515989 
L 151.602339 -131.018124 
L 153.147102 -133.339734 
L 154.691865 -135.451823 
L 156.236629 -137.325395 
L 157.781392 -138.938224 
L 159.326155 -140.300767 
L 160.870919 -141.433329 
L 162.415682 -142.356218 
L 163.960445 -143.089742 
L 165.505209 -143.654209 
L 167.049972 -144.069926 
L 168.594735 -144.357201 
L 170.139499 -144.536342 
L 171.684262 -144.627656 
L 173.229025 -144.65145 
L 174.773789 -144.628033 
L 176.318552 -144.577713 
L 177.863315 -144.520796 
L 179.408079 -144.47759 
L 180.952842 -144.468404 
L 182.497605 -144.513545 
L 184.042369 -144.63332 
L 185.587132 -144.847963 
L 187.131895 -145.16869 
L 188.676659 -145.589205 
L 190.221422 -146.101201 
L 191.766185 -146.696369 
L 193.310949 -147.366403 
L 194.855712 -148.102995 
L 196.400475 -148.897836 
L 197.945239 -149.742619 
L 199.490002 -150.629037 
L 201.034765 -151.548781 
L 202.579529 -152.493544 
L 204.124292 -153.455019 
L 205.669055 -154.424897 
L 207.213819 -155.394871 
L 208.758582 -156.356634 
L 210.303345 -157.301876 
L 211.848109 -158.222292 
L 213.392872 -159.109573 
L 214.937635 -159.95574 
L 216.482399 -160.758552 
L 218.027162 -161.520641 
L 219.571925 -162.244792 
L 221.116689 -162.933792 
L 222.661452 -163.590428 
L 224.206215 -164.217485 
L 225.750979 -164.817751 
L 227.295742 -165.39401 
L 228.840505 -165.94905 
L 230.385269 -166.485657 
L 231.930032 -167.006617 
L 233.474795 -167.514717 
L 235.019559 -168.012742 
L 236.564322 -168.50348 
L 238.109085 -168.989716 
L 239.653849 -169.474236 
L 241.198612 -169.959828 
L 242.743375 -170.449277 
L 244.288139 -170.945874 
L 245.832902 -171.455851 
L 247.377665 -171.986506 
L 248.922428 -172.545138 
L 250.467192 -173.139047 
L 252.011955 -173.775532 
L 253.556718 -174.461893 
L 255.101482 -175.205427 
L 256.646245 -176.013436 
L 258.191008 -176.893218 
L 259.735772 -177.852072 
L 261.280535 -178.897298 
L 262.825298 -180.036195 
L 264.370062 -181.276062 
L 265.914825 -182.624198 
L 267.459588 -184.087904 
L 269.004352 -185.674477 
L 270.549115 -187.391218 
L 272.093878 -189.245398 
L 273.638642 -191.237208 
L 275.183405 -193.350486 
L 276.728168 -195.566762 
L 278.272932 -197.867571 
L 279.817695 -200.234443 
L 281.362458 -202.648912 
L 282.907222 -205.092509 
L 284.451985 -207.546766 
L 285.996748 -209.993218 
L 287.541512 -212.413394 
L 289.086275 -214.788828 
L 290.631038 -217.101053 
L 292.175802 -219.3316 
L 293.720565 -221.462001 
L 295.265328 -223.47379 
L 296.810092 -225.348498 
L 298.354855 -227.067658 
L 299.899618 -228.612801 
L 301.444382 -229.966177 
L 302.989145 -231.126494 
L 304.533908 -232.108925 
L 306.078672 -232.929357 
L 307.623435 -233.603677 
L 309.168198 -234.147772 
L 310.712962 -234.577531 
L 312.257725 -234.908839 
L 313.802488 -235.157585 
L 315.347252 -235.339656 
L 316.892015 -235.470938 
L 318.436778 -235.567321 
L 319.981542 -235.64469 
L 321.526305 -235.718934 
L 323.071068 -235.805939 
L 324.615832 -235.921593 
L 326.160595 -236.081783 
L 327.705358 -236.302397 
L 329.250122 -236.599322 
L 330.794885 -236.986317 
L 332.339648 -237.462034 
L 333.884412 -238.018585 
L 335.429175 -238.648057 
L 336.973938 -239.342536 
L 338.518702 -240.09411 
L 340.063465 -240.894865 
L 341.608228 -241.736887 
L 343.152992 -242.612264 
L 344.697755 -243.513082 
L 346.242518 -244.431427 
L 347.787282 -245.359387 
L 349.332045 -246.289047 
L 350.876808 -247.212496 
L 352.421572 -248.121818 
L 353.966335 -249.009102 
L 355.511098 -249.866434 
L 357.055861 -250.6859 
L 358.600625 -251.459591 
L 360.145388 -252.182795 
L 361.690151 -252.859629 
L 363.234915 -253.495722 
L 364.779678 -254.096702 
L 366.324441 -254.6682 
L 367.869205 -255.215843 
L 369.413968 -255.745263 
L 370.958731 -256.262086 
L 372.503495 -256.771943 
L 374.048258 -257.280463 
L 375.593021 -257.793275 
L 377.137785 -258.316007 
L 378.682548 -258.85429 
L 380.227311 -259.413751 
L 381.772075 -260.000021 
L 383.316838 -260.618729 
L 384.861601 -261.275503 
L 386.406365 -261.975972 
L 387.951128 -262.725626 
L 389.495891 -263.525517 
L 391.040655 -264.371479 
L 392.585418 -265.259046 
L 394.130181 -266.183751 
L 395.674945 -267.141127 
L 397.219708 -268.126709 
L 398.764471 -269.13603 
L 400.309235 -270.164623 
L 401.853998 -271.208023 
L 403.398761 -272.261763 
L 404.943525 -273.321377 
L 406.488288 -274.382397 
L 408.033051 -275.440359 
L 409.577815 -276.490796 
L 411.122578 -277.529241 
L 412.667341 -278.551228 
L 414.212105 -279.55229 
L 415.756868 -280.527961 
L 417.301631 -281.474475 
L 418.846395 -282.39415 
L 420.391158 -283.292438 
L 421.935921 -284.174818 
L 423.480685 -285.046768 
L 425.025448 -285.913767 
L 426.570211 -286.781293 
L 428.114975 -287.654824 
L 429.659738 -288.539839 
L 431.204501 -289.441817 
L 432.749265 -290.366234 
L 434.294028 -291.318571 
L 435.838791 -292.304305 
L 437.383555 -293.328915 
L 438.928318 -294.397879 
L 440.473081 -295.516675 
L 442.017845 -296.690783 
L 443.562608 -297.925679 
L 445.107371 -299.226843 
L 446.652135 -300.596521 
L 448.196898 -302.026246 
L 449.741661 -303.505328 
L 451.286425 -305.023077 
L 452.831188 -306.568805 
L 454.375951 -308.131822 
L 455.920715 -309.701438 
L 457.465478 -311.266965 
L 459.010241 -312.817713 
L 460.555005 -314.342993 
L 462.099768 -315.832115 
L 463.644531 -317.27439 
L 465.189295 -318.659129 
L 466.734058 -319.975643 
L 468.278821 -321.213241 
L 469.823584 -322.361236 
L 471.368348 -323.408937 
L 472.913111 -324.345656 
L 474.457874 -325.160857 
L 476.002638 -325.850995 
L 477.547401 -326.422224 
L 479.092164 -326.881412 
L 480.636928 -327.235429 
L 482.181691 -327.491142 
L 483.726454 -327.65542 
L 485.271218 -327.735131 
L 486.815981 -327.737143 
L 488.360744 -327.668325 
L 489.905508 -327.535545 
L 491.450271 -327.345672 
L 492.995034 -327.105574 
L 494.539798 -326.822119 
L 496.084561 -326.502176 
L 497.629324 -326.152613 
L 499.174088 -325.780299 
L 500.718851 -325.392101 
L 502.263614 -324.994889 
L 503.808378 -324.59553 
L 505.353141 -324.200893 
L 506.897904 -323.817847 
L 508.442668 -323.453259 
L 509.987431 -323.113999 
L 511.532194 -322.806934 
L 513.076958 -322.538933 
L 514.621721 -322.316864 
L 516.166484 -322.147596 
L 517.711248 -322.037997 
L 519.256011 -321.994936 
L 520.800774 -322.02528 
L 522.345538 -322.135899 
L 523.890301 -322.33366 
L 525.435064 -322.625432 
L 526.979828 -323.018083 
L 528.524591 -323.518482 
L 530.069354 -324.133497 
L 531.614118 -324.869997 
L 531.614118 -71.28 
L 531.614118 -71.28 
L 530.069354 -71.28 
L 528.524591 -71.28 
L 526.979828 -71.28 
L 525.435064 -71.28 
L 523.890301 -71.28 
L 522.345538 -71.28 
L 520.800774 -71.28 
L 519.256011 -71.28 
L 517.711248 -71.28 
L 516.166484 -71.28 
L 514.621721 -71.28 
L 513.076958 -71.28 
L 511.532194 -71.28 
L 509.987431 -71.28 
L 508.442668 -71.28 
L 506.897904 -71.28 
L 505.353141 -71.28 
L 503.808378 -71.28 
L 502.263614 -71.28 
L 500.718851 -71.28 
L 499.174088 -71.28 
L 497.629324 -71.28 
L 496.084561 -71.28 
L 494.539798 -71.28 
L 492.995034 -71.28 
L 491.450271 -71.28 
L 489.905508 -71.28 
L 488.360744 -71.28 
L 486.815981 -71.28 
L 485.271218 -71.28 
L 483.726454 -71.28 
L 482.181691 -71.28 
L 480.636928 -71.28 
L 479.092164 -71.28 
L 477.547401 -71.28 
L 476.002638 -71.28 
L 474.457874 -71.28 
L 472.913111 -71.28 
L 471.368348 -71.28 
L 469.823584 -71.28 
L 468.278821 -71.28 
L 466.734058 -71.28 
L 465.189295 -71.28 
L 463.644531 -71.28 
L 462.099768 -71.28 
L 460.555005 -71.28 
L 459.010241 -71.28 
L 457.465478 -71.28 
L 455.920715 -71.28 
L 454.375951 -71.28 
L 452.831188 -71.28 
L 451.286425 -71.28 
L 449.741661 -71.28 
L 448.196898 -71.28 
L 446.652135 -71.28 
L 445.107371 -71.28 
L 443.562608 -71.28 
L 442.017845 -71.28 
L 440.473081 -71.28 
L 438.928318 -71.28 
L 437.383555 -71.28 
L 435.838791 -71.28 
L 434.294028 -71.28 
L 432.749265 -71.28 
L 431.204501 -71.28 
L 429.659738 -71.28 
L 428.114975 -71.28 
L 426.570211 -71.28 
L 425.025448 -71.28 
L 423.480685 -71.28 
L 421.935921 -71.28 
L 420.391158 -71.28 
L 418.846395 -71.28 
L 417.301631 -71.28 
L 415.756868 -71.28 
L 414.212105 -71.28 
L 412.667341 -71.28 
L 411.122578 -71.28 
L 409.577815 -71.28 
L 408.033051 -71.28 
L 406.488288 -71.28 
L 404.943525 -71.28 
L 403.398761 -71.28 
L 401.853998 -71.28 
L 400.309235 -71.28 
L 398.764471 -71.28 
L 397.219708 -71.28 
L 395.674945 -71.28 
L 394.130181 -71.28 
L 392.585418 -71.28 
L 391.040655 -71.28 
L 389.495891 -71.28 
L 387.951128 -71.28 
L 386.406365 -71.28 
L 384.861601 -71.28 
L 383.316838 -71.28 
L 381.772075 -71.28 
L 380.227311 -71.28 
L 378.682548 -71.28 
L 377.137785 -71.28 
L 375.593021 -71.28 
L 374.048258 -71.28 
L 372.503495 -71.28 
L 370.958731 -71.28 
L 369.413968 -71.28 
L 367.869205 -71.28 
L 366.324441 -71.28 
L 364.779678 -71.28 
L 363.234915 -71.28 
L 361.690151 -71.28 
L 360.145388 -71.28 
L 358.600625 -71.28 
L 357.055861 -71.28 
L 355.511098 -71.28 
L 353.966335 -71.28 
L 352.421572 -71.28 
L 350.876808 -71.28 
L 349.332045 -71.28 
L 347.787282 -71.28 
L 346.242518 -71.28 
L 344.697755 -71.28 
L 343.152992 -71.28 
L 341.608228 -71.28 
L 340.063465 -71.28 
L 338.518702 -71.28 
L 336.973938 -71.28 
L 335.429175 -71.28 
L 333.884412 -71.28 
L 332.339648 -71.28 
L 330.794885 -71.28 
L 329.250122 -71.28 
L 327.705358 -71.28 
L 326.160595 -71.28 
L 324.615832 -71.28 
L 323.071068 -71.28 
L 321.526305 -71.28 
L 319.981542 -71.28 
L 318.436778 -71.28 
L 316.892015 -71.28 
L 315.347252 -71.28 
L 313.802488 -71.28 
L 312.257725 -71.28 
L 310.712962 -71.28 
L 309.168198 -71.28 
L 307.623435 -71.28 
L 306.078672 -71.28 
L 304.533908 -71.28 
L 302.989145 -71.28 
L 301.444382 -71.28 
L 299.899618 -71.28 
L 298.354855 -71.28 
L 296.810092 -71.28 
L 295.265328 -71.28 
L 293.720565 -71.28 
L 292.175802 -71.28 
L 290.631038 -71.28 
L 289.086275 -71.28 
L 287.541512 -71.28 
L 285.996748 -71.28 
L 284.451985 -71.28 
L 282.907222 -71.28 
L 281.362458 -71.28 
L 279.817695 -71.28 
L 278.272932 -71.28 
L 276.728168 -71.28 
L 275.183405 -71.28 
L 273.638642 -71.28 
L 272.093878 -71.28 
L 270.549115 -71.28 
L 269.004352 -71.28 
L 267.459588 -71.28 
L 265.914825 -71.28 
L 264.370062 -71.28 
L 262.825298 -71.28 
L 261.280535 -71.28 
L 259.735772 -71.28 
L 258.191008 -71.28 
L 256.646245 -71.28 
L 255.101482 -71.28 
L 253.556718 -71.28 
L 252.011955 -71.28 
L 250.467192 -71.28 
L 248.922428 -71.28 
L 247.377665 -71.28 
L 245.832902 -71.28 
L 244.288139 -71.28 
L 242.743375 -71.28 
L 241.198612 -71.28 
L 239.653849 -71.28 
L 238.109085 -71.28 
L 236.564322 -71.28 
L 235.019559 -71.28 
L 233.474795 -71.28 
L 231.930032 -71.28 
L 230.385269 -71.28 
L 228.840505 -71.28 
L 227.295742 -71.28 
L 225.750979 -71.28 
L 224.206215 -71.28 
L 222.661452 -71.28 
L 221.116689 -71.28 
L 219.571925 -71.28 
L 218.027162 -71.28 
L 216.482399 -71.28 
L 214.937635 -71.28 
L 213.392872 -71.28 
L 211.848109 -71.28 
L 210.303345 -71.28 
L 208.758582 -71.28 
L 207.213819 -71.28 
L 205.669055 -71.28 
L 204.124292 -71.28 
L 202.579529 -71.28 
L 201.034765 -71.28 
L 199.490002 -71.28 
L 197.945239 -71.28 
L 196.400475 -71.28 
L 194.855712 -71.28 
L 193.310949 -71.28 
L 191.766185 -71.28 
L 190.221422 -71.28 
L 188.676659 -71.28 
L 187.131895 -71.28 
L 185.587132 -71.28 
L 184.042369 -71.28 
L 182.497605 -71.28 
L 180.952842 -71.28 
L 179.408079 -71.28 
L 177.863315 -71.28 
L 176.318552 -71.28 
L 174.773789 -71.28 
L 173.229025 -71.28 
L 171.684262 -71.28 
L 170.139499 -71.28 
L 168.594735 -71.28 
L 167.049972 -71.28 
L 165.505209 -71.28 
L 163.960445 -71.28 
L 162.415682 -71.28 
L 160.870919 -71.28 
L 159.326155 -71.28 
L 157.781392 -71.28 
L 156.236629 -71.28 
L 154.691865 -71.28 
L 153.147102 -71.28 
L 151.602339 -71.28 
L 150.057575 -71.28 
L 148.512812 -71.28 
L 146.968049 -71.28 
L 145.423285 -71.28 
L 143.878522 -71.28 
L 142.333759 -71.28 
L 140.788995 -71.28 
L 139.244232 -71.28 
L 137.699469 -71.28 
L 136.154705 -71.28 
L 134.609942 -71.28 
L 133.065179 -71.28 
L 131.520416 -71.28 
L 129.975652 -71.28 
L 128.430889 -71.28 
L 126.886126 -71.28 
L 125.341362 -71.28 
L 123.796599 -71.28 
L 122.251836 -71.28 
L 120.707072 -71.28 
L 119.162309 -71.28 
L 117.617546 -71.28 
L 116.072782 -71.28 
L 114.528019 -71.28 
L 112.983256 -71.28 
L 111.438492 -71.28 
L 109.893729 -71.28 
L 108.348966 -71.28 
L 106.804202 -71.28 
L 105.259439 -71.28 
L 103.714676 -71.28 
L 102.169912 -71.28 
L 100.625149 -71.28 
L 99.080386 -71.28 
L 97.535622 -71.28 
L 95.990859 -71.28 
L 94.446096 -71.28 
L 92.901332 -71.28 
L 91.356569 -71.28 
L 89.811806 -71.28 
L 88.267042 -71.28 
L 86.722279 -71.28 
L 85.177516 -71.28 
L 83.632752 -71.28 
L 82.087989 -71.28 
L 80.543226 -71.28 
L 78.998462 -71.28 
L 77.453699 -71.28 
L 75.908936 -71.28 
L 74.364172 -71.28 
L 72.819409 -71.28 
L 71.274646 -71.28 
L 69.729882 -71.28 
z
" style="stroke: #8b5cf6; stroke-opacity: 0.12"/>
    </defs>
    <g clip-path="url(#p7c79ec3793)">
     <use xlink:href="#m7decfa3dcf" x="0" y="396" style="fill: #8b5cf6; fill-opacity: 0.12; stroke: #8b5cf6; stroke-opacity: 0.12"/>
    </g>
   </g>
   <g id="text_18">
    <!-- 265 -->
    <g style="fill: #8b5cf6" transform="translate(534.614118 68.130003) scale(0.12 -0.12)">
     <defs>
      <path id="JetBrainsMono-Bold-32" d="M 474 0 
L 474 723 
L 2157 2445 
Q 2566 2874 2566 3315 
Q 2566 3629 2384 3824 
Q 2202 4019 1894 4019 
Q 1581 4019 1392 3817 
Q 1203 3616 1203 3283 
L 403 3283 
Q 403 3718 595 4044 
Q 787 4371 1126 4553 
Q 1466 4736 1914 4736 
Q 2355 4736 2688 4563 
Q 3021 4390 3203 4080 
Q 3386 3770 3386 3354 
Q 3386 2995 3216 2636 
Q 3046 2278 2656 1894 
L 1478 723 
L 3443 723 
L 3443 0 
L 474 0 
z
" transform="scale(0.015625)"/>
      <path id="JetBrainsMono-Bold-36" d="M 1920 -64 
Q 1440 -64 1085 128 
Q 730 320 534 669 
Q 339 1018 339 1485 
Q 339 1760 457 2115 
Q 576 2470 781 2835 
L 1792 4672 
L 2701 4672 
L 1498 2611 
L 1523 2598 
Q 1619 2733 1804 2809 
Q 1990 2886 2208 2886 
Q 2598 2886 2889 2710 
Q 3181 2534 3341 2214 
Q 3501 1894 3501 1459 
Q 3501 998 3305 656 
Q 3110 314 2755 125 
Q 2400 -64 1920 -64 
z
M 1920 614 
Q 2278 614 2496 841 
Q 2714 1069 2714 1446 
Q 2714 1830 2496 2057 
Q 2278 2285 1920 2285 
Q 1562 2285 1344 2057 
Q 1126 1830 1126 1446 
Q 1126 1069 1344 841 
Q 1562 614 1920 614 
z
" transform="scale(0.015625)"/>
      <path id="JetBrainsMono-Bold-35" d="M 1894 -64 
Q 1210 -64 803 297 
Q 397 659 397 1280 
L 1197 1280 
Q 1197 986 1385 810 
Q 1574 634 1901 634 
Q 2227 634 2409 810 
Q 2592 986 2592 1299 
L 2592 1606 
Q 2592 1920 2413 2096 
Q 2234 2272 1907 2272 
L 557 2272 
L 557 4672 
L 3219 4672 
L 3219 3949 
L 1312 3949 
L 1318 2976 
L 1946 2976 
Q 2637 2976 3014 2617 
Q 3392 2259 3392 1606 
L 3392 1299 
Q 3392 666 2992 301 
Q 2592 -64 1894 -64 
z
" transform="scale(0.015625)"/>
     </defs>
     <use xlink:href="#JetBrainsMono-Bold-32"/>
     <use xlink:href="#JetBrainsMono-Bold-36" transform="translate(59.999985 0)"/>
     <use xlink:href="#JetBrainsMono-Bold-35" transform="translate(119.999969 0)"/>
    </g>
   </g>
   <g id="text_19">
    <!-- Rating History -->
    <g style="fill: #8b5cf6" transform="translate(55.296 50.44) scale(0.17 -0.17)">
     <defs>
      <path id="JetBrainsMono-Bold-52" d="M 493 0 
L 493 4672 
L 1965 4672 
Q 2432 4672 2774 4499 
Q 3117 4326 3309 4016 
Q 3501 3706 3501 3283 
Q 3501 2816 3270 2467 
Q 3040 2118 2650 1971 
L 3565 0 
L 2688 0 
L 1869 1856 
L 1286 1856 
L 1286 0 
L 493 0 
z
M 1286 2560 
L 1965 2560 
Q 2304 2560 2496 2745 
Q 2688 2931 2688 3258 
Q 2688 3584 2493 3776 
Q 2298 3968 1965 3968 
L 1286 3968 
L 1286 2560 
z
" transform="scale(0.015625)"/>
      <path id="JetBrainsMono-Bold-61" d="M 1530 -64 
Q 992 -64 681 240 
Q 371 544 371 1037 
Q 371 1549 723 1853 
Q 1075 2157 1690 2157 
L 2547 2157 
L 2547 2406 
Q 2547 2938 1926 2938 
Q 1645 2938 1478 2829 
Q 1312 2720 1293 2522 
L 525 2522 
Q 550 2995 924 3289 
Q 1299 3584 1933 3584 
Q 2605 3584 2976 3270 
Q 3347 2957 3347 2387 
L 3347 0 
L 2566 0 
L 2566 659 
Q 2522 320 2246 128 
Q 1971 -64 1530 -64 
z
M 1786 589 
Q 2138 589 2342 761 
Q 2547 934 2547 1222 
L 2547 1638 
L 1728 1638 
Q 1466 1638 1312 1491 
Q 1158 1344 1158 1114 
Q 1158 877 1321 733 
Q 1485 589 1786 589 
z
" transform="scale(0.015625)"/>
      <path id="JetBrainsMono-Bold-74" d="M 2272 0 
Q 1779 0 1488 285 
Q 1197 570 1197 1056 
L 1197 2797 
L 224 2797 
L 224 3520 
L 1197 3520 
L 1197 4512 
L 2003 4512 
L 2003 3520 
L 3405 3520 
L 3405 2797 
L 2003 2797 
L 2003 1075 
Q 2003 922 2089 822 
Q 2176 723 2330 723 
L 3373 723 
L 3373 0 
L 2272 0 
z
" transform="scale(0.015625)"/>
      <path id="JetBrainsMono-Bold-69" d="M 486 0 
L 486 723 
L 1690 723 
L 1690 2797 
L 614 2797 
L 614 3520 
L 2490 3520 
L 2490 723 
L 3571 723 
L 3571 0 
L 486 0 
z
M 2032 4109 
Q 1789 4109 1648 4233 
Q 1507 4358 1507 4570 
Q 1507 4781 1648 4905 
Q 1789 5030 2032 5030 
Q 2275 5030 2416 4905 
Q 2557 4781 2557 4570 
Q 2557 4358 2416 4233 
Q 2275 4109 2032 4109 
z
" transform="scale(0.015625)"/>
      <path id="JetBrainsMono-Bold-6e" d="M 493 0 
L 493 3520 
L 1274 3520 
L 1274 2861 
Q 1338 3194 1587 3389 
Q 1837 3584 2221 3584 
Q 2739 3584 3049 3238 
Q 3360 2893 3360 2310 
L 3360 0 
L 2560 0 
L 2560 2214 
Q 2560 2541 2390 2717 
Q 2221 2893 1933 2893 
Q 1632 2893 1462 2713 
Q 1293 2534 1293 2202 
L 1293 0 
L 493 0 
z
" transform="scale(0.015625)"/>
      <path id="JetBrainsMono-Bold-67" d="M 973 -1152 
L 973 -486 
L 1965 -486 
Q 2246 -486 2400 -336 
Q 2554 -186 2554 70 
L 2554 282 
L 2566 832 
Q 2458 538 2218 374 
Q 1978 211 1632 211 
Q 1094 211 777 572 
Q 461 934 461 1555 
L 461 2240 
Q 461 2854 777 3219 
Q 1094 3584 1632 3584 
Q 1978 3584 2218 3421 
Q 2458 3258 2566 2957 
L 2566 3520 
L 3347 3520 
L 3347 51 
Q 3347 -506 2979 -829 
Q 2611 -1152 1978 -1152 
L 973 -1152 
z
M 1901 896 
Q 2208 896 2377 1078 
Q 2547 1261 2547 1587 
L 2547 2202 
Q 2547 2528 2377 2710 
Q 2208 2893 1901 2893 
Q 1594 2893 1427 2717 
Q 1261 2541 1261 2227 
L 1261 1562 
Q 1261 1248 1427 1072 
Q 1594 896 1901 896 
z
" transform="scale(0.015625)"/>
      <path id="JetBrainsMono-Bold-20" transform="scale(0.015625)"/>
      <path id="JetBrainsMono-Bold-48" d="M 493 0 
L 493 4672 
L 1293 4672 
L 1293 2778 
L 2547 2778 
L 2547 4672 
L 3347 4672 
L 3347 0 
L 2547 0 
L 2547 2054 
L 1293 2054 
L 1293 0 
L 493 0 
z
" transform="scale(0.015625)"/>
      <path id="JetBrainsMono-Bold-73" d="M 1773 -58 
Q 1146 -58 781 227 
Q 416 512 416 998 
L 1203 998 
Q 1203 794 1353 685 
Q 1504 576 1773 576 
L 2054 576 
Q 2342 576 2499 685 
Q 2656 794 2656 998 
Q 2656 1190 2547 1283 
Q 2438 1376 2214 1408 
L 1338 1523 
Q 915 1581 688 1849 
Q 461 2118 461 2547 
Q 461 3046 793 3312 
Q 1126 3578 1754 3578 
L 2048 3578 
Q 2637 3578 2995 3309 
Q 3354 3040 3366 2592 
L 2573 2592 
Q 2566 2758 2425 2857 
Q 2285 2957 2048 2957 
L 1754 2957 
Q 1498 2957 1363 2851 
Q 1229 2746 1229 2566 
Q 1229 2406 1328 2329 
Q 1427 2253 1619 2234 
L 2445 2118 
Q 2931 2061 3177 1776 
Q 3424 1491 3424 1011 
Q 3424 499 3075 220 
Q 2726 -58 2054 -58 
L 1773 -58 
z
" transform="scale(0.015625)"/>
      <path id="JetBrainsMono-Bold-6f" d="M 1920 -58 
Q 1242 -58 845 323 
Q 448 704 448 1350 
L 448 2170 
Q 448 2822 845 3200 
Q 1242 3578 1920 3578 
Q 2598 3578 2995 3200 
Q 3392 2822 3392 2170 
L 3392 1350 
Q 3392 704 2995 323 
Q 2598 -58 1920 -58 
z
M 1920 640 
Q 2240 640 2416 816 
Q 2592 992 2592 1325 
L 2592 2195 
Q 2592 2528 2416 2704 
Q 2240 2880 1920 2880 
Q 1600 2880 1424 2704 
Q 1248 2528 1248 2195 
L 1248 1325 
Q 1248 992 1424 816 
Q 1600 640 1920 640 
z
" transform="scale(0.015625)"/>
      <path id="JetBrainsMono-Bold-72" d="M 621 0 
L 621 3520 
L 1402 3520 
L 1402 2835 
Q 1466 3181 1718 3382 
Q 1971 3584 2374 3584 
Q 2912 3584 3213 3238 
Q 3514 2893 3514 2272 
L 3514 1939 
L 2714 1939 
L 2714 2234 
Q 2714 2554 2547 2723 
Q 2381 2893 2074 2893 
Q 1754 2893 1587 2701 
Q 1421 2509 1421 2157 
L 1421 0 
L 621 0 
z
" transform="scale(0.015625)"/>
      <path id="JetBrainsMono-Bold-79" d="M 1056 -1152 
L 1555 192 
L 230 3520 
L 1075 3520 
L 1754 1722 
Q 1811 1562 1868 1373 
Q 1926 1184 1952 1024 
Q 1971 1184 2025 1373 
Q 2080 1562 2138 1722 
L 2765 3520 
L 3610 3520 
L 1894 -1152 
L 1056 -1152 
z
" transform="scale(0.015625)"/>
     </defs>
     <use xlink:href="#JetBrainsMono-Bold-52"/>
     <use xlink:href="#JetBrainsMono-Bold-61" transform="translate(59.999985 0)"/>
     <use xlink:href="#JetBrainsMono-Bold-74" transform="translate(119.999969 0)"/>
     <use xlink:href="#JetBrainsMono-Bold-69" transform="translate(179.999954 0)"/>
     <use xlink:href="#JetBrainsMono-Bold-6e" transform="translate(239.999939 0)"/>
     <use xlink:href="#JetBrainsMono-Bold-67" transform="translate(299.999924 0)"/>
     <use xlink:href="#JetBrainsMono-Bold-20" transform="translate(359.999908 0)"/>
     <use xlink:href="#JetBrainsMono-Bold-48" transform="translate(419.999893 0)"/>
     <use xlink:href="#JetBrainsMono-Bold-69" transform="translate(479.999878 0)"/>
     <use xlink:href="#JetBrainsMono-Bold-73" transform="translate(539.999863 0)"/>
     <use xlink:href="#JetBrainsMono-Bold-74" transform="translate(599.999847 0)"/>
     <use xlink:href="#JetBrainsMono-Bold-6f" transform="translate(659.999832 0)"/>
     <use xlink:href="#JetBrainsMono-Bold-72" transform="translate(719.999817 0)"/>
     <use xlink:href="#JetBrainsMono-Bold-79" transform="translate(779.999802 0)"/>
    </g>
   </g>
   <g id="line2d_33">
    <path d="M 69.729882 306.343913 
L 71.274646 304.780001 
L 72.819409 303.474053 
L 74.364172 302.411486 
L 75.908936 301.577715 
L 77.453699 300.958155 
L 78.998462 300.538221 
L 80.543226 300.303329 
L 82.087989 300.238895 
L 83.632752 300.330334 
L 85.177516 300.56306 
L 88.267042 301.39404 
L 91.356569 302.615158 
L 94.446096 304.109736 
L 105.259439 309.809747 
L 108.348966 311.091026 
L 111.438492 312.004045 
L 112.983256 312.285994 
L 114.528019 312.432125 
L 116.072782 312.427852 
L 117.617546 312.258591 
L 119.162309 311.909757 
L 120.707072 311.366766 
L 122.251836 310.615033 
L 123.796599 309.639974 
L 125.341362 308.427003 
L 126.886126 306.961536 
L 128.430889 305.230763 
L 129.975652 303.245946 
L 131.520416 301.035699 
L 134.609942 296.054903 
L 137.699469 290.520348 
L 150.057575 267.484011 
L 153.147102 262.660266 
L 154.691865 260.548177 
L 156.236629 258.674605 
L 157.781392 257.061776 
L 159.326155 255.699233 
L 160.870919 254.566671 
L 162.415682 253.643782 
L 163.960445 252.910258 
L 165.505209 252.345791 
L 167.049972 251.930074 
L 170.139499 251.463658 
L 173.229025 251.34855 
L 182.497605 251.486455 
L 185.587132 251.152037 
L 188.676659 250.410795 
L 191.766185 249.303631 
L 194.855712 247.897005 
L 197.945239 246.257381 
L 202.579529 243.506456 
L 213.392872 236.890427 
L 216.482399 235.241448 
L 221.116689 233.066208 
L 225.750979 231.182249 
L 231.930032 228.993383 
L 242.743375 225.550723 
L 248.922428 223.454862 
L 252.011955 222.224468 
L 255.101482 220.794573 
L 258.191008 219.106782 
L 261.280535 217.102702 
L 264.370062 214.723938 
L 267.459588 211.912096 
L 270.549115 208.608782 
L 273.638642 204.762792 
L 276.728168 200.433238 
L 281.362458 193.351088 
L 289.086275 181.211172 
L 292.175802 176.6684 
L 295.265328 172.52621 
L 298.354855 168.932342 
L 299.899618 167.387199 
L 301.444382 166.033823 
L 302.989145 164.873506 
L 304.533908 163.891075 
L 306.078672 163.070643 
L 307.623435 162.396323 
L 310.712962 161.422469 
L 313.802488 160.842415 
L 316.892015 160.529062 
L 326.160595 159.918217 
L 329.250122 159.400678 
L 332.339648 158.537966 
L 335.429175 157.351943 
L 338.518702 155.90589 
L 343.152992 153.387736 
L 357.055861 145.3141 
L 360.145388 143.817205 
L 364.779678 141.903298 
L 369.413968 140.254737 
L 380.227311 136.586249 
L 384.861601 134.724497 
L 387.951128 133.274374 
L 391.040655 131.628521 
L 395.674945 128.858873 
L 401.853998 124.791977 
L 414.212105 116.44771 
L 418.846395 113.60585 
L 426.570211 109.218707 
L 432.749265 105.633766 
L 437.383555 102.671085 
L 440.473081 100.483325 
L 443.562608 98.074321 
L 446.652135 95.403479 
L 451.286425 90.976923 
L 463.644531 78.72561 
L 466.734058 76.024357 
L 469.823584 73.638764 
L 472.913111 71.654344 
L 476.002638 70.149005 
L 479.092164 69.118588 
L 482.181691 68.508858 
L 485.271218 68.264869 
L 488.360744 68.331675 
L 491.450271 68.654328 
L 494.539798 69.177881 
L 499.174088 70.219701 
L 509.987431 72.886001 
L 513.076958 73.461067 
L 516.166484 73.852404 
L 519.256011 74.005064 
L 522.345538 73.864101 
L 525.435064 73.374568 
L 528.524591 72.481518 
L 530.069354 71.866503 
L 531.614118 71.130003 
L 531.614118 71.130003 
" clip-path="url(#p7c79ec3793)" style="fill: none; stroke: #8b5cf6; stroke-width: 1.2; stroke-linecap: round"/>
   </g>
   <g id="PathCollection_1">
    <defs>
     <path id="m1bb93c71ef" d="M 0 2.236068 
C 0.593012 2.236068 1.161816 2.000462 1.581139 1.581139 
C 2.000462 1.161816 2.236068 0.593012 2.236068 0 
C 2.236068 -0.593012 2.000462 -1.161816 1.581139 -1.581139 
C 1.161816 -2.000462 0.593012 -2.236068 0 -2.236068 
C -0.593012 -2.236068 -1.161816 -2.000462 -1.581139 -1.581139 
C -2.000462 -1.161816 -2.236068 -0.593012 -2.236068 0 
C -2.236068 0.593012 -2.000462 1.161816 -1.581139 1.581139 
C -1.161816 2.000462 -0.593012 2.236068 0 2.236068 
z
" style="stroke: #ffffff; stroke-width: 0.8"/>
    </defs>
    <g clip-path="url(#p7c79ec3793)">
     <use xlink:href="#m1bb93c71ef" x="531.614118" y="71.130003" style="fill: #8b5cf6; stroke: #ffffff; stroke-width: 0.8"/>
    </g>
   </g>
  </g>
  <g id="axes_2">
   <g id="text_20">
    <!-- Rating -->
    <g style="fill: #9b8bb8" transform="translate(565.7472 48.312) scale(0.11 -0.11)">
     <use xlink:href="#JetBrainsMono-Regular-52"/>
     <use xlink:href="#JetBrainsMono-Regular-61" transform="translate(59.999985 0)"/>
     <use xlink:href="#JetBrainsMono-Regular-74" transform="translate(119.999969 0)"/>
     <use xlink:href="#JetBrainsMono-Regular-69" transform="translate(179.999954 0)"/>
     <use xlink:href="#JetBrainsMono-Regular-6e" transform="translate(239.999939 0)"/>
     <use xlink:href="#JetBrainsMono-Regular-67" transform="translate(299.999924 0)"/>
    </g>
   </g>
   <g id="text_21">
    <!-- 265 -->
    <g style="fill: #8b5cf6" transform="translate(565.7472 81.548) scale(0.26 -0.26)">
     <use xlink:href="#JetBrainsMono-Bold-32"/>
     <use xlink:href="#JetBrainsMono-Bold-36" transform="translate(59.999985 0)"/>
     <use xlink:href="#JetBrainsMono-Bold-35" transform="translate(119.999969 0)"/>
    </g>
   </g>
   <g id="text_22">
    <!-- Rank -->
    <g style="fill: #9b8bb8" transform="translate(565.7472 119.592) scale(0.11 -0.11)">
     <defs>
      <path id="JetBrainsMono-Regular-6b" d="M 621 0 
L 621 4672 
L 1197 4672 
L 1197 2067 
L 1869 2067 
L 2854 3520 
L 3514 3520 
L 2381 1843 
L 3578 0 
L 2906 0 
L 1882 1568 
L 1197 1568 
L 1197 0 
L 621 0 
z
" transform="scale(0.015625)"/>
     </defs>
     <use xlink:href="#JetBrainsMono-Regular-52"/>
     <use xlink:href="#JetBrainsMono-Regular-61" transform="translate(59.999985 0)"/>
     <use xlink:href="#JetBrainsMono-Regular-6e" transform="translate(119.999969 0)"/>
     <use xlink:href="#JetBrainsMono-Regular-6b" transform="translate(179.999954 0)"/>
    </g>
   </g>
   <g id="text_23">
    <!-- #117,933 -->
    <g style="fill: #8b5cf6" transform="translate(565.7472 148.104) scale(0.14 -0.14)">
     <defs>
      <path id="JetBrainsMono-Bold-23" d="M 493 0 
L 710 1216 
L 224 1216 
L 224 1760 
L 800 1760 
L 998 2912 
L 448 2912 
L 448 3456 
L 1094 3456 
L 1312 4672 
L 1875 4672 
L 1658 3456 
L 2566 3456 
L 2784 4672 
L 3347 4672 
L 3130 3456 
L 3616 3456 
L 3616 2912 
L 3034 2912 
L 2835 1760 
L 3392 1760 
L 3392 1216 
L 2739 1216 
L 2528 0 
L 1965 0 
L 2182 1216 
L 1267 1216 
L 1056 0 
L 493 0 
z
M 1363 1760 
L 2272 1760 
L 2470 2912 
L 1562 2912 
L 1363 1760 
z
" transform="scale(0.015625)"/>
      <path id="JetBrainsMono-Bold-31" d="M 538 0 
L 538 723 
L 1754 723 
L 1754 3898 
L 531 3002 
L 531 3898 
L 1606 4672 
L 2554 4672 
L 2554 723 
L 3533 723 
L 3533 0 
L 538 0 
z
" transform="scale(0.015625)"/>
      <path id="JetBrainsMono-Bold-37" d="M 1011 0 
L 2720 3968 
L 1229 3968 
L 1229 3206 
L 429 3206 
L 429 4672 
L 3584 4672 
L 3584 3968 
L 1888 0 
L 1011 0 
z
" transform="scale(0.015625)"/>
      <path id="JetBrainsMono-Bold-2c" d="M 1216 -1024 
L 1555 934 
L 2470 934 
L 1984 -1024 
L 1216 -1024 
z
" transform="scale(0.015625)"/>
      <path id="JetBrainsMono-Bold-39" d="M 1120 0 
L 2214 1888 
Q 2138 1830 2035 1788 
Q 1933 1747 1728 1747 
Q 1344 1747 1027 1932 
Q 710 2118 524 2448 
Q 339 2778 339 3213 
Q 339 3674 534 4016 
Q 730 4358 1085 4547 
Q 1440 4736 1920 4736 
Q 2400 4736 2755 4544 
Q 3110 4352 3305 4003 
Q 3501 3654 3501 3187 
Q 3501 2912 3382 2557 
Q 3264 2202 3059 1837 
L 2048 0 
L 1120 0 
z
M 1920 2387 
Q 2278 2387 2496 2614 
Q 2714 2842 2714 3226 
Q 2714 3603 2496 3830 
Q 2278 4058 1920 4058 
Q 1562 4058 1344 3830 
Q 1126 3603 1126 3226 
Q 1126 2842 1344 2614 
Q 1562 2387 1920 2387 
z
" transform="scale(0.015625)"/>
      <path id="JetBrainsMono-Bold-33" d="M 1875 -64 
Q 1184 -64 781 297 
Q 378 659 378 1280 
L 1184 1280 
Q 1184 986 1369 810 
Q 1555 634 1882 634 
Q 2202 634 2387 810 
Q 2573 986 2573 1280 
L 2573 1632 
Q 2573 1946 2390 2122 
Q 2208 2298 1882 2298 
L 1293 2298 
L 1293 2938 
L 2368 3968 
L 544 3968 
L 544 4672 
L 3245 4672 
L 3245 3994 
L 2170 2963 
Q 2733 2886 3056 2537 
Q 3379 2189 3379 1632 
L 3379 1280 
Q 3379 659 2972 297 
Q 2566 -64 1875 -64 
z
" transform="scale(0.015625)"/>
     </defs>
     <use xlink:href="#JetBrainsMono-Bold-23"/>
     <use xlink:href="#JetBrainsMono-Bold-31" transform="translate(59.999985 0)"/>
     <use xlink:href="#JetBrainsMono-Bold-31" transform="translate(119.999969 0)"/>
     <use xlink:href="#JetBrainsMono-Bold-37" transform="translate(179.999954 0)"/>
     <use xlink:href="#JetBrainsMono-Bold-2c" transform="translate(239.999939 0)"/>
     <use xlink:href="#JetBrainsMono-Bold-39" transform="translate(299.999924 0)"/>
     <use xlink:href="#JetBrainsMono-Bold-33" transform="translate(359.999908 0)"/>
     <use xlink:href="#JetBrainsMono-Bold-33" transform="translate(419.999893 0)"/>
    </g>
   </g>
   <g id="text_24">
    <!-- ─ 0 -->
    <g style="fill: #9b8bb8" transform="translate(565.7472 169.488) scale(0.11 -0.11)">
     <defs>
      <path id="JetBrainsMono-Bold-2500" d="M -128 2048 
L -128 2688 
L 3968 2688 
L 3968 2048 
L -128 2048 
z
" transform="scale(0.015625)"/>
      <path id="JetBrainsMono-Bold-30" d="M 1920 -64 
Q 1466 -64 1133 109 
Q 800 282 617 595 
Q 435 909 435 1331 
L 435 3341 
Q 435 3763 617 4076 
Q 800 4390 1133 4563 
Q 1466 4736 1920 4736 
Q 2374 4736 2707 4563 
Q 3040 4390 3222 4076 
Q 3405 3763 3405 3341 
L 3405 1331 
Q 3405 909 3222 595 
Q 3040 282 2707 109 
Q 2374 -64 1920 -64 
z
M 1920 627 
Q 2253 627 2451 819 
Q 2650 1011 2650 1331 
L 2650 3341 
Q 2650 3661 2454 3853 
Q 2259 4045 1920 4045 
Q 1581 4045 1385 3853 
Q 1190 3661 1190 3341 
L 1190 1331 
Q 1190 1011 1388 819 
Q 1587 627 1920 627 
z
M 1920 1952 
Q 1728 1952 1613 2057 
Q 1498 2163 1498 2355 
Q 1498 2547 1613 2646 
Q 1728 2746 1920 2746 
Q 2112 2746 2227 2646 
Q 2342 2547 2342 2355 
Q 2342 2163 2227 2057 
Q 2112 1952 1920 1952 
z
" transform="scale(0.015625)"/>
     </defs>
     <use xlink:href="#JetBrainsMono-Bold-2500"/>
     <use xlink:href="#JetBrainsMono-Bold-20" transform="translate(59.999985 0)"/>
     <use xlink:href="#JetBrainsMono-Bold-30" transform="translate(119.999969 0)"/>
    </g>
   </g>
  </g>
 </g>
 <defs>
  <clipPath id="p7c79ec3793">
   <rect x="55.296" y="55.44" width="490.752" height="269.28"/>
  </clipPath>
 </defs>
</svg>
