<?xml version="1.0" encoding="utf-8" standalone="no"?>
<!DOCTYPE svg PUBLIC "-//W3C//DTD SVG 1.1//EN"
  "http://www.w3.org/Graphics/SVG/1.1/DTD/svg11.dtd">
<svg xmlns:xlink="http://www.w3.org/1999/xlink" width="687.050312pt" height="370.8pt" viewBox="0 0 687.050312 370.8" xmlns="http://www.w3.org/2000/svg" version="1.1">
 <metadata>
  <rdf:RDF xmlns:dc="http://purl.org/dc/elements/1.1/" xmlns:cc="http://creativecommons.org/ns#" xmlns:rdf="http://www.w3.org/1999/02/22-rdf-syntax-ns#">
   <cc:Work>
    <dc:type rdf:resource="http://purl.org/dc/dcmitype/StillImage"/>
    <dc:date>2026-04-03T14:32:52.876385</dc:date>
    <dc:format>image/svg+xml</dc:format>
    <dc:creator>
     <cc:Agent>
      <dc:title>Matplotlib v3.10.8, https://matplotlib.org/</dc:title>
     </cc:Agent>
    </dc:creator>
   </cc:Work>
  </rdf:RDF>
 </metadata>
 <defs>
  <style type="text/css">*{stroke-linejoin: round; stroke-linecap: butt}</style>
 </defs>
 <g id="figure_1">
  <g id="patch_1">
   <path d="M 0 370.8 
L 687.050312 370.8 
L 687.050312 0 
L 0 0 
L 0 370.8 
z
" style="fill: none"/>
  </g>
  <g id="axes_1">
   <g id="patch_2">
    <path d="M 57.770313 312.12 
L 527.786312 312.12 
L 527.786312 42.84 
L 57.770313 42.84 
L 57.770313 312.12 
z
" style="fill: none"/>
   </g>
   <g id="matplotlib.axis_1">
    <g id="xtick_1">
     <g id="line2d_1">
      <path d="M 79.134676 312.12 
L 79.134676 42.84 
" clip-path="url(#p509d561075)" style="fill: none; stroke-dasharray: 2.22,0.96; stroke-dashoffset: 0; stroke: #e2d5f5; stroke-opacity: 0.7; stroke-width: 0.6"/>
     </g>
     <g id="line2d_2">
      <defs>
       <path id="m84e128855d" d="M 0 0 
L 0 3.5 
" style="stroke: #9b8bb8; stroke-width: 0.8"/>
      </defs>
      <g>
       <use xlink:href="#m84e128855d" x="79.134676" y="312.12" style="fill: #9b8bb8; stroke: #9b8bb8; stroke-width: 0.8"/>
      </g>
     </g>
     <g id="text_1">
      <!-- 03/31 -->
      <g style="fill: #9b8bb8" transform="translate(67.594295 340.701793) rotate(-30) scale(0.1 -0.1)">
       <defs>
        <path id="JetBrainsMono-Regular-30" d="M 1920 -64 
Q 1274 -64 893 310 
Q 512 685 512 1312 
L 512 3360 
Q 512 3987 893 4361 
Q 1274 4736 1920 4736 
Q 2566 4736 2947 4361 
Q 3328 3987 3328 3360 
L 3328 1312 
Q 3328 896 3155 585 
Q 2982 275 2665 105 
Q 2349 -64 1920 -64 
z
M 1920 429 
Q 2304 429 2537 675 
Q 2771 922 2771 1312 
L 2771 3360 
Q 2771 3750 2537 3996 
Q 2304 4243 1920 4243 
Q 1536 4243 1302 3996 
Q 1069 3750 1069 3360 
L 1069 1312 
Q 1069 922 1302 675 
Q 1536 429 1920 429 
z
M 1920 1984 
Q 1747 1984 1641 2080 
Q 1536 2176 1536 2355 
Q 1536 2528 1641 2621 
Q 1747 2714 1920 2714 
Q 2093 2714 2198 2621 
Q 2304 2528 2304 2355 
Q 2304 2176 2198 2080 
Q 2093 1984 1920 1984 
z
" transform="scale(0.015625)"/>
        <path id="JetBrainsMono-Regular-33" d="M 1850 -64 
Q 1203 -64 825 297 
Q 448 659 448 1280 
L 1024 1280 
Q 1024 896 1248 672 
Q 1472 448 1856 448 
Q 2240 448 2464 672 
Q 2688 896 2688 1280 
L 2688 1600 
Q 2688 1984 2464 2208 
Q 2240 2432 1856 2432 
L 1350 2432 
L 1350 2931 
L 2496 4147 
L 576 4147 
L 576 4672 
L 3149 4672 
L 3149 4134 
L 2022 2938 
Q 2598 2893 2931 2537 
Q 3264 2182 3264 1600 
L 3264 1280 
Q 3264 659 2883 297 
Q 2502 -64 1850 -64 
z
" transform="scale(0.015625)"/>
        <path id="JetBrainsMono-Regular-2f" d="M 480 -704 
L 2752 5312 
L 3360 5312 
L 1088 -704 
L 480 -704 
z
" transform="scale(0.015625)"/>
        <path id="JetBrainsMono-Regular-31" d="M 576 0 
L 576 525 
L 1843 525 
L 1843 4173 
L 576 3226 
L 576 3885 
L 1632 4672 
L 2419 4672 
L 2419 525 
L 3456 525 
L 3456 0 
L 576 0 
z
" transform="scale(0.015625)"/>
       </defs>
       <use xlink:href="#JetBrainsMono-Regular-30"/>
       <use xlink:href="#JetBrainsMono-Regular-33" transform="translate(59.999985 0)"/>
       <use xlink:href="#JetBrainsMono-Regular-2f" transform="translate(119.999969 0)"/>
       <use xlink:href="#JetBrainsMono-Regular-33" transform="translate(179.999954 0)"/>
       <use xlink:href="#JetBrainsMono-Regular-31" transform="translate(239.999939 0)"/>
      </g>
     </g>
    </g>
    <g id="xtick_2">
     <g id="line2d_3">
      <path d="M 150.349222 312.12 
L 150.349222 42.84 
" clip-path="url(#p509d561075)" style="fill: none; stroke-dasharray: 2.22,0.96; stroke-dashoffset: 0; stroke: #e2d5f5; stroke-opacity: 0.7; stroke-width: 0.6"/>
     </g>
     <g id="line2d_4">
      <g>
       <use xlink:href="#m84e128855d" x="150.349222" y="312.12" style="fill: #9b8bb8; stroke: #9b8bb8; stroke-width: 0.8"/>
      </g>
     </g>
     <g id="text_2">
      <!-- 03/31 -->
      <g style="fill: #9b8bb8" transform="translate(138.808841 340.701793) rotate(-30) scale(0.1 -0.1)">
       <use xlink:href="#JetBrainsMono-Regular-30"/>
       <use xlink:href="#JetBrainsMono-Regular-33" transform="translate(59.999985 0)"/>
       <use xlink:href="#JetBrainsMono-Regular-2f" transform="translate(119.999969 0)"/>
       <use xlink:href="#JetBrainsMono-Regular-33" transform="translate(179.999954 0)"/>
       <use xlink:href="#JetBrainsMono-Regular-31" transform="translate(239.999939 0)"/>
      </g>
     </g>
    </g>
    <g id="xtick_3">
     <g id="line2d_5">
      <path d="M 221.563767 312.12 
L 221.563767 42.84 
" clip-path="url(#p509d561075)" style="fill: none; stroke-dasharray: 2.22,0.96; stroke-dashoffset: 0; stroke: #e2d5f5; stroke-opacity: 0.7; stroke-width: 0.6"/>
     </g>
     <g id="line2d_6">
      <g>
       <use xlink:href="#m84e128855d" x="221.563767" y="312.12" style="fill: #9b8bb8; stroke: #9b8bb8; stroke-width: 0.8"/>
      </g>
     </g>
     <g id="text_3">
      <!-- 04/01 -->
      <g style="fill: #9b8bb8" transform="translate(210.023386 340.701793) rotate(-30) scale(0.1 -0.1)">
       <defs>
        <path id="JetBrainsMono-Regular-34" d="M 2560 0 
L 2560 1024 
L 448 1024 
L 448 1926 
L 2150 4672 
L 2803 4672 
L 1024 1798 
L 1024 1549 
L 2560 1549 
L 2560 2688 
L 3136 2688 
L 3136 0 
L 2560 0 
z
" transform="scale(0.015625)"/>
       </defs>
       <use xlink:href="#JetBrainsMono-Regular-30"/>
       <use xlink:href="#JetBrainsMono-Regular-34" transform="translate(59.999985 0)"/>
       <use xlink:href="#JetBrainsMono-Regular-2f" transform="translate(119.999969 0)"/>
       <use xlink:href="#JetBrainsMono-Regular-30" transform="translate(179.999954 0)"/>
       <use xlink:href="#JetBrainsMono-Regular-31" transform="translate(239.999939 0)"/>
      </g>
     </g>
    </g>
    <g id="xtick_4">
     <g id="line2d_7">
      <path d="M 292.778313 312.12 
L 292.778313 42.84 
" clip-path="url(#p509d561075)" style="fill: none; stroke-dasharray: 2.22,0.96; stroke-dashoffset: 0; stroke: #e2d5f5; stroke-opacity: 0.7; stroke-width: 0.6"/>
     </g>
     <g id="line2d_8">
      <g>
       <use xlink:href="#m84e128855d" x="292.778313" y="312.12" style="fill: #9b8bb8; stroke: #9b8bb8; stroke-width: 0.8"/>
      </g>
     </g>
     <g id="text_4">
      <!-- 04/01 -->
      <g style="fill: #9b8bb8" transform="translate(281.237931 340.701793) rotate(-30) scale(0.1 -0.1)">
       <use xlink:href="#JetBrainsMono-Regular-30"/>
       <use xlink:href="#JetBrainsMono-Regular-34" transform="translate(59.999985 0)"/>
       <use xlink:href="#JetBrainsMono-Regular-2f" transform="translate(119.999969 0)"/>
       <use xlink:href="#JetBrainsMono-Regular-30" transform="translate(179.999954 0)"/>
       <use xlink:href="#JetBrainsMono-Regular-31" transform="translate(239.999939 0)"/>
      </g>
     </g>
    </g>
    <g id="xtick_5">
     <g id="line2d_9">
      <path d="M 363.992858 312.12 
L 363.992858 42.84 
" clip-path="url(#p509d561075)" style="fill: none; stroke-dasharray: 2.22,0.96; stroke-dashoffset: 0; stroke: #e2d5f5; stroke-opacity: 0.7; stroke-width: 0.6"/>
     </g>
     <g id="line2d_10">
      <g>
       <use xlink:href="#m84e128855d" x="363.992858" y="312.12" style="fill: #9b8bb8; stroke: #9b8bb8; stroke-width: 0.8"/>
      </g>
     </g>
     <g id="text_5">
      <!-- 04/02 -->
      <g style="fill: #9b8bb8" transform="translate(352.452477 340.701793) rotate(-30) scale(0.1 -0.1)">
       <defs>
        <path id="JetBrainsMono-Regular-32" d="M 550 0 
L 550 531 
L 2106 2195 
Q 2445 2554 2585 2835 
Q 2726 3117 2726 3386 
Q 2726 3770 2505 3997 
Q 2285 4224 1907 4224 
Q 1517 4224 1289 3990 
Q 1062 3757 1062 3360 
L 486 3360 
Q 506 3994 890 4365 
Q 1274 4736 1907 4736 
Q 2554 4736 2934 4371 
Q 3315 4006 3315 3379 
Q 3315 3046 3132 2675 
Q 2950 2304 2509 1843 
L 1248 525 
L 3373 525 
L 3373 0 
L 550 0 
z
" transform="scale(0.015625)"/>
       </defs>
       <use xlink:href="#JetBrainsMono-Regular-30"/>
       <use xlink:href="#JetBrainsMono-Regular-34" transform="translate(59.999985 0)"/>
       <use xlink:href="#JetBrainsMono-Regular-2f" transform="translate(119.999969 0)"/>
       <use xlink:href="#JetBrainsMono-Regular-30" transform="translate(179.999954 0)"/>
       <use xlink:href="#JetBrainsMono-Regular-32" transform="translate(239.999939 0)"/>
      </g>
     </g>
    </g>
    <g id="xtick_6">
     <g id="line2d_11">
      <path d="M 435.207403 312.12 
L 435.207403 42.84 
" clip-path="url(#p509d561075)" style="fill: none; stroke-dasharray: 2.22,0.96; stroke-dashoffset: 0; stroke: #e2d5f5; stroke-opacity: 0.7; stroke-width: 0.6"/>
     </g>
     <g id="line2d_12">
      <g>
       <use xlink:href="#m84e128855d" x="435.207403" y="312.12" style="fill: #9b8bb8; stroke: #9b8bb8; stroke-width: 0.8"/>
      </g>
     </g>
     <g id="text_6">
      <!-- 04/02 -->
      <g style="fill: #9b8bb8" transform="translate(423.667022 340.701793) rotate(-30) scale(0.1 -0.1)">
       <use xlink:href="#JetBrainsMono-Regular-30"/>
       <use xlink:href="#JetBrainsMono-Regular-34" transform="translate(59.999985 0)"/>
       <use xlink:href="#JetBrainsMono-Regular-2f" transform="translate(119.999969 0)"/>
       <use xlink:href="#JetBrainsMono-Regular-30" transform="translate(179.999954 0)"/>
       <use xlink:href="#JetBrainsMono-Regular-32" transform="translate(239.999939 0)"/>
      </g>
     </g>
    </g>
    <g id="xtick_7">
     <g id="line2d_13">
      <path d="M 506.421949 312.12 
L 506.421949 42.84 
" clip-path="url(#p509d561075)" style="fill: none; stroke-dasharray: 2.22,0.96; stroke-dashoffset: 0; stroke: #e2d5f5; stroke-opacity: 0.7; stroke-width: 0.6"/>
     </g>
     <g id="line2d_14">
      <g>
       <use xlink:href="#m84e128855d" x="506.421949" y="312.12" style="fill: #9b8bb8; stroke: #9b8bb8; stroke-width: 0.8"/>
      </g>
     </g>
     <g id="text_7">
      <!-- 04/03 -->
      <g style="fill: #9b8bb8" transform="translate(494.881568 340.701793) rotate(-30) scale(0.1 -0.1)">
       <use xlink:href="#JetBrainsMono-Regular-30"/>
       <use xlink:href="#JetBrainsMono-Regular-34" transform="translate(59.999985 0)"/>
       <use xlink:href="#JetBrainsMono-Regular-2f" transform="translate(119.999969 0)"/>
       <use xlink:href="#JetBrainsMono-Regular-30" transform="translate(179.999954 0)"/>
       <use xlink:href="#JetBrainsMono-Regular-33" transform="translate(239.999939 0)"/>
      </g>
     </g>
    </g>
   </g>
   <g id="matplotlib.axis_2">
    <g id="ytick_1">
     <g id="line2d_15">
      <path d="M 57.770313 279.48 
L 527.786312 279.48 
" clip-path="url(#p509d561075)" style="fill: none; stroke-dasharray: 2.22,0.96; stroke-dashoffset: 0; stroke: #e2d5f5; stroke-opacity: 0.7; stroke-width: 0.6"/>
     </g>
     <g id="line2d_16">
      <defs>
       <path id="m093230329f" d="M 0 0 
L -3.5 0 
" style="stroke: #9b8bb8; stroke-width: 0.8"/>
      </defs>
      <g>
       <use xlink:href="#m093230329f" x="57.770313" y="279.48" style="fill: #9b8bb8; stroke: #9b8bb8; stroke-width: 0.8"/>
      </g>
     </g>
     <g id="text_8">
      <!-- 197.5 -->
      <g style="fill: #9b8bb8" transform="translate(20.770313 283.13) scale(0.1 -0.1)">
       <defs>
        <path id="JetBrainsMono-Regular-39" d="M 1248 0 
L 2400 2003 
L 2381 2016 
Q 2317 1914 2144 1853 
Q 1971 1792 1766 1792 
Q 1363 1792 1059 1974 
Q 755 2157 582 2477 
Q 410 2797 410 3219 
Q 410 3674 602 4013 
Q 794 4352 1133 4544 
Q 1472 4736 1914 4736 
Q 2368 4736 2707 4547 
Q 3046 4358 3238 4022 
Q 3430 3686 3430 3245 
Q 3430 2938 3315 2614 
Q 3200 2291 3002 1939 
L 1920 0 
L 1248 0 
z
M 1920 2240 
Q 2336 2240 2595 2515 
Q 2854 2790 2854 3232 
Q 2854 3674 2595 3949 
Q 2336 4224 1920 4224 
Q 1504 4224 1245 3949 
Q 986 3674 986 3232 
Q 986 2790 1245 2515 
Q 1504 2240 1920 2240 
z
" transform="scale(0.015625)"/>
        <path id="JetBrainsMono-Regular-37" d="M 1216 0 
L 2880 4147 
L 1101 4147 
L 1101 3392 
L 525 3392 
L 525 4672 
L 3494 4672 
L 3494 4134 
L 1843 0 
L 1216 0 
z
" transform="scale(0.015625)"/>
        <path id="JetBrainsMono-Regular-2e" d="M 1920 -64 
Q 1683 -64 1539 77 
Q 1395 218 1395 442 
Q 1395 678 1539 825 
Q 1683 973 1920 973 
Q 2157 973 2301 825 
Q 2445 678 2445 442 
Q 2445 218 2301 77 
Q 2157 -64 1920 -64 
z
" transform="scale(0.015625)"/>
        <path id="JetBrainsMono-Regular-35" d="M 1882 -64 
Q 1235 -64 857 297 
Q 480 659 480 1280 
L 1056 1280 
Q 1056 896 1280 672 
Q 1504 448 1888 448 
Q 2272 448 2496 672 
Q 2720 896 2720 1280 
L 2720 1568 
Q 2720 1952 2502 2176 
Q 2285 2400 1914 2400 
L 640 2400 
L 640 4672 
L 3130 4672 
L 3130 4147 
L 1178 4147 
L 1190 2925 
L 1946 2925 
Q 2592 2925 2944 2569 
Q 3296 2214 3296 1568 
L 3296 1280 
Q 3296 659 2915 297 
Q 2534 -64 1882 -64 
z
" transform="scale(0.015625)"/>
       </defs>
       <use xlink:href="#JetBrainsMono-Regular-31"/>
       <use xlink:href="#JetBrainsMono-Regular-39" transform="translate(59.999985 0)"/>
       <use xlink:href="#JetBrainsMono-Regular-37" transform="translate(119.999969 0)"/>
       <use xlink:href="#JetBrainsMono-Regular-2e" transform="translate(179.999954 0)"/>
       <use xlink:href="#JetBrainsMono-Regular-35" transform="translate(239.999939 0)"/>
      </g>
     </g>
    </g>
    <g id="ytick_2">
     <g id="line2d_17">
      <path d="M 57.770313 245.48 
L 527.786312 245.48 
" clip-path="url(#p509d561075)" style="fill: none; stroke-dasharray: 2.22,0.96; stroke-dashoffset: 0; stroke: #e2d5f5; stroke-opacity: 0.7; stroke-width: 0.6"/>
     </g>
     <g id="line2d_18">
      <g>
       <use xlink:href="#m093230329f" x="57.770313" y="245.48" style="fill: #9b8bb8; stroke: #9b8bb8; stroke-width: 0.8"/>
      </g>
     </g>
     <g id="text_9">
      <!-- 200.0 -->
      <g style="fill: #9b8bb8" transform="translate(20.770313 249.13) scale(0.1 -0.1)">
       <use xlink:href="#JetBrainsMono-Regular-32"/>
       <use xlink:href="#JetBrainsMono-Regular-30" transform="translate(59.999985 0)"/>
       <use xlink:href="#JetBrainsMono-Regular-30" transform="translate(119.999969 0)"/>
       <use xlink:href="#JetBrainsMono-Regular-2e" transform="translate(179.999954 0)"/>
       <use xlink:href="#JetBrainsMono-Regular-30" transform="translate(239.999939 0)"/>
      </g>
     </g>
    </g>
    <g id="ytick_3">
     <g id="line2d_19">
      <path d="M 57.770313 211.48 
L 527.786312 211.48 
" clip-path="url(#p509d561075)" style="fill: none; stroke-dasharray: 2.22,0.96; stroke-dashoffset: 0; stroke: #e2d5f5; stroke-opacity: 0.7; stroke-width: 0.6"/>
     </g>
     <g id="line2d_20">
      <g>
       <use xlink:href="#m093230329f" x="57.770313" y="211.48" style="fill: #9b8bb8; stroke: #9b8bb8; stroke-width: 0.8"/>
      </g>
     </g>
     <g id="text_10">
      <!-- 202.5 -->
      <g style="fill: #9b8bb8" transform="translate(20.770313 215.13) scale(0.1 -0.1)">
       <use xlink:href="#JetBrainsMono-Regular-32"/>
       <use xlink:href="#JetBrainsMono-Regular-30" transform="translate(59.999985 0)"/>
       <use xlink:href="#JetBrainsMono-Regular-32" transform="translate(119.999969 0)"/>
       <use xlink:href="#JetBrainsMono-Regular-2e" transform="translate(179.999954 0)"/>
       <use xlink:href="#JetBrainsMono-Regular-35" transform="translate(239.999939 0)"/>
      </g>
     </g>
    </g>
    <g id="ytick_4">
     <g id="line2d_21">
      <path d="M 57.770313 177.48 
L 527.786312 177.48 
" clip-path="url(#p509d561075)" style="fill: none; stroke-dasharray: 2.22,0.96; stroke-dashoffset: 0; stroke: #e2d5f5; stroke-opacity: 0.7; stroke-width: 0.6"/>
     </g>
     <g id="line2d_22">
      <g>
       <use xlink:href="#m093230329f" x="57.770313" y="177.48" style="fill: #9b8bb8; stroke: #9b8bb8; stroke-width: 0.8"/>
      </g>
     </g>
     <g id="text_11">
      <!-- 205.0 -->
      <g style="fill: #9b8bb8" transform="translate(20.770313 181.13) scale(0.1 -0.1)">
       <use xlink:href="#JetBrainsMono-Regular-32"/>
       <use xlink:href="#JetBrainsMono-Regular-30" transform="translate(59.999985 0)"/>
       <use xlink:href="#JetBrainsMono-Regular-35" transform="translate(119.999969 0)"/>
       <use xlink:href="#JetBrainsMono-Regular-2e" transform="translate(179.999954 0)"/>
       <use xlink:href="#JetBrainsMono-Regular-30" transform="translate(239.999939 0)"/>
      </g>
     </g>
    </g>
    <g id="ytick_5">
     <g id="line2d_23">
      <path d="M 57.770313 143.48 
L 527.786312 143.48 
" clip-path="url(#p509d561075)" style="fill: none; stroke-dasharray: 2.22,0.96; stroke-dashoffset: 0; stroke: #e2d5f5; stroke-opacity: 0.7; stroke-width: 0.6"/>
     </g>
     <g id="line2d_24">
      <g>
       <use xlink:href="#m093230329f" x="57.770313" y="143.48" style="fill: #9b8bb8; stroke: #9b8bb8; stroke-width: 0.8"/>
      </g>
     </g>
     <g id="text_12">
      <!-- 207.5 -->
      <g style="fill: #9b8bb8" transform="translate(20.770313 147.13) scale(0.1 -0.1)">
       <use xlink:href="#JetBrainsMono-Regular-32"/>
       <use xlink:href="#JetBrainsMono-Regular-30" transform="translate(59.999985 0)"/>
       <use xlink:href="#JetBrainsMono-Regular-37" transform="translate(119.999969 0)"/>
       <use xlink:href="#JetBrainsMono-Regular-2e" transform="translate(179.999954 0)"/>
       <use xlink:href="#JetBrainsMono-Regular-35" transform="translate(239.999939 0)"/>
      </g>
     </g>
    </g>
    <g id="ytick_6">
     <g id="line2d_25">
      <path d="M 57.770313 109.48 
L 527.786312 109.48 
" clip-path="url(#p509d561075)" style="fill: none; stroke-dasharray: 2.22,0.96; stroke-dashoffset: 0; stroke: #e2d5f5; stroke-opacity: 0.7; stroke-width: 0.6"/>
     </g>
     <g id="line2d_26">
      <g>
       <use xlink:href="#m093230329f" x="57.770313" y="109.48" style="fill: #9b8bb8; stroke: #9b8bb8; stroke-width: 0.8"/>
      </g>
     </g>
     <g id="text_13">
      <!-- 210.0 -->
      <g style="fill: #9b8bb8" transform="translate(20.770313 113.13) scale(0.1 -0.1)">
       <use xlink:href="#JetBrainsMono-Regular-32"/>
       <use xlink:href="#JetBrainsMono-Regular-31" transform="translate(59.999985 0)"/>
       <use xlink:href="#JetBrainsMono-Regular-30" transform="translate(119.999969 0)"/>
       <use xlink:href="#JetBrainsMono-Regular-2e" transform="translate(179.999954 0)"/>
       <use xlink:href="#JetBrainsMono-Regular-30" transform="translate(239.999939 0)"/>
      </g>
     </g>
    </g>
    <g id="ytick_7">
     <g id="line2d_27">
      <path d="M 57.770313 75.48 
L 527.786312 75.48 
" clip-path="url(#p509d561075)" style="fill: none; stroke-dasharray: 2.22,0.96; stroke-dashoffset: 0; stroke: #e2d5f5; stroke-opacity: 0.7; stroke-width: 0.6"/>
     </g>
     <g id="line2d_28">
      <g>
       <use xlink:href="#m093230329f" x="57.770313" y="75.48" style="fill: #9b8bb8; stroke: #9b8bb8; stroke-width: 0.8"/>
      </g>
     </g>
     <g id="text_14">
      <!-- 212.5 -->
      <g style="fill: #9b8bb8" transform="translate(20.770313 79.13) scale(0.1 -0.1)">
       <use xlink:href="#JetBrainsMono-Regular-32"/>
       <use xlink:href="#JetBrainsMono-Regular-31" transform="translate(59.999985 0)"/>
       <use xlink:href="#JetBrainsMono-Regular-32" transform="translate(119.999969 0)"/>
       <use xlink:href="#JetBrainsMono-Regular-2e" transform="translate(179.999954 0)"/>
       <use xlink:href="#JetBrainsMono-Regular-35" transform="translate(239.999939 0)"/>
      </g>
     </g>
    </g>
    <g id="text_15">
     <!-- Rating -->
     <g style="fill: #9b8bb8" transform="translate(14.970313 195.48) rotate(-90) scale(0.1 -0.1)">
      <defs>
       <path id="JetBrainsMono-Regular-52" d="M 595 0 
L 595 4672 
L 2035 4672 
Q 2451 4672 2764 4502 
Q 3078 4333 3251 4032 
Q 3424 3731 3424 3328 
Q 3424 2854 3181 2515 
Q 2938 2176 2534 2042 
L 3488 0 
L 2854 0 
L 1939 1984 
L 1165 1984 
L 1165 0 
L 595 0 
z
M 1165 2502 
L 2035 2502 
Q 2394 2502 2611 2729 
Q 2829 2957 2829 3328 
Q 2829 3706 2611 3930 
Q 2394 4154 2035 4154 
L 1165 4154 
L 1165 2502 
z
" transform="scale(0.015625)"/>
       <path id="JetBrainsMono-Regular-61" d="M 1613 -64 
Q 1069 -64 749 240 
Q 429 544 429 1037 
Q 429 1363 576 1606 
Q 723 1850 985 1987 
Q 1248 2125 1587 2125 
L 2675 2125 
L 2675 2400 
Q 2675 3085 1926 3085 
Q 1594 3085 1389 2963 
Q 1184 2842 1171 2624 
L 595 2624 
Q 627 3040 982 3312 
Q 1338 3584 1926 3584 
Q 2566 3584 2908 3277 
Q 3251 2970 3251 2419 
L 3251 0 
L 2682 0 
L 2682 640 
L 2669 640 
Q 2618 314 2342 125 
Q 2067 -64 1613 -64 
z
M 1754 422 
Q 2176 422 2425 627 
Q 2675 832 2675 1184 
L 2675 1677 
L 1651 1677 
Q 1370 1677 1194 1507 
Q 1018 1338 1018 1056 
Q 1018 762 1213 592 
Q 1408 422 1754 422 
z
" transform="scale(0.015625)"/>
       <path id="JetBrainsMono-Regular-74" d="M 2272 0 
Q 1837 0 1574 253 
Q 1312 506 1312 928 
L 1312 2995 
L 301 2995 
L 301 3520 
L 1312 3520 
L 1312 4512 
L 1888 4512 
L 1888 3520 
L 3328 3520 
L 3328 2995 
L 1888 2995 
L 1888 928 
Q 1888 749 1993 637 
Q 2099 525 2272 525 
L 3296 525 
L 3296 0 
L 2272 0 
z
" transform="scale(0.015625)"/>
       <path id="JetBrainsMono-Regular-69" d="M 544 0 
L 544 525 
L 1792 525 
L 1792 2995 
L 672 2995 
L 672 3520 
L 2368 3520 
L 2368 525 
L 3552 525 
L 3552 0 
L 544 0 
z
M 2016 4154 
Q 1805 4154 1683 4262 
Q 1562 4371 1562 4557 
Q 1562 4749 1683 4861 
Q 1805 4973 2016 4973 
Q 2227 4973 2348 4861 
Q 2470 4749 2470 4557 
Q 2470 4371 2348 4262 
Q 2227 4154 2016 4154 
z
" transform="scale(0.015625)"/>
       <path id="JetBrainsMono-Regular-6e" d="M 589 0 
L 589 3520 
L 1165 3520 
L 1165 2848 
L 1171 2848 
Q 1216 3200 1459 3392 
Q 1702 3584 2106 3584 
Q 2637 3584 2950 3257 
Q 3264 2931 3264 2368 
L 3264 0 
L 2688 0 
L 2688 2266 
Q 2688 2669 2486 2883 
Q 2285 3098 1939 3098 
Q 1581 3098 1373 2874 
Q 1165 2650 1165 2240 
L 1165 0 
L 589 0 
z
" transform="scale(0.015625)"/>
       <path id="JetBrainsMono-Regular-67" d="M 1030 -1152 
L 1030 -627 
L 2022 -627 
Q 2323 -627 2496 -457 
Q 2669 -288 2669 0 
L 2669 320 
L 2682 896 
L 2662 896 
Q 2611 582 2361 412 
Q 2112 243 1734 243 
Q 1190 243 876 588 
Q 563 934 563 1536 
L 563 2278 
Q 563 2880 876 3232 
Q 1190 3584 1734 3584 
Q 2112 3584 2361 3405 
Q 2611 3226 2662 2912 
L 2675 2912 
L 2675 3520 
L 3245 3520 
L 3245 0 
Q 3245 -531 2915 -841 
Q 2586 -1152 2016 -1152 
L 1030 -1152 
z
M 1907 723 
Q 2266 723 2470 947 
Q 2675 1171 2675 1568 
L 2675 2240 
Q 2675 2637 2470 2861 
Q 2266 3085 1907 3085 
Q 1542 3085 1340 2873 
Q 1139 2662 1139 2304 
L 1139 1504 
Q 1139 1146 1340 934 
Q 1542 723 1907 723 
z
" transform="scale(0.015625)"/>
      </defs>
      <use xlink:href="#JetBrainsMono-Regular-52"/>
      <use xlink:href="#JetBrainsMono-Regular-61" transform="translate(59.999985 0)"/>
      <use xlink:href="#JetBrainsMono-Regular-74" transform="translate(119.999969 0)"/>
      <use xlink:href="#JetBrainsMono-Regular-69" transform="translate(179.999954 0)"/>
      <use xlink:href="#JetBrainsMono-Regular-6e" transform="translate(239.999939 0)"/>
      <use xlink:href="#JetBrainsMono-Regular-67" transform="translate(299.999924 0)"/>
     </g>
    </g>
   </g>
   <g id="patch_3">
    <path d="M 57.770313 312.12 
L 57.770313 42.84 
" style="fill: none; stroke: #d8c8ef; stroke-width: 0.8; stroke-linejoin: miter; stroke-linecap: square"/>
   </g>
   <g id="patch_4">
    <path d="M 57.770313 312.12 
L 527.786313 312.12 
" style="fill: none; stroke: #d8c8ef; stroke-width: 0.8; stroke-linejoin: miter; stroke-linecap: square"/>
   </g>
   <g id="FillBetweenPolyCollection_1">
    <defs>
     <path id="m0274c8cef3" d="M 79.134676 -70.92 
L 79.134676 -138.92 
L 80.563731 -138.627314 
L 81.992785 -138.340561 
L 83.421839 -138.059741 
L 84.850894 -137.784854 
L 86.279948 -137.515899 
L 87.709003 -137.252878 
L 89.138057 -136.995789 
L 90.567112 -136.744633 
L 91.996166 -136.49941 
L 93.42522 -136.260119 
L 94.854275 -136.026762 
L 96.283329 -135.799337 
L 97.712384 -135.577845 
L 99.141438 -135.362286 
L 100.570492 -135.15266 
L 101.999547 -134.948966 
L 103.428601 -134.751205 
L 104.857656 -134.559378 
L 106.28671 -134.373483 
L 107.715765 -134.19352 
L 109.144819 -134.019491 
L 110.573873 -133.851395 
L 112.002928 -133.689231 
L 113.431982 -133.533 
L 114.861037 -133.382702 
L 116.290091 -133.238336 
L 117.719146 -133.099904 
L 119.1482 -132.967404 
L 120.577254 -132.840838 
L 122.006309 -132.720204 
L 123.435363 -132.605502 
L 124.864418 -132.496734 
L 126.293472 -132.393899 
L 127.722527 -132.296996 
L 129.151581 -132.206026 
L 130.580635 -132.120989 
L 132.00969 -132.041885 
L 133.438744 -131.968713 
L 134.867799 -131.901474 
L 136.296853 -131.840169 
L 137.725908 -131.784796 
L 139.154962 -131.735356 
L 140.584016 -131.691848 
L 142.013071 -131.654274 
L 143.442125 -131.622632 
L 144.87118 -131.596923 
L 146.300234 -131.577147 
L 147.729288 -131.563304 
L 149.158343 -131.555393 
L 150.587397 -131.553416 
L 152.016452 -131.557371 
L 153.445506 -131.567259 
L 154.874561 -131.58308 
L 156.303615 -131.604834 
L 157.732669 -131.63252 
L 159.161724 -131.666139 
L 160.590778 -131.705691 
L 162.019833 -131.751176 
L 163.448887 -131.802594 
L 164.877942 -131.859945 
L 166.306996 -131.923228 
L 167.73605 -131.992444 
L 169.165105 -132.067593 
L 170.594159 -132.148675 
L 172.023214 -132.23569 
L 173.452268 -132.328637 
L 174.881323 -132.427518 
L 176.310377 -132.532331 
L 177.739431 -132.643077 
L 179.168486 -132.759756 
L 180.59754 -132.882367 
L 182.026595 -133.010912 
L 183.455649 -133.145389 
L 184.884704 -133.285799 
L 186.313758 -133.432142 
L 187.742812 -133.584418 
L 189.171867 -133.742626 
L 190.600921 -133.906767 
L 192.029976 -134.076842 
L 193.45903 -134.252849 
L 194.888084 -134.434788 
L 196.317139 -134.622661 
L 197.746193 -134.816466 
L 199.175248 -135.016205 
L 200.604302 -135.221876 
L 202.033357 -135.43348 
L 203.462411 -135.651016 
L 204.891465 -135.874486 
L 206.32052 -136.103888 
L 207.749574 -136.339223 
L 209.178629 -136.580491 
L 210.607683 -136.827692 
L 212.036738 -137.080826 
L 213.465792 -137.339892 
L 214.894846 -137.604892 
L 216.323901 -137.875824 
L 217.752955 -138.152689 
L 219.18201 -138.435486 
L 220.611064 -138.724217 
L 222.040119 -139.01888 
L 223.469173 -139.319477 
L 224.898227 -139.626006 
L 226.327282 -139.938467 
L 227.756336 -140.256862 
L 229.185391 -140.581189 
L 230.614445 -140.91145 
L 232.043499 -141.247643 
L 233.472554 -141.589769 
L 234.901608 -141.937828 
L 236.330663 -142.291819 
L 237.759717 -142.651743 
L 239.188772 -143.017601 
L 240.617826 -143.389391 
L 242.04688 -143.767114 
L 243.475935 -144.150769 
L 244.904989 -144.540358 
L 246.334044 -144.935879 
L 247.763098 -145.337333 
L 249.192153 -145.74472 
L 250.621207 -146.15804 
L 252.050261 -146.577292 
L 253.479316 -147.002478 
L 254.90837 -147.433596 
L 256.337425 -147.870647 
L 257.766479 -148.313631 
L 259.195534 -148.762548 
L 260.624588 -149.217397 
L 262.053642 -149.678179 
L 263.482697 -150.144895 
L 264.911751 -150.617543 
L 266.340806 -151.096123 
L 267.76986 -151.580637 
L 269.198915 -152.071083 
L 270.627969 -152.567463 
L 272.057023 -153.069775 
L 273.486078 -153.578019 
L 274.915132 -154.092197 
L 276.344187 -154.612308 
L 277.773241 -155.138351 
L 279.202295 -155.670327 
L 280.63135 -156.208236 
L 282.060404 -156.752078 
L 283.489459 -157.301853 
L 284.918513 -157.85756 
L 286.347568 -158.4192 
L 287.776622 -158.986773 
L 289.205676 -159.560279 
L 290.634731 -160.139718 
L 292.063785 -160.725089 
L 293.49284 -161.316394 
L 294.921894 -161.913631 
L 296.350949 -162.516801 
L 297.780003 -163.125904 
L 299.209057 -163.740939 
L 300.638112 -164.361908 
L 302.067166 -164.988809 
L 303.496221 -165.621643 
L 304.925275 -166.26041 
L 306.35433 -166.90511 
L 307.783384 -167.555742 
L 309.212438 -168.212308 
L 310.641493 -168.874806 
L 312.070547 -169.543237 
L 313.499602 -170.217601 
L 314.928656 -170.897897 
L 316.35771 -171.584127 
L 317.786765 -172.276289 
L 319.215819 -172.974384 
L 320.644874 -173.678412 
L 322.073928 -174.388373 
L 323.502983 -175.104266 
L 324.932037 -175.826093 
L 326.361091 -176.553852 
L 327.790146 -177.287544 
L 329.2192 -178.027169 
L 330.648255 -178.772726 
L 332.077309 -179.524217 
L 333.506364 -180.28164 
L 334.935418 -181.044996 
L 336.364472 -181.814285 
L 337.793527 -182.589507 
L 339.222581 -183.370662 
L 340.651636 -184.157749 
L 342.08069 -184.950769 
L 343.509745 -185.749722 
L 344.938799 -186.554608 
L 346.367853 -187.365427 
L 347.796908 -188.182178 
L 349.225962 -189.004863 
L 350.655017 -189.83348 
L 352.084071 -190.66803 
L 353.513126 -191.508512 
L 354.94218 -192.354928 
L 356.371234 -193.207276 
L 357.800289 -194.065558 
L 359.229343 -194.929772 
L 360.658398 -195.799919 
L 362.087452 -196.675998 
L 363.516506 -197.558011 
L 364.945561 -198.445956 
L 366.374615 -199.339834 
L 367.80367 -200.239645 
L 369.232724 -201.145389 
L 370.661779 -202.057066 
L 372.090833 -202.974675 
L 373.519887 -203.898217 
L 374.948942 -204.827692 
L 376.377996 -205.7631 
L 377.807051 -206.704441 
L 379.236105 -207.651714 
L 380.66516 -208.604921 
L 382.094214 -209.56406 
L 383.523268 -210.529132 
L 384.952323 -211.500137 
L 386.381377 -212.477074 
L 387.810432 -213.459945 
L 389.239486 -214.448748 
L 390.668541 -215.443484 
L 392.097595 -216.444153 
L 393.526649 -217.450755 
L 394.955704 -218.463289 
L 396.384758 -219.481757 
L 397.813813 -220.506157 
L 399.242867 -221.53649 
L 400.671921 -222.572756 
L 402.100976 -223.614954 
L 403.53003 -224.663086 
L 404.959085 -225.71715 
L 406.388139 -226.777147 
L 407.817194 -227.843077 
L 409.246248 -228.91494 
L 410.675302 -229.992735 
L 412.104357 -231.076464 
L 413.533411 -232.166125 
L 414.962466 -233.261719 
L 416.39152 -234.363246 
L 417.820575 -235.470705 
L 419.249629 -236.584098 
L 420.678683 -237.703423 
L 422.107738 -238.828681 
L 423.536792 -239.959872 
L 424.965847 -241.096996 
L 426.394901 -242.240052 
L 427.823956 -243.389042 
L 429.25301 -244.543964 
L 430.682064 -245.704819 
L 432.111119 -246.871607 
L 433.540173 -248.044327 
L 434.969228 -249.222981 
L 436.398282 -250.407567 
L 437.827337 -251.598086 
L 439.256391 -252.794538 
L 440.685445 -253.996923 
L 442.1145 -255.205241 
L 443.543554 -256.419491 
L 444.972609 -257.639674 
L 446.401663 -258.86579 
L 447.830717 -260.097839 
L 449.259772 -261.335821 
L 450.688826 -262.579735 
L 452.117881 -263.829583 
L 453.546935 -265.085363 
L 454.97599 -266.347076 
L 456.405044 -267.614722 
L 457.834098 -268.8883 
L 459.263153 -270.167812 
L 460.692207 -271.453256 
L 462.121262 -272.744633 
L 463.550316 -274.041943 
L 464.979371 -275.345185 
L 466.408425 -276.654361 
L 467.837479 -277.969469 
L 469.266534 -279.29051 
L 470.695588 -280.617484 
L 472.124643 -281.950391 
L 473.553697 -283.289231 
L 474.982752 -284.634003 
L 476.411806 -285.984708 
L 477.84086 -287.341347 
L 479.269915 -288.703917 
L 480.698969 -290.072421 
L 482.128024 -291.446858 
L 483.557078 -292.827227 
L 484.986133 -294.213529 
L 486.415187 -295.605764 
L 487.844241 -297.003932 
L 489.273296 -298.408033 
L 490.70235 -299.818066 
L 492.131405 -301.234032 
L 493.560459 -302.655931 
L 494.989513 -304.083763 
L 496.418568 -305.517528 
L 497.847622 -306.957226 
L 499.276677 -308.402856 
L 500.705731 -309.854419 
L 502.134786 -311.311915 
L 503.56384 -312.775344 
L 504.992894 -314.244706 
L 506.421949 -315.72 
L 506.421949 -70.92 
L 506.421949 -70.92 
L 504.992894 -70.92 
L 503.56384 -70.92 
L 502.134786 -70.92 
L 500.705731 -70.92 
L 499.276677 -70.92 
L 497.847622 -70.92 
L 496.418568 -70.92 
L 494.989513 -70.92 
L 493.560459 -70.92 
L 492.131405 -70.92 
L 490.70235 -70.92 
L 489.273296 -70.92 
L 487.844241 -70.92 
L 486.415187 -70.92 
L 484.986133 -70.92 
L 483.557078 -70.92 
L 482.128024 -70.92 
L 480.698969 -70.92 
L 479.269915 -70.92 
L 477.84086 -70.92 
L 476.411806 -70.92 
L 474.982752 -70.92 
L 473.553697 -70.92 
L 472.124643 -70.92 
L 470.695588 -70.92 
L 469.266534 -70.92 
L 467.837479 -70.92 
L 466.408425 -70.92 
L 464.979371 -70.92 
L 463.550316 -70.92 
L 462.121262 -70.92 
L 460.692207 -70.92 
L 459.263153 -70.92 
L 457.834098 -70.92 
L 456.405044 -70.92 
L 454.97599 -70.92 
L 453.546935 -70.92 
L 452.117881 -70.92 
L 450.688826 -70.92 
L 449.259772 -70.92 
L 447.830717 -70.92 
L 446.401663 -70.92 
L 444.972609 -70.92 
L 443.543554 -70.92 
L 442.1145 -70.92 
L 440.685445 -70.92 
L 439.256391 -70.92 
L 437.827337 -70.92 
L 436.398282 -70.92 
L 434.969228 -70.92 
L 433.540173 -70.92 
L 432.111119 -70.92 
L 430.682064 -70.92 
L 429.25301 -70.92 
L 427.823956 -70.92 
L 426.394901 -70.92 
L 424.965847 -70.92 
L 423.536792 -70.92 
L 422.107738 -70.92 
L 420.678683 -70.92 
L 419.249629 -70.92 
L 417.820575 -70.92 
L 416.39152 -70.92 
L 414.962466 -70.92 
L 413.533411 -70.92 
L 412.104357 -70.92 
L 410.675302 -70.92 
L 409.246248 -70.92 
L 407.817194 -70.92 
L 406.388139 -70.92 
L 404.959085 -70.92 
L 403.53003 -70.92 
L 402.100976 -70.92 
L 400.671921 -70.92 
L 399.242867 -70.92 
L 397.813813 -70.92 
L 396.384758 -70.92 
L 394.955704 -70.92 
L 393.526649 -70.92 
L 392.097595 -70.92 
L 390.668541 -70.92 
L 389.239486 -70.92 
L 387.810432 -70.92 
L 386.381377 -70.92 
L 384.952323 -70.92 
L 383.523268 -70.92 
L 382.094214 -70.92 
L 380.66516 -70.92 
L 379.236105 -70.92 
L 377.807051 -70.92 
L 376.377996 -70.92 
L 374.948942 -70.92 
L 373.519887 -70.92 
L 372.090833 -70.92 
L 370.661779 -70.92 
L 369.232724 -70.92 
L 367.80367 -70.92 
L 366.374615 -70.92 
L 364.945561 -70.92 
L 363.516506 -70.92 
L 362.087452 -70.92 
L 360.658398 -70.92 
L 359.229343 -70.92 
L 357.800289 -70.92 
L 356.371234 -70.92 
L 354.94218 -70.92 
L 353.513126 -70.92 
L 352.084071 -70.92 
L 350.655017 -70.92 
L 349.225962 -70.92 
L 347.796908 -70.92 
L 346.367853 -70.92 
L 344.938799 -70.92 
L 343.509745 -70.92 
L 342.08069 -70.92 
L 340.651636 -70.92 
L 339.222581 -70.92 
L 337.793527 -70.92 
L 336.364472 -70.92 
L 334.935418 -70.92 
L 333.506364 -70.92 
L 332.077309 -70.92 
L 330.648255 -70.92 
L 329.2192 -70.92 
L 327.790146 -70.92 
L 326.361091 -70.92 
L 324.932037 -70.92 
L 323.502983 -70.92 
L 322.073928 -70.92 
L 320.644874 -70.92 
L 319.215819 -70.92 
L 317.786765 -70.92 
L 316.35771 -70.92 
L 314.928656 -70.92 
L 313.499602 -70.92 
L 312.070547 -70.92 
L 310.641493 -70.92 
L 309.212438 -70.92 
L 307.783384 -70.92 
L 306.35433 -70.92 
L 304.925275 -70.92 
L 303.496221 -70.92 
L 302.067166 -70.92 
L 300.638112 -70.92 
L 299.209057 -70.92 
L 297.780003 -70.92 
L 296.350949 -70.92 
L 294.921894 -70.92 
L 293.49284 -70.92 
L 292.063785 -70.92 
L 290.634731 -70.92 
L 289.205676 -70.92 
L 287.776622 -70.92 
L 286.347568 -70.92 
L 284.918513 -70.92 
L 283.489459 -70.92 
L 282.060404 -70.92 
L 280.63135 -70.92 
L 279.202295 -70.92 
L 277.773241 -70.92 
L 276.344187 -70.92 
L 274.915132 -70.92 
L 273.486078 -70.92 
L 272.057023 -70.92 
L 270.627969 -70.92 
L 269.198915 -70.92 
L 267.76986 -70.92 
L 266.340806 -70.92 
L 264.911751 -70.92 
L 263.482697 -70.92 
L 262.053642 -70.92 
L 260.624588 -70.92 
L 259.195534 -70.92 
L 257.766479 -70.92 
L 256.337425 -70.92 
L 254.90837 -70.92 
L 253.479316 -70.92 
L 252.050261 -70.92 
L 250.621207 -70.92 
L 249.192153 -70.92 
L 247.763098 -70.92 
L 246.334044 -70.92 
L 244.904989 -70.92 
L 243.475935 -70.92 
L 242.04688 -70.92 
L 240.617826 -70.92 
L 239.188772 -70.92 
L 237.759717 -70.92 
L 236.330663 -70.92 
L 234.901608 -70.92 
L 233.472554 -70.92 
L 232.043499 -70.92 
L 230.614445 -70.92 
L 229.185391 -70.92 
L 227.756336 -70.92 
L 226.327282 -70.92 
L 224.898227 -70.92 
L 223.469173 -70.92 
L 222.040119 -70.92 
L 220.611064 -70.92 
L 219.18201 -70.92 
L 217.752955 -70.92 
L 216.323901 -70.92 
L 214.894846 -70.92 
L 213.465792 -70.92 
L 212.036738 -70.92 
L 210.607683 -70.92 
L 209.178629 -70.92 
L 207.749574 -70.92 
L 206.32052 -70.92 
L 204.891465 -70.92 
L 203.462411 -70.92 
L 202.033357 -70.92 
L 200.604302 -70.92 
L 199.175248 -70.92 
L 197.746193 -70.92 
L 196.317139 -70.92 
L 194.888084 -70.92 
L 193.45903 -70.92 
L 192.029976 -70.92 
L 190.600921 -70.92 
L 189.171867 -70.92 
L 187.742812 -70.92 
L 186.313758 -70.92 
L 184.884704 -70.92 
L 183.455649 -70.92 
L 182.026595 -70.92 
L 180.59754 -70.92 
L 179.168486 -70.92 
L 177.739431 -70.92 
L 176.310377 -70.92 
L 174.881323 -70.92 
L 173.452268 -70.92 
L 172.023214 -70.92 
L 170.594159 -70.92 
L 169.165105 -70.92 
L 167.73605 -70.92 
L 166.306996 -70.92 
L 164.877942 -70.92 
L 163.448887 -70.92 
L 162.019833 -70.92 
L 160.590778 -70.92 
L 159.161724 -70.92 
L 157.732669 -70.92 
L 156.303615 -70.92 
L 154.874561 -70.92 
L 153.445506 -70.92 
L 152.016452 -70.92 
L 150.587397 -70.92 
L 149.158343 -70.92 
L 147.729288 -70.92 
L 146.300234 -70.92 
L 144.87118 -70.92 
L 143.442125 -70.92 
L 142.013071 -70.92 
L 140.584016 -70.92 
L 139.154962 -70.92 
L 137.725908 -70.92 
L 136.296853 -70.92 
L 134.867799 -70.92 
L 133.438744 -70.92 
L 132.00969 -70.92 
L 130.580635 -70.92 
L 129.151581 -70.92 
L 127.722527 -70.92 
L 126.293472 -70.92 
L 124.864418 -70.92 
L 123.435363 -70.92 
L 122.006309 -70.92 
L 120.577254 -70.92 
L 119.1482 -70.92 
L 117.719146 -70.92 
L 116.290091 -70.92 
L 114.861037 -70.92 
L 113.431982 -70.92 
L 112.002928 -70.92 
L 110.573873 -70.92 
L 109.144819 -70.92 
L 107.715765 -70.92 
L 106.28671 -70.92 
L 104.857656 -70.92 
L 103.428601 -70.92 
L 101.999547 -70.92 
L 100.570492 -70.92 
L 99.141438 -70.92 
L 97.712384 -70.92 
L 96.283329 -70.92 
L 94.854275 -70.92 
L 93.42522 -70.92 
L 91.996166 -70.92 
L 90.567112 -70.92 
L 89.138057 -70.92 
L 87.709003 -70.92 
L 86.279948 -70.92 
L 84.850894 -70.92 
L 83.421839 -70.92 
L 81.992785 -70.92 
L 80.563731 -70.92 
L 79.134676 -70.92 
z
" style="stroke: #8b5cf6; stroke-opacity: 0.12"/>
    </defs>
    <g clip-path="url(#p509d561075)">
     <use xlink:href="#m0274c8cef3" x="0" y="370.8" style="fill: #8b5cf6; fill-opacity: 0.12; stroke: #8b5cf6; stroke-opacity: 0.12"/>
    </g>
   </g>
   <g id="text_16">
    <!-- 214 -->
    <g style="fill: #8b5cf6" transform="translate(509.421949 52.08) scale(0.12 -0.12)">
     <defs>
      <path id="JetBrainsMono-Bold-32" d="M 474 0 
L 474 723 
L 2157 2445 
Q 2566 2874 2566 3315 
Q 2566 3629 2384 3824 
Q 2202 4019 1894 4019 
Q 1581 4019 1392 3817 
Q 1203 3616 1203 3283 
L 403 3283 
Q 403 3718 595 4044 
Q 787 4371 1126 4553 
Q 1466 4736 1914 4736 
Q 2355 4736 2688 4563 
Q 3021 4390 3203 4080 
Q 3386 3770 3386 3354 
Q 3386 2995 3216 2636 
Q 3046 2278 2656 1894 
L 1478 723 
L 3443 723 
L 3443 0 
L 474 0 
z
" transform="scale(0.015625)"/>
      <path id="JetBrainsMono-Bold-31" d="M 538 0 
L 538 723 
L 1754 723 
L 1754 3898 
L 531 3002 
L 531 3898 
L 1606 4672 
L 2554 4672 
L 2554 723 
L 3533 723 
L 3533 0 
L 538 0 
z
" transform="scale(0.015625)"/>
      <path id="JetBrainsMono-Bold-34" d="M 2445 0 
L 2445 928 
L 378 928 
L 378 2086 
L 2106 4672 
L 2995 4672 
L 1146 1875 
L 1146 1632 
L 2445 1632 
L 2445 2688 
L 3251 2688 
L 3251 0 
L 2445 0 
z
" transform="scale(0.015625)"/>
     </defs>
     <use xlink:href="#JetBrainsMono-Bold-32"/>
     <use xlink:href="#JetBrainsMono-Bold-31" transform="translate(59.999985 0)"/>
     <use xlink:href="#JetBrainsMono-Bold-34" transform="translate(119.999969 0)"/>
    </g>
   </g>
   <g id="text_17">
    <!-- Rating History -->
    <g style="fill: #8b5cf6" transform="translate(57.770313 37.84) scale(0.17 -0.17)">
     <defs>
      <path id="JetBrainsMono-Bold-52" d="M 493 0 
L 493 4672 
L 1965 4672 
Q 2432 4672 2774 4499 
Q 3117 4326 3309 4016 
Q 3501 3706 3501 3283 
Q 3501 2816 3270 2467 
Q 3040 2118 2650 1971 
L 3565 0 
L 2688 0 
L 1869 1856 
L 1286 1856 
L 1286 0 
L 493 0 
z
M 1286 2560 
L 1965 2560 
Q 2304 2560 2496 2745 
Q 2688 2931 2688 3258 
Q 2688 3584 2493 3776 
Q 2298 3968 1965 3968 
L 1286 3968 
L 1286 2560 
z
" transform="scale(0.015625)"/>
      <path id="JetBrainsMono-Bold-61" d="M 1530 -64 
Q 992 -64 681 240 
Q 371 544 371 1037 
Q 371 1549 723 1853 
Q 1075 2157 1690 2157 
L 2547 2157 
L 2547 2406 
Q 2547 2938 1926 2938 
Q 1645 2938 1478 2829 
Q 1312 2720 1293 2522 
L 525 2522 
Q 550 2995 924 3289 
Q 1299 3584 1933 3584 
Q 2605 3584 2976 3270 
Q 3347 2957 3347 2387 
L 3347 0 
L 2566 0 
L 2566 659 
Q 2522 320 2246 128 
Q 1971 -64 1530 -64 
z
M 1786 589 
Q 2138 589 2342 761 
Q 2547 934 2547 1222 
L 2547 1638 
L 1728 1638 
Q 1466 1638 1312 1491 
Q 1158 1344 1158 1114 
Q 1158 877 1321 733 
Q 1485 589 1786 589 
z
" transform="scale(0.015625)"/>
      <path id="JetBrainsMono-Bold-74" d="M 2272 0 
Q 1779 0 1488 285 
Q 1197 570 1197 1056 
L 1197 2797 
L 224 2797 
L 224 3520 
L 1197 3520 
L 1197 4512 
L 2003 4512 
L 2003 3520 
L 3405 3520 
L 3405 2797 
L 2003 2797 
L 2003 1075 
Q 2003 922 2089 822 
Q 2176 723 2330 723 
L 3373 723 
L 3373 0 
L 2272 0 
z
" transform="scale(0.015625)"/>
      <path id="JetBrainsMono-Bold-69" d="M 486 0 
L 486 723 
L 1690 723 
L 1690 2797 
L 614 2797 
L 614 3520 
L 2490 3520 
L 2490 723 
L 3571 723 
L 3571 0 
L 486 0 
z
M 2032 4109 
Q 1789 4109 1648 4233 
Q 1507 4358 1507 4570 
Q 1507 4781 1648 4905 
Q 1789 5030 2032 5030 
Q 2275 5030 2416 4905 
Q 2557 4781 2557 4570 
Q 2557 4358 2416 4233 
Q 2275 4109 2032 4109 
z
" transform="scale(0.015625)"/>
      <path id="JetBrainsMono-Bold-6e" d="M 493 0 
L 493 3520 
L 1274 3520 
L 1274 2861 
Q 1338 3194 1587 3389 
Q 1837 3584 2221 3584 
Q 2739 3584 3049 3238 
Q 3360 2893 3360 2310 
L 3360 0 
L 2560 0 
L 2560 2214 
Q 2560 2541 2390 2717 
Q 2221 2893 1933 2893 
Q 1632 2893 1462 2713 
Q 1293 2534 1293 2202 
L 1293 0 
L 493 0 
z
" transform="scale(0.015625)"/>
      <path id="JetBrainsMono-Bold-67" d="M 973 -1152 
L 973 -486 
L 1965 -486 
Q 2246 -486 2400 -336 
Q 2554 -186 2554 70 
L 2554 282 
L 2566 832 
Q 2458 538 2218 374 
Q 1978 211 1632 211 
Q 1094 211 777 572 
Q 461 934 461 1555 
L 461 2240 
Q 461 2854 777 3219 
Q 1094 3584 1632 3584 
Q 1978 3584 2218 3421 
Q 2458 3258 2566 2957 
L 2566 3520 
L 3347 3520 
L 3347 51 
Q 3347 -506 2979 -829 
Q 2611 -1152 1978 -1152 
L 973 -1152 
z
M 1901 896 
Q 2208 896 2377 1078 
Q 2547 1261 2547 1587 
L 2547 2202 
Q 2547 2528 2377 2710 
Q 2208 2893 1901 2893 
Q 1594 2893 1427 2717 
Q 1261 2541 1261 2227 
L 1261 1562 
Q 1261 1248 1427 1072 
Q 1594 896 1901 896 
z
" transform="scale(0.015625)"/>
      <path id="JetBrainsMono-Bold-20" transform="scale(0.015625)"/>
      <path id="JetBrainsMono-Bold-48" d="M 493 0 
L 493 4672 
L 1293 4672 
L 1293 2778 
L 2547 2778 
L 2547 4672 
L 3347 4672 
L 3347 0 
L 2547 0 
L 2547 2054 
L 1293 2054 
L 1293 0 
L 493 0 
z
" transform="scale(0.015625)"/>
      <path id="JetBrainsMono-Bold-73" d="M 1773 -58 
Q 1146 -58 781 227 
Q 416 512 416 998 
L 1203 998 
Q 1203 794 1353 685 
Q 1504 576 1773 576 
L 2054 576 
Q 2342 576 2499 685 
Q 2656 794 2656 998 
Q 2656 1190 2547 1283 
Q 2438 1376 2214 1408 
L 1338 1523 
Q 915 1581 688 1849 
Q 461 2118 461 2547 
Q 461 3046 793 3312 
Q 1126 3578 1754 3578 
L 2048 3578 
Q 2637 3578 2995 3309 
Q 3354 3040 3366 2592 
L 2573 2592 
Q 2566 2758 2425 2857 
Q 2285 2957 2048 2957 
L 1754 2957 
Q 1498 2957 1363 2851 
Q 1229 2746 1229 2566 
Q 1229 2406 1328 2329 
Q 1427 2253 1619 2234 
L 2445 2118 
Q 2931 2061 3177 1776 
Q 3424 1491 3424 1011 
Q 3424 499 3075 220 
Q 2726 -58 2054 -58 
L 1773 -58 
z
" transform="scale(0.015625)"/>
      <path id="JetBrainsMono-Bold-6f" d="M 1920 -58 
Q 1242 -58 845 323 
Q 448 704 448 1350 
L 448 2170 
Q 448 2822 845 3200 
Q 1242 3578 1920 3578 
Q 2598 3578 2995 3200 
Q 3392 2822 3392 2170 
L 3392 1350 
Q 3392 704 2995 323 
Q 2598 -58 1920 -58 
z
M 1920 640 
Q 2240 640 2416 816 
Q 2592 992 2592 1325 
L 2592 2195 
Q 2592 2528 2416 2704 
Q 2240 2880 1920 2880 
Q 1600 2880 1424 2704 
Q 1248 2528 1248 2195 
L 1248 1325 
Q 1248 992 1424 816 
Q 1600 640 1920 640 
z
" transform="scale(0.015625)"/>
      <path id="JetBrainsMono-Bold-72" d="M 621 0 
L 621 3520 
L 1402 3520 
L 1402 2835 
Q 1466 3181 1718 3382 
Q 1971 3584 2374 3584 
Q 2912 3584 3213 3238 
Q 3514 2893 3514 2272 
L 3514 1939 
L 2714 1939 
L 2714 2234 
Q 2714 2554 2547 2723 
Q 2381 2893 2074 2893 
Q 1754 2893 1587 2701 
Q 1421 2509 1421 2157 
L 1421 0 
L 621 0 
z
" transform="scale(0.015625)"/>
      <path id="JetBrainsMono-Bold-79" d="M 1056 -1152 
L 1555 192 
L 230 3520 
L 1075 3520 
L 1754 1722 
Q 1811 1562 1868 1373 
Q 1926 1184 1952 1024 
Q 1971 1184 2025 1373 
Q 2080 1562 2138 1722 
L 2765 3520 
L 3610 3520 
L 1894 -1152 
L 1056 -1152 
z
" transform="scale(0.015625)"/>
     </defs>
     <use xlink:href="#JetBrainsMono-Bold-52"/>
     <use xlink:href="#JetBrainsMono-Bold-61" transform="translate(59.999985 0)"/>
     <use xlink:href="#JetBrainsMono-Bold-74" transform="translate(119.999969 0)"/>
     <use xlink:href="#JetBrainsMono-Bold-69" transform="translate(179.999954 0)"/>
     <use xlink:href="#JetBrainsMono-Bold-6e" transform="translate(239.999939 0)"/>
     <use xlink:href="#JetBrainsMono-Bold-67" transform="translate(299.999924 0)"/>
     <use xlink:href="#JetBrainsMono-Bold-20" transform="translate(359.999908 0)"/>
     <use xlink:href="#JetBrainsMono-Bold-48" transform="translate(419.999893 0)"/>
     <use xlink:href="#JetBrainsMono-Bold-69" transform="translate(479.999878 0)"/>
     <use xlink:href="#JetBrainsMono-Bold-73" transform="translate(539.999863 0)"/>
     <use xlink:href="#JetBrainsMono-Bold-74" transform="translate(599.999847 0)"/>
     <use xlink:href="#JetBrainsMono-Bold-6f" transform="translate(659.999832 0)"/>
     <use xlink:href="#JetBrainsMono-Bold-72" transform="translate(719.999817 0)"/>
     <use xlink:href="#JetBrainsMono-Bold-79" transform="translate(779.999802 0)"/>
    </g>
   </g>
   <g id="line2d_29">
    <path d="M 79.134676 231.88 
L 87.709003 233.547122 
L 96.283329 235.000663 
L 104.857656 236.240622 
L 113.431982 237.267 
L 122.006309 238.079796 
L 130.580635 238.679011 
L 139.154962 239.064644 
L 147.729288 239.236696 
L 156.303615 239.195166 
L 164.877942 238.940055 
L 173.452268 238.471363 
L 182.026595 237.789088 
L 190.600921 236.893233 
L 199.175248 235.783795 
L 207.749574 234.460777 
L 216.323901 232.924176 
L 224.898227 231.173994 
L 233.472554 229.210231 
L 242.04688 227.032886 
L 250.621207 224.64196 
L 259.195534 222.037452 
L 267.76986 219.219363 
L 276.344187 216.187692 
L 284.918513 212.94244 
L 293.49284 209.483606 
L 302.067166 205.811191 
L 310.641493 201.925194 
L 319.215819 197.825616 
L 327.790146 193.512456 
L 337.793527 188.210493 
L 347.796908 182.617822 
L 357.800289 176.734442 
L 367.80367 170.560355 
L 377.807051 164.095559 
L 387.810432 157.340055 
L 397.813813 150.293843 
L 407.817194 142.956923 
L 417.820575 135.329295 
L 427.823956 127.410958 
L 437.827337 119.201914 
L 447.830717 110.702161 
L 457.834098 101.9117 
L 467.837479 92.830531 
L 477.84086 83.458653 
L 487.844241 73.796068 
L 497.847622 63.842774 
L 506.421949 55.08 
L 506.421949 55.08 
" clip-path="url(#p509d561075)" style="fill: none; stroke: #8b5cf6; stroke-width: 1.2; stroke-linecap: round"/>
   </g>
   <g id="PathCollection_1">
    <defs>
     <path id="m877b04e7ce" d="M 0 1.658312 
C 0.43979 1.658312 0.861626 1.483582 1.172604 1.172604 
C 1.483582 0.861626 1.658312 0.43979 1.658312 0 
C 1.658312 -0.43979 1.483582 -0.861626 1.172604 -1.172604 
C 0.861626 -1.483582 0.43979 -1.658312 0 -1.658312 
C -0.43979 -1.658312 -0.861626 -1.483582 -1.172604 -1.172604 
C -1.483582 -0.861626 -1.658312 -0.43979 -1.658312 0 
C -1.658312 0.43979 -1.483582 0.861626 -1.172604 1.172604 
C -0.861626 1.483582 -0.43979 1.658312 0 1.658312 
z
" style="stroke: #ffffff; stroke-width: 0.5"/>
    </defs>
    <g clip-path="url(#p509d561075)">
     <use xlink:href="#m877b04e7ce" x="79.134676" y="231.88" style="fill: #8b5cf6; stroke: #ffffff; stroke-width: 0.5"/>
     <use xlink:href="#m877b04e7ce" x="221.563767" y="231.88" style="fill: #8b5cf6; stroke: #ffffff; stroke-width: 0.5"/>
     <use xlink:href="#m877b04e7ce" x="506.421949" y="55.08" style="fill: #8b5cf6; stroke: #ffffff; stroke-width: 0.5"/>
    </g>
   </g>
  </g>
  <g id="axes_2">
   <g id="text_18">
    <!-- Rating -->
    <g style="fill: #9b8bb8" transform="translate(555.088712 35.712) scale(0.11 -0.11)">
     <use xlink:href="#JetBrainsMono-Regular-52"/>
     <use xlink:href="#JetBrainsMono-Regular-61" transform="translate(59.999985 0)"/>
     <use xlink:href="#JetBrainsMono-Regular-74" transform="translate(119.999969 0)"/>
     <use xlink:href="#JetBrainsMono-Regular-69" transform="translate(179.999954 0)"/>
     <use xlink:href="#JetBrainsMono-Regular-6e" transform="translate(239.999939 0)"/>
     <use xlink:href="#JetBrainsMono-Regular-67" transform="translate(299.999924 0)"/>
    </g>
   </g>
   <g id="text_19">
    <!-- 214 -->
    <g style="fill: #8b5cf6" transform="translate(555.088712 68.948) scale(0.26 -0.26)">
     <use xlink:href="#JetBrainsMono-Bold-32"/>
     <use xlink:href="#JetBrainsMono-Bold-31" transform="translate(59.999985 0)"/>
     <use xlink:href="#JetBrainsMono-Bold-34" transform="translate(119.999969 0)"/>
    </g>
   </g>
   <g id="text_20">
    <!-- Rank -->
    <g style="fill: #9b8bb8" transform="translate(555.088712 106.992) scale(0.11 -0.11)">
     <defs>
      <path id="JetBrainsMono-Regular-6b" d="M 621 0 
L 621 4672 
L 1197 4672 
L 1197 2067 
L 1869 2067 
L 2854 3520 
L 3514 3520 
L 2381 1843 
L 3578 0 
L 2906 0 
L 1882 1568 
L 1197 1568 
L 1197 0 
L 621 0 
z
" transform="scale(0.015625)"/>
     </defs>
     <use xlink:href="#JetBrainsMono-Regular-52"/>
     <use xlink:href="#JetBrainsMono-Regular-61" transform="translate(59.999985 0)"/>
     <use xlink:href="#JetBrainsMono-Regular-6e" transform="translate(119.999969 0)"/>
     <use xlink:href="#JetBrainsMono-Regular-6b" transform="translate(179.999954 0)"/>
    </g>
   </g>
   <g id="text_21">
    <!-- #128,252 -->
    <g style="fill: #8b5cf6" transform="translate(555.088712 135.504) scale(0.14 -0.14)">
     <defs>
      <path id="JetBrainsMono-Bold-23" d="M 493 0 
L 710 1216 
L 224 1216 
L 224 1760 
L 800 1760 
L 998 2912 
L 448 2912 
L 448 3456 
L 1094 3456 
L 1312 4672 
L 1875 4672 
L 1658 3456 
L 2566 3456 
L 2784 4672 
L 3347 4672 
L 3130 3456 
L 3616 3456 
L 3616 2912 
L 3034 2912 
L 2835 1760 
L 3392 1760 
L 3392 1216 
L 2739 1216 
L 2528 0 
L 1965 0 
L 2182 1216 
L 1267 1216 
L 1056 0 
L 493 0 
z
M 1363 1760 
L 2272 1760 
L 2470 2912 
L 1562 2912 
L 1363 1760 
z
" transform="scale(0.015625)"/>
      <path id="JetBrainsMono-Bold-38" d="M 1920 -64 
Q 1453 -64 1094 112 
Q 736 288 537 598 
Q 339 909 339 1318 
Q 339 1747 585 2067 
Q 832 2387 1229 2470 
L 1229 2483 
Q 890 2554 682 2829 
Q 474 3104 474 3482 
Q 474 3853 656 4134 
Q 838 4416 1164 4576 
Q 1491 4736 1920 4736 
Q 2349 4736 2678 4576 
Q 3008 4416 3190 4134 
Q 3373 3853 3373 3482 
Q 3373 3104 3161 2829 
Q 2950 2554 2611 2483 
L 2611 2470 
Q 3008 2387 3254 2067 
Q 3501 1747 3501 1318 
Q 3501 909 3302 598 
Q 3104 288 2745 112 
Q 2387 -64 1920 -64 
z
M 1920 2758 
Q 2221 2758 2406 2940 
Q 2592 3123 2592 3411 
Q 2592 3706 2406 3888 
Q 2221 4070 1920 4070 
Q 1619 4070 1433 3888 
Q 1248 3706 1248 3411 
Q 1248 3123 1433 2940 
Q 1619 2758 1920 2758 
z
M 1920 614 
Q 2272 614 2496 819 
Q 2720 1024 2720 1357 
Q 2720 1696 2496 1904 
Q 2272 2112 1920 2112 
Q 1568 2112 1344 1904 
Q 1120 1696 1120 1357 
Q 1120 1024 1344 819 
Q 1568 614 1920 614 
z
" transform="scale(0.015625)"/>
      <path id="JetBrainsMono-Bold-2c" d="M 1216 -1024 
L 1555 934 
L 2470 934 
L 1984 -1024 
L 1216 -1024 
z
" transform="scale(0.015625)"/>
      <path id="JetBrainsMono-Bold-35" d="M 1894 -64 
Q 1210 -64 803 297 
Q 397 659 397 1280 
L 1197 1280 
Q 1197 986 1385 810 
Q 1574 634 1901 634 
Q 2227 634 2409 810 
Q 2592 986 2592 1299 
L 2592 1606 
Q 2592 1920 2413 2096 
Q 2234 2272 1907 2272 
L 557 2272 
L 557 4672 
L 3219 4672 
L 3219 3949 
L 1312 3949 
L 1318 2976 
L 1946 2976 
Q 2637 2976 3014 2617 
Q 3392 2259 3392 1606 
L 3392 1299 
Q 3392 666 2992 301 
Q 2592 -64 1894 -64 
z
" transform="scale(0.015625)"/>
     </defs>
     <use xlink:href="#JetBrainsMono-Bold-23"/>
     <use xlink:href="#JetBrainsMono-Bold-31" transform="translate(59.999985 0)"/>
     <use xlink:href="#JetBrainsMono-Bold-32" transform="translate(119.999969 0)"/>
     <use xlink:href="#JetBrainsMono-Bold-38" transform="translate(179.999954 0)"/>
     <use xlink:href="#JetBrainsMono-Bold-2c" transform="translate(239.999939 0)"/>
     <use xlink:href="#JetBrainsMono-Bold-32" transform="translate(299.999924 0)"/>
     <use xlink:href="#JetBrainsMono-Bold-35" transform="translate(359.999908 0)"/>
     <use xlink:href="#JetBrainsMono-Bold-32" transform="translate(419.999893 0)"/>
    </g>
   </g>
   <g id="text_22">
    <!-- ▲ +13 -->
    <g style="fill: #4caf50" transform="translate(555.088712 156.888) scale(0.11 -0.11)">
     <defs>
      <path id="JetBrainsMono-Bold-25b2" d="M -64 384 
L 1920 4288 
L 3904 384 
L -64 384 
z
" transform="scale(0.015625)"/>
      <path id="JetBrainsMono-Bold-2b" d="M 1523 589 
L 1523 1741 
L 378 1741 
L 378 2483 
L 1523 2483 
L 1523 3635 
L 2317 3635 
L 2317 2483 
L 3462 2483 
L 3462 1741 
L 2317 1741 
L 2317 589 
L 1523 589 
z
" transform="scale(0.015625)"/>
      <path id="JetBrainsMono-Bold-33" d="M 1875 -64 
Q 1184 -64 781 297 
Q 378 659 378 1280 
L 1184 1280 
Q 1184 986 1369 810 
Q 1555 634 1882 634 
Q 2202 634 2387 810 
Q 2573 986 2573 1280 
L 2573 1632 
Q 2573 1946 2390 2122 
Q 2208 2298 1882 2298 
L 1293 2298 
L 1293 2938 
L 2368 3968 
L 544 3968 
L 544 4672 
L 3245 4672 
L 3245 3994 
L 2170 2963 
Q 2733 2886 3056 2537 
Q 3379 2189 3379 1632 
L 3379 1280 
Q 3379 659 2972 297 
Q 2566 -64 1875 -64 
z
" transform="scale(0.015625)"/>
     </defs>
     <use xlink:href="#JetBrainsMono-Bold-25b2"/>
     <use xlink:href="#JetBrainsMono-Bold-20" transform="translate(59.999985 0)"/>
     <use xlink:href="#JetBrainsMono-Bold-2b" transform="translate(119.999969 0)"/>
     <use xlink:href="#JetBrainsMono-Bold-31" transform="translate(179.999954 0)"/>
     <use xlink:href="#JetBrainsMono-Bold-33" transform="translate(239.999939 0)"/>
    </g>
   </g>
  </g>
 </g>
 <defs>
  <clipPath id="p509d561075">
   <rect x="57.770313" y="42.84" width="470.016" height="269.28"/>
  </clipPath>
 </defs>
</svg>
