<?xml version="1.0" encoding="utf-8" standalone="no"?>
<!DOCTYPE svg PUBLIC "-//W3C//DTD SVG 1.1//EN"
  "http://www.w3.org/Graphics/SVG/1.1/DTD/svg11.dtd">
<svg xmlns:xlink="http://www.w3.org/1999/xlink" width="691.2pt" height="396pt" viewBox="0 0 691.2 396" xmlns="http://www.w3.org/2000/svg" version="1.1">
 <metadata>
  <rdf:RDF xmlns:dc="http://purl.org/dc/elements/1.1/" xmlns:cc="http://creativecommons.org/ns#" xmlns:rdf="http://www.w3.org/1999/02/22-rdf-syntax-ns#">
   <cc:Work>
    <dc:type rdf:resource="http://purl.org/dc/dcmitype/StillImage"/>
    <dc:date>2026-04-04T14:41:37.019951</dc:date>
    <dc:format>image/svg+xml</dc:format>
    <dc:creator>
     <cc:Agent>
      <dc:title>Matplotlib v3.10.8, https://matplotlib.org/</dc:title>
     </cc:Agent>
    </dc:creator>
   </cc:Work>
  </rdf:RDF>
 </metadata>
 <defs>
  <style type="text/css">*{stroke-linejoin: round; stroke-linecap: butt}</style>
 </defs>
 <g id="figure_1">
  <g id="patch_1">
   <path d="M 0 396 
L 691.2 396 
L 691.2 0 
L 0 0 
L 0 396 
z
" style="fill: none"/>
  </g>
  <g id="axes_1">
   <g id="patch_2">
    <path d="M 55.296 324.72 
L 546.048 324.72 
L 546.048 55.44 
L 55.296 55.44 
L 55.296 324.72 
z
" style="fill: none"/>
   </g>
   <g id="matplotlib.axis_1">
    <g id="xtick_1">
     <g id="line2d_1">
      <path d="M 104.3712 324.72 
L 104.3712 55.44 
" clip-path="url(#p836bd2dc72)" style="fill: none; stroke-dasharray: 2.22,0.96; stroke-dashoffset: 0; stroke: #e2d5f5; stroke-opacity: 0.7; stroke-width: 0.6"/>
     </g>
     <g id="line2d_2">
      <defs>
       <path id="m8549be1d31" d="M 0 0 
L 0 3.5 
" style="stroke: #9b8bb8; stroke-width: 0.8"/>
      </defs>
      <g>
       <use xlink:href="#m8549be1d31" x="104.3712" y="324.72" style="fill: #9b8bb8; stroke: #9b8bb8; stroke-width: 0.8"/>
      </g>
     </g>
     <g id="text_1">
      <!-- 03/31 -->
      <g style="fill: #9b8bb8" transform="translate(92.830819 353.301793) rotate(-30) scale(0.1 -0.1)">
       <defs>
        <path id="JetBrainsMono-Regular-30" d="M 1920 -64 
Q 1274 -64 893 310 
Q 512 685 512 1312 
L 512 3360 
Q 512 3987 893 4361 
Q 1274 4736 1920 4736 
Q 2566 4736 2947 4361 
Q 3328 3987 3328 3360 
L 3328 1312 
Q 3328 896 3155 585 
Q 2982 275 2665 105 
Q 2349 -64 1920 -64 
z
M 1920 429 
Q 2304 429 2537 675 
Q 2771 922 2771 1312 
L 2771 3360 
Q 2771 3750 2537 3996 
Q 2304 4243 1920 4243 
Q 1536 4243 1302 3996 
Q 1069 3750 1069 3360 
L 1069 1312 
Q 1069 922 1302 675 
Q 1536 429 1920 429 
z
M 1920 1984 
Q 1747 1984 1641 2080 
Q 1536 2176 1536 2355 
Q 1536 2528 1641 2621 
Q 1747 2714 1920 2714 
Q 2093 2714 2198 2621 
Q 2304 2528 2304 2355 
Q 2304 2176 2198 2080 
Q 2093 1984 1920 1984 
z
" transform="scale(0.015625)"/>
        <path id="JetBrainsMono-Regular-33" d="M 1850 -64 
Q 1203 -64 825 297 
Q 448 659 448 1280 
L 1024 1280 
Q 1024 896 1248 672 
Q 1472 448 1856 448 
Q 2240 448 2464 672 
Q 2688 896 2688 1280 
L 2688 1600 
Q 2688 1984 2464 2208 
Q 2240 2432 1856 2432 
L 1350 2432 
L 1350 2931 
L 2496 4147 
L 576 4147 
L 576 4672 
L 3149 4672 
L 3149 4134 
L 2022 2938 
Q 2598 2893 2931 2537 
Q 3264 2182 3264 1600 
L 3264 1280 
Q 3264 659 2883 297 
Q 2502 -64 1850 -64 
z
" transform="scale(0.015625)"/>
        <path id="JetBrainsMono-Regular-2f" d="M 480 -704 
L 2752 5312 
L 3360 5312 
L 1088 -704 
L 480 -704 
z
" transform="scale(0.015625)"/>
        <path id="JetBrainsMono-Regular-31" d="M 576 0 
L 576 525 
L 1843 525 
L 1843 4173 
L 576 3226 
L 576 3885 
L 1632 4672 
L 2419 4672 
L 2419 525 
L 3456 525 
L 3456 0 
L 576 0 
z
" transform="scale(0.015625)"/>
       </defs>
       <use xlink:href="#JetBrainsMono-Regular-30"/>
       <use xlink:href="#JetBrainsMono-Regular-33" transform="translate(59.999985 0)"/>
       <use xlink:href="#JetBrainsMono-Regular-2f" transform="translate(119.999969 0)"/>
       <use xlink:href="#JetBrainsMono-Regular-33" transform="translate(179.999954 0)"/>
       <use xlink:href="#JetBrainsMono-Regular-31" transform="translate(239.999939 0)"/>
      </g>
     </g>
    </g>
    <g id="xtick_2">
     <g id="line2d_3">
      <path d="M 202.5216 324.72 
L 202.5216 55.44 
" clip-path="url(#p836bd2dc72)" style="fill: none; stroke-dasharray: 2.22,0.96; stroke-dashoffset: 0; stroke: #e2d5f5; stroke-opacity: 0.7; stroke-width: 0.6"/>
     </g>
     <g id="line2d_4">
      <g>
       <use xlink:href="#m8549be1d31" x="202.5216" y="324.72" style="fill: #9b8bb8; stroke: #9b8bb8; stroke-width: 0.8"/>
      </g>
     </g>
     <g id="text_2">
      <!-- 04/01 -->
      <g style="fill: #9b8bb8" transform="translate(190.981219 353.301793) rotate(-30) scale(0.1 -0.1)">
       <defs>
        <path id="JetBrainsMono-Regular-34" d="M 2560 0 
L 2560 1024 
L 448 1024 
L 448 1926 
L 2150 4672 
L 2803 4672 
L 1024 1798 
L 1024 1549 
L 2560 1549 
L 2560 2688 
L 3136 2688 
L 3136 0 
L 2560 0 
z
" transform="scale(0.015625)"/>
       </defs>
       <use xlink:href="#JetBrainsMono-Regular-30"/>
       <use xlink:href="#JetBrainsMono-Regular-34" transform="translate(59.999985 0)"/>
       <use xlink:href="#JetBrainsMono-Regular-2f" transform="translate(119.999969 0)"/>
       <use xlink:href="#JetBrainsMono-Regular-30" transform="translate(179.999954 0)"/>
       <use xlink:href="#JetBrainsMono-Regular-31" transform="translate(239.999939 0)"/>
      </g>
     </g>
    </g>
    <g id="xtick_3">
     <g id="line2d_5">
      <path d="M 300.672 324.72 
L 300.672 55.44 
" clip-path="url(#p836bd2dc72)" style="fill: none; stroke-dasharray: 2.22,0.96; stroke-dashoffset: 0; stroke: #e2d5f5; stroke-opacity: 0.7; stroke-width: 0.6"/>
     </g>
     <g id="line2d_6">
      <g>
       <use xlink:href="#m8549be1d31" x="300.672" y="324.72" style="fill: #9b8bb8; stroke: #9b8bb8; stroke-width: 0.8"/>
      </g>
     </g>
     <g id="text_3">
      <!-- 04/02 -->
      <g style="fill: #9b8bb8" transform="translate(289.131619 353.301793) rotate(-30) scale(0.1 -0.1)">
       <defs>
        <path id="JetBrainsMono-Regular-32" d="M 550 0 
L 550 531 
L 2106 2195 
Q 2445 2554 2585 2835 
Q 2726 3117 2726 3386 
Q 2726 3770 2505 3997 
Q 2285 4224 1907 4224 
Q 1517 4224 1289 3990 
Q 1062 3757 1062 3360 
L 486 3360 
Q 506 3994 890 4365 
Q 1274 4736 1907 4736 
Q 2554 4736 2934 4371 
Q 3315 4006 3315 3379 
Q 3315 3046 3132 2675 
Q 2950 2304 2509 1843 
L 1248 525 
L 3373 525 
L 3373 0 
L 550 0 
z
" transform="scale(0.015625)"/>
       </defs>
       <use xlink:href="#JetBrainsMono-Regular-30"/>
       <use xlink:href="#JetBrainsMono-Regular-34" transform="translate(59.999985 0)"/>
       <use xlink:href="#JetBrainsMono-Regular-2f" transform="translate(119.999969 0)"/>
       <use xlink:href="#JetBrainsMono-Regular-30" transform="translate(179.999954 0)"/>
       <use xlink:href="#JetBrainsMono-Regular-32" transform="translate(239.999939 0)"/>
      </g>
     </g>
    </g>
    <g id="xtick_4">
     <g id="line2d_7">
      <path d="M 398.8224 324.72 
L 398.8224 55.44 
" clip-path="url(#p836bd2dc72)" style="fill: none; stroke-dasharray: 2.22,0.96; stroke-dashoffset: 0; stroke: #e2d5f5; stroke-opacity: 0.7; stroke-width: 0.6"/>
     </g>
     <g id="line2d_8">
      <g>
       <use xlink:href="#m8549be1d31" x="398.8224" y="324.72" style="fill: #9b8bb8; stroke: #9b8bb8; stroke-width: 0.8"/>
      </g>
     </g>
     <g id="text_4">
      <!-- 04/03 -->
      <g style="fill: #9b8bb8" transform="translate(387.282019 353.301793) rotate(-30) scale(0.1 -0.1)">
       <use xlink:href="#JetBrainsMono-Regular-30"/>
       <use xlink:href="#JetBrainsMono-Regular-34" transform="translate(59.999985 0)"/>
       <use xlink:href="#JetBrainsMono-Regular-2f" transform="translate(119.999969 0)"/>
       <use xlink:href="#JetBrainsMono-Regular-30" transform="translate(179.999954 0)"/>
       <use xlink:href="#JetBrainsMono-Regular-33" transform="translate(239.999939 0)"/>
      </g>
     </g>
    </g>
    <g id="xtick_5">
     <g id="line2d_9">
      <path d="M 496.9728 324.72 
L 496.9728 55.44 
" clip-path="url(#p836bd2dc72)" style="fill: none; stroke-dasharray: 2.22,0.96; stroke-dashoffset: 0; stroke: #e2d5f5; stroke-opacity: 0.7; stroke-width: 0.6"/>
     </g>
     <g id="line2d_10">
      <g>
       <use xlink:href="#m8549be1d31" x="496.9728" y="324.72" style="fill: #9b8bb8; stroke: #9b8bb8; stroke-width: 0.8"/>
      </g>
     </g>
     <g id="text_5">
      <!-- 04/04 -->
      <g style="fill: #9b8bb8" transform="translate(485.432419 353.301793) rotate(-30) scale(0.1 -0.1)">
       <use xlink:href="#JetBrainsMono-Regular-30"/>
       <use xlink:href="#JetBrainsMono-Regular-34" transform="translate(59.999985 0)"/>
       <use xlink:href="#JetBrainsMono-Regular-2f" transform="translate(119.999969 0)"/>
       <use xlink:href="#JetBrainsMono-Regular-30" transform="translate(179.999954 0)"/>
       <use xlink:href="#JetBrainsMono-Regular-34" transform="translate(239.999939 0)"/>
      </g>
     </g>
    </g>
   </g>
   <g id="matplotlib.axis_2">
    <g id="ytick_1">
     <g id="line2d_11">
      <path d="M 55.296 277.866985 
L 546.048 277.866985 
" clip-path="url(#p836bd2dc72)" style="fill: none; stroke-dasharray: 2.22,0.96; stroke-dashoffset: 0; stroke: #e2d5f5; stroke-opacity: 0.7; stroke-width: 0.6"/>
     </g>
     <g id="line2d_12">
      <defs>
       <path id="m248f58cb6d" d="M 0 0 
L -3.5 0 
" style="stroke: #9b8bb8; stroke-width: 0.8"/>
      </defs>
      <g>
       <use xlink:href="#m248f58cb6d" x="55.296" y="277.866985" style="fill: #9b8bb8; stroke: #9b8bb8; stroke-width: 0.8"/>
      </g>
     </g>
     <g id="text_6">
      <!-- 200 -->
      <g style="fill: #9b8bb8" transform="translate(30.296 281.516985) scale(0.1 -0.1)">
       <use xlink:href="#JetBrainsMono-Regular-32"/>
       <use xlink:href="#JetBrainsMono-Regular-30" transform="translate(59.999985 0)"/>
       <use xlink:href="#JetBrainsMono-Regular-30" transform="translate(119.999969 0)"/>
      </g>
     </g>
    </g>
    <g id="ytick_2">
     <g id="line2d_13">
      <path d="M 55.296 219.300716 
L 546.048 219.300716 
" clip-path="url(#p836bd2dc72)" style="fill: none; stroke-dasharray: 2.22,0.96; stroke-dashoffset: 0; stroke: #e2d5f5; stroke-opacity: 0.7; stroke-width: 0.6"/>
     </g>
     <g id="line2d_14">
      <g>
       <use xlink:href="#m248f58cb6d" x="55.296" y="219.300716" style="fill: #9b8bb8; stroke: #9b8bb8; stroke-width: 0.8"/>
      </g>
     </g>
     <g id="text_7">
      <!-- 205 -->
      <g style="fill: #9b8bb8" transform="translate(30.296 222.950716) scale(0.1 -0.1)">
       <defs>
        <path id="JetBrainsMono-Regular-35" d="M 1882 -64 
Q 1235 -64 857 297 
Q 480 659 480 1280 
L 1056 1280 
Q 1056 896 1280 672 
Q 1504 448 1888 448 
Q 2272 448 2496 672 
Q 2720 896 2720 1280 
L 2720 1568 
Q 2720 1952 2502 2176 
Q 2285 2400 1914 2400 
L 640 2400 
L 640 4672 
L 3130 4672 
L 3130 4147 
L 1178 4147 
L 1190 2925 
L 1946 2925 
Q 2592 2925 2944 2569 
Q 3296 2214 3296 1568 
L 3296 1280 
Q 3296 659 2915 297 
Q 2534 -64 1882 -64 
z
" transform="scale(0.015625)"/>
       </defs>
       <use xlink:href="#JetBrainsMono-Regular-32"/>
       <use xlink:href="#JetBrainsMono-Regular-30" transform="translate(59.999985 0)"/>
       <use xlink:href="#JetBrainsMono-Regular-35" transform="translate(119.999969 0)"/>
      </g>
     </g>
    </g>
    <g id="ytick_3">
     <g id="line2d_15">
      <path d="M 55.296 160.734447 
L 546.048 160.734447 
" clip-path="url(#p836bd2dc72)" style="fill: none; stroke-dasharray: 2.22,0.96; stroke-dashoffset: 0; stroke: #e2d5f5; stroke-opacity: 0.7; stroke-width: 0.6"/>
     </g>
     <g id="line2d_16">
      <g>
       <use xlink:href="#m248f58cb6d" x="55.296" y="160.734447" style="fill: #9b8bb8; stroke: #9b8bb8; stroke-width: 0.8"/>
      </g>
     </g>
     <g id="text_8">
      <!-- 210 -->
      <g style="fill: #9b8bb8" transform="translate(30.296 164.384447) scale(0.1 -0.1)">
       <use xlink:href="#JetBrainsMono-Regular-32"/>
       <use xlink:href="#JetBrainsMono-Regular-31" transform="translate(59.999985 0)"/>
       <use xlink:href="#JetBrainsMono-Regular-30" transform="translate(119.999969 0)"/>
      </g>
     </g>
    </g>
    <g id="ytick_4">
     <g id="line2d_17">
      <path d="M 55.296 102.168178 
L 546.048 102.168178 
" clip-path="url(#p836bd2dc72)" style="fill: none; stroke-dasharray: 2.22,0.96; stroke-dashoffset: 0; stroke: #e2d5f5; stroke-opacity: 0.7; stroke-width: 0.6"/>
     </g>
     <g id="line2d_18">
      <g>
       <use xlink:href="#m248f58cb6d" x="55.296" y="102.168178" style="fill: #9b8bb8; stroke: #9b8bb8; stroke-width: 0.8"/>
      </g>
     </g>
     <g id="text_9">
      <!-- 215 -->
      <g style="fill: #9b8bb8" transform="translate(30.296 105.818178) scale(0.1 -0.1)">
       <use xlink:href="#JetBrainsMono-Regular-32"/>
       <use xlink:href="#JetBrainsMono-Regular-31" transform="translate(59.999985 0)"/>
       <use xlink:href="#JetBrainsMono-Regular-35" transform="translate(119.999969 0)"/>
      </g>
     </g>
    </g>
    <g id="text_10">
     <!-- Rating -->
     <g style="fill: #9b8bb8" transform="translate(24.496 208.08) rotate(-90) scale(0.1 -0.1)">
      <defs>
       <path id="JetBrainsMono-Regular-52" d="M 595 0 
L 595 4672 
L 2035 4672 
Q 2451 4672 2764 4502 
Q 3078 4333 3251 4032 
Q 3424 3731 3424 3328 
Q 3424 2854 3181 2515 
Q 2938 2176 2534 2042 
L 3488 0 
L 2854 0 
L 1939 1984 
L 1165 1984 
L 1165 0 
L 595 0 
z
M 1165 2502 
L 2035 2502 
Q 2394 2502 2611 2729 
Q 2829 2957 2829 3328 
Q 2829 3706 2611 3930 
Q 2394 4154 2035 4154 
L 1165 4154 
L 1165 2502 
z
" transform="scale(0.015625)"/>
       <path id="JetBrainsMono-Regular-61" d="M 1613 -64 
Q 1069 -64 749 240 
Q 429 544 429 1037 
Q 429 1363 576 1606 
Q 723 1850 985 1987 
Q 1248 2125 1587 2125 
L 2675 2125 
L 2675 2400 
Q 2675 3085 1926 3085 
Q 1594 3085 1389 2963 
Q 1184 2842 1171 2624 
L 595 2624 
Q 627 3040 982 3312 
Q 1338 3584 1926 3584 
Q 2566 3584 2908 3277 
Q 3251 2970 3251 2419 
L 3251 0 
L 2682 0 
L 2682 640 
L 2669 640 
Q 2618 314 2342 125 
Q 2067 -64 1613 -64 
z
M 1754 422 
Q 2176 422 2425 627 
Q 2675 832 2675 1184 
L 2675 1677 
L 1651 1677 
Q 1370 1677 1194 1507 
Q 1018 1338 1018 1056 
Q 1018 762 1213 592 
Q 1408 422 1754 422 
z
" transform="scale(0.015625)"/>
       <path id="JetBrainsMono-Regular-74" d="M 2272 0 
Q 1837 0 1574 253 
Q 1312 506 1312 928 
L 1312 2995 
L 301 2995 
L 301 3520 
L 1312 3520 
L 1312 4512 
L 1888 4512 
L 1888 3520 
L 3328 3520 
L 3328 2995 
L 1888 2995 
L 1888 928 
Q 1888 749 1993 637 
Q 2099 525 2272 525 
L 3296 525 
L 3296 0 
L 2272 0 
z
" transform="scale(0.015625)"/>
       <path id="JetBrainsMono-Regular-69" d="M 544 0 
L 544 525 
L 1792 525 
L 1792 2995 
L 672 2995 
L 672 3520 
L 2368 3520 
L 2368 525 
L 3552 525 
L 3552 0 
L 544 0 
z
M 2016 4154 
Q 1805 4154 1683 4262 
Q 1562 4371 1562 4557 
Q 1562 4749 1683 4861 
Q 1805 4973 2016 4973 
Q 2227 4973 2348 4861 
Q 2470 4749 2470 4557 
Q 2470 4371 2348 4262 
Q 2227 4154 2016 4154 
z
" transform="scale(0.015625)"/>
       <path id="JetBrainsMono-Regular-6e" d="M 589 0 
L 589 3520 
L 1165 3520 
L 1165 2848 
L 1171 2848 
Q 1216 3200 1459 3392 
Q 1702 3584 2106 3584 
Q 2637 3584 2950 3257 
Q 3264 2931 3264 2368 
L 3264 0 
L 2688 0 
L 2688 2266 
Q 2688 2669 2486 2883 
Q 2285 3098 1939 3098 
Q 1581 3098 1373 2874 
Q 1165 2650 1165 2240 
L 1165 0 
L 589 0 
z
" transform="scale(0.015625)"/>
       <path id="JetBrainsMono-Regular-67" d="M 1030 -1152 
L 1030 -627 
L 2022 -627 
Q 2323 -627 2496 -457 
Q 2669 -288 2669 0 
L 2669 320 
L 2682 896 
L 2662 896 
Q 2611 582 2361 412 
Q 2112 243 1734 243 
Q 1190 243 876 588 
Q 563 934 563 1536 
L 563 2278 
Q 563 2880 876 3232 
Q 1190 3584 1734 3584 
Q 2112 3584 2361 3405 
Q 2611 3226 2662 2912 
L 2675 2912 
L 2675 3520 
L 3245 3520 
L 3245 0 
Q 3245 -531 2915 -841 
Q 2586 -1152 2016 -1152 
L 1030 -1152 
z
M 1907 723 
Q 2266 723 2470 947 
Q 2675 1171 2675 1568 
L 2675 2240 
Q 2675 2637 2470 2861 
Q 2266 3085 1907 3085 
Q 1542 3085 1340 2873 
Q 1139 2662 1139 2304 
L 1139 1504 
Q 1139 1146 1340 934 
Q 1542 723 1907 723 
z
" transform="scale(0.015625)"/>
      </defs>
      <use xlink:href="#JetBrainsMono-Regular-52"/>
      <use xlink:href="#JetBrainsMono-Regular-61" transform="translate(59.999985 0)"/>
      <use xlink:href="#JetBrainsMono-Regular-74" transform="translate(119.999969 0)"/>
      <use xlink:href="#JetBrainsMono-Regular-69" transform="translate(179.999954 0)"/>
      <use xlink:href="#JetBrainsMono-Regular-6e" transform="translate(239.999939 0)"/>
      <use xlink:href="#JetBrainsMono-Regular-67" transform="translate(299.999924 0)"/>
     </g>
    </g>
   </g>
   <g id="patch_3">
    <path d="M 55.296 324.72 
L 55.296 55.44 
" style="fill: none; stroke: #d8c8ef; stroke-width: 0.8; stroke-linejoin: miter; stroke-linecap: square"/>
   </g>
   <g id="patch_4">
    <path d="M 55.296 324.72 
L 546.048 324.72 
" style="fill: none; stroke: #d8c8ef; stroke-width: 0.8; stroke-linejoin: miter; stroke-linecap: square"/>
   </g>
   <g id="FillBetweenPolyCollection_1">
    <defs>
     <path id="mf893ba9d8d" d="M 104.3712 -71.28 
L 104.3712 -129.846269 
L 105.684249 -131.010831 
L 106.997298 -132.12834 
L 108.310346 -133.199434 
L 109.623395 -134.224751 
L 110.936444 -135.204929 
L 112.249493 -136.140606 
L 113.562542 -137.03242 
L 114.875591 -137.881009 
L 116.188639 -138.687011 
L 117.501688 -139.451064 
L 118.814737 -140.173806 
L 120.127786 -140.855875 
L 121.440835 -141.49791 
L 122.753884 -142.100547 
L 124.066932 -142.664425 
L 125.379981 -143.190183 
L 126.69303 -143.678458 
L 128.006079 -144.129887 
L 129.319128 -144.54511 
L 130.632177 -144.924764 
L 131.945225 -145.269487 
L 133.258274 -145.579917 
L 134.571323 -145.856693 
L 135.884372 -146.100451 
L 137.197421 -146.311831 
L 138.51047 -146.49147 
L 139.823518 -146.640006 
L 141.136567 -146.758077 
L 142.449616 -146.846321 
L 143.762665 -146.905377 
L 145.075714 -146.935881 
L 146.388763 -146.938473 
L 147.701811 -146.91379 
L 149.01486 -146.862471 
L 150.327909 -146.785152 
L 151.640958 -146.682473 
L 152.954007 -146.555071 
L 154.267056 -146.403584 
L 155.580104 -146.228651 
L 156.893153 -146.030909 
L 158.206202 -145.810996 
L 159.519251 -145.56955 
L 160.8323 -145.307209 
L 162.145348 -145.024612 
L 163.458397 -144.722396 
L 164.771446 -144.4012 
L 166.084495 -144.06166 
L 167.397544 -143.704417 
L 168.710593 -143.330106 
L 170.023641 -142.939366 
L 171.33669 -142.532836 
L 172.649739 -142.111154 
L 173.962788 -141.674956 
L 175.275837 -141.224883 
L 176.588886 -140.76157 
L 177.901934 -140.285657 
L 179.214983 -139.797781 
L 180.528032 -139.29858 
L 181.841081 -138.788693 
L 183.15413 -138.268757 
L 184.467179 -137.739411 
L 185.780227 -137.201292 
L 187.093276 -136.655039 
L 188.406325 -136.101288 
L 189.719374 -135.54068 
L 191.032423 -134.973851 
L 192.345472 -134.401439 
L 193.65852 -133.824082 
L 194.971569 -133.24242 
L 196.284618 -132.657088 
L 197.597667 -132.068726 
L 198.910716 -131.477972 
L 200.223765 -130.885463 
L 201.536813 -130.291837 
L 202.849862 -129.697733 
L 204.162911 -129.103788 
L 205.47596 -128.510641 
L 206.789009 -127.91893 
L 208.102058 -127.329292 
L 209.415106 -126.742366 
L 210.728155 -126.158789 
L 212.041204 -125.579199 
L 213.354253 -125.004235 
L 214.667302 -124.434535 
L 215.980351 -123.870736 
L 217.293399 -123.313477 
L 218.606448 -122.763396 
L 219.919497 -122.22113 
L 221.232546 -121.687317 
L 222.545595 -121.162597 
L 223.858643 -120.647605 
L 225.171692 -120.142982 
L 226.484741 -119.649364 
L 227.79779 -119.16739 
L 229.110839 -118.697697 
L 230.423888 -118.240924 
L 231.736936 -117.797708 
L 233.049985 -117.368689 
L 234.363034 -116.954503 
L 235.676083 -116.555788 
L 236.989132 -116.173183 
L 238.302181 -115.807326 
L 239.615229 -115.458855 
L 240.928278 -115.128407 
L 242.241327 -114.816621 
L 243.554376 -114.524135 
L 244.867425 -114.251586 
L 246.180474 -113.999614 
L 247.493522 -113.768854 
L 248.806571 -113.559947 
L 250.11962 -113.373529 
L 251.432669 -113.21024 
L 252.745718 -113.070715 
L 254.058767 -112.955595 
L 255.371815 -112.865516 
L 256.684864 -112.801118 
L 257.997913 -112.763037 
L 259.310962 -112.751911 
L 260.624011 -112.76838 
L 261.93706 -112.81308 
L 263.250108 -112.88665 
L 264.563157 -112.989728 
L 265.876206 -113.122952 
L 267.189255 -113.28696 
L 268.502304 -113.482389 
L 269.815353 -113.709879 
L 271.128401 -113.970066 
L 272.44145 -114.263589 
L 273.754499 -114.591086 
L 275.067548 -114.953195 
L 276.380597 -115.350553 
L 277.693645 -115.7838 
L 279.006694 -116.253572 
L 280.319743 -116.760509 
L 281.632792 -117.305247 
L 282.945841 -117.888425 
L 284.25889 -118.510681 
L 285.571938 -119.172653 
L 286.884987 -119.874979 
L 288.198036 -120.618297 
L 289.511085 -121.403245 
L 290.824134 -122.230461 
L 292.137183 -123.100582 
L 293.450231 -124.014248 
L 294.76328 -124.972096 
L 296.076329 -125.974763 
L 297.389378 -127.022889 
L 298.702427 -128.117111 
L 300.015476 -129.258067 
L 301.328524 -130.44636 
L 302.641573 -131.681809 
L 303.954622 -132.963445 
L 305.267671 -134.290266 
L 306.58072 -135.661269 
L 307.893769 -137.075451 
L 309.206817 -138.53181 
L 310.519866 -140.029343 
L 311.832915 -141.567048 
L 313.145964 -143.143922 
L 314.459013 -144.758962 
L 315.772062 -146.411166 
L 317.08511 -148.099532 
L 318.398159 -149.823056 
L 319.711208 -151.580737 
L 321.024257 -153.371571 
L 322.337306 -155.194556 
L 323.650355 -157.048689 
L 324.963403 -158.932969 
L 326.276452 -160.846391 
L 327.589501 -162.787954 
L 328.90255 -164.756656 
L 330.215599 -166.751492 
L 331.528647 -168.771462 
L 332.841696 -170.815562 
L 334.154745 -172.88279 
L 335.467794 -174.972143 
L 336.780843 -177.082618 
L 338.093892 -179.213214 
L 339.40694 -181.362927 
L 340.719989 -183.530754 
L 342.033038 -185.715694 
L 343.346087 -187.916744 
L 344.659136 -190.132901 
L 345.972185 -192.363162 
L 347.285233 -194.606525 
L 348.598282 -196.861988 
L 349.911331 -199.128547 
L 351.22438 -201.405201 
L 352.537429 -203.690946 
L 353.850478 -205.98478 
L 355.163526 -208.2857 
L 356.476575 -210.592705 
L 357.789624 -212.904791 
L 359.102673 -215.220955 
L 360.415722 -217.540195 
L 361.728771 -219.861509 
L 363.041819 -222.183894 
L 364.354868 -224.506348 
L 365.667917 -226.827867 
L 366.980966 -229.147449 
L 368.294015 -231.464092 
L 369.607064 -233.776793 
L 370.920112 -236.084549 
L 372.233161 -238.386358 
L 373.54621 -240.681218 
L 374.859259 -242.968125 
L 376.172308 -245.246077 
L 377.485357 -247.514072 
L 378.798405 -249.771107 
L 380.111454 -252.016179 
L 381.424503 -254.248286 
L 382.737552 -256.466425 
L 384.050601 -258.669594 
L 385.363649 -260.85679 
L 386.676698 -263.02701 
L 387.989747 -265.179252 
L 389.302796 -267.312514 
L 390.615845 -269.425792 
L 391.928894 -271.518084 
L 393.241942 -273.588388 
L 394.554991 -275.635701 
L 395.86804 -277.65902 
L 397.181089 -279.657343 
L 398.494138 -281.629667 
L 399.807187 -283.57499 
L 401.120235 -285.492309 
L 402.433284 -287.380621 
L 403.746333 -289.238925 
L 405.059382 -291.066216 
L 406.372431 -292.861494 
L 407.68548 -294.623754 
L 408.998528 -296.351995 
L 410.311577 -298.045214 
L 411.624626 -299.702408 
L 412.937675 -301.322576 
L 414.250724 -302.904713 
L 415.563773 -304.447818 
L 416.876821 -305.950888 
L 418.18987 -307.412921 
L 419.502919 -308.832913 
L 420.815968 -310.209863 
L 422.129017 -311.542768 
L 423.442066 -312.830625 
L 424.755114 -314.072431 
L 426.068163 -315.267184 
L 427.381212 -316.413882 
L 428.694261 -317.511522 
L 430.00731 -318.559101 
L 431.320359 -319.555616 
L 432.633407 -320.500066 
L 433.946456 -321.391447 
L 435.259505 -322.228757 
L 436.572554 -323.010993 
L 437.885603 -323.737153 
L 439.198652 -324.406234 
L 440.5117 -325.017234 
L 441.824749 -325.56915 
L 443.137798 -326.060979 
L 444.450847 -326.491719 
L 445.763896 -326.860368 
L 447.076944 -327.165922 
L 448.389993 -327.407379 
L 449.703042 -327.583736 
L 451.016091 -327.693992 
L 452.32914 -327.737143 
L 453.642189 -327.712187 
L 454.955237 -327.61812 
L 456.268286 -327.453942 
L 457.581335 -327.218648 
L 458.894384 -326.911237 
L 460.207433 -326.530706 
L 461.520482 -326.076052 
L 462.83353 -325.546273 
L 464.146579 -324.940366 
L 465.459628 -324.257328 
L 466.772677 -323.496157 
L 468.085726 -322.655851 
L 469.398775 -321.735406 
L 470.711823 -320.733821 
L 472.024872 -319.650092 
L 473.337921 -318.483218 
L 474.65097 -317.232194 
L 475.964019 -315.89602 
L 477.277068 -314.473692 
L 478.590116 -312.964207 
L 479.903165 -311.366564 
L 481.216214 -309.679759 
L 482.529263 -307.902791 
L 483.842312 -306.034655 
L 485.155361 -304.074351 
L 486.468409 -302.020874 
L 487.781458 -299.873223 
L 489.094507 -297.630396 
L 490.407556 -295.291388 
L 491.720605 -292.855199 
L 493.033654 -290.320825 
L 494.346702 -287.687263 
L 495.659751 -284.953512 
L 496.9728 -282.118568 
L 496.9728 -71.28 
L 496.9728 -71.28 
L 495.659751 -71.28 
L 494.346702 -71.28 
L 493.033654 -71.28 
L 491.720605 -71.28 
L 490.407556 -71.28 
L 489.094507 -71.28 
L 487.781458 -71.28 
L 486.468409 -71.28 
L 485.155361 -71.28 
L 483.842312 -71.28 
L 482.529263 -71.28 
L 481.216214 -71.28 
L 479.903165 -71.28 
L 478.590116 -71.28 
L 477.277068 -71.28 
L 475.964019 -71.28 
L 474.65097 -71.28 
L 473.337921 -71.28 
L 472.024872 -71.28 
L 470.711823 -71.28 
L 469.398775 -71.28 
L 468.085726 -71.28 
L 466.772677 -71.28 
L 465.459628 -71.28 
L 464.146579 -71.28 
L 462.83353 -71.28 
L 461.520482 -71.28 
L 460.207433 -71.28 
L 458.894384 -71.28 
L 457.581335 -71.28 
L 456.268286 -71.28 
L 454.955237 -71.28 
L 453.642189 -71.28 
L 452.32914 -71.28 
L 451.016091 -71.28 
L 449.703042 -71.28 
L 448.389993 -71.28 
L 447.076944 -71.28 
L 445.763896 -71.28 
L 444.450847 -71.28 
L 443.137798 -71.28 
L 441.824749 -71.28 
L 440.5117 -71.28 
L 439.198652 -71.28 
L 437.885603 -71.28 
L 436.572554 -71.28 
L 435.259505 -71.28 
L 433.946456 -71.28 
L 432.633407 -71.28 
L 431.320359 -71.28 
L 430.00731 -71.28 
L 428.694261 -71.28 
L 427.381212 -71.28 
L 426.068163 -71.28 
L 424.755114 -71.28 
L 423.442066 -71.28 
L 422.129017 -71.28 
L 420.815968 -71.28 
L 419.502919 -71.28 
L 418.18987 -71.28 
L 416.876821 -71.28 
L 415.563773 -71.28 
L 414.250724 -71.28 
L 412.937675 -71.28 
L 411.624626 -71.28 
L 410.311577 -71.28 
L 408.998528 -71.28 
L 407.68548 -71.28 
L 406.372431 -71.28 
L 405.059382 -71.28 
L 403.746333 -71.28 
L 402.433284 -71.28 
L 401.120235 -71.28 
L 399.807187 -71.28 
L 398.494138 -71.28 
L 397.181089 -71.28 
L 395.86804 -71.28 
L 394.554991 -71.28 
L 393.241942 -71.28 
L 391.928894 -71.28 
L 390.615845 -71.28 
L 389.302796 -71.28 
L 387.989747 -71.28 
L 386.676698 -71.28 
L 385.363649 -71.28 
L 384.050601 -71.28 
L 382.737552 -71.28 
L 381.424503 -71.28 
L 380.111454 -71.28 
L 378.798405 -71.28 
L 377.485357 -71.28 
L 376.172308 -71.28 
L 374.859259 -71.28 
L 373.54621 -71.28 
L 372.233161 -71.28 
L 370.920112 -71.28 
L 369.607064 -71.28 
L 368.294015 -71.28 
L 366.980966 -71.28 
L 365.667917 -71.28 
L 364.354868 -71.28 
L 363.041819 -71.28 
L 361.728771 -71.28 
L 360.415722 -71.28 
L 359.102673 -71.28 
L 357.789624 -71.28 
L 356.476575 -71.28 
L 355.163526 -71.28 
L 353.850478 -71.28 
L 352.537429 -71.28 
L 351.22438 -71.28 
L 349.911331 -71.28 
L 348.598282 -71.28 
L 347.285233 -71.28 
L 345.972185 -71.28 
L 344.659136 -71.28 
L 343.346087 -71.28 
L 342.033038 -71.28 
L 340.719989 -71.28 
L 339.40694 -71.28 
L 338.093892 -71.28 
L 336.780843 -71.28 
L 335.467794 -71.28 
L 334.154745 -71.28 
L 332.841696 -71.28 
L 331.528647 -71.28 
L 330.215599 -71.28 
L 328.90255 -71.28 
L 327.589501 -71.28 
L 326.276452 -71.28 
L 324.963403 -71.28 
L 323.650355 -71.28 
L 322.337306 -71.28 
L 321.024257 -71.28 
L 319.711208 -71.28 
L 318.398159 -71.28 
L 317.08511 -71.28 
L 315.772062 -71.28 
L 314.459013 -71.28 
L 313.145964 -71.28 
L 311.832915 -71.28 
L 310.519866 -71.28 
L 309.206817 -71.28 
L 307.893769 -71.28 
L 306.58072 -71.28 
L 305.267671 -71.28 
L 303.954622 -71.28 
L 302.641573 -71.28 
L 301.328524 -71.28 
L 300.015476 -71.28 
L 298.702427 -71.28 
L 297.389378 -71.28 
L 296.076329 -71.28 
L 294.76328 -71.28 
L 293.450231 -71.28 
L 292.137183 -71.28 
L 290.824134 -71.28 
L 289.511085 -71.28 
L 288.198036 -71.28 
L 286.884987 -71.28 
L 285.571938 -71.28 
L 284.25889 -71.28 
L 282.945841 -71.28 
L 281.632792 -71.28 
L 280.319743 -71.28 
L 279.006694 -71.28 
L 277.693645 -71.28 
L 276.380597 -71.28 
L 275.067548 -71.28 
L 273.754499 -71.28 
L 272.44145 -71.28 
L 271.128401 -71.28 
L 269.815353 -71.28 
L 268.502304 -71.28 
L 267.189255 -71.28 
L 265.876206 -71.28 
L 264.563157 -71.28 
L 263.250108 -71.28 
L 261.93706 -71.28 
L 260.624011 -71.28 
L 259.310962 -71.28 
L 257.997913 -71.28 
L 256.684864 -71.28 
L 255.371815 -71.28 
L 254.058767 -71.28 
L 252.745718 -71.28 
L 251.432669 -71.28 
L 250.11962 -71.28 
L 248.806571 -71.28 
L 247.493522 -71.28 
L 246.180474 -71.28 
L 244.867425 -71.28 
L 243.554376 -71.28 
L 242.241327 -71.28 
L 240.928278 -71.28 
L 239.615229 -71.28 
L 238.302181 -71.28 
L 236.989132 -71.28 
L 235.676083 -71.28 
L 234.363034 -71.28 
L 233.049985 -71.28 
L 231.736936 -71.28 
L 230.423888 -71.28 
L 229.110839 -71.28 
L 227.79779 -71.28 
L 226.484741 -71.28 
L 225.171692 -71.28 
L 223.858643 -71.28 
L 222.545595 -71.28 
L 221.232546 -71.28 
L 219.919497 -71.28 
L 218.606448 -71.28 
L 217.293399 -71.28 
L 215.980351 -71.28 
L 214.667302 -71.28 
L 213.354253 -71.28 
L 212.041204 -71.28 
L 210.728155 -71.28 
L 209.415106 -71.28 
L 208.102058 -71.28 
L 206.789009 -71.28 
L 205.47596 -71.28 
L 204.162911 -71.28 
L 202.849862 -71.28 
L 201.536813 -71.28 
L 200.223765 -71.28 
L 198.910716 -71.28 
L 197.597667 -71.28 
L 196.284618 -71.28 
L 194.971569 -71.28 
L 193.65852 -71.28 
L 192.345472 -71.28 
L 191.032423 -71.28 
L 189.719374 -71.28 
L 188.406325 -71.28 
L 187.093276 -71.28 
L 185.780227 -71.28 
L 184.467179 -71.28 
L 183.15413 -71.28 
L 181.841081 -71.28 
L 180.528032 -71.28 
L 179.214983 -71.28 
L 177.901934 -71.28 
L 176.588886 -71.28 
L 175.275837 -71.28 
L 173.962788 -71.28 
L 172.649739 -71.28 
L 171.33669 -71.28 
L 170.023641 -71.28 
L 168.710593 -71.28 
L 167.397544 -71.28 
L 166.084495 -71.28 
L 164.771446 -71.28 
L 163.458397 -71.28 
L 162.145348 -71.28 
L 160.8323 -71.28 
L 159.519251 -71.28 
L 158.206202 -71.28 
L 156.893153 -71.28 
L 155.580104 -71.28 
L 154.267056 -71.28 
L 152.954007 -71.28 
L 151.640958 -71.28 
L 150.327909 -71.28 
L 149.01486 -71.28 
L 147.701811 -71.28 
L 146.388763 -71.28 
L 145.075714 -71.28 
L 143.762665 -71.28 
L 142.449616 -71.28 
L 141.136567 -71.28 
L 139.823518 -71.28 
L 138.51047 -71.28 
L 137.197421 -71.28 
L 135.884372 -71.28 
L 134.571323 -71.28 
L 133.258274 -71.28 
L 131.945225 -71.28 
L 130.632177 -71.28 
L 129.319128 -71.28 
L 128.006079 -71.28 
L 126.69303 -71.28 
L 125.379981 -71.28 
L 124.066932 -71.28 
L 122.753884 -71.28 
L 121.440835 -71.28 
L 120.127786 -71.28 
L 118.814737 -71.28 
L 117.501688 -71.28 
L 116.188639 -71.28 
L 114.875591 -71.28 
L 113.562542 -71.28 
L 112.249493 -71.28 
L 110.936444 -71.28 
L 109.623395 -71.28 
L 108.310346 -71.28 
L 106.997298 -71.28 
L 105.684249 -71.28 
L 104.3712 -71.28 
z
" style="stroke: #8b5cf6; stroke-opacity: 0.12"/>
    </defs>
    <g clip-path="url(#p836bd2dc72)">
     <use xlink:href="#mf893ba9d8d" x="0" y="396" style="fill: #8b5cf6; fill-opacity: 0.12; stroke: #8b5cf6; stroke-opacity: 0.12"/>
    </g>
   </g>
   <g id="text_11">
    <!-- 214 -->
    <g style="fill: #8b5cf6" transform="translate(499.9728 110.881432) scale(0.12 -0.12)">
     <defs>
      <path id="JetBrainsMono-Bold-32" d="M 474 0 
L 474 723 
L 2157 2445 
Q 2566 2874 2566 3315 
Q 2566 3629 2384 3824 
Q 2202 4019 1894 4019 
Q 1581 4019 1392 3817 
Q 1203 3616 1203 3283 
L 403 3283 
Q 403 3718 595 4044 
Q 787 4371 1126 4553 
Q 1466 4736 1914 4736 
Q 2355 4736 2688 4563 
Q 3021 4390 3203 4080 
Q 3386 3770 3386 3354 
Q 3386 2995 3216 2636 
Q 3046 2278 2656 1894 
L 1478 723 
L 3443 723 
L 3443 0 
L 474 0 
z
" transform="scale(0.015625)"/>
      <path id="JetBrainsMono-Bold-31" d="M 538 0 
L 538 723 
L 1754 723 
L 1754 3898 
L 531 3002 
L 531 3898 
L 1606 4672 
L 2554 4672 
L 2554 723 
L 3533 723 
L 3533 0 
L 538 0 
z
" transform="scale(0.015625)"/>
      <path id="JetBrainsMono-Bold-34" d="M 2445 0 
L 2445 928 
L 378 928 
L 378 2086 
L 2106 4672 
L 2995 4672 
L 1146 1875 
L 1146 1632 
L 2445 1632 
L 2445 2688 
L 3251 2688 
L 3251 0 
L 2445 0 
z
" transform="scale(0.015625)"/>
     </defs>
     <use xlink:href="#JetBrainsMono-Bold-32"/>
     <use xlink:href="#JetBrainsMono-Bold-31" transform="translate(59.999985 0)"/>
     <use xlink:href="#JetBrainsMono-Bold-34" transform="translate(119.999969 0)"/>
    </g>
   </g>
   <g id="text_12">
    <!-- Rating History -->
    <g style="fill: #8b5cf6" transform="translate(55.296 50.44) scale(0.17 -0.17)">
     <defs>
      <path id="JetBrainsMono-Bold-52" d="M 493 0 
L 493 4672 
L 1965 4672 
Q 2432 4672 2774 4499 
Q 3117 4326 3309 4016 
Q 3501 3706 3501 3283 
Q 3501 2816 3270 2467 
Q 3040 2118 2650 1971 
L 3565 0 
L 2688 0 
L 1869 1856 
L 1286 1856 
L 1286 0 
L 493 0 
z
M 1286 2560 
L 1965 2560 
Q 2304 2560 2496 2745 
Q 2688 2931 2688 3258 
Q 2688 3584 2493 3776 
Q 2298 3968 1965 3968 
L 1286 3968 
L 1286 2560 
z
" transform="scale(0.015625)"/>
      <path id="JetBrainsMono-Bold-61" d="M 1530 -64 
Q 992 -64 681 240 
Q 371 544 371 1037 
Q 371 1549 723 1853 
Q 1075 2157 1690 2157 
L 2547 2157 
L 2547 2406 
Q 2547 2938 1926 2938 
Q 1645 2938 1478 2829 
Q 1312 2720 1293 2522 
L 525 2522 
Q 550 2995 924 3289 
Q 1299 3584 1933 3584 
Q 2605 3584 2976 3270 
Q 3347 2957 3347 2387 
L 3347 0 
L 2566 0 
L 2566 659 
Q 2522 320 2246 128 
Q 1971 -64 1530 -64 
z
M 1786 589 
Q 2138 589 2342 761 
Q 2547 934 2547 1222 
L 2547 1638 
L 1728 1638 
Q 1466 1638 1312 1491 
Q 1158 1344 1158 1114 
Q 1158 877 1321 733 
Q 1485 589 1786 589 
z
" transform="scale(0.015625)"/>
      <path id="JetBrainsMono-Bold-74" d="M 2272 0 
Q 1779 0 1488 285 
Q 1197 570 1197 1056 
L 1197 2797 
L 224 2797 
L 224 3520 
L 1197 3520 
L 1197 4512 
L 2003 4512 
L 2003 3520 
L 3405 3520 
L 3405 2797 
L 2003 2797 
L 2003 1075 
Q 2003 922 2089 822 
Q 2176 723 2330 723 
L 3373 723 
L 3373 0 
L 2272 0 
z
" transform="scale(0.015625)"/>
      <path id="JetBrainsMono-Bold-69" d="M 486 0 
L 486 723 
L 1690 723 
L 1690 2797 
L 614 2797 
L 614 3520 
L 2490 3520 
L 2490 723 
L 3571 723 
L 3571 0 
L 486 0 
z
M 2032 4109 
Q 1789 4109 1648 4233 
Q 1507 4358 1507 4570 
Q 1507 4781 1648 4905 
Q 1789 5030 2032 5030 
Q 2275 5030 2416 4905 
Q 2557 4781 2557 4570 
Q 2557 4358 2416 4233 
Q 2275 4109 2032 4109 
z
" transform="scale(0.015625)"/>
      <path id="JetBrainsMono-Bold-6e" d="M 493 0 
L 493 3520 
L 1274 3520 
L 1274 2861 
Q 1338 3194 1587 3389 
Q 1837 3584 2221 3584 
Q 2739 3584 3049 3238 
Q 3360 2893 3360 2310 
L 3360 0 
L 2560 0 
L 2560 2214 
Q 2560 2541 2390 2717 
Q 2221 2893 1933 2893 
Q 1632 2893 1462 2713 
Q 1293 2534 1293 2202 
L 1293 0 
L 493 0 
z
" transform="scale(0.015625)"/>
      <path id="JetBrainsMono-Bold-67" d="M 973 -1152 
L 973 -486 
L 1965 -486 
Q 2246 -486 2400 -336 
Q 2554 -186 2554 70 
L 2554 282 
L 2566 832 
Q 2458 538 2218 374 
Q 1978 211 1632 211 
Q 1094 211 777 572 
Q 461 934 461 1555 
L 461 2240 
Q 461 2854 777 3219 
Q 1094 3584 1632 3584 
Q 1978 3584 2218 3421 
Q 2458 3258 2566 2957 
L 2566 3520 
L 3347 3520 
L 3347 51 
Q 3347 -506 2979 -829 
Q 2611 -1152 1978 -1152 
L 973 -1152 
z
M 1901 896 
Q 2208 896 2377 1078 
Q 2547 1261 2547 1587 
L 2547 2202 
Q 2547 2528 2377 2710 
Q 2208 2893 1901 2893 
Q 1594 2893 1427 2717 
Q 1261 2541 1261 2227 
L 1261 1562 
Q 1261 1248 1427 1072 
Q 1594 896 1901 896 
z
" transform="scale(0.015625)"/>
      <path id="JetBrainsMono-Bold-20" transform="scale(0.015625)"/>
      <path id="JetBrainsMono-Bold-48" d="M 493 0 
L 493 4672 
L 1293 4672 
L 1293 2778 
L 2547 2778 
L 2547 4672 
L 3347 4672 
L 3347 0 
L 2547 0 
L 2547 2054 
L 1293 2054 
L 1293 0 
L 493 0 
z
" transform="scale(0.015625)"/>
      <path id="JetBrainsMono-Bold-73" d="M 1773 -58 
Q 1146 -58 781 227 
Q 416 512 416 998 
L 1203 998 
Q 1203 794 1353 685 
Q 1504 576 1773 576 
L 2054 576 
Q 2342 576 2499 685 
Q 2656 794 2656 998 
Q 2656 1190 2547 1283 
Q 2438 1376 2214 1408 
L 1338 1523 
Q 915 1581 688 1849 
Q 461 2118 461 2547 
Q 461 3046 793 3312 
Q 1126 3578 1754 3578 
L 2048 3578 
Q 2637 3578 2995 3309 
Q 3354 3040 3366 2592 
L 2573 2592 
Q 2566 2758 2425 2857 
Q 2285 2957 2048 2957 
L 1754 2957 
Q 1498 2957 1363 2851 
Q 1229 2746 1229 2566 
Q 1229 2406 1328 2329 
Q 1427 2253 1619 2234 
L 2445 2118 
Q 2931 2061 3177 1776 
Q 3424 1491 3424 1011 
Q 3424 499 3075 220 
Q 2726 -58 2054 -58 
L 1773 -58 
z
" transform="scale(0.015625)"/>
      <path id="JetBrainsMono-Bold-6f" d="M 1920 -58 
Q 1242 -58 845 323 
Q 448 704 448 1350 
L 448 2170 
Q 448 2822 845 3200 
Q 1242 3578 1920 3578 
Q 2598 3578 2995 3200 
Q 3392 2822 3392 2170 
L 3392 1350 
Q 3392 704 2995 323 
Q 2598 -58 1920 -58 
z
M 1920 640 
Q 2240 640 2416 816 
Q 2592 992 2592 1325 
L 2592 2195 
Q 2592 2528 2416 2704 
Q 2240 2880 1920 2880 
Q 1600 2880 1424 2704 
Q 1248 2528 1248 2195 
L 1248 1325 
Q 1248 992 1424 816 
Q 1600 640 1920 640 
z
" transform="scale(0.015625)"/>
      <path id="JetBrainsMono-Bold-72" d="M 621 0 
L 621 3520 
L 1402 3520 
L 1402 2835 
Q 1466 3181 1718 3382 
Q 1971 3584 2374 3584 
Q 2912 3584 3213 3238 
Q 3514 2893 3514 2272 
L 3514 1939 
L 2714 1939 
L 2714 2234 
Q 2714 2554 2547 2723 
Q 2381 2893 2074 2893 
Q 1754 2893 1587 2701 
Q 1421 2509 1421 2157 
L 1421 0 
L 621 0 
z
" transform="scale(0.015625)"/>
      <path id="JetBrainsMono-Bold-79" d="M 1056 -1152 
L 1555 192 
L 230 3520 
L 1075 3520 
L 1754 1722 
Q 1811 1562 1868 1373 
Q 1926 1184 1952 1024 
Q 1971 1184 2025 1373 
Q 2080 1562 2138 1722 
L 2765 3520 
L 3610 3520 
L 1894 -1152 
L 1056 -1152 
z
" transform="scale(0.015625)"/>
     </defs>
     <use xlink:href="#JetBrainsMono-Bold-52"/>
     <use xlink:href="#JetBrainsMono-Bold-61" transform="translate(59.999985 0)"/>
     <use xlink:href="#JetBrainsMono-Bold-74" transform="translate(119.999969 0)"/>
     <use xlink:href="#JetBrainsMono-Bold-69" transform="translate(179.999954 0)"/>
     <use xlink:href="#JetBrainsMono-Bold-6e" transform="translate(239.999939 0)"/>
     <use xlink:href="#JetBrainsMono-Bold-67" transform="translate(299.999924 0)"/>
     <use xlink:href="#JetBrainsMono-Bold-20" transform="translate(359.999908 0)"/>
     <use xlink:href="#JetBrainsMono-Bold-48" transform="translate(419.999893 0)"/>
     <use xlink:href="#JetBrainsMono-Bold-69" transform="translate(479.999878 0)"/>
     <use xlink:href="#JetBrainsMono-Bold-73" transform="translate(539.999863 0)"/>
     <use xlink:href="#JetBrainsMono-Bold-74" transform="translate(599.999847 0)"/>
     <use xlink:href="#JetBrainsMono-Bold-6f" transform="translate(659.999832 0)"/>
     <use xlink:href="#JetBrainsMono-Bold-72" transform="translate(719.999817 0)"/>
     <use xlink:href="#JetBrainsMono-Bold-79" transform="translate(779.999802 0)"/>
    </g>
   </g>
   <g id="line2d_19">
    <path d="M 104.3712 266.153731 
L 108.310346 262.800566 
L 112.249493 259.859394 
L 116.188639 257.312989 
L 120.127786 255.144125 
L 124.066932 253.335575 
L 128.006079 251.870113 
L 131.945225 250.730513 
L 135.884372 249.899549 
L 139.823518 249.359994 
L 143.762665 249.094623 
L 147.701811 249.08621 
L 151.640958 249.317527 
L 155.580104 249.771349 
L 159.519251 250.43045 
L 163.458397 251.277604 
L 168.710593 252.669894 
L 173.962788 254.325044 
L 179.214983 256.202219 
L 185.780227 258.798708 
L 193.65852 262.175918 
L 221.232546 274.312683 
L 227.79779 276.83261 
L 233.049985 278.631311 
L 238.302181 280.192674 
L 243.554376 281.475865 
L 247.493522 282.231146 
L 251.432669 282.78976 
L 255.371815 283.134484 
L 259.310962 283.248089 
L 263.250108 283.11335 
L 267.189255 282.71304 
L 271.128401 282.029934 
L 275.067548 281.046805 
L 279.006694 279.746428 
L 282.945841 278.111575 
L 286.884987 276.125021 
L 290.824134 273.769539 
L 294.76328 271.027904 
L 298.702427 267.882889 
L 302.641573 264.318191 
L 306.58072 260.338731 
L 310.519866 255.970657 
L 314.459013 251.241038 
L 318.398159 246.176944 
L 322.337306 240.805444 
L 327.589501 233.212046 
L 332.841696 225.184438 
L 338.093892 216.786786 
L 344.659136 205.867099 
L 352.537429 192.309054 
L 365.667917 169.172133 
L 377.485357 148.485928 
L 385.363649 135.14321 
L 391.928894 124.481916 
L 397.181089 116.342657 
L 402.433284 108.619379 
L 407.68548 101.376246 
L 411.624626 96.297592 
L 415.563773 91.552182 
L 419.502919 87.167087 
L 423.442066 83.169375 
L 427.381212 79.586118 
L 430.00731 77.440899 
L 432.633407 75.499934 
L 435.259505 73.771243 
L 437.885603 72.262847 
L 440.5117 70.982766 
L 443.137798 69.939021 
L 445.763896 69.139632 
L 448.389993 68.592621 
L 451.016091 68.306008 
L 453.642189 68.287813 
L 456.268286 68.546058 
L 458.894384 69.088763 
L 461.520482 69.923948 
L 464.146579 71.059634 
L 466.772677 72.503843 
L 469.398775 74.264594 
L 472.024872 76.349908 
L 474.65097 78.767806 
L 477.277068 81.526308 
L 479.903165 84.633436 
L 482.529263 88.097209 
L 485.155361 91.925649 
L 487.781458 96.126777 
L 490.407556 100.708612 
L 493.033654 105.679175 
L 495.659751 111.046488 
L 496.9728 113.881432 
L 496.9728 113.881432 
" clip-path="url(#p836bd2dc72)" style="fill: none; stroke: #8b5cf6; stroke-width: 1.2; stroke-linecap: round"/>
   </g>
   <g id="PathCollection_1">
    <defs>
     <path id="m9b85a9a908" d="M 0 2.236068 
C 0.593012 2.236068 1.161816 2.000462 1.581139 1.581139 
C 2.000462 1.161816 2.236068 0.593012 2.236068 0 
C 2.236068 -0.593012 2.000462 -1.161816 1.581139 -1.581139 
C 1.161816 -2.000462 0.593012 -2.236068 0 -2.236068 
C -0.593012 -2.236068 -1.161816 -2.000462 -1.581139 -1.581139 
C -2.000462 -1.161816 -2.236068 -0.593012 -2.236068 0 
C -2.236068 0.593012 -2.000462 1.161816 -1.581139 1.581139 
C -1.161816 2.000462 -0.593012 2.236068 0 2.236068 
z
" style="stroke: #ffffff; stroke-width: 0.8"/>
    </defs>
    <g clip-path="url(#p836bd2dc72)">
     <use xlink:href="#m9b85a9a908" x="496.9728" y="113.881432" style="fill: #8b5cf6; stroke: #ffffff; stroke-width: 0.8"/>
    </g>
   </g>
  </g>
  <g id="axes_2">
   <g id="text_13">
    <!-- Rating -->
    <g style="fill: #9b8bb8" transform="translate(565.7472 48.312) scale(0.11 -0.11)">
     <use xlink:href="#JetBrainsMono-Regular-52"/>
     <use xlink:href="#JetBrainsMono-Regular-61" transform="translate(59.999985 0)"/>
     <use xlink:href="#JetBrainsMono-Regular-74" transform="translate(119.999969 0)"/>
     <use xlink:href="#JetBrainsMono-Regular-69" transform="translate(179.999954 0)"/>
     <use xlink:href="#JetBrainsMono-Regular-6e" transform="translate(239.999939 0)"/>
     <use xlink:href="#JetBrainsMono-Regular-67" transform="translate(299.999924 0)"/>
    </g>
   </g>
   <g id="text_14">
    <!-- 214 -->
    <g style="fill: #8b5cf6" transform="translate(565.7472 81.548) scale(0.26 -0.26)">
     <use xlink:href="#JetBrainsMono-Bold-32"/>
     <use xlink:href="#JetBrainsMono-Bold-31" transform="translate(59.999985 0)"/>
     <use xlink:href="#JetBrainsMono-Bold-34" transform="translate(119.999969 0)"/>
    </g>
   </g>
   <g id="text_15">
    <!-- Rank -->
    <g style="fill: #9b8bb8" transform="translate(565.7472 119.592) scale(0.11 -0.11)">
     <defs>
      <path id="JetBrainsMono-Regular-6b" d="M 621 0 
L 621 4672 
L 1197 4672 
L 1197 2067 
L 1869 2067 
L 2854 3520 
L 3514 3520 
L 2381 1843 
L 3578 0 
L 2906 0 
L 1882 1568 
L 1197 1568 
L 1197 0 
L 621 0 
z
" transform="scale(0.015625)"/>
     </defs>
     <use xlink:href="#JetBrainsMono-Regular-52"/>
     <use xlink:href="#JetBrainsMono-Regular-61" transform="translate(59.999985 0)"/>
     <use xlink:href="#JetBrainsMono-Regular-6e" transform="translate(119.999969 0)"/>
     <use xlink:href="#JetBrainsMono-Regular-6b" transform="translate(179.999954 0)"/>
    </g>
   </g>
   <g id="text_16">
    <!-- #128,300 -->
    <g style="fill: #8b5cf6" transform="translate(565.7472 148.104) scale(0.14 -0.14)">
     <defs>
      <path id="JetBrainsMono-Bold-23" d="M 493 0 
L 710 1216 
L 224 1216 
L 224 1760 
L 800 1760 
L 998 2912 
L 448 2912 
L 448 3456 
L 1094 3456 
L 1312 4672 
L 1875 4672 
L 1658 3456 
L 2566 3456 
L 2784 4672 
L 3347 4672 
L 3130 3456 
L 3616 3456 
L 3616 2912 
L 3034 2912 
L 2835 1760 
L 3392 1760 
L 3392 1216 
L 2739 1216 
L 2528 0 
L 1965 0 
L 2182 1216 
L 1267 1216 
L 1056 0 
L 493 0 
z
M 1363 1760 
L 2272 1760 
L 2470 2912 
L 1562 2912 
L 1363 1760 
z
" transform="scale(0.015625)"/>
      <path id="JetBrainsMono-Bold-38" d="M 1920 -64 
Q 1453 -64 1094 112 
Q 736 288 537 598 
Q 339 909 339 1318 
Q 339 1747 585 2067 
Q 832 2387 1229 2470 
L 1229 2483 
Q 890 2554 682 2829 
Q 474 3104 474 3482 
Q 474 3853 656 4134 
Q 838 4416 1164 4576 
Q 1491 4736 1920 4736 
Q 2349 4736 2678 4576 
Q 3008 4416 3190 4134 
Q 3373 3853 3373 3482 
Q 3373 3104 3161 2829 
Q 2950 2554 2611 2483 
L 2611 2470 
Q 3008 2387 3254 2067 
Q 3501 1747 3501 1318 
Q 3501 909 3302 598 
Q 3104 288 2745 112 
Q 2387 -64 1920 -64 
z
M 1920 2758 
Q 2221 2758 2406 2940 
Q 2592 3123 2592 3411 
Q 2592 3706 2406 3888 
Q 2221 4070 1920 4070 
Q 1619 4070 1433 3888 
Q 1248 3706 1248 3411 
Q 1248 3123 1433 2940 
Q 1619 2758 1920 2758 
z
M 1920 614 
Q 2272 614 2496 819 
Q 2720 1024 2720 1357 
Q 2720 1696 2496 1904 
Q 2272 2112 1920 2112 
Q 1568 2112 1344 1904 
Q 1120 1696 1120 1357 
Q 1120 1024 1344 819 
Q 1568 614 1920 614 
z
" transform="scale(0.015625)"/>
      <path id="JetBrainsMono-Bold-2c" d="M 1216 -1024 
L 1555 934 
L 2470 934 
L 1984 -1024 
L 1216 -1024 
z
" transform="scale(0.015625)"/>
      <path id="JetBrainsMono-Bold-33" d="M 1875 -64 
Q 1184 -64 781 297 
Q 378 659 378 1280 
L 1184 1280 
Q 1184 986 1369 810 
Q 1555 634 1882 634 
Q 2202 634 2387 810 
Q 2573 986 2573 1280 
L 2573 1632 
Q 2573 1946 2390 2122 
Q 2208 2298 1882 2298 
L 1293 2298 
L 1293 2938 
L 2368 3968 
L 544 3968 
L 544 4672 
L 3245 4672 
L 3245 3994 
L 2170 2963 
Q 2733 2886 3056 2537 
Q 3379 2189 3379 1632 
L 3379 1280 
Q 3379 659 2972 297 
Q 2566 -64 1875 -64 
z
" transform="scale(0.015625)"/>
      <path id="JetBrainsMono-Bold-30" d="M 1920 -64 
Q 1466 -64 1133 109 
Q 800 282 617 595 
Q 435 909 435 1331 
L 435 3341 
Q 435 3763 617 4076 
Q 800 4390 1133 4563 
Q 1466 4736 1920 4736 
Q 2374 4736 2707 4563 
Q 3040 4390 3222 4076 
Q 3405 3763 3405 3341 
L 3405 1331 
Q 3405 909 3222 595 
Q 3040 282 2707 109 
Q 2374 -64 1920 -64 
z
M 1920 627 
Q 2253 627 2451 819 
Q 2650 1011 2650 1331 
L 2650 3341 
Q 2650 3661 2454 3853 
Q 2259 4045 1920 4045 
Q 1581 4045 1385 3853 
Q 1190 3661 1190 3341 
L 1190 1331 
Q 1190 1011 1388 819 
Q 1587 627 1920 627 
z
M 1920 1952 
Q 1728 1952 1613 2057 
Q 1498 2163 1498 2355 
Q 1498 2547 1613 2646 
Q 1728 2746 1920 2746 
Q 2112 2746 2227 2646 
Q 2342 2547 2342 2355 
Q 2342 2163 2227 2057 
Q 2112 1952 1920 1952 
z
" transform="scale(0.015625)"/>
     </defs>
     <use xlink:href="#JetBrainsMono-Bold-23"/>
     <use xlink:href="#JetBrainsMono-Bold-31" transform="translate(59.999985 0)"/>
     <use xlink:href="#JetBrainsMono-Bold-32" transform="translate(119.999969 0)"/>
     <use xlink:href="#JetBrainsMono-Bold-38" transform="translate(179.999954 0)"/>
     <use xlink:href="#JetBrainsMono-Bold-2c" transform="translate(239.999939 0)"/>
     <use xlink:href="#JetBrainsMono-Bold-33" transform="translate(299.999924 0)"/>
     <use xlink:href="#JetBrainsMono-Bold-30" transform="translate(359.999908 0)"/>
     <use xlink:href="#JetBrainsMono-Bold-30" transform="translate(419.999893 0)"/>
    </g>
   </g>
   <g id="text_17">
    <!-- ─ 0 -->
    <g style="fill: #9b8bb8" transform="translate(565.7472 169.488) scale(0.11 -0.11)">
     <defs>
      <path id="JetBrainsMono-Bold-2500" d="M -128 2048 
L -128 2688 
L 3968 2688 
L 3968 2048 
L -128 2048 
z
" transform="scale(0.015625)"/>
     </defs>
     <use xlink:href="#JetBrainsMono-Bold-2500"/>
     <use xlink:href="#JetBrainsMono-Bold-20" transform="translate(59.999985 0)"/>
     <use xlink:href="#JetBrainsMono-Bold-30" transform="translate(119.999969 0)"/>
    </g>
   </g>
  </g>
 </g>
 <defs>
  <clipPath id="p836bd2dc72">
   <rect x="55.296" y="55.44" width="490.752" height="269.28"/>
  </clipPath>
 </defs>
</svg>
