<?xml version="1.0" encoding="utf-8" standalone="no"?>
<!DOCTYPE svg PUBLIC "-//W3C//DTD SVG 1.1//EN"
  "http://www.w3.org/Graphics/SVG/1.1/DTD/svg11.dtd">
<svg xmlns:xlink="http://www.w3.org/1999/xlink" width="1211.546562pt" height="370.8pt" viewBox="0 0 1211.546562 370.8" xmlns="http://www.w3.org/2000/svg" version="1.1">
 <metadata>
  <rdf:RDF xmlns:dc="http://purl.org/dc/elements/1.1/" xmlns:cc="http://creativecommons.org/ns#" xmlns:rdf="http://www.w3.org/1999/02/22-rdf-syntax-ns#">
   <cc:Work>
    <dc:type rdf:resource="http://purl.org/dc/dcmitype/StillImage"/>
    <dc:date>2026-04-03T13:50:26.912257</dc:date>
    <dc:format>image/svg+xml</dc:format>
    <dc:creator>
     <cc:Agent>
      <dc:title>Matplotlib v3.10.8, https://matplotlib.org/</dc:title>
     </cc:Agent>
    </dc:creator>
   </cc:Work>
  </rdf:RDF>
 </metadata>
 <defs>
  <style type="text/css">*{stroke-linejoin: round; stroke-linecap: butt}</style>
 </defs>
 <g id="figure_1">
  <g id="patch_1">
   <path d="M 0 370.8 
L 1211.546562 370.8 
L 1211.546562 0 
L 0 0 
L 0 370.8 
z
" style="fill: none"/>
  </g>
  <g id="axes_1">
   <g id="patch_2">
    <path d="M 66.026563 312.12 
L 947.306562 312.12 
L 947.306562 42.84 
L 66.026563 42.84 
L 66.026563 312.12 
z
" style="fill: none"/>
   </g>
   <g id="matplotlib.axis_1">
    <g id="xtick_1">
     <g id="line2d_1">
      <path d="M 106.084744 312.12 
L 106.084744 42.84 
" clip-path="url(#pf01e9b82d9)" style="fill: none; stroke-dasharray: 2.22,0.96; stroke-dashoffset: 0; stroke: #e2d5f5; stroke-opacity: 0.7; stroke-width: 0.6"/>
     </g>
     <g id="line2d_2">
      <defs>
       <path id="m676bb23702" d="M 0 0 
L 0 3.5 
" style="stroke: #9b8bb8; stroke-width: 0.8"/>
      </defs>
      <g>
       <use xlink:href="#m676bb23702" x="106.084744" y="312.12" style="fill: #9b8bb8; stroke: #9b8bb8; stroke-width: 0.8"/>
      </g>
     </g>
     <g id="text_1">
      <!-- 03/31 -->
      <g style="fill: #9b8bb8" transform="translate(86.466097 355.809048) rotate(-30) scale(0.17 -0.17)">
       <defs>
        <path id="JetBrainsMono-Regular-30" d="M 1920 -64 
Q 1274 -64 893 310 
Q 512 685 512 1312 
L 512 3360 
Q 512 3987 893 4361 
Q 1274 4736 1920 4736 
Q 2566 4736 2947 4361 
Q 3328 3987 3328 3360 
L 3328 1312 
Q 3328 896 3155 585 
Q 2982 275 2665 105 
Q 2349 -64 1920 -64 
z
M 1920 429 
Q 2304 429 2537 675 
Q 2771 922 2771 1312 
L 2771 3360 
Q 2771 3750 2537 3996 
Q 2304 4243 1920 4243 
Q 1536 4243 1302 3996 
Q 1069 3750 1069 3360 
L 1069 1312 
Q 1069 922 1302 675 
Q 1536 429 1920 429 
z
M 1920 1984 
Q 1747 1984 1641 2080 
Q 1536 2176 1536 2355 
Q 1536 2528 1641 2621 
Q 1747 2714 1920 2714 
Q 2093 2714 2198 2621 
Q 2304 2528 2304 2355 
Q 2304 2176 2198 2080 
Q 2093 1984 1920 1984 
z
" transform="scale(0.015625)"/>
        <path id="JetBrainsMono-Regular-33" d="M 1850 -64 
Q 1203 -64 825 297 
Q 448 659 448 1280 
L 1024 1280 
Q 1024 896 1248 672 
Q 1472 448 1856 448 
Q 2240 448 2464 672 
Q 2688 896 2688 1280 
L 2688 1600 
Q 2688 1984 2464 2208 
Q 2240 2432 1856 2432 
L 1350 2432 
L 1350 2931 
L 2496 4147 
L 576 4147 
L 576 4672 
L 3149 4672 
L 3149 4134 
L 2022 2938 
Q 2598 2893 2931 2537 
Q 3264 2182 3264 1600 
L 3264 1280 
Q 3264 659 2883 297 
Q 2502 -64 1850 -64 
z
" transform="scale(0.015625)"/>
        <path id="JetBrainsMono-Regular-2f" d="M 480 -704 
L 2752 5312 
L 3360 5312 
L 1088 -704 
L 480 -704 
z
" transform="scale(0.015625)"/>
        <path id="JetBrainsMono-Regular-31" d="M 576 0 
L 576 525 
L 1843 525 
L 1843 4173 
L 576 3226 
L 576 3885 
L 1632 4672 
L 2419 4672 
L 2419 525 
L 3456 525 
L 3456 0 
L 576 0 
z
" transform="scale(0.015625)"/>
       </defs>
       <use xlink:href="#JetBrainsMono-Regular-30"/>
       <use xlink:href="#JetBrainsMono-Regular-33" transform="translate(59.999985 0)"/>
       <use xlink:href="#JetBrainsMono-Regular-2f" transform="translate(119.999969 0)"/>
       <use xlink:href="#JetBrainsMono-Regular-33" transform="translate(179.999954 0)"/>
       <use xlink:href="#JetBrainsMono-Regular-31" transform="translate(239.999939 0)"/>
      </g>
     </g>
    </g>
    <g id="xtick_2">
     <g id="line2d_3">
      <path d="M 239.612017 312.12 
L 239.612017 42.84 
" clip-path="url(#pf01e9b82d9)" style="fill: none; stroke-dasharray: 2.22,0.96; stroke-dashoffset: 0; stroke: #e2d5f5; stroke-opacity: 0.7; stroke-width: 0.6"/>
     </g>
     <g id="line2d_4">
      <g>
       <use xlink:href="#m676bb23702" x="239.612017" y="312.12" style="fill: #9b8bb8; stroke: #9b8bb8; stroke-width: 0.8"/>
      </g>
     </g>
     <g id="text_2">
      <!-- 03/31 -->
      <g style="fill: #9b8bb8" transform="translate(219.993369 355.809048) rotate(-30) scale(0.17 -0.17)">
       <use xlink:href="#JetBrainsMono-Regular-30"/>
       <use xlink:href="#JetBrainsMono-Regular-33" transform="translate(59.999985 0)"/>
       <use xlink:href="#JetBrainsMono-Regular-2f" transform="translate(119.999969 0)"/>
       <use xlink:href="#JetBrainsMono-Regular-33" transform="translate(179.999954 0)"/>
       <use xlink:href="#JetBrainsMono-Regular-31" transform="translate(239.999939 0)"/>
      </g>
     </g>
    </g>
    <g id="xtick_3">
     <g id="line2d_5">
      <path d="M 373.13929 312.12 
L 373.13929 42.84 
" clip-path="url(#pf01e9b82d9)" style="fill: none; stroke-dasharray: 2.22,0.96; stroke-dashoffset: 0; stroke: #e2d5f5; stroke-opacity: 0.7; stroke-width: 0.6"/>
     </g>
     <g id="line2d_6">
      <g>
       <use xlink:href="#m676bb23702" x="373.13929" y="312.12" style="fill: #9b8bb8; stroke: #9b8bb8; stroke-width: 0.8"/>
      </g>
     </g>
     <g id="text_3">
      <!-- 04/01 -->
      <g style="fill: #9b8bb8" transform="translate(353.520642 355.809048) rotate(-30) scale(0.17 -0.17)">
       <defs>
        <path id="JetBrainsMono-Regular-34" d="M 2560 0 
L 2560 1024 
L 448 1024 
L 448 1926 
L 2150 4672 
L 2803 4672 
L 1024 1798 
L 1024 1549 
L 2560 1549 
L 2560 2688 
L 3136 2688 
L 3136 0 
L 2560 0 
z
" transform="scale(0.015625)"/>
       </defs>
       <use xlink:href="#JetBrainsMono-Regular-30"/>
       <use xlink:href="#JetBrainsMono-Regular-34" transform="translate(59.999985 0)"/>
       <use xlink:href="#JetBrainsMono-Regular-2f" transform="translate(119.999969 0)"/>
       <use xlink:href="#JetBrainsMono-Regular-30" transform="translate(179.999954 0)"/>
       <use xlink:href="#JetBrainsMono-Regular-31" transform="translate(239.999939 0)"/>
      </g>
     </g>
    </g>
    <g id="xtick_4">
     <g id="line2d_7">
      <path d="M 506.666563 312.12 
L 506.666563 42.84 
" clip-path="url(#pf01e9b82d9)" style="fill: none; stroke-dasharray: 2.22,0.96; stroke-dashoffset: 0; stroke: #e2d5f5; stroke-opacity: 0.7; stroke-width: 0.6"/>
     </g>
     <g id="line2d_8">
      <g>
       <use xlink:href="#m676bb23702" x="506.666563" y="312.12" style="fill: #9b8bb8; stroke: #9b8bb8; stroke-width: 0.8"/>
      </g>
     </g>
     <g id="text_4">
      <!-- 04/01 -->
      <g style="fill: #9b8bb8" transform="translate(487.047915 355.809048) rotate(-30) scale(0.17 -0.17)">
       <use xlink:href="#JetBrainsMono-Regular-30"/>
       <use xlink:href="#JetBrainsMono-Regular-34" transform="translate(59.999985 0)"/>
       <use xlink:href="#JetBrainsMono-Regular-2f" transform="translate(119.999969 0)"/>
       <use xlink:href="#JetBrainsMono-Regular-30" transform="translate(179.999954 0)"/>
       <use xlink:href="#JetBrainsMono-Regular-31" transform="translate(239.999939 0)"/>
      </g>
     </g>
    </g>
    <g id="xtick_5">
     <g id="line2d_9">
      <path d="M 640.193835 312.12 
L 640.193835 42.84 
" clip-path="url(#pf01e9b82d9)" style="fill: none; stroke-dasharray: 2.22,0.96; stroke-dashoffset: 0; stroke: #e2d5f5; stroke-opacity: 0.7; stroke-width: 0.6"/>
     </g>
     <g id="line2d_10">
      <g>
       <use xlink:href="#m676bb23702" x="640.193835" y="312.12" style="fill: #9b8bb8; stroke: #9b8bb8; stroke-width: 0.8"/>
      </g>
     </g>
     <g id="text_5">
      <!-- 04/02 -->
      <g style="fill: #9b8bb8" transform="translate(620.575187 355.809048) rotate(-30) scale(0.17 -0.17)">
       <defs>
        <path id="JetBrainsMono-Regular-32" d="M 550 0 
L 550 531 
L 2106 2195 
Q 2445 2554 2585 2835 
Q 2726 3117 2726 3386 
Q 2726 3770 2505 3997 
Q 2285 4224 1907 4224 
Q 1517 4224 1289 3990 
Q 1062 3757 1062 3360 
L 486 3360 
Q 506 3994 890 4365 
Q 1274 4736 1907 4736 
Q 2554 4736 2934 4371 
Q 3315 4006 3315 3379 
Q 3315 3046 3132 2675 
Q 2950 2304 2509 1843 
L 1248 525 
L 3373 525 
L 3373 0 
L 550 0 
z
" transform="scale(0.015625)"/>
       </defs>
       <use xlink:href="#JetBrainsMono-Regular-30"/>
       <use xlink:href="#JetBrainsMono-Regular-34" transform="translate(59.999985 0)"/>
       <use xlink:href="#JetBrainsMono-Regular-2f" transform="translate(119.999969 0)"/>
       <use xlink:href="#JetBrainsMono-Regular-30" transform="translate(179.999954 0)"/>
       <use xlink:href="#JetBrainsMono-Regular-32" transform="translate(239.999939 0)"/>
      </g>
     </g>
    </g>
    <g id="xtick_6">
     <g id="line2d_11">
      <path d="M 773.721108 312.12 
L 773.721108 42.84 
" clip-path="url(#pf01e9b82d9)" style="fill: none; stroke-dasharray: 2.22,0.96; stroke-dashoffset: 0; stroke: #e2d5f5; stroke-opacity: 0.7; stroke-width: 0.6"/>
     </g>
     <g id="line2d_12">
      <g>
       <use xlink:href="#m676bb23702" x="773.721108" y="312.12" style="fill: #9b8bb8; stroke: #9b8bb8; stroke-width: 0.8"/>
      </g>
     </g>
     <g id="text_6">
      <!-- 04/02 -->
      <g style="fill: #9b8bb8" transform="translate(754.10246 355.809048) rotate(-30) scale(0.17 -0.17)">
       <use xlink:href="#JetBrainsMono-Regular-30"/>
       <use xlink:href="#JetBrainsMono-Regular-34" transform="translate(59.999985 0)"/>
       <use xlink:href="#JetBrainsMono-Regular-2f" transform="translate(119.999969 0)"/>
       <use xlink:href="#JetBrainsMono-Regular-30" transform="translate(179.999954 0)"/>
       <use xlink:href="#JetBrainsMono-Regular-32" transform="translate(239.999939 0)"/>
      </g>
     </g>
    </g>
    <g id="xtick_7">
     <g id="line2d_13">
      <path d="M 907.248381 312.12 
L 907.248381 42.84 
" clip-path="url(#pf01e9b82d9)" style="fill: none; stroke-dasharray: 2.22,0.96; stroke-dashoffset: 0; stroke: #e2d5f5; stroke-opacity: 0.7; stroke-width: 0.6"/>
     </g>
     <g id="line2d_14">
      <g>
       <use xlink:href="#m676bb23702" x="907.248381" y="312.12" style="fill: #9b8bb8; stroke: #9b8bb8; stroke-width: 0.8"/>
      </g>
     </g>
     <g id="text_7">
      <!-- 04/03 -->
      <g style="fill: #9b8bb8" transform="translate(887.629733 355.809048) rotate(-30) scale(0.17 -0.17)">
       <use xlink:href="#JetBrainsMono-Regular-30"/>
       <use xlink:href="#JetBrainsMono-Regular-34" transform="translate(59.999985 0)"/>
       <use xlink:href="#JetBrainsMono-Regular-2f" transform="translate(119.999969 0)"/>
       <use xlink:href="#JetBrainsMono-Regular-30" transform="translate(179.999954 0)"/>
       <use xlink:href="#JetBrainsMono-Regular-33" transform="translate(239.999939 0)"/>
      </g>
     </g>
    </g>
   </g>
   <g id="matplotlib.axis_2">
    <g id="ytick_1">
     <g id="line2d_15">
      <path d="M 66.026563 245.48 
L 947.306562 245.48 
" clip-path="url(#pf01e9b82d9)" style="fill: none; stroke-dasharray: 2.22,0.96; stroke-dashoffset: 0; stroke: #e2d5f5; stroke-opacity: 0.7; stroke-width: 0.6"/>
     </g>
     <g id="line2d_16">
      <defs>
       <path id="m2b4ae8a505" d="M 0 0 
L -3.5 0 
" style="stroke: #9b8bb8; stroke-width: 0.8"/>
      </defs>
      <g>
       <use xlink:href="#m2b4ae8a505" x="66.026563" y="245.48" style="fill: #9b8bb8; stroke: #9b8bb8; stroke-width: 0.8"/>
      </g>
     </g>
     <g id="text_8">
      <!-- 200 -->
      <g style="fill: #9b8bb8" transform="translate(28.426563 251.685) scale(0.17 -0.17)">
       <use xlink:href="#JetBrainsMono-Regular-32"/>
       <use xlink:href="#JetBrainsMono-Regular-30" transform="translate(59.999985 0)"/>
       <use xlink:href="#JetBrainsMono-Regular-30" transform="translate(119.999969 0)"/>
      </g>
     </g>
    </g>
    <g id="ytick_2">
     <g id="line2d_17">
      <path d="M 66.026563 177.48 
L 947.306562 177.48 
" clip-path="url(#pf01e9b82d9)" style="fill: none; stroke-dasharray: 2.22,0.96; stroke-dashoffset: 0; stroke: #e2d5f5; stroke-opacity: 0.7; stroke-width: 0.6"/>
     </g>
     <g id="line2d_18">
      <g>
       <use xlink:href="#m2b4ae8a505" x="66.026563" y="177.48" style="fill: #9b8bb8; stroke: #9b8bb8; stroke-width: 0.8"/>
      </g>
     </g>
     <g id="text_9">
      <!-- 205 -->
      <g style="fill: #9b8bb8" transform="translate(28.426563 183.685) scale(0.17 -0.17)">
       <defs>
        <path id="JetBrainsMono-Regular-35" d="M 1882 -64 
Q 1235 -64 857 297 
Q 480 659 480 1280 
L 1056 1280 
Q 1056 896 1280 672 
Q 1504 448 1888 448 
Q 2272 448 2496 672 
Q 2720 896 2720 1280 
L 2720 1568 
Q 2720 1952 2502 2176 
Q 2285 2400 1914 2400 
L 640 2400 
L 640 4672 
L 3130 4672 
L 3130 4147 
L 1178 4147 
L 1190 2925 
L 1946 2925 
Q 2592 2925 2944 2569 
Q 3296 2214 3296 1568 
L 3296 1280 
Q 3296 659 2915 297 
Q 2534 -64 1882 -64 
z
" transform="scale(0.015625)"/>
       </defs>
       <use xlink:href="#JetBrainsMono-Regular-32"/>
       <use xlink:href="#JetBrainsMono-Regular-30" transform="translate(59.999985 0)"/>
       <use xlink:href="#JetBrainsMono-Regular-35" transform="translate(119.999969 0)"/>
      </g>
     </g>
    </g>
    <g id="ytick_3">
     <g id="line2d_19">
      <path d="M 66.026563 109.48 
L 947.306562 109.48 
" clip-path="url(#pf01e9b82d9)" style="fill: none; stroke-dasharray: 2.22,0.96; stroke-dashoffset: 0; stroke: #e2d5f5; stroke-opacity: 0.7; stroke-width: 0.6"/>
     </g>
     <g id="line2d_20">
      <g>
       <use xlink:href="#m2b4ae8a505" x="66.026563" y="109.48" style="fill: #9b8bb8; stroke: #9b8bb8; stroke-width: 0.8"/>
      </g>
     </g>
     <g id="text_10">
      <!-- 210 -->
      <g style="fill: #9b8bb8" transform="translate(28.426563 115.685) scale(0.17 -0.17)">
       <use xlink:href="#JetBrainsMono-Regular-32"/>
       <use xlink:href="#JetBrainsMono-Regular-31" transform="translate(59.999985 0)"/>
       <use xlink:href="#JetBrainsMono-Regular-30" transform="translate(119.999969 0)"/>
      </g>
     </g>
    </g>
    <g id="text_11">
     <!-- Rating -->
     <g style="fill: #9b8bb8" transform="translate(21.186563 209.88) rotate(-90) scale(0.18 -0.18)">
      <defs>
       <path id="JetBrainsMono-Regular-52" d="M 595 0 
L 595 4672 
L 2035 4672 
Q 2451 4672 2764 4502 
Q 3078 4333 3251 4032 
Q 3424 3731 3424 3328 
Q 3424 2854 3181 2515 
Q 2938 2176 2534 2042 
L 3488 0 
L 2854 0 
L 1939 1984 
L 1165 1984 
L 1165 0 
L 595 0 
z
M 1165 2502 
L 2035 2502 
Q 2394 2502 2611 2729 
Q 2829 2957 2829 3328 
Q 2829 3706 2611 3930 
Q 2394 4154 2035 4154 
L 1165 4154 
L 1165 2502 
z
" transform="scale(0.015625)"/>
       <path id="JetBrainsMono-Regular-61" d="M 1613 -64 
Q 1069 -64 749 240 
Q 429 544 429 1037 
Q 429 1363 576 1606 
Q 723 1850 985 1987 
Q 1248 2125 1587 2125 
L 2675 2125 
L 2675 2400 
Q 2675 3085 1926 3085 
Q 1594 3085 1389 2963 
Q 1184 2842 1171 2624 
L 595 2624 
Q 627 3040 982 3312 
Q 1338 3584 1926 3584 
Q 2566 3584 2908 3277 
Q 3251 2970 3251 2419 
L 3251 0 
L 2682 0 
L 2682 640 
L 2669 640 
Q 2618 314 2342 125 
Q 2067 -64 1613 -64 
z
M 1754 422 
Q 2176 422 2425 627 
Q 2675 832 2675 1184 
L 2675 1677 
L 1651 1677 
Q 1370 1677 1194 1507 
Q 1018 1338 1018 1056 
Q 1018 762 1213 592 
Q 1408 422 1754 422 
z
" transform="scale(0.015625)"/>
       <path id="JetBrainsMono-Regular-74" d="M 2272 0 
Q 1837 0 1574 253 
Q 1312 506 1312 928 
L 1312 2995 
L 301 2995 
L 301 3520 
L 1312 3520 
L 1312 4512 
L 1888 4512 
L 1888 3520 
L 3328 3520 
L 3328 2995 
L 1888 2995 
L 1888 928 
Q 1888 749 1993 637 
Q 2099 525 2272 525 
L 3296 525 
L 3296 0 
L 2272 0 
z
" transform="scale(0.015625)"/>
       <path id="JetBrainsMono-Regular-69" d="M 544 0 
L 544 525 
L 1792 525 
L 1792 2995 
L 672 2995 
L 672 3520 
L 2368 3520 
L 2368 525 
L 3552 525 
L 3552 0 
L 544 0 
z
M 2016 4154 
Q 1805 4154 1683 4262 
Q 1562 4371 1562 4557 
Q 1562 4749 1683 4861 
Q 1805 4973 2016 4973 
Q 2227 4973 2348 4861 
Q 2470 4749 2470 4557 
Q 2470 4371 2348 4262 
Q 2227 4154 2016 4154 
z
" transform="scale(0.015625)"/>
       <path id="JetBrainsMono-Regular-6e" d="M 589 0 
L 589 3520 
L 1165 3520 
L 1165 2848 
L 1171 2848 
Q 1216 3200 1459 3392 
Q 1702 3584 2106 3584 
Q 2637 3584 2950 3257 
Q 3264 2931 3264 2368 
L 3264 0 
L 2688 0 
L 2688 2266 
Q 2688 2669 2486 2883 
Q 2285 3098 1939 3098 
Q 1581 3098 1373 2874 
Q 1165 2650 1165 2240 
L 1165 0 
L 589 0 
z
" transform="scale(0.015625)"/>
       <path id="JetBrainsMono-Regular-67" d="M 1030 -1152 
L 1030 -627 
L 2022 -627 
Q 2323 -627 2496 -457 
Q 2669 -288 2669 0 
L 2669 320 
L 2682 896 
L 2662 896 
Q 2611 582 2361 412 
Q 2112 243 1734 243 
Q 1190 243 876 588 
Q 563 934 563 1536 
L 563 2278 
Q 563 2880 876 3232 
Q 1190 3584 1734 3584 
Q 2112 3584 2361 3405 
Q 2611 3226 2662 2912 
L 2675 2912 
L 2675 3520 
L 3245 3520 
L 3245 0 
Q 3245 -531 2915 -841 
Q 2586 -1152 2016 -1152 
L 1030 -1152 
z
M 1907 723 
Q 2266 723 2470 947 
Q 2675 1171 2675 1568 
L 2675 2240 
Q 2675 2637 2470 2861 
Q 2266 3085 1907 3085 
Q 1542 3085 1340 2873 
Q 1139 2662 1139 2304 
L 1139 1504 
Q 1139 1146 1340 934 
Q 1542 723 1907 723 
z
" transform="scale(0.015625)"/>
      </defs>
      <use xlink:href="#JetBrainsMono-Regular-52"/>
      <use xlink:href="#JetBrainsMono-Regular-61" transform="translate(59.999985 0)"/>
      <use xlink:href="#JetBrainsMono-Regular-74" transform="translate(119.999969 0)"/>
      <use xlink:href="#JetBrainsMono-Regular-69" transform="translate(179.999954 0)"/>
      <use xlink:href="#JetBrainsMono-Regular-6e" transform="translate(239.999939 0)"/>
      <use xlink:href="#JetBrainsMono-Regular-67" transform="translate(299.999924 0)"/>
     </g>
    </g>
   </g>
   <g id="patch_3">
    <path d="M 66.026563 312.12 
L 66.026563 42.84 
" style="fill: none; stroke: #d8c8ef; stroke-width: 0.8; stroke-linejoin: miter; stroke-linecap: square"/>
   </g>
   <g id="patch_4">
    <path d="M 66.026562 312.12 
L 947.306563 312.12 
" style="fill: none; stroke: #d8c8ef; stroke-width: 0.8; stroke-linejoin: miter; stroke-linecap: square"/>
   </g>
   <g id="FillBetweenPolyCollection_1">
    <defs>
     <path id="m9b6b44d235" d="M 106.084744 -70.92 
L 106.084744 -138.92 
L 108.764221 -139.918618 
L 111.443698 -140.913141 
L 114.123175 -141.903585 
L 116.802652 -142.889963 
L 119.48213 -143.872289 
L 122.161607 -144.850576 
L 124.841084 -145.824838 
L 127.520561 -146.795089 
L 130.200038 -147.761342 
L 132.879515 -148.723612 
L 135.558992 -149.681911 
L 138.238469 -150.636255 
L 140.917946 -151.586656 
L 143.597423 -152.533128 
L 146.2769 -153.475685 
L 148.956377 -154.414341 
L 151.635854 -155.349109 
L 154.315331 -156.280004 
L 156.994808 -157.207038 
L 159.674285 -158.130226 
L 162.353762 -159.049582 
L 165.033239 -159.965119 
L 167.712716 -160.87685 
L 170.392193 -161.78479 
L 173.07167 -162.688953 
L 175.751147 -163.589352 
L 178.430625 -164.486 
L 181.110102 -165.378912 
L 183.789579 -166.268101 
L 186.469056 -167.153582 
L 189.148533 -168.035367 
L 191.82801 -168.91347 
L 194.507487 -169.787906 
L 197.186964 -170.658688 
L 199.866441 -171.525829 
L 202.545918 -172.389344 
L 205.225395 -173.249247 
L 207.904872 -174.10555 
L 210.584349 -174.958267 
L 213.263826 -175.807414 
L 215.943303 -176.653002 
L 218.62278 -177.495046 
L 221.302257 -178.33356 
L 223.981734 -179.168557 
L 226.661211 -180.000051 
L 229.340688 -180.828056 
L 232.020165 -181.652586 
L 234.699642 -182.473654 
L 237.37912 -183.291274 
L 240.058597 -184.10546 
L 242.738074 -184.916225 
L 245.417551 -185.723583 
L 248.097028 -186.527549 
L 250.776505 -187.328135 
L 253.455982 -188.125356 
L 256.135459 -188.919225 
L 258.814936 -189.709755 
L 261.494413 -190.496962 
L 264.17389 -191.280858 
L 266.853367 -192.061457 
L 269.532844 -192.838773 
L 272.212321 -193.612819 
L 274.891798 -194.38361 
L 277.571275 -195.151159 
L 280.250752 -195.91548 
L 282.930229 -196.676586 
L 285.609706 -197.434492 
L 288.289183 -198.18921 
L 290.96866 -198.940756 
L 293.648137 -199.689142 
L 296.327614 -200.434382 
L 299.007092 -201.17649 
L 301.686569 -201.91548 
L 304.366046 -202.651365 
L 307.045523 -203.38416 
L 309.725 -204.113877 
L 312.404477 -204.840531 
L 315.083954 -205.564136 
L 317.763431 -206.284704 
L 320.442908 -207.002251 
L 323.122385 -207.716789 
L 325.801862 -208.428333 
L 328.481339 -209.136895 
L 331.160816 -209.842491 
L 333.840293 -210.545133 
L 336.51977 -211.244835 
L 339.199247 -211.941612 
L 341.878724 -212.635476 
L 344.558201 -213.326441 
L 347.237678 -214.014522 
L 349.917155 -214.699732 
L 352.596632 -215.382085 
L 355.276109 -216.061594 
L 357.955587 -216.738273 
L 360.635064 -217.412136 
L 363.314541 -218.083197 
L 365.994018 -218.751469 
L 368.673495 -219.416967 
L 371.352972 -220.079703 
L 374.032449 -220.739692 
L 376.711926 -221.396947 
L 379.391403 -222.051482 
L 382.07088 -222.703312 
L 384.750357 -223.352448 
L 387.429834 -223.998906 
L 390.109311 -224.6427 
L 392.788788 -225.283841 
L 395.468265 -225.922346 
L 398.147742 -226.558226 
L 400.827219 -227.191497 
L 403.506696 -227.822171 
L 406.186173 -228.450263 
L 408.86565 -229.075786 
L 411.545127 -229.698754 
L 414.224604 -230.319181 
L 416.904082 -230.93708 
L 419.583559 -231.552465 
L 422.263036 -232.16535 
L 424.942513 -232.775749 
L 427.62199 -233.383675 
L 430.301467 -233.989142 
L 432.980944 -234.592164 
L 435.660421 -235.192754 
L 438.339898 -235.790927 
L 441.019375 -236.386696 
L 443.698852 -236.980074 
L 446.378329 -237.571077 
L 449.057806 -238.159716 
L 451.737283 -238.746006 
L 454.41676 -239.329961 
L 457.096237 -239.911595 
L 459.775714 -240.490921 
L 462.455191 -241.067952 
L 465.134668 -241.642704 
L 467.814145 -242.215189 
L 470.493622 -242.78542 
L 473.173099 -243.353413 
L 475.852576 -243.919181 
L 478.532054 -244.482736 
L 481.211531 -245.044094 
L 483.891008 -245.603268 
L 486.570485 -246.160271 
L 489.249962 -246.715118 
L 491.929439 -247.267822 
L 494.608916 -247.818396 
L 497.288393 -248.366855 
L 499.96787 -248.913212 
L 502.647347 -249.457481 
L 505.326824 -249.999676 
L 508.006301 -250.53981 
L 510.685778 -251.077898 
L 513.365255 -251.613953 
L 516.044732 -252.147988 
L 518.724209 -252.680017 
L 521.403686 -253.210055 
L 524.083163 -253.738115 
L 526.76264 -254.26421 
L 529.442117 -254.788354 
L 532.121594 -255.310562 
L 534.801071 -255.830847 
L 537.480549 -256.349222 
L 540.160026 -256.865701 
L 542.839503 -257.380298 
L 545.51898 -257.893028 
L 548.198457 -258.403902 
L 550.877934 -258.912936 
L 553.557411 -259.420143 
L 556.236888 -259.925537 
L 558.916365 -260.429131 
L 561.595842 -260.93094 
L 564.275319 -261.430976 
L 566.954796 -261.929254 
L 569.634273 -262.425787 
L 572.31375 -262.92059 
L 574.993227 -263.413675 
L 577.672704 -263.905057 
L 580.352181 -264.39475 
L 583.031658 -264.882766 
L 585.711135 -265.369121 
L 588.390612 -265.853827 
L 591.070089 -266.336898 
L 593.749566 -266.818348 
L 596.429043 -267.298191 
L 599.108521 -267.776441 
L 601.787998 -268.25311 
L 604.467475 -268.728214 
L 607.146952 -269.201766 
L 609.826429 -269.673779 
L 612.505906 -270.144267 
L 615.185383 -270.613244 
L 617.86486 -271.080724 
L 620.544337 -271.54672 
L 623.223814 -272.011247 
L 625.903291 -272.474317 
L 628.582768 -272.935945 
L 631.262245 -273.396144 
L 633.941722 -273.854928 
L 636.621199 -274.312312 
L 639.300676 -274.768307 
L 641.980153 -275.222929 
L 644.65963 -275.676192 
L 647.339107 -276.128107 
L 650.018584 -276.578691 
L 652.698061 -277.027956 
L 655.377538 -277.475915 
L 658.057016 -277.922584 
L 660.736493 -278.367975 
L 663.41597 -278.812102 
L 666.095447 -279.254979 
L 668.774924 -279.696619 
L 671.454401 -280.137037 
L 674.133878 -280.576247 
L 676.813355 -281.014261 
L 679.492832 -281.451094 
L 682.172309 -281.886759 
L 684.851786 -282.32127 
L 687.531263 -282.754641 
L 690.21074 -283.186886 
L 692.890217 -283.618018 
L 695.569694 -284.048051 
L 698.249171 -284.476998 
L 700.928648 -284.904875 
L 703.608125 -285.331693 
L 706.287602 -285.757468 
L 708.967079 -286.182212 
L 711.646556 -286.60594 
L 714.326033 -287.028665 
L 717.005511 -287.450401 
L 719.684988 -287.871161 
L 722.364465 -288.29096 
L 725.043942 -288.709812 
L 727.723419 -289.127729 
L 730.402896 -289.544725 
L 733.082373 -289.960815 
L 735.76185 -290.376012 
L 738.441327 -290.79033 
L 741.120804 -291.203783 
L 743.800281 -291.616384 
L 746.479758 -292.028147 
L 749.159235 -292.439085 
L 751.838712 -292.849214 
L 754.518189 -293.258545 
L 757.197666 -293.667094 
L 759.877143 -294.074873 
L 762.55662 -294.481897 
L 765.236097 -294.888178 
L 767.915574 -295.293732 
L 770.595051 -295.698572 
L 773.274528 -296.102711 
L 775.954005 -296.506163 
L 778.633483 -296.908942 
L 781.31296 -297.311061 
L 783.992437 -297.712535 
L 786.671914 -298.113377 
L 789.351391 -298.513601 
L 792.030868 -298.913221 
L 794.710345 -299.31225 
L 797.389822 -299.710701 
L 800.069299 -300.10859 
L 802.748776 -300.505929 
L 805.428253 -300.902733 
L 808.10773 -301.299014 
L 810.787207 -301.694787 
L 813.466684 -302.090066 
L 816.146161 -302.484864 
L 818.825638 -302.879194 
L 821.505115 -303.273072 
L 824.184592 -303.66651 
L 826.864069 -304.059522 
L 829.543546 -304.452122 
L 832.223023 -304.844323 
L 834.9025 -305.23614 
L 837.581978 -305.627586 
L 840.261455 -306.018675 
L 842.940932 -306.40942 
L 845.620409 -306.799836 
L 848.299886 -307.189936 
L 850.979363 -307.579734 
L 853.65884 -307.969243 
L 856.338317 -308.358477 
L 859.017794 -308.74745 
L 861.697271 -309.136177 
L 864.376748 -309.524669 
L 867.056225 -309.912942 
L 869.735702 -310.301009 
L 872.415179 -310.688883 
L 875.094656 -311.076579 
L 877.774133 -311.46411 
L 880.45361 -311.85149 
L 883.133087 -312.238732 
L 885.812564 -312.625851 
L 888.492041 -313.01286 
L 891.171518 -313.399773 
L 893.850995 -313.786603 
L 896.530473 -314.173365 
L 899.20995 -314.560072 
L 901.889427 -314.946738 
L 904.568904 -315.333376 
L 907.248381 -315.72 
L 907.248381 -70.92 
L 907.248381 -70.92 
L 904.568904 -70.92 
L 901.889427 -70.92 
L 899.20995 -70.92 
L 896.530473 -70.92 
L 893.850995 -70.92 
L 891.171518 -70.92 
L 888.492041 -70.92 
L 885.812564 -70.92 
L 883.133087 -70.92 
L 880.45361 -70.92 
L 877.774133 -70.92 
L 875.094656 -70.92 
L 872.415179 -70.92 
L 869.735702 -70.92 
L 867.056225 -70.92 
L 864.376748 -70.92 
L 861.697271 -70.92 
L 859.017794 -70.92 
L 856.338317 -70.92 
L 853.65884 -70.92 
L 850.979363 -70.92 
L 848.299886 -70.92 
L 845.620409 -70.92 
L 842.940932 -70.92 
L 840.261455 -70.92 
L 837.581978 -70.92 
L 834.9025 -70.92 
L 832.223023 -70.92 
L 829.543546 -70.92 
L 826.864069 -70.92 
L 824.184592 -70.92 
L 821.505115 -70.92 
L 818.825638 -70.92 
L 816.146161 -70.92 
L 813.466684 -70.92 
L 810.787207 -70.92 
L 808.10773 -70.92 
L 805.428253 -70.92 
L 802.748776 -70.92 
L 800.069299 -70.92 
L 797.389822 -70.92 
L 794.710345 -70.92 
L 792.030868 -70.92 
L 789.351391 -70.92 
L 786.671914 -70.92 
L 783.992437 -70.92 
L 781.31296 -70.92 
L 778.633483 -70.92 
L 775.954005 -70.92 
L 773.274528 -70.92 
L 770.595051 -70.92 
L 767.915574 -70.92 
L 765.236097 -70.92 
L 762.55662 -70.92 
L 759.877143 -70.92 
L 757.197666 -70.92 
L 754.518189 -70.92 
L 751.838712 -70.92 
L 749.159235 -70.92 
L 746.479758 -70.92 
L 743.800281 -70.92 
L 741.120804 -70.92 
L 738.441327 -70.92 
L 735.76185 -70.92 
L 733.082373 -70.92 
L 730.402896 -70.92 
L 727.723419 -70.92 
L 725.043942 -70.92 
L 722.364465 -70.92 
L 719.684988 -70.92 
L 717.005511 -70.92 
L 714.326033 -70.92 
L 711.646556 -70.92 
L 708.967079 -70.92 
L 706.287602 -70.92 
L 703.608125 -70.92 
L 700.928648 -70.92 
L 698.249171 -70.92 
L 695.569694 -70.92 
L 692.890217 -70.92 
L 690.21074 -70.92 
L 687.531263 -70.92 
L 684.851786 -70.92 
L 682.172309 -70.92 
L 679.492832 -70.92 
L 676.813355 -70.92 
L 674.133878 -70.92 
L 671.454401 -70.92 
L 668.774924 -70.92 
L 666.095447 -70.92 
L 663.41597 -70.92 
L 660.736493 -70.92 
L 658.057016 -70.92 
L 655.377538 -70.92 
L 652.698061 -70.92 
L 650.018584 -70.92 
L 647.339107 -70.92 
L 644.65963 -70.92 
L 641.980153 -70.92 
L 639.300676 -70.92 
L 636.621199 -70.92 
L 633.941722 -70.92 
L 631.262245 -70.92 
L 628.582768 -70.92 
L 625.903291 -70.92 
L 623.223814 -70.92 
L 620.544337 -70.92 
L 617.86486 -70.92 
L 615.185383 -70.92 
L 612.505906 -70.92 
L 609.826429 -70.92 
L 607.146952 -70.92 
L 604.467475 -70.92 
L 601.787998 -70.92 
L 599.108521 -70.92 
L 596.429043 -70.92 
L 593.749566 -70.92 
L 591.070089 -70.92 
L 588.390612 -70.92 
L 585.711135 -70.92 
L 583.031658 -70.92 
L 580.352181 -70.92 
L 577.672704 -70.92 
L 574.993227 -70.92 
L 572.31375 -70.92 
L 569.634273 -70.92 
L 566.954796 -70.92 
L 564.275319 -70.92 
L 561.595842 -70.92 
L 558.916365 -70.92 
L 556.236888 -70.92 
L 553.557411 -70.92 
L 550.877934 -70.92 
L 548.198457 -70.92 
L 545.51898 -70.92 
L 542.839503 -70.92 
L 540.160026 -70.92 
L 537.480549 -70.92 
L 534.801071 -70.92 
L 532.121594 -70.92 
L 529.442117 -70.92 
L 526.76264 -70.92 
L 524.083163 -70.92 
L 521.403686 -70.92 
L 518.724209 -70.92 
L 516.044732 -70.92 
L 513.365255 -70.92 
L 510.685778 -70.92 
L 508.006301 -70.92 
L 505.326824 -70.92 
L 502.647347 -70.92 
L 499.96787 -70.92 
L 497.288393 -70.92 
L 494.608916 -70.92 
L 491.929439 -70.92 
L 489.249962 -70.92 
L 486.570485 -70.92 
L 483.891008 -70.92 
L 481.211531 -70.92 
L 478.532054 -70.92 
L 475.852576 -70.92 
L 473.173099 -70.92 
L 470.493622 -70.92 
L 467.814145 -70.92 
L 465.134668 -70.92 
L 462.455191 -70.92 
L 459.775714 -70.92 
L 457.096237 -70.92 
L 454.41676 -70.92 
L 451.737283 -70.92 
L 449.057806 -70.92 
L 446.378329 -70.92 
L 443.698852 -70.92 
L 441.019375 -70.92 
L 438.339898 -70.92 
L 435.660421 -70.92 
L 432.980944 -70.92 
L 430.301467 -70.92 
L 427.62199 -70.92 
L 424.942513 -70.92 
L 422.263036 -70.92 
L 419.583559 -70.92 
L 416.904082 -70.92 
L 414.224604 -70.92 
L 411.545127 -70.92 
L 408.86565 -70.92 
L 406.186173 -70.92 
L 403.506696 -70.92 
L 400.827219 -70.92 
L 398.147742 -70.92 
L 395.468265 -70.92 
L 392.788788 -70.92 
L 390.109311 -70.92 
L 387.429834 -70.92 
L 384.750357 -70.92 
L 382.07088 -70.92 
L 379.391403 -70.92 
L 376.711926 -70.92 
L 374.032449 -70.92 
L 371.352972 -70.92 
L 368.673495 -70.92 
L 365.994018 -70.92 
L 363.314541 -70.92 
L 360.635064 -70.92 
L 357.955587 -70.92 
L 355.276109 -70.92 
L 352.596632 -70.92 
L 349.917155 -70.92 
L 347.237678 -70.92 
L 344.558201 -70.92 
L 341.878724 -70.92 
L 339.199247 -70.92 
L 336.51977 -70.92 
L 333.840293 -70.92 
L 331.160816 -70.92 
L 328.481339 -70.92 
L 325.801862 -70.92 
L 323.122385 -70.92 
L 320.442908 -70.92 
L 317.763431 -70.92 
L 315.083954 -70.92 
L 312.404477 -70.92 
L 309.725 -70.92 
L 307.045523 -70.92 
L 304.366046 -70.92 
L 301.686569 -70.92 
L 299.007092 -70.92 
L 296.327614 -70.92 
L 293.648137 -70.92 
L 290.96866 -70.92 
L 288.289183 -70.92 
L 285.609706 -70.92 
L 282.930229 -70.92 
L 280.250752 -70.92 
L 277.571275 -70.92 
L 274.891798 -70.92 
L 272.212321 -70.92 
L 269.532844 -70.92 
L 266.853367 -70.92 
L 264.17389 -70.92 
L 261.494413 -70.92 
L 258.814936 -70.92 
L 256.135459 -70.92 
L 253.455982 -70.92 
L 250.776505 -70.92 
L 248.097028 -70.92 
L 245.417551 -70.92 
L 242.738074 -70.92 
L 240.058597 -70.92 
L 237.37912 -70.92 
L 234.699642 -70.92 
L 232.020165 -70.92 
L 229.340688 -70.92 
L 226.661211 -70.92 
L 223.981734 -70.92 
L 221.302257 -70.92 
L 218.62278 -70.92 
L 215.943303 -70.92 
L 213.263826 -70.92 
L 210.584349 -70.92 
L 207.904872 -70.92 
L 205.225395 -70.92 
L 202.545918 -70.92 
L 199.866441 -70.92 
L 197.186964 -70.92 
L 194.507487 -70.92 
L 191.82801 -70.92 
L 189.148533 -70.92 
L 186.469056 -70.92 
L 183.789579 -70.92 
L 181.110102 -70.92 
L 178.430625 -70.92 
L 175.751147 -70.92 
L 173.07167 -70.92 
L 170.392193 -70.92 
L 167.712716 -70.92 
L 165.033239 -70.92 
L 162.353762 -70.92 
L 159.674285 -70.92 
L 156.994808 -70.92 
L 154.315331 -70.92 
L 151.635854 -70.92 
L 148.956377 -70.92 
L 146.2769 -70.92 
L 143.597423 -70.92 
L 140.917946 -70.92 
L 138.238469 -70.92 
L 135.558992 -70.92 
L 132.879515 -70.92 
L 130.200038 -70.92 
L 127.520561 -70.92 
L 124.841084 -70.92 
L 122.161607 -70.92 
L 119.48213 -70.92 
L 116.802652 -70.92 
L 114.123175 -70.92 
L 111.443698 -70.92 
L 108.764221 -70.92 
L 106.084744 -70.92 
z
" style="stroke: #8b5cf6; stroke-opacity: 0.12"/>
    </defs>
    <g clip-path="url(#pf01e9b82d9)">
     <use xlink:href="#m9b6b44d235" x="0" y="370.8" style="fill: #8b5cf6; fill-opacity: 0.12; stroke: #8b5cf6; stroke-opacity: 0.12"/>
    </g>
   </g>
   <g id="text_12">
    <!-- 214 -->
    <g style="fill: #8b5cf6" transform="translate(913.248381 49.08) scale(0.22 -0.22)">
     <defs>
      <path id="JetBrainsMono-Bold-32" d="M 474 0 
L 474 723 
L 2157 2445 
Q 2566 2874 2566 3315 
Q 2566 3629 2384 3824 
Q 2202 4019 1894 4019 
Q 1581 4019 1392 3817 
Q 1203 3616 1203 3283 
L 403 3283 
Q 403 3718 595 4044 
Q 787 4371 1126 4553 
Q 1466 4736 1914 4736 
Q 2355 4736 2688 4563 
Q 3021 4390 3203 4080 
Q 3386 3770 3386 3354 
Q 3386 2995 3216 2636 
Q 3046 2278 2656 1894 
L 1478 723 
L 3443 723 
L 3443 0 
L 474 0 
z
" transform="scale(0.015625)"/>
      <path id="JetBrainsMono-Bold-31" d="M 538 0 
L 538 723 
L 1754 723 
L 1754 3898 
L 531 3002 
L 531 3898 
L 1606 4672 
L 2554 4672 
L 2554 723 
L 3533 723 
L 3533 0 
L 538 0 
z
" transform="scale(0.015625)"/>
      <path id="JetBrainsMono-Bold-34" d="M 2445 0 
L 2445 928 
L 378 928 
L 378 2086 
L 2106 4672 
L 2995 4672 
L 1146 1875 
L 1146 1632 
L 2445 1632 
L 2445 2688 
L 3251 2688 
L 3251 0 
L 2445 0 
z
" transform="scale(0.015625)"/>
     </defs>
     <use xlink:href="#JetBrainsMono-Bold-32"/>
     <use xlink:href="#JetBrainsMono-Bold-31" transform="translate(59.999985 0)"/>
     <use xlink:href="#JetBrainsMono-Bold-34" transform="translate(119.999969 0)"/>
    </g>
   </g>
   <g id="text_13">
    <!-- Rating History -->
    <g style="fill: #8b5cf6" transform="translate(66.026563 34.84) scale(0.29 -0.29)">
     <defs>
      <path id="JetBrainsMono-Bold-52" d="M 493 0 
L 493 4672 
L 1965 4672 
Q 2432 4672 2774 4499 
Q 3117 4326 3309 4016 
Q 3501 3706 3501 3283 
Q 3501 2816 3270 2467 
Q 3040 2118 2650 1971 
L 3565 0 
L 2688 0 
L 1869 1856 
L 1286 1856 
L 1286 0 
L 493 0 
z
M 1286 2560 
L 1965 2560 
Q 2304 2560 2496 2745 
Q 2688 2931 2688 3258 
Q 2688 3584 2493 3776 
Q 2298 3968 1965 3968 
L 1286 3968 
L 1286 2560 
z
" transform="scale(0.015625)"/>
      <path id="JetBrainsMono-Bold-61" d="M 1530 -64 
Q 992 -64 681 240 
Q 371 544 371 1037 
Q 371 1549 723 1853 
Q 1075 2157 1690 2157 
L 2547 2157 
L 2547 2406 
Q 2547 2938 1926 2938 
Q 1645 2938 1478 2829 
Q 1312 2720 1293 2522 
L 525 2522 
Q 550 2995 924 3289 
Q 1299 3584 1933 3584 
Q 2605 3584 2976 3270 
Q 3347 2957 3347 2387 
L 3347 0 
L 2566 0 
L 2566 659 
Q 2522 320 2246 128 
Q 1971 -64 1530 -64 
z
M 1786 589 
Q 2138 589 2342 761 
Q 2547 934 2547 1222 
L 2547 1638 
L 1728 1638 
Q 1466 1638 1312 1491 
Q 1158 1344 1158 1114 
Q 1158 877 1321 733 
Q 1485 589 1786 589 
z
" transform="scale(0.015625)"/>
      <path id="JetBrainsMono-Bold-74" d="M 2272 0 
Q 1779 0 1488 285 
Q 1197 570 1197 1056 
L 1197 2797 
L 224 2797 
L 224 3520 
L 1197 3520 
L 1197 4512 
L 2003 4512 
L 2003 3520 
L 3405 3520 
L 3405 2797 
L 2003 2797 
L 2003 1075 
Q 2003 922 2089 822 
Q 2176 723 2330 723 
L 3373 723 
L 3373 0 
L 2272 0 
z
" transform="scale(0.015625)"/>
      <path id="JetBrainsMono-Bold-69" d="M 486 0 
L 486 723 
L 1690 723 
L 1690 2797 
L 614 2797 
L 614 3520 
L 2490 3520 
L 2490 723 
L 3571 723 
L 3571 0 
L 486 0 
z
M 2032 4109 
Q 1789 4109 1648 4233 
Q 1507 4358 1507 4570 
Q 1507 4781 1648 4905 
Q 1789 5030 2032 5030 
Q 2275 5030 2416 4905 
Q 2557 4781 2557 4570 
Q 2557 4358 2416 4233 
Q 2275 4109 2032 4109 
z
" transform="scale(0.015625)"/>
      <path id="JetBrainsMono-Bold-6e" d="M 493 0 
L 493 3520 
L 1274 3520 
L 1274 2861 
Q 1338 3194 1587 3389 
Q 1837 3584 2221 3584 
Q 2739 3584 3049 3238 
Q 3360 2893 3360 2310 
L 3360 0 
L 2560 0 
L 2560 2214 
Q 2560 2541 2390 2717 
Q 2221 2893 1933 2893 
Q 1632 2893 1462 2713 
Q 1293 2534 1293 2202 
L 1293 0 
L 493 0 
z
" transform="scale(0.015625)"/>
      <path id="JetBrainsMono-Bold-67" d="M 973 -1152 
L 973 -486 
L 1965 -486 
Q 2246 -486 2400 -336 
Q 2554 -186 2554 70 
L 2554 282 
L 2566 832 
Q 2458 538 2218 374 
Q 1978 211 1632 211 
Q 1094 211 777 572 
Q 461 934 461 1555 
L 461 2240 
Q 461 2854 777 3219 
Q 1094 3584 1632 3584 
Q 1978 3584 2218 3421 
Q 2458 3258 2566 2957 
L 2566 3520 
L 3347 3520 
L 3347 51 
Q 3347 -506 2979 -829 
Q 2611 -1152 1978 -1152 
L 973 -1152 
z
M 1901 896 
Q 2208 896 2377 1078 
Q 2547 1261 2547 1587 
L 2547 2202 
Q 2547 2528 2377 2710 
Q 2208 2893 1901 2893 
Q 1594 2893 1427 2717 
Q 1261 2541 1261 2227 
L 1261 1562 
Q 1261 1248 1427 1072 
Q 1594 896 1901 896 
z
" transform="scale(0.015625)"/>
      <path id="JetBrainsMono-Bold-20" transform="scale(0.015625)"/>
      <path id="JetBrainsMono-Bold-48" d="M 493 0 
L 493 4672 
L 1293 4672 
L 1293 2778 
L 2547 2778 
L 2547 4672 
L 3347 4672 
L 3347 0 
L 2547 0 
L 2547 2054 
L 1293 2054 
L 1293 0 
L 493 0 
z
" transform="scale(0.015625)"/>
      <path id="JetBrainsMono-Bold-73" d="M 1773 -58 
Q 1146 -58 781 227 
Q 416 512 416 998 
L 1203 998 
Q 1203 794 1353 685 
Q 1504 576 1773 576 
L 2054 576 
Q 2342 576 2499 685 
Q 2656 794 2656 998 
Q 2656 1190 2547 1283 
Q 2438 1376 2214 1408 
L 1338 1523 
Q 915 1581 688 1849 
Q 461 2118 461 2547 
Q 461 3046 793 3312 
Q 1126 3578 1754 3578 
L 2048 3578 
Q 2637 3578 2995 3309 
Q 3354 3040 3366 2592 
L 2573 2592 
Q 2566 2758 2425 2857 
Q 2285 2957 2048 2957 
L 1754 2957 
Q 1498 2957 1363 2851 
Q 1229 2746 1229 2566 
Q 1229 2406 1328 2329 
Q 1427 2253 1619 2234 
L 2445 2118 
Q 2931 2061 3177 1776 
Q 3424 1491 3424 1011 
Q 3424 499 3075 220 
Q 2726 -58 2054 -58 
L 1773 -58 
z
" transform="scale(0.015625)"/>
      <path id="JetBrainsMono-Bold-6f" d="M 1920 -58 
Q 1242 -58 845 323 
Q 448 704 448 1350 
L 448 2170 
Q 448 2822 845 3200 
Q 1242 3578 1920 3578 
Q 2598 3578 2995 3200 
Q 3392 2822 3392 2170 
L 3392 1350 
Q 3392 704 2995 323 
Q 2598 -58 1920 -58 
z
M 1920 640 
Q 2240 640 2416 816 
Q 2592 992 2592 1325 
L 2592 2195 
Q 2592 2528 2416 2704 
Q 2240 2880 1920 2880 
Q 1600 2880 1424 2704 
Q 1248 2528 1248 2195 
L 1248 1325 
Q 1248 992 1424 816 
Q 1600 640 1920 640 
z
" transform="scale(0.015625)"/>
      <path id="JetBrainsMono-Bold-72" d="M 621 0 
L 621 3520 
L 1402 3520 
L 1402 2835 
Q 1466 3181 1718 3382 
Q 1971 3584 2374 3584 
Q 2912 3584 3213 3238 
Q 3514 2893 3514 2272 
L 3514 1939 
L 2714 1939 
L 2714 2234 
Q 2714 2554 2547 2723 
Q 2381 2893 2074 2893 
Q 1754 2893 1587 2701 
Q 1421 2509 1421 2157 
L 1421 0 
L 621 0 
z
" transform="scale(0.015625)"/>
      <path id="JetBrainsMono-Bold-79" d="M 1056 -1152 
L 1555 192 
L 230 3520 
L 1075 3520 
L 1754 1722 
Q 1811 1562 1868 1373 
Q 1926 1184 1952 1024 
Q 1971 1184 2025 1373 
Q 2080 1562 2138 1722 
L 2765 3520 
L 3610 3520 
L 1894 -1152 
L 1056 -1152 
z
" transform="scale(0.015625)"/>
     </defs>
     <use xlink:href="#JetBrainsMono-Bold-52"/>
     <use xlink:href="#JetBrainsMono-Bold-61" transform="translate(59.999985 0)"/>
     <use xlink:href="#JetBrainsMono-Bold-74" transform="translate(119.999969 0)"/>
     <use xlink:href="#JetBrainsMono-Bold-69" transform="translate(179.999954 0)"/>
     <use xlink:href="#JetBrainsMono-Bold-6e" transform="translate(239.999939 0)"/>
     <use xlink:href="#JetBrainsMono-Bold-67" transform="translate(299.999924 0)"/>
     <use xlink:href="#JetBrainsMono-Bold-20" transform="translate(359.999908 0)"/>
     <use xlink:href="#JetBrainsMono-Bold-48" transform="translate(419.999893 0)"/>
     <use xlink:href="#JetBrainsMono-Bold-69" transform="translate(479.999878 0)"/>
     <use xlink:href="#JetBrainsMono-Bold-73" transform="translate(539.999863 0)"/>
     <use xlink:href="#JetBrainsMono-Bold-74" transform="translate(599.999847 0)"/>
     <use xlink:href="#JetBrainsMono-Bold-6f" transform="translate(659.999832 0)"/>
     <use xlink:href="#JetBrainsMono-Bold-72" transform="translate(719.999817 0)"/>
     <use xlink:href="#JetBrainsMono-Bold-79" transform="translate(779.999802 0)"/>
    </g>
   </g>
   <g id="line2d_21">
    <path d="M 106.084744 231.88 
L 127.520561 224.004911 
L 148.956377 216.385659 
L 170.392193 209.01521 
L 191.82801 201.88653 
L 213.263826 194.992586 
L 234.699642 188.326346 
L 256.135459 181.880775 
L 277.571275 175.648841 
L 301.686569 168.88452 
L 325.801862 162.371667 
L 349.917155 156.100268 
L 374.032449 150.060308 
L 398.147742 144.241774 
L 422.263036 138.63465 
L 449.057806 132.640284 
L 475.852576 126.880819 
L 502.647347 121.342519 
L 532.121594 115.489438 
L 561.595842 109.86906 
L 593.749566 103.981652 
L 625.903291 98.325683 
L 660.736493 92.432025 
L 698.249171 86.323002 
L 738.441327 80.00967 
L 783.992437 73.087465 
L 840.261455 64.781325 
L 907.248381 55.08 
L 907.248381 55.08 
" clip-path="url(#pf01e9b82d9)" style="fill: none; stroke: #8b5cf6; stroke-width: 2.2; stroke-linecap: round"/>
   </g>
   <g id="PathCollection_1">
    <defs>
     <path id="ma885b707a2" d="M 0 2.95804 
C 0.784481 2.95804 1.536938 2.646362 2.09165 2.09165 
C 2.646362 1.536938 2.95804 0.784481 2.95804 0 
C 2.95804 -0.784481 2.646362 -1.536938 2.09165 -2.09165 
C 1.536938 -2.646362 0.784481 -2.95804 0 -2.95804 
C -0.784481 -2.95804 -1.536938 -2.646362 -2.09165 -2.09165 
C -2.646362 -1.536938 -2.95804 -0.784481 -2.95804 0 
C -2.95804 0.784481 -2.646362 1.536938 -2.09165 2.09165 
C -1.536938 2.646362 -0.784481 2.95804 0 2.95804 
z
" style="stroke: #ffffff; stroke-width: 0.8"/>
    </defs>
    <g clip-path="url(#pf01e9b82d9)">
     <use xlink:href="#ma885b707a2" x="106.084744" y="231.88" style="fill: #8b5cf6; stroke: #ffffff; stroke-width: 0.8"/>
     <use xlink:href="#ma885b707a2" x="373.13929" y="150.28" style="fill: #8b5cf6; stroke: #ffffff; stroke-width: 0.8"/>
     <use xlink:href="#ma885b707a2" x="640.193835" y="95.88" style="fill: #8b5cf6; stroke: #ffffff; stroke-width: 0.8"/>
     <use xlink:href="#ma885b707a2" x="907.248381" y="55.08" style="fill: #8b5cf6; stroke: #ffffff; stroke-width: 0.8"/>
    </g>
   </g>
  </g>
  <g id="axes_2">
   <g id="text_14">
    <!-- Rating -->
    <g style="fill: #9b8bb8" transform="translate(995.042563 35.712) scale(0.19 -0.19)">
     <use xlink:href="#JetBrainsMono-Regular-52"/>
     <use xlink:href="#JetBrainsMono-Regular-61" transform="translate(59.999985 0)"/>
     <use xlink:href="#JetBrainsMono-Regular-74" transform="translate(119.999969 0)"/>
     <use xlink:href="#JetBrainsMono-Regular-69" transform="translate(179.999954 0)"/>
     <use xlink:href="#JetBrainsMono-Regular-6e" transform="translate(239.999939 0)"/>
     <use xlink:href="#JetBrainsMono-Regular-67" transform="translate(299.999924 0)"/>
    </g>
   </g>
   <g id="text_15">
    <!-- 214 -->
    <g style="fill: #8b5cf6" transform="translate(995.042563 85.608) scale(0.46 -0.46)">
     <use xlink:href="#JetBrainsMono-Bold-32"/>
     <use xlink:href="#JetBrainsMono-Bold-31" transform="translate(59.999985 0)"/>
     <use xlink:href="#JetBrainsMono-Bold-34" transform="translate(119.999969 0)"/>
    </g>
   </g>
   <g id="text_16">
    <!-- Rank -->
    <g style="fill: #9b8bb8" transform="translate(995.042563 142.632) scale(0.19 -0.19)">
     <defs>
      <path id="JetBrainsMono-Regular-6b" d="M 621 0 
L 621 4672 
L 1197 4672 
L 1197 2067 
L 1869 2067 
L 2854 3520 
L 3514 3520 
L 2381 1843 
L 3578 0 
L 2906 0 
L 1882 1568 
L 1197 1568 
L 1197 0 
L 621 0 
z
" transform="scale(0.015625)"/>
     </defs>
     <use xlink:href="#JetBrainsMono-Regular-52"/>
     <use xlink:href="#JetBrainsMono-Regular-61" transform="translate(59.999985 0)"/>
     <use xlink:href="#JetBrainsMono-Regular-6e" transform="translate(119.999969 0)"/>
     <use xlink:href="#JetBrainsMono-Regular-6b" transform="translate(179.999954 0)"/>
    </g>
   </g>
   <g id="text_17">
    <!-- #128,248 -->
    <g style="fill: #8b5cf6" transform="translate(995.042563 188.964) scale(0.24 -0.24)">
     <defs>
      <path id="JetBrainsMono-Bold-23" d="M 493 0 
L 710 1216 
L 224 1216 
L 224 1760 
L 800 1760 
L 998 2912 
L 448 2912 
L 448 3456 
L 1094 3456 
L 1312 4672 
L 1875 4672 
L 1658 3456 
L 2566 3456 
L 2784 4672 
L 3347 4672 
L 3130 3456 
L 3616 3456 
L 3616 2912 
L 3034 2912 
L 2835 1760 
L 3392 1760 
L 3392 1216 
L 2739 1216 
L 2528 0 
L 1965 0 
L 2182 1216 
L 1267 1216 
L 1056 0 
L 493 0 
z
M 1363 1760 
L 2272 1760 
L 2470 2912 
L 1562 2912 
L 1363 1760 
z
" transform="scale(0.015625)"/>
      <path id="JetBrainsMono-Bold-38" d="M 1920 -64 
Q 1453 -64 1094 112 
Q 736 288 537 598 
Q 339 909 339 1318 
Q 339 1747 585 2067 
Q 832 2387 1229 2470 
L 1229 2483 
Q 890 2554 682 2829 
Q 474 3104 474 3482 
Q 474 3853 656 4134 
Q 838 4416 1164 4576 
Q 1491 4736 1920 4736 
Q 2349 4736 2678 4576 
Q 3008 4416 3190 4134 
Q 3373 3853 3373 3482 
Q 3373 3104 3161 2829 
Q 2950 2554 2611 2483 
L 2611 2470 
Q 3008 2387 3254 2067 
Q 3501 1747 3501 1318 
Q 3501 909 3302 598 
Q 3104 288 2745 112 
Q 2387 -64 1920 -64 
z
M 1920 2758 
Q 2221 2758 2406 2940 
Q 2592 3123 2592 3411 
Q 2592 3706 2406 3888 
Q 2221 4070 1920 4070 
Q 1619 4070 1433 3888 
Q 1248 3706 1248 3411 
Q 1248 3123 1433 2940 
Q 1619 2758 1920 2758 
z
M 1920 614 
Q 2272 614 2496 819 
Q 2720 1024 2720 1357 
Q 2720 1696 2496 1904 
Q 2272 2112 1920 2112 
Q 1568 2112 1344 1904 
Q 1120 1696 1120 1357 
Q 1120 1024 1344 819 
Q 1568 614 1920 614 
z
" transform="scale(0.015625)"/>
      <path id="JetBrainsMono-Bold-2c" d="M 1216 -1024 
L 1555 934 
L 2470 934 
L 1984 -1024 
L 1216 -1024 
z
" transform="scale(0.015625)"/>
     </defs>
     <use xlink:href="#JetBrainsMono-Bold-23"/>
     <use xlink:href="#JetBrainsMono-Bold-31" transform="translate(59.999985 0)"/>
     <use xlink:href="#JetBrainsMono-Bold-32" transform="translate(119.999969 0)"/>
     <use xlink:href="#JetBrainsMono-Bold-38" transform="translate(179.999954 0)"/>
     <use xlink:href="#JetBrainsMono-Bold-2c" transform="translate(239.999939 0)"/>
     <use xlink:href="#JetBrainsMono-Bold-32" transform="translate(299.999924 0)"/>
     <use xlink:href="#JetBrainsMono-Bold-34" transform="translate(359.999908 0)"/>
     <use xlink:href="#JetBrainsMono-Bold-38" transform="translate(419.999893 0)"/>
    </g>
   </g>
   <g id="text_18">
    <!-- ▲ +3 -->
    <g style="fill: #4caf50" transform="translate(995.042563 235.296) scale(0.19 -0.19)">
     <defs>
      <path id="JetBrainsMono-Bold-25b2" d="M -64 384 
L 1920 4288 
L 3904 384 
L -64 384 
z
" transform="scale(0.015625)"/>
      <path id="JetBrainsMono-Bold-2b" d="M 1523 589 
L 1523 1741 
L 378 1741 
L 378 2483 
L 1523 2483 
L 1523 3635 
L 2317 3635 
L 2317 2483 
L 3462 2483 
L 3462 1741 
L 2317 1741 
L 2317 589 
L 1523 589 
z
" transform="scale(0.015625)"/>
      <path id="JetBrainsMono-Bold-33" d="M 1875 -64 
Q 1184 -64 781 297 
Q 378 659 378 1280 
L 1184 1280 
Q 1184 986 1369 810 
Q 1555 634 1882 634 
Q 2202 634 2387 810 
Q 2573 986 2573 1280 
L 2573 1632 
Q 2573 1946 2390 2122 
Q 2208 2298 1882 2298 
L 1293 2298 
L 1293 2938 
L 2368 3968 
L 544 3968 
L 544 4672 
L 3245 4672 
L 3245 3994 
L 2170 2963 
Q 2733 2886 3056 2537 
Q 3379 2189 3379 1632 
L 3379 1280 
Q 3379 659 2972 297 
Q 2566 -64 1875 -64 
z
" transform="scale(0.015625)"/>
     </defs>
     <use xlink:href="#JetBrainsMono-Bold-25b2"/>
     <use xlink:href="#JetBrainsMono-Bold-20" transform="translate(59.999985 0)"/>
     <use xlink:href="#JetBrainsMono-Bold-2b" transform="translate(119.999969 0)"/>
     <use xlink:href="#JetBrainsMono-Bold-33" transform="translate(179.999954 0)"/>
    </g>
   </g>
  </g>
 </g>
 <defs>
  <clipPath id="pf01e9b82d9">
   <rect x="66.026563" y="42.84" width="881.28" height="269.28"/>
  </clipPath>
 </defs>
</svg>
