<?xml version="1.0" encoding="utf-8" standalone="no"?>
<!DOCTYPE svg PUBLIC "-//W3C//DTD SVG 1.1//EN"
  "http://www.w3.org/Graphics/SVG/1.1/DTD/svg11.dtd">
<svg xmlns:xlink="http://www.w3.org/1999/xlink" width="691.2pt" height="396pt" viewBox="0 0 691.2 396" xmlns="http://www.w3.org/2000/svg" version="1.1">
 <metadata>
  <rdf:RDF xmlns:dc="http://purl.org/dc/elements/1.1/" xmlns:cc="http://creativecommons.org/ns#" xmlns:rdf="http://www.w3.org/1999/02/22-rdf-syntax-ns#">
   <cc:Work>
    <dc:type rdf:resource="http://purl.org/dc/dcmitype/StillImage"/>
    <dc:date>2026-04-26T15:32:35.727872</dc:date>
    <dc:format>image/svg+xml</dc:format>
    <dc:creator>
     <cc:Agent>
      <dc:title>Matplotlib v3.10.9, https://matplotlib.org/</dc:title>
     </cc:Agent>
    </dc:creator>
   </cc:Work>
  </rdf:RDF>
 </metadata>
 <defs>
  <style type="text/css">*{stroke-linejoin: round; stroke-linecap: butt}</style>
 </defs>
 <g id="figure_1">
  <g id="patch_1">
   <path d="M 0 396 
L 691.2 396 
L 691.2 0 
L 0 0 
L 0 396 
z
" style="fill: none"/>
  </g>
  <g id="axes_1">
   <g id="patch_2">
    <path d="M 55.296 324.72 
L 546.048 324.72 
L 546.048 55.44 
L 55.296 55.44 
L 55.296 324.72 
z
" style="fill: none"/>
   </g>
   <g id="matplotlib.axis_1">
    <g id="xtick_1">
     <g id="line2d_1">
      <path d="M 100.736 324.72 
L 100.736 55.44 
" clip-path="url(#p48e14cfb1f)" style="fill: none; stroke-dasharray: 2.22,0.96; stroke-dashoffset: 0; stroke: #e2d5f5; stroke-opacity: 0.7; stroke-width: 0.6"/>
     </g>
     <g id="line2d_2">
      <defs>
       <path id="mf1fae2d0cf" d="M 0 0 
L 0 3.5 
" style="stroke: #9b8bb8; stroke-width: 0.8"/>
      </defs>
      <g>
       <use xlink:href="#mf1fae2d0cf" x="100.736" y="324.72" style="fill: #9b8bb8; stroke: #9b8bb8; stroke-width: 0.8"/>
      </g>
     </g>
     <g id="text_1">
      <!-- 04/02 -->
      <g style="fill: #9b8bb8" transform="translate(89.195619 353.301793) rotate(-30) scale(0.1 -0.1)">
       <defs>
        <path id="JetBrainsMono-Regular-30" d="M 1920 -64 
Q 1274 -64 893 310 
Q 512 685 512 1312 
L 512 3360 
Q 512 3987 893 4361 
Q 1274 4736 1920 4736 
Q 2566 4736 2947 4361 
Q 3328 3987 3328 3360 
L 3328 1312 
Q 3328 896 3155 585 
Q 2982 275 2665 105 
Q 2349 -64 1920 -64 
z
M 1920 429 
Q 2304 429 2537 675 
Q 2771 922 2771 1312 
L 2771 3360 
Q 2771 3750 2537 3996 
Q 2304 4243 1920 4243 
Q 1536 4243 1302 3996 
Q 1069 3750 1069 3360 
L 1069 1312 
Q 1069 922 1302 675 
Q 1536 429 1920 429 
z
M 1920 1984 
Q 1747 1984 1641 2080 
Q 1536 2176 1536 2355 
Q 1536 2528 1641 2621 
Q 1747 2714 1920 2714 
Q 2093 2714 2198 2621 
Q 2304 2528 2304 2355 
Q 2304 2176 2198 2080 
Q 2093 1984 1920 1984 
z
" transform="scale(0.015625)"/>
        <path id="JetBrainsMono-Regular-34" d="M 2560 0 
L 2560 1024 
L 448 1024 
L 448 1926 
L 2150 4672 
L 2803 4672 
L 1024 1798 
L 1024 1549 
L 2560 1549 
L 2560 2688 
L 3136 2688 
L 3136 0 
L 2560 0 
z
" transform="scale(0.015625)"/>
        <path id="JetBrainsMono-Regular-2f" d="M 480 -704 
L 2752 5312 
L 3360 5312 
L 1088 -704 
L 480 -704 
z
" transform="scale(0.015625)"/>
        <path id="JetBrainsMono-Regular-32" d="M 550 0 
L 550 531 
L 2106 2195 
Q 2445 2554 2585 2835 
Q 2726 3117 2726 3386 
Q 2726 3770 2505 3997 
Q 2285 4224 1907 4224 
Q 1517 4224 1289 3990 
Q 1062 3757 1062 3360 
L 486 3360 
Q 506 3994 890 4365 
Q 1274 4736 1907 4736 
Q 2554 4736 2934 4371 
Q 3315 4006 3315 3379 
Q 3315 3046 3132 2675 
Q 2950 2304 2509 1843 
L 1248 525 
L 3373 525 
L 3373 0 
L 550 0 
z
" transform="scale(0.015625)"/>
       </defs>
       <use xlink:href="#JetBrainsMono-Regular-30"/>
       <use xlink:href="#JetBrainsMono-Regular-34" transform="translate(59.999985 0)"/>
       <use xlink:href="#JetBrainsMono-Regular-2f" transform="translate(119.999969 0)"/>
       <use xlink:href="#JetBrainsMono-Regular-30" transform="translate(179.999954 0)"/>
       <use xlink:href="#JetBrainsMono-Regular-32" transform="translate(239.999939 0)"/>
      </g>
     </g>
    </g>
    <g id="xtick_2">
     <g id="line2d_3">
      <path d="M 155.264 324.72 
L 155.264 55.44 
" clip-path="url(#p48e14cfb1f)" style="fill: none; stroke-dasharray: 2.22,0.96; stroke-dashoffset: 0; stroke: #e2d5f5; stroke-opacity: 0.7; stroke-width: 0.6"/>
     </g>
     <g id="line2d_4">
      <g>
       <use xlink:href="#mf1fae2d0cf" x="155.264" y="324.72" style="fill: #9b8bb8; stroke: #9b8bb8; stroke-width: 0.8"/>
      </g>
     </g>
     <g id="text_2">
      <!-- 04/05 -->
      <g style="fill: #9b8bb8" transform="translate(143.723619 353.301793) rotate(-30) scale(0.1 -0.1)">
       <defs>
        <path id="JetBrainsMono-Regular-35" d="M 1882 -64 
Q 1235 -64 857 297 
Q 480 659 480 1280 
L 1056 1280 
Q 1056 896 1280 672 
Q 1504 448 1888 448 
Q 2272 448 2496 672 
Q 2720 896 2720 1280 
L 2720 1568 
Q 2720 1952 2502 2176 
Q 2285 2400 1914 2400 
L 640 2400 
L 640 4672 
L 3130 4672 
L 3130 4147 
L 1178 4147 
L 1190 2925 
L 1946 2925 
Q 2592 2925 2944 2569 
Q 3296 2214 3296 1568 
L 3296 1280 
Q 3296 659 2915 297 
Q 2534 -64 1882 -64 
z
" transform="scale(0.015625)"/>
       </defs>
       <use xlink:href="#JetBrainsMono-Regular-30"/>
       <use xlink:href="#JetBrainsMono-Regular-34" transform="translate(59.999985 0)"/>
       <use xlink:href="#JetBrainsMono-Regular-2f" transform="translate(119.999969 0)"/>
       <use xlink:href="#JetBrainsMono-Regular-30" transform="translate(179.999954 0)"/>
       <use xlink:href="#JetBrainsMono-Regular-35" transform="translate(239.999939 0)"/>
      </g>
     </g>
    </g>
    <g id="xtick_3">
     <g id="line2d_5">
      <path d="M 209.792 324.72 
L 209.792 55.44 
" clip-path="url(#p48e14cfb1f)" style="fill: none; stroke-dasharray: 2.22,0.96; stroke-dashoffset: 0; stroke: #e2d5f5; stroke-opacity: 0.7; stroke-width: 0.6"/>
     </g>
     <g id="line2d_6">
      <g>
       <use xlink:href="#mf1fae2d0cf" x="209.792" y="324.72" style="fill: #9b8bb8; stroke: #9b8bb8; stroke-width: 0.8"/>
      </g>
     </g>
     <g id="text_3">
      <!-- 04/08 -->
      <g style="fill: #9b8bb8" transform="translate(198.251619 353.301793) rotate(-30) scale(0.1 -0.1)">
       <defs>
        <path id="JetBrainsMono-Regular-38" d="M 1920 -64 
Q 1478 -64 1139 109 
Q 800 282 611 592 
Q 422 902 422 1306 
Q 422 1747 675 2067 
Q 928 2387 1350 2458 
L 1350 2477 
Q 986 2560 768 2845 
Q 550 3130 550 3501 
Q 550 3866 723 4144 
Q 896 4422 1206 4579 
Q 1517 4736 1920 4736 
Q 2330 4736 2637 4579 
Q 2944 4422 3117 4144 
Q 3290 3866 3290 3501 
Q 3290 3130 3072 2845 
Q 2854 2560 2490 2477 
L 2490 2458 
Q 2912 2387 3165 2067 
Q 3418 1747 3418 1306 
Q 3418 902 3229 592 
Q 3040 282 2704 109 
Q 2368 -64 1920 -64 
z
M 1920 2701 
Q 2278 2701 2496 2912 
Q 2714 3123 2714 3462 
Q 2714 3802 2496 4013 
Q 2278 4224 1920 4224 
Q 1568 4224 1347 4013 
Q 1126 3802 1126 3462 
Q 1126 3123 1347 2912 
Q 1568 2701 1920 2701 
z
M 1920 454 
Q 2330 454 2586 694 
Q 2842 934 2842 1318 
Q 2842 1709 2586 1949 
Q 2330 2189 1920 2189 
Q 1510 2189 1254 1949 
Q 998 1709 998 1318 
Q 998 934 1254 694 
Q 1510 454 1920 454 
z
" transform="scale(0.015625)"/>
       </defs>
       <use xlink:href="#JetBrainsMono-Regular-30"/>
       <use xlink:href="#JetBrainsMono-Regular-34" transform="translate(59.999985 0)"/>
       <use xlink:href="#JetBrainsMono-Regular-2f" transform="translate(119.999969 0)"/>
       <use xlink:href="#JetBrainsMono-Regular-30" transform="translate(179.999954 0)"/>
       <use xlink:href="#JetBrainsMono-Regular-38" transform="translate(239.999939 0)"/>
      </g>
     </g>
    </g>
    <g id="xtick_4">
     <g id="line2d_7">
      <path d="M 264.32 324.72 
L 264.32 55.44 
" clip-path="url(#p48e14cfb1f)" style="fill: none; stroke-dasharray: 2.22,0.96; stroke-dashoffset: 0; stroke: #e2d5f5; stroke-opacity: 0.7; stroke-width: 0.6"/>
     </g>
     <g id="line2d_8">
      <g>
       <use xlink:href="#mf1fae2d0cf" x="264.32" y="324.72" style="fill: #9b8bb8; stroke: #9b8bb8; stroke-width: 0.8"/>
      </g>
     </g>
     <g id="text_4">
      <!-- 04/11 -->
      <g style="fill: #9b8bb8" transform="translate(252.779619 353.301793) rotate(-30) scale(0.1 -0.1)">
       <defs>
        <path id="JetBrainsMono-Regular-31" d="M 576 0 
L 576 525 
L 1843 525 
L 1843 4173 
L 576 3226 
L 576 3885 
L 1632 4672 
L 2419 4672 
L 2419 525 
L 3456 525 
L 3456 0 
L 576 0 
z
" transform="scale(0.015625)"/>
       </defs>
       <use xlink:href="#JetBrainsMono-Regular-30"/>
       <use xlink:href="#JetBrainsMono-Regular-34" transform="translate(59.999985 0)"/>
       <use xlink:href="#JetBrainsMono-Regular-2f" transform="translate(119.999969 0)"/>
       <use xlink:href="#JetBrainsMono-Regular-31" transform="translate(179.999954 0)"/>
       <use xlink:href="#JetBrainsMono-Regular-31" transform="translate(239.999939 0)"/>
      </g>
     </g>
    </g>
    <g id="xtick_5">
     <g id="line2d_9">
      <path d="M 318.848 324.72 
L 318.848 55.44 
" clip-path="url(#p48e14cfb1f)" style="fill: none; stroke-dasharray: 2.22,0.96; stroke-dashoffset: 0; stroke: #e2d5f5; stroke-opacity: 0.7; stroke-width: 0.6"/>
     </g>
     <g id="line2d_10">
      <g>
       <use xlink:href="#mf1fae2d0cf" x="318.848" y="324.72" style="fill: #9b8bb8; stroke: #9b8bb8; stroke-width: 0.8"/>
      </g>
     </g>
     <g id="text_5">
      <!-- 04/14 -->
      <g style="fill: #9b8bb8" transform="translate(307.307619 353.301793) rotate(-30) scale(0.1 -0.1)">
       <use xlink:href="#JetBrainsMono-Regular-30"/>
       <use xlink:href="#JetBrainsMono-Regular-34" transform="translate(59.999985 0)"/>
       <use xlink:href="#JetBrainsMono-Regular-2f" transform="translate(119.999969 0)"/>
       <use xlink:href="#JetBrainsMono-Regular-31" transform="translate(179.999954 0)"/>
       <use xlink:href="#JetBrainsMono-Regular-34" transform="translate(239.999939 0)"/>
      </g>
     </g>
    </g>
    <g id="xtick_6">
     <g id="line2d_11">
      <path d="M 373.376 324.72 
L 373.376 55.44 
" clip-path="url(#p48e14cfb1f)" style="fill: none; stroke-dasharray: 2.22,0.96; stroke-dashoffset: 0; stroke: #e2d5f5; stroke-opacity: 0.7; stroke-width: 0.6"/>
     </g>
     <g id="line2d_12">
      <g>
       <use xlink:href="#mf1fae2d0cf" x="373.376" y="324.72" style="fill: #9b8bb8; stroke: #9b8bb8; stroke-width: 0.8"/>
      </g>
     </g>
     <g id="text_6">
      <!-- 04/17 -->
      <g style="fill: #9b8bb8" transform="translate(361.835619 353.301793) rotate(-30) scale(0.1 -0.1)">
       <defs>
        <path id="JetBrainsMono-Regular-37" d="M 1216 0 
L 2880 4147 
L 1101 4147 
L 1101 3392 
L 525 3392 
L 525 4672 
L 3494 4672 
L 3494 4134 
L 1843 0 
L 1216 0 
z
" transform="scale(0.015625)"/>
       </defs>
       <use xlink:href="#JetBrainsMono-Regular-30"/>
       <use xlink:href="#JetBrainsMono-Regular-34" transform="translate(59.999985 0)"/>
       <use xlink:href="#JetBrainsMono-Regular-2f" transform="translate(119.999969 0)"/>
       <use xlink:href="#JetBrainsMono-Regular-31" transform="translate(179.999954 0)"/>
       <use xlink:href="#JetBrainsMono-Regular-37" transform="translate(239.999939 0)"/>
      </g>
     </g>
    </g>
    <g id="xtick_7">
     <g id="line2d_13">
      <path d="M 427.904 324.72 
L 427.904 55.44 
" clip-path="url(#p48e14cfb1f)" style="fill: none; stroke-dasharray: 2.22,0.96; stroke-dashoffset: 0; stroke: #e2d5f5; stroke-opacity: 0.7; stroke-width: 0.6"/>
     </g>
     <g id="line2d_14">
      <g>
       <use xlink:href="#mf1fae2d0cf" x="427.904" y="324.72" style="fill: #9b8bb8; stroke: #9b8bb8; stroke-width: 0.8"/>
      </g>
     </g>
     <g id="text_7">
      <!-- 04/20 -->
      <g style="fill: #9b8bb8" transform="translate(416.363619 353.301793) rotate(-30) scale(0.1 -0.1)">
       <use xlink:href="#JetBrainsMono-Regular-30"/>
       <use xlink:href="#JetBrainsMono-Regular-34" transform="translate(59.999985 0)"/>
       <use xlink:href="#JetBrainsMono-Regular-2f" transform="translate(119.999969 0)"/>
       <use xlink:href="#JetBrainsMono-Regular-32" transform="translate(179.999954 0)"/>
       <use xlink:href="#JetBrainsMono-Regular-30" transform="translate(239.999939 0)"/>
      </g>
     </g>
    </g>
    <g id="xtick_8">
     <g id="line2d_15">
      <path d="M 482.432 324.72 
L 482.432 55.44 
" clip-path="url(#p48e14cfb1f)" style="fill: none; stroke-dasharray: 2.22,0.96; stroke-dashoffset: 0; stroke: #e2d5f5; stroke-opacity: 0.7; stroke-width: 0.6"/>
     </g>
     <g id="line2d_16">
      <g>
       <use xlink:href="#mf1fae2d0cf" x="482.432" y="324.72" style="fill: #9b8bb8; stroke: #9b8bb8; stroke-width: 0.8"/>
      </g>
     </g>
     <g id="text_8">
      <!-- 04/23 -->
      <g style="fill: #9b8bb8" transform="translate(470.891619 353.301793) rotate(-30) scale(0.1 -0.1)">
       <defs>
        <path id="JetBrainsMono-Regular-33" d="M 1850 -64 
Q 1203 -64 825 297 
Q 448 659 448 1280 
L 1024 1280 
Q 1024 896 1248 672 
Q 1472 448 1856 448 
Q 2240 448 2464 672 
Q 2688 896 2688 1280 
L 2688 1600 
Q 2688 1984 2464 2208 
Q 2240 2432 1856 2432 
L 1350 2432 
L 1350 2931 
L 2496 4147 
L 576 4147 
L 576 4672 
L 3149 4672 
L 3149 4134 
L 2022 2938 
Q 2598 2893 2931 2537 
Q 3264 2182 3264 1600 
L 3264 1280 
Q 3264 659 2883 297 
Q 2502 -64 1850 -64 
z
" transform="scale(0.015625)"/>
       </defs>
       <use xlink:href="#JetBrainsMono-Regular-30"/>
       <use xlink:href="#JetBrainsMono-Regular-34" transform="translate(59.999985 0)"/>
       <use xlink:href="#JetBrainsMono-Regular-2f" transform="translate(119.999969 0)"/>
       <use xlink:href="#JetBrainsMono-Regular-32" transform="translate(179.999954 0)"/>
       <use xlink:href="#JetBrainsMono-Regular-33" transform="translate(239.999939 0)"/>
      </g>
     </g>
    </g>
    <g id="xtick_9">
     <g id="line2d_17">
      <path d="M 536.96 324.72 
L 536.96 55.44 
" clip-path="url(#p48e14cfb1f)" style="fill: none; stroke-dasharray: 2.22,0.96; stroke-dashoffset: 0; stroke: #e2d5f5; stroke-opacity: 0.7; stroke-width: 0.6"/>
     </g>
     <g id="line2d_18">
      <g>
       <use xlink:href="#mf1fae2d0cf" x="536.96" y="324.72" style="fill: #9b8bb8; stroke: #9b8bb8; stroke-width: 0.8"/>
      </g>
     </g>
     <g id="text_9">
      <!-- 04/26 -->
      <g style="fill: #9b8bb8" transform="translate(525.419619 353.301793) rotate(-30) scale(0.1 -0.1)">
       <defs>
        <path id="JetBrainsMono-Regular-36" d="M 1926 -64 
Q 1478 -64 1136 125 
Q 794 314 602 650 
Q 410 986 410 1427 
Q 410 1734 525 2057 
Q 640 2381 838 2733 
L 1920 4672 
L 2560 4672 
L 1408 2669 
L 1427 2656 
Q 1510 2765 1676 2822 
Q 1843 2880 2042 2880 
Q 2458 2880 2768 2697 
Q 3078 2515 3254 2195 
Q 3430 1875 3430 1453 
Q 3430 1005 3238 662 
Q 3046 320 2710 128 
Q 2374 -64 1926 -64 
z
M 1920 448 
Q 2336 448 2595 723 
Q 2854 998 2854 1440 
Q 2854 1882 2595 2157 
Q 2336 2432 1920 2432 
Q 1504 2432 1245 2157 
Q 986 1882 986 1440 
Q 986 998 1245 723 
Q 1504 448 1920 448 
z
" transform="scale(0.015625)"/>
       </defs>
       <use xlink:href="#JetBrainsMono-Regular-30"/>
       <use xlink:href="#JetBrainsMono-Regular-34" transform="translate(59.999985 0)"/>
       <use xlink:href="#JetBrainsMono-Regular-2f" transform="translate(119.999969 0)"/>
       <use xlink:href="#JetBrainsMono-Regular-32" transform="translate(179.999954 0)"/>
       <use xlink:href="#JetBrainsMono-Regular-36" transform="translate(239.999939 0)"/>
      </g>
     </g>
    </g>
   </g>
   <g id="matplotlib.axis_2">
    <g id="ytick_1">
     <g id="line2d_19">
      <path d="M 55.296 309.989834 
L 546.048 309.989834 
" clip-path="url(#p48e14cfb1f)" style="fill: none; stroke-dasharray: 2.22,0.96; stroke-dashoffset: 0; stroke: #e2d5f5; stroke-opacity: 0.7; stroke-width: 0.6"/>
     </g>
     <g id="line2d_20">
      <defs>
       <path id="m862cebd0e1" d="M 0 0 
L -3.5 0 
" style="stroke: #9b8bb8; stroke-width: 0.8"/>
      </defs>
      <g>
       <use xlink:href="#m862cebd0e1" x="55.296" y="309.989834" style="fill: #9b8bb8; stroke: #9b8bb8; stroke-width: 0.8"/>
      </g>
     </g>
     <g id="text_10">
      <!-- 200 -->
      <g style="fill: #9b8bb8" transform="translate(30.296 313.639834) scale(0.1 -0.1)">
       <use xlink:href="#JetBrainsMono-Regular-32"/>
       <use xlink:href="#JetBrainsMono-Regular-30" transform="translate(59.999985 0)"/>
       <use xlink:href="#JetBrainsMono-Regular-30" transform="translate(119.999969 0)"/>
      </g>
     </g>
    </g>
    <g id="ytick_2">
     <g id="line2d_21">
      <path d="M 55.296 273.164418 
L 546.048 273.164418 
" clip-path="url(#p48e14cfb1f)" style="fill: none; stroke-dasharray: 2.22,0.96; stroke-dashoffset: 0; stroke: #e2d5f5; stroke-opacity: 0.7; stroke-width: 0.6"/>
     </g>
     <g id="line2d_22">
      <g>
       <use xlink:href="#m862cebd0e1" x="55.296" y="273.164418" style="fill: #9b8bb8; stroke: #9b8bb8; stroke-width: 0.8"/>
      </g>
     </g>
     <g id="text_11">
      <!-- 210 -->
      <g style="fill: #9b8bb8" transform="translate(30.296 276.814418) scale(0.1 -0.1)">
       <use xlink:href="#JetBrainsMono-Regular-32"/>
       <use xlink:href="#JetBrainsMono-Regular-31" transform="translate(59.999985 0)"/>
       <use xlink:href="#JetBrainsMono-Regular-30" transform="translate(119.999969 0)"/>
      </g>
     </g>
    </g>
    <g id="ytick_3">
     <g id="line2d_23">
      <path d="M 55.296 236.339002 
L 546.048 236.339002 
" clip-path="url(#p48e14cfb1f)" style="fill: none; stroke-dasharray: 2.22,0.96; stroke-dashoffset: 0; stroke: #e2d5f5; stroke-opacity: 0.7; stroke-width: 0.6"/>
     </g>
     <g id="line2d_24">
      <g>
       <use xlink:href="#m862cebd0e1" x="55.296" y="236.339002" style="fill: #9b8bb8; stroke: #9b8bb8; stroke-width: 0.8"/>
      </g>
     </g>
     <g id="text_12">
      <!-- 220 -->
      <g style="fill: #9b8bb8" transform="translate(30.296 239.989002) scale(0.1 -0.1)">
       <use xlink:href="#JetBrainsMono-Regular-32"/>
       <use xlink:href="#JetBrainsMono-Regular-32" transform="translate(59.999985 0)"/>
       <use xlink:href="#JetBrainsMono-Regular-30" transform="translate(119.999969 0)"/>
      </g>
     </g>
    </g>
    <g id="ytick_4">
     <g id="line2d_25">
      <path d="M 55.296 199.513587 
L 546.048 199.513587 
" clip-path="url(#p48e14cfb1f)" style="fill: none; stroke-dasharray: 2.22,0.96; stroke-dashoffset: 0; stroke: #e2d5f5; stroke-opacity: 0.7; stroke-width: 0.6"/>
     </g>
     <g id="line2d_26">
      <g>
       <use xlink:href="#m862cebd0e1" x="55.296" y="199.513587" style="fill: #9b8bb8; stroke: #9b8bb8; stroke-width: 0.8"/>
      </g>
     </g>
     <g id="text_13">
      <!-- 230 -->
      <g style="fill: #9b8bb8" transform="translate(30.296 203.163587) scale(0.1 -0.1)">
       <use xlink:href="#JetBrainsMono-Regular-32"/>
       <use xlink:href="#JetBrainsMono-Regular-33" transform="translate(59.999985 0)"/>
       <use xlink:href="#JetBrainsMono-Regular-30" transform="translate(119.999969 0)"/>
      </g>
     </g>
    </g>
    <g id="ytick_5">
     <g id="line2d_27">
      <path d="M 55.296 162.688171 
L 546.048 162.688171 
" clip-path="url(#p48e14cfb1f)" style="fill: none; stroke-dasharray: 2.22,0.96; stroke-dashoffset: 0; stroke: #e2d5f5; stroke-opacity: 0.7; stroke-width: 0.6"/>
     </g>
     <g id="line2d_28">
      <g>
       <use xlink:href="#m862cebd0e1" x="55.296" y="162.688171" style="fill: #9b8bb8; stroke: #9b8bb8; stroke-width: 0.8"/>
      </g>
     </g>
     <g id="text_14">
      <!-- 240 -->
      <g style="fill: #9b8bb8" transform="translate(30.296 166.338171) scale(0.1 -0.1)">
       <use xlink:href="#JetBrainsMono-Regular-32"/>
       <use xlink:href="#JetBrainsMono-Regular-34" transform="translate(59.999985 0)"/>
       <use xlink:href="#JetBrainsMono-Regular-30" transform="translate(119.999969 0)"/>
      </g>
     </g>
    </g>
    <g id="ytick_6">
     <g id="line2d_29">
      <path d="M 55.296 125.862755 
L 546.048 125.862755 
" clip-path="url(#p48e14cfb1f)" style="fill: none; stroke-dasharray: 2.22,0.96; stroke-dashoffset: 0; stroke: #e2d5f5; stroke-opacity: 0.7; stroke-width: 0.6"/>
     </g>
     <g id="line2d_30">
      <g>
       <use xlink:href="#m862cebd0e1" x="55.296" y="125.862755" style="fill: #9b8bb8; stroke: #9b8bb8; stroke-width: 0.8"/>
      </g>
     </g>
     <g id="text_15">
      <!-- 250 -->
      <g style="fill: #9b8bb8" transform="translate(30.296 129.512755) scale(0.1 -0.1)">
       <use xlink:href="#JetBrainsMono-Regular-32"/>
       <use xlink:href="#JetBrainsMono-Regular-35" transform="translate(59.999985 0)"/>
       <use xlink:href="#JetBrainsMono-Regular-30" transform="translate(119.999969 0)"/>
      </g>
     </g>
    </g>
    <g id="ytick_7">
     <g id="line2d_31">
      <path d="M 55.296 89.03734 
L 546.048 89.03734 
" clip-path="url(#p48e14cfb1f)" style="fill: none; stroke-dasharray: 2.22,0.96; stroke-dashoffset: 0; stroke: #e2d5f5; stroke-opacity: 0.7; stroke-width: 0.6"/>
     </g>
     <g id="line2d_32">
      <g>
       <use xlink:href="#m862cebd0e1" x="55.296" y="89.03734" style="fill: #9b8bb8; stroke: #9b8bb8; stroke-width: 0.8"/>
      </g>
     </g>
     <g id="text_16">
      <!-- 260 -->
      <g style="fill: #9b8bb8" transform="translate(30.296 92.68734) scale(0.1 -0.1)">
       <use xlink:href="#JetBrainsMono-Regular-32"/>
       <use xlink:href="#JetBrainsMono-Regular-36" transform="translate(59.999985 0)"/>
       <use xlink:href="#JetBrainsMono-Regular-30" transform="translate(119.999969 0)"/>
      </g>
     </g>
    </g>
    <g id="text_17">
     <!-- Rating -->
     <g style="fill: #9b8bb8" transform="translate(24.496 208.08) rotate(-90) scale(0.1 -0.1)">
      <defs>
       <path id="JetBrainsMono-Regular-52" d="M 595 0 
L 595 4672 
L 2035 4672 
Q 2451 4672 2764 4502 
Q 3078 4333 3251 4032 
Q 3424 3731 3424 3328 
Q 3424 2854 3181 2515 
Q 2938 2176 2534 2042 
L 3488 0 
L 2854 0 
L 1939 1984 
L 1165 1984 
L 1165 0 
L 595 0 
z
M 1165 2502 
L 2035 2502 
Q 2394 2502 2611 2729 
Q 2829 2957 2829 3328 
Q 2829 3706 2611 3930 
Q 2394 4154 2035 4154 
L 1165 4154 
L 1165 2502 
z
" transform="scale(0.015625)"/>
       <path id="JetBrainsMono-Regular-61" d="M 1613 -64 
Q 1069 -64 749 240 
Q 429 544 429 1037 
Q 429 1363 576 1606 
Q 723 1850 985 1987 
Q 1248 2125 1587 2125 
L 2675 2125 
L 2675 2400 
Q 2675 3085 1926 3085 
Q 1594 3085 1389 2963 
Q 1184 2842 1171 2624 
L 595 2624 
Q 627 3040 982 3312 
Q 1338 3584 1926 3584 
Q 2566 3584 2908 3277 
Q 3251 2970 3251 2419 
L 3251 0 
L 2682 0 
L 2682 640 
L 2669 640 
Q 2618 314 2342 125 
Q 2067 -64 1613 -64 
z
M 1754 422 
Q 2176 422 2425 627 
Q 2675 832 2675 1184 
L 2675 1677 
L 1651 1677 
Q 1370 1677 1194 1507 
Q 1018 1338 1018 1056 
Q 1018 762 1213 592 
Q 1408 422 1754 422 
z
" transform="scale(0.015625)"/>
       <path id="JetBrainsMono-Regular-74" d="M 2272 0 
Q 1837 0 1574 253 
Q 1312 506 1312 928 
L 1312 2995 
L 301 2995 
L 301 3520 
L 1312 3520 
L 1312 4512 
L 1888 4512 
L 1888 3520 
L 3328 3520 
L 3328 2995 
L 1888 2995 
L 1888 928 
Q 1888 749 1993 637 
Q 2099 525 2272 525 
L 3296 525 
L 3296 0 
L 2272 0 
z
" transform="scale(0.015625)"/>
       <path id="JetBrainsMono-Regular-69" d="M 544 0 
L 544 525 
L 1792 525 
L 1792 2995 
L 672 2995 
L 672 3520 
L 2368 3520 
L 2368 525 
L 3552 525 
L 3552 0 
L 544 0 
z
M 2016 4154 
Q 1805 4154 1683 4262 
Q 1562 4371 1562 4557 
Q 1562 4749 1683 4861 
Q 1805 4973 2016 4973 
Q 2227 4973 2348 4861 
Q 2470 4749 2470 4557 
Q 2470 4371 2348 4262 
Q 2227 4154 2016 4154 
z
" transform="scale(0.015625)"/>
       <path id="JetBrainsMono-Regular-6e" d="M 589 0 
L 589 3520 
L 1165 3520 
L 1165 2848 
L 1171 2848 
Q 1216 3200 1459 3392 
Q 1702 3584 2106 3584 
Q 2637 3584 2950 3257 
Q 3264 2931 3264 2368 
L 3264 0 
L 2688 0 
L 2688 2266 
Q 2688 2669 2486 2883 
Q 2285 3098 1939 3098 
Q 1581 3098 1373 2874 
Q 1165 2650 1165 2240 
L 1165 0 
L 589 0 
z
" transform="scale(0.015625)"/>
       <path id="JetBrainsMono-Regular-67" d="M 1030 -1152 
L 1030 -627 
L 2022 -627 
Q 2323 -627 2496 -457 
Q 2669 -288 2669 0 
L 2669 320 
L 2682 896 
L 2662 896 
Q 2611 582 2361 412 
Q 2112 243 1734 243 
Q 1190 243 876 588 
Q 563 934 563 1536 
L 563 2278 
Q 563 2880 876 3232 
Q 1190 3584 1734 3584 
Q 2112 3584 2361 3405 
Q 2611 3226 2662 2912 
L 2675 2912 
L 2675 3520 
L 3245 3520 
L 3245 0 
Q 3245 -531 2915 -841 
Q 2586 -1152 2016 -1152 
L 1030 -1152 
z
M 1907 723 
Q 2266 723 2470 947 
Q 2675 1171 2675 1568 
L 2675 2240 
Q 2675 2637 2470 2861 
Q 2266 3085 1907 3085 
Q 1542 3085 1340 2873 
Q 1139 2662 1139 2304 
L 1139 1504 
Q 1139 1146 1340 934 
Q 1542 723 1907 723 
z
" transform="scale(0.015625)"/>
      </defs>
      <use xlink:href="#JetBrainsMono-Regular-52"/>
      <use xlink:href="#JetBrainsMono-Regular-61" transform="translate(59.999985 0)"/>
      <use xlink:href="#JetBrainsMono-Regular-74" transform="translate(119.999969 0)"/>
      <use xlink:href="#JetBrainsMono-Regular-69" transform="translate(179.999954 0)"/>
      <use xlink:href="#JetBrainsMono-Regular-6e" transform="translate(239.999939 0)"/>
      <use xlink:href="#JetBrainsMono-Regular-67" transform="translate(299.999924 0)"/>
     </g>
    </g>
   </g>
   <g id="patch_3">
    <path d="M 55.296 324.72 
L 55.296 55.44 
" style="fill: none; stroke: #d8c8ef; stroke-width: 0.8; stroke-linejoin: miter; stroke-linecap: square"/>
   </g>
   <g id="patch_4">
    <path d="M 55.296 324.72 
L 546.048 324.72 
" style="fill: none; stroke: #d8c8ef; stroke-width: 0.8; stroke-linejoin: miter; stroke-linecap: square"/>
   </g>
   <g id="FillBetweenPolyCollection_1">
    <defs>
     <path id="m4cf04aa27f" d="M 64.384 -71.28 
L 64.384 -89.692708 
L 65.964522 -92.106944 
L 67.545043 -93.862751 
L 69.125565 -95.022839 
L 70.706087 -95.649913 
L 72.286609 -95.806682 
L 73.86713 -95.555852 
L 75.447652 -94.960131 
L 77.028174 -94.082227 
L 78.608696 -92.984848 
L 80.189217 -91.730699 
L 81.769739 -90.382489 
L 83.350261 -89.002926 
L 84.930783 -87.654717 
L 86.511304 -86.400568 
L 88.091826 -85.303188 
L 89.672348 -84.425284 
L 91.25287 -83.829564 
L 92.833391 -83.578734 
L 94.413913 -83.735503 
L 95.994435 -84.362577 
L 97.574957 -85.522664 
L 99.155478 -87.278472 
L 100.736 -89.692708 
L 102.316522 -92.796849 
L 103.897043 -96.497452 
L 105.477565 -100.669844 
L 107.058087 -105.189351 
L 108.638609 -109.9313 
L 110.21913 -114.771018 
L 111.799652 -119.583832 
L 113.380174 -124.245068 
L 114.960696 -128.630053 
L 116.541217 -132.614114 
L 118.121739 -136.072576 
L 119.702261 -138.885185 
L 121.282783 -141.033259 
L 122.863304 -142.599696 
L 124.443826 -143.671812 
L 126.024348 -144.336919 
L 127.60487 -144.682332 
L 129.185391 -144.795366 
L 130.765913 -144.763334 
L 132.346435 -144.67355 
L 133.926957 -144.613329 
L 135.507478 -144.669985 
L 137.088 -144.930831 
L 138.668522 -145.462678 
L 140.249043 -146.250309 
L 141.829565 -147.258007 
L 143.410087 -148.450052 
L 144.990609 -149.790723 
L 146.57113 -151.244302 
L 148.151652 -152.77507 
L 149.732174 -154.347306 
L 151.312696 -155.925291 
L 152.893217 -157.473306 
L 154.473739 -158.955631 
L 156.054261 -160.337541 
L 157.634783 -161.607165 
L 159.215304 -162.77549 
L 160.795826 -163.854495 
L 162.376348 -164.856161 
L 163.95687 -165.792468 
L 165.537391 -166.675394 
L 167.117913 -167.51692 
L 168.698435 -168.329026 
L 170.278957 -169.123692 
L 171.859478 -169.912898 
L 173.44 -170.708622 
L 175.020522 -171.52608 
L 176.601043 -172.393422 
L 178.181565 -173.34203 
L 179.762087 -174.40329 
L 181.342609 -175.608585 
L 182.92313 -176.9893 
L 184.503652 -178.576819 
L 186.084174 -180.402525 
L 187.664696 -182.497802 
L 189.245217 -184.894036 
L 190.825739 -187.622609 
L 192.406261 -190.712598 
L 193.986783 -194.139992 
L 195.567304 -197.827696 
L 197.147826 -201.696306 
L 198.728348 -205.666417 
L 200.30887 -209.658626 
L 201.889391 -213.593527 
L 203.469913 -217.391718 
L 205.050435 -220.973793 
L 206.630957 -224.260349 
L 208.211478 -227.171982 
L 209.792 -229.629287 
L 211.372522 -231.577481 
L 212.953043 -233.060255 
L 214.533565 -234.145923 
L 216.114087 -234.902797 
L 217.694609 -235.39919 
L 219.27513 -235.703415 
L 220.855652 -235.883785 
L 222.436174 -236.008612 
L 224.016696 -236.146209 
L 225.597217 -236.364888 
L 227.177739 -236.732962 
L 228.758261 -237.316613 
L 230.338783 -238.132975 
L 231.919304 -239.150144 
L 233.499826 -240.33408 
L 235.080348 -241.650745 
L 236.66087 -243.066099 
L 238.241391 -244.546104 
L 239.821913 -246.056722 
L 241.402435 -247.563912 
L 242.982957 -249.033638 
L 244.563478 -250.431859 
L 246.144 -251.724537 
L 247.724522 -252.887349 
L 249.305043 -253.934839 
L 250.885565 -254.891263 
L 252.466087 -255.780881 
L 254.046609 -256.627952 
L 255.62713 -257.456733 
L 257.207652 -258.291483 
L 258.788174 -259.156462 
L 260.368696 -260.075926 
L 261.949217 -261.074135 
L 263.529739 -262.175348 
L 265.110261 -263.402913 
L 266.690783 -264.759253 
L 268.271304 -266.225868 
L 269.851826 -267.783345 
L 271.432348 -269.412274 
L 273.01287 -271.093243 
L 274.593391 -272.806841 
L 276.173913 -274.533657 
L 277.754435 -276.254279 
L 279.334957 -277.949296 
L 280.915478 -279.599296 
L 282.496 -281.184869 
L 284.076522 -282.693894 
L 285.657043 -284.14341 
L 287.237565 -285.557749 
L 288.818087 -286.961241 
L 290.398609 -288.378217 
L 291.97913 -289.833008 
L 293.559652 -291.349944 
L 295.140174 -292.953357 
L 296.720696 -294.667577 
L 298.301217 -296.516934 
L 299.881739 -298.52576 
L 301.462261 -300.716861 
L 303.042783 -303.077973 
L 304.623304 -305.561767 
L 306.203826 -308.119386 
L 307.784348 -310.701975 
L 309.36487 -313.260677 
L 310.945391 -315.746638 
L 312.525913 -318.111002 
L 314.106435 -320.304912 
L 315.686957 -322.279514 
L 317.267478 -323.985951 
L 318.848 -325.375368 
L 320.428522 -326.413775 
L 322.009043 -327.126647 
L 323.589565 -327.554322 
L 325.170087 -327.737143 
L 326.750609 -327.715448 
L 328.33113 -327.529578 
L 329.911652 -327.219874 
L 331.492174 -326.826675 
L 333.072696 -326.390321 
L 334.653217 -325.951153 
L 336.233739 -325.549511 
L 337.814261 -325.224669 
L 339.394783 -324.991393 
L 340.975304 -324.83994 
L 342.555826 -324.7595 
L 344.136348 -324.739265 
L 345.71687 -324.768424 
L 347.297391 -324.83617 
L 348.877913 -324.931692 
L 350.458435 -325.044182 
L 352.038957 -325.162831 
L 353.619478 -325.276829 
L 355.2 -325.375368 
L 356.780522 -325.449922 
L 358.361043 -325.501104 
L 359.941565 -325.53181 
L 361.522087 -325.544936 
L 363.102609 -325.543378 
L 364.68313 -325.530034 
L 366.263652 -325.507798 
L 367.844174 -325.479567 
L 369.424696 -325.448239 
L 371.005217 -325.416708 
L 372.585739 -325.387871 
L 374.166261 -325.364549 
L 375.746783 -325.3478 
L 377.327304 -325.336926 
L 378.907826 -325.331151 
L 380.488348 -325.329698 
L 382.06887 -325.331792 
L 383.649391 -325.336656 
L 385.229913 -325.343514 
L 386.810435 -325.35159 
L 388.390957 -325.360109 
L 389.971478 -325.368293 
L 391.552 -325.375368 
L 393.132522 -325.380721 
L 394.713043 -325.384396 
L 396.293565 -325.3866 
L 397.874087 -325.387543 
L 399.454609 -325.387431 
L 401.03513 -325.386473 
L 402.615652 -325.384876 
L 404.196174 -325.382849 
L 405.776696 -325.3806 
L 407.357217 -325.378336 
L 408.937739 -325.376266 
L 410.518261 -325.374591 
L 412.098783 -325.373389 
L 413.679304 -325.372608 
L 415.259826 -325.372194 
L 416.840348 -325.372089 
L 418.42087 -325.37224 
L 420.001391 -325.372589 
L 421.581913 -325.373081 
L 423.162435 -325.373661 
L 424.742957 -325.374273 
L 426.323478 -325.37486 
L 427.904 -325.375368 
L 429.484522 -325.375753 
L 431.065043 -325.376016 
L 432.645565 -325.376175 
L 434.226087 -325.376242 
L 435.806609 -325.376234 
L 437.38713 -325.376165 
L 438.967652 -325.376051 
L 440.548174 -325.375905 
L 442.128696 -325.375744 
L 443.709217 -325.375581 
L 445.289739 -325.375433 
L 446.870261 -325.375312 
L 448.450783 -325.375226 
L 450.031304 -325.37517 
L 451.611826 -325.37514 
L 453.192348 -325.375133 
L 454.77287 -325.375144 
L 456.353391 -325.375169 
L 457.933913 -325.375204 
L 459.514435 -325.375246 
L 461.094957 -325.37529 
L 462.675478 -325.375332 
L 464.256 -325.375368 
L 465.836522 -325.375396 
L 467.417043 -325.375415 
L 468.997565 -325.375426 
L 470.578087 -325.375431 
L 472.158609 -325.37543 
L 473.73913 -325.375426 
L 475.319652 -325.375417 
L 476.900174 -325.375407 
L 478.480696 -325.375395 
L 480.061217 -325.375384 
L 481.641739 -325.375373 
L 483.222261 -325.375364 
L 484.802783 -325.375358 
L 486.383304 -325.375354 
L 487.963826 -325.375352 
L 489.544348 -325.375351 
L 491.12487 -325.375352 
L 492.705391 -325.375354 
L 494.285913 -325.375356 
L 495.866435 -325.375359 
L 497.446957 -325.375362 
L 499.027478 -325.375365 
L 500.608 -325.375368 
L 502.188522 -325.37537 
L 503.769043 -325.375372 
L 505.349565 -325.375373 
L 506.930087 -325.375374 
L 508.510609 -325.375374 
L 510.09113 -325.375373 
L 511.671652 -325.375373 
L 513.252174 -325.375372 
L 514.832696 -325.375371 
L 516.413217 -325.37537 
L 517.993739 -325.375369 
L 519.574261 -325.375368 
L 521.154783 -325.375366 
L 522.735304 -325.375365 
L 524.315826 -325.375364 
L 525.896348 -325.375363 
L 527.47687 -325.375363 
L 529.057391 -325.375363 
L 530.637913 -325.375363 
L 532.218435 -325.375363 
L 533.798957 -325.375364 
L 535.379478 -325.375366 
L 536.96 -325.375368 
L 536.96 -71.28 
L 536.96 -71.28 
L 535.379478 -71.28 
L 533.798957 -71.28 
L 532.218435 -71.28 
L 530.637913 -71.28 
L 529.057391 -71.28 
L 527.47687 -71.28 
L 525.896348 -71.28 
L 524.315826 -71.28 
L 522.735304 -71.28 
L 521.154783 -71.28 
L 519.574261 -71.28 
L 517.993739 -71.28 
L 516.413217 -71.28 
L 514.832696 -71.28 
L 513.252174 -71.28 
L 511.671652 -71.28 
L 510.09113 -71.28 
L 508.510609 -71.28 
L 506.930087 -71.28 
L 505.349565 -71.28 
L 503.769043 -71.28 
L 502.188522 -71.28 
L 500.608 -71.28 
L 499.027478 -71.28 
L 497.446957 -71.28 
L 495.866435 -71.28 
L 494.285913 -71.28 
L 492.705391 -71.28 
L 491.12487 -71.28 
L 489.544348 -71.28 
L 487.963826 -71.28 
L 486.383304 -71.28 
L 484.802783 -71.28 
L 483.222261 -71.28 
L 481.641739 -71.28 
L 480.061217 -71.28 
L 478.480696 -71.28 
L 476.900174 -71.28 
L 475.319652 -71.28 
L 473.73913 -71.28 
L 472.158609 -71.28 
L 470.578087 -71.28 
L 468.997565 -71.28 
L 467.417043 -71.28 
L 465.836522 -71.28 
L 464.256 -71.28 
L 462.675478 -71.28 
L 461.094957 -71.28 
L 459.514435 -71.28 
L 457.933913 -71.28 
L 456.353391 -71.28 
L 454.77287 -71.28 
L 453.192348 -71.28 
L 451.611826 -71.28 
L 450.031304 -71.28 
L 448.450783 -71.28 
L 446.870261 -71.28 
L 445.289739 -71.28 
L 443.709217 -71.28 
L 442.128696 -71.28 
L 440.548174 -71.28 
L 438.967652 -71.28 
L 437.38713 -71.28 
L 435.806609 -71.28 
L 434.226087 -71.28 
L 432.645565 -71.28 
L 431.065043 -71.28 
L 429.484522 -71.28 
L 427.904 -71.28 
L 426.323478 -71.28 
L 424.742957 -71.28 
L 423.162435 -71.28 
L 421.581913 -71.28 
L 420.001391 -71.28 
L 418.42087 -71.28 
L 416.840348 -71.28 
L 415.259826 -71.28 
L 413.679304 -71.28 
L 412.098783 -71.28 
L 410.518261 -71.28 
L 408.937739 -71.28 
L 407.357217 -71.28 
L 405.776696 -71.28 
L 404.196174 -71.28 
L 402.615652 -71.28 
L 401.03513 -71.28 
L 399.454609 -71.28 
L 397.874087 -71.28 
L 396.293565 -71.28 
L 394.713043 -71.28 
L 393.132522 -71.28 
L 391.552 -71.28 
L 389.971478 -71.28 
L 388.390957 -71.28 
L 386.810435 -71.28 
L 385.229913 -71.28 
L 383.649391 -71.28 
L 382.06887 -71.28 
L 380.488348 -71.28 
L 378.907826 -71.28 
L 377.327304 -71.28 
L 375.746783 -71.28 
L 374.166261 -71.28 
L 372.585739 -71.28 
L 371.005217 -71.28 
L 369.424696 -71.28 
L 367.844174 -71.28 
L 366.263652 -71.28 
L 364.68313 -71.28 
L 363.102609 -71.28 
L 361.522087 -71.28 
L 359.941565 -71.28 
L 358.361043 -71.28 
L 356.780522 -71.28 
L 355.2 -71.28 
L 353.619478 -71.28 
L 352.038957 -71.28 
L 350.458435 -71.28 
L 348.877913 -71.28 
L 347.297391 -71.28 
L 345.71687 -71.28 
L 344.136348 -71.28 
L 342.555826 -71.28 
L 340.975304 -71.28 
L 339.394783 -71.28 
L 337.814261 -71.28 
L 336.233739 -71.28 
L 334.653217 -71.28 
L 333.072696 -71.28 
L 331.492174 -71.28 
L 329.911652 -71.28 
L 328.33113 -71.28 
L 326.750609 -71.28 
L 325.170087 -71.28 
L 323.589565 -71.28 
L 322.009043 -71.28 
L 320.428522 -71.28 
L 318.848 -71.28 
L 317.267478 -71.28 
L 315.686957 -71.28 
L 314.106435 -71.28 
L 312.525913 -71.28 
L 310.945391 -71.28 
L 309.36487 -71.28 
L 307.784348 -71.28 
L 306.203826 -71.28 
L 304.623304 -71.28 
L 303.042783 -71.28 
L 301.462261 -71.28 
L 299.881739 -71.28 
L 298.301217 -71.28 
L 296.720696 -71.28 
L 295.140174 -71.28 
L 293.559652 -71.28 
L 291.97913 -71.28 
L 290.398609 -71.28 
L 288.818087 -71.28 
L 287.237565 -71.28 
L 285.657043 -71.28 
L 284.076522 -71.28 
L 282.496 -71.28 
L 280.915478 -71.28 
L 279.334957 -71.28 
L 277.754435 -71.28 
L 276.173913 -71.28 
L 274.593391 -71.28 
L 273.01287 -71.28 
L 271.432348 -71.28 
L 269.851826 -71.28 
L 268.271304 -71.28 
L 266.690783 -71.28 
L 265.110261 -71.28 
L 263.529739 -71.28 
L 261.949217 -71.28 
L 260.368696 -71.28 
L 258.788174 -71.28 
L 257.207652 -71.28 
L 255.62713 -71.28 
L 254.046609 -71.28 
L 252.466087 -71.28 
L 250.885565 -71.28 
L 249.305043 -71.28 
L 247.724522 -71.28 
L 246.144 -71.28 
L 244.563478 -71.28 
L 242.982957 -71.28 
L 241.402435 -71.28 
L 239.821913 -71.28 
L 238.241391 -71.28 
L 236.66087 -71.28 
L 235.080348 -71.28 
L 233.499826 -71.28 
L 231.919304 -71.28 
L 230.338783 -71.28 
L 228.758261 -71.28 
L 227.177739 -71.28 
L 225.597217 -71.28 
L 224.016696 -71.28 
L 222.436174 -71.28 
L 220.855652 -71.28 
L 219.27513 -71.28 
L 217.694609 -71.28 
L 216.114087 -71.28 
L 214.533565 -71.28 
L 212.953043 -71.28 
L 211.372522 -71.28 
L 209.792 -71.28 
L 208.211478 -71.28 
L 206.630957 -71.28 
L 205.050435 -71.28 
L 203.469913 -71.28 
L 201.889391 -71.28 
L 200.30887 -71.28 
L 198.728348 -71.28 
L 197.147826 -71.28 
L 195.567304 -71.28 
L 193.986783 -71.28 
L 192.406261 -71.28 
L 190.825739 -71.28 
L 189.245217 -71.28 
L 187.664696 -71.28 
L 186.084174 -71.28 
L 184.503652 -71.28 
L 182.92313 -71.28 
L 181.342609 -71.28 
L 179.762087 -71.28 
L 178.181565 -71.28 
L 176.601043 -71.28 
L 175.020522 -71.28 
L 173.44 -71.28 
L 171.859478 -71.28 
L 170.278957 -71.28 
L 168.698435 -71.28 
L 167.117913 -71.28 
L 165.537391 -71.28 
L 163.95687 -71.28 
L 162.376348 -71.28 
L 160.795826 -71.28 
L 159.215304 -71.28 
L 157.634783 -71.28 
L 156.054261 -71.28 
L 154.473739 -71.28 
L 152.893217 -71.28 
L 151.312696 -71.28 
L 149.732174 -71.28 
L 148.151652 -71.28 
L 146.57113 -71.28 
L 144.990609 -71.28 
L 143.410087 -71.28 
L 141.829565 -71.28 
L 140.249043 -71.28 
L 138.668522 -71.28 
L 137.088 -71.28 
L 135.507478 -71.28 
L 133.926957 -71.28 
L 132.346435 -71.28 
L 130.765913 -71.28 
L 129.185391 -71.28 
L 127.60487 -71.28 
L 126.024348 -71.28 
L 124.443826 -71.28 
L 122.863304 -71.28 
L 121.282783 -71.28 
L 119.702261 -71.28 
L 118.121739 -71.28 
L 116.541217 -71.28 
L 114.960696 -71.28 
L 113.380174 -71.28 
L 111.799652 -71.28 
L 110.21913 -71.28 
L 108.638609 -71.28 
L 107.058087 -71.28 
L 105.477565 -71.28 
L 103.897043 -71.28 
L 102.316522 -71.28 
L 100.736 -71.28 
L 99.155478 -71.28 
L 97.574957 -71.28 
L 95.994435 -71.28 
L 94.413913 -71.28 
L 92.833391 -71.28 
L 91.25287 -71.28 
L 89.672348 -71.28 
L 88.091826 -71.28 
L 86.511304 -71.28 
L 84.930783 -71.28 
L 83.350261 -71.28 
L 81.769739 -71.28 
L 80.189217 -71.28 
L 78.608696 -71.28 
L 77.028174 -71.28 
L 75.447652 -71.28 
L 73.86713 -71.28 
L 72.286609 -71.28 
L 70.706087 -71.28 
L 69.125565 -71.28 
L 67.545043 -71.28 
L 65.964522 -71.28 
L 64.384 -71.28 
z
" style="stroke: #8b5cf6; stroke-opacity: 0.12"/>
    </defs>
    <g clip-path="url(#p48e14cfb1f)">
     <use xlink:href="#m4cf04aa27f" x="0" y="396" style="fill: #8b5cf6; fill-opacity: 0.12; stroke: #8b5cf6; stroke-opacity: 0.12"/>
    </g>
   </g>
   <g id="text_18">
    <!-- 265 -->
    <g style="fill: #8b5cf6" transform="translate(539.96 67.624632) scale(0.12 -0.12)">
     <defs>
      <path id="JetBrainsMono-Bold-32" d="M 474 0 
L 474 723 
L 2157 2445 
Q 2566 2874 2566 3315 
Q 2566 3629 2384 3824 
Q 2202 4019 1894 4019 
Q 1581 4019 1392 3817 
Q 1203 3616 1203 3283 
L 403 3283 
Q 403 3718 595 4044 
Q 787 4371 1126 4553 
Q 1466 4736 1914 4736 
Q 2355 4736 2688 4563 
Q 3021 4390 3203 4080 
Q 3386 3770 3386 3354 
Q 3386 2995 3216 2636 
Q 3046 2278 2656 1894 
L 1478 723 
L 3443 723 
L 3443 0 
L 474 0 
z
" transform="scale(0.015625)"/>
      <path id="JetBrainsMono-Bold-36" d="M 1920 -64 
Q 1440 -64 1085 128 
Q 730 320 534 669 
Q 339 1018 339 1485 
Q 339 1760 457 2115 
Q 576 2470 781 2835 
L 1792 4672 
L 2701 4672 
L 1498 2611 
L 1523 2598 
Q 1619 2733 1804 2809 
Q 1990 2886 2208 2886 
Q 2598 2886 2889 2710 
Q 3181 2534 3341 2214 
Q 3501 1894 3501 1459 
Q 3501 998 3305 656 
Q 3110 314 2755 125 
Q 2400 -64 1920 -64 
z
M 1920 614 
Q 2278 614 2496 841 
Q 2714 1069 2714 1446 
Q 2714 1830 2496 2057 
Q 2278 2285 1920 2285 
Q 1562 2285 1344 2057 
Q 1126 1830 1126 1446 
Q 1126 1069 1344 841 
Q 1562 614 1920 614 
z
" transform="scale(0.015625)"/>
      <path id="JetBrainsMono-Bold-35" d="M 1894 -64 
Q 1210 -64 803 297 
Q 397 659 397 1280 
L 1197 1280 
Q 1197 986 1385 810 
Q 1574 634 1901 634 
Q 2227 634 2409 810 
Q 2592 986 2592 1299 
L 2592 1606 
Q 2592 1920 2413 2096 
Q 2234 2272 1907 2272 
L 557 2272 
L 557 4672 
L 3219 4672 
L 3219 3949 
L 1312 3949 
L 1318 2976 
L 1946 2976 
Q 2637 2976 3014 2617 
Q 3392 2259 3392 1606 
L 3392 1299 
Q 3392 666 2992 301 
Q 2592 -64 1894 -64 
z
" transform="scale(0.015625)"/>
     </defs>
     <use xlink:href="#JetBrainsMono-Bold-32"/>
     <use xlink:href="#JetBrainsMono-Bold-36" transform="translate(59.999985 0)"/>
     <use xlink:href="#JetBrainsMono-Bold-35" transform="translate(119.999969 0)"/>
    </g>
   </g>
   <g id="text_19">
    <!-- Rating History -->
    <g style="fill: #8b5cf6" transform="translate(55.296 50.44) scale(0.17 -0.17)">
     <defs>
      <path id="JetBrainsMono-Bold-52" d="M 493 0 
L 493 4672 
L 1965 4672 
Q 2432 4672 2774 4499 
Q 3117 4326 3309 4016 
Q 3501 3706 3501 3283 
Q 3501 2816 3270 2467 
Q 3040 2118 2650 1971 
L 3565 0 
L 2688 0 
L 1869 1856 
L 1286 1856 
L 1286 0 
L 493 0 
z
M 1286 2560 
L 1965 2560 
Q 2304 2560 2496 2745 
Q 2688 2931 2688 3258 
Q 2688 3584 2493 3776 
Q 2298 3968 1965 3968 
L 1286 3968 
L 1286 2560 
z
" transform="scale(0.015625)"/>
      <path id="JetBrainsMono-Bold-61" d="M 1530 -64 
Q 992 -64 681 240 
Q 371 544 371 1037 
Q 371 1549 723 1853 
Q 1075 2157 1690 2157 
L 2547 2157 
L 2547 2406 
Q 2547 2938 1926 2938 
Q 1645 2938 1478 2829 
Q 1312 2720 1293 2522 
L 525 2522 
Q 550 2995 924 3289 
Q 1299 3584 1933 3584 
Q 2605 3584 2976 3270 
Q 3347 2957 3347 2387 
L 3347 0 
L 2566 0 
L 2566 659 
Q 2522 320 2246 128 
Q 1971 -64 1530 -64 
z
M 1786 589 
Q 2138 589 2342 761 
Q 2547 934 2547 1222 
L 2547 1638 
L 1728 1638 
Q 1466 1638 1312 1491 
Q 1158 1344 1158 1114 
Q 1158 877 1321 733 
Q 1485 589 1786 589 
z
" transform="scale(0.015625)"/>
      <path id="JetBrainsMono-Bold-74" d="M 2272 0 
Q 1779 0 1488 285 
Q 1197 570 1197 1056 
L 1197 2797 
L 224 2797 
L 224 3520 
L 1197 3520 
L 1197 4512 
L 2003 4512 
L 2003 3520 
L 3405 3520 
L 3405 2797 
L 2003 2797 
L 2003 1075 
Q 2003 922 2089 822 
Q 2176 723 2330 723 
L 3373 723 
L 3373 0 
L 2272 0 
z
" transform="scale(0.015625)"/>
      <path id="JetBrainsMono-Bold-69" d="M 486 0 
L 486 723 
L 1690 723 
L 1690 2797 
L 614 2797 
L 614 3520 
L 2490 3520 
L 2490 723 
L 3571 723 
L 3571 0 
L 486 0 
z
M 2032 4109 
Q 1789 4109 1648 4233 
Q 1507 4358 1507 4570 
Q 1507 4781 1648 4905 
Q 1789 5030 2032 5030 
Q 2275 5030 2416 4905 
Q 2557 4781 2557 4570 
Q 2557 4358 2416 4233 
Q 2275 4109 2032 4109 
z
" transform="scale(0.015625)"/>
      <path id="JetBrainsMono-Bold-6e" d="M 493 0 
L 493 3520 
L 1274 3520 
L 1274 2861 
Q 1338 3194 1587 3389 
Q 1837 3584 2221 3584 
Q 2739 3584 3049 3238 
Q 3360 2893 3360 2310 
L 3360 0 
L 2560 0 
L 2560 2214 
Q 2560 2541 2390 2717 
Q 2221 2893 1933 2893 
Q 1632 2893 1462 2713 
Q 1293 2534 1293 2202 
L 1293 0 
L 493 0 
z
" transform="scale(0.015625)"/>
      <path id="JetBrainsMono-Bold-67" d="M 973 -1152 
L 973 -486 
L 1965 -486 
Q 2246 -486 2400 -336 
Q 2554 -186 2554 70 
L 2554 282 
L 2566 832 
Q 2458 538 2218 374 
Q 1978 211 1632 211 
Q 1094 211 777 572 
Q 461 934 461 1555 
L 461 2240 
Q 461 2854 777 3219 
Q 1094 3584 1632 3584 
Q 1978 3584 2218 3421 
Q 2458 3258 2566 2957 
L 2566 3520 
L 3347 3520 
L 3347 51 
Q 3347 -506 2979 -829 
Q 2611 -1152 1978 -1152 
L 973 -1152 
z
M 1901 896 
Q 2208 896 2377 1078 
Q 2547 1261 2547 1587 
L 2547 2202 
Q 2547 2528 2377 2710 
Q 2208 2893 1901 2893 
Q 1594 2893 1427 2717 
Q 1261 2541 1261 2227 
L 1261 1562 
Q 1261 1248 1427 1072 
Q 1594 896 1901 896 
z
" transform="scale(0.015625)"/>
      <path id="JetBrainsMono-Bold-20" transform="scale(0.015625)"/>
      <path id="JetBrainsMono-Bold-48" d="M 493 0 
L 493 4672 
L 1293 4672 
L 1293 2778 
L 2547 2778 
L 2547 4672 
L 3347 4672 
L 3347 0 
L 2547 0 
L 2547 2054 
L 1293 2054 
L 1293 0 
L 493 0 
z
" transform="scale(0.015625)"/>
      <path id="JetBrainsMono-Bold-73" d="M 1773 -58 
Q 1146 -58 781 227 
Q 416 512 416 998 
L 1203 998 
Q 1203 794 1353 685 
Q 1504 576 1773 576 
L 2054 576 
Q 2342 576 2499 685 
Q 2656 794 2656 998 
Q 2656 1190 2547 1283 
Q 2438 1376 2214 1408 
L 1338 1523 
Q 915 1581 688 1849 
Q 461 2118 461 2547 
Q 461 3046 793 3312 
Q 1126 3578 1754 3578 
L 2048 3578 
Q 2637 3578 2995 3309 
Q 3354 3040 3366 2592 
L 2573 2592 
Q 2566 2758 2425 2857 
Q 2285 2957 2048 2957 
L 1754 2957 
Q 1498 2957 1363 2851 
Q 1229 2746 1229 2566 
Q 1229 2406 1328 2329 
Q 1427 2253 1619 2234 
L 2445 2118 
Q 2931 2061 3177 1776 
Q 3424 1491 3424 1011 
Q 3424 499 3075 220 
Q 2726 -58 2054 -58 
L 1773 -58 
z
" transform="scale(0.015625)"/>
      <path id="JetBrainsMono-Bold-6f" d="M 1920 -58 
Q 1242 -58 845 323 
Q 448 704 448 1350 
L 448 2170 
Q 448 2822 845 3200 
Q 1242 3578 1920 3578 
Q 2598 3578 2995 3200 
Q 3392 2822 3392 2170 
L 3392 1350 
Q 3392 704 2995 323 
Q 2598 -58 1920 -58 
z
M 1920 640 
Q 2240 640 2416 816 
Q 2592 992 2592 1325 
L 2592 2195 
Q 2592 2528 2416 2704 
Q 2240 2880 1920 2880 
Q 1600 2880 1424 2704 
Q 1248 2528 1248 2195 
L 1248 1325 
Q 1248 992 1424 816 
Q 1600 640 1920 640 
z
" transform="scale(0.015625)"/>
      <path id="JetBrainsMono-Bold-72" d="M 621 0 
L 621 3520 
L 1402 3520 
L 1402 2835 
Q 1466 3181 1718 3382 
Q 1971 3584 2374 3584 
Q 2912 3584 3213 3238 
Q 3514 2893 3514 2272 
L 3514 1939 
L 2714 1939 
L 2714 2234 
Q 2714 2554 2547 2723 
Q 2381 2893 2074 2893 
Q 1754 2893 1587 2701 
Q 1421 2509 1421 2157 
L 1421 0 
L 621 0 
z
" transform="scale(0.015625)"/>
      <path id="JetBrainsMono-Bold-79" d="M 1056 -1152 
L 1555 192 
L 230 3520 
L 1075 3520 
L 1754 1722 
Q 1811 1562 1868 1373 
Q 1926 1184 1952 1024 
Q 1971 1184 2025 1373 
Q 2080 1562 2138 1722 
L 2765 3520 
L 3610 3520 
L 1894 -1152 
L 1056 -1152 
z
" transform="scale(0.015625)"/>
     </defs>
     <use xlink:href="#JetBrainsMono-Bold-52"/>
     <use xlink:href="#JetBrainsMono-Bold-61" transform="translate(59.999985 0)"/>
     <use xlink:href="#JetBrainsMono-Bold-74" transform="translate(119.999969 0)"/>
     <use xlink:href="#JetBrainsMono-Bold-69" transform="translate(179.999954 0)"/>
     <use xlink:href="#JetBrainsMono-Bold-6e" transform="translate(239.999939 0)"/>
     <use xlink:href="#JetBrainsMono-Bold-67" transform="translate(299.999924 0)"/>
     <use xlink:href="#JetBrainsMono-Bold-20" transform="translate(359.999908 0)"/>
     <use xlink:href="#JetBrainsMono-Bold-48" transform="translate(419.999893 0)"/>
     <use xlink:href="#JetBrainsMono-Bold-69" transform="translate(479.999878 0)"/>
     <use xlink:href="#JetBrainsMono-Bold-73" transform="translate(539.999863 0)"/>
     <use xlink:href="#JetBrainsMono-Bold-74" transform="translate(599.999847 0)"/>
     <use xlink:href="#JetBrainsMono-Bold-6f" transform="translate(659.999832 0)"/>
     <use xlink:href="#JetBrainsMono-Bold-72" transform="translate(719.999817 0)"/>
     <use xlink:href="#JetBrainsMono-Bold-79" transform="translate(779.999802 0)"/>
    </g>
   </g>
   <g id="line2d_33">
    <path d="M 64.384 306.307292 
L 65.964522 303.893056 
L 67.545043 302.137249 
L 69.125565 300.977161 
L 70.706087 300.350087 
L 72.286609 300.193318 
L 73.86713 300.444148 
L 75.447652 301.039869 
L 77.028174 301.917773 
L 78.608696 303.015152 
L 81.769739 305.617511 
L 84.930783 308.345283 
L 86.511304 309.599432 
L 88.091826 310.696812 
L 89.672348 311.574716 
L 91.25287 312.170436 
L 92.833391 312.421266 
L 94.413913 312.264497 
L 95.994435 311.637423 
L 97.574957 310.477336 
L 99.155478 308.721528 
L 100.736 306.307292 
L 102.316522 303.203151 
L 103.897043 299.502548 
L 105.477565 295.330156 
L 108.638609 286.0687 
L 113.380174 271.754932 
L 114.960696 267.369947 
L 116.541217 263.385886 
L 118.121739 259.927424 
L 119.702261 257.114815 
L 121.282783 254.966741 
L 122.863304 253.400304 
L 124.443826 252.328188 
L 126.024348 251.663081 
L 127.60487 251.317668 
L 129.185391 251.204634 
L 135.507478 251.330015 
L 137.088 251.069169 
L 138.668522 250.537322 
L 140.249043 249.749691 
L 141.829565 248.741993 
L 143.410087 247.549948 
L 146.57113 244.755698 
L 156.054261 235.662459 
L 159.215304 233.22451 
L 162.376348 231.143839 
L 165.537391 229.324606 
L 170.278957 226.876308 
L 176.601043 223.606578 
L 179.762087 221.59671 
L 181.342609 220.391415 
L 182.92313 219.0107 
L 184.503652 217.423181 
L 186.084174 215.597475 
L 187.664696 213.502198 
L 189.245217 211.105964 
L 190.825739 208.377391 
L 192.406261 205.287402 
L 195.567304 198.172304 
L 205.050435 175.026207 
L 206.630957 171.739651 
L 208.211478 168.828018 
L 209.792 166.370713 
L 211.372522 164.422519 
L 212.953043 162.939745 
L 214.533565 161.854077 
L 216.114087 161.097203 
L 217.694609 160.60081 
L 219.27513 160.296585 
L 225.597217 159.635112 
L 227.177739 159.267038 
L 228.758261 158.683387 
L 230.338783 157.867025 
L 231.919304 156.849856 
L 235.080348 154.349255 
L 238.241391 151.453896 
L 242.982957 146.966362 
L 246.144 144.275463 
L 249.305043 142.065161 
L 252.466087 140.219119 
L 260.368696 135.924074 
L 263.529739 133.824652 
L 266.690783 131.240747 
L 269.851826 128.216655 
L 274.593391 123.193159 
L 280.915478 116.400704 
L 284.076522 113.306106 
L 295.140174 103.046643 
L 298.301217 99.483066 
L 299.881739 97.47424 
L 303.042783 92.922027 
L 307.784348 85.298025 
L 310.945391 80.253362 
L 314.106435 75.695088 
L 315.686957 73.720486 
L 317.267478 72.014049 
L 318.848 70.624632 
L 320.428522 69.586225 
L 322.009043 68.873353 
L 323.589565 68.445678 
L 325.170087 68.262857 
L 326.750609 68.284552 
L 328.33113 68.470422 
L 331.492174 69.173325 
L 336.233739 70.450489 
L 339.394783 71.008607 
L 342.555826 71.2405 
L 345.71687 71.231576 
L 350.458435 70.955818 
L 356.780522 70.550078 
L 361.522087 70.455064 
L 369.424696 70.551761 
L 380.488348 70.670302 
L 497.446957 70.624638 
L 536.96 70.624632 
L 536.96 70.624632 
" clip-path="url(#p48e14cfb1f)" style="fill: none; stroke: #8b5cf6; stroke-width: 1.2; stroke-linecap: round"/>
   </g>
   <g id="PathCollection_1">
    <defs>
     <path id="m7feb60a802" d="M 0 2.236068 
C 0.593012 2.236068 1.161816 2.000462 1.581139 1.581139 
C 2.000462 1.161816 2.236068 0.593012 2.236068 0 
C 2.236068 -0.593012 2.000462 -1.161816 1.581139 -1.581139 
C 1.161816 -2.000462 0.593012 -2.236068 0 -2.236068 
C -0.593012 -2.236068 -1.161816 -2.000462 -1.581139 -1.581139 
C -2.000462 -1.161816 -2.236068 -0.593012 -2.236068 0 
C -2.236068 0.593012 -2.000462 1.161816 -1.581139 1.581139 
C -1.161816 2.000462 -0.593012 2.236068 0 2.236068 
z
" style="stroke: #ffffff; stroke-width: 0.8"/>
    </defs>
    <g clip-path="url(#p48e14cfb1f)">
     <use xlink:href="#m7feb60a802" x="536.96" y="70.624632" style="fill: #8b5cf6; stroke: #ffffff; stroke-width: 0.8"/>
    </g>
   </g>
  </g>
  <g id="axes_2">
   <g id="text_20">
    <!-- Rating -->
    <g style="fill: #9b8bb8" transform="translate(565.7472 48.312) scale(0.11 -0.11)">
     <use xlink:href="#JetBrainsMono-Regular-52"/>
     <use xlink:href="#JetBrainsMono-Regular-61" transform="translate(59.999985 0)"/>
     <use xlink:href="#JetBrainsMono-Regular-74" transform="translate(119.999969 0)"/>
     <use xlink:href="#JetBrainsMono-Regular-69" transform="translate(179.999954 0)"/>
     <use xlink:href="#JetBrainsMono-Regular-6e" transform="translate(239.999939 0)"/>
     <use xlink:href="#JetBrainsMono-Regular-67" transform="translate(299.999924 0)"/>
    </g>
   </g>
   <g id="text_21">
    <!-- 265 -->
    <g style="fill: #8b5cf6" transform="translate(565.7472 81.548) scale(0.26 -0.26)">
     <use xlink:href="#JetBrainsMono-Bold-32"/>
     <use xlink:href="#JetBrainsMono-Bold-36" transform="translate(59.999985 0)"/>
     <use xlink:href="#JetBrainsMono-Bold-35" transform="translate(119.999969 0)"/>
    </g>
   </g>
   <g id="text_22">
    <!-- Rank -->
    <g style="fill: #9b8bb8" transform="translate(565.7472 119.592) scale(0.11 -0.11)">
     <defs>
      <path id="JetBrainsMono-Regular-6b" d="M 621 0 
L 621 4672 
L 1197 4672 
L 1197 2067 
L 1869 2067 
L 2854 3520 
L 3514 3520 
L 2381 1843 
L 3578 0 
L 2906 0 
L 1882 1568 
L 1197 1568 
L 1197 0 
L 621 0 
z
" transform="scale(0.015625)"/>
     </defs>
     <use xlink:href="#JetBrainsMono-Regular-52"/>
     <use xlink:href="#JetBrainsMono-Regular-61" transform="translate(59.999985 0)"/>
     <use xlink:href="#JetBrainsMono-Regular-6e" transform="translate(119.999969 0)"/>
     <use xlink:href="#JetBrainsMono-Regular-6b" transform="translate(179.999954 0)"/>
    </g>
   </g>
   <g id="text_23">
    <!-- #118,027 -->
    <g style="fill: #8b5cf6" transform="translate(565.7472 148.104) scale(0.14 -0.14)">
     <defs>
      <path id="JetBrainsMono-Bold-23" d="M 493 0 
L 710 1216 
L 224 1216 
L 224 1760 
L 800 1760 
L 998 2912 
L 448 2912 
L 448 3456 
L 1094 3456 
L 1312 4672 
L 1875 4672 
L 1658 3456 
L 2566 3456 
L 2784 4672 
L 3347 4672 
L 3130 3456 
L 3616 3456 
L 3616 2912 
L 3034 2912 
L 2835 1760 
L 3392 1760 
L 3392 1216 
L 2739 1216 
L 2528 0 
L 1965 0 
L 2182 1216 
L 1267 1216 
L 1056 0 
L 493 0 
z
M 1363 1760 
L 2272 1760 
L 2470 2912 
L 1562 2912 
L 1363 1760 
z
" transform="scale(0.015625)"/>
      <path id="JetBrainsMono-Bold-31" d="M 538 0 
L 538 723 
L 1754 723 
L 1754 3898 
L 531 3002 
L 531 3898 
L 1606 4672 
L 2554 4672 
L 2554 723 
L 3533 723 
L 3533 0 
L 538 0 
z
" transform="scale(0.015625)"/>
      <path id="JetBrainsMono-Bold-38" d="M 1920 -64 
Q 1453 -64 1094 112 
Q 736 288 537 598 
Q 339 909 339 1318 
Q 339 1747 585 2067 
Q 832 2387 1229 2470 
L 1229 2483 
Q 890 2554 682 2829 
Q 474 3104 474 3482 
Q 474 3853 656 4134 
Q 838 4416 1164 4576 
Q 1491 4736 1920 4736 
Q 2349 4736 2678 4576 
Q 3008 4416 3190 4134 
Q 3373 3853 3373 3482 
Q 3373 3104 3161 2829 
Q 2950 2554 2611 2483 
L 2611 2470 
Q 3008 2387 3254 2067 
Q 3501 1747 3501 1318 
Q 3501 909 3302 598 
Q 3104 288 2745 112 
Q 2387 -64 1920 -64 
z
M 1920 2758 
Q 2221 2758 2406 2940 
Q 2592 3123 2592 3411 
Q 2592 3706 2406 3888 
Q 2221 4070 1920 4070 
Q 1619 4070 1433 3888 
Q 1248 3706 1248 3411 
Q 1248 3123 1433 2940 
Q 1619 2758 1920 2758 
z
M 1920 614 
Q 2272 614 2496 819 
Q 2720 1024 2720 1357 
Q 2720 1696 2496 1904 
Q 2272 2112 1920 2112 
Q 1568 2112 1344 1904 
Q 1120 1696 1120 1357 
Q 1120 1024 1344 819 
Q 1568 614 1920 614 
z
" transform="scale(0.015625)"/>
      <path id="JetBrainsMono-Bold-2c" d="M 1216 -1024 
L 1555 934 
L 2470 934 
L 1984 -1024 
L 1216 -1024 
z
" transform="scale(0.015625)"/>
      <path id="JetBrainsMono-Bold-30" d="M 1920 -64 
Q 1466 -64 1133 109 
Q 800 282 617 595 
Q 435 909 435 1331 
L 435 3341 
Q 435 3763 617 4076 
Q 800 4390 1133 4563 
Q 1466 4736 1920 4736 
Q 2374 4736 2707 4563 
Q 3040 4390 3222 4076 
Q 3405 3763 3405 3341 
L 3405 1331 
Q 3405 909 3222 595 
Q 3040 282 2707 109 
Q 2374 -64 1920 -64 
z
M 1920 627 
Q 2253 627 2451 819 
Q 2650 1011 2650 1331 
L 2650 3341 
Q 2650 3661 2454 3853 
Q 2259 4045 1920 4045 
Q 1581 4045 1385 3853 
Q 1190 3661 1190 3341 
L 1190 1331 
Q 1190 1011 1388 819 
Q 1587 627 1920 627 
z
M 1920 1952 
Q 1728 1952 1613 2057 
Q 1498 2163 1498 2355 
Q 1498 2547 1613 2646 
Q 1728 2746 1920 2746 
Q 2112 2746 2227 2646 
Q 2342 2547 2342 2355 
Q 2342 2163 2227 2057 
Q 2112 1952 1920 1952 
z
" transform="scale(0.015625)"/>
      <path id="JetBrainsMono-Bold-37" d="M 1011 0 
L 2720 3968 
L 1229 3968 
L 1229 3206 
L 429 3206 
L 429 4672 
L 3584 4672 
L 3584 3968 
L 1888 0 
L 1011 0 
z
" transform="scale(0.015625)"/>
     </defs>
     <use xlink:href="#JetBrainsMono-Bold-23"/>
     <use xlink:href="#JetBrainsMono-Bold-31" transform="translate(59.999985 0)"/>
     <use xlink:href="#JetBrainsMono-Bold-31" transform="translate(119.999969 0)"/>
     <use xlink:href="#JetBrainsMono-Bold-38" transform="translate(179.999954 0)"/>
     <use xlink:href="#JetBrainsMono-Bold-2c" transform="translate(239.999939 0)"/>
     <use xlink:href="#JetBrainsMono-Bold-30" transform="translate(299.999924 0)"/>
     <use xlink:href="#JetBrainsMono-Bold-32" transform="translate(359.999908 0)"/>
     <use xlink:href="#JetBrainsMono-Bold-37" transform="translate(419.999893 0)"/>
    </g>
   </g>
   <g id="text_24">
    <!-- ─ 0 -->
    <g style="fill: #9b8bb8" transform="translate(565.7472 169.488) scale(0.11 -0.11)">
     <defs>
      <path id="JetBrainsMono-Bold-2500" d="M -128 2048 
L -128 2688 
L 3968 2688 
L 3968 2048 
L -128 2048 
z
" transform="scale(0.015625)"/>
     </defs>
     <use xlink:href="#JetBrainsMono-Bold-2500"/>
     <use xlink:href="#JetBrainsMono-Bold-20" transform="translate(59.999985 0)"/>
     <use xlink:href="#JetBrainsMono-Bold-30" transform="translate(119.999969 0)"/>
    </g>
   </g>
  </g>
 </g>
 <defs>
  <clipPath id="p48e14cfb1f">
   <rect x="55.296" y="55.44" width="490.752" height="269.28"/>
  </clipPath>
 </defs>
</svg>
