<?xml version="1.0" encoding="utf-8" standalone="no"?>
<!DOCTYPE svg PUBLIC "-//W3C//DTD SVG 1.1//EN"
  "http://www.w3.org/Graphics/SVG/1.1/DTD/svg11.dtd">
<svg xmlns:xlink="http://www.w3.org/1999/xlink" width="691.2pt" height="396pt" viewBox="0 0 691.2 396" xmlns="http://www.w3.org/2000/svg" version="1.1">
 <metadata>
  <rdf:RDF xmlns:dc="http://purl.org/dc/elements/1.1/" xmlns:cc="http://creativecommons.org/ns#" xmlns:rdf="http://www.w3.org/1999/02/22-rdf-syntax-ns#">
   <cc:Work>
    <dc:type rdf:resource="http://purl.org/dc/dcmitype/StillImage"/>
    <dc:date>2026-04-04T21:33:37.050706</dc:date>
    <dc:format>image/svg+xml</dc:format>
    <dc:creator>
     <cc:Agent>
      <dc:title>Matplotlib v3.10.8, https://matplotlib.org/</dc:title>
     </cc:Agent>
    </dc:creator>
   </cc:Work>
  </rdf:RDF>
 </metadata>
 <defs>
  <style type="text/css">*{stroke-linejoin: round; stroke-linecap: butt}</style>
 </defs>
 <g id="figure_1">
  <g id="patch_1">
   <path d="M 0 396 
L 691.2 396 
L 691.2 0 
L 0 0 
L 0 396 
z
" style="fill: none"/>
  </g>
  <g id="axes_1">
   <g id="patch_2">
    <path d="M 55.296 324.72 
L 546.048 324.72 
L 546.048 55.44 
L 55.296 55.44 
L 55.296 324.72 
z
" style="fill: none"/>
   </g>
   <g id="matplotlib.axis_1">
    <g id="xtick_1">
     <g id="line2d_1">
      <path d="M 55.296 324.72 
L 55.296 55.44 
" clip-path="url(#p0bb278cee0)" style="fill: none; stroke-dasharray: 2.22,0.96; stroke-dashoffset: 0; stroke: #e2d5f5; stroke-opacity: 0.7; stroke-width: 0.6"/>
     </g>
     <g id="line2d_2">
      <defs>
       <path id="m139ab56fde" d="M 0 0 
L 0 3.5 
" style="stroke: #9b8bb8; stroke-width: 0.8"/>
      </defs>
      <g>
       <use xlink:href="#m139ab56fde" x="55.296" y="324.72" style="fill: #9b8bb8; stroke: #9b8bb8; stroke-width: 0.8"/>
      </g>
     </g>
     <g id="text_1">
      <!-- 03/29 -->
      <g style="fill: #9b8bb8" transform="translate(43.64836 353.375578) rotate(-30) scale(0.1 -0.1)">
       <defs>
        <path id="Menlo-Regular-30" d="M 1925 4734 
Q 2672 4734 3055 4125 
Q 3438 3516 3438 2322 
Q 3438 1128 3055 518 
Q 2672 -91 1925 -91 
Q 1178 -91 797 518 
Q 416 1128 416 2322 
Q 416 3516 797 4125 
Q 1178 4734 1925 4734 
z
M 1925 409 
Q 2369 409 2586 881 
Q 2803 1353 2803 2322 
Q 2803 2838 2741 3253 
L 1253 925 
Q 1488 409 1925 409 
z
M 1925 4234 
Q 1484 4234 1267 3762 
Q 1050 3291 1050 2322 
Q 1050 1881 1109 1497 
L 2566 3819 
Q 2328 4234 1925 4234 
z
" transform="scale(0.015625)"/>
        <path id="Menlo-Regular-33" d="M 2425 2497 
Q 2884 2375 3128 2064 
Q 3372 1753 3372 1288 
Q 3372 644 2939 276 
Q 2506 -91 1741 -91 
Q 1419 -91 1084 -31 
Q 750 28 428 141 
L 428 769 
Q 747 603 1056 522 
Q 1366 441 1672 441 
Q 2191 441 2469 675 
Q 2747 909 2747 1350 
Q 2747 1756 2469 1995 
Q 2191 2234 1716 2234 
L 1234 2234 
L 1234 2753 
L 1716 2753 
Q 2150 2753 2394 2943 
Q 2638 3134 2638 3475 
Q 2638 3834 2411 4026 
Q 2184 4219 1766 4219 
Q 1488 4219 1191 4156 
Q 894 4094 569 3969 
L 569 4550 
Q 947 4650 1242 4700 
Q 1538 4750 1766 4750 
Q 2447 4750 2855 4408 
Q 3263 4066 3263 3500 
Q 3263 3116 3048 2859 
Q 2834 2603 2425 2497 
z
" transform="scale(0.015625)"/>
        <path id="Menlo-Regular-2f" d="M 2778 4666 
L 3372 4666 
L 916 -594 
L 319 -594 
L 2778 4666 
z
" transform="scale(0.015625)"/>
        <path id="Menlo-Regular-32" d="M 1166 531 
L 3309 531 
L 3309 0 
L 475 0 
L 475 531 
Q 1059 1147 1496 1619 
Q 1934 2091 2100 2284 
Q 2413 2666 2522 2902 
Q 2631 3138 2631 3384 
Q 2631 3775 2401 3997 
Q 2172 4219 1772 4219 
Q 1488 4219 1175 4116 
Q 863 4013 513 3803 
L 513 4441 
Q 834 4594 1145 4672 
Q 1456 4750 1759 4750 
Q 2444 4750 2861 4386 
Q 3278 4022 3278 3431 
Q 3278 3131 3139 2831 
Q 3000 2531 2688 2169 
Q 2513 1966 2180 1606 
Q 1847 1247 1166 531 
z
" transform="scale(0.015625)"/>
        <path id="Menlo-Regular-39" d="M 1863 2069 
Q 2266 2069 2495 2359 
Q 2725 2650 2725 3163 
Q 2725 3675 2495 3965 
Q 2266 4256 1863 4256 
Q 1444 4256 1231 3979 
Q 1019 3703 1019 3163 
Q 1019 2619 1230 2344 
Q 1441 2069 1863 2069 
z
M 738 97 
L 738 678 
Q 934 563 1156 502 
Q 1378 441 1619 441 
Q 2219 441 2526 892 
Q 2834 1344 2834 2222 
Q 2688 1909 2422 1742 
Q 2156 1575 1813 1575 
Q 1138 1575 767 1990 
Q 397 2406 397 3169 
Q 397 3922 776 4336 
Q 1156 4750 1850 4750 
Q 2663 4750 3041 4165 
Q 3419 3581 3419 2328 
Q 3419 1150 2964 529 
Q 2509 -91 1644 -91 
Q 1416 -91 1184 -42 
Q 953 6 738 97 
z
" transform="scale(0.015625)"/>
       </defs>
       <use xlink:href="#Menlo-Regular-30"/>
       <use xlink:href="#Menlo-Regular-33" transform="translate(60.205078 0)"/>
       <use xlink:href="#Menlo-Regular-2f" transform="translate(120.410156 0)"/>
       <use xlink:href="#Menlo-Regular-32" transform="translate(180.615234 0)"/>
       <use xlink:href="#Menlo-Regular-39" transform="translate(240.820312 0)"/>
      </g>
     </g>
    </g>
    <g id="xtick_2">
     <g id="line2d_3">
      <path d="M 130.796308 324.72 
L 130.796308 55.44 
" clip-path="url(#p0bb278cee0)" style="fill: none; stroke-dasharray: 2.22,0.96; stroke-dashoffset: 0; stroke: #e2d5f5; stroke-opacity: 0.7; stroke-width: 0.6"/>
     </g>
     <g id="line2d_4">
      <g>
       <use xlink:href="#m139ab56fde" x="130.796308" y="324.72" style="fill: #9b8bb8; stroke: #9b8bb8; stroke-width: 0.8"/>
      </g>
     </g>
     <g id="text_2">
      <!-- 03/30 -->
      <g style="fill: #9b8bb8" transform="translate(119.148668 353.375578) rotate(-30) scale(0.1 -0.1)">
       <use xlink:href="#Menlo-Regular-30"/>
       <use xlink:href="#Menlo-Regular-33" transform="translate(60.205078 0)"/>
       <use xlink:href="#Menlo-Regular-2f" transform="translate(120.410156 0)"/>
       <use xlink:href="#Menlo-Regular-33" transform="translate(180.615234 0)"/>
       <use xlink:href="#Menlo-Regular-30" transform="translate(240.820312 0)"/>
      </g>
     </g>
    </g>
    <g id="xtick_3">
     <g id="line2d_5">
      <path d="M 206.296615 324.72 
L 206.296615 55.44 
" clip-path="url(#p0bb278cee0)" style="fill: none; stroke-dasharray: 2.22,0.96; stroke-dashoffset: 0; stroke: #e2d5f5; stroke-opacity: 0.7; stroke-width: 0.6"/>
     </g>
     <g id="line2d_6">
      <g>
       <use xlink:href="#m139ab56fde" x="206.296615" y="324.72" style="fill: #9b8bb8; stroke: #9b8bb8; stroke-width: 0.8"/>
      </g>
     </g>
     <g id="text_3">
      <!-- 03/31 -->
      <g style="fill: #9b8bb8" transform="translate(194.648975 353.375578) rotate(-30) scale(0.1 -0.1)">
       <defs>
        <path id="Menlo-Regular-31" d="M 844 528 
L 1825 528 
L 1825 4053 
L 650 3488 
L 650 4094 
L 1819 4650 
L 2450 4650 
L 2450 528 
L 3419 528 
L 3419 0 
L 844 0 
L 844 528 
z
" transform="scale(0.015625)"/>
       </defs>
       <use xlink:href="#Menlo-Regular-30"/>
       <use xlink:href="#Menlo-Regular-33" transform="translate(60.205078 0)"/>
       <use xlink:href="#Menlo-Regular-2f" transform="translate(120.410156 0)"/>
       <use xlink:href="#Menlo-Regular-33" transform="translate(180.615234 0)"/>
       <use xlink:href="#Menlo-Regular-31" transform="translate(240.820312 0)"/>
      </g>
     </g>
    </g>
    <g id="xtick_4">
     <g id="line2d_7">
      <path d="M 281.796923 324.72 
L 281.796923 55.44 
" clip-path="url(#p0bb278cee0)" style="fill: none; stroke-dasharray: 2.22,0.96; stroke-dashoffset: 0; stroke: #e2d5f5; stroke-opacity: 0.7; stroke-width: 0.6"/>
     </g>
     <g id="line2d_8">
      <g>
       <use xlink:href="#m139ab56fde" x="281.796923" y="324.72" style="fill: #9b8bb8; stroke: #9b8bb8; stroke-width: 0.8"/>
      </g>
     </g>
     <g id="text_4">
      <!-- 04/01 -->
      <g style="fill: #9b8bb8" transform="translate(270.149283 353.375578) rotate(-30) scale(0.1 -0.1)">
       <defs>
        <path id="Menlo-Regular-34" d="M 2297 4091 
L 825 1625 
L 2297 1625 
L 2297 4091 
z
M 2194 4666 
L 2925 4666 
L 2925 1625 
L 3547 1625 
L 3547 1113 
L 2925 1113 
L 2925 0 
L 2297 0 
L 2297 1113 
L 319 1113 
L 319 1709 
L 2194 4666 
z
" transform="scale(0.015625)"/>
       </defs>
       <use xlink:href="#Menlo-Regular-30"/>
       <use xlink:href="#Menlo-Regular-34" transform="translate(60.205078 0)"/>
       <use xlink:href="#Menlo-Regular-2f" transform="translate(120.410156 0)"/>
       <use xlink:href="#Menlo-Regular-30" transform="translate(180.615234 0)"/>
       <use xlink:href="#Menlo-Regular-31" transform="translate(240.820312 0)"/>
      </g>
     </g>
    </g>
    <g id="xtick_5">
     <g id="line2d_9">
      <path d="M 357.297231 324.72 
L 357.297231 55.44 
" clip-path="url(#p0bb278cee0)" style="fill: none; stroke-dasharray: 2.22,0.96; stroke-dashoffset: 0; stroke: #e2d5f5; stroke-opacity: 0.7; stroke-width: 0.6"/>
     </g>
     <g id="line2d_10">
      <g>
       <use xlink:href="#m139ab56fde" x="357.297231" y="324.72" style="fill: #9b8bb8; stroke: #9b8bb8; stroke-width: 0.8"/>
      </g>
     </g>
     <g id="text_5">
      <!-- 04/02 -->
      <g style="fill: #9b8bb8" transform="translate(345.649591 353.375578) rotate(-30) scale(0.1 -0.1)">
       <use xlink:href="#Menlo-Regular-30"/>
       <use xlink:href="#Menlo-Regular-34" transform="translate(60.205078 0)"/>
       <use xlink:href="#Menlo-Regular-2f" transform="translate(120.410156 0)"/>
       <use xlink:href="#Menlo-Regular-30" transform="translate(180.615234 0)"/>
       <use xlink:href="#Menlo-Regular-32" transform="translate(240.820312 0)"/>
      </g>
     </g>
    </g>
    <g id="xtick_6">
     <g id="line2d_11">
      <path d="M 432.797538 324.72 
L 432.797538 55.44 
" clip-path="url(#p0bb278cee0)" style="fill: none; stroke-dasharray: 2.22,0.96; stroke-dashoffset: 0; stroke: #e2d5f5; stroke-opacity: 0.7; stroke-width: 0.6"/>
     </g>
     <g id="line2d_12">
      <g>
       <use xlink:href="#m139ab56fde" x="432.797538" y="324.72" style="fill: #9b8bb8; stroke: #9b8bb8; stroke-width: 0.8"/>
      </g>
     </g>
     <g id="text_6">
      <!-- 04/03 -->
      <g style="fill: #9b8bb8" transform="translate(421.149898 353.375578) rotate(-30) scale(0.1 -0.1)">
       <use xlink:href="#Menlo-Regular-30"/>
       <use xlink:href="#Menlo-Regular-34" transform="translate(60.205078 0)"/>
       <use xlink:href="#Menlo-Regular-2f" transform="translate(120.410156 0)"/>
       <use xlink:href="#Menlo-Regular-30" transform="translate(180.615234 0)"/>
       <use xlink:href="#Menlo-Regular-33" transform="translate(240.820312 0)"/>
      </g>
     </g>
    </g>
    <g id="xtick_7">
     <g id="line2d_13">
      <path d="M 508.297846 324.72 
L 508.297846 55.44 
" clip-path="url(#p0bb278cee0)" style="fill: none; stroke-dasharray: 2.22,0.96; stroke-dashoffset: 0; stroke: #e2d5f5; stroke-opacity: 0.7; stroke-width: 0.6"/>
     </g>
     <g id="line2d_14">
      <g>
       <use xlink:href="#m139ab56fde" x="508.297846" y="324.72" style="fill: #9b8bb8; stroke: #9b8bb8; stroke-width: 0.8"/>
      </g>
     </g>
     <g id="text_7">
      <!-- 04/04 -->
      <g style="fill: #9b8bb8" transform="translate(496.650206 353.375578) rotate(-30) scale(0.1 -0.1)">
       <use xlink:href="#Menlo-Regular-30"/>
       <use xlink:href="#Menlo-Regular-34" transform="translate(60.205078 0)"/>
       <use xlink:href="#Menlo-Regular-2f" transform="translate(120.410156 0)"/>
       <use xlink:href="#Menlo-Regular-30" transform="translate(180.615234 0)"/>
       <use xlink:href="#Menlo-Regular-34" transform="translate(240.820312 0)"/>
      </g>
     </g>
    </g>
   </g>
   <g id="matplotlib.axis_2">
    <g id="ytick_1">
     <g id="line2d_15">
      <path d="M 55.296 323.608769 
L 546.048 323.608769 
" clip-path="url(#p0bb278cee0)" style="fill: none; stroke-dasharray: 2.22,0.96; stroke-dashoffset: 0; stroke: #e2d5f5; stroke-opacity: 0.7; stroke-width: 0.6"/>
     </g>
     <g id="line2d_16">
      <defs>
       <path id="m5303b6ad21" d="M 0 0 
L -3.5 0 
" style="stroke: #9b8bb8; stroke-width: 0.8"/>
      </defs>
      <g>
       <use xlink:href="#m5303b6ad21" x="55.296" y="323.608769" style="fill: #9b8bb8; stroke: #9b8bb8; stroke-width: 0.8"/>
      </g>
     </g>
     <g id="text_8">
      <!-- 195 -->
      <g style="fill: #9b8bb8" transform="translate(30.235062 327.422051) scale(0.1 -0.1)">
       <defs>
        <path id="Menlo-Regular-35" d="M 647 4666 
L 3009 4666 
L 3009 4134 
L 1222 4134 
L 1222 2988 
Q 1356 3038 1492 3061 
Q 1628 3084 1766 3084 
Q 2491 3084 2916 2656 
Q 3341 2228 3341 1497 
Q 3341 759 2895 334 
Q 2450 -91 1678 -91 
Q 1306 -91 998 -41 
Q 691 9 447 109 
L 447 750 
Q 734 594 1025 517 
Q 1316 441 1619 441 
Q 2141 441 2423 716 
Q 2706 991 2706 1497 
Q 2706 1997 2414 2275 
Q 2122 2553 1600 2553 
Q 1347 2553 1106 2495 
Q 866 2438 647 2322 
L 647 4666 
z
" transform="scale(0.015625)"/>
       </defs>
       <use xlink:href="#Menlo-Regular-31"/>
       <use xlink:href="#Menlo-Regular-39" transform="translate(60.205078 0)"/>
       <use xlink:href="#Menlo-Regular-35" transform="translate(120.410156 0)"/>
      </g>
     </g>
    </g>
    <g id="ytick_2">
     <g id="line2d_17">
      <path d="M 55.296 267.964923 
L 546.048 267.964923 
" clip-path="url(#p0bb278cee0)" style="fill: none; stroke-dasharray: 2.22,0.96; stroke-dashoffset: 0; stroke: #e2d5f5; stroke-opacity: 0.7; stroke-width: 0.6"/>
     </g>
     <g id="line2d_18">
      <g>
       <use xlink:href="#m5303b6ad21" x="55.296" y="267.964923" style="fill: #9b8bb8; stroke: #9b8bb8; stroke-width: 0.8"/>
      </g>
     </g>
     <g id="text_9">
      <!-- 200 -->
      <g style="fill: #9b8bb8" transform="translate(30.235062 271.778204) scale(0.1 -0.1)">
       <use xlink:href="#Menlo-Regular-32"/>
       <use xlink:href="#Menlo-Regular-30" transform="translate(60.205078 0)"/>
       <use xlink:href="#Menlo-Regular-30" transform="translate(120.410156 0)"/>
      </g>
     </g>
    </g>
    <g id="ytick_3">
     <g id="line2d_19">
      <path d="M 55.296 212.321076 
L 546.048 212.321076 
" clip-path="url(#p0bb278cee0)" style="fill: none; stroke-dasharray: 2.22,0.96; stroke-dashoffset: 0; stroke: #e2d5f5; stroke-opacity: 0.7; stroke-width: 0.6"/>
     </g>
     <g id="line2d_20">
      <g>
       <use xlink:href="#m5303b6ad21" x="55.296" y="212.321076" style="fill: #9b8bb8; stroke: #9b8bb8; stroke-width: 0.8"/>
      </g>
     </g>
     <g id="text_10">
      <!-- 205 -->
      <g style="fill: #9b8bb8" transform="translate(30.235062 216.134357) scale(0.1 -0.1)">
       <use xlink:href="#Menlo-Regular-32"/>
       <use xlink:href="#Menlo-Regular-30" transform="translate(60.205078 0)"/>
       <use xlink:href="#Menlo-Regular-35" transform="translate(120.410156 0)"/>
      </g>
     </g>
    </g>
    <g id="ytick_4">
     <g id="line2d_21">
      <path d="M 55.296 156.677229 
L 546.048 156.677229 
" clip-path="url(#p0bb278cee0)" style="fill: none; stroke-dasharray: 2.22,0.96; stroke-dashoffset: 0; stroke: #e2d5f5; stroke-opacity: 0.7; stroke-width: 0.6"/>
     </g>
     <g id="line2d_22">
      <g>
       <use xlink:href="#m5303b6ad21" x="55.296" y="156.677229" style="fill: #9b8bb8; stroke: #9b8bb8; stroke-width: 0.8"/>
      </g>
     </g>
     <g id="text_11">
      <!-- 210 -->
      <g style="fill: #9b8bb8" transform="translate(30.235062 160.490511) scale(0.1 -0.1)">
       <use xlink:href="#Menlo-Regular-32"/>
       <use xlink:href="#Menlo-Regular-31" transform="translate(60.205078 0)"/>
       <use xlink:href="#Menlo-Regular-30" transform="translate(120.410156 0)"/>
      </g>
     </g>
    </g>
    <g id="ytick_5">
     <g id="line2d_23">
      <path d="M 55.296 101.033383 
L 546.048 101.033383 
" clip-path="url(#p0bb278cee0)" style="fill: none; stroke-dasharray: 2.22,0.96; stroke-dashoffset: 0; stroke: #e2d5f5; stroke-opacity: 0.7; stroke-width: 0.6"/>
     </g>
     <g id="line2d_24">
      <g>
       <use xlink:href="#m5303b6ad21" x="55.296" y="101.033383" style="fill: #9b8bb8; stroke: #9b8bb8; stroke-width: 0.8"/>
      </g>
     </g>
     <g id="text_12">
      <!-- 215 -->
      <g style="fill: #9b8bb8" transform="translate(30.235062 104.846664) scale(0.1 -0.1)">
       <use xlink:href="#Menlo-Regular-32"/>
       <use xlink:href="#Menlo-Regular-31" transform="translate(60.205078 0)"/>
       <use xlink:href="#Menlo-Regular-35" transform="translate(120.410156 0)"/>
      </g>
     </g>
    </g>
    <g id="text_13">
     <!-- Rating -->
     <g style="fill: #9b8bb8" transform="translate(24.086625 208.140937) rotate(-90) scale(0.1 -0.1)">
      <defs>
       <path id="Menlo-Regular-52" d="M 2375 2203 
Q 2619 2141 2791 1967 
Q 2963 1794 3219 1275 
L 3853 0 
L 3175 0 
L 2619 1178 
Q 2378 1681 2186 1826 
Q 1994 1972 1684 1972 
L 1081 1972 
L 1081 0 
L 447 0 
L 447 4666 
L 1747 4666 
Q 2516 4666 2925 4319 
Q 3334 3972 3334 3316 
Q 3334 2853 3082 2561 
Q 2831 2269 2375 2203 
z
M 1081 4147 
L 1081 2491 
L 1772 2491 
Q 2225 2491 2447 2694 
Q 2669 2897 2669 3316 
Q 2669 3719 2433 3933 
Q 2197 4147 1747 4147 
L 1081 4147 
z
" transform="scale(0.015625)"/>
       <path id="Menlo-Regular-61" d="M 2194 1759 
L 2003 1759 
Q 1500 1759 1245 1582 
Q 991 1406 991 1056 
Q 991 741 1181 566 
Q 1372 391 1709 391 
Q 2184 391 2456 720 
Q 2728 1050 2731 1631 
L 2731 1759 
L 2194 1759 
z
M 3309 1997 
L 3309 0 
L 2731 0 
L 2731 519 
Q 2547 206 2267 57 
Q 1988 -91 1588 -91 
Q 1053 -91 734 211 
Q 416 513 416 1019 
Q 416 1603 808 1906 
Q 1200 2209 1959 2209 
L 2731 2209 
L 2731 2300 
Q 2728 2719 2518 2908 
Q 2309 3097 1850 3097 
Q 1556 3097 1256 3012 
Q 956 2928 672 2766 
L 672 3341 
Q 991 3463 1283 3523 
Q 1575 3584 1850 3584 
Q 2284 3584 2592 3456 
Q 2900 3328 3091 3072 
Q 3209 2916 3259 2686 
Q 3309 2456 3309 1997 
z
" transform="scale(0.015625)"/>
       <path id="Menlo-Regular-74" d="M 1919 4494 
L 1919 3500 
L 3225 3500 
L 3225 3053 
L 1919 3053 
L 1919 1153 
Q 1919 766 2066 612 
Q 2213 459 2578 459 
L 3225 459 
L 3225 0 
L 2522 0 
Q 1875 0 1609 259 
Q 1344 519 1344 1153 
L 1344 3053 
L 409 3053 
L 409 3500 
L 1344 3500 
L 1344 4494 
L 1919 4494 
z
" transform="scale(0.015625)"/>
       <path id="Menlo-Regular-69" d="M 988 3488 
L 2459 3488 
L 2459 447 
L 3600 447 
L 3600 0 
L 744 0 
L 744 447 
L 1884 447 
L 1884 3041 
L 988 3041 
L 988 3488 
z
M 1884 4847 
L 2459 4847 
L 2459 4122 
L 1884 4122 
L 1884 4847 
z
" transform="scale(0.015625)"/>
       <path id="Menlo-Regular-6e" d="M 3284 2169 
L 3284 0 
L 2706 0 
L 2706 2169 
Q 2706 2641 2540 2862 
Q 2375 3084 2022 3084 
Q 1619 3084 1401 2798 
Q 1184 2513 1184 1978 
L 1184 0 
L 609 0 
L 609 3500 
L 1184 3500 
L 1184 2975 
Q 1338 3275 1600 3429 
Q 1863 3584 2222 3584 
Q 2756 3584 3020 3232 
Q 3284 2881 3284 2169 
z
" transform="scale(0.015625)"/>
       <path id="Menlo-Regular-67" d="M 2681 1778 
Q 2681 2425 2470 2761 
Q 2259 3097 1856 3097 
Q 1434 3097 1212 2761 
Q 991 2425 991 1778 
Q 991 1131 1214 792 
Q 1438 453 1863 453 
Q 2259 453 2470 793 
Q 2681 1134 2681 1778 
z
M 3256 225 
Q 3256 -563 2884 -969 
Q 2513 -1375 1791 -1375 
Q 1553 -1375 1293 -1331 
Q 1034 -1288 775 -1203 
L 775 -634 
Q 1081 -778 1331 -847 
Q 1581 -916 1791 -916 
Q 2256 -916 2468 -662 
Q 2681 -409 2681 141 
L 2681 166 
L 2681 556 
Q 2544 263 2306 119 
Q 2069 -25 1728 -25 
Q 1116 -25 750 465 
Q 384 956 384 1778 
Q 384 2603 750 3093 
Q 1116 3584 1728 3584 
Q 2066 3584 2300 3450 
Q 2534 3316 2681 3034 
L 2681 3488 
L 3256 3488 
L 3256 225 
z
" transform="scale(0.015625)"/>
      </defs>
      <use xlink:href="#Menlo-Regular-52"/>
      <use xlink:href="#Menlo-Regular-61" transform="translate(60.205078 0)"/>
      <use xlink:href="#Menlo-Regular-74" transform="translate(120.410156 0)"/>
      <use xlink:href="#Menlo-Regular-69" transform="translate(180.615234 0)"/>
      <use xlink:href="#Menlo-Regular-6e" transform="translate(240.820312 0)"/>
      <use xlink:href="#Menlo-Regular-67" transform="translate(301.025391 0)"/>
     </g>
    </g>
   </g>
   <g id="patch_3">
    <path d="M 55.296 324.72 
L 55.296 55.44 
" style="fill: none; stroke: #d8c8ef; stroke-width: 0.8; stroke-linejoin: miter; stroke-linecap: square"/>
   </g>
   <g id="patch_4">
    <path d="M 55.296 324.72 
L 546.048 324.72 
" style="fill: none; stroke: #d8c8ef; stroke-width: 0.8; stroke-linejoin: miter; stroke-linecap: square"/>
   </g>
   <g id="FillBetweenPolyCollection_1">
    <defs>
     <path id="m423b8a1ba8" d="M 55.296 -83.52 
L 55.296 -139.163847 
L 56.811056 -139.281195 
L 58.326113 -139.391407 
L 59.841169 -139.494629 
L 61.356225 -139.591008 
L 62.871282 -139.680688 
L 64.386338 -139.763818 
L 65.901394 -139.840542 
L 67.416451 -139.911006 
L 68.931507 -139.975358 
L 70.446563 -140.033742 
L 71.96162 -140.086306 
L 73.476676 -140.133195 
L 74.991732 -140.174555 
L 76.506789 -140.210533 
L 78.021845 -140.241275 
L 79.536901 -140.266926 
L 81.051958 -140.287633 
L 82.567014 -140.303542 
L 84.08207 -140.3148 
L 85.597127 -140.321552 
L 87.112183 -140.323944 
L 88.62724 -140.322123 
L 90.142296 -140.316234 
L 91.657352 -140.306424 
L 93.172409 -140.29284 
L 94.687465 -140.275626 
L 96.202521 -140.25493 
L 97.717578 -140.230897 
L 99.232634 -140.203673 
L 100.74769 -140.173405 
L 102.262747 -140.140239 
L 103.777803 -140.104321 
L 105.292859 -140.065796 
L 106.807916 -140.024812 
L 108.322972 -139.981514 
L 109.838028 -139.936049 
L 111.353085 -139.888562 
L 112.868141 -139.839199 
L 114.383197 -139.788108 
L 115.898254 -139.735433 
L 117.41331 -139.681322 
L 118.928366 -139.625919 
L 120.443423 -139.569372 
L 121.958479 -139.511827 
L 123.473535 -139.453428 
L 124.988592 -139.394324 
L 126.503648 -139.33466 
L 128.018704 -139.274581 
L 129.533761 -139.214235 
L 131.048817 -139.153766 
L 132.563873 -139.093322 
L 134.07893 -139.033049 
L 135.593986 -138.973092 
L 137.109042 -138.913598 
L 138.624099 -138.854713 
L 140.139155 -138.796583 
L 141.654211 -138.739354 
L 143.169268 -138.683172 
L 144.684324 -138.628184 
L 146.19938 -138.574535 
L 147.714437 -138.522372 
L 149.229493 -138.471841 
L 150.74455 -138.423087 
L 152.259606 -138.376258 
L 153.774662 -138.331499 
L 155.289719 -138.288956 
L 156.804775 -138.248775 
L 158.319831 -138.211103 
L 159.834888 -138.176086 
L 161.349944 -138.14387 
L 162.865 -138.1146 
L 164.380057 -138.088424 
L 165.895113 -138.065487 
L 167.410169 -138.045935 
L 168.925226 -138.029915 
L 170.440282 -138.017572 
L 171.955338 -138.009054 
L 173.470395 -138.004505 
L 174.985451 -138.004072 
L 176.500507 -138.007901 
L 178.015564 -138.016138 
L 179.53062 -138.02893 
L 181.045676 -138.046422 
L 182.560733 -138.068761 
L 184.075789 -138.096093 
L 185.590845 -138.128564 
L 187.105902 -138.16632 
L 188.620958 -138.209507 
L 190.136014 -138.258271 
L 191.651071 -138.312759 
L 193.166127 -138.373116 
L 194.681183 -138.439489 
L 196.19624 -138.512024 
L 197.711296 -138.590867 
L 199.226352 -138.676163 
L 200.741409 -138.76806 
L 202.256465 -138.866704 
L 203.771521 -138.97224 
L 205.286578 -139.084814 
L 206.801634 -139.204568 
L 208.316691 -139.331318 
L 209.831747 -139.464375 
L 211.346803 -139.603009 
L 212.86186 -139.74649 
L 214.376916 -139.894088 
L 215.891972 -140.04507 
L 217.407029 -140.198707 
L 218.922085 -140.354269 
L 220.437141 -140.511023 
L 221.952198 -140.668241 
L 223.467254 -140.82519 
L 224.98231 -140.981141 
L 226.497367 -141.135363 
L 228.012423 -141.287125 
L 229.527479 -141.435696 
L 231.042536 -141.580346 
L 232.557592 -141.720345 
L 234.072648 -141.854961 
L 235.587705 -141.983463 
L 237.102761 -142.105122 
L 238.617817 -142.219207 
L 240.132874 -142.324986 
L 241.64793 -142.42173 
L 243.162986 -142.508707 
L 244.678043 -142.585188 
L 246.193099 -142.65044 
L 247.708155 -142.703735 
L 249.223212 -142.74434 
L 250.738268 -142.771526 
L 252.253324 -142.784561 
L 253.768381 -142.782716 
L 255.283437 -142.765258 
L 256.798493 -142.731459 
L 258.31355 -142.680587 
L 259.828606 -142.611911 
L 261.343662 -142.524701 
L 262.858719 -142.418226 
L 264.373775 -142.291755 
L 265.888831 -142.144559 
L 267.403888 -141.975905 
L 268.918944 -141.785064 
L 270.434001 -141.571305 
L 271.949057 -141.333897 
L 273.464113 -141.07211 
L 274.97917 -140.785213 
L 276.494226 -140.472475 
L 278.009282 -140.133165 
L 279.524339 -139.766554 
L 281.039395 -139.371909 
L 282.554451 -138.948575 
L 284.069508 -138.497573 
L 285.584564 -138.021607 
L 287.09962 -137.523454 
L 288.614677 -137.00589 
L 290.129733 -136.471691 
L 291.644789 -135.923634 
L 293.159846 -135.364496 
L 294.674902 -134.797052 
L 296.189958 -134.22408 
L 297.705015 -133.648356 
L 299.220071 -133.072656 
L 300.735127 -132.499757 
L 302.250184 -131.932436 
L 303.76524 -131.373468 
L 305.280296 -130.82563 
L 306.795353 -130.291699 
L 308.310409 -129.774452 
L 309.825465 -129.276664 
L 311.340522 -128.801112 
L 312.855578 -128.350573 
L 314.370634 -127.927823 
L 315.885691 -127.535639 
L 317.400747 -127.176796 
L 318.915803 -126.854073 
L 320.43086 -126.570244 
L 321.945916 -126.328087 
L 323.460972 -126.130378 
L 324.976029 -125.979893 
L 326.491085 -125.87941 
L 328.006141 -125.831704 
L 329.521198 -125.839551 
L 331.036254 -125.90573 
L 332.551311 -126.033015 
L 334.066367 -126.224183 
L 335.581423 -126.482011 
L 337.09648 -126.809276 
L 338.611536 -127.208753 
L 340.126592 -127.68322 
L 341.641649 -128.235452 
L 343.156705 -128.868227 
L 344.671761 -129.58432 
L 346.186818 -130.386508 
L 347.701874 -131.277568 
L 349.21693 -132.260277 
L 350.731987 -133.33741 
L 352.247043 -134.511744 
L 353.762099 -135.786055 
L 355.277156 -137.163121 
L 356.792212 -138.645717 
L 358.307268 -140.236317 
L 359.822325 -141.933871 
L 361.337381 -143.735056 
L 362.852437 -145.636511 
L 364.367494 -147.634874 
L 365.88255 -149.726785 
L 367.397606 -151.908884 
L 368.912663 -154.177808 
L 370.427719 -156.530197 
L 371.942775 -158.962689 
L 373.457832 -161.471925 
L 374.972888 -164.054542 
L 376.487944 -166.70718 
L 378.003001 -169.426479 
L 379.518057 -172.209075 
L 381.033113 -175.05161 
L 382.54817 -177.950722 
L 384.063226 -180.903049 
L 385.578282 -183.905231 
L 387.093339 -186.953907 
L 388.608395 -190.045716 
L 390.123452 -193.177297 
L 391.638508 -196.345289 
L 393.153564 -199.54633 
L 394.668621 -202.77706 
L 396.183677 -206.034118 
L 397.698733 -209.314143 
L 399.21379 -212.613774 
L 400.728846 -215.92965 
L 402.243902 -219.258409 
L 403.758959 -222.596691 
L 405.274015 -225.941135 
L 406.789071 -229.28838 
L 408.304128 -232.635065 
L 409.819184 -235.977829 
L 411.33424 -239.31331 
L 412.849297 -242.638148 
L 414.364353 -245.948982 
L 415.879409 -249.242451 
L 417.394466 -252.515194 
L 418.909522 -255.76385 
L 420.424578 -258.985057 
L 421.939635 -262.175455 
L 423.454691 -265.331683 
L 424.969747 -268.45038 
L 426.484804 -271.528185 
L 427.99986 -274.561737 
L 429.514916 -277.547674 
L 431.029973 -280.482636 
L 432.545029 -283.363262 
L 434.060085 -286.186191 
L 435.575142 -288.948062 
L 437.090198 -291.645514 
L 438.605254 -294.275185 
L 440.120311 -296.833715 
L 441.635367 -299.317743 
L 443.150423 -301.723908 
L 444.66548 -304.048849 
L 446.180536 -306.289204 
L 447.695592 -308.441614 
L 449.210649 -310.502716 
L 450.725705 -312.46915 
L 452.240762 -314.337555 
L 453.755818 -316.10457 
L 455.270874 -317.766833 
L 456.785931 -319.320984 
L 458.300987 -320.763663 
L 459.816043 -322.091507 
L 461.3311 -323.301155 
L 462.846156 -324.389248 
L 464.361212 -325.352424 
L 465.876269 -326.187321 
L 467.391325 -326.890579 
L 468.906381 -327.458837 
L 470.421438 -327.888734 
L 471.936494 -328.176909 
L 473.45155 -328.32 
L 474.966607 -328.314647 
L 476.481663 -328.157489 
L 477.996719 -327.845165 
L 479.511776 -327.374314 
L 481.026832 -326.741575 
L 482.541888 -325.943586 
L 484.056945 -324.976987 
L 485.572001 -323.838418 
L 487.087057 -322.524515 
L 488.602114 -321.03192 
L 490.11717 -319.357271 
L 491.632226 -317.497206 
L 493.147283 -315.448365 
L 494.662339 -313.207387 
L 496.177395 -310.770911 
L 497.692452 -308.135576 
L 499.207508 -305.298021 
L 500.722564 -302.254884 
L 502.237621 -299.002805 
L 503.752677 -295.538423 
L 505.267733 -291.858377 
L 506.78279 -287.959306 
L 508.297846 -283.837848 
L 508.297846 -83.52 
L 508.297846 -83.52 
L 506.78279 -83.52 
L 505.267733 -83.52 
L 503.752677 -83.52 
L 502.237621 -83.52 
L 500.722564 -83.52 
L 499.207508 -83.52 
L 497.692452 -83.52 
L 496.177395 -83.52 
L 494.662339 -83.52 
L 493.147283 -83.52 
L 491.632226 -83.52 
L 490.11717 -83.52 
L 488.602114 -83.52 
L 487.087057 -83.52 
L 485.572001 -83.52 
L 484.056945 -83.52 
L 482.541888 -83.52 
L 481.026832 -83.52 
L 479.511776 -83.52 
L 477.996719 -83.52 
L 476.481663 -83.52 
L 474.966607 -83.52 
L 473.45155 -83.52 
L 471.936494 -83.52 
L 470.421438 -83.52 
L 468.906381 -83.52 
L 467.391325 -83.52 
L 465.876269 -83.52 
L 464.361212 -83.52 
L 462.846156 -83.52 
L 461.3311 -83.52 
L 459.816043 -83.52 
L 458.300987 -83.52 
L 456.785931 -83.52 
L 455.270874 -83.52 
L 453.755818 -83.52 
L 452.240762 -83.52 
L 450.725705 -83.52 
L 449.210649 -83.52 
L 447.695592 -83.52 
L 446.180536 -83.52 
L 444.66548 -83.52 
L 443.150423 -83.52 
L 441.635367 -83.52 
L 440.120311 -83.52 
L 438.605254 -83.52 
L 437.090198 -83.52 
L 435.575142 -83.52 
L 434.060085 -83.52 
L 432.545029 -83.52 
L 431.029973 -83.52 
L 429.514916 -83.52 
L 427.99986 -83.52 
L 426.484804 -83.52 
L 424.969747 -83.52 
L 423.454691 -83.52 
L 421.939635 -83.52 
L 420.424578 -83.52 
L 418.909522 -83.52 
L 417.394466 -83.52 
L 415.879409 -83.52 
L 414.364353 -83.52 
L 412.849297 -83.52 
L 411.33424 -83.52 
L 409.819184 -83.52 
L 408.304128 -83.52 
L 406.789071 -83.52 
L 405.274015 -83.52 
L 403.758959 -83.52 
L 402.243902 -83.52 
L 400.728846 -83.52 
L 399.21379 -83.52 
L 397.698733 -83.52 
L 396.183677 -83.52 
L 394.668621 -83.52 
L 393.153564 -83.52 
L 391.638508 -83.52 
L 390.123452 -83.52 
L 388.608395 -83.52 
L 387.093339 -83.52 
L 385.578282 -83.52 
L 384.063226 -83.52 
L 382.54817 -83.52 
L 381.033113 -83.52 
L 379.518057 -83.52 
L 378.003001 -83.52 
L 376.487944 -83.52 
L 374.972888 -83.52 
L 373.457832 -83.52 
L 371.942775 -83.52 
L 370.427719 -83.52 
L 368.912663 -83.52 
L 367.397606 -83.52 
L 365.88255 -83.52 
L 364.367494 -83.52 
L 362.852437 -83.52 
L 361.337381 -83.52 
L 359.822325 -83.52 
L 358.307268 -83.52 
L 356.792212 -83.52 
L 355.277156 -83.52 
L 353.762099 -83.52 
L 352.247043 -83.52 
L 350.731987 -83.52 
L 349.21693 -83.52 
L 347.701874 -83.52 
L 346.186818 -83.52 
L 344.671761 -83.52 
L 343.156705 -83.52 
L 341.641649 -83.52 
L 340.126592 -83.52 
L 338.611536 -83.52 
L 337.09648 -83.52 
L 335.581423 -83.52 
L 334.066367 -83.52 
L 332.551311 -83.52 
L 331.036254 -83.52 
L 329.521198 -83.52 
L 328.006141 -83.52 
L 326.491085 -83.52 
L 324.976029 -83.52 
L 323.460972 -83.52 
L 321.945916 -83.52 
L 320.43086 -83.52 
L 318.915803 -83.52 
L 317.400747 -83.52 
L 315.885691 -83.52 
L 314.370634 -83.52 
L 312.855578 -83.52 
L 311.340522 -83.52 
L 309.825465 -83.52 
L 308.310409 -83.52 
L 306.795353 -83.52 
L 305.280296 -83.52 
L 303.76524 -83.52 
L 302.250184 -83.52 
L 300.735127 -83.52 
L 299.220071 -83.52 
L 297.705015 -83.52 
L 296.189958 -83.52 
L 294.674902 -83.52 
L 293.159846 -83.52 
L 291.644789 -83.52 
L 290.129733 -83.52 
L 288.614677 -83.52 
L 287.09962 -83.52 
L 285.584564 -83.52 
L 284.069508 -83.52 
L 282.554451 -83.52 
L 281.039395 -83.52 
L 279.524339 -83.52 
L 278.009282 -83.52 
L 276.494226 -83.52 
L 274.97917 -83.52 
L 273.464113 -83.52 
L 271.949057 -83.52 
L 270.434001 -83.52 
L 268.918944 -83.52 
L 267.403888 -83.52 
L 265.888831 -83.52 
L 264.373775 -83.52 
L 262.858719 -83.52 
L 261.343662 -83.52 
L 259.828606 -83.52 
L 258.31355 -83.52 
L 256.798493 -83.52 
L 255.283437 -83.52 
L 253.768381 -83.52 
L 252.253324 -83.52 
L 250.738268 -83.52 
L 249.223212 -83.52 
L 247.708155 -83.52 
L 246.193099 -83.52 
L 244.678043 -83.52 
L 243.162986 -83.52 
L 241.64793 -83.52 
L 240.132874 -83.52 
L 238.617817 -83.52 
L 237.102761 -83.52 
L 235.587705 -83.52 
L 234.072648 -83.52 
L 232.557592 -83.52 
L 231.042536 -83.52 
L 229.527479 -83.52 
L 228.012423 -83.52 
L 226.497367 -83.52 
L 224.98231 -83.52 
L 223.467254 -83.52 
L 221.952198 -83.52 
L 220.437141 -83.52 
L 218.922085 -83.52 
L 217.407029 -83.52 
L 215.891972 -83.52 
L 214.376916 -83.52 
L 212.86186 -83.52 
L 211.346803 -83.52 
L 209.831747 -83.52 
L 208.316691 -83.52 
L 206.801634 -83.52 
L 205.286578 -83.52 
L 203.771521 -83.52 
L 202.256465 -83.52 
L 200.741409 -83.52 
L 199.226352 -83.52 
L 197.711296 -83.52 
L 196.19624 -83.52 
L 194.681183 -83.52 
L 193.166127 -83.52 
L 191.651071 -83.52 
L 190.136014 -83.52 
L 188.620958 -83.52 
L 187.105902 -83.52 
L 185.590845 -83.52 
L 184.075789 -83.52 
L 182.560733 -83.52 
L 181.045676 -83.52 
L 179.53062 -83.52 
L 178.015564 -83.52 
L 176.500507 -83.52 
L 174.985451 -83.52 
L 173.470395 -83.52 
L 171.955338 -83.52 
L 170.440282 -83.52 
L 168.925226 -83.52 
L 167.410169 -83.52 
L 165.895113 -83.52 
L 164.380057 -83.52 
L 162.865 -83.52 
L 161.349944 -83.52 
L 159.834888 -83.52 
L 158.319831 -83.52 
L 156.804775 -83.52 
L 155.289719 -83.52 
L 153.774662 -83.52 
L 152.259606 -83.52 
L 150.74455 -83.52 
L 149.229493 -83.52 
L 147.714437 -83.52 
L 146.19938 -83.52 
L 144.684324 -83.52 
L 143.169268 -83.52 
L 141.654211 -83.52 
L 140.139155 -83.52 
L 138.624099 -83.52 
L 137.109042 -83.52 
L 135.593986 -83.52 
L 134.07893 -83.52 
L 132.563873 -83.52 
L 131.048817 -83.52 
L 129.533761 -83.52 
L 128.018704 -83.52 
L 126.503648 -83.52 
L 124.988592 -83.52 
L 123.473535 -83.52 
L 121.958479 -83.52 
L 120.443423 -83.52 
L 118.928366 -83.52 
L 117.41331 -83.52 
L 115.898254 -83.52 
L 114.383197 -83.52 
L 112.868141 -83.52 
L 111.353085 -83.52 
L 109.838028 -83.52 
L 108.322972 -83.52 
L 106.807916 -83.52 
L 105.292859 -83.52 
L 103.777803 -83.52 
L 102.262747 -83.52 
L 100.74769 -83.52 
L 99.232634 -83.52 
L 97.717578 -83.52 
L 96.202521 -83.52 
L 94.687465 -83.52 
L 93.172409 -83.52 
L 91.657352 -83.52 
L 90.142296 -83.52 
L 88.62724 -83.52 
L 87.112183 -83.52 
L 85.597127 -83.52 
L 84.08207 -83.52 
L 82.567014 -83.52 
L 81.051958 -83.52 
L 79.536901 -83.52 
L 78.021845 -83.52 
L 76.506789 -83.52 
L 74.991732 -83.52 
L 73.476676 -83.52 
L 71.96162 -83.52 
L 70.446563 -83.52 
L 68.931507 -83.52 
L 67.416451 -83.52 
L 65.901394 -83.52 
L 64.386338 -83.52 
L 62.871282 -83.52 
L 61.356225 -83.52 
L 59.841169 -83.52 
L 58.326113 -83.52 
L 56.811056 -83.52 
L 55.296 -83.52 
z
" style="stroke: #8b5cf6; stroke-opacity: 0.12"/>
    </defs>
    <g clip-path="url(#p0bb278cee0)">
     <use xlink:href="#m423b8a1ba8" x="0" y="396" style="fill: #8b5cf6; fill-opacity: 0.12; stroke: #8b5cf6; stroke-opacity: 0.12"/>
    </g>
   </g>
   <g id="text_14">
    <!-- 214 -->
    <g style="fill: #8b5cf6" transform="translate(511.297846 109.162152) scale(0.12 -0.12)">
     <use xlink:href="#Menlo-Regular-32"/>
     <use xlink:href="#Menlo-Regular-31" transform="translate(60.205078 0)"/>
     <use xlink:href="#Menlo-Regular-34" transform="translate(120.410156 0)"/>
    </g>
   </g>
   <g id="text_15">
    <!-- Rating History -->
    <g style="fill: #8b5cf6" transform="translate(55.296 50.44) scale(0.17 -0.17)">
     <defs>
      <path id="Menlo-Regular-20" transform="scale(0.015625)"/>
      <path id="Menlo-Regular-48" d="M 428 4666 
L 1063 4666 
L 1063 2878 
L 2791 2878 
L 2791 4666 
L 3425 4666 
L 3425 0 
L 2791 0 
L 2791 2347 
L 1063 2347 
L 1063 0 
L 428 0 
L 428 4666 
z
" transform="scale(0.015625)"/>
      <path id="Menlo-Regular-73" d="M 3041 3378 
L 3041 2816 
Q 2794 2959 2544 3031 
Q 2294 3103 2034 3103 
Q 1644 3103 1451 2976 
Q 1259 2850 1259 2591 
Q 1259 2356 1403 2240 
Q 1547 2125 2119 2016 
L 2350 1972 
Q 2778 1891 2998 1647 
Q 3219 1403 3219 1013 
Q 3219 494 2850 201 
Q 2481 -91 1825 -91 
Q 1566 -91 1281 -36 
Q 997 19 666 128 
L 666 722 
Q 988 556 1281 473 
Q 1575 391 1838 391 
Q 2219 391 2428 545 
Q 2638 700 2638 978 
Q 2638 1378 1872 1531 
L 1847 1538 
L 1631 1581 
Q 1134 1678 906 1908 
Q 678 2138 678 2534 
Q 678 3038 1018 3311 
Q 1359 3584 1991 3584 
Q 2272 3584 2531 3532 
Q 2791 3481 3041 3378 
z
" transform="scale(0.015625)"/>
      <path id="Menlo-Regular-6f" d="M 1925 3097 
Q 1488 3097 1263 2756 
Q 1038 2416 1038 1747 
Q 1038 1081 1263 739 
Q 1488 397 1925 397 
Q 2366 397 2591 739 
Q 2816 1081 2816 1747 
Q 2816 2416 2591 2756 
Q 2366 3097 1925 3097 
z
M 1925 3584 
Q 2653 3584 3039 3112 
Q 3425 2641 3425 1747 
Q 3425 850 3040 379 
Q 2656 -91 1925 -91 
Q 1197 -91 812 379 
Q 428 850 428 1747 
Q 428 2641 812 3112 
Q 1197 3584 1925 3584 
z
" transform="scale(0.015625)"/>
      <path id="Menlo-Regular-72" d="M 3609 2778 
Q 3425 2922 3234 2987 
Q 3044 3053 2816 3053 
Q 2278 3053 1993 2715 
Q 1709 2378 1709 1741 
L 1709 0 
L 1131 0 
L 1131 3500 
L 1709 3500 
L 1709 2816 
Q 1853 3188 2151 3386 
Q 2450 3584 2859 3584 
Q 3072 3584 3256 3531 
Q 3441 3478 3609 3366 
L 3609 2778 
z
" transform="scale(0.015625)"/>
      <path id="Menlo-Regular-79" d="M 2681 1125 
Q 2538 759 2316 163 
Q 2006 -663 1900 -844 
Q 1756 -1088 1540 -1209 
Q 1325 -1331 1038 -1331 
L 575 -1331 
L 575 -850 
L 916 -850 
Q 1169 -850 1312 -703 
Q 1456 -556 1678 56 
L 325 3500 
L 934 3500 
L 1972 763 
L 2994 3500 
L 3603 3500 
L 2681 1125 
z
" transform="scale(0.015625)"/>
     </defs>
     <use xlink:href="#Menlo-Regular-52"/>
     <use xlink:href="#Menlo-Regular-61" transform="translate(60.205078 0)"/>
     <use xlink:href="#Menlo-Regular-74" transform="translate(120.410156 0)"/>
     <use xlink:href="#Menlo-Regular-69" transform="translate(180.615234 0)"/>
     <use xlink:href="#Menlo-Regular-6e" transform="translate(240.820312 0)"/>
     <use xlink:href="#Menlo-Regular-67" transform="translate(301.025391 0)"/>
     <use xlink:href="#Menlo-Regular-20" transform="translate(361.230469 0)"/>
     <use xlink:href="#Menlo-Regular-48" transform="translate(421.435547 0)"/>
     <use xlink:href="#Menlo-Regular-69" transform="translate(481.640625 0)"/>
     <use xlink:href="#Menlo-Regular-73" transform="translate(541.845703 0)"/>
     <use xlink:href="#Menlo-Regular-74" transform="translate(602.050781 0)"/>
     <use xlink:href="#Menlo-Regular-6f" transform="translate(662.255859 0)"/>
     <use xlink:href="#Menlo-Regular-72" transform="translate(722.460938 0)"/>
     <use xlink:href="#Menlo-Regular-79" transform="translate(782.666016 0)"/>
    </g>
   </g>
   <g id="line2d_25">
    <path d="M 55.296 256.836153 
L 64.386338 256.236182 
L 73.476676 255.866805 
L 84.08207 255.6852 
L 94.687465 255.724374 
L 108.322972 256.018486 
L 126.503648 256.66534 
L 155.289719 257.711044 
L 168.925226 257.970085 
L 179.53062 257.97107 
L 190.136014 257.741729 
L 199.226352 257.323837 
L 208.316691 256.668682 
L 218.922085 255.645731 
L 235.587705 254.016537 
L 243.162986 253.491293 
L 249.223212 253.25566 
L 255.283437 253.234742 
L 261.343662 253.475299 
L 265.888831 253.855441 
L 270.434001 254.428695 
L 274.97917 255.214787 
L 279.524339 256.233446 
L 284.069508 257.502427 
L 288.614677 258.99411 
L 296.189958 261.77592 
L 306.795353 265.708301 
L 311.340522 267.198888 
L 315.885691 268.464361 
L 320.43086 269.429756 
L 323.460972 269.869622 
L 326.491085 270.12059 
L 329.521198 270.160449 
L 332.551311 269.966985 
L 335.581423 269.517989 
L 338.611536 268.791247 
L 341.641649 267.764548 
L 344.671761 266.41568 
L 347.701874 264.722432 
L 350.731987 262.66259 
L 353.762099 260.213945 
L 356.792212 257.354283 
L 359.822325 254.066129 
L 362.852437 250.363489 
L 365.88255 246.273215 
L 368.912663 241.822192 
L 371.942775 237.037311 
L 374.972888 231.945458 
L 379.518057 223.790925 
L 384.063226 215.096951 
L 388.608395 205.954284 
L 394.668621 193.22294 
L 402.243902 176.741591 
L 418.909522 140.23615 
L 424.969747 127.54962 
L 429.514916 118.452326 
L 434.060085 109.813809 
L 438.605254 101.724815 
L 441.635367 96.682257 
L 444.66548 91.951151 
L 447.695592 87.558386 
L 450.725705 83.53085 
L 453.755818 79.89543 
L 456.785931 76.679016 
L 459.816043 73.908493 
L 462.846156 71.610752 
L 465.876269 69.812679 
L 467.391325 69.109421 
L 468.906381 68.541163 
L 470.421438 68.111266 
L 471.936494 67.823091 
L 473.45155 67.68 
L 474.966607 67.685353 
L 476.481663 67.842511 
L 477.996719 68.154835 
L 479.511776 68.625686 
L 481.026832 69.258425 
L 482.541888 70.056414 
L 484.056945 71.023013 
L 485.572001 72.161582 
L 487.087057 73.475485 
L 488.602114 74.96808 
L 490.11717 76.642729 
L 491.632226 78.502794 
L 493.147283 80.551635 
L 496.177395 85.229089 
L 499.207508 90.701979 
L 502.237621 96.997195 
L 505.267733 104.141623 
L 508.297846 112.162152 
L 508.297846 112.162152 
" clip-path="url(#p0bb278cee0)" style="fill: none; stroke: #8b5cf6; stroke-width: 1.2; stroke-linecap: round"/>
   </g>
   <g id="PathCollection_1">
    <defs>
     <path id="md144e98952" d="M 0 1.658312 
C 0.43979 1.658312 0.861626 1.483582 1.172604 1.172604 
C 1.483582 0.861626 1.658312 0.43979 1.658312 0 
C 1.658312 -0.43979 1.483582 -0.861626 1.172604 -1.172604 
C 0.861626 -1.483582 0.43979 -1.658312 0 -1.658312 
C -0.43979 -1.658312 -0.861626 -1.483582 -1.172604 -1.172604 
C -1.483582 -0.861626 -1.658312 -0.43979 -1.658312 0 
C -1.658312 0.43979 -1.483582 0.861626 -1.172604 1.172604 
C -0.861626 1.483582 -0.43979 1.658312 0 1.658312 
z
" style="stroke: #ffffff; stroke-width: 0.5"/>
    </defs>
    <g clip-path="url(#p0bb278cee0)">
     <use xlink:href="#md144e98952" x="55.296" y="256.836153" style="fill: #8b5cf6; stroke: #ffffff; stroke-width: 0.5"/>
     <use xlink:href="#md144e98952" x="130.796308" y="256.836153" style="fill: #8b5cf6; stroke: #ffffff; stroke-width: 0.5"/>
     <use xlink:href="#md144e98952" x="206.296615" y="256.836153" style="fill: #8b5cf6; stroke: #ffffff; stroke-width: 0.5"/>
     <use xlink:href="#md144e98952" x="281.796923" y="256.836153" style="fill: #8b5cf6; stroke: #ffffff; stroke-width: 0.5"/>
     <use xlink:href="#md144e98952" x="357.297231" y="256.836153" style="fill: #8b5cf6; stroke: #ffffff; stroke-width: 0.5"/>
     <use xlink:href="#md144e98952" x="432.797538" y="112.162152" style="fill: #8b5cf6; stroke: #ffffff; stroke-width: 0.5"/>
     <use xlink:href="#md144e98952" x="508.297846" y="112.162152" style="fill: #8b5cf6; stroke: #ffffff; stroke-width: 0.5"/>
    </g>
   </g>
  </g>
  <g id="axes_2">
   <g id="text_16">
    <!-- Rating -->
    <g style="fill: #9b8bb8" transform="translate(565.7472 48.312) scale(0.11 -0.11)">
     <use xlink:href="#Menlo-Regular-52"/>
     <use xlink:href="#Menlo-Regular-61" transform="translate(60.205078 0)"/>
     <use xlink:href="#Menlo-Regular-74" transform="translate(120.410156 0)"/>
     <use xlink:href="#Menlo-Regular-69" transform="translate(180.615234 0)"/>
     <use xlink:href="#Menlo-Regular-6e" transform="translate(240.820312 0)"/>
     <use xlink:href="#Menlo-Regular-67" transform="translate(301.025391 0)"/>
    </g>
   </g>
   <g id="text_17">
    <!-- 214 -->
    <g style="fill: #8b5cf6" transform="translate(565.7472 82.397063) scale(0.26 -0.26)">
     <use xlink:href="#Menlo-Regular-32"/>
     <use xlink:href="#Menlo-Regular-31" transform="translate(60.205078 0)"/>
     <use xlink:href="#Menlo-Regular-34" transform="translate(120.410156 0)"/>
    </g>
   </g>
   <g id="text_18">
    <!-- Rank -->
    <g style="fill: #9b8bb8" transform="translate(565.7472 119.592) scale(0.11 -0.11)">
     <defs>
      <path id="Menlo-Regular-6b" d="M 738 4863 
L 1331 4863 
L 1331 2047 
L 2841 3500 
L 3541 3500 
L 2163 2181 
L 3756 0 
L 3053 0 
L 1759 1806 
L 1331 1403 
L 1331 0 
L 738 0 
L 738 4863 
z
" transform="scale(0.015625)"/>
     </defs>
     <use xlink:href="#Menlo-Regular-52"/>
     <use xlink:href="#Menlo-Regular-61" transform="translate(60.205078 0)"/>
     <use xlink:href="#Menlo-Regular-6e" transform="translate(120.410156 0)"/>
     <use xlink:href="#Menlo-Regular-6b" transform="translate(180.615234 0)"/>
    </g>
   </g>
   <g id="text_19">
    <!-- #128,292 -->
    <g style="fill: #8b5cf6" transform="translate(565.7472 148.104) scale(0.14 -0.14)">
     <defs>
      <path id="Menlo-Regular-23" d="M 2138 4578 
L 1856 3472 
L 2622 3472 
L 2906 4578 
L 3406 4578 
L 3122 3472 
L 3884 3472 
L 3884 2994 
L 3006 2994 
L 2700 1766 
L 3481 1766 
L 3481 1288 
L 2578 1288 
L 2253 0 
L 1753 0 
L 2081 1288 
L 1313 1288 
L 984 0 
L 488 0 
L 813 1288 
L 6 1288 
L 6 1766 
L 934 1766 
L 1241 2994 
L 409 2994 
L 409 3472 
L 1356 3472 
L 1638 4578 
L 2138 4578 
z
M 2506 2994 
L 1741 2994 
L 1434 1766 
L 2203 1766 
L 2506 2994 
z
" transform="scale(0.015625)"/>
      <path id="Menlo-Regular-38" d="M 1925 2216 
Q 1503 2216 1273 1980 
Q 1044 1744 1044 1313 
Q 1044 881 1276 642 
Q 1509 403 1925 403 
Q 2350 403 2579 639 
Q 2809 875 2809 1313 
Q 2809 1741 2576 1978 
Q 2344 2216 1925 2216 
z
M 1375 2478 
Q 972 2581 745 2862 
Q 519 3144 519 3541 
Q 519 4097 897 4423 
Q 1275 4750 1925 4750 
Q 2578 4750 2956 4423 
Q 3334 4097 3334 3541 
Q 3334 3144 3107 2862 
Q 2881 2581 2478 2478 
Q 2947 2375 3195 2062 
Q 3444 1750 3444 1253 
Q 3444 622 3041 265 
Q 2638 -91 1925 -91 
Q 1213 -91 811 264 
Q 409 619 409 1247 
Q 409 1747 657 2061 
Q 906 2375 1375 2478 
z
M 1147 3481 
Q 1147 3106 1347 2909 
Q 1547 2713 1925 2713 
Q 2306 2713 2506 2909 
Q 2706 3106 2706 3481 
Q 2706 3863 2507 4063 
Q 2309 4263 1925 4263 
Q 1547 4263 1347 4061 
Q 1147 3859 1147 3481 
z
" transform="scale(0.015625)"/>
      <path id="Menlo-Regular-2c" d="M 1381 1128 
L 2356 1128 
L 2356 300 
L 1663 -1047 
L 1038 -1050 
L 1381 300 
L 1381 1128 
z
" transform="scale(0.015625)"/>
     </defs>
     <use xlink:href="#Menlo-Regular-23"/>
     <use xlink:href="#Menlo-Regular-31" transform="translate(60.205078 0)"/>
     <use xlink:href="#Menlo-Regular-32" transform="translate(120.410156 0)"/>
     <use xlink:href="#Menlo-Regular-38" transform="translate(180.615234 0)"/>
     <use xlink:href="#Menlo-Regular-2c" transform="translate(240.820312 0)"/>
     <use xlink:href="#Menlo-Regular-32" transform="translate(301.025391 0)"/>
     <use xlink:href="#Menlo-Regular-39" transform="translate(361.230469 0)"/>
     <use xlink:href="#Menlo-Regular-32" transform="translate(421.435547 0)"/>
    </g>
   </g>
   <g id="text_20">
    <!-- ─ 0 -->
    <g style="fill: #9b8bb8" transform="translate(565.7472 169.488) scale(0.11 -0.11)">
     <defs>
      <path id="Menlo-Regular-2500" d="M -63 1550 
L -63 2088 
L 3916 2088 
L 3916 1550 
L -63 1550 
z
" transform="scale(0.015625)"/>
     </defs>
     <use xlink:href="#Menlo-Regular-2500"/>
     <use xlink:href="#Menlo-Regular-20" transform="translate(60.205078 0)"/>
     <use xlink:href="#Menlo-Regular-30" transform="translate(120.410156 0)"/>
    </g>
   </g>
  </g>
 </g>
 <defs>
  <clipPath id="p0bb278cee0">
   <rect x="55.296" y="55.44" width="490.752" height="269.28"/>
  </clipPath>
 </defs>
</svg>
