<?xml version="1.0" encoding="utf-8" standalone="no"?>
<!DOCTYPE svg PUBLIC "-//W3C//DTD SVG 1.1//EN"
  "http://www.w3.org/Graphics/SVG/1.1/DTD/svg11.dtd">
<svg xmlns:xlink="http://www.w3.org/1999/xlink" width="691.2pt" height="396pt" viewBox="0 0 691.2 396" xmlns="http://www.w3.org/2000/svg" version="1.1">
 <metadata>
  <rdf:RDF xmlns:dc="http://purl.org/dc/elements/1.1/" xmlns:cc="http://creativecommons.org/ns#" xmlns:rdf="http://www.w3.org/1999/02/22-rdf-syntax-ns#">
   <cc:Work>
    <dc:type rdf:resource="http://purl.org/dc/dcmitype/StillImage"/>
    <dc:date>2026-04-28T16:30:45.495488</dc:date>
    <dc:format>image/svg+xml</dc:format>
    <dc:creator>
     <cc:Agent>
      <dc:title>Matplotlib v3.10.9, https://matplotlib.org/</dc:title>
     </cc:Agent>
    </dc:creator>
   </cc:Work>
  </rdf:RDF>
 </metadata>
 <defs>
  <style type="text/css">*{stroke-linejoin: round; stroke-linecap: butt}</style>
 </defs>
 <g id="figure_1">
  <g id="patch_1">
   <path d="M 0 396 
L 691.2 396 
L 691.2 0 
L 0 0 
L 0 396 
z
" style="fill: none"/>
  </g>
  <g id="axes_1">
   <g id="patch_2">
    <path d="M 55.296 324.72 
L 546.048 324.72 
L 546.048 55.44 
L 55.296 55.44 
L 55.296 324.72 
z
" style="fill: none"/>
   </g>
   <g id="matplotlib.axis_1">
    <g id="xtick_1">
     <g id="line2d_1">
      <path d="M 97.602207 324.72 
L 97.602207 55.44 
" clip-path="url(#pcea2dffbb8)" style="fill: none; stroke-dasharray: 2.22,0.96; stroke-dashoffset: 0; stroke: #e2d5f5; stroke-opacity: 0.7; stroke-width: 0.6"/>
     </g>
     <g id="line2d_2">
      <defs>
       <path id="m57ba99467e" d="M 0 0 
L 0 3.5 
" style="stroke: #9b8bb8; stroke-width: 0.8"/>
      </defs>
      <g>
       <use xlink:href="#m57ba99467e" x="97.602207" y="324.72" style="fill: #9b8bb8; stroke: #9b8bb8; stroke-width: 0.8"/>
      </g>
     </g>
     <g id="text_1">
      <!-- 04/02 -->
      <g style="fill: #9b8bb8" transform="translate(86.061826 353.301793) rotate(-30) scale(0.1 -0.1)">
       <defs>
        <path id="JetBrainsMono-Regular-30" d="M 1920 -64 
Q 1274 -64 893 310 
Q 512 685 512 1312 
L 512 3360 
Q 512 3987 893 4361 
Q 1274 4736 1920 4736 
Q 2566 4736 2947 4361 
Q 3328 3987 3328 3360 
L 3328 1312 
Q 3328 896 3155 585 
Q 2982 275 2665 105 
Q 2349 -64 1920 -64 
z
M 1920 429 
Q 2304 429 2537 675 
Q 2771 922 2771 1312 
L 2771 3360 
Q 2771 3750 2537 3996 
Q 2304 4243 1920 4243 
Q 1536 4243 1302 3996 
Q 1069 3750 1069 3360 
L 1069 1312 
Q 1069 922 1302 675 
Q 1536 429 1920 429 
z
M 1920 1984 
Q 1747 1984 1641 2080 
Q 1536 2176 1536 2355 
Q 1536 2528 1641 2621 
Q 1747 2714 1920 2714 
Q 2093 2714 2198 2621 
Q 2304 2528 2304 2355 
Q 2304 2176 2198 2080 
Q 2093 1984 1920 1984 
z
" transform="scale(0.015625)"/>
        <path id="JetBrainsMono-Regular-34" d="M 2560 0 
L 2560 1024 
L 448 1024 
L 448 1926 
L 2150 4672 
L 2803 4672 
L 1024 1798 
L 1024 1549 
L 2560 1549 
L 2560 2688 
L 3136 2688 
L 3136 0 
L 2560 0 
z
" transform="scale(0.015625)"/>
        <path id="JetBrainsMono-Regular-2f" d="M 480 -704 
L 2752 5312 
L 3360 5312 
L 1088 -704 
L 480 -704 
z
" transform="scale(0.015625)"/>
        <path id="JetBrainsMono-Regular-32" d="M 550 0 
L 550 531 
L 2106 2195 
Q 2445 2554 2585 2835 
Q 2726 3117 2726 3386 
Q 2726 3770 2505 3997 
Q 2285 4224 1907 4224 
Q 1517 4224 1289 3990 
Q 1062 3757 1062 3360 
L 486 3360 
Q 506 3994 890 4365 
Q 1274 4736 1907 4736 
Q 2554 4736 2934 4371 
Q 3315 4006 3315 3379 
Q 3315 3046 3132 2675 
Q 2950 2304 2509 1843 
L 1248 525 
L 3373 525 
L 3373 0 
L 550 0 
z
" transform="scale(0.015625)"/>
       </defs>
       <use xlink:href="#JetBrainsMono-Regular-30"/>
       <use xlink:href="#JetBrainsMono-Regular-34" transform="translate(59.999985 0)"/>
       <use xlink:href="#JetBrainsMono-Regular-2f" transform="translate(119.999969 0)"/>
       <use xlink:href="#JetBrainsMono-Regular-30" transform="translate(179.999954 0)"/>
       <use xlink:href="#JetBrainsMono-Regular-32" transform="translate(239.999939 0)"/>
      </g>
     </g>
    </g>
    <g id="xtick_2">
     <g id="line2d_3">
      <path d="M 165.292138 324.72 
L 165.292138 55.44 
" clip-path="url(#pcea2dffbb8)" style="fill: none; stroke-dasharray: 2.22,0.96; stroke-dashoffset: 0; stroke: #e2d5f5; stroke-opacity: 0.7; stroke-width: 0.6"/>
     </g>
     <g id="line2d_4">
      <g>
       <use xlink:href="#m57ba99467e" x="165.292138" y="324.72" style="fill: #9b8bb8; stroke: #9b8bb8; stroke-width: 0.8"/>
      </g>
     </g>
     <g id="text_2">
      <!-- 04/06 -->
      <g style="fill: #9b8bb8" transform="translate(153.751757 353.301793) rotate(-30) scale(0.1 -0.1)">
       <defs>
        <path id="JetBrainsMono-Regular-36" d="M 1926 -64 
Q 1478 -64 1136 125 
Q 794 314 602 650 
Q 410 986 410 1427 
Q 410 1734 525 2057 
Q 640 2381 838 2733 
L 1920 4672 
L 2560 4672 
L 1408 2669 
L 1427 2656 
Q 1510 2765 1676 2822 
Q 1843 2880 2042 2880 
Q 2458 2880 2768 2697 
Q 3078 2515 3254 2195 
Q 3430 1875 3430 1453 
Q 3430 1005 3238 662 
Q 3046 320 2710 128 
Q 2374 -64 1926 -64 
z
M 1920 448 
Q 2336 448 2595 723 
Q 2854 998 2854 1440 
Q 2854 1882 2595 2157 
Q 2336 2432 1920 2432 
Q 1504 2432 1245 2157 
Q 986 1882 986 1440 
Q 986 998 1245 723 
Q 1504 448 1920 448 
z
" transform="scale(0.015625)"/>
       </defs>
       <use xlink:href="#JetBrainsMono-Regular-30"/>
       <use xlink:href="#JetBrainsMono-Regular-34" transform="translate(59.999985 0)"/>
       <use xlink:href="#JetBrainsMono-Regular-2f" transform="translate(119.999969 0)"/>
       <use xlink:href="#JetBrainsMono-Regular-30" transform="translate(179.999954 0)"/>
       <use xlink:href="#JetBrainsMono-Regular-36" transform="translate(239.999939 0)"/>
      </g>
     </g>
    </g>
    <g id="xtick_3">
     <g id="line2d_5">
      <path d="M 232.982069 324.72 
L 232.982069 55.44 
" clip-path="url(#pcea2dffbb8)" style="fill: none; stroke-dasharray: 2.22,0.96; stroke-dashoffset: 0; stroke: #e2d5f5; stroke-opacity: 0.7; stroke-width: 0.6"/>
     </g>
     <g id="line2d_6">
      <g>
       <use xlink:href="#m57ba99467e" x="232.982069" y="324.72" style="fill: #9b8bb8; stroke: #9b8bb8; stroke-width: 0.8"/>
      </g>
     </g>
     <g id="text_3">
      <!-- 04/10 -->
      <g style="fill: #9b8bb8" transform="translate(221.441688 353.301793) rotate(-30) scale(0.1 -0.1)">
       <defs>
        <path id="JetBrainsMono-Regular-31" d="M 576 0 
L 576 525 
L 1843 525 
L 1843 4173 
L 576 3226 
L 576 3885 
L 1632 4672 
L 2419 4672 
L 2419 525 
L 3456 525 
L 3456 0 
L 576 0 
z
" transform="scale(0.015625)"/>
       </defs>
       <use xlink:href="#JetBrainsMono-Regular-30"/>
       <use xlink:href="#JetBrainsMono-Regular-34" transform="translate(59.999985 0)"/>
       <use xlink:href="#JetBrainsMono-Regular-2f" transform="translate(119.999969 0)"/>
       <use xlink:href="#JetBrainsMono-Regular-31" transform="translate(179.999954 0)"/>
       <use xlink:href="#JetBrainsMono-Regular-30" transform="translate(239.999939 0)"/>
      </g>
     </g>
    </g>
    <g id="xtick_4">
     <g id="line2d_7">
      <path d="M 300.672 324.72 
L 300.672 55.44 
" clip-path="url(#pcea2dffbb8)" style="fill: none; stroke-dasharray: 2.22,0.96; stroke-dashoffset: 0; stroke: #e2d5f5; stroke-opacity: 0.7; stroke-width: 0.6"/>
     </g>
     <g id="line2d_8">
      <g>
       <use xlink:href="#m57ba99467e" x="300.672" y="324.72" style="fill: #9b8bb8; stroke: #9b8bb8; stroke-width: 0.8"/>
      </g>
     </g>
     <g id="text_4">
      <!-- 04/14 -->
      <g style="fill: #9b8bb8" transform="translate(289.131619 353.301793) rotate(-30) scale(0.1 -0.1)">
       <use xlink:href="#JetBrainsMono-Regular-30"/>
       <use xlink:href="#JetBrainsMono-Regular-34" transform="translate(59.999985 0)"/>
       <use xlink:href="#JetBrainsMono-Regular-2f" transform="translate(119.999969 0)"/>
       <use xlink:href="#JetBrainsMono-Regular-31" transform="translate(179.999954 0)"/>
       <use xlink:href="#JetBrainsMono-Regular-34" transform="translate(239.999939 0)"/>
      </g>
     </g>
    </g>
    <g id="xtick_5">
     <g id="line2d_9">
      <path d="M 368.361931 324.72 
L 368.361931 55.44 
" clip-path="url(#pcea2dffbb8)" style="fill: none; stroke-dasharray: 2.22,0.96; stroke-dashoffset: 0; stroke: #e2d5f5; stroke-opacity: 0.7; stroke-width: 0.6"/>
     </g>
     <g id="line2d_10">
      <g>
       <use xlink:href="#m57ba99467e" x="368.361931" y="324.72" style="fill: #9b8bb8; stroke: #9b8bb8; stroke-width: 0.8"/>
      </g>
     </g>
     <g id="text_5">
      <!-- 04/18 -->
      <g style="fill: #9b8bb8" transform="translate(356.82155 353.301793) rotate(-30) scale(0.1 -0.1)">
       <defs>
        <path id="JetBrainsMono-Regular-38" d="M 1920 -64 
Q 1478 -64 1139 109 
Q 800 282 611 592 
Q 422 902 422 1306 
Q 422 1747 675 2067 
Q 928 2387 1350 2458 
L 1350 2477 
Q 986 2560 768 2845 
Q 550 3130 550 3501 
Q 550 3866 723 4144 
Q 896 4422 1206 4579 
Q 1517 4736 1920 4736 
Q 2330 4736 2637 4579 
Q 2944 4422 3117 4144 
Q 3290 3866 3290 3501 
Q 3290 3130 3072 2845 
Q 2854 2560 2490 2477 
L 2490 2458 
Q 2912 2387 3165 2067 
Q 3418 1747 3418 1306 
Q 3418 902 3229 592 
Q 3040 282 2704 109 
Q 2368 -64 1920 -64 
z
M 1920 2701 
Q 2278 2701 2496 2912 
Q 2714 3123 2714 3462 
Q 2714 3802 2496 4013 
Q 2278 4224 1920 4224 
Q 1568 4224 1347 4013 
Q 1126 3802 1126 3462 
Q 1126 3123 1347 2912 
Q 1568 2701 1920 2701 
z
M 1920 454 
Q 2330 454 2586 694 
Q 2842 934 2842 1318 
Q 2842 1709 2586 1949 
Q 2330 2189 1920 2189 
Q 1510 2189 1254 1949 
Q 998 1709 998 1318 
Q 998 934 1254 694 
Q 1510 454 1920 454 
z
" transform="scale(0.015625)"/>
       </defs>
       <use xlink:href="#JetBrainsMono-Regular-30"/>
       <use xlink:href="#JetBrainsMono-Regular-34" transform="translate(59.999985 0)"/>
       <use xlink:href="#JetBrainsMono-Regular-2f" transform="translate(119.999969 0)"/>
       <use xlink:href="#JetBrainsMono-Regular-31" transform="translate(179.999954 0)"/>
       <use xlink:href="#JetBrainsMono-Regular-38" transform="translate(239.999939 0)"/>
      </g>
     </g>
    </g>
    <g id="xtick_6">
     <g id="line2d_11">
      <path d="M 436.051862 324.72 
L 436.051862 55.44 
" clip-path="url(#pcea2dffbb8)" style="fill: none; stroke-dasharray: 2.22,0.96; stroke-dashoffset: 0; stroke: #e2d5f5; stroke-opacity: 0.7; stroke-width: 0.6"/>
     </g>
     <g id="line2d_12">
      <g>
       <use xlink:href="#m57ba99467e" x="436.051862" y="324.72" style="fill: #9b8bb8; stroke: #9b8bb8; stroke-width: 0.8"/>
      </g>
     </g>
     <g id="text_6">
      <!-- 04/22 -->
      <g style="fill: #9b8bb8" transform="translate(424.511481 353.301793) rotate(-30) scale(0.1 -0.1)">
       <use xlink:href="#JetBrainsMono-Regular-30"/>
       <use xlink:href="#JetBrainsMono-Regular-34" transform="translate(59.999985 0)"/>
       <use xlink:href="#JetBrainsMono-Regular-2f" transform="translate(119.999969 0)"/>
       <use xlink:href="#JetBrainsMono-Regular-32" transform="translate(179.999954 0)"/>
       <use xlink:href="#JetBrainsMono-Regular-32" transform="translate(239.999939 0)"/>
      </g>
     </g>
    </g>
    <g id="xtick_7">
     <g id="line2d_13">
      <path d="M 503.741793 324.72 
L 503.741793 55.44 
" clip-path="url(#pcea2dffbb8)" style="fill: none; stroke-dasharray: 2.22,0.96; stroke-dashoffset: 0; stroke: #e2d5f5; stroke-opacity: 0.7; stroke-width: 0.6"/>
     </g>
     <g id="line2d_14">
      <g>
       <use xlink:href="#m57ba99467e" x="503.741793" y="324.72" style="fill: #9b8bb8; stroke: #9b8bb8; stroke-width: 0.8"/>
      </g>
     </g>
     <g id="text_7">
      <!-- 04/26 -->
      <g style="fill: #9b8bb8" transform="translate(492.201412 353.301793) rotate(-30) scale(0.1 -0.1)">
       <use xlink:href="#JetBrainsMono-Regular-30"/>
       <use xlink:href="#JetBrainsMono-Regular-34" transform="translate(59.999985 0)"/>
       <use xlink:href="#JetBrainsMono-Regular-2f" transform="translate(119.999969 0)"/>
       <use xlink:href="#JetBrainsMono-Regular-32" transform="translate(179.999954 0)"/>
       <use xlink:href="#JetBrainsMono-Regular-36" transform="translate(239.999939 0)"/>
      </g>
     </g>
    </g>
   </g>
   <g id="matplotlib.axis_2">
    <g id="ytick_1">
     <g id="line2d_15">
      <path d="M 55.296 309.989451 
L 546.048 309.989451 
" clip-path="url(#pcea2dffbb8)" style="fill: none; stroke-dasharray: 2.22,0.96; stroke-dashoffset: 0; stroke: #e2d5f5; stroke-opacity: 0.7; stroke-width: 0.6"/>
     </g>
     <g id="line2d_16">
      <defs>
       <path id="m984cbd7807" d="M 0 0 
L -3.5 0 
" style="stroke: #9b8bb8; stroke-width: 0.8"/>
      </defs>
      <g>
       <use xlink:href="#m984cbd7807" x="55.296" y="309.989451" style="fill: #9b8bb8; stroke: #9b8bb8; stroke-width: 0.8"/>
      </g>
     </g>
     <g id="text_8">
      <!-- 200 -->
      <g style="fill: #9b8bb8" transform="translate(30.296 313.639451) scale(0.1 -0.1)">
       <use xlink:href="#JetBrainsMono-Regular-32"/>
       <use xlink:href="#JetBrainsMono-Regular-30" transform="translate(59.999985 0)"/>
       <use xlink:href="#JetBrainsMono-Regular-30" transform="translate(119.999969 0)"/>
      </g>
     </g>
    </g>
    <g id="ytick_2">
     <g id="line2d_17">
      <path d="M 55.296 273.163079 
L 546.048 273.163079 
" clip-path="url(#pcea2dffbb8)" style="fill: none; stroke-dasharray: 2.22,0.96; stroke-dashoffset: 0; stroke: #e2d5f5; stroke-opacity: 0.7; stroke-width: 0.6"/>
     </g>
     <g id="line2d_18">
      <g>
       <use xlink:href="#m984cbd7807" x="55.296" y="273.163079" style="fill: #9b8bb8; stroke: #9b8bb8; stroke-width: 0.8"/>
      </g>
     </g>
     <g id="text_9">
      <!-- 210 -->
      <g style="fill: #9b8bb8" transform="translate(30.296 276.813079) scale(0.1 -0.1)">
       <use xlink:href="#JetBrainsMono-Regular-32"/>
       <use xlink:href="#JetBrainsMono-Regular-31" transform="translate(59.999985 0)"/>
       <use xlink:href="#JetBrainsMono-Regular-30" transform="translate(119.999969 0)"/>
      </g>
     </g>
    </g>
    <g id="ytick_3">
     <g id="line2d_19">
      <path d="M 55.296 236.336707 
L 546.048 236.336707 
" clip-path="url(#pcea2dffbb8)" style="fill: none; stroke-dasharray: 2.22,0.96; stroke-dashoffset: 0; stroke: #e2d5f5; stroke-opacity: 0.7; stroke-width: 0.6"/>
     </g>
     <g id="line2d_20">
      <g>
       <use xlink:href="#m984cbd7807" x="55.296" y="236.336707" style="fill: #9b8bb8; stroke: #9b8bb8; stroke-width: 0.8"/>
      </g>
     </g>
     <g id="text_10">
      <!-- 220 -->
      <g style="fill: #9b8bb8" transform="translate(30.296 239.986707) scale(0.1 -0.1)">
       <use xlink:href="#JetBrainsMono-Regular-32"/>
       <use xlink:href="#JetBrainsMono-Regular-32" transform="translate(59.999985 0)"/>
       <use xlink:href="#JetBrainsMono-Regular-30" transform="translate(119.999969 0)"/>
      </g>
     </g>
    </g>
    <g id="ytick_4">
     <g id="line2d_21">
      <path d="M 55.296 199.510334 
L 546.048 199.510334 
" clip-path="url(#pcea2dffbb8)" style="fill: none; stroke-dasharray: 2.22,0.96; stroke-dashoffset: 0; stroke: #e2d5f5; stroke-opacity: 0.7; stroke-width: 0.6"/>
     </g>
     <g id="line2d_22">
      <g>
       <use xlink:href="#m984cbd7807" x="55.296" y="199.510334" style="fill: #9b8bb8; stroke: #9b8bb8; stroke-width: 0.8"/>
      </g>
     </g>
     <g id="text_11">
      <!-- 230 -->
      <g style="fill: #9b8bb8" transform="translate(30.296 203.160334) scale(0.1 -0.1)">
       <defs>
        <path id="JetBrainsMono-Regular-33" d="M 1850 -64 
Q 1203 -64 825 297 
Q 448 659 448 1280 
L 1024 1280 
Q 1024 896 1248 672 
Q 1472 448 1856 448 
Q 2240 448 2464 672 
Q 2688 896 2688 1280 
L 2688 1600 
Q 2688 1984 2464 2208 
Q 2240 2432 1856 2432 
L 1350 2432 
L 1350 2931 
L 2496 4147 
L 576 4147 
L 576 4672 
L 3149 4672 
L 3149 4134 
L 2022 2938 
Q 2598 2893 2931 2537 
Q 3264 2182 3264 1600 
L 3264 1280 
Q 3264 659 2883 297 
Q 2502 -64 1850 -64 
z
" transform="scale(0.015625)"/>
       </defs>
       <use xlink:href="#JetBrainsMono-Regular-32"/>
       <use xlink:href="#JetBrainsMono-Regular-33" transform="translate(59.999985 0)"/>
       <use xlink:href="#JetBrainsMono-Regular-30" transform="translate(119.999969 0)"/>
      </g>
     </g>
    </g>
    <g id="ytick_5">
     <g id="line2d_23">
      <path d="M 55.296 162.683962 
L 546.048 162.683962 
" clip-path="url(#pcea2dffbb8)" style="fill: none; stroke-dasharray: 2.22,0.96; stroke-dashoffset: 0; stroke: #e2d5f5; stroke-opacity: 0.7; stroke-width: 0.6"/>
     </g>
     <g id="line2d_24">
      <g>
       <use xlink:href="#m984cbd7807" x="55.296" y="162.683962" style="fill: #9b8bb8; stroke: #9b8bb8; stroke-width: 0.8"/>
      </g>
     </g>
     <g id="text_12">
      <!-- 240 -->
      <g style="fill: #9b8bb8" transform="translate(30.296 166.333962) scale(0.1 -0.1)">
       <use xlink:href="#JetBrainsMono-Regular-32"/>
       <use xlink:href="#JetBrainsMono-Regular-34" transform="translate(59.999985 0)"/>
       <use xlink:href="#JetBrainsMono-Regular-30" transform="translate(119.999969 0)"/>
      </g>
     </g>
    </g>
    <g id="ytick_6">
     <g id="line2d_25">
      <path d="M 55.296 125.85759 
L 546.048 125.85759 
" clip-path="url(#pcea2dffbb8)" style="fill: none; stroke-dasharray: 2.22,0.96; stroke-dashoffset: 0; stroke: #e2d5f5; stroke-opacity: 0.7; stroke-width: 0.6"/>
     </g>
     <g id="line2d_26">
      <g>
       <use xlink:href="#m984cbd7807" x="55.296" y="125.85759" style="fill: #9b8bb8; stroke: #9b8bb8; stroke-width: 0.8"/>
      </g>
     </g>
     <g id="text_13">
      <!-- 250 -->
      <g style="fill: #9b8bb8" transform="translate(30.296 129.50759) scale(0.1 -0.1)">
       <defs>
        <path id="JetBrainsMono-Regular-35" d="M 1882 -64 
Q 1235 -64 857 297 
Q 480 659 480 1280 
L 1056 1280 
Q 1056 896 1280 672 
Q 1504 448 1888 448 
Q 2272 448 2496 672 
Q 2720 896 2720 1280 
L 2720 1568 
Q 2720 1952 2502 2176 
Q 2285 2400 1914 2400 
L 640 2400 
L 640 4672 
L 3130 4672 
L 3130 4147 
L 1178 4147 
L 1190 2925 
L 1946 2925 
Q 2592 2925 2944 2569 
Q 3296 2214 3296 1568 
L 3296 1280 
Q 3296 659 2915 297 
Q 2534 -64 1882 -64 
z
" transform="scale(0.015625)"/>
       </defs>
       <use xlink:href="#JetBrainsMono-Regular-32"/>
       <use xlink:href="#JetBrainsMono-Regular-35" transform="translate(59.999985 0)"/>
       <use xlink:href="#JetBrainsMono-Regular-30" transform="translate(119.999969 0)"/>
      </g>
     </g>
    </g>
    <g id="ytick_7">
     <g id="line2d_27">
      <path d="M 55.296 89.031218 
L 546.048 89.031218 
" clip-path="url(#pcea2dffbb8)" style="fill: none; stroke-dasharray: 2.22,0.96; stroke-dashoffset: 0; stroke: #e2d5f5; stroke-opacity: 0.7; stroke-width: 0.6"/>
     </g>
     <g id="line2d_28">
      <g>
       <use xlink:href="#m984cbd7807" x="55.296" y="89.031218" style="fill: #9b8bb8; stroke: #9b8bb8; stroke-width: 0.8"/>
      </g>
     </g>
     <g id="text_14">
      <!-- 260 -->
      <g style="fill: #9b8bb8" transform="translate(30.296 92.681218) scale(0.1 -0.1)">
       <use xlink:href="#JetBrainsMono-Regular-32"/>
       <use xlink:href="#JetBrainsMono-Regular-36" transform="translate(59.999985 0)"/>
       <use xlink:href="#JetBrainsMono-Regular-30" transform="translate(119.999969 0)"/>
      </g>
     </g>
    </g>
    <g id="text_15">
     <!-- Rating -->
     <g style="fill: #9b8bb8" transform="translate(24.496 208.08) rotate(-90) scale(0.1 -0.1)">
      <defs>
       <path id="JetBrainsMono-Regular-52" d="M 595 0 
L 595 4672 
L 2035 4672 
Q 2451 4672 2764 4502 
Q 3078 4333 3251 4032 
Q 3424 3731 3424 3328 
Q 3424 2854 3181 2515 
Q 2938 2176 2534 2042 
L 3488 0 
L 2854 0 
L 1939 1984 
L 1165 1984 
L 1165 0 
L 595 0 
z
M 1165 2502 
L 2035 2502 
Q 2394 2502 2611 2729 
Q 2829 2957 2829 3328 
Q 2829 3706 2611 3930 
Q 2394 4154 2035 4154 
L 1165 4154 
L 1165 2502 
z
" transform="scale(0.015625)"/>
       <path id="JetBrainsMono-Regular-61" d="M 1613 -64 
Q 1069 -64 749 240 
Q 429 544 429 1037 
Q 429 1363 576 1606 
Q 723 1850 985 1987 
Q 1248 2125 1587 2125 
L 2675 2125 
L 2675 2400 
Q 2675 3085 1926 3085 
Q 1594 3085 1389 2963 
Q 1184 2842 1171 2624 
L 595 2624 
Q 627 3040 982 3312 
Q 1338 3584 1926 3584 
Q 2566 3584 2908 3277 
Q 3251 2970 3251 2419 
L 3251 0 
L 2682 0 
L 2682 640 
L 2669 640 
Q 2618 314 2342 125 
Q 2067 -64 1613 -64 
z
M 1754 422 
Q 2176 422 2425 627 
Q 2675 832 2675 1184 
L 2675 1677 
L 1651 1677 
Q 1370 1677 1194 1507 
Q 1018 1338 1018 1056 
Q 1018 762 1213 592 
Q 1408 422 1754 422 
z
" transform="scale(0.015625)"/>
       <path id="JetBrainsMono-Regular-74" d="M 2272 0 
Q 1837 0 1574 253 
Q 1312 506 1312 928 
L 1312 2995 
L 301 2995 
L 301 3520 
L 1312 3520 
L 1312 4512 
L 1888 4512 
L 1888 3520 
L 3328 3520 
L 3328 2995 
L 1888 2995 
L 1888 928 
Q 1888 749 1993 637 
Q 2099 525 2272 525 
L 3296 525 
L 3296 0 
L 2272 0 
z
" transform="scale(0.015625)"/>
       <path id="JetBrainsMono-Regular-69" d="M 544 0 
L 544 525 
L 1792 525 
L 1792 2995 
L 672 2995 
L 672 3520 
L 2368 3520 
L 2368 525 
L 3552 525 
L 3552 0 
L 544 0 
z
M 2016 4154 
Q 1805 4154 1683 4262 
Q 1562 4371 1562 4557 
Q 1562 4749 1683 4861 
Q 1805 4973 2016 4973 
Q 2227 4973 2348 4861 
Q 2470 4749 2470 4557 
Q 2470 4371 2348 4262 
Q 2227 4154 2016 4154 
z
" transform="scale(0.015625)"/>
       <path id="JetBrainsMono-Regular-6e" d="M 589 0 
L 589 3520 
L 1165 3520 
L 1165 2848 
L 1171 2848 
Q 1216 3200 1459 3392 
Q 1702 3584 2106 3584 
Q 2637 3584 2950 3257 
Q 3264 2931 3264 2368 
L 3264 0 
L 2688 0 
L 2688 2266 
Q 2688 2669 2486 2883 
Q 2285 3098 1939 3098 
Q 1581 3098 1373 2874 
Q 1165 2650 1165 2240 
L 1165 0 
L 589 0 
z
" transform="scale(0.015625)"/>
       <path id="JetBrainsMono-Regular-67" d="M 1030 -1152 
L 1030 -627 
L 2022 -627 
Q 2323 -627 2496 -457 
Q 2669 -288 2669 0 
L 2669 320 
L 2682 896 
L 2662 896 
Q 2611 582 2361 412 
Q 2112 243 1734 243 
Q 1190 243 876 588 
Q 563 934 563 1536 
L 563 2278 
Q 563 2880 876 3232 
Q 1190 3584 1734 3584 
Q 2112 3584 2361 3405 
Q 2611 3226 2662 2912 
L 2675 2912 
L 2675 3520 
L 3245 3520 
L 3245 0 
Q 3245 -531 2915 -841 
Q 2586 -1152 2016 -1152 
L 1030 -1152 
z
M 1907 723 
Q 2266 723 2470 947 
Q 2675 1171 2675 1568 
L 2675 2240 
Q 2675 2637 2470 2861 
Q 2266 3085 1907 3085 
Q 1542 3085 1340 2873 
Q 1139 2662 1139 2304 
L 1139 1504 
Q 1139 1146 1340 934 
Q 1542 723 1907 723 
z
" transform="scale(0.015625)"/>
      </defs>
      <use xlink:href="#JetBrainsMono-Regular-52"/>
      <use xlink:href="#JetBrainsMono-Regular-61" transform="translate(59.999985 0)"/>
      <use xlink:href="#JetBrainsMono-Regular-74" transform="translate(119.999969 0)"/>
      <use xlink:href="#JetBrainsMono-Regular-69" transform="translate(179.999954 0)"/>
      <use xlink:href="#JetBrainsMono-Regular-6e" transform="translate(239.999939 0)"/>
      <use xlink:href="#JetBrainsMono-Regular-67" transform="translate(299.999924 0)"/>
     </g>
    </g>
   </g>
   <g id="patch_3">
    <path d="M 55.296 324.72 
L 55.296 55.44 
" style="fill: none; stroke: #d8c8ef; stroke-width: 0.8; stroke-linejoin: miter; stroke-linecap: square"/>
   </g>
   <g id="patch_4">
    <path d="M 55.296 324.72 
L 546.048 324.72 
" style="fill: none; stroke: #d8c8ef; stroke-width: 0.8; stroke-linejoin: miter; stroke-linecap: square"/>
   </g>
   <g id="FillBetweenPolyCollection_1">
    <defs>
     <path id="m89f4207afa" d="M 63.757241 -71.28 
L 63.757241 -89.693186 
L 65.341955 -92.265128 
L 66.92667 -94.079023 
L 68.511384 -95.213195 
L 70.096098 -95.745965 
L 71.680812 -95.755656 
L 73.265526 -95.320588 
L 74.85024 -94.519086 
L 76.434954 -93.42947 
L 78.019668 -92.130062 
L 79.604382 -90.699185 
L 81.189097 -89.215162 
L 82.773811 -87.756313 
L 84.358525 -86.400961 
L 85.943239 -85.227428 
L 87.527953 -84.314037 
L 89.112667 -83.739109 
L 90.697381 -83.580966 
L 92.282095 -83.917931 
L 93.866809 -84.828325 
L 95.451523 -86.390471 
L 97.036238 -88.682691 
L 98.620952 -91.772944 
L 100.205666 -95.597684 
L 101.79038 -100.002969 
L 103.375094 -104.833082 
L 104.959808 -109.932304 
L 106.544522 -115.144918 
L 108.129236 -120.315206 
L 109.71395 -125.28745 
L 111.298665 -129.905931 
L 112.883379 -134.014932 
L 114.468093 -137.458734 
L 116.052807 -140.121188 
L 117.637521 -142.062328 
L 119.222235 -143.391207 
L 120.806949 -144.216882 
L 122.391663 -144.648409 
L 123.976377 -144.794844 
L 125.561091 -144.765242 
L 127.145806 -144.668661 
L 128.73052 -144.614157 
L 130.315234 -144.710785 
L 131.899948 -145.067003 
L 133.484662 -145.739227 
L 135.069376 -146.692176 
L 136.65409 -147.881236 
L 138.238804 -149.261793 
L 139.823518 -150.789233 
L 141.408232 -152.418942 
L 142.992947 -154.106306 
L 144.577661 -155.806712 
L 146.162375 -157.475545 
L 147.747089 -159.068191 
L 149.331803 -160.542259 
L 150.916517 -161.887687 
L 152.501231 -163.118834 
L 154.085945 -164.250665 
L 155.670659 -165.298141 
L 157.255374 -166.276227 
L 158.840088 -167.199884 
L 160.424802 -168.084076 
L 162.009516 -168.943765 
L 163.59423 -169.793916 
L 165.178944 -170.64949 
L 166.763658 -171.528684 
L 168.348372 -172.465734 
L 169.933086 -173.499838 
L 171.5178 -174.670194 
L 173.102515 -176.016 
L 174.687229 -177.576457 
L 176.271943 -179.390763 
L 177.856657 -181.498117 
L 179.441371 -183.937718 
L 181.026085 -186.748764 
L 182.610799 -189.970095 
L 184.195513 -193.596947 
L 185.780227 -197.539872 
L 187.364942 -201.699694 
L 188.949656 -205.977236 
L 190.53437 -210.273323 
L 192.119084 -214.488778 
L 193.703798 -218.524424 
L 195.288512 -222.281085 
L 196.873226 -225.659585 
L 198.45794 -228.560747 
L 200.042654 -230.891132 
L 201.627368 -232.653675 
L 203.212083 -233.931279 
L 204.796797 -234.809267 
L 206.381511 -235.372961 
L 207.966225 -235.707686 
L 209.550939 -235.898764 
L 211.135653 -236.031519 
L 212.720367 -236.191272 
L 214.305081 -236.463349 
L 215.889795 -236.933071 
L 217.47451 -237.670596 
L 219.059224 -238.662246 
L 220.643938 -239.865532 
L 222.228652 -241.23794 
L 223.813366 -242.736954 
L 225.39808 -244.320061 
L 226.982794 -245.944745 
L 228.567508 -247.568491 
L 230.152222 -249.148786 
L 231.736936 -250.643113 
L 233.321651 -252.009078 
L 234.906365 -253.225536 
L 236.491079 -254.3169 
L 238.075793 -255.313469 
L 239.660507 -256.245542 
L 241.245221 -257.143417 
L 242.829935 -258.037395 
L 244.414649 -258.957773 
L 245.999363 -259.934852 
L 247.584077 -260.99893 
L 249.168792 -262.180307 
L 250.753506 -263.507883 
L 252.33822 -264.983226 
L 253.922934 -266.583001 
L 255.507648 -268.282962 
L 257.092362 -270.058866 
L 258.677076 -271.886466 
L 260.26179 -273.741518 
L 261.846504 -275.599778 
L 263.431219 -277.437 
L 265.015933 -279.22894 
L 266.600647 -280.951352 
L 268.185361 -282.585726 
L 269.770075 -284.148939 
L 271.354789 -285.671353 
L 272.939503 -287.183358 
L 274.524217 -288.715343 
L 276.108931 -290.297698 
L 277.693645 -291.960811 
L 279.27836 -293.735072 
L 280.863074 -295.65087 
L 282.447788 -297.738594 
L 284.032502 -300.028548 
L 285.617216 -302.52644 
L 287.20193 -305.179692 
L 288.786644 -307.927284 
L 290.371358 -310.708194 
L 291.956072 -313.461401 
L 293.540787 -316.125884 
L 295.125501 -318.640622 
L 296.710215 -320.944594 
L 298.294929 -322.976778 
L 299.879643 -324.676153 
L 301.464357 -325.984019 
L 303.049071 -326.895059 
L 304.633785 -327.457336 
L 306.218499 -327.721236 
L 307.803213 -327.737143 
L 309.387928 -327.555443 
L 310.972642 -327.226522 
L 312.557356 -326.800764 
L 314.14207 -326.328555 
L 315.726784 -325.860279 
L 317.311498 -325.446323 
L 318.896212 -325.131169 
L 320.480926 -324.918567 
L 322.06564 -324.795076 
L 323.650355 -324.747195 
L 325.235069 -324.761425 
L 326.819783 -324.824263 
L 328.404497 -324.92221 
L 329.989211 -325.041764 
L 331.573925 -325.169426 
L 333.158639 -325.291694 
L 334.743353 -325.395076 
L 336.328067 -325.470305 
L 337.912781 -325.519202 
L 339.497496 -325.545385 
L 341.08221 -325.552471 
L 342.666924 -325.544077 
L 344.251638 -325.523821 
L 345.836352 -325.495321 
L 347.421066 -325.462194 
L 349.00578 -325.428057 
L 350.590494 -325.396528 
L 352.175208 -325.371148 
L 353.759923 -325.353364 
L 355.344637 -325.342324 
L 356.929351 -325.337059 
L 358.514065 -325.336599 
L 360.098779 -325.339976 
L 361.683493 -325.346219 
L 363.268207 -325.35436 
L 364.852921 -325.363429 
L 366.437635 -325.372457 
L 368.022349 -325.380475 
L 369.607064 -325.386612 
L 371.191778 -325.390768 
L 372.776492 -325.393201 
L 374.361206 -325.394169 
L 375.94592 -325.393934 
L 377.530634 -325.392754 
L 379.115348 -325.390889 
L 380.700062 -325.388599 
L 382.284776 -325.386145 
L 383.86949 -325.383784 
L 385.454205 -325.381778 
L 387.038919 -325.380311 
L 388.623633 -325.379354 
L 390.208347 -325.378836 
L 391.793061 -325.378688 
L 393.377775 -325.37884 
L 394.962489 -325.379222 
L 396.547203 -325.379766 
L 398.131917 -325.380401 
L 399.716632 -325.381059 
L 401.301346 -325.381668 
L 402.88606 -325.382162 
L 404.470774 -325.382509 
L 406.055488 -325.382725 
L 407.640202 -325.38283 
L 409.224916 -325.382842 
L 410.80963 -325.38278 
L 412.394344 -325.382661 
L 413.979058 -325.382505 
L 415.563773 -325.382331 
L 417.148487 -325.382157 
L 418.733201 -325.382002 
L 420.317915 -325.381883 
L 421.902629 -325.381801 
L 423.487343 -325.381753 
L 425.072057 -325.381734 
L 426.656771 -325.381738 
L 428.241485 -325.38176 
L 429.8262 -325.381795 
L 431.410914 -325.381839 
L 432.995628 -325.381886 
L 434.580342 -325.381932 
L 436.165056 -325.381971 
L 437.74977 -325.381999 
L 439.334484 -325.382018 
L 440.919198 -325.382028 
L 442.503912 -325.382031 
L 444.088626 -325.382029 
L 445.673341 -325.382021 
L 447.258055 -325.382011 
L 448.842769 -325.381999 
L 450.427483 -325.381986 
L 452.012197 -325.381974 
L 453.596911 -325.381965 
L 455.181625 -325.381958 
L 456.766339 -325.381954 
L 458.351053 -325.381952 
L 459.935768 -325.381951 
L 461.520482 -325.381953 
L 463.105196 -325.381955 
L 464.68991 -325.381958 
L 466.274624 -325.381961 
L 467.859338 -325.381965 
L 469.444052 -325.381968 
L 471.028766 -325.38197 
L 472.61348 -325.381971 
L 474.198194 -325.381972 
L 475.782909 -325.381973 
L 477.367623 -325.381973 
L 478.952337 -325.381972 
L 480.537051 -325.381972 
L 482.121765 -325.381971 
L 483.706479 -325.38197 
L 485.291193 -325.381969 
L 486.875907 -325.381968 
L 488.460621 -325.381968 
L 490.045335 -325.381967 
L 491.63005 -325.381967 
L 493.214764 -325.381967 
L 494.799478 -325.381967 
L 496.384192 -325.381967 
L 497.968906 -325.381967 
L 499.55362 -325.381968 
L 501.138334 -325.381968 
L 502.723048 -325.381968 
L 504.307762 -325.381968 
L 505.892477 -325.381969 
L 507.477191 -325.381969 
L 509.061905 -325.381969 
L 510.646619 -325.381969 
L 512.231333 -325.381969 
L 513.816047 -325.381969 
L 515.400761 -325.381969 
L 516.985475 -325.381969 
L 518.570189 -325.381968 
L 520.154903 -325.381968 
L 521.739618 -325.381968 
L 523.324332 -325.381968 
L 524.909046 -325.381968 
L 526.49376 -325.381968 
L 528.078474 -325.381968 
L 529.663188 -325.381968 
L 531.247902 -325.381968 
L 532.832616 -325.381968 
L 534.41733 -325.381968 
L 536.002045 -325.381968 
L 537.586759 -325.381968 
L 537.586759 -71.28 
L 537.586759 -71.28 
L 536.002045 -71.28 
L 534.41733 -71.28 
L 532.832616 -71.28 
L 531.247902 -71.28 
L 529.663188 -71.28 
L 528.078474 -71.28 
L 526.49376 -71.28 
L 524.909046 -71.28 
L 523.324332 -71.28 
L 521.739618 -71.28 
L 520.154903 -71.28 
L 518.570189 -71.28 
L 516.985475 -71.28 
L 515.400761 -71.28 
L 513.816047 -71.28 
L 512.231333 -71.28 
L 510.646619 -71.28 
L 509.061905 -71.28 
L 507.477191 -71.28 
L 505.892477 -71.28 
L 504.307762 -71.28 
L 502.723048 -71.28 
L 501.138334 -71.28 
L 499.55362 -71.28 
L 497.968906 -71.28 
L 496.384192 -71.28 
L 494.799478 -71.28 
L 493.214764 -71.28 
L 491.63005 -71.28 
L 490.045335 -71.28 
L 488.460621 -71.28 
L 486.875907 -71.28 
L 485.291193 -71.28 
L 483.706479 -71.28 
L 482.121765 -71.28 
L 480.537051 -71.28 
L 478.952337 -71.28 
L 477.367623 -71.28 
L 475.782909 -71.28 
L 474.198194 -71.28 
L 472.61348 -71.28 
L 471.028766 -71.28 
L 469.444052 -71.28 
L 467.859338 -71.28 
L 466.274624 -71.28 
L 464.68991 -71.28 
L 463.105196 -71.28 
L 461.520482 -71.28 
L 459.935768 -71.28 
L 458.351053 -71.28 
L 456.766339 -71.28 
L 455.181625 -71.28 
L 453.596911 -71.28 
L 452.012197 -71.28 
L 450.427483 -71.28 
L 448.842769 -71.28 
L 447.258055 -71.28 
L 445.673341 -71.28 
L 444.088626 -71.28 
L 442.503912 -71.28 
L 440.919198 -71.28 
L 439.334484 -71.28 
L 437.74977 -71.28 
L 436.165056 -71.28 
L 434.580342 -71.28 
L 432.995628 -71.28 
L 431.410914 -71.28 
L 429.8262 -71.28 
L 428.241485 -71.28 
L 426.656771 -71.28 
L 425.072057 -71.28 
L 423.487343 -71.28 
L 421.902629 -71.28 
L 420.317915 -71.28 
L 418.733201 -71.28 
L 417.148487 -71.28 
L 415.563773 -71.28 
L 413.979058 -71.28 
L 412.394344 -71.28 
L 410.80963 -71.28 
L 409.224916 -71.28 
L 407.640202 -71.28 
L 406.055488 -71.28 
L 404.470774 -71.28 
L 402.88606 -71.28 
L 401.301346 -71.28 
L 399.716632 -71.28 
L 398.131917 -71.28 
L 396.547203 -71.28 
L 394.962489 -71.28 
L 393.377775 -71.28 
L 391.793061 -71.28 
L 390.208347 -71.28 
L 388.623633 -71.28 
L 387.038919 -71.28 
L 385.454205 -71.28 
L 383.86949 -71.28 
L 382.284776 -71.28 
L 380.700062 -71.28 
L 379.115348 -71.28 
L 377.530634 -71.28 
L 375.94592 -71.28 
L 374.361206 -71.28 
L 372.776492 -71.28 
L 371.191778 -71.28 
L 369.607064 -71.28 
L 368.022349 -71.28 
L 366.437635 -71.28 
L 364.852921 -71.28 
L 363.268207 -71.28 
L 361.683493 -71.28 
L 360.098779 -71.28 
L 358.514065 -71.28 
L 356.929351 -71.28 
L 355.344637 -71.28 
L 353.759923 -71.28 
L 352.175208 -71.28 
L 350.590494 -71.28 
L 349.00578 -71.28 
L 347.421066 -71.28 
L 345.836352 -71.28 
L 344.251638 -71.28 
L 342.666924 -71.28 
L 341.08221 -71.28 
L 339.497496 -71.28 
L 337.912781 -71.28 
L 336.328067 -71.28 
L 334.743353 -71.28 
L 333.158639 -71.28 
L 331.573925 -71.28 
L 329.989211 -71.28 
L 328.404497 -71.28 
L 326.819783 -71.28 
L 325.235069 -71.28 
L 323.650355 -71.28 
L 322.06564 -71.28 
L 320.480926 -71.28 
L 318.896212 -71.28 
L 317.311498 -71.28 
L 315.726784 -71.28 
L 314.14207 -71.28 
L 312.557356 -71.28 
L 310.972642 -71.28 
L 309.387928 -71.28 
L 307.803213 -71.28 
L 306.218499 -71.28 
L 304.633785 -71.28 
L 303.049071 -71.28 
L 301.464357 -71.28 
L 299.879643 -71.28 
L 298.294929 -71.28 
L 296.710215 -71.28 
L 295.125501 -71.28 
L 293.540787 -71.28 
L 291.956072 -71.28 
L 290.371358 -71.28 
L 288.786644 -71.28 
L 287.20193 -71.28 
L 285.617216 -71.28 
L 284.032502 -71.28 
L 282.447788 -71.28 
L 280.863074 -71.28 
L 279.27836 -71.28 
L 277.693645 -71.28 
L 276.108931 -71.28 
L 274.524217 -71.28 
L 272.939503 -71.28 
L 271.354789 -71.28 
L 269.770075 -71.28 
L 268.185361 -71.28 
L 266.600647 -71.28 
L 265.015933 -71.28 
L 263.431219 -71.28 
L 261.846504 -71.28 
L 260.26179 -71.28 
L 258.677076 -71.28 
L 257.092362 -71.28 
L 255.507648 -71.28 
L 253.922934 -71.28 
L 252.33822 -71.28 
L 250.753506 -71.28 
L 249.168792 -71.28 
L 247.584077 -71.28 
L 245.999363 -71.28 
L 244.414649 -71.28 
L 242.829935 -71.28 
L 241.245221 -71.28 
L 239.660507 -71.28 
L 238.075793 -71.28 
L 236.491079 -71.28 
L 234.906365 -71.28 
L 233.321651 -71.28 
L 231.736936 -71.28 
L 230.152222 -71.28 
L 228.567508 -71.28 
L 226.982794 -71.28 
L 225.39808 -71.28 
L 223.813366 -71.28 
L 222.228652 -71.28 
L 220.643938 -71.28 
L 219.059224 -71.28 
L 217.47451 -71.28 
L 215.889795 -71.28 
L 214.305081 -71.28 
L 212.720367 -71.28 
L 211.135653 -71.28 
L 209.550939 -71.28 
L 207.966225 -71.28 
L 206.381511 -71.28 
L 204.796797 -71.28 
L 203.212083 -71.28 
L 201.627368 -71.28 
L 200.042654 -71.28 
L 198.45794 -71.28 
L 196.873226 -71.28 
L 195.288512 -71.28 
L 193.703798 -71.28 
L 192.119084 -71.28 
L 190.53437 -71.28 
L 188.949656 -71.28 
L 187.364942 -71.28 
L 185.780227 -71.28 
L 184.195513 -71.28 
L 182.610799 -71.28 
L 181.026085 -71.28 
L 179.441371 -71.28 
L 177.856657 -71.28 
L 176.271943 -71.28 
L 174.687229 -71.28 
L 173.102515 -71.28 
L 171.5178 -71.28 
L 169.933086 -71.28 
L 168.348372 -71.28 
L 166.763658 -71.28 
L 165.178944 -71.28 
L 163.59423 -71.28 
L 162.009516 -71.28 
L 160.424802 -71.28 
L 158.840088 -71.28 
L 157.255374 -71.28 
L 155.670659 -71.28 
L 154.085945 -71.28 
L 152.501231 -71.28 
L 150.916517 -71.28 
L 149.331803 -71.28 
L 147.747089 -71.28 
L 146.162375 -71.28 
L 144.577661 -71.28 
L 142.992947 -71.28 
L 141.408232 -71.28 
L 139.823518 -71.28 
L 138.238804 -71.28 
L 136.65409 -71.28 
L 135.069376 -71.28 
L 133.484662 -71.28 
L 131.899948 -71.28 
L 130.315234 -71.28 
L 128.73052 -71.28 
L 127.145806 -71.28 
L 125.561091 -71.28 
L 123.976377 -71.28 
L 122.391663 -71.28 
L 120.806949 -71.28 
L 119.222235 -71.28 
L 117.637521 -71.28 
L 116.052807 -71.28 
L 114.468093 -71.28 
L 112.883379 -71.28 
L 111.298665 -71.28 
L 109.71395 -71.28 
L 108.129236 -71.28 
L 106.544522 -71.28 
L 104.959808 -71.28 
L 103.375094 -71.28 
L 101.79038 -71.28 
L 100.205666 -71.28 
L 98.620952 -71.28 
L 97.036238 -71.28 
L 95.451523 -71.28 
L 93.866809 -71.28 
L 92.282095 -71.28 
L 90.697381 -71.28 
L 89.112667 -71.28 
L 87.527953 -71.28 
L 85.943239 -71.28 
L 84.358525 -71.28 
L 82.773811 -71.28 
L 81.189097 -71.28 
L 79.604382 -71.28 
L 78.019668 -71.28 
L 76.434954 -71.28 
L 74.85024 -71.28 
L 73.265526 -71.28 
L 71.680812 -71.28 
L 70.096098 -71.28 
L 68.511384 -71.28 
L 66.92667 -71.28 
L 65.341955 -71.28 
L 63.757241 -71.28 
z
" style="stroke: #8b5cf6; stroke-opacity: 0.12"/>
    </defs>
    <g clip-path="url(#pcea2dffbb8)">
     <use xlink:href="#m89f4207afa" x="0" y="396" style="fill: #8b5cf6; fill-opacity: 0.12; stroke: #8b5cf6; stroke-opacity: 0.12"/>
    </g>
   </g>
   <g id="text_16">
    <!-- 265 -->
    <g style="fill: #8b5cf6" transform="translate(540.586759 67.618032) scale(0.12 -0.12)">
     <defs>
      <path id="JetBrainsMono-Bold-32" d="M 474 0 
L 474 723 
L 2157 2445 
Q 2566 2874 2566 3315 
Q 2566 3629 2384 3824 
Q 2202 4019 1894 4019 
Q 1581 4019 1392 3817 
Q 1203 3616 1203 3283 
L 403 3283 
Q 403 3718 595 4044 
Q 787 4371 1126 4553 
Q 1466 4736 1914 4736 
Q 2355 4736 2688 4563 
Q 3021 4390 3203 4080 
Q 3386 3770 3386 3354 
Q 3386 2995 3216 2636 
Q 3046 2278 2656 1894 
L 1478 723 
L 3443 723 
L 3443 0 
L 474 0 
z
" transform="scale(0.015625)"/>
      <path id="JetBrainsMono-Bold-36" d="M 1920 -64 
Q 1440 -64 1085 128 
Q 730 320 534 669 
Q 339 1018 339 1485 
Q 339 1760 457 2115 
Q 576 2470 781 2835 
L 1792 4672 
L 2701 4672 
L 1498 2611 
L 1523 2598 
Q 1619 2733 1804 2809 
Q 1990 2886 2208 2886 
Q 2598 2886 2889 2710 
Q 3181 2534 3341 2214 
Q 3501 1894 3501 1459 
Q 3501 998 3305 656 
Q 3110 314 2755 125 
Q 2400 -64 1920 -64 
z
M 1920 614 
Q 2278 614 2496 841 
Q 2714 1069 2714 1446 
Q 2714 1830 2496 2057 
Q 2278 2285 1920 2285 
Q 1562 2285 1344 2057 
Q 1126 1830 1126 1446 
Q 1126 1069 1344 841 
Q 1562 614 1920 614 
z
" transform="scale(0.015625)"/>
      <path id="JetBrainsMono-Bold-35" d="M 1894 -64 
Q 1210 -64 803 297 
Q 397 659 397 1280 
L 1197 1280 
Q 1197 986 1385 810 
Q 1574 634 1901 634 
Q 2227 634 2409 810 
Q 2592 986 2592 1299 
L 2592 1606 
Q 2592 1920 2413 2096 
Q 2234 2272 1907 2272 
L 557 2272 
L 557 4672 
L 3219 4672 
L 3219 3949 
L 1312 3949 
L 1318 2976 
L 1946 2976 
Q 2637 2976 3014 2617 
Q 3392 2259 3392 1606 
L 3392 1299 
Q 3392 666 2992 301 
Q 2592 -64 1894 -64 
z
" transform="scale(0.015625)"/>
     </defs>
     <use xlink:href="#JetBrainsMono-Bold-32"/>
     <use xlink:href="#JetBrainsMono-Bold-36" transform="translate(59.999985 0)"/>
     <use xlink:href="#JetBrainsMono-Bold-35" transform="translate(119.999969 0)"/>
    </g>
   </g>
   <g id="text_17">
    <!-- Rating History -->
    <g style="fill: #8b5cf6" transform="translate(55.296 50.44) scale(0.17 -0.17)">
     <defs>
      <path id="JetBrainsMono-Bold-52" d="M 493 0 
L 493 4672 
L 1965 4672 
Q 2432 4672 2774 4499 
Q 3117 4326 3309 4016 
Q 3501 3706 3501 3283 
Q 3501 2816 3270 2467 
Q 3040 2118 2650 1971 
L 3565 0 
L 2688 0 
L 1869 1856 
L 1286 1856 
L 1286 0 
L 493 0 
z
M 1286 2560 
L 1965 2560 
Q 2304 2560 2496 2745 
Q 2688 2931 2688 3258 
Q 2688 3584 2493 3776 
Q 2298 3968 1965 3968 
L 1286 3968 
L 1286 2560 
z
" transform="scale(0.015625)"/>
      <path id="JetBrainsMono-Bold-61" d="M 1530 -64 
Q 992 -64 681 240 
Q 371 544 371 1037 
Q 371 1549 723 1853 
Q 1075 2157 1690 2157 
L 2547 2157 
L 2547 2406 
Q 2547 2938 1926 2938 
Q 1645 2938 1478 2829 
Q 1312 2720 1293 2522 
L 525 2522 
Q 550 2995 924 3289 
Q 1299 3584 1933 3584 
Q 2605 3584 2976 3270 
Q 3347 2957 3347 2387 
L 3347 0 
L 2566 0 
L 2566 659 
Q 2522 320 2246 128 
Q 1971 -64 1530 -64 
z
M 1786 589 
Q 2138 589 2342 761 
Q 2547 934 2547 1222 
L 2547 1638 
L 1728 1638 
Q 1466 1638 1312 1491 
Q 1158 1344 1158 1114 
Q 1158 877 1321 733 
Q 1485 589 1786 589 
z
" transform="scale(0.015625)"/>
      <path id="JetBrainsMono-Bold-74" d="M 2272 0 
Q 1779 0 1488 285 
Q 1197 570 1197 1056 
L 1197 2797 
L 224 2797 
L 224 3520 
L 1197 3520 
L 1197 4512 
L 2003 4512 
L 2003 3520 
L 3405 3520 
L 3405 2797 
L 2003 2797 
L 2003 1075 
Q 2003 922 2089 822 
Q 2176 723 2330 723 
L 3373 723 
L 3373 0 
L 2272 0 
z
" transform="scale(0.015625)"/>
      <path id="JetBrainsMono-Bold-69" d="M 486 0 
L 486 723 
L 1690 723 
L 1690 2797 
L 614 2797 
L 614 3520 
L 2490 3520 
L 2490 723 
L 3571 723 
L 3571 0 
L 486 0 
z
M 2032 4109 
Q 1789 4109 1648 4233 
Q 1507 4358 1507 4570 
Q 1507 4781 1648 4905 
Q 1789 5030 2032 5030 
Q 2275 5030 2416 4905 
Q 2557 4781 2557 4570 
Q 2557 4358 2416 4233 
Q 2275 4109 2032 4109 
z
" transform="scale(0.015625)"/>
      <path id="JetBrainsMono-Bold-6e" d="M 493 0 
L 493 3520 
L 1274 3520 
L 1274 2861 
Q 1338 3194 1587 3389 
Q 1837 3584 2221 3584 
Q 2739 3584 3049 3238 
Q 3360 2893 3360 2310 
L 3360 0 
L 2560 0 
L 2560 2214 
Q 2560 2541 2390 2717 
Q 2221 2893 1933 2893 
Q 1632 2893 1462 2713 
Q 1293 2534 1293 2202 
L 1293 0 
L 493 0 
z
" transform="scale(0.015625)"/>
      <path id="JetBrainsMono-Bold-67" d="M 973 -1152 
L 973 -486 
L 1965 -486 
Q 2246 -486 2400 -336 
Q 2554 -186 2554 70 
L 2554 282 
L 2566 832 
Q 2458 538 2218 374 
Q 1978 211 1632 211 
Q 1094 211 777 572 
Q 461 934 461 1555 
L 461 2240 
Q 461 2854 777 3219 
Q 1094 3584 1632 3584 
Q 1978 3584 2218 3421 
Q 2458 3258 2566 2957 
L 2566 3520 
L 3347 3520 
L 3347 51 
Q 3347 -506 2979 -829 
Q 2611 -1152 1978 -1152 
L 973 -1152 
z
M 1901 896 
Q 2208 896 2377 1078 
Q 2547 1261 2547 1587 
L 2547 2202 
Q 2547 2528 2377 2710 
Q 2208 2893 1901 2893 
Q 1594 2893 1427 2717 
Q 1261 2541 1261 2227 
L 1261 1562 
Q 1261 1248 1427 1072 
Q 1594 896 1901 896 
z
" transform="scale(0.015625)"/>
      <path id="JetBrainsMono-Bold-20" transform="scale(0.015625)"/>
      <path id="JetBrainsMono-Bold-48" d="M 493 0 
L 493 4672 
L 1293 4672 
L 1293 2778 
L 2547 2778 
L 2547 4672 
L 3347 4672 
L 3347 0 
L 2547 0 
L 2547 2054 
L 1293 2054 
L 1293 0 
L 493 0 
z
" transform="scale(0.015625)"/>
      <path id="JetBrainsMono-Bold-73" d="M 1773 -58 
Q 1146 -58 781 227 
Q 416 512 416 998 
L 1203 998 
Q 1203 794 1353 685 
Q 1504 576 1773 576 
L 2054 576 
Q 2342 576 2499 685 
Q 2656 794 2656 998 
Q 2656 1190 2547 1283 
Q 2438 1376 2214 1408 
L 1338 1523 
Q 915 1581 688 1849 
Q 461 2118 461 2547 
Q 461 3046 793 3312 
Q 1126 3578 1754 3578 
L 2048 3578 
Q 2637 3578 2995 3309 
Q 3354 3040 3366 2592 
L 2573 2592 
Q 2566 2758 2425 2857 
Q 2285 2957 2048 2957 
L 1754 2957 
Q 1498 2957 1363 2851 
Q 1229 2746 1229 2566 
Q 1229 2406 1328 2329 
Q 1427 2253 1619 2234 
L 2445 2118 
Q 2931 2061 3177 1776 
Q 3424 1491 3424 1011 
Q 3424 499 3075 220 
Q 2726 -58 2054 -58 
L 1773 -58 
z
" transform="scale(0.015625)"/>
      <path id="JetBrainsMono-Bold-6f" d="M 1920 -58 
Q 1242 -58 845 323 
Q 448 704 448 1350 
L 448 2170 
Q 448 2822 845 3200 
Q 1242 3578 1920 3578 
Q 2598 3578 2995 3200 
Q 3392 2822 3392 2170 
L 3392 1350 
Q 3392 704 2995 323 
Q 2598 -58 1920 -58 
z
M 1920 640 
Q 2240 640 2416 816 
Q 2592 992 2592 1325 
L 2592 2195 
Q 2592 2528 2416 2704 
Q 2240 2880 1920 2880 
Q 1600 2880 1424 2704 
Q 1248 2528 1248 2195 
L 1248 1325 
Q 1248 992 1424 816 
Q 1600 640 1920 640 
z
" transform="scale(0.015625)"/>
      <path id="JetBrainsMono-Bold-72" d="M 621 0 
L 621 3520 
L 1402 3520 
L 1402 2835 
Q 1466 3181 1718 3382 
Q 1971 3584 2374 3584 
Q 2912 3584 3213 3238 
Q 3514 2893 3514 2272 
L 3514 1939 
L 2714 1939 
L 2714 2234 
Q 2714 2554 2547 2723 
Q 2381 2893 2074 2893 
Q 1754 2893 1587 2701 
Q 1421 2509 1421 2157 
L 1421 0 
L 621 0 
z
" transform="scale(0.015625)"/>
      <path id="JetBrainsMono-Bold-79" d="M 1056 -1152 
L 1555 192 
L 230 3520 
L 1075 3520 
L 1754 1722 
Q 1811 1562 1868 1373 
Q 1926 1184 1952 1024 
Q 1971 1184 2025 1373 
Q 2080 1562 2138 1722 
L 2765 3520 
L 3610 3520 
L 1894 -1152 
L 1056 -1152 
z
" transform="scale(0.015625)"/>
     </defs>
     <use xlink:href="#JetBrainsMono-Bold-52"/>
     <use xlink:href="#JetBrainsMono-Bold-61" transform="translate(59.999985 0)"/>
     <use xlink:href="#JetBrainsMono-Bold-74" transform="translate(119.999969 0)"/>
     <use xlink:href="#JetBrainsMono-Bold-69" transform="translate(179.999954 0)"/>
     <use xlink:href="#JetBrainsMono-Bold-6e" transform="translate(239.999939 0)"/>
     <use xlink:href="#JetBrainsMono-Bold-67" transform="translate(299.999924 0)"/>
     <use xlink:href="#JetBrainsMono-Bold-20" transform="translate(359.999908 0)"/>
     <use xlink:href="#JetBrainsMono-Bold-48" transform="translate(419.999893 0)"/>
     <use xlink:href="#JetBrainsMono-Bold-69" transform="translate(479.999878 0)"/>
     <use xlink:href="#JetBrainsMono-Bold-73" transform="translate(539.999863 0)"/>
     <use xlink:href="#JetBrainsMono-Bold-74" transform="translate(599.999847 0)"/>
     <use xlink:href="#JetBrainsMono-Bold-6f" transform="translate(659.999832 0)"/>
     <use xlink:href="#JetBrainsMono-Bold-72" transform="translate(719.999817 0)"/>
     <use xlink:href="#JetBrainsMono-Bold-79" transform="translate(779.999802 0)"/>
    </g>
   </g>
   <g id="line2d_29">
    <path d="M 63.757241 306.306814 
L 65.341955 303.734872 
L 66.92667 301.920977 
L 68.511384 300.786805 
L 70.096098 300.254035 
L 71.680812 300.244344 
L 73.265526 300.679412 
L 74.85024 301.480914 
L 76.434954 302.57053 
L 79.604382 305.300815 
L 82.773811 308.243687 
L 84.358525 309.599039 
L 85.943239 310.772572 
L 87.527953 311.685963 
L 89.112667 312.260891 
L 90.697381 312.419034 
L 92.282095 312.082069 
L 93.866809 311.171675 
L 95.451523 309.609529 
L 97.036238 307.317309 
L 98.620952 304.227056 
L 100.205666 300.402316 
L 101.79038 295.997031 
L 104.959808 286.067696 
L 109.71395 270.71255 
L 111.298665 266.094069 
L 112.883379 261.985068 
L 114.468093 258.541266 
L 116.052807 255.878812 
L 117.637521 253.937672 
L 119.222235 252.608793 
L 120.806949 251.783118 
L 122.391663 251.351591 
L 123.976377 251.205156 
L 130.315234 251.289215 
L 131.899948 250.932997 
L 133.484662 250.260773 
L 135.069376 249.307824 
L 136.65409 248.118764 
L 139.823518 245.210767 
L 144.577661 240.193288 
L 147.747089 236.931809 
L 150.916517 234.112313 
L 154.085945 231.749335 
L 157.255374 229.723773 
L 162.009516 227.056235 
L 168.348372 223.534266 
L 169.933086 222.500162 
L 171.5178 221.329806 
L 173.102515 219.984 
L 174.687229 218.423543 
L 176.271943 216.609237 
L 177.856657 214.501883 
L 179.441371 212.062282 
L 181.026085 209.251236 
L 182.610799 206.029905 
L 184.195513 202.403053 
L 187.364942 194.300306 
L 193.703798 177.475576 
L 195.288512 173.718915 
L 196.873226 170.340415 
L 198.45794 167.439253 
L 200.042654 165.108868 
L 201.627368 163.346325 
L 203.212083 162.068721 
L 204.796797 161.190733 
L 206.381511 160.627039 
L 207.966225 160.292314 
L 214.305081 159.536651 
L 215.889795 159.066929 
L 217.47451 158.329404 
L 219.059224 157.337754 
L 220.643938 156.134468 
L 223.813366 153.263046 
L 231.736936 145.356887 
L 233.321651 143.990922 
L 236.491079 141.6831 
L 239.660507 139.754458 
L 245.999363 136.065148 
L 249.168792 133.819693 
L 250.753506 132.492117 
L 253.922934 129.416999 
L 257.092362 125.941134 
L 266.600647 115.048648 
L 269.770075 111.851061 
L 276.108931 105.702302 
L 279.27836 102.264928 
L 282.447788 98.261406 
L 284.032502 95.971452 
L 287.20193 90.820308 
L 293.540787 79.874116 
L 295.125501 77.359378 
L 296.710215 75.055406 
L 298.294929 73.023222 
L 299.879643 71.323847 
L 301.464357 70.015981 
L 303.049071 69.104941 
L 304.633785 68.542664 
L 306.218499 68.278764 
L 307.803213 68.262857 
L 309.387928 68.444557 
L 312.557356 69.199236 
L 317.311498 70.553677 
L 320.480926 71.081433 
L 323.650355 71.252805 
L 326.819783 71.175737 
L 339.497496 70.454615 
L 345.836352 70.504679 
L 358.514065 70.663401 
L 431.410914 70.618161 
L 537.586759 70.618032 
L 537.586759 70.618032 
" clip-path="url(#pcea2dffbb8)" style="fill: none; stroke: #8b5cf6; stroke-width: 1.2; stroke-linecap: round"/>
   </g>
   <g id="PathCollection_1">
    <defs>
     <path id="m2a57e7074f" d="M 0 2.236068 
C 0.593012 2.236068 1.161816 2.000462 1.581139 1.581139 
C 2.000462 1.161816 2.236068 0.593012 2.236068 0 
C 2.236068 -0.593012 2.000462 -1.161816 1.581139 -1.581139 
C 1.161816 -2.000462 0.593012 -2.236068 0 -2.236068 
C -0.593012 -2.236068 -1.161816 -2.000462 -1.581139 -1.581139 
C -2.000462 -1.161816 -2.236068 -0.593012 -2.236068 0 
C -2.236068 0.593012 -2.000462 1.161816 -1.581139 1.581139 
C -1.161816 2.000462 -0.593012 2.236068 0 2.236068 
z
" style="stroke: #ffffff; stroke-width: 0.8"/>
    </defs>
    <g clip-path="url(#pcea2dffbb8)">
     <use xlink:href="#m2a57e7074f" x="537.586759" y="70.618032" style="fill: #8b5cf6; stroke: #ffffff; stroke-width: 0.8"/>
    </g>
   </g>
  </g>
  <g id="axes_2">
   <g id="text_18">
    <!-- Rating -->
    <g style="fill: #9b8bb8" transform="translate(565.7472 48.312) scale(0.11 -0.11)">
     <use xlink:href="#JetBrainsMono-Regular-52"/>
     <use xlink:href="#JetBrainsMono-Regular-61" transform="translate(59.999985 0)"/>
     <use xlink:href="#JetBrainsMono-Regular-74" transform="translate(119.999969 0)"/>
     <use xlink:href="#JetBrainsMono-Regular-69" transform="translate(179.999954 0)"/>
     <use xlink:href="#JetBrainsMono-Regular-6e" transform="translate(239.999939 0)"/>
     <use xlink:href="#JetBrainsMono-Regular-67" transform="translate(299.999924 0)"/>
    </g>
   </g>
   <g id="text_19">
    <!-- 265 -->
    <g style="fill: #8b5cf6" transform="translate(565.7472 81.548) scale(0.26 -0.26)">
     <use xlink:href="#JetBrainsMono-Bold-32"/>
     <use xlink:href="#JetBrainsMono-Bold-36" transform="translate(59.999985 0)"/>
     <use xlink:href="#JetBrainsMono-Bold-35" transform="translate(119.999969 0)"/>
    </g>
   </g>
   <g id="text_20">
    <!-- Rank -->
    <g style="fill: #9b8bb8" transform="translate(565.7472 119.592) scale(0.11 -0.11)">
     <defs>
      <path id="JetBrainsMono-Regular-6b" d="M 621 0 
L 621 4672 
L 1197 4672 
L 1197 2067 
L 1869 2067 
L 2854 3520 
L 3514 3520 
L 2381 1843 
L 3578 0 
L 2906 0 
L 1882 1568 
L 1197 1568 
L 1197 0 
L 621 0 
z
" transform="scale(0.015625)"/>
     </defs>
     <use xlink:href="#JetBrainsMono-Regular-52"/>
     <use xlink:href="#JetBrainsMono-Regular-61" transform="translate(59.999985 0)"/>
     <use xlink:href="#JetBrainsMono-Regular-6e" transform="translate(119.999969 0)"/>
     <use xlink:href="#JetBrainsMono-Regular-6b" transform="translate(179.999954 0)"/>
    </g>
   </g>
   <g id="text_21">
    <!-- #118,029 -->
    <g style="fill: #8b5cf6" transform="translate(565.7472 148.104) scale(0.14 -0.14)">
     <defs>
      <path id="JetBrainsMono-Bold-23" d="M 493 0 
L 710 1216 
L 224 1216 
L 224 1760 
L 800 1760 
L 998 2912 
L 448 2912 
L 448 3456 
L 1094 3456 
L 1312 4672 
L 1875 4672 
L 1658 3456 
L 2566 3456 
L 2784 4672 
L 3347 4672 
L 3130 3456 
L 3616 3456 
L 3616 2912 
L 3034 2912 
L 2835 1760 
L 3392 1760 
L 3392 1216 
L 2739 1216 
L 2528 0 
L 1965 0 
L 2182 1216 
L 1267 1216 
L 1056 0 
L 493 0 
z
M 1363 1760 
L 2272 1760 
L 2470 2912 
L 1562 2912 
L 1363 1760 
z
" transform="scale(0.015625)"/>
      <path id="JetBrainsMono-Bold-31" d="M 538 0 
L 538 723 
L 1754 723 
L 1754 3898 
L 531 3002 
L 531 3898 
L 1606 4672 
L 2554 4672 
L 2554 723 
L 3533 723 
L 3533 0 
L 538 0 
z
" transform="scale(0.015625)"/>
      <path id="JetBrainsMono-Bold-38" d="M 1920 -64 
Q 1453 -64 1094 112 
Q 736 288 537 598 
Q 339 909 339 1318 
Q 339 1747 585 2067 
Q 832 2387 1229 2470 
L 1229 2483 
Q 890 2554 682 2829 
Q 474 3104 474 3482 
Q 474 3853 656 4134 
Q 838 4416 1164 4576 
Q 1491 4736 1920 4736 
Q 2349 4736 2678 4576 
Q 3008 4416 3190 4134 
Q 3373 3853 3373 3482 
Q 3373 3104 3161 2829 
Q 2950 2554 2611 2483 
L 2611 2470 
Q 3008 2387 3254 2067 
Q 3501 1747 3501 1318 
Q 3501 909 3302 598 
Q 3104 288 2745 112 
Q 2387 -64 1920 -64 
z
M 1920 2758 
Q 2221 2758 2406 2940 
Q 2592 3123 2592 3411 
Q 2592 3706 2406 3888 
Q 2221 4070 1920 4070 
Q 1619 4070 1433 3888 
Q 1248 3706 1248 3411 
Q 1248 3123 1433 2940 
Q 1619 2758 1920 2758 
z
M 1920 614 
Q 2272 614 2496 819 
Q 2720 1024 2720 1357 
Q 2720 1696 2496 1904 
Q 2272 2112 1920 2112 
Q 1568 2112 1344 1904 
Q 1120 1696 1120 1357 
Q 1120 1024 1344 819 
Q 1568 614 1920 614 
z
" transform="scale(0.015625)"/>
      <path id="JetBrainsMono-Bold-2c" d="M 1216 -1024 
L 1555 934 
L 2470 934 
L 1984 -1024 
L 1216 -1024 
z
" transform="scale(0.015625)"/>
      <path id="JetBrainsMono-Bold-30" d="M 1920 -64 
Q 1466 -64 1133 109 
Q 800 282 617 595 
Q 435 909 435 1331 
L 435 3341 
Q 435 3763 617 4076 
Q 800 4390 1133 4563 
Q 1466 4736 1920 4736 
Q 2374 4736 2707 4563 
Q 3040 4390 3222 4076 
Q 3405 3763 3405 3341 
L 3405 1331 
Q 3405 909 3222 595 
Q 3040 282 2707 109 
Q 2374 -64 1920 -64 
z
M 1920 627 
Q 2253 627 2451 819 
Q 2650 1011 2650 1331 
L 2650 3341 
Q 2650 3661 2454 3853 
Q 2259 4045 1920 4045 
Q 1581 4045 1385 3853 
Q 1190 3661 1190 3341 
L 1190 1331 
Q 1190 1011 1388 819 
Q 1587 627 1920 627 
z
M 1920 1952 
Q 1728 1952 1613 2057 
Q 1498 2163 1498 2355 
Q 1498 2547 1613 2646 
Q 1728 2746 1920 2746 
Q 2112 2746 2227 2646 
Q 2342 2547 2342 2355 
Q 2342 2163 2227 2057 
Q 2112 1952 1920 1952 
z
" transform="scale(0.015625)"/>
      <path id="JetBrainsMono-Bold-39" d="M 1120 0 
L 2214 1888 
Q 2138 1830 2035 1788 
Q 1933 1747 1728 1747 
Q 1344 1747 1027 1932 
Q 710 2118 524 2448 
Q 339 2778 339 3213 
Q 339 3674 534 4016 
Q 730 4358 1085 4547 
Q 1440 4736 1920 4736 
Q 2400 4736 2755 4544 
Q 3110 4352 3305 4003 
Q 3501 3654 3501 3187 
Q 3501 2912 3382 2557 
Q 3264 2202 3059 1837 
L 2048 0 
L 1120 0 
z
M 1920 2387 
Q 2278 2387 2496 2614 
Q 2714 2842 2714 3226 
Q 2714 3603 2496 3830 
Q 2278 4058 1920 4058 
Q 1562 4058 1344 3830 
Q 1126 3603 1126 3226 
Q 1126 2842 1344 2614 
Q 1562 2387 1920 2387 
z
" transform="scale(0.015625)"/>
     </defs>
     <use xlink:href="#JetBrainsMono-Bold-23"/>
     <use xlink:href="#JetBrainsMono-Bold-31" transform="translate(59.999985 0)"/>
     <use xlink:href="#JetBrainsMono-Bold-31" transform="translate(119.999969 0)"/>
     <use xlink:href="#JetBrainsMono-Bold-38" transform="translate(179.999954 0)"/>
     <use xlink:href="#JetBrainsMono-Bold-2c" transform="translate(239.999939 0)"/>
     <use xlink:href="#JetBrainsMono-Bold-30" transform="translate(299.999924 0)"/>
     <use xlink:href="#JetBrainsMono-Bold-32" transform="translate(359.999908 0)"/>
     <use xlink:href="#JetBrainsMono-Bold-39" transform="translate(419.999893 0)"/>
    </g>
   </g>
   <g id="text_22">
    <!-- ─ 0 -->
    <g style="fill: #9b8bb8" transform="translate(565.7472 169.488) scale(0.11 -0.11)">
     <defs>
      <path id="JetBrainsMono-Bold-2500" d="M -128 2048 
L -128 2688 
L 3968 2688 
L 3968 2048 
L -128 2048 
z
" transform="scale(0.015625)"/>
     </defs>
     <use xlink:href="#JetBrainsMono-Bold-2500"/>
     <use xlink:href="#JetBrainsMono-Bold-20" transform="translate(59.999985 0)"/>
     <use xlink:href="#JetBrainsMono-Bold-30" transform="translate(119.999969 0)"/>
    </g>
   </g>
  </g>
 </g>
 <defs>
  <clipPath id="pcea2dffbb8">
   <rect x="55.296" y="55.44" width="490.752" height="269.28"/>
  </clipPath>
 </defs>
</svg>
