<?xml version="1.0" encoding="utf-8" standalone="no"?>
<!DOCTYPE svg PUBLIC "-//W3C//DTD SVG 1.1//EN"
  "http://www.w3.org/Graphics/SVG/1.1/DTD/svg11.dtd">
<svg xmlns:xlink="http://www.w3.org/1999/xlink" width="691.2pt" height="396pt" viewBox="0 0 691.2 396" xmlns="http://www.w3.org/2000/svg" version="1.1">
 <metadata>
  <rdf:RDF xmlns:dc="http://purl.org/dc/elements/1.1/" xmlns:cc="http://creativecommons.org/ns#" xmlns:rdf="http://www.w3.org/1999/02/22-rdf-syntax-ns#">
   <cc:Work>
    <dc:type rdf:resource="http://purl.org/dc/dcmitype/StillImage"/>
    <dc:date>2026-04-17T15:47:03.475065</dc:date>
    <dc:format>image/svg+xml</dc:format>
    <dc:creator>
     <cc:Agent>
      <dc:title>Matplotlib v3.10.8, https://matplotlib.org/</dc:title>
     </cc:Agent>
    </dc:creator>
   </cc:Work>
  </rdf:RDF>
 </metadata>
 <defs>
  <style type="text/css">*{stroke-linejoin: round; stroke-linecap: butt}</style>
 </defs>
 <g id="figure_1">
  <g id="patch_1">
   <path d="M 0 396 
L 691.2 396 
L 691.2 0 
L 0 0 
L 0 396 
z
" style="fill: none"/>
  </g>
  <g id="axes_1">
   <g id="patch_2">
    <path d="M 55.296 324.72 
L 546.048 324.72 
L 546.048 55.44 
L 55.296 55.44 
L 55.296 324.72 
z
" style="fill: none"/>
   </g>
   <g id="matplotlib.axis_1">
    <g id="xtick_1">
     <g id="line2d_1">
      <path d="M 96.192 324.72 
L 96.192 55.44 
" clip-path="url(#pb3ce4308c2)" style="fill: none; stroke-dasharray: 2.22,0.96; stroke-dashoffset: 0; stroke: #e2d5f5; stroke-opacity: 0.7; stroke-width: 0.6"/>
     </g>
     <g id="line2d_2">
      <defs>
       <path id="mf8a7be3701" d="M 0 0 
L 0 3.5 
" style="stroke: #9b8bb8; stroke-width: 0.8"/>
      </defs>
      <g>
       <use xlink:href="#mf8a7be3701" x="96.192" y="324.72" style="fill: #9b8bb8; stroke: #9b8bb8; stroke-width: 0.8"/>
      </g>
     </g>
     <g id="text_1">
      <!-- 04/01 -->
      <g style="fill: #9b8bb8" transform="translate(84.651619 353.301793) rotate(-30) scale(0.1 -0.1)">
       <defs>
        <path id="JetBrainsMono-Regular-30" d="M 1920 -64 
Q 1274 -64 893 310 
Q 512 685 512 1312 
L 512 3360 
Q 512 3987 893 4361 
Q 1274 4736 1920 4736 
Q 2566 4736 2947 4361 
Q 3328 3987 3328 3360 
L 3328 1312 
Q 3328 896 3155 585 
Q 2982 275 2665 105 
Q 2349 -64 1920 -64 
z
M 1920 429 
Q 2304 429 2537 675 
Q 2771 922 2771 1312 
L 2771 3360 
Q 2771 3750 2537 3996 
Q 2304 4243 1920 4243 
Q 1536 4243 1302 3996 
Q 1069 3750 1069 3360 
L 1069 1312 
Q 1069 922 1302 675 
Q 1536 429 1920 429 
z
M 1920 1984 
Q 1747 1984 1641 2080 
Q 1536 2176 1536 2355 
Q 1536 2528 1641 2621 
Q 1747 2714 1920 2714 
Q 2093 2714 2198 2621 
Q 2304 2528 2304 2355 
Q 2304 2176 2198 2080 
Q 2093 1984 1920 1984 
z
" transform="scale(0.015625)"/>
        <path id="JetBrainsMono-Regular-34" d="M 2560 0 
L 2560 1024 
L 448 1024 
L 448 1926 
L 2150 4672 
L 2803 4672 
L 1024 1798 
L 1024 1549 
L 2560 1549 
L 2560 2688 
L 3136 2688 
L 3136 0 
L 2560 0 
z
" transform="scale(0.015625)"/>
        <path id="JetBrainsMono-Regular-2f" d="M 480 -704 
L 2752 5312 
L 3360 5312 
L 1088 -704 
L 480 -704 
z
" transform="scale(0.015625)"/>
        <path id="JetBrainsMono-Regular-31" d="M 576 0 
L 576 525 
L 1843 525 
L 1843 4173 
L 576 3226 
L 576 3885 
L 1632 4672 
L 2419 4672 
L 2419 525 
L 3456 525 
L 3456 0 
L 576 0 
z
" transform="scale(0.015625)"/>
       </defs>
       <use xlink:href="#JetBrainsMono-Regular-30"/>
       <use xlink:href="#JetBrainsMono-Regular-34" transform="translate(59.999985 0)"/>
       <use xlink:href="#JetBrainsMono-Regular-2f" transform="translate(119.999969 0)"/>
       <use xlink:href="#JetBrainsMono-Regular-30" transform="translate(179.999954 0)"/>
       <use xlink:href="#JetBrainsMono-Regular-31" transform="translate(239.999939 0)"/>
      </g>
     </g>
    </g>
    <g id="xtick_2">
     <g id="line2d_3">
      <path d="M 150.72 324.72 
L 150.72 55.44 
" clip-path="url(#pb3ce4308c2)" style="fill: none; stroke-dasharray: 2.22,0.96; stroke-dashoffset: 0; stroke: #e2d5f5; stroke-opacity: 0.7; stroke-width: 0.6"/>
     </g>
     <g id="line2d_4">
      <g>
       <use xlink:href="#mf8a7be3701" x="150.72" y="324.72" style="fill: #9b8bb8; stroke: #9b8bb8; stroke-width: 0.8"/>
      </g>
     </g>
     <g id="text_2">
      <!-- 04/03 -->
      <g style="fill: #9b8bb8" transform="translate(139.179619 353.301793) rotate(-30) scale(0.1 -0.1)">
       <defs>
        <path id="JetBrainsMono-Regular-33" d="M 1850 -64 
Q 1203 -64 825 297 
Q 448 659 448 1280 
L 1024 1280 
Q 1024 896 1248 672 
Q 1472 448 1856 448 
Q 2240 448 2464 672 
Q 2688 896 2688 1280 
L 2688 1600 
Q 2688 1984 2464 2208 
Q 2240 2432 1856 2432 
L 1350 2432 
L 1350 2931 
L 2496 4147 
L 576 4147 
L 576 4672 
L 3149 4672 
L 3149 4134 
L 2022 2938 
Q 2598 2893 2931 2537 
Q 3264 2182 3264 1600 
L 3264 1280 
Q 3264 659 2883 297 
Q 2502 -64 1850 -64 
z
" transform="scale(0.015625)"/>
       </defs>
       <use xlink:href="#JetBrainsMono-Regular-30"/>
       <use xlink:href="#JetBrainsMono-Regular-34" transform="translate(59.999985 0)"/>
       <use xlink:href="#JetBrainsMono-Regular-2f" transform="translate(119.999969 0)"/>
       <use xlink:href="#JetBrainsMono-Regular-30" transform="translate(179.999954 0)"/>
       <use xlink:href="#JetBrainsMono-Regular-33" transform="translate(239.999939 0)"/>
      </g>
     </g>
    </g>
    <g id="xtick_3">
     <g id="line2d_5">
      <path d="M 205.248 324.72 
L 205.248 55.44 
" clip-path="url(#pb3ce4308c2)" style="fill: none; stroke-dasharray: 2.22,0.96; stroke-dashoffset: 0; stroke: #e2d5f5; stroke-opacity: 0.7; stroke-width: 0.6"/>
     </g>
     <g id="line2d_6">
      <g>
       <use xlink:href="#mf8a7be3701" x="205.248" y="324.72" style="fill: #9b8bb8; stroke: #9b8bb8; stroke-width: 0.8"/>
      </g>
     </g>
     <g id="text_3">
      <!-- 04/05 -->
      <g style="fill: #9b8bb8" transform="translate(193.707619 353.301793) rotate(-30) scale(0.1 -0.1)">
       <defs>
        <path id="JetBrainsMono-Regular-35" d="M 1882 -64 
Q 1235 -64 857 297 
Q 480 659 480 1280 
L 1056 1280 
Q 1056 896 1280 672 
Q 1504 448 1888 448 
Q 2272 448 2496 672 
Q 2720 896 2720 1280 
L 2720 1568 
Q 2720 1952 2502 2176 
Q 2285 2400 1914 2400 
L 640 2400 
L 640 4672 
L 3130 4672 
L 3130 4147 
L 1178 4147 
L 1190 2925 
L 1946 2925 
Q 2592 2925 2944 2569 
Q 3296 2214 3296 1568 
L 3296 1280 
Q 3296 659 2915 297 
Q 2534 -64 1882 -64 
z
" transform="scale(0.015625)"/>
       </defs>
       <use xlink:href="#JetBrainsMono-Regular-30"/>
       <use xlink:href="#JetBrainsMono-Regular-34" transform="translate(59.999985 0)"/>
       <use xlink:href="#JetBrainsMono-Regular-2f" transform="translate(119.999969 0)"/>
       <use xlink:href="#JetBrainsMono-Regular-30" transform="translate(179.999954 0)"/>
       <use xlink:href="#JetBrainsMono-Regular-35" transform="translate(239.999939 0)"/>
      </g>
     </g>
    </g>
    <g id="xtick_4">
     <g id="line2d_7">
      <path d="M 259.776 324.72 
L 259.776 55.44 
" clip-path="url(#pb3ce4308c2)" style="fill: none; stroke-dasharray: 2.22,0.96; stroke-dashoffset: 0; stroke: #e2d5f5; stroke-opacity: 0.7; stroke-width: 0.6"/>
     </g>
     <g id="line2d_8">
      <g>
       <use xlink:href="#mf8a7be3701" x="259.776" y="324.72" style="fill: #9b8bb8; stroke: #9b8bb8; stroke-width: 0.8"/>
      </g>
     </g>
     <g id="text_4">
      <!-- 04/07 -->
      <g style="fill: #9b8bb8" transform="translate(248.235619 353.301793) rotate(-30) scale(0.1 -0.1)">
       <defs>
        <path id="JetBrainsMono-Regular-37" d="M 1216 0 
L 2880 4147 
L 1101 4147 
L 1101 3392 
L 525 3392 
L 525 4672 
L 3494 4672 
L 3494 4134 
L 1843 0 
L 1216 0 
z
" transform="scale(0.015625)"/>
       </defs>
       <use xlink:href="#JetBrainsMono-Regular-30"/>
       <use xlink:href="#JetBrainsMono-Regular-34" transform="translate(59.999985 0)"/>
       <use xlink:href="#JetBrainsMono-Regular-2f" transform="translate(119.999969 0)"/>
       <use xlink:href="#JetBrainsMono-Regular-30" transform="translate(179.999954 0)"/>
       <use xlink:href="#JetBrainsMono-Regular-37" transform="translate(239.999939 0)"/>
      </g>
     </g>
    </g>
    <g id="xtick_5">
     <g id="line2d_9">
      <path d="M 314.304 324.72 
L 314.304 55.44 
" clip-path="url(#pb3ce4308c2)" style="fill: none; stroke-dasharray: 2.22,0.96; stroke-dashoffset: 0; stroke: #e2d5f5; stroke-opacity: 0.7; stroke-width: 0.6"/>
     </g>
     <g id="line2d_10">
      <g>
       <use xlink:href="#mf8a7be3701" x="314.304" y="324.72" style="fill: #9b8bb8; stroke: #9b8bb8; stroke-width: 0.8"/>
      </g>
     </g>
     <g id="text_5">
      <!-- 04/09 -->
      <g style="fill: #9b8bb8" transform="translate(302.763619 353.301793) rotate(-30) scale(0.1 -0.1)">
       <defs>
        <path id="JetBrainsMono-Regular-39" d="M 1248 0 
L 2400 2003 
L 2381 2016 
Q 2317 1914 2144 1853 
Q 1971 1792 1766 1792 
Q 1363 1792 1059 1974 
Q 755 2157 582 2477 
Q 410 2797 410 3219 
Q 410 3674 602 4013 
Q 794 4352 1133 4544 
Q 1472 4736 1914 4736 
Q 2368 4736 2707 4547 
Q 3046 4358 3238 4022 
Q 3430 3686 3430 3245 
Q 3430 2938 3315 2614 
Q 3200 2291 3002 1939 
L 1920 0 
L 1248 0 
z
M 1920 2240 
Q 2336 2240 2595 2515 
Q 2854 2790 2854 3232 
Q 2854 3674 2595 3949 
Q 2336 4224 1920 4224 
Q 1504 4224 1245 3949 
Q 986 3674 986 3232 
Q 986 2790 1245 2515 
Q 1504 2240 1920 2240 
z
" transform="scale(0.015625)"/>
       </defs>
       <use xlink:href="#JetBrainsMono-Regular-30"/>
       <use xlink:href="#JetBrainsMono-Regular-34" transform="translate(59.999985 0)"/>
       <use xlink:href="#JetBrainsMono-Regular-2f" transform="translate(119.999969 0)"/>
       <use xlink:href="#JetBrainsMono-Regular-30" transform="translate(179.999954 0)"/>
       <use xlink:href="#JetBrainsMono-Regular-39" transform="translate(239.999939 0)"/>
      </g>
     </g>
    </g>
    <g id="xtick_6">
     <g id="line2d_11">
      <path d="M 368.832 324.72 
L 368.832 55.44 
" clip-path="url(#pb3ce4308c2)" style="fill: none; stroke-dasharray: 2.22,0.96; stroke-dashoffset: 0; stroke: #e2d5f5; stroke-opacity: 0.7; stroke-width: 0.6"/>
     </g>
     <g id="line2d_12">
      <g>
       <use xlink:href="#mf8a7be3701" x="368.832" y="324.72" style="fill: #9b8bb8; stroke: #9b8bb8; stroke-width: 0.8"/>
      </g>
     </g>
     <g id="text_6">
      <!-- 04/11 -->
      <g style="fill: #9b8bb8" transform="translate(357.291619 353.301793) rotate(-30) scale(0.1 -0.1)">
       <use xlink:href="#JetBrainsMono-Regular-30"/>
       <use xlink:href="#JetBrainsMono-Regular-34" transform="translate(59.999985 0)"/>
       <use xlink:href="#JetBrainsMono-Regular-2f" transform="translate(119.999969 0)"/>
       <use xlink:href="#JetBrainsMono-Regular-31" transform="translate(179.999954 0)"/>
       <use xlink:href="#JetBrainsMono-Regular-31" transform="translate(239.999939 0)"/>
      </g>
     </g>
    </g>
    <g id="xtick_7">
     <g id="line2d_13">
      <path d="M 423.36 324.72 
L 423.36 55.44 
" clip-path="url(#pb3ce4308c2)" style="fill: none; stroke-dasharray: 2.22,0.96; stroke-dashoffset: 0; stroke: #e2d5f5; stroke-opacity: 0.7; stroke-width: 0.6"/>
     </g>
     <g id="line2d_14">
      <g>
       <use xlink:href="#mf8a7be3701" x="423.36" y="324.72" style="fill: #9b8bb8; stroke: #9b8bb8; stroke-width: 0.8"/>
      </g>
     </g>
     <g id="text_7">
      <!-- 04/13 -->
      <g style="fill: #9b8bb8" transform="translate(411.819619 353.301793) rotate(-30) scale(0.1 -0.1)">
       <use xlink:href="#JetBrainsMono-Regular-30"/>
       <use xlink:href="#JetBrainsMono-Regular-34" transform="translate(59.999985 0)"/>
       <use xlink:href="#JetBrainsMono-Regular-2f" transform="translate(119.999969 0)"/>
       <use xlink:href="#JetBrainsMono-Regular-31" transform="translate(179.999954 0)"/>
       <use xlink:href="#JetBrainsMono-Regular-33" transform="translate(239.999939 0)"/>
      </g>
     </g>
    </g>
    <g id="xtick_8">
     <g id="line2d_15">
      <path d="M 477.888 324.72 
L 477.888 55.44 
" clip-path="url(#pb3ce4308c2)" style="fill: none; stroke-dasharray: 2.22,0.96; stroke-dashoffset: 0; stroke: #e2d5f5; stroke-opacity: 0.7; stroke-width: 0.6"/>
     </g>
     <g id="line2d_16">
      <g>
       <use xlink:href="#mf8a7be3701" x="477.888" y="324.72" style="fill: #9b8bb8; stroke: #9b8bb8; stroke-width: 0.8"/>
      </g>
     </g>
     <g id="text_8">
      <!-- 04/15 -->
      <g style="fill: #9b8bb8" transform="translate(466.347619 353.301793) rotate(-30) scale(0.1 -0.1)">
       <use xlink:href="#JetBrainsMono-Regular-30"/>
       <use xlink:href="#JetBrainsMono-Regular-34" transform="translate(59.999985 0)"/>
       <use xlink:href="#JetBrainsMono-Regular-2f" transform="translate(119.999969 0)"/>
       <use xlink:href="#JetBrainsMono-Regular-31" transform="translate(179.999954 0)"/>
       <use xlink:href="#JetBrainsMono-Regular-35" transform="translate(239.999939 0)"/>
      </g>
     </g>
    </g>
    <g id="xtick_9">
     <g id="line2d_17">
      <path d="M 532.416 324.72 
L 532.416 55.44 
" clip-path="url(#pb3ce4308c2)" style="fill: none; stroke-dasharray: 2.22,0.96; stroke-dashoffset: 0; stroke: #e2d5f5; stroke-opacity: 0.7; stroke-width: 0.6"/>
     </g>
     <g id="line2d_18">
      <g>
       <use xlink:href="#mf8a7be3701" x="532.416" y="324.72" style="fill: #9b8bb8; stroke: #9b8bb8; stroke-width: 0.8"/>
      </g>
     </g>
     <g id="text_9">
      <!-- 04/17 -->
      <g style="fill: #9b8bb8" transform="translate(520.875619 353.301793) rotate(-30) scale(0.1 -0.1)">
       <use xlink:href="#JetBrainsMono-Regular-30"/>
       <use xlink:href="#JetBrainsMono-Regular-34" transform="translate(59.999985 0)"/>
       <use xlink:href="#JetBrainsMono-Regular-2f" transform="translate(119.999969 0)"/>
       <use xlink:href="#JetBrainsMono-Regular-31" transform="translate(179.999954 0)"/>
       <use xlink:href="#JetBrainsMono-Regular-37" transform="translate(239.999939 0)"/>
      </g>
     </g>
    </g>
   </g>
   <g id="matplotlib.axis_2">
    <g id="ytick_1">
     <g id="line2d_19">
      <path d="M 55.296 309.992613 
L 546.048 309.992613 
" clip-path="url(#pb3ce4308c2)" style="fill: none; stroke-dasharray: 2.22,0.96; stroke-dashoffset: 0; stroke: #e2d5f5; stroke-opacity: 0.7; stroke-width: 0.6"/>
     </g>
     <g id="line2d_20">
      <defs>
       <path id="mdebd5a0878" d="M 0 0 
L -3.5 0 
" style="stroke: #9b8bb8; stroke-width: 0.8"/>
      </defs>
      <g>
       <use xlink:href="#mdebd5a0878" x="55.296" y="309.992613" style="fill: #9b8bb8; stroke: #9b8bb8; stroke-width: 0.8"/>
      </g>
     </g>
     <g id="text_10">
      <!-- 200 -->
      <g style="fill: #9b8bb8" transform="translate(30.296 313.642613) scale(0.1 -0.1)">
       <defs>
        <path id="JetBrainsMono-Regular-32" d="M 550 0 
L 550 531 
L 2106 2195 
Q 2445 2554 2585 2835 
Q 2726 3117 2726 3386 
Q 2726 3770 2505 3997 
Q 2285 4224 1907 4224 
Q 1517 4224 1289 3990 
Q 1062 3757 1062 3360 
L 486 3360 
Q 506 3994 890 4365 
Q 1274 4736 1907 4736 
Q 2554 4736 2934 4371 
Q 3315 4006 3315 3379 
Q 3315 3046 3132 2675 
Q 2950 2304 2509 1843 
L 1248 525 
L 3373 525 
L 3373 0 
L 550 0 
z
" transform="scale(0.015625)"/>
       </defs>
       <use xlink:href="#JetBrainsMono-Regular-32"/>
       <use xlink:href="#JetBrainsMono-Regular-30" transform="translate(59.999985 0)"/>
       <use xlink:href="#JetBrainsMono-Regular-30" transform="translate(119.999969 0)"/>
      </g>
     </g>
    </g>
    <g id="ytick_2">
     <g id="line2d_21">
      <path d="M 55.296 273.174145 
L 546.048 273.174145 
" clip-path="url(#pb3ce4308c2)" style="fill: none; stroke-dasharray: 2.22,0.96; stroke-dashoffset: 0; stroke: #e2d5f5; stroke-opacity: 0.7; stroke-width: 0.6"/>
     </g>
     <g id="line2d_22">
      <g>
       <use xlink:href="#mdebd5a0878" x="55.296" y="273.174145" style="fill: #9b8bb8; stroke: #9b8bb8; stroke-width: 0.8"/>
      </g>
     </g>
     <g id="text_11">
      <!-- 210 -->
      <g style="fill: #9b8bb8" transform="translate(30.296 276.824145) scale(0.1 -0.1)">
       <use xlink:href="#JetBrainsMono-Regular-32"/>
       <use xlink:href="#JetBrainsMono-Regular-31" transform="translate(59.999985 0)"/>
       <use xlink:href="#JetBrainsMono-Regular-30" transform="translate(119.999969 0)"/>
      </g>
     </g>
    </g>
    <g id="ytick_3">
     <g id="line2d_23">
      <path d="M 55.296 236.355677 
L 546.048 236.355677 
" clip-path="url(#pb3ce4308c2)" style="fill: none; stroke-dasharray: 2.22,0.96; stroke-dashoffset: 0; stroke: #e2d5f5; stroke-opacity: 0.7; stroke-width: 0.6"/>
     </g>
     <g id="line2d_24">
      <g>
       <use xlink:href="#mdebd5a0878" x="55.296" y="236.355677" style="fill: #9b8bb8; stroke: #9b8bb8; stroke-width: 0.8"/>
      </g>
     </g>
     <g id="text_12">
      <!-- 220 -->
      <g style="fill: #9b8bb8" transform="translate(30.296 240.005677) scale(0.1 -0.1)">
       <use xlink:href="#JetBrainsMono-Regular-32"/>
       <use xlink:href="#JetBrainsMono-Regular-32" transform="translate(59.999985 0)"/>
       <use xlink:href="#JetBrainsMono-Regular-30" transform="translate(119.999969 0)"/>
      </g>
     </g>
    </g>
    <g id="ytick_4">
     <g id="line2d_25">
      <path d="M 55.296 199.537209 
L 546.048 199.537209 
" clip-path="url(#pb3ce4308c2)" style="fill: none; stroke-dasharray: 2.22,0.96; stroke-dashoffset: 0; stroke: #e2d5f5; stroke-opacity: 0.7; stroke-width: 0.6"/>
     </g>
     <g id="line2d_26">
      <g>
       <use xlink:href="#mdebd5a0878" x="55.296" y="199.537209" style="fill: #9b8bb8; stroke: #9b8bb8; stroke-width: 0.8"/>
      </g>
     </g>
     <g id="text_13">
      <!-- 230 -->
      <g style="fill: #9b8bb8" transform="translate(30.296 203.187209) scale(0.1 -0.1)">
       <use xlink:href="#JetBrainsMono-Regular-32"/>
       <use xlink:href="#JetBrainsMono-Regular-33" transform="translate(59.999985 0)"/>
       <use xlink:href="#JetBrainsMono-Regular-30" transform="translate(119.999969 0)"/>
      </g>
     </g>
    </g>
    <g id="ytick_5">
     <g id="line2d_27">
      <path d="M 55.296 162.718742 
L 546.048 162.718742 
" clip-path="url(#pb3ce4308c2)" style="fill: none; stroke-dasharray: 2.22,0.96; stroke-dashoffset: 0; stroke: #e2d5f5; stroke-opacity: 0.7; stroke-width: 0.6"/>
     </g>
     <g id="line2d_28">
      <g>
       <use xlink:href="#mdebd5a0878" x="55.296" y="162.718742" style="fill: #9b8bb8; stroke: #9b8bb8; stroke-width: 0.8"/>
      </g>
     </g>
     <g id="text_14">
      <!-- 240 -->
      <g style="fill: #9b8bb8" transform="translate(30.296 166.368742) scale(0.1 -0.1)">
       <use xlink:href="#JetBrainsMono-Regular-32"/>
       <use xlink:href="#JetBrainsMono-Regular-34" transform="translate(59.999985 0)"/>
       <use xlink:href="#JetBrainsMono-Regular-30" transform="translate(119.999969 0)"/>
      </g>
     </g>
    </g>
    <g id="ytick_6">
     <g id="line2d_29">
      <path d="M 55.296 125.900274 
L 546.048 125.900274 
" clip-path="url(#pb3ce4308c2)" style="fill: none; stroke-dasharray: 2.22,0.96; stroke-dashoffset: 0; stroke: #e2d5f5; stroke-opacity: 0.7; stroke-width: 0.6"/>
     </g>
     <g id="line2d_30">
      <g>
       <use xlink:href="#mdebd5a0878" x="55.296" y="125.900274" style="fill: #9b8bb8; stroke: #9b8bb8; stroke-width: 0.8"/>
      </g>
     </g>
     <g id="text_15">
      <!-- 250 -->
      <g style="fill: #9b8bb8" transform="translate(30.296 129.550274) scale(0.1 -0.1)">
       <use xlink:href="#JetBrainsMono-Regular-32"/>
       <use xlink:href="#JetBrainsMono-Regular-35" transform="translate(59.999985 0)"/>
       <use xlink:href="#JetBrainsMono-Regular-30" transform="translate(119.999969 0)"/>
      </g>
     </g>
    </g>
    <g id="ytick_7">
     <g id="line2d_31">
      <path d="M 55.296 89.081806 
L 546.048 89.081806 
" clip-path="url(#pb3ce4308c2)" style="fill: none; stroke-dasharray: 2.22,0.96; stroke-dashoffset: 0; stroke: #e2d5f5; stroke-opacity: 0.7; stroke-width: 0.6"/>
     </g>
     <g id="line2d_32">
      <g>
       <use xlink:href="#mdebd5a0878" x="55.296" y="89.081806" style="fill: #9b8bb8; stroke: #9b8bb8; stroke-width: 0.8"/>
      </g>
     </g>
     <g id="text_16">
      <!-- 260 -->
      <g style="fill: #9b8bb8" transform="translate(30.296 92.731806) scale(0.1 -0.1)">
       <defs>
        <path id="JetBrainsMono-Regular-36" d="M 1926 -64 
Q 1478 -64 1136 125 
Q 794 314 602 650 
Q 410 986 410 1427 
Q 410 1734 525 2057 
Q 640 2381 838 2733 
L 1920 4672 
L 2560 4672 
L 1408 2669 
L 1427 2656 
Q 1510 2765 1676 2822 
Q 1843 2880 2042 2880 
Q 2458 2880 2768 2697 
Q 3078 2515 3254 2195 
Q 3430 1875 3430 1453 
Q 3430 1005 3238 662 
Q 3046 320 2710 128 
Q 2374 -64 1926 -64 
z
M 1920 448 
Q 2336 448 2595 723 
Q 2854 998 2854 1440 
Q 2854 1882 2595 2157 
Q 2336 2432 1920 2432 
Q 1504 2432 1245 2157 
Q 986 1882 986 1440 
Q 986 998 1245 723 
Q 1504 448 1920 448 
z
" transform="scale(0.015625)"/>
       </defs>
       <use xlink:href="#JetBrainsMono-Regular-32"/>
       <use xlink:href="#JetBrainsMono-Regular-36" transform="translate(59.999985 0)"/>
       <use xlink:href="#JetBrainsMono-Regular-30" transform="translate(119.999969 0)"/>
      </g>
     </g>
    </g>
    <g id="text_17">
     <!-- Rating -->
     <g style="fill: #9b8bb8" transform="translate(24.496 208.08) rotate(-90) scale(0.1 -0.1)">
      <defs>
       <path id="JetBrainsMono-Regular-52" d="M 595 0 
L 595 4672 
L 2035 4672 
Q 2451 4672 2764 4502 
Q 3078 4333 3251 4032 
Q 3424 3731 3424 3328 
Q 3424 2854 3181 2515 
Q 2938 2176 2534 2042 
L 3488 0 
L 2854 0 
L 1939 1984 
L 1165 1984 
L 1165 0 
L 595 0 
z
M 1165 2502 
L 2035 2502 
Q 2394 2502 2611 2729 
Q 2829 2957 2829 3328 
Q 2829 3706 2611 3930 
Q 2394 4154 2035 4154 
L 1165 4154 
L 1165 2502 
z
" transform="scale(0.015625)"/>
       <path id="JetBrainsMono-Regular-61" d="M 1613 -64 
Q 1069 -64 749 240 
Q 429 544 429 1037 
Q 429 1363 576 1606 
Q 723 1850 985 1987 
Q 1248 2125 1587 2125 
L 2675 2125 
L 2675 2400 
Q 2675 3085 1926 3085 
Q 1594 3085 1389 2963 
Q 1184 2842 1171 2624 
L 595 2624 
Q 627 3040 982 3312 
Q 1338 3584 1926 3584 
Q 2566 3584 2908 3277 
Q 3251 2970 3251 2419 
L 3251 0 
L 2682 0 
L 2682 640 
L 2669 640 
Q 2618 314 2342 125 
Q 2067 -64 1613 -64 
z
M 1754 422 
Q 2176 422 2425 627 
Q 2675 832 2675 1184 
L 2675 1677 
L 1651 1677 
Q 1370 1677 1194 1507 
Q 1018 1338 1018 1056 
Q 1018 762 1213 592 
Q 1408 422 1754 422 
z
" transform="scale(0.015625)"/>
       <path id="JetBrainsMono-Regular-74" d="M 2272 0 
Q 1837 0 1574 253 
Q 1312 506 1312 928 
L 1312 2995 
L 301 2995 
L 301 3520 
L 1312 3520 
L 1312 4512 
L 1888 4512 
L 1888 3520 
L 3328 3520 
L 3328 2995 
L 1888 2995 
L 1888 928 
Q 1888 749 1993 637 
Q 2099 525 2272 525 
L 3296 525 
L 3296 0 
L 2272 0 
z
" transform="scale(0.015625)"/>
       <path id="JetBrainsMono-Regular-69" d="M 544 0 
L 544 525 
L 1792 525 
L 1792 2995 
L 672 2995 
L 672 3520 
L 2368 3520 
L 2368 525 
L 3552 525 
L 3552 0 
L 544 0 
z
M 2016 4154 
Q 1805 4154 1683 4262 
Q 1562 4371 1562 4557 
Q 1562 4749 1683 4861 
Q 1805 4973 2016 4973 
Q 2227 4973 2348 4861 
Q 2470 4749 2470 4557 
Q 2470 4371 2348 4262 
Q 2227 4154 2016 4154 
z
" transform="scale(0.015625)"/>
       <path id="JetBrainsMono-Regular-6e" d="M 589 0 
L 589 3520 
L 1165 3520 
L 1165 2848 
L 1171 2848 
Q 1216 3200 1459 3392 
Q 1702 3584 2106 3584 
Q 2637 3584 2950 3257 
Q 3264 2931 3264 2368 
L 3264 0 
L 2688 0 
L 2688 2266 
Q 2688 2669 2486 2883 
Q 2285 3098 1939 3098 
Q 1581 3098 1373 2874 
Q 1165 2650 1165 2240 
L 1165 0 
L 589 0 
z
" transform="scale(0.015625)"/>
       <path id="JetBrainsMono-Regular-67" d="M 1030 -1152 
L 1030 -627 
L 2022 -627 
Q 2323 -627 2496 -457 
Q 2669 -288 2669 0 
L 2669 320 
L 2682 896 
L 2662 896 
Q 2611 582 2361 412 
Q 2112 243 1734 243 
Q 1190 243 876 588 
Q 563 934 563 1536 
L 563 2278 
Q 563 2880 876 3232 
Q 1190 3584 1734 3584 
Q 2112 3584 2361 3405 
Q 2611 3226 2662 2912 
L 2675 2912 
L 2675 3520 
L 3245 3520 
L 3245 0 
Q 3245 -531 2915 -841 
Q 2586 -1152 2016 -1152 
L 1030 -1152 
z
M 1907 723 
Q 2266 723 2470 947 
Q 2675 1171 2675 1568 
L 2675 2240 
Q 2675 2637 2470 2861 
Q 2266 3085 1907 3085 
Q 1542 3085 1340 2873 
Q 1139 2662 1139 2304 
L 1139 1504 
Q 1139 1146 1340 934 
Q 1542 723 1907 723 
z
" transform="scale(0.015625)"/>
      </defs>
      <use xlink:href="#JetBrainsMono-Regular-52"/>
      <use xlink:href="#JetBrainsMono-Regular-61" transform="translate(59.999985 0)"/>
      <use xlink:href="#JetBrainsMono-Regular-74" transform="translate(119.999969 0)"/>
      <use xlink:href="#JetBrainsMono-Regular-69" transform="translate(179.999954 0)"/>
      <use xlink:href="#JetBrainsMono-Regular-6e" transform="translate(239.999939 0)"/>
      <use xlink:href="#JetBrainsMono-Regular-67" transform="translate(299.999924 0)"/>
     </g>
    </g>
   </g>
   <g id="patch_3">
    <path d="M 55.296 324.72 
L 55.296 55.44 
" style="fill: none; stroke: #d8c8ef; stroke-width: 0.8; stroke-linejoin: miter; stroke-linecap: square"/>
   </g>
   <g id="patch_4">
    <path d="M 55.296 324.72 
L 546.048 324.72 
" style="fill: none; stroke: #d8c8ef; stroke-width: 0.8; stroke-linejoin: miter; stroke-linecap: square"/>
   </g>
   <g id="FillBetweenPolyCollection_1">
    <defs>
     <path id="m8ec6fbb59c" d="M 68.928 -71.28 
L 68.928 -89.689234 
L 70.478127 -91.345156 
L 72.028254 -92.710365 
L 73.578381 -93.802387 
L 75.128508 -94.638747 
L 76.678635 -95.23697 
L 78.228763 -95.614581 
L 79.77889 -95.789105 
L 81.329017 -95.778069 
L 82.879144 -95.598996 
L 84.429271 -95.269413 
L 85.979398 -94.806844 
L 87.529525 -94.228814 
L 89.079652 -93.55285 
L 90.629779 -92.796475 
L 92.179906 -91.977216 
L 93.730033 -91.112598 
L 95.280161 -90.220145 
L 96.830288 -89.317384 
L 98.380415 -88.421838 
L 99.930542 -87.551035 
L 101.480669 -86.722498 
L 103.030796 -85.953752 
L 104.580923 -85.262324 
L 106.13105 -84.665739 
L 107.681177 -84.181521 
L 109.231304 -83.827196 
L 110.781431 -83.620289 
L 112.331559 -83.578326 
L 113.881686 -83.718831 
L 115.431813 -84.05933 
L 116.98194 -84.617347 
L 118.532067 -85.41041 
L 120.082194 -86.456041 
L 121.632321 -87.771768 
L 123.182448 -89.375114 
L 124.732575 -91.278731 
L 126.282702 -93.461843 
L 127.832829 -95.889655 
L 129.382957 -98.527325 
L 130.933084 -101.340008 
L 132.483211 -104.292862 
L 134.033338 -107.351043 
L 135.583465 -110.479708 
L 137.133592 -113.644014 
L 138.683719 -116.809118 
L 140.233846 -119.940177 
L 141.783973 -123.002346 
L 143.3341 -125.960784 
L 144.884227 -128.780647 
L 146.434355 -131.427091 
L 147.984482 -133.865274 
L 149.534609 -136.060352 
L 151.084736 -137.97761 
L 152.634863 -139.600433 
L 154.18499 -140.948807 
L 155.735117 -142.047135 
L 157.285244 -142.919818 
L 158.835371 -143.591259 
L 160.385498 -144.085859 
L 161.935625 -144.428022 
L 163.485753 -144.642149 
L 165.03588 -144.752643 
L 166.586007 -144.783906 
L 168.136134 -144.76034 
L 169.686261 -144.706348 
L 171.236388 -144.64633 
L 172.786515 -144.604691 
L 174.336642 -144.605832 
L 175.886769 -144.674155 
L 177.436896 -144.834062 
L 178.987023 -145.108403 
L 180.537151 -145.500633 
L 182.087278 -146.001019 
L 183.637405 -146.59958 
L 185.187532 -147.286332 
L 186.737659 -148.051293 
L 188.287786 -148.88448 
L 189.837913 -149.775911 
L 191.38804 -150.715602 
L 192.938167 -151.69357 
L 194.488294 -152.699834 
L 196.038421 -153.724411 
L 197.588548 -154.757316 
L 199.138676 -155.788569 
L 200.688803 -156.808186 
L 202.23893 -157.806184 
L 203.789057 -158.772581 
L 205.339184 -159.697394 
L 206.889311 -160.573277 
L 208.439438 -161.401725 
L 209.989565 -162.186086 
L 211.539692 -162.929709 
L 213.089819 -163.635942 
L 214.639946 -164.308133 
L 216.190074 -164.949629 
L 217.740201 -165.563779 
L 219.290328 -166.153931 
L 220.840455 -166.723433 
L 222.390582 -167.275633 
L 223.940709 -167.813879 
L 225.490836 -168.34152 
L 227.040963 -168.861903 
L 228.59109 -169.378376 
L 230.141217 -169.894288 
L 231.691344 -170.412987 
L 233.241472 -170.937914 
L 234.791599 -171.475011 
L 236.341726 -172.032913 
L 237.891853 -172.620392 
L 239.44198 -173.24622 
L 240.992107 -173.919166 
L 242.542234 -174.648003 
L 244.092361 -175.441501 
L 245.642488 -176.308431 
L 247.192615 -177.257565 
L 248.742742 -178.297674 
L 250.29287 -179.437528 
L 251.842997 -180.685899 
L 253.393124 -182.051558 
L 254.943251 -183.543275 
L 256.493378 -185.169823 
L 258.043505 -186.939972 
L 259.593632 -188.862493 
L 261.143759 -190.942613 
L 262.693886 -193.165319 
L 264.244013 -195.508427 
L 265.79414 -197.949747 
L 267.344268 -200.467086 
L 268.894395 -203.038254 
L 270.444522 -205.641059 
L 271.994649 -208.253309 
L 273.544776 -210.852812 
L 275.094903 -213.417378 
L 276.64503 -215.924814 
L 278.195157 -218.352929 
L 279.745284 -220.679532 
L 281.295411 -222.882431 
L 282.845538 -224.939434 
L 284.395666 -226.82835 
L 285.945793 -228.526987 
L 287.49592 -230.013329 
L 289.046047 -231.279571 
L 290.596174 -232.342386 
L 292.146301 -233.220864 
L 293.696428 -233.934098 
L 295.246555 -234.501179 
L 296.796682 -234.941199 
L 298.346809 -235.273249 
L 299.896936 -235.516421 
L 301.447064 -235.689808 
L 302.997191 -235.8125 
L 304.547318 -235.903589 
L 306.097445 -235.982167 
L 307.647572 -236.067325 
L 309.197699 -236.178156 
L 310.747826 -236.333751 
L 312.297953 -236.553202 
L 313.84808 -236.8556 
L 315.398207 -237.258361 
L 316.948334 -237.761939 
L 318.498462 -238.356944 
L 320.048589 -239.033863 
L 321.598716 -239.783184 
L 323.148843 -240.595393 
L 324.69897 -241.460977 
L 326.249097 -242.370425 
L 327.799224 -243.314223 
L 329.349351 -244.282858 
L 330.899478 -245.266818 
L 332.449605 -246.256591 
L 333.999732 -247.242662 
L 335.54986 -248.215521 
L 337.099987 -249.165653 
L 338.650114 -250.083547 
L 340.200241 -250.959688 
L 341.750368 -251.784571 
L 343.300495 -252.552457 
L 344.850622 -253.268262 
L 346.400749 -253.938764 
L 347.950876 -254.570741 
L 349.501003 -255.170972 
L 351.05113 -255.746235 
L 352.601258 -256.30331 
L 354.151385 -256.848973 
L 355.701512 -257.390005 
L 357.251639 -257.933184 
L 358.801766 -258.485287 
L 360.351893 -259.053095 
L 361.90202 -259.643384 
L 363.452147 -260.262935 
L 365.002274 -260.918525 
L 366.552401 -261.616933 
L 368.102528 -262.364937 
L 369.652656 -263.169015 
L 371.202783 -264.029576 
L 372.75291 -264.941412 
L 374.303037 -265.899101 
L 375.853164 -266.897223 
L 377.403291 -267.930356 
L 378.953418 -268.993081 
L 380.503545 -270.079976 
L 382.053672 -271.18562 
L 383.603799 -272.304592 
L 385.153926 -273.431473 
L 386.704054 -274.56084 
L 388.254181 -275.687274 
L 389.804308 -276.805352 
L 391.354435 -277.909655 
L 392.904562 -278.994762 
L 394.454689 -280.055252 
L 396.004816 -281.085703 
L 397.554943 -282.082391 
L 399.10507 -283.049688 
L 400.655197 -283.994376 
L 402.205324 -284.92324 
L 403.755452 -285.843065 
L 405.305579 -286.760634 
L 406.855706 -287.682732 
L 408.405833 -288.616143 
L 409.95596 -289.567652 
L 411.506087 -290.544043 
L 413.056214 -291.5521 
L 414.606341 -292.598607 
L 416.156468 -293.690348 
L 417.706595 -294.834109 
L 419.256722 -296.036673 
L 420.806849 -297.304825 
L 422.356977 -298.645348 
L 423.907104 -300.064878 
L 425.457231 -301.562236 
L 427.007358 -303.124745 
L 428.557485 -304.738809 
L 430.107612 -306.390833 
L 431.657739 -308.067222 
L 433.207866 -309.754378 
L 434.757993 -311.438706 
L 436.30812 -313.10661 
L 437.858247 -314.744495 
L 439.408375 -316.338764 
L 440.958502 -317.875822 
L 442.508629 -319.342072 
L 444.058756 -320.723919 
L 445.608883 -322.007768 
L 447.15901 -323.180021 
L 448.709137 -324.227083 
L 450.259264 -325.135358 
L 451.809391 -325.893088 
L 453.359518 -326.503745 
L 454.909645 -326.978334 
L 456.459773 -327.327911 
L 458.0099 -327.563533 
L 459.560027 -327.696258 
L 461.110154 -327.737143 
L 462.660281 -327.697245 
L 464.210408 -327.587622 
L 465.760535 -327.41933 
L 467.310662 -327.203427 
L 468.860789 -326.95097 
L 470.410916 -326.673017 
L 471.961043 -326.380624 
L 473.511171 -326.084849 
L 475.061298 -325.796749 
L 476.611425 -325.527381 
L 478.161552 -325.28779 
L 479.711679 -325.08547 
L 481.261806 -324.919443 
L 482.811933 -324.787498 
L 484.36206 -324.687425 
L 485.912187 -324.617011 
L 487.462314 -324.574044 
L 489.012441 -324.556314 
L 490.562569 -324.56161 
L 492.112696 -324.587718 
L 493.662823 -324.632429 
L 495.21295 -324.693531 
L 496.763077 -324.768812 
L 498.313204 -324.856061 
L 499.863331 -324.953066 
L 501.413458 -325.057616 
L 502.963585 -325.1675 
L 504.513712 -325.280505 
L 506.063839 -325.394422 
L 507.613967 -325.507037 
L 509.164094 -325.61614 
L 510.714221 -325.719519 
L 512.264348 -325.814964 
L 513.814475 -325.900261 
L 515.364602 -325.973201 
L 516.914729 -326.031571 
L 518.464856 -326.073159 
L 520.014983 -326.095756 
L 521.56511 -326.097149 
L 523.115237 -326.075126 
L 524.665365 -326.027477 
L 526.215492 -325.951989 
L 527.765619 -325.846452 
L 529.315746 -325.708654 
L 530.865873 -325.536383 
L 532.416 -325.327428 
L 532.416 -71.28 
L 532.416 -71.28 
L 530.865873 -71.28 
L 529.315746 -71.28 
L 527.765619 -71.28 
L 526.215492 -71.28 
L 524.665365 -71.28 
L 523.115237 -71.28 
L 521.56511 -71.28 
L 520.014983 -71.28 
L 518.464856 -71.28 
L 516.914729 -71.28 
L 515.364602 -71.28 
L 513.814475 -71.28 
L 512.264348 -71.28 
L 510.714221 -71.28 
L 509.164094 -71.28 
L 507.613967 -71.28 
L 506.063839 -71.28 
L 504.513712 -71.28 
L 502.963585 -71.28 
L 501.413458 -71.28 
L 499.863331 -71.28 
L 498.313204 -71.28 
L 496.763077 -71.28 
L 495.21295 -71.28 
L 493.662823 -71.28 
L 492.112696 -71.28 
L 490.562569 -71.28 
L 489.012441 -71.28 
L 487.462314 -71.28 
L 485.912187 -71.28 
L 484.36206 -71.28 
L 482.811933 -71.28 
L 481.261806 -71.28 
L 479.711679 -71.28 
L 478.161552 -71.28 
L 476.611425 -71.28 
L 475.061298 -71.28 
L 473.511171 -71.28 
L 471.961043 -71.28 
L 470.410916 -71.28 
L 468.860789 -71.28 
L 467.310662 -71.28 
L 465.760535 -71.28 
L 464.210408 -71.28 
L 462.660281 -71.28 
L 461.110154 -71.28 
L 459.560027 -71.28 
L 458.0099 -71.28 
L 456.459773 -71.28 
L 454.909645 -71.28 
L 453.359518 -71.28 
L 451.809391 -71.28 
L 450.259264 -71.28 
L 448.709137 -71.28 
L 447.15901 -71.28 
L 445.608883 -71.28 
L 444.058756 -71.28 
L 442.508629 -71.28 
L 440.958502 -71.28 
L 439.408375 -71.28 
L 437.858247 -71.28 
L 436.30812 -71.28 
L 434.757993 -71.28 
L 433.207866 -71.28 
L 431.657739 -71.28 
L 430.107612 -71.28 
L 428.557485 -71.28 
L 427.007358 -71.28 
L 425.457231 -71.28 
L 423.907104 -71.28 
L 422.356977 -71.28 
L 420.806849 -71.28 
L 419.256722 -71.28 
L 417.706595 -71.28 
L 416.156468 -71.28 
L 414.606341 -71.28 
L 413.056214 -71.28 
L 411.506087 -71.28 
L 409.95596 -71.28 
L 408.405833 -71.28 
L 406.855706 -71.28 
L 405.305579 -71.28 
L 403.755452 -71.28 
L 402.205324 -71.28 
L 400.655197 -71.28 
L 399.10507 -71.28 
L 397.554943 -71.28 
L 396.004816 -71.28 
L 394.454689 -71.28 
L 392.904562 -71.28 
L 391.354435 -71.28 
L 389.804308 -71.28 
L 388.254181 -71.28 
L 386.704054 -71.28 
L 385.153926 -71.28 
L 383.603799 -71.28 
L 382.053672 -71.28 
L 380.503545 -71.28 
L 378.953418 -71.28 
L 377.403291 -71.28 
L 375.853164 -71.28 
L 374.303037 -71.28 
L 372.75291 -71.28 
L 371.202783 -71.28 
L 369.652656 -71.28 
L 368.102528 -71.28 
L 366.552401 -71.28 
L 365.002274 -71.28 
L 363.452147 -71.28 
L 361.90202 -71.28 
L 360.351893 -71.28 
L 358.801766 -71.28 
L 357.251639 -71.28 
L 355.701512 -71.28 
L 354.151385 -71.28 
L 352.601258 -71.28 
L 351.05113 -71.28 
L 349.501003 -71.28 
L 347.950876 -71.28 
L 346.400749 -71.28 
L 344.850622 -71.28 
L 343.300495 -71.28 
L 341.750368 -71.28 
L 340.200241 -71.28 
L 338.650114 -71.28 
L 337.099987 -71.28 
L 335.54986 -71.28 
L 333.999732 -71.28 
L 332.449605 -71.28 
L 330.899478 -71.28 
L 329.349351 -71.28 
L 327.799224 -71.28 
L 326.249097 -71.28 
L 324.69897 -71.28 
L 323.148843 -71.28 
L 321.598716 -71.28 
L 320.048589 -71.28 
L 318.498462 -71.28 
L 316.948334 -71.28 
L 315.398207 -71.28 
L 313.84808 -71.28 
L 312.297953 -71.28 
L 310.747826 -71.28 
L 309.197699 -71.28 
L 307.647572 -71.28 
L 306.097445 -71.28 
L 304.547318 -71.28 
L 302.997191 -71.28 
L 301.447064 -71.28 
L 299.896936 -71.28 
L 298.346809 -71.28 
L 296.796682 -71.28 
L 295.246555 -71.28 
L 293.696428 -71.28 
L 292.146301 -71.28 
L 290.596174 -71.28 
L 289.046047 -71.28 
L 287.49592 -71.28 
L 285.945793 -71.28 
L 284.395666 -71.28 
L 282.845538 -71.28 
L 281.295411 -71.28 
L 279.745284 -71.28 
L 278.195157 -71.28 
L 276.64503 -71.28 
L 275.094903 -71.28 
L 273.544776 -71.28 
L 271.994649 -71.28 
L 270.444522 -71.28 
L 268.894395 -71.28 
L 267.344268 -71.28 
L 265.79414 -71.28 
L 264.244013 -71.28 
L 262.693886 -71.28 
L 261.143759 -71.28 
L 259.593632 -71.28 
L 258.043505 -71.28 
L 256.493378 -71.28 
L 254.943251 -71.28 
L 253.393124 -71.28 
L 251.842997 -71.28 
L 250.29287 -71.28 
L 248.742742 -71.28 
L 247.192615 -71.28 
L 245.642488 -71.28 
L 244.092361 -71.28 
L 242.542234 -71.28 
L 240.992107 -71.28 
L 239.44198 -71.28 
L 237.891853 -71.28 
L 236.341726 -71.28 
L 234.791599 -71.28 
L 233.241472 -71.28 
L 231.691344 -71.28 
L 230.141217 -71.28 
L 228.59109 -71.28 
L 227.040963 -71.28 
L 225.490836 -71.28 
L 223.940709 -71.28 
L 222.390582 -71.28 
L 220.840455 -71.28 
L 219.290328 -71.28 
L 217.740201 -71.28 
L 216.190074 -71.28 
L 214.639946 -71.28 
L 213.089819 -71.28 
L 211.539692 -71.28 
L 209.989565 -71.28 
L 208.439438 -71.28 
L 206.889311 -71.28 
L 205.339184 -71.28 
L 203.789057 -71.28 
L 202.23893 -71.28 
L 200.688803 -71.28 
L 199.138676 -71.28 
L 197.588548 -71.28 
L 196.038421 -71.28 
L 194.488294 -71.28 
L 192.938167 -71.28 
L 191.38804 -71.28 
L 189.837913 -71.28 
L 188.287786 -71.28 
L 186.737659 -71.28 
L 185.187532 -71.28 
L 183.637405 -71.28 
L 182.087278 -71.28 
L 180.537151 -71.28 
L 178.987023 -71.28 
L 177.436896 -71.28 
L 175.886769 -71.28 
L 174.336642 -71.28 
L 172.786515 -71.28 
L 171.236388 -71.28 
L 169.686261 -71.28 
L 168.136134 -71.28 
L 166.586007 -71.28 
L 165.03588 -71.28 
L 163.485753 -71.28 
L 161.935625 -71.28 
L 160.385498 -71.28 
L 158.835371 -71.28 
L 157.285244 -71.28 
L 155.735117 -71.28 
L 154.18499 -71.28 
L 152.634863 -71.28 
L 151.084736 -71.28 
L 149.534609 -71.28 
L 147.984482 -71.28 
L 146.434355 -71.28 
L 144.884227 -71.28 
L 143.3341 -71.28 
L 141.783973 -71.28 
L 140.233846 -71.28 
L 138.683719 -71.28 
L 137.133592 -71.28 
L 135.583465 -71.28 
L 134.033338 -71.28 
L 132.483211 -71.28 
L 130.933084 -71.28 
L 129.382957 -71.28 
L 127.832829 -71.28 
L 126.282702 -71.28 
L 124.732575 -71.28 
L 123.182448 -71.28 
L 121.632321 -71.28 
L 120.082194 -71.28 
L 118.532067 -71.28 
L 116.98194 -71.28 
L 115.431813 -71.28 
L 113.881686 -71.28 
L 112.331559 -71.28 
L 110.781431 -71.28 
L 109.231304 -71.28 
L 107.681177 -71.28 
L 106.13105 -71.28 
L 104.580923 -71.28 
L 103.030796 -71.28 
L 101.480669 -71.28 
L 99.930542 -71.28 
L 98.380415 -71.28 
L 96.830288 -71.28 
L 95.280161 -71.28 
L 93.730033 -71.28 
L 92.179906 -71.28 
L 90.629779 -71.28 
L 89.079652 -71.28 
L 87.529525 -71.28 
L 85.979398 -71.28 
L 84.429271 -71.28 
L 82.879144 -71.28 
L 81.329017 -71.28 
L 79.77889 -71.28 
L 78.228763 -71.28 
L 76.678635 -71.28 
L 75.128508 -71.28 
L 73.578381 -71.28 
L 72.028254 -71.28 
L 70.478127 -71.28 
L 68.928 -71.28 
z
" style="stroke: #8b5cf6; stroke-opacity: 0.12"/>
    </defs>
    <g clip-path="url(#pb3ce4308c2)">
     <use xlink:href="#m8ec6fbb59c" x="0" y="396" style="fill: #8b5cf6; fill-opacity: 0.12; stroke: #8b5cf6; stroke-opacity: 0.12"/>
    </g>
   </g>
   <g id="text_18">
    <!-- 265 -->
    <g style="fill: #8b5cf6" transform="translate(535.416 67.672572) scale(0.12 -0.12)">
     <defs>
      <path id="JetBrainsMono-Bold-32" d="M 474 0 
L 474 723 
L 2157 2445 
Q 2566 2874 2566 3315 
Q 2566 3629 2384 3824 
Q 2202 4019 1894 4019 
Q 1581 4019 1392 3817 
Q 1203 3616 1203 3283 
L 403 3283 
Q 403 3718 595 4044 
Q 787 4371 1126 4553 
Q 1466 4736 1914 4736 
Q 2355 4736 2688 4563 
Q 3021 4390 3203 4080 
Q 3386 3770 3386 3354 
Q 3386 2995 3216 2636 
Q 3046 2278 2656 1894 
L 1478 723 
L 3443 723 
L 3443 0 
L 474 0 
z
" transform="scale(0.015625)"/>
      <path id="JetBrainsMono-Bold-36" d="M 1920 -64 
Q 1440 -64 1085 128 
Q 730 320 534 669 
Q 339 1018 339 1485 
Q 339 1760 457 2115 
Q 576 2470 781 2835 
L 1792 4672 
L 2701 4672 
L 1498 2611 
L 1523 2598 
Q 1619 2733 1804 2809 
Q 1990 2886 2208 2886 
Q 2598 2886 2889 2710 
Q 3181 2534 3341 2214 
Q 3501 1894 3501 1459 
Q 3501 998 3305 656 
Q 3110 314 2755 125 
Q 2400 -64 1920 -64 
z
M 1920 614 
Q 2278 614 2496 841 
Q 2714 1069 2714 1446 
Q 2714 1830 2496 2057 
Q 2278 2285 1920 2285 
Q 1562 2285 1344 2057 
Q 1126 1830 1126 1446 
Q 1126 1069 1344 841 
Q 1562 614 1920 614 
z
" transform="scale(0.015625)"/>
      <path id="JetBrainsMono-Bold-35" d="M 1894 -64 
Q 1210 -64 803 297 
Q 397 659 397 1280 
L 1197 1280 
Q 1197 986 1385 810 
Q 1574 634 1901 634 
Q 2227 634 2409 810 
Q 2592 986 2592 1299 
L 2592 1606 
Q 2592 1920 2413 2096 
Q 2234 2272 1907 2272 
L 557 2272 
L 557 4672 
L 3219 4672 
L 3219 3949 
L 1312 3949 
L 1318 2976 
L 1946 2976 
Q 2637 2976 3014 2617 
Q 3392 2259 3392 1606 
L 3392 1299 
Q 3392 666 2992 301 
Q 2592 -64 1894 -64 
z
" transform="scale(0.015625)"/>
     </defs>
     <use xlink:href="#JetBrainsMono-Bold-32"/>
     <use xlink:href="#JetBrainsMono-Bold-36" transform="translate(59.999985 0)"/>
     <use xlink:href="#JetBrainsMono-Bold-35" transform="translate(119.999969 0)"/>
    </g>
   </g>
   <g id="text_19">
    <!-- Rating History -->
    <g style="fill: #8b5cf6" transform="translate(55.296 50.44) scale(0.17 -0.17)">
     <defs>
      <path id="JetBrainsMono-Bold-52" d="M 493 0 
L 493 4672 
L 1965 4672 
Q 2432 4672 2774 4499 
Q 3117 4326 3309 4016 
Q 3501 3706 3501 3283 
Q 3501 2816 3270 2467 
Q 3040 2118 2650 1971 
L 3565 0 
L 2688 0 
L 1869 1856 
L 1286 1856 
L 1286 0 
L 493 0 
z
M 1286 2560 
L 1965 2560 
Q 2304 2560 2496 2745 
Q 2688 2931 2688 3258 
Q 2688 3584 2493 3776 
Q 2298 3968 1965 3968 
L 1286 3968 
L 1286 2560 
z
" transform="scale(0.015625)"/>
      <path id="JetBrainsMono-Bold-61" d="M 1530 -64 
Q 992 -64 681 240 
Q 371 544 371 1037 
Q 371 1549 723 1853 
Q 1075 2157 1690 2157 
L 2547 2157 
L 2547 2406 
Q 2547 2938 1926 2938 
Q 1645 2938 1478 2829 
Q 1312 2720 1293 2522 
L 525 2522 
Q 550 2995 924 3289 
Q 1299 3584 1933 3584 
Q 2605 3584 2976 3270 
Q 3347 2957 3347 2387 
L 3347 0 
L 2566 0 
L 2566 659 
Q 2522 320 2246 128 
Q 1971 -64 1530 -64 
z
M 1786 589 
Q 2138 589 2342 761 
Q 2547 934 2547 1222 
L 2547 1638 
L 1728 1638 
Q 1466 1638 1312 1491 
Q 1158 1344 1158 1114 
Q 1158 877 1321 733 
Q 1485 589 1786 589 
z
" transform="scale(0.015625)"/>
      <path id="JetBrainsMono-Bold-74" d="M 2272 0 
Q 1779 0 1488 285 
Q 1197 570 1197 1056 
L 1197 2797 
L 224 2797 
L 224 3520 
L 1197 3520 
L 1197 4512 
L 2003 4512 
L 2003 3520 
L 3405 3520 
L 3405 2797 
L 2003 2797 
L 2003 1075 
Q 2003 922 2089 822 
Q 2176 723 2330 723 
L 3373 723 
L 3373 0 
L 2272 0 
z
" transform="scale(0.015625)"/>
      <path id="JetBrainsMono-Bold-69" d="M 486 0 
L 486 723 
L 1690 723 
L 1690 2797 
L 614 2797 
L 614 3520 
L 2490 3520 
L 2490 723 
L 3571 723 
L 3571 0 
L 486 0 
z
M 2032 4109 
Q 1789 4109 1648 4233 
Q 1507 4358 1507 4570 
Q 1507 4781 1648 4905 
Q 1789 5030 2032 5030 
Q 2275 5030 2416 4905 
Q 2557 4781 2557 4570 
Q 2557 4358 2416 4233 
Q 2275 4109 2032 4109 
z
" transform="scale(0.015625)"/>
      <path id="JetBrainsMono-Bold-6e" d="M 493 0 
L 493 3520 
L 1274 3520 
L 1274 2861 
Q 1338 3194 1587 3389 
Q 1837 3584 2221 3584 
Q 2739 3584 3049 3238 
Q 3360 2893 3360 2310 
L 3360 0 
L 2560 0 
L 2560 2214 
Q 2560 2541 2390 2717 
Q 2221 2893 1933 2893 
Q 1632 2893 1462 2713 
Q 1293 2534 1293 2202 
L 1293 0 
L 493 0 
z
" transform="scale(0.015625)"/>
      <path id="JetBrainsMono-Bold-67" d="M 973 -1152 
L 973 -486 
L 1965 -486 
Q 2246 -486 2400 -336 
Q 2554 -186 2554 70 
L 2554 282 
L 2566 832 
Q 2458 538 2218 374 
Q 1978 211 1632 211 
Q 1094 211 777 572 
Q 461 934 461 1555 
L 461 2240 
Q 461 2854 777 3219 
Q 1094 3584 1632 3584 
Q 1978 3584 2218 3421 
Q 2458 3258 2566 2957 
L 2566 3520 
L 3347 3520 
L 3347 51 
Q 3347 -506 2979 -829 
Q 2611 -1152 1978 -1152 
L 973 -1152 
z
M 1901 896 
Q 2208 896 2377 1078 
Q 2547 1261 2547 1587 
L 2547 2202 
Q 2547 2528 2377 2710 
Q 2208 2893 1901 2893 
Q 1594 2893 1427 2717 
Q 1261 2541 1261 2227 
L 1261 1562 
Q 1261 1248 1427 1072 
Q 1594 896 1901 896 
z
" transform="scale(0.015625)"/>
      <path id="JetBrainsMono-Bold-20" transform="scale(0.015625)"/>
      <path id="JetBrainsMono-Bold-48" d="M 493 0 
L 493 4672 
L 1293 4672 
L 1293 2778 
L 2547 2778 
L 2547 4672 
L 3347 4672 
L 3347 0 
L 2547 0 
L 2547 2054 
L 1293 2054 
L 1293 0 
L 493 0 
z
" transform="scale(0.015625)"/>
      <path id="JetBrainsMono-Bold-73" d="M 1773 -58 
Q 1146 -58 781 227 
Q 416 512 416 998 
L 1203 998 
Q 1203 794 1353 685 
Q 1504 576 1773 576 
L 2054 576 
Q 2342 576 2499 685 
Q 2656 794 2656 998 
Q 2656 1190 2547 1283 
Q 2438 1376 2214 1408 
L 1338 1523 
Q 915 1581 688 1849 
Q 461 2118 461 2547 
Q 461 3046 793 3312 
Q 1126 3578 1754 3578 
L 2048 3578 
Q 2637 3578 2995 3309 
Q 3354 3040 3366 2592 
L 2573 2592 
Q 2566 2758 2425 2857 
Q 2285 2957 2048 2957 
L 1754 2957 
Q 1498 2957 1363 2851 
Q 1229 2746 1229 2566 
Q 1229 2406 1328 2329 
Q 1427 2253 1619 2234 
L 2445 2118 
Q 2931 2061 3177 1776 
Q 3424 1491 3424 1011 
Q 3424 499 3075 220 
Q 2726 -58 2054 -58 
L 1773 -58 
z
" transform="scale(0.015625)"/>
      <path id="JetBrainsMono-Bold-6f" d="M 1920 -58 
Q 1242 -58 845 323 
Q 448 704 448 1350 
L 448 2170 
Q 448 2822 845 3200 
Q 1242 3578 1920 3578 
Q 2598 3578 2995 3200 
Q 3392 2822 3392 2170 
L 3392 1350 
Q 3392 704 2995 323 
Q 2598 -58 1920 -58 
z
M 1920 640 
Q 2240 640 2416 816 
Q 2592 992 2592 1325 
L 2592 2195 
Q 2592 2528 2416 2704 
Q 2240 2880 1920 2880 
Q 1600 2880 1424 2704 
Q 1248 2528 1248 2195 
L 1248 1325 
Q 1248 992 1424 816 
Q 1600 640 1920 640 
z
" transform="scale(0.015625)"/>
      <path id="JetBrainsMono-Bold-72" d="M 621 0 
L 621 3520 
L 1402 3520 
L 1402 2835 
Q 1466 3181 1718 3382 
Q 1971 3584 2374 3584 
Q 2912 3584 3213 3238 
Q 3514 2893 3514 2272 
L 3514 1939 
L 2714 1939 
L 2714 2234 
Q 2714 2554 2547 2723 
Q 2381 2893 2074 2893 
Q 1754 2893 1587 2701 
Q 1421 2509 1421 2157 
L 1421 0 
L 621 0 
z
" transform="scale(0.015625)"/>
      <path id="JetBrainsMono-Bold-79" d="M 1056 -1152 
L 1555 192 
L 230 3520 
L 1075 3520 
L 1754 1722 
Q 1811 1562 1868 1373 
Q 1926 1184 1952 1024 
Q 1971 1184 2025 1373 
Q 2080 1562 2138 1722 
L 2765 3520 
L 3610 3520 
L 1894 -1152 
L 1056 -1152 
z
" transform="scale(0.015625)"/>
     </defs>
     <use xlink:href="#JetBrainsMono-Bold-52"/>
     <use xlink:href="#JetBrainsMono-Bold-61" transform="translate(59.999985 0)"/>
     <use xlink:href="#JetBrainsMono-Bold-74" transform="translate(119.999969 0)"/>
     <use xlink:href="#JetBrainsMono-Bold-69" transform="translate(179.999954 0)"/>
     <use xlink:href="#JetBrainsMono-Bold-6e" transform="translate(239.999939 0)"/>
     <use xlink:href="#JetBrainsMono-Bold-67" transform="translate(299.999924 0)"/>
     <use xlink:href="#JetBrainsMono-Bold-20" transform="translate(359.999908 0)"/>
     <use xlink:href="#JetBrainsMono-Bold-48" transform="translate(419.999893 0)"/>
     <use xlink:href="#JetBrainsMono-Bold-69" transform="translate(479.999878 0)"/>
     <use xlink:href="#JetBrainsMono-Bold-73" transform="translate(539.999863 0)"/>
     <use xlink:href="#JetBrainsMono-Bold-74" transform="translate(599.999847 0)"/>
     <use xlink:href="#JetBrainsMono-Bold-6f" transform="translate(659.999832 0)"/>
     <use xlink:href="#JetBrainsMono-Bold-72" transform="translate(719.999817 0)"/>
     <use xlink:href="#JetBrainsMono-Bold-79" transform="translate(779.999802 0)"/>
    </g>
   </g>
   <g id="line2d_33">
    <path d="M 68.928 306.310766 
L 70.478127 304.654844 
L 72.028254 303.289635 
L 73.578381 302.197613 
L 75.128508 301.361253 
L 76.678635 300.76303 
L 78.228763 300.385419 
L 79.77889 300.210895 
L 81.329017 300.221931 
L 82.879144 300.401004 
L 84.429271 300.730587 
L 87.529525 301.771186 
L 90.629779 303.203525 
L 95.280161 305.779855 
L 101.480669 309.277502 
L 104.580923 310.737676 
L 107.681177 311.818479 
L 109.231304 312.172804 
L 110.781431 312.379711 
L 112.331559 312.421674 
L 113.881686 312.281169 
L 115.431813 311.94067 
L 116.98194 311.382653 
L 118.532067 310.58959 
L 120.082194 309.543959 
L 121.632321 308.228232 
L 123.182448 306.624886 
L 124.732575 304.721269 
L 126.282702 302.538157 
L 127.832829 300.110345 
L 130.933084 294.659992 
L 134.033338 288.648957 
L 143.3341 270.039216 
L 146.434355 264.572909 
L 147.984482 262.134726 
L 149.534609 259.939648 
L 151.084736 258.02239 
L 152.634863 256.399567 
L 154.18499 255.051193 
L 155.735117 253.952865 
L 157.285244 253.080182 
L 158.835371 252.408741 
L 160.385498 251.914141 
L 161.935625 251.571978 
L 165.03588 251.247357 
L 168.136134 251.23966 
L 174.336642 251.394168 
L 177.436896 251.165938 
L 178.987023 250.891597 
L 182.087278 249.998981 
L 185.187532 248.713668 
L 188.287786 247.11552 
L 191.38804 245.284398 
L 197.588548 241.242684 
L 203.789057 237.227419 
L 206.889311 235.426723 
L 209.989565 233.813914 
L 214.639946 231.691867 
L 219.290328 229.846069 
L 225.490836 227.65848 
L 237.891853 223.379608 
L 240.992107 222.080834 
L 244.092361 220.558499 
L 247.192615 218.742435 
L 250.29287 216.562472 
L 253.393124 213.948442 
L 256.493378 210.830177 
L 259.593632 207.137507 
L 262.693886 202.834681 
L 265.79414 198.050253 
L 270.444522 190.358941 
L 276.64503 180.075186 
L 279.745284 175.320468 
L 282.845538 171.060566 
L 284.395666 169.17165 
L 285.945793 167.473013 
L 287.49592 165.986671 
L 289.046047 164.720429 
L 290.596174 163.657614 
L 292.146301 162.779136 
L 293.696428 162.065902 
L 295.246555 161.498821 
L 298.346809 160.726751 
L 301.447064 160.310192 
L 306.097445 160.017833 
L 310.747826 159.666249 
L 313.84808 159.1444 
L 316.948334 158.238061 
L 320.048589 156.966137 
L 323.148843 155.404607 
L 327.799224 152.685777 
L 340.200241 145.040312 
L 343.300495 143.447543 
L 346.400749 142.061236 
L 351.05113 140.253765 
L 363.452147 135.737065 
L 366.552401 134.383067 
L 369.652656 132.830985 
L 372.75291 131.058588 
L 377.403291 128.069644 
L 383.603799 123.695408 
L 392.904562 117.005238 
L 397.554943 113.917609 
L 403.755452 110.156935 
L 411.506087 105.455957 
L 416.156468 102.309652 
L 419.256722 99.963327 
L 422.356977 97.354652 
L 425.457231 94.437764 
L 430.107612 89.609167 
L 439.408375 79.661236 
L 442.508629 76.657928 
L 445.608883 73.992232 
L 448.709137 71.772917 
L 450.259264 70.864642 
L 451.809391 70.106912 
L 453.359518 69.496255 
L 454.909645 69.021666 
L 456.459773 68.672089 
L 459.560027 68.303742 
L 462.660281 68.302755 
L 465.760535 68.58067 
L 470.410916 69.326983 
L 478.161552 70.71221 
L 482.811933 71.212502 
L 487.462314 71.425956 
L 492.112696 71.412282 
L 498.313204 71.143939 
L 518.464856 69.926841 
L 523.115237 69.924874 
L 527.765619 70.153548 
L 532.416 70.672572 
L 532.416 70.672572 
" clip-path="url(#pb3ce4308c2)" style="fill: none; stroke: #8b5cf6; stroke-width: 1.2; stroke-linecap: round"/>
   </g>
   <g id="PathCollection_1">
    <defs>
     <path id="mfa75b6a341" d="M 0 2.236068 
C 0.593012 2.236068 1.161816 2.000462 1.581139 1.581139 
C 2.000462 1.161816 2.236068 0.593012 2.236068 0 
C 2.236068 -0.593012 2.000462 -1.161816 1.581139 -1.581139 
C 1.161816 -2.000462 0.593012 -2.236068 0 -2.236068 
C -0.593012 -2.236068 -1.161816 -2.000462 -1.581139 -1.581139 
C -2.000462 -1.161816 -2.236068 -0.593012 -2.236068 0 
C -2.236068 0.593012 -2.000462 1.161816 -1.581139 1.581139 
C -1.161816 2.000462 -0.593012 2.236068 0 2.236068 
z
" style="stroke: #ffffff; stroke-width: 0.8"/>
    </defs>
    <g clip-path="url(#pb3ce4308c2)">
     <use xlink:href="#mfa75b6a341" x="532.416" y="70.672572" style="fill: #8b5cf6; stroke: #ffffff; stroke-width: 0.8"/>
    </g>
   </g>
  </g>
  <g id="axes_2">
   <g id="text_20">
    <!-- Rating -->
    <g style="fill: #9b8bb8" transform="translate(565.7472 48.312) scale(0.11 -0.11)">
     <use xlink:href="#JetBrainsMono-Regular-52"/>
     <use xlink:href="#JetBrainsMono-Regular-61" transform="translate(59.999985 0)"/>
     <use xlink:href="#JetBrainsMono-Regular-74" transform="translate(119.999969 0)"/>
     <use xlink:href="#JetBrainsMono-Regular-69" transform="translate(179.999954 0)"/>
     <use xlink:href="#JetBrainsMono-Regular-6e" transform="translate(239.999939 0)"/>
     <use xlink:href="#JetBrainsMono-Regular-67" transform="translate(299.999924 0)"/>
    </g>
   </g>
   <g id="text_21">
    <!-- 265 -->
    <g style="fill: #8b5cf6" transform="translate(565.7472 81.548) scale(0.26 -0.26)">
     <use xlink:href="#JetBrainsMono-Bold-32"/>
     <use xlink:href="#JetBrainsMono-Bold-36" transform="translate(59.999985 0)"/>
     <use xlink:href="#JetBrainsMono-Bold-35" transform="translate(119.999969 0)"/>
    </g>
   </g>
   <g id="text_22">
    <!-- Rank -->
    <g style="fill: #9b8bb8" transform="translate(565.7472 119.592) scale(0.11 -0.11)">
     <defs>
      <path id="JetBrainsMono-Regular-6b" d="M 621 0 
L 621 4672 
L 1197 4672 
L 1197 2067 
L 1869 2067 
L 2854 3520 
L 3514 3520 
L 2381 1843 
L 3578 0 
L 2906 0 
L 1882 1568 
L 1197 1568 
L 1197 0 
L 621 0 
z
" transform="scale(0.015625)"/>
     </defs>
     <use xlink:href="#JetBrainsMono-Regular-52"/>
     <use xlink:href="#JetBrainsMono-Regular-61" transform="translate(59.999985 0)"/>
     <use xlink:href="#JetBrainsMono-Regular-6e" transform="translate(119.999969 0)"/>
     <use xlink:href="#JetBrainsMono-Regular-6b" transform="translate(179.999954 0)"/>
    </g>
   </g>
   <g id="text_23">
    <!-- #117,949 -->
    <g style="fill: #8b5cf6" transform="translate(565.7472 148.104) scale(0.14 -0.14)">
     <defs>
      <path id="JetBrainsMono-Bold-23" d="M 493 0 
L 710 1216 
L 224 1216 
L 224 1760 
L 800 1760 
L 998 2912 
L 448 2912 
L 448 3456 
L 1094 3456 
L 1312 4672 
L 1875 4672 
L 1658 3456 
L 2566 3456 
L 2784 4672 
L 3347 4672 
L 3130 3456 
L 3616 3456 
L 3616 2912 
L 3034 2912 
L 2835 1760 
L 3392 1760 
L 3392 1216 
L 2739 1216 
L 2528 0 
L 1965 0 
L 2182 1216 
L 1267 1216 
L 1056 0 
L 493 0 
z
M 1363 1760 
L 2272 1760 
L 2470 2912 
L 1562 2912 
L 1363 1760 
z
" transform="scale(0.015625)"/>
      <path id="JetBrainsMono-Bold-31" d="M 538 0 
L 538 723 
L 1754 723 
L 1754 3898 
L 531 3002 
L 531 3898 
L 1606 4672 
L 2554 4672 
L 2554 723 
L 3533 723 
L 3533 0 
L 538 0 
z
" transform="scale(0.015625)"/>
      <path id="JetBrainsMono-Bold-37" d="M 1011 0 
L 2720 3968 
L 1229 3968 
L 1229 3206 
L 429 3206 
L 429 4672 
L 3584 4672 
L 3584 3968 
L 1888 0 
L 1011 0 
z
" transform="scale(0.015625)"/>
      <path id="JetBrainsMono-Bold-2c" d="M 1216 -1024 
L 1555 934 
L 2470 934 
L 1984 -1024 
L 1216 -1024 
z
" transform="scale(0.015625)"/>
      <path id="JetBrainsMono-Bold-39" d="M 1120 0 
L 2214 1888 
Q 2138 1830 2035 1788 
Q 1933 1747 1728 1747 
Q 1344 1747 1027 1932 
Q 710 2118 524 2448 
Q 339 2778 339 3213 
Q 339 3674 534 4016 
Q 730 4358 1085 4547 
Q 1440 4736 1920 4736 
Q 2400 4736 2755 4544 
Q 3110 4352 3305 4003 
Q 3501 3654 3501 3187 
Q 3501 2912 3382 2557 
Q 3264 2202 3059 1837 
L 2048 0 
L 1120 0 
z
M 1920 2387 
Q 2278 2387 2496 2614 
Q 2714 2842 2714 3226 
Q 2714 3603 2496 3830 
Q 2278 4058 1920 4058 
Q 1562 4058 1344 3830 
Q 1126 3603 1126 3226 
Q 1126 2842 1344 2614 
Q 1562 2387 1920 2387 
z
" transform="scale(0.015625)"/>
      <path id="JetBrainsMono-Bold-34" d="M 2445 0 
L 2445 928 
L 378 928 
L 378 2086 
L 2106 4672 
L 2995 4672 
L 1146 1875 
L 1146 1632 
L 2445 1632 
L 2445 2688 
L 3251 2688 
L 3251 0 
L 2445 0 
z
" transform="scale(0.015625)"/>
     </defs>
     <use xlink:href="#JetBrainsMono-Bold-23"/>
     <use xlink:href="#JetBrainsMono-Bold-31" transform="translate(59.999985 0)"/>
     <use xlink:href="#JetBrainsMono-Bold-31" transform="translate(119.999969 0)"/>
     <use xlink:href="#JetBrainsMono-Bold-37" transform="translate(179.999954 0)"/>
     <use xlink:href="#JetBrainsMono-Bold-2c" transform="translate(239.999939 0)"/>
     <use xlink:href="#JetBrainsMono-Bold-39" transform="translate(299.999924 0)"/>
     <use xlink:href="#JetBrainsMono-Bold-34" transform="translate(359.999908 0)"/>
     <use xlink:href="#JetBrainsMono-Bold-39" transform="translate(419.999893 0)"/>
    </g>
   </g>
   <g id="text_24">
    <!-- ─ 0 -->
    <g style="fill: #9b8bb8" transform="translate(565.7472 169.488) scale(0.11 -0.11)">
     <defs>
      <path id="JetBrainsMono-Bold-2500" d="M -128 2048 
L -128 2688 
L 3968 2688 
L 3968 2048 
L -128 2048 
z
" transform="scale(0.015625)"/>
      <path id="JetBrainsMono-Bold-30" d="M 1920 -64 
Q 1466 -64 1133 109 
Q 800 282 617 595 
Q 435 909 435 1331 
L 435 3341 
Q 435 3763 617 4076 
Q 800 4390 1133 4563 
Q 1466 4736 1920 4736 
Q 2374 4736 2707 4563 
Q 3040 4390 3222 4076 
Q 3405 3763 3405 3341 
L 3405 1331 
Q 3405 909 3222 595 
Q 3040 282 2707 109 
Q 2374 -64 1920 -64 
z
M 1920 627 
Q 2253 627 2451 819 
Q 2650 1011 2650 1331 
L 2650 3341 
Q 2650 3661 2454 3853 
Q 2259 4045 1920 4045 
Q 1581 4045 1385 3853 
Q 1190 3661 1190 3341 
L 1190 1331 
Q 1190 1011 1388 819 
Q 1587 627 1920 627 
z
M 1920 1952 
Q 1728 1952 1613 2057 
Q 1498 2163 1498 2355 
Q 1498 2547 1613 2646 
Q 1728 2746 1920 2746 
Q 2112 2746 2227 2646 
Q 2342 2547 2342 2355 
Q 2342 2163 2227 2057 
Q 2112 1952 1920 1952 
z
" transform="scale(0.015625)"/>
     </defs>
     <use xlink:href="#JetBrainsMono-Bold-2500"/>
     <use xlink:href="#JetBrainsMono-Bold-20" transform="translate(59.999985 0)"/>
     <use xlink:href="#JetBrainsMono-Bold-30" transform="translate(119.999969 0)"/>
    </g>
   </g>
  </g>
 </g>
 <defs>
  <clipPath id="pb3ce4308c2">
   <rect x="55.296" y="55.44" width="490.752" height="269.28"/>
  </clipPath>
 </defs>
</svg>
