<?xml version="1.0" encoding="utf-8" standalone="no"?>
<!DOCTYPE svg PUBLIC "-//W3C//DTD SVG 1.1//EN"
  "http://www.w3.org/Graphics/SVG/1.1/DTD/svg11.dtd">
<svg xmlns:xlink="http://www.w3.org/1999/xlink" width="691.2pt" height="396pt" viewBox="0 0 691.2 396" xmlns="http://www.w3.org/2000/svg" version="1.1">
 <metadata>
  <rdf:RDF xmlns:dc="http://purl.org/dc/elements/1.1/" xmlns:cc="http://creativecommons.org/ns#" xmlns:rdf="http://www.w3.org/1999/02/22-rdf-syntax-ns#">
   <cc:Work>
    <dc:type rdf:resource="http://purl.org/dc/dcmitype/StillImage"/>
    <dc:date>2026-04-23T16:24:31.884775</dc:date>
    <dc:format>image/svg+xml</dc:format>
    <dc:creator>
     <cc:Agent>
      <dc:title>Matplotlib v3.10.8, https://matplotlib.org/</dc:title>
     </cc:Agent>
    </dc:creator>
   </cc:Work>
  </rdf:RDF>
 </metadata>
 <defs>
  <style type="text/css">*{stroke-linejoin: round; stroke-linecap: butt}</style>
 </defs>
 <g id="figure_1">
  <g id="patch_1">
   <path d="M 0 396 
L 691.2 396 
L 691.2 0 
L 0 0 
L 0 396 
z
" style="fill: none"/>
  </g>
  <g id="axes_1">
   <g id="patch_2">
    <path d="M 55.296 324.72 
L 546.048 324.72 
L 546.048 55.44 
L 55.296 55.44 
L 55.296 324.72 
z
" style="fill: none"/>
   </g>
   <g id="matplotlib.axis_1">
    <g id="xtick_1">
     <g id="line2d_1">
      <path d="M 106.416 324.72 
L 106.416 55.44 
" clip-path="url(#p31a5cf91c8)" style="fill: none; stroke-dasharray: 2.22,0.96; stroke-dashoffset: 0; stroke: #e2d5f5; stroke-opacity: 0.7; stroke-width: 0.6"/>
     </g>
     <g id="line2d_2">
      <defs>
       <path id="mc1f9d02bea" d="M 0 0 
L 0 3.5 
" style="stroke: #9b8bb8; stroke-width: 0.8"/>
      </defs>
      <g>
       <use xlink:href="#mc1f9d02bea" x="106.416" y="324.72" style="fill: #9b8bb8; stroke: #9b8bb8; stroke-width: 0.8"/>
      </g>
     </g>
     <g id="text_1">
      <!-- 04/02 -->
      <g style="fill: #9b8bb8" transform="translate(94.875619 353.301793) rotate(-30) scale(0.1 -0.1)">
       <defs>
        <path id="JetBrainsMono-Regular-30" d="M 1920 -64 
Q 1274 -64 893 310 
Q 512 685 512 1312 
L 512 3360 
Q 512 3987 893 4361 
Q 1274 4736 1920 4736 
Q 2566 4736 2947 4361 
Q 3328 3987 3328 3360 
L 3328 1312 
Q 3328 896 3155 585 
Q 2982 275 2665 105 
Q 2349 -64 1920 -64 
z
M 1920 429 
Q 2304 429 2537 675 
Q 2771 922 2771 1312 
L 2771 3360 
Q 2771 3750 2537 3996 
Q 2304 4243 1920 4243 
Q 1536 4243 1302 3996 
Q 1069 3750 1069 3360 
L 1069 1312 
Q 1069 922 1302 675 
Q 1536 429 1920 429 
z
M 1920 1984 
Q 1747 1984 1641 2080 
Q 1536 2176 1536 2355 
Q 1536 2528 1641 2621 
Q 1747 2714 1920 2714 
Q 2093 2714 2198 2621 
Q 2304 2528 2304 2355 
Q 2304 2176 2198 2080 
Q 2093 1984 1920 1984 
z
" transform="scale(0.015625)"/>
        <path id="JetBrainsMono-Regular-34" d="M 2560 0 
L 2560 1024 
L 448 1024 
L 448 1926 
L 2150 4672 
L 2803 4672 
L 1024 1798 
L 1024 1549 
L 2560 1549 
L 2560 2688 
L 3136 2688 
L 3136 0 
L 2560 0 
z
" transform="scale(0.015625)"/>
        <path id="JetBrainsMono-Regular-2f" d="M 480 -704 
L 2752 5312 
L 3360 5312 
L 1088 -704 
L 480 -704 
z
" transform="scale(0.015625)"/>
        <path id="JetBrainsMono-Regular-32" d="M 550 0 
L 550 531 
L 2106 2195 
Q 2445 2554 2585 2835 
Q 2726 3117 2726 3386 
Q 2726 3770 2505 3997 
Q 2285 4224 1907 4224 
Q 1517 4224 1289 3990 
Q 1062 3757 1062 3360 
L 486 3360 
Q 506 3994 890 4365 
Q 1274 4736 1907 4736 
Q 2554 4736 2934 4371 
Q 3315 4006 3315 3379 
Q 3315 3046 3132 2675 
Q 2950 2304 2509 1843 
L 1248 525 
L 3373 525 
L 3373 0 
L 550 0 
z
" transform="scale(0.015625)"/>
       </defs>
       <use xlink:href="#JetBrainsMono-Regular-30"/>
       <use xlink:href="#JetBrainsMono-Regular-34" transform="translate(59.999985 0)"/>
       <use xlink:href="#JetBrainsMono-Regular-2f" transform="translate(119.999969 0)"/>
       <use xlink:href="#JetBrainsMono-Regular-30" transform="translate(179.999954 0)"/>
       <use xlink:href="#JetBrainsMono-Regular-32" transform="translate(239.999939 0)"/>
      </g>
     </g>
    </g>
    <g id="xtick_2">
     <g id="line2d_3">
      <path d="M 167.76 324.72 
L 167.76 55.44 
" clip-path="url(#p31a5cf91c8)" style="fill: none; stroke-dasharray: 2.22,0.96; stroke-dashoffset: 0; stroke: #e2d5f5; stroke-opacity: 0.7; stroke-width: 0.6"/>
     </g>
     <g id="line2d_4">
      <g>
       <use xlink:href="#mc1f9d02bea" x="167.76" y="324.72" style="fill: #9b8bb8; stroke: #9b8bb8; stroke-width: 0.8"/>
      </g>
     </g>
     <g id="text_2">
      <!-- 04/05 -->
      <g style="fill: #9b8bb8" transform="translate(156.219619 353.301793) rotate(-30) scale(0.1 -0.1)">
       <defs>
        <path id="JetBrainsMono-Regular-35" d="M 1882 -64 
Q 1235 -64 857 297 
Q 480 659 480 1280 
L 1056 1280 
Q 1056 896 1280 672 
Q 1504 448 1888 448 
Q 2272 448 2496 672 
Q 2720 896 2720 1280 
L 2720 1568 
Q 2720 1952 2502 2176 
Q 2285 2400 1914 2400 
L 640 2400 
L 640 4672 
L 3130 4672 
L 3130 4147 
L 1178 4147 
L 1190 2925 
L 1946 2925 
Q 2592 2925 2944 2569 
Q 3296 2214 3296 1568 
L 3296 1280 
Q 3296 659 2915 297 
Q 2534 -64 1882 -64 
z
" transform="scale(0.015625)"/>
       </defs>
       <use xlink:href="#JetBrainsMono-Regular-30"/>
       <use xlink:href="#JetBrainsMono-Regular-34" transform="translate(59.999985 0)"/>
       <use xlink:href="#JetBrainsMono-Regular-2f" transform="translate(119.999969 0)"/>
       <use xlink:href="#JetBrainsMono-Regular-30" transform="translate(179.999954 0)"/>
       <use xlink:href="#JetBrainsMono-Regular-35" transform="translate(239.999939 0)"/>
      </g>
     </g>
    </g>
    <g id="xtick_3">
     <g id="line2d_5">
      <path d="M 229.104 324.72 
L 229.104 55.44 
" clip-path="url(#p31a5cf91c8)" style="fill: none; stroke-dasharray: 2.22,0.96; stroke-dashoffset: 0; stroke: #e2d5f5; stroke-opacity: 0.7; stroke-width: 0.6"/>
     </g>
     <g id="line2d_6">
      <g>
       <use xlink:href="#mc1f9d02bea" x="229.104" y="324.72" style="fill: #9b8bb8; stroke: #9b8bb8; stroke-width: 0.8"/>
      </g>
     </g>
     <g id="text_3">
      <!-- 04/08 -->
      <g style="fill: #9b8bb8" transform="translate(217.563619 353.301793) rotate(-30) scale(0.1 -0.1)">
       <defs>
        <path id="JetBrainsMono-Regular-38" d="M 1920 -64 
Q 1478 -64 1139 109 
Q 800 282 611 592 
Q 422 902 422 1306 
Q 422 1747 675 2067 
Q 928 2387 1350 2458 
L 1350 2477 
Q 986 2560 768 2845 
Q 550 3130 550 3501 
Q 550 3866 723 4144 
Q 896 4422 1206 4579 
Q 1517 4736 1920 4736 
Q 2330 4736 2637 4579 
Q 2944 4422 3117 4144 
Q 3290 3866 3290 3501 
Q 3290 3130 3072 2845 
Q 2854 2560 2490 2477 
L 2490 2458 
Q 2912 2387 3165 2067 
Q 3418 1747 3418 1306 
Q 3418 902 3229 592 
Q 3040 282 2704 109 
Q 2368 -64 1920 -64 
z
M 1920 2701 
Q 2278 2701 2496 2912 
Q 2714 3123 2714 3462 
Q 2714 3802 2496 4013 
Q 2278 4224 1920 4224 
Q 1568 4224 1347 4013 
Q 1126 3802 1126 3462 
Q 1126 3123 1347 2912 
Q 1568 2701 1920 2701 
z
M 1920 454 
Q 2330 454 2586 694 
Q 2842 934 2842 1318 
Q 2842 1709 2586 1949 
Q 2330 2189 1920 2189 
Q 1510 2189 1254 1949 
Q 998 1709 998 1318 
Q 998 934 1254 694 
Q 1510 454 1920 454 
z
" transform="scale(0.015625)"/>
       </defs>
       <use xlink:href="#JetBrainsMono-Regular-30"/>
       <use xlink:href="#JetBrainsMono-Regular-34" transform="translate(59.999985 0)"/>
       <use xlink:href="#JetBrainsMono-Regular-2f" transform="translate(119.999969 0)"/>
       <use xlink:href="#JetBrainsMono-Regular-30" transform="translate(179.999954 0)"/>
       <use xlink:href="#JetBrainsMono-Regular-38" transform="translate(239.999939 0)"/>
      </g>
     </g>
    </g>
    <g id="xtick_4">
     <g id="line2d_7">
      <path d="M 290.448 324.72 
L 290.448 55.44 
" clip-path="url(#p31a5cf91c8)" style="fill: none; stroke-dasharray: 2.22,0.96; stroke-dashoffset: 0; stroke: #e2d5f5; stroke-opacity: 0.7; stroke-width: 0.6"/>
     </g>
     <g id="line2d_8">
      <g>
       <use xlink:href="#mc1f9d02bea" x="290.448" y="324.72" style="fill: #9b8bb8; stroke: #9b8bb8; stroke-width: 0.8"/>
      </g>
     </g>
     <g id="text_4">
      <!-- 04/11 -->
      <g style="fill: #9b8bb8" transform="translate(278.907619 353.301793) rotate(-30) scale(0.1 -0.1)">
       <defs>
        <path id="JetBrainsMono-Regular-31" d="M 576 0 
L 576 525 
L 1843 525 
L 1843 4173 
L 576 3226 
L 576 3885 
L 1632 4672 
L 2419 4672 
L 2419 525 
L 3456 525 
L 3456 0 
L 576 0 
z
" transform="scale(0.015625)"/>
       </defs>
       <use xlink:href="#JetBrainsMono-Regular-30"/>
       <use xlink:href="#JetBrainsMono-Regular-34" transform="translate(59.999985 0)"/>
       <use xlink:href="#JetBrainsMono-Regular-2f" transform="translate(119.999969 0)"/>
       <use xlink:href="#JetBrainsMono-Regular-31" transform="translate(179.999954 0)"/>
       <use xlink:href="#JetBrainsMono-Regular-31" transform="translate(239.999939 0)"/>
      </g>
     </g>
    </g>
    <g id="xtick_5">
     <g id="line2d_9">
      <path d="M 351.792 324.72 
L 351.792 55.44 
" clip-path="url(#p31a5cf91c8)" style="fill: none; stroke-dasharray: 2.22,0.96; stroke-dashoffset: 0; stroke: #e2d5f5; stroke-opacity: 0.7; stroke-width: 0.6"/>
     </g>
     <g id="line2d_10">
      <g>
       <use xlink:href="#mc1f9d02bea" x="351.792" y="324.72" style="fill: #9b8bb8; stroke: #9b8bb8; stroke-width: 0.8"/>
      </g>
     </g>
     <g id="text_5">
      <!-- 04/14 -->
      <g style="fill: #9b8bb8" transform="translate(340.251619 353.301793) rotate(-30) scale(0.1 -0.1)">
       <use xlink:href="#JetBrainsMono-Regular-30"/>
       <use xlink:href="#JetBrainsMono-Regular-34" transform="translate(59.999985 0)"/>
       <use xlink:href="#JetBrainsMono-Regular-2f" transform="translate(119.999969 0)"/>
       <use xlink:href="#JetBrainsMono-Regular-31" transform="translate(179.999954 0)"/>
       <use xlink:href="#JetBrainsMono-Regular-34" transform="translate(239.999939 0)"/>
      </g>
     </g>
    </g>
    <g id="xtick_6">
     <g id="line2d_11">
      <path d="M 413.136 324.72 
L 413.136 55.44 
" clip-path="url(#p31a5cf91c8)" style="fill: none; stroke-dasharray: 2.22,0.96; stroke-dashoffset: 0; stroke: #e2d5f5; stroke-opacity: 0.7; stroke-width: 0.6"/>
     </g>
     <g id="line2d_12">
      <g>
       <use xlink:href="#mc1f9d02bea" x="413.136" y="324.72" style="fill: #9b8bb8; stroke: #9b8bb8; stroke-width: 0.8"/>
      </g>
     </g>
     <g id="text_6">
      <!-- 04/17 -->
      <g style="fill: #9b8bb8" transform="translate(401.595619 353.301793) rotate(-30) scale(0.1 -0.1)">
       <defs>
        <path id="JetBrainsMono-Regular-37" d="M 1216 0 
L 2880 4147 
L 1101 4147 
L 1101 3392 
L 525 3392 
L 525 4672 
L 3494 4672 
L 3494 4134 
L 1843 0 
L 1216 0 
z
" transform="scale(0.015625)"/>
       </defs>
       <use xlink:href="#JetBrainsMono-Regular-30"/>
       <use xlink:href="#JetBrainsMono-Regular-34" transform="translate(59.999985 0)"/>
       <use xlink:href="#JetBrainsMono-Regular-2f" transform="translate(119.999969 0)"/>
       <use xlink:href="#JetBrainsMono-Regular-31" transform="translate(179.999954 0)"/>
       <use xlink:href="#JetBrainsMono-Regular-37" transform="translate(239.999939 0)"/>
      </g>
     </g>
    </g>
    <g id="xtick_7">
     <g id="line2d_13">
      <path d="M 474.48 324.72 
L 474.48 55.44 
" clip-path="url(#p31a5cf91c8)" style="fill: none; stroke-dasharray: 2.22,0.96; stroke-dashoffset: 0; stroke: #e2d5f5; stroke-opacity: 0.7; stroke-width: 0.6"/>
     </g>
     <g id="line2d_14">
      <g>
       <use xlink:href="#mc1f9d02bea" x="474.48" y="324.72" style="fill: #9b8bb8; stroke: #9b8bb8; stroke-width: 0.8"/>
      </g>
     </g>
     <g id="text_7">
      <!-- 04/20 -->
      <g style="fill: #9b8bb8" transform="translate(462.939619 353.301793) rotate(-30) scale(0.1 -0.1)">
       <use xlink:href="#JetBrainsMono-Regular-30"/>
       <use xlink:href="#JetBrainsMono-Regular-34" transform="translate(59.999985 0)"/>
       <use xlink:href="#JetBrainsMono-Regular-2f" transform="translate(119.999969 0)"/>
       <use xlink:href="#JetBrainsMono-Regular-32" transform="translate(179.999954 0)"/>
       <use xlink:href="#JetBrainsMono-Regular-30" transform="translate(239.999939 0)"/>
      </g>
     </g>
    </g>
    <g id="xtick_8">
     <g id="line2d_15">
      <path d="M 535.824 324.72 
L 535.824 55.44 
" clip-path="url(#p31a5cf91c8)" style="fill: none; stroke-dasharray: 2.22,0.96; stroke-dashoffset: 0; stroke: #e2d5f5; stroke-opacity: 0.7; stroke-width: 0.6"/>
     </g>
     <g id="line2d_16">
      <g>
       <use xlink:href="#mc1f9d02bea" x="535.824" y="324.72" style="fill: #9b8bb8; stroke: #9b8bb8; stroke-width: 0.8"/>
      </g>
     </g>
     <g id="text_8">
      <!-- 04/23 -->
      <g style="fill: #9b8bb8" transform="translate(524.283619 353.301793) rotate(-30) scale(0.1 -0.1)">
       <defs>
        <path id="JetBrainsMono-Regular-33" d="M 1850 -64 
Q 1203 -64 825 297 
Q 448 659 448 1280 
L 1024 1280 
Q 1024 896 1248 672 
Q 1472 448 1856 448 
Q 2240 448 2464 672 
Q 2688 896 2688 1280 
L 2688 1600 
Q 2688 1984 2464 2208 
Q 2240 2432 1856 2432 
L 1350 2432 
L 1350 2931 
L 2496 4147 
L 576 4147 
L 576 4672 
L 3149 4672 
L 3149 4134 
L 2022 2938 
Q 2598 2893 2931 2537 
Q 3264 2182 3264 1600 
L 3264 1280 
Q 3264 659 2883 297 
Q 2502 -64 1850 -64 
z
" transform="scale(0.015625)"/>
       </defs>
       <use xlink:href="#JetBrainsMono-Regular-30"/>
       <use xlink:href="#JetBrainsMono-Regular-34" transform="translate(59.999985 0)"/>
       <use xlink:href="#JetBrainsMono-Regular-2f" transform="translate(119.999969 0)"/>
       <use xlink:href="#JetBrainsMono-Regular-32" transform="translate(179.999954 0)"/>
       <use xlink:href="#JetBrainsMono-Regular-33" transform="translate(239.999939 0)"/>
      </g>
     </g>
    </g>
   </g>
   <g id="matplotlib.axis_2">
    <g id="ytick_1">
     <g id="line2d_17">
      <path d="M 55.296 309.990606 
L 546.048 309.990606 
" clip-path="url(#p31a5cf91c8)" style="fill: none; stroke-dasharray: 2.22,0.96; stroke-dashoffset: 0; stroke: #e2d5f5; stroke-opacity: 0.7; stroke-width: 0.6"/>
     </g>
     <g id="line2d_18">
      <defs>
       <path id="mf0b01c9262" d="M 0 0 
L -3.5 0 
" style="stroke: #9b8bb8; stroke-width: 0.8"/>
      </defs>
      <g>
       <use xlink:href="#mf0b01c9262" x="55.296" y="309.990606" style="fill: #9b8bb8; stroke: #9b8bb8; stroke-width: 0.8"/>
      </g>
     </g>
     <g id="text_9">
      <!-- 200 -->
      <g style="fill: #9b8bb8" transform="translate(30.296 313.640606) scale(0.1 -0.1)">
       <use xlink:href="#JetBrainsMono-Regular-32"/>
       <use xlink:href="#JetBrainsMono-Regular-30" transform="translate(59.999985 0)"/>
       <use xlink:href="#JetBrainsMono-Regular-30" transform="translate(119.999969 0)"/>
      </g>
     </g>
    </g>
    <g id="ytick_2">
     <g id="line2d_19">
      <path d="M 55.296 273.167121 
L 546.048 273.167121 
" clip-path="url(#p31a5cf91c8)" style="fill: none; stroke-dasharray: 2.22,0.96; stroke-dashoffset: 0; stroke: #e2d5f5; stroke-opacity: 0.7; stroke-width: 0.6"/>
     </g>
     <g id="line2d_20">
      <g>
       <use xlink:href="#mf0b01c9262" x="55.296" y="273.167121" style="fill: #9b8bb8; stroke: #9b8bb8; stroke-width: 0.8"/>
      </g>
     </g>
     <g id="text_10">
      <!-- 210 -->
      <g style="fill: #9b8bb8" transform="translate(30.296 276.817121) scale(0.1 -0.1)">
       <use xlink:href="#JetBrainsMono-Regular-32"/>
       <use xlink:href="#JetBrainsMono-Regular-31" transform="translate(59.999985 0)"/>
       <use xlink:href="#JetBrainsMono-Regular-30" transform="translate(119.999969 0)"/>
      </g>
     </g>
    </g>
    <g id="ytick_3">
     <g id="line2d_21">
      <path d="M 55.296 236.343636 
L 546.048 236.343636 
" clip-path="url(#p31a5cf91c8)" style="fill: none; stroke-dasharray: 2.22,0.96; stroke-dashoffset: 0; stroke: #e2d5f5; stroke-opacity: 0.7; stroke-width: 0.6"/>
     </g>
     <g id="line2d_22">
      <g>
       <use xlink:href="#mf0b01c9262" x="55.296" y="236.343636" style="fill: #9b8bb8; stroke: #9b8bb8; stroke-width: 0.8"/>
      </g>
     </g>
     <g id="text_11">
      <!-- 220 -->
      <g style="fill: #9b8bb8" transform="translate(30.296 239.993636) scale(0.1 -0.1)">
       <use xlink:href="#JetBrainsMono-Regular-32"/>
       <use xlink:href="#JetBrainsMono-Regular-32" transform="translate(59.999985 0)"/>
       <use xlink:href="#JetBrainsMono-Regular-30" transform="translate(119.999969 0)"/>
      </g>
     </g>
    </g>
    <g id="ytick_4">
     <g id="line2d_23">
      <path d="M 55.296 199.520151 
L 546.048 199.520151 
" clip-path="url(#p31a5cf91c8)" style="fill: none; stroke-dasharray: 2.22,0.96; stroke-dashoffset: 0; stroke: #e2d5f5; stroke-opacity: 0.7; stroke-width: 0.6"/>
     </g>
     <g id="line2d_24">
      <g>
       <use xlink:href="#mf0b01c9262" x="55.296" y="199.520151" style="fill: #9b8bb8; stroke: #9b8bb8; stroke-width: 0.8"/>
      </g>
     </g>
     <g id="text_12">
      <!-- 230 -->
      <g style="fill: #9b8bb8" transform="translate(30.296 203.170151) scale(0.1 -0.1)">
       <use xlink:href="#JetBrainsMono-Regular-32"/>
       <use xlink:href="#JetBrainsMono-Regular-33" transform="translate(59.999985 0)"/>
       <use xlink:href="#JetBrainsMono-Regular-30" transform="translate(119.999969 0)"/>
      </g>
     </g>
    </g>
    <g id="ytick_5">
     <g id="line2d_25">
      <path d="M 55.296 162.696665 
L 546.048 162.696665 
" clip-path="url(#p31a5cf91c8)" style="fill: none; stroke-dasharray: 2.22,0.96; stroke-dashoffset: 0; stroke: #e2d5f5; stroke-opacity: 0.7; stroke-width: 0.6"/>
     </g>
     <g id="line2d_26">
      <g>
       <use xlink:href="#mf0b01c9262" x="55.296" y="162.696665" style="fill: #9b8bb8; stroke: #9b8bb8; stroke-width: 0.8"/>
      </g>
     </g>
     <g id="text_13">
      <!-- 240 -->
      <g style="fill: #9b8bb8" transform="translate(30.296 166.346665) scale(0.1 -0.1)">
       <use xlink:href="#JetBrainsMono-Regular-32"/>
       <use xlink:href="#JetBrainsMono-Regular-34" transform="translate(59.999985 0)"/>
       <use xlink:href="#JetBrainsMono-Regular-30" transform="translate(119.999969 0)"/>
      </g>
     </g>
    </g>
    <g id="ytick_6">
     <g id="line2d_27">
      <path d="M 55.296 125.87318 
L 546.048 125.87318 
" clip-path="url(#p31a5cf91c8)" style="fill: none; stroke-dasharray: 2.22,0.96; stroke-dashoffset: 0; stroke: #e2d5f5; stroke-opacity: 0.7; stroke-width: 0.6"/>
     </g>
     <g id="line2d_28">
      <g>
       <use xlink:href="#mf0b01c9262" x="55.296" y="125.87318" style="fill: #9b8bb8; stroke: #9b8bb8; stroke-width: 0.8"/>
      </g>
     </g>
     <g id="text_14">
      <!-- 250 -->
      <g style="fill: #9b8bb8" transform="translate(30.296 129.52318) scale(0.1 -0.1)">
       <use xlink:href="#JetBrainsMono-Regular-32"/>
       <use xlink:href="#JetBrainsMono-Regular-35" transform="translate(59.999985 0)"/>
       <use xlink:href="#JetBrainsMono-Regular-30" transform="translate(119.999969 0)"/>
      </g>
     </g>
    </g>
    <g id="ytick_7">
     <g id="line2d_29">
      <path d="M 55.296 89.049695 
L 546.048 89.049695 
" clip-path="url(#p31a5cf91c8)" style="fill: none; stroke-dasharray: 2.22,0.96; stroke-dashoffset: 0; stroke: #e2d5f5; stroke-opacity: 0.7; stroke-width: 0.6"/>
     </g>
     <g id="line2d_30">
      <g>
       <use xlink:href="#mf0b01c9262" x="55.296" y="89.049695" style="fill: #9b8bb8; stroke: #9b8bb8; stroke-width: 0.8"/>
      </g>
     </g>
     <g id="text_15">
      <!-- 260 -->
      <g style="fill: #9b8bb8" transform="translate(30.296 92.699695) scale(0.1 -0.1)">
       <defs>
        <path id="JetBrainsMono-Regular-36" d="M 1926 -64 
Q 1478 -64 1136 125 
Q 794 314 602 650 
Q 410 986 410 1427 
Q 410 1734 525 2057 
Q 640 2381 838 2733 
L 1920 4672 
L 2560 4672 
L 1408 2669 
L 1427 2656 
Q 1510 2765 1676 2822 
Q 1843 2880 2042 2880 
Q 2458 2880 2768 2697 
Q 3078 2515 3254 2195 
Q 3430 1875 3430 1453 
Q 3430 1005 3238 662 
Q 3046 320 2710 128 
Q 2374 -64 1926 -64 
z
M 1920 448 
Q 2336 448 2595 723 
Q 2854 998 2854 1440 
Q 2854 1882 2595 2157 
Q 2336 2432 1920 2432 
Q 1504 2432 1245 2157 
Q 986 1882 986 1440 
Q 986 998 1245 723 
Q 1504 448 1920 448 
z
" transform="scale(0.015625)"/>
       </defs>
       <use xlink:href="#JetBrainsMono-Regular-32"/>
       <use xlink:href="#JetBrainsMono-Regular-36" transform="translate(59.999985 0)"/>
       <use xlink:href="#JetBrainsMono-Regular-30" transform="translate(119.999969 0)"/>
      </g>
     </g>
    </g>
    <g id="text_16">
     <!-- Rating -->
     <g style="fill: #9b8bb8" transform="translate(24.496 208.08) rotate(-90) scale(0.1 -0.1)">
      <defs>
       <path id="JetBrainsMono-Regular-52" d="M 595 0 
L 595 4672 
L 2035 4672 
Q 2451 4672 2764 4502 
Q 3078 4333 3251 4032 
Q 3424 3731 3424 3328 
Q 3424 2854 3181 2515 
Q 2938 2176 2534 2042 
L 3488 0 
L 2854 0 
L 1939 1984 
L 1165 1984 
L 1165 0 
L 595 0 
z
M 1165 2502 
L 2035 2502 
Q 2394 2502 2611 2729 
Q 2829 2957 2829 3328 
Q 2829 3706 2611 3930 
Q 2394 4154 2035 4154 
L 1165 4154 
L 1165 2502 
z
" transform="scale(0.015625)"/>
       <path id="JetBrainsMono-Regular-61" d="M 1613 -64 
Q 1069 -64 749 240 
Q 429 544 429 1037 
Q 429 1363 576 1606 
Q 723 1850 985 1987 
Q 1248 2125 1587 2125 
L 2675 2125 
L 2675 2400 
Q 2675 3085 1926 3085 
Q 1594 3085 1389 2963 
Q 1184 2842 1171 2624 
L 595 2624 
Q 627 3040 982 3312 
Q 1338 3584 1926 3584 
Q 2566 3584 2908 3277 
Q 3251 2970 3251 2419 
L 3251 0 
L 2682 0 
L 2682 640 
L 2669 640 
Q 2618 314 2342 125 
Q 2067 -64 1613 -64 
z
M 1754 422 
Q 2176 422 2425 627 
Q 2675 832 2675 1184 
L 2675 1677 
L 1651 1677 
Q 1370 1677 1194 1507 
Q 1018 1338 1018 1056 
Q 1018 762 1213 592 
Q 1408 422 1754 422 
z
" transform="scale(0.015625)"/>
       <path id="JetBrainsMono-Regular-74" d="M 2272 0 
Q 1837 0 1574 253 
Q 1312 506 1312 928 
L 1312 2995 
L 301 2995 
L 301 3520 
L 1312 3520 
L 1312 4512 
L 1888 4512 
L 1888 3520 
L 3328 3520 
L 3328 2995 
L 1888 2995 
L 1888 928 
Q 1888 749 1993 637 
Q 2099 525 2272 525 
L 3296 525 
L 3296 0 
L 2272 0 
z
" transform="scale(0.015625)"/>
       <path id="JetBrainsMono-Regular-69" d="M 544 0 
L 544 525 
L 1792 525 
L 1792 2995 
L 672 2995 
L 672 3520 
L 2368 3520 
L 2368 525 
L 3552 525 
L 3552 0 
L 544 0 
z
M 2016 4154 
Q 1805 4154 1683 4262 
Q 1562 4371 1562 4557 
Q 1562 4749 1683 4861 
Q 1805 4973 2016 4973 
Q 2227 4973 2348 4861 
Q 2470 4749 2470 4557 
Q 2470 4371 2348 4262 
Q 2227 4154 2016 4154 
z
" transform="scale(0.015625)"/>
       <path id="JetBrainsMono-Regular-6e" d="M 589 0 
L 589 3520 
L 1165 3520 
L 1165 2848 
L 1171 2848 
Q 1216 3200 1459 3392 
Q 1702 3584 2106 3584 
Q 2637 3584 2950 3257 
Q 3264 2931 3264 2368 
L 3264 0 
L 2688 0 
L 2688 2266 
Q 2688 2669 2486 2883 
Q 2285 3098 1939 3098 
Q 1581 3098 1373 2874 
Q 1165 2650 1165 2240 
L 1165 0 
L 589 0 
z
" transform="scale(0.015625)"/>
       <path id="JetBrainsMono-Regular-67" d="M 1030 -1152 
L 1030 -627 
L 2022 -627 
Q 2323 -627 2496 -457 
Q 2669 -288 2669 0 
L 2669 320 
L 2682 896 
L 2662 896 
Q 2611 582 2361 412 
Q 2112 243 1734 243 
Q 1190 243 876 588 
Q 563 934 563 1536 
L 563 2278 
Q 563 2880 876 3232 
Q 1190 3584 1734 3584 
Q 2112 3584 2361 3405 
Q 2611 3226 2662 2912 
L 2675 2912 
L 2675 3520 
L 3245 3520 
L 3245 0 
Q 3245 -531 2915 -841 
Q 2586 -1152 2016 -1152 
L 1030 -1152 
z
M 1907 723 
Q 2266 723 2470 947 
Q 2675 1171 2675 1568 
L 2675 2240 
Q 2675 2637 2470 2861 
Q 2266 3085 1907 3085 
Q 1542 3085 1340 2873 
Q 1139 2662 1139 2304 
L 1139 1504 
Q 1139 1146 1340 934 
Q 1542 723 1907 723 
z
" transform="scale(0.015625)"/>
      </defs>
      <use xlink:href="#JetBrainsMono-Regular-52"/>
      <use xlink:href="#JetBrainsMono-Regular-61" transform="translate(59.999985 0)"/>
      <use xlink:href="#JetBrainsMono-Regular-74" transform="translate(119.999969 0)"/>
      <use xlink:href="#JetBrainsMono-Regular-69" transform="translate(179.999954 0)"/>
      <use xlink:href="#JetBrainsMono-Regular-6e" transform="translate(239.999939 0)"/>
      <use xlink:href="#JetBrainsMono-Regular-67" transform="translate(299.999924 0)"/>
     </g>
    </g>
   </g>
   <g id="patch_3">
    <path d="M 55.296 324.72 
L 55.296 55.44 
" style="fill: none; stroke: #d8c8ef; stroke-width: 0.8; stroke-linejoin: miter; stroke-linecap: square"/>
   </g>
   <g id="patch_4">
    <path d="M 55.296 324.72 
L 546.048 324.72 
" style="fill: none; stroke: #d8c8ef; stroke-width: 0.8; stroke-linejoin: miter; stroke-linecap: square"/>
   </g>
   <g id="FillBetweenPolyCollection_1">
    <defs>
     <path id="mec3cb1ee5a" d="M 65.52 -71.28 
L 65.52 -89.691743 
L 67.092923 -91.862092 
L 68.665846 -93.511557 
L 70.238769 -94.683546 
L 71.811692 -95.421465 
L 73.384615 -95.768721 
L 74.957538 -95.768721 
L 76.530462 -95.464872 
L 78.103385 -94.900581 
L 79.676308 -94.119255 
L 81.249231 -93.164302 
L 82.822154 -92.079127 
L 84.395077 -90.907138 
L 85.968 -89.691743 
L 87.540923 -88.476347 
L 89.113846 -87.304358 
L 90.686769 -86.219184 
L 92.259692 -85.26423 
L 93.832615 -84.482904 
L 95.405538 -83.918613 
L 96.978462 -83.614764 
L 98.551385 -83.614764 
L 100.124308 -83.96202 
L 101.697231 -84.699939 
L 103.270154 -85.871928 
L 104.843077 -87.521393 
L 106.416 -89.691743 
L 107.988923 -92.404765 
L 109.561846 -95.595777 
L 111.134769 -99.178479 
L 112.707692 -103.06657 
L 114.280615 -107.173749 
L 115.853538 -111.413715 
L 117.426462 -115.700168 
L 118.999385 -119.946808 
L 120.572308 -124.067333 
L 122.145231 -127.975442 
L 123.718154 -131.584836 
L 125.291077 -134.809213 
L 126.864 -137.562273 
L 128.436923 -139.782172 
L 130.009846 -141.504893 
L 131.582769 -142.790877 
L 133.155692 -143.700563 
L 134.728615 -144.294392 
L 136.301538 -144.632803 
L 137.874462 -144.776238 
L 139.447385 -144.785135 
L 141.020308 -144.719935 
L 142.593231 -144.641079 
L 144.166154 -144.609006 
L 145.739077 -144.684156 
L 147.312 -144.92697 
L 148.884923 -145.383694 
L 150.457846 -146.043795 
L 152.030769 -146.882549 
L 153.603692 -147.875231 
L 155.176615 -148.997113 
L 156.749538 -150.223472 
L 158.322462 -151.529581 
L 159.895385 -152.890715 
L 161.468308 -154.282149 
L 163.041231 -155.679156 
L 164.614154 -157.057011 
L 166.187077 -158.390989 
L 167.76 -159.656364 
L 169.332923 -160.833914 
L 170.905846 -161.926428 
L 172.478769 -162.942199 
L 174.051692 -163.889519 
L 175.624615 -164.776681 
L 177.197538 -165.611978 
L 178.770462 -166.403703 
L 180.343385 -167.160147 
L 181.916308 -167.889604 
L 183.489231 -168.600366 
L 185.062154 -169.300726 
L 186.635077 -169.998976 
L 188.208 -170.70341 
L 189.780923 -171.424558 
L 191.353846 -172.181906 
L 192.926769 -172.997178 
L 194.499692 -173.8921 
L 196.072615 -174.888396 
L 197.645538 -176.007789 
L 199.218462 -177.272006 
L 200.791385 -178.702769 
L 202.364308 -180.321805 
L 203.937231 -182.150836 
L 205.510154 -184.211588 
L 207.083077 -186.525785 
L 208.656 -189.115152 
L 210.228923 -191.988632 
L 211.801846 -195.104041 
L 213.374769 -198.406415 
L 214.947692 -201.840789 
L 216.520615 -205.352199 
L 218.093538 -208.885679 
L 219.666462 -212.386265 
L 221.239385 -215.798992 
L 222.812308 -219.068897 
L 224.385231 -222.141013 
L 225.958154 -224.960376 
L 227.531077 -227.472022 
L 229.104 -229.620986 
L 230.676923 -231.369345 
L 232.249846 -232.747344 
L 233.822769 -233.802271 
L 235.395692 -234.581412 
L 236.968615 -235.132054 
L 238.541538 -235.501484 
L 240.114462 -235.73699 
L 241.687385 -235.885859 
L 243.260308 -235.995376 
L 244.833231 -236.112831 
L 246.406154 -236.285509 
L 247.979077 -236.560697 
L 249.552 -236.985683 
L 251.124923 -237.595946 
L 252.697846 -238.379731 
L 254.270769 -239.313476 
L 255.843692 -240.373619 
L 257.416615 -241.536599 
L 258.989538 -242.778853 
L 260.562462 -244.076818 
L 262.135385 -245.406933 
L 263.708308 -246.745635 
L 265.281231 -248.069363 
L 266.854154 -249.354554 
L 268.427077 -250.577646 
L 270 -251.715077 
L 271.572923 -252.750011 
L 273.145846 -253.692513 
L 274.718769 -254.559376 
L 276.291692 -255.367392 
L 277.864615 -256.133354 
L 279.437538 -256.874053 
L 281.010462 -257.606281 
L 282.583385 -258.34683 
L 284.156308 -259.112493 
L 285.729231 -259.920062 
L 287.302154 -260.786328 
L 288.875077 -261.728085 
L 290.448 -262.762123 
L 292.020923 -263.900197 
L 293.593846 -265.133908 
L 295.166769 -266.449819 
L 296.739692 -267.834495 
L 298.312615 -269.274497 
L 299.885538 -270.756389 
L 301.458462 -272.266734 
L 303.031385 -273.792096 
L 304.604308 -275.319038 
L 306.177231 -276.834122 
L 307.750154 -278.323913 
L 309.323077 -279.774973 
L 310.896 -281.173865 
L 312.468923 -282.5122 
L 314.041846 -283.801772 
L 315.614769 -285.059425 
L 317.187692 -286.302 
L 318.760615 -287.546338 
L 320.333538 -288.809283 
L 321.906462 -290.107676 
L 323.479385 -291.45836 
L 325.052308 -292.878176 
L 326.625231 -294.383967 
L 328.198154 -295.992574 
L 329.771077 -297.720841 
L 331.344 -299.585608 
L 332.916923 -301.595274 
L 334.489846 -303.724465 
L 336.062769 -305.939362 
L 337.635692 -308.206146 
L 339.208615 -310.490998 
L 340.781538 -312.7601 
L 342.354462 -314.979634 
L 343.927385 -317.11578 
L 345.500308 -319.13472 
L 347.073231 -321.002635 
L 348.646154 -322.685707 
L 350.219077 -324.150118 
L 351.792 -325.362047 
L 353.364923 -326.297968 
L 354.937846 -326.975514 
L 356.510769 -327.42261 
L 358.083692 -327.667178 
L 359.656615 -327.737143 
L 361.229538 -327.660429 
L 362.802462 -327.464961 
L 364.375385 -327.178662 
L 365.948308 -326.829456 
L 367.521231 -326.445268 
L 369.094154 -326.054021 
L 370.667077 -325.683639 
L 372.24 -325.362047 
L 373.812923 -325.111268 
L 375.385846 -324.92972 
L 376.958769 -324.809921 
L 378.531692 -324.744389 
L 380.104615 -324.725642 
L 381.677538 -324.746198 
L 383.250462 -324.798573 
L 384.823385 -324.875287 
L 386.396308 -324.968856 
L 387.969231 -325.071799 
L 389.542154 -325.176634 
L 391.115077 -325.275877 
L 392.688 -325.362047 
L 394.260923 -325.429243 
L 395.833846 -325.477889 
L 397.406769 -325.509989 
L 398.979692 -325.527548 
L 400.552615 -325.532572 
L 402.125538 -325.527064 
L 403.698462 -325.51303 
L 405.271385 -325.492474 
L 406.844308 -325.467403 
L 408.417231 -325.439819 
L 409.990154 -325.411729 
L 411.563077 -325.385137 
L 413.136 -325.362047 
L 414.708923 -325.344042 
L 416.281846 -325.331008 
L 417.854769 -325.322406 
L 419.427692 -325.317701 
L 421.000615 -325.316355 
L 422.573538 -325.317831 
L 424.146462 -325.321591 
L 425.719385 -325.327099 
L 427.292308 -325.333817 
L 428.865231 -325.341208 
L 430.438154 -325.348735 
L 432.011077 -325.35586 
L 433.584 -325.362047 
L 435.156923 -325.366872 
L 436.729846 -325.370365 
L 438.302769 -325.37267 
L 439.875692 -325.37393 
L 441.448615 -325.374291 
L 443.021538 -325.373896 
L 444.594462 -325.372889 
L 446.167385 -325.371413 
L 447.740308 -325.369613 
L 449.313231 -325.367632 
L 450.886154 -325.365615 
L 452.459077 -325.363706 
L 454.032 -325.362047 
L 455.604923 -325.360754 
L 457.177846 -325.359817 
L 458.750769 -325.359199 
L 460.323692 -325.358861 
L 461.896615 -325.358763 
L 463.469538 -325.358869 
L 465.042462 -325.359138 
L 466.615385 -325.359534 
L 468.188308 -325.360016 
L 469.761231 -325.360547 
L 471.334154 -325.361088 
L 472.907077 -325.361601 
L 474.48 -325.362047 
L 476.052923 -325.362396 
L 477.625846 -325.362649 
L 479.198769 -325.362818 
L 480.771692 -325.362911 
L 482.344615 -325.362939 
L 483.917538 -325.362913 
L 485.490462 -325.362842 
L 487.063385 -325.362737 
L 488.636308 -325.362607 
L 490.209231 -325.362463 
L 491.782154 -325.362315 
L 493.355077 -325.362173 
L 494.928 -325.362047 
L 496.500923 -325.361946 
L 498.073846 -325.361869 
L 499.646769 -325.361814 
L 501.219692 -325.36178 
L 502.792615 -325.361764 
L 504.365538 -325.361764 
L 505.938462 -325.361778 
L 507.511385 -325.361804 
L 509.084308 -325.361841 
L 510.657231 -325.361885 
L 512.230154 -325.361936 
L 513.803077 -325.361991 
L 515.376 -325.362047 
L 516.948923 -325.362104 
L 518.521846 -325.362159 
L 520.094769 -325.362209 
L 521.667692 -325.362254 
L 523.240615 -325.362291 
L 524.813538 -325.362317 
L 526.386462 -325.362331 
L 527.959385 -325.362331 
L 529.532308 -325.362315 
L 531.105231 -325.36228 
L 532.678154 -325.362226 
L 534.251077 -325.362149 
L 535.824 -325.362047 
L 535.824 -71.28 
L 535.824 -71.28 
L 534.251077 -71.28 
L 532.678154 -71.28 
L 531.105231 -71.28 
L 529.532308 -71.28 
L 527.959385 -71.28 
L 526.386462 -71.28 
L 524.813538 -71.28 
L 523.240615 -71.28 
L 521.667692 -71.28 
L 520.094769 -71.28 
L 518.521846 -71.28 
L 516.948923 -71.28 
L 515.376 -71.28 
L 513.803077 -71.28 
L 512.230154 -71.28 
L 510.657231 -71.28 
L 509.084308 -71.28 
L 507.511385 -71.28 
L 505.938462 -71.28 
L 504.365538 -71.28 
L 502.792615 -71.28 
L 501.219692 -71.28 
L 499.646769 -71.28 
L 498.073846 -71.28 
L 496.500923 -71.28 
L 494.928 -71.28 
L 493.355077 -71.28 
L 491.782154 -71.28 
L 490.209231 -71.28 
L 488.636308 -71.28 
L 487.063385 -71.28 
L 485.490462 -71.28 
L 483.917538 -71.28 
L 482.344615 -71.28 
L 480.771692 -71.28 
L 479.198769 -71.28 
L 477.625846 -71.28 
L 476.052923 -71.28 
L 474.48 -71.28 
L 472.907077 -71.28 
L 471.334154 -71.28 
L 469.761231 -71.28 
L 468.188308 -71.28 
L 466.615385 -71.28 
L 465.042462 -71.28 
L 463.469538 -71.28 
L 461.896615 -71.28 
L 460.323692 -71.28 
L 458.750769 -71.28 
L 457.177846 -71.28 
L 455.604923 -71.28 
L 454.032 -71.28 
L 452.459077 -71.28 
L 450.886154 -71.28 
L 449.313231 -71.28 
L 447.740308 -71.28 
L 446.167385 -71.28 
L 444.594462 -71.28 
L 443.021538 -71.28 
L 441.448615 -71.28 
L 439.875692 -71.28 
L 438.302769 -71.28 
L 436.729846 -71.28 
L 435.156923 -71.28 
L 433.584 -71.28 
L 432.011077 -71.28 
L 430.438154 -71.28 
L 428.865231 -71.28 
L 427.292308 -71.28 
L 425.719385 -71.28 
L 424.146462 -71.28 
L 422.573538 -71.28 
L 421.000615 -71.28 
L 419.427692 -71.28 
L 417.854769 -71.28 
L 416.281846 -71.28 
L 414.708923 -71.28 
L 413.136 -71.28 
L 411.563077 -71.28 
L 409.990154 -71.28 
L 408.417231 -71.28 
L 406.844308 -71.28 
L 405.271385 -71.28 
L 403.698462 -71.28 
L 402.125538 -71.28 
L 400.552615 -71.28 
L 398.979692 -71.28 
L 397.406769 -71.28 
L 395.833846 -71.28 
L 394.260923 -71.28 
L 392.688 -71.28 
L 391.115077 -71.28 
L 389.542154 -71.28 
L 387.969231 -71.28 
L 386.396308 -71.28 
L 384.823385 -71.28 
L 383.250462 -71.28 
L 381.677538 -71.28 
L 380.104615 -71.28 
L 378.531692 -71.28 
L 376.958769 -71.28 
L 375.385846 -71.28 
L 373.812923 -71.28 
L 372.24 -71.28 
L 370.667077 -71.28 
L 369.094154 -71.28 
L 367.521231 -71.28 
L 365.948308 -71.28 
L 364.375385 -71.28 
L 362.802462 -71.28 
L 361.229538 -71.28 
L 359.656615 -71.28 
L 358.083692 -71.28 
L 356.510769 -71.28 
L 354.937846 -71.28 
L 353.364923 -71.28 
L 351.792 -71.28 
L 350.219077 -71.28 
L 348.646154 -71.28 
L 347.073231 -71.28 
L 345.500308 -71.28 
L 343.927385 -71.28 
L 342.354462 -71.28 
L 340.781538 -71.28 
L 339.208615 -71.28 
L 337.635692 -71.28 
L 336.062769 -71.28 
L 334.489846 -71.28 
L 332.916923 -71.28 
L 331.344 -71.28 
L 329.771077 -71.28 
L 328.198154 -71.28 
L 326.625231 -71.28 
L 325.052308 -71.28 
L 323.479385 -71.28 
L 321.906462 -71.28 
L 320.333538 -71.28 
L 318.760615 -71.28 
L 317.187692 -71.28 
L 315.614769 -71.28 
L 314.041846 -71.28 
L 312.468923 -71.28 
L 310.896 -71.28 
L 309.323077 -71.28 
L 307.750154 -71.28 
L 306.177231 -71.28 
L 304.604308 -71.28 
L 303.031385 -71.28 
L 301.458462 -71.28 
L 299.885538 -71.28 
L 298.312615 -71.28 
L 296.739692 -71.28 
L 295.166769 -71.28 
L 293.593846 -71.28 
L 292.020923 -71.28 
L 290.448 -71.28 
L 288.875077 -71.28 
L 287.302154 -71.28 
L 285.729231 -71.28 
L 284.156308 -71.28 
L 282.583385 -71.28 
L 281.010462 -71.28 
L 279.437538 -71.28 
L 277.864615 -71.28 
L 276.291692 -71.28 
L 274.718769 -71.28 
L 273.145846 -71.28 
L 271.572923 -71.28 
L 270 -71.28 
L 268.427077 -71.28 
L 266.854154 -71.28 
L 265.281231 -71.28 
L 263.708308 -71.28 
L 262.135385 -71.28 
L 260.562462 -71.28 
L 258.989538 -71.28 
L 257.416615 -71.28 
L 255.843692 -71.28 
L 254.270769 -71.28 
L 252.697846 -71.28 
L 251.124923 -71.28 
L 249.552 -71.28 
L 247.979077 -71.28 
L 246.406154 -71.28 
L 244.833231 -71.28 
L 243.260308 -71.28 
L 241.687385 -71.28 
L 240.114462 -71.28 
L 238.541538 -71.28 
L 236.968615 -71.28 
L 235.395692 -71.28 
L 233.822769 -71.28 
L 232.249846 -71.28 
L 230.676923 -71.28 
L 229.104 -71.28 
L 227.531077 -71.28 
L 225.958154 -71.28 
L 224.385231 -71.28 
L 222.812308 -71.28 
L 221.239385 -71.28 
L 219.666462 -71.28 
L 218.093538 -71.28 
L 216.520615 -71.28 
L 214.947692 -71.28 
L 213.374769 -71.28 
L 211.801846 -71.28 
L 210.228923 -71.28 
L 208.656 -71.28 
L 207.083077 -71.28 
L 205.510154 -71.28 
L 203.937231 -71.28 
L 202.364308 -71.28 
L 200.791385 -71.28 
L 199.218462 -71.28 
L 197.645538 -71.28 
L 196.072615 -71.28 
L 194.499692 -71.28 
L 192.926769 -71.28 
L 191.353846 -71.28 
L 189.780923 -71.28 
L 188.208 -71.28 
L 186.635077 -71.28 
L 185.062154 -71.28 
L 183.489231 -71.28 
L 181.916308 -71.28 
L 180.343385 -71.28 
L 178.770462 -71.28 
L 177.197538 -71.28 
L 175.624615 -71.28 
L 174.051692 -71.28 
L 172.478769 -71.28 
L 170.905846 -71.28 
L 169.332923 -71.28 
L 167.76 -71.28 
L 166.187077 -71.28 
L 164.614154 -71.28 
L 163.041231 -71.28 
L 161.468308 -71.28 
L 159.895385 -71.28 
L 158.322462 -71.28 
L 156.749538 -71.28 
L 155.176615 -71.28 
L 153.603692 -71.28 
L 152.030769 -71.28 
L 150.457846 -71.28 
L 148.884923 -71.28 
L 147.312 -71.28 
L 145.739077 -71.28 
L 144.166154 -71.28 
L 142.593231 -71.28 
L 141.020308 -71.28 
L 139.447385 -71.28 
L 137.874462 -71.28 
L 136.301538 -71.28 
L 134.728615 -71.28 
L 133.155692 -71.28 
L 131.582769 -71.28 
L 130.009846 -71.28 
L 128.436923 -71.28 
L 126.864 -71.28 
L 125.291077 -71.28 
L 123.718154 -71.28 
L 122.145231 -71.28 
L 120.572308 -71.28 
L 118.999385 -71.28 
L 117.426462 -71.28 
L 115.853538 -71.28 
L 114.280615 -71.28 
L 112.707692 -71.28 
L 111.134769 -71.28 
L 109.561846 -71.28 
L 107.988923 -71.28 
L 106.416 -71.28 
L 104.843077 -71.28 
L 103.270154 -71.28 
L 101.697231 -71.28 
L 100.124308 -71.28 
L 98.551385 -71.28 
L 96.978462 -71.28 
L 95.405538 -71.28 
L 93.832615 -71.28 
L 92.259692 -71.28 
L 90.686769 -71.28 
L 89.113846 -71.28 
L 87.540923 -71.28 
L 85.968 -71.28 
L 84.395077 -71.28 
L 82.822154 -71.28 
L 81.249231 -71.28 
L 79.676308 -71.28 
L 78.103385 -71.28 
L 76.530462 -71.28 
L 74.957538 -71.28 
L 73.384615 -71.28 
L 71.811692 -71.28 
L 70.238769 -71.28 
L 68.665846 -71.28 
L 67.092923 -71.28 
L 65.52 -71.28 
z
" style="stroke: #8b5cf6; stroke-opacity: 0.12"/>
    </defs>
    <g clip-path="url(#p31a5cf91c8)">
     <use xlink:href="#mec3cb1ee5a" x="0" y="396" style="fill: #8b5cf6; fill-opacity: 0.12; stroke: #8b5cf6; stroke-opacity: 0.12"/>
    </g>
   </g>
   <g id="text_17">
    <!-- 265 -->
    <g style="fill: #8b5cf6" transform="translate(538.824 67.637953) scale(0.12 -0.12)">
     <defs>
      <path id="JetBrainsMono-Bold-32" d="M 474 0 
L 474 723 
L 2157 2445 
Q 2566 2874 2566 3315 
Q 2566 3629 2384 3824 
Q 2202 4019 1894 4019 
Q 1581 4019 1392 3817 
Q 1203 3616 1203 3283 
L 403 3283 
Q 403 3718 595 4044 
Q 787 4371 1126 4553 
Q 1466 4736 1914 4736 
Q 2355 4736 2688 4563 
Q 3021 4390 3203 4080 
Q 3386 3770 3386 3354 
Q 3386 2995 3216 2636 
Q 3046 2278 2656 1894 
L 1478 723 
L 3443 723 
L 3443 0 
L 474 0 
z
" transform="scale(0.015625)"/>
      <path id="JetBrainsMono-Bold-36" d="M 1920 -64 
Q 1440 -64 1085 128 
Q 730 320 534 669 
Q 339 1018 339 1485 
Q 339 1760 457 2115 
Q 576 2470 781 2835 
L 1792 4672 
L 2701 4672 
L 1498 2611 
L 1523 2598 
Q 1619 2733 1804 2809 
Q 1990 2886 2208 2886 
Q 2598 2886 2889 2710 
Q 3181 2534 3341 2214 
Q 3501 1894 3501 1459 
Q 3501 998 3305 656 
Q 3110 314 2755 125 
Q 2400 -64 1920 -64 
z
M 1920 614 
Q 2278 614 2496 841 
Q 2714 1069 2714 1446 
Q 2714 1830 2496 2057 
Q 2278 2285 1920 2285 
Q 1562 2285 1344 2057 
Q 1126 1830 1126 1446 
Q 1126 1069 1344 841 
Q 1562 614 1920 614 
z
" transform="scale(0.015625)"/>
      <path id="JetBrainsMono-Bold-35" d="M 1894 -64 
Q 1210 -64 803 297 
Q 397 659 397 1280 
L 1197 1280 
Q 1197 986 1385 810 
Q 1574 634 1901 634 
Q 2227 634 2409 810 
Q 2592 986 2592 1299 
L 2592 1606 
Q 2592 1920 2413 2096 
Q 2234 2272 1907 2272 
L 557 2272 
L 557 4672 
L 3219 4672 
L 3219 3949 
L 1312 3949 
L 1318 2976 
L 1946 2976 
Q 2637 2976 3014 2617 
Q 3392 2259 3392 1606 
L 3392 1299 
Q 3392 666 2992 301 
Q 2592 -64 1894 -64 
z
" transform="scale(0.015625)"/>
     </defs>
     <use xlink:href="#JetBrainsMono-Bold-32"/>
     <use xlink:href="#JetBrainsMono-Bold-36" transform="translate(59.999985 0)"/>
     <use xlink:href="#JetBrainsMono-Bold-35" transform="translate(119.999969 0)"/>
    </g>
   </g>
   <g id="text_18">
    <!-- Rating History -->
    <g style="fill: #8b5cf6" transform="translate(55.296 50.44) scale(0.17 -0.17)">
     <defs>
      <path id="JetBrainsMono-Bold-52" d="M 493 0 
L 493 4672 
L 1965 4672 
Q 2432 4672 2774 4499 
Q 3117 4326 3309 4016 
Q 3501 3706 3501 3283 
Q 3501 2816 3270 2467 
Q 3040 2118 2650 1971 
L 3565 0 
L 2688 0 
L 1869 1856 
L 1286 1856 
L 1286 0 
L 493 0 
z
M 1286 2560 
L 1965 2560 
Q 2304 2560 2496 2745 
Q 2688 2931 2688 3258 
Q 2688 3584 2493 3776 
Q 2298 3968 1965 3968 
L 1286 3968 
L 1286 2560 
z
" transform="scale(0.015625)"/>
      <path id="JetBrainsMono-Bold-61" d="M 1530 -64 
Q 992 -64 681 240 
Q 371 544 371 1037 
Q 371 1549 723 1853 
Q 1075 2157 1690 2157 
L 2547 2157 
L 2547 2406 
Q 2547 2938 1926 2938 
Q 1645 2938 1478 2829 
Q 1312 2720 1293 2522 
L 525 2522 
Q 550 2995 924 3289 
Q 1299 3584 1933 3584 
Q 2605 3584 2976 3270 
Q 3347 2957 3347 2387 
L 3347 0 
L 2566 0 
L 2566 659 
Q 2522 320 2246 128 
Q 1971 -64 1530 -64 
z
M 1786 589 
Q 2138 589 2342 761 
Q 2547 934 2547 1222 
L 2547 1638 
L 1728 1638 
Q 1466 1638 1312 1491 
Q 1158 1344 1158 1114 
Q 1158 877 1321 733 
Q 1485 589 1786 589 
z
" transform="scale(0.015625)"/>
      <path id="JetBrainsMono-Bold-74" d="M 2272 0 
Q 1779 0 1488 285 
Q 1197 570 1197 1056 
L 1197 2797 
L 224 2797 
L 224 3520 
L 1197 3520 
L 1197 4512 
L 2003 4512 
L 2003 3520 
L 3405 3520 
L 3405 2797 
L 2003 2797 
L 2003 1075 
Q 2003 922 2089 822 
Q 2176 723 2330 723 
L 3373 723 
L 3373 0 
L 2272 0 
z
" transform="scale(0.015625)"/>
      <path id="JetBrainsMono-Bold-69" d="M 486 0 
L 486 723 
L 1690 723 
L 1690 2797 
L 614 2797 
L 614 3520 
L 2490 3520 
L 2490 723 
L 3571 723 
L 3571 0 
L 486 0 
z
M 2032 4109 
Q 1789 4109 1648 4233 
Q 1507 4358 1507 4570 
Q 1507 4781 1648 4905 
Q 1789 5030 2032 5030 
Q 2275 5030 2416 4905 
Q 2557 4781 2557 4570 
Q 2557 4358 2416 4233 
Q 2275 4109 2032 4109 
z
" transform="scale(0.015625)"/>
      <path id="JetBrainsMono-Bold-6e" d="M 493 0 
L 493 3520 
L 1274 3520 
L 1274 2861 
Q 1338 3194 1587 3389 
Q 1837 3584 2221 3584 
Q 2739 3584 3049 3238 
Q 3360 2893 3360 2310 
L 3360 0 
L 2560 0 
L 2560 2214 
Q 2560 2541 2390 2717 
Q 2221 2893 1933 2893 
Q 1632 2893 1462 2713 
Q 1293 2534 1293 2202 
L 1293 0 
L 493 0 
z
" transform="scale(0.015625)"/>
      <path id="JetBrainsMono-Bold-67" d="M 973 -1152 
L 973 -486 
L 1965 -486 
Q 2246 -486 2400 -336 
Q 2554 -186 2554 70 
L 2554 282 
L 2566 832 
Q 2458 538 2218 374 
Q 1978 211 1632 211 
Q 1094 211 777 572 
Q 461 934 461 1555 
L 461 2240 
Q 461 2854 777 3219 
Q 1094 3584 1632 3584 
Q 1978 3584 2218 3421 
Q 2458 3258 2566 2957 
L 2566 3520 
L 3347 3520 
L 3347 51 
Q 3347 -506 2979 -829 
Q 2611 -1152 1978 -1152 
L 973 -1152 
z
M 1901 896 
Q 2208 896 2377 1078 
Q 2547 1261 2547 1587 
L 2547 2202 
Q 2547 2528 2377 2710 
Q 2208 2893 1901 2893 
Q 1594 2893 1427 2717 
Q 1261 2541 1261 2227 
L 1261 1562 
Q 1261 1248 1427 1072 
Q 1594 896 1901 896 
z
" transform="scale(0.015625)"/>
      <path id="JetBrainsMono-Bold-20" transform="scale(0.015625)"/>
      <path id="JetBrainsMono-Bold-48" d="M 493 0 
L 493 4672 
L 1293 4672 
L 1293 2778 
L 2547 2778 
L 2547 4672 
L 3347 4672 
L 3347 0 
L 2547 0 
L 2547 2054 
L 1293 2054 
L 1293 0 
L 493 0 
z
" transform="scale(0.015625)"/>
      <path id="JetBrainsMono-Bold-73" d="M 1773 -58 
Q 1146 -58 781 227 
Q 416 512 416 998 
L 1203 998 
Q 1203 794 1353 685 
Q 1504 576 1773 576 
L 2054 576 
Q 2342 576 2499 685 
Q 2656 794 2656 998 
Q 2656 1190 2547 1283 
Q 2438 1376 2214 1408 
L 1338 1523 
Q 915 1581 688 1849 
Q 461 2118 461 2547 
Q 461 3046 793 3312 
Q 1126 3578 1754 3578 
L 2048 3578 
Q 2637 3578 2995 3309 
Q 3354 3040 3366 2592 
L 2573 2592 
Q 2566 2758 2425 2857 
Q 2285 2957 2048 2957 
L 1754 2957 
Q 1498 2957 1363 2851 
Q 1229 2746 1229 2566 
Q 1229 2406 1328 2329 
Q 1427 2253 1619 2234 
L 2445 2118 
Q 2931 2061 3177 1776 
Q 3424 1491 3424 1011 
Q 3424 499 3075 220 
Q 2726 -58 2054 -58 
L 1773 -58 
z
" transform="scale(0.015625)"/>
      <path id="JetBrainsMono-Bold-6f" d="M 1920 -58 
Q 1242 -58 845 323 
Q 448 704 448 1350 
L 448 2170 
Q 448 2822 845 3200 
Q 1242 3578 1920 3578 
Q 2598 3578 2995 3200 
Q 3392 2822 3392 2170 
L 3392 1350 
Q 3392 704 2995 323 
Q 2598 -58 1920 -58 
z
M 1920 640 
Q 2240 640 2416 816 
Q 2592 992 2592 1325 
L 2592 2195 
Q 2592 2528 2416 2704 
Q 2240 2880 1920 2880 
Q 1600 2880 1424 2704 
Q 1248 2528 1248 2195 
L 1248 1325 
Q 1248 992 1424 816 
Q 1600 640 1920 640 
z
" transform="scale(0.015625)"/>
      <path id="JetBrainsMono-Bold-72" d="M 621 0 
L 621 3520 
L 1402 3520 
L 1402 2835 
Q 1466 3181 1718 3382 
Q 1971 3584 2374 3584 
Q 2912 3584 3213 3238 
Q 3514 2893 3514 2272 
L 3514 1939 
L 2714 1939 
L 2714 2234 
Q 2714 2554 2547 2723 
Q 2381 2893 2074 2893 
Q 1754 2893 1587 2701 
Q 1421 2509 1421 2157 
L 1421 0 
L 621 0 
z
" transform="scale(0.015625)"/>
      <path id="JetBrainsMono-Bold-79" d="M 1056 -1152 
L 1555 192 
L 230 3520 
L 1075 3520 
L 1754 1722 
Q 1811 1562 1868 1373 
Q 1926 1184 1952 1024 
Q 1971 1184 2025 1373 
Q 2080 1562 2138 1722 
L 2765 3520 
L 3610 3520 
L 1894 -1152 
L 1056 -1152 
z
" transform="scale(0.015625)"/>
     </defs>
     <use xlink:href="#JetBrainsMono-Bold-52"/>
     <use xlink:href="#JetBrainsMono-Bold-61" transform="translate(59.999985 0)"/>
     <use xlink:href="#JetBrainsMono-Bold-74" transform="translate(119.999969 0)"/>
     <use xlink:href="#JetBrainsMono-Bold-69" transform="translate(179.999954 0)"/>
     <use xlink:href="#JetBrainsMono-Bold-6e" transform="translate(239.999939 0)"/>
     <use xlink:href="#JetBrainsMono-Bold-67" transform="translate(299.999924 0)"/>
     <use xlink:href="#JetBrainsMono-Bold-20" transform="translate(359.999908 0)"/>
     <use xlink:href="#JetBrainsMono-Bold-48" transform="translate(419.999893 0)"/>
     <use xlink:href="#JetBrainsMono-Bold-69" transform="translate(479.999878 0)"/>
     <use xlink:href="#JetBrainsMono-Bold-73" transform="translate(539.999863 0)"/>
     <use xlink:href="#JetBrainsMono-Bold-74" transform="translate(599.999847 0)"/>
     <use xlink:href="#JetBrainsMono-Bold-6f" transform="translate(659.999832 0)"/>
     <use xlink:href="#JetBrainsMono-Bold-72" transform="translate(719.999817 0)"/>
     <use xlink:href="#JetBrainsMono-Bold-79" transform="translate(779.999802 0)"/>
    </g>
   </g>
   <g id="line2d_31">
    <path d="M 65.52 306.308257 
L 67.092923 304.137908 
L 68.665846 302.488443 
L 70.238769 301.316454 
L 71.811692 300.578535 
L 73.384615 300.231279 
L 74.957538 300.231279 
L 76.530462 300.535128 
L 78.103385 301.099419 
L 79.676308 301.880745 
L 81.249231 302.835698 
L 84.395077 305.092862 
L 89.113846 308.695642 
L 92.259692 310.73577 
L 93.832615 311.517096 
L 95.405538 312.081387 
L 96.978462 312.385236 
L 98.551385 312.385236 
L 100.124308 312.03798 
L 101.697231 311.300061 
L 103.270154 310.128072 
L 104.843077 308.478607 
L 106.416 306.308257 
L 107.988923 303.595235 
L 109.561846 300.404223 
L 111.134769 296.821521 
L 114.280615 288.826251 
L 120.572308 271.932667 
L 122.145231 268.024558 
L 123.718154 264.415164 
L 125.291077 261.190787 
L 126.864 258.437727 
L 128.436923 256.217828 
L 130.009846 254.495107 
L 131.582769 253.209123 
L 133.155692 252.299437 
L 134.728615 251.705608 
L 136.301538 251.367197 
L 137.874462 251.223762 
L 141.020308 251.280065 
L 144.166154 251.390994 
L 145.739077 251.315844 
L 147.312 251.07303 
L 148.884923 250.616306 
L 150.457846 249.956205 
L 152.030769 249.117451 
L 155.176615 247.002887 
L 158.322462 244.470419 
L 167.76 236.343636 
L 170.905846 234.073572 
L 174.051692 232.110481 
L 177.197538 230.388022 
L 181.916308 228.110396 
L 191.353846 223.818094 
L 194.499692 222.1079 
L 197.645538 219.992211 
L 199.218462 218.727994 
L 200.791385 217.297231 
L 202.364308 215.678195 
L 203.937231 213.849164 
L 205.510154 211.788412 
L 207.083077 209.474215 
L 208.656 206.884848 
L 210.228923 204.011368 
L 213.374769 197.593585 
L 222.812308 176.931103 
L 224.385231 173.858987 
L 225.958154 171.039624 
L 227.531077 168.527978 
L 229.104 166.379014 
L 230.676923 164.630655 
L 232.249846 163.252656 
L 233.822769 162.197729 
L 235.395692 161.418588 
L 236.968615 160.867946 
L 238.541538 160.498516 
L 241.687385 160.114141 
L 246.406154 159.714491 
L 247.979077 159.439303 
L 249.552 159.014317 
L 251.124923 158.404054 
L 252.697846 157.620269 
L 255.843692 155.626381 
L 258.989538 153.221147 
L 268.427077 145.422354 
L 271.572923 143.249989 
L 274.718769 141.440624 
L 279.437538 139.125947 
L 285.729231 136.079938 
L 288.875077 134.271915 
L 292.020923 132.099803 
L 295.166769 129.550181 
L 298.312615 126.725503 
L 306.177231 119.165878 
L 310.896 114.826135 
L 315.614769 110.940575 
L 321.906462 105.892324 
L 325.052308 103.121824 
L 328.198154 100.007426 
L 331.344 96.414392 
L 334.489846 92.275535 
L 345.500308 76.86528 
L 347.073231 74.997365 
L 348.646154 73.314293 
L 350.219077 71.849882 
L 351.792 70.637953 
L 353.364923 69.702032 
L 354.937846 69.024486 
L 356.510769 68.57739 
L 358.083692 68.332822 
L 359.656615 68.262857 
L 361.229538 68.339571 
L 364.375385 68.821338 
L 373.812923 70.888732 
L 376.958769 71.190079 
L 380.104615 71.274358 
L 384.823385 71.124713 
L 395.833846 70.522111 
L 402.125538 70.472936 
L 432.011077 70.64414 
L 460.323692 70.641139 
L 535.824 70.637953 
L 535.824 70.637953 
" clip-path="url(#p31a5cf91c8)" style="fill: none; stroke: #8b5cf6; stroke-width: 1.2; stroke-linecap: round"/>
   </g>
   <g id="PathCollection_1">
    <defs>
     <path id="maaefb0edc1" d="M 0 2.236068 
C 0.593012 2.236068 1.161816 2.000462 1.581139 1.581139 
C 2.000462 1.161816 2.236068 0.593012 2.236068 0 
C 2.236068 -0.593012 2.000462 -1.161816 1.581139 -1.581139 
C 1.161816 -2.000462 0.593012 -2.236068 0 -2.236068 
C -0.593012 -2.236068 -1.161816 -2.000462 -1.581139 -1.581139 
C -2.000462 -1.161816 -2.236068 -0.593012 -2.236068 0 
C -2.236068 0.593012 -2.000462 1.161816 -1.581139 1.581139 
C -1.161816 2.000462 -0.593012 2.236068 0 2.236068 
z
" style="stroke: #ffffff; stroke-width: 0.8"/>
    </defs>
    <g clip-path="url(#p31a5cf91c8)">
     <use xlink:href="#maaefb0edc1" x="535.824" y="70.637953" style="fill: #8b5cf6; stroke: #ffffff; stroke-width: 0.8"/>
    </g>
   </g>
  </g>
  <g id="axes_2">
   <g id="text_19">
    <!-- Rating -->
    <g style="fill: #9b8bb8" transform="translate(565.7472 48.312) scale(0.11 -0.11)">
     <use xlink:href="#JetBrainsMono-Regular-52"/>
     <use xlink:href="#JetBrainsMono-Regular-61" transform="translate(59.999985 0)"/>
     <use xlink:href="#JetBrainsMono-Regular-74" transform="translate(119.999969 0)"/>
     <use xlink:href="#JetBrainsMono-Regular-69" transform="translate(179.999954 0)"/>
     <use xlink:href="#JetBrainsMono-Regular-6e" transform="translate(239.999939 0)"/>
     <use xlink:href="#JetBrainsMono-Regular-67" transform="translate(299.999924 0)"/>
    </g>
   </g>
   <g id="text_20">
    <!-- 265 -->
    <g style="fill: #8b5cf6" transform="translate(565.7472 81.548) scale(0.26 -0.26)">
     <use xlink:href="#JetBrainsMono-Bold-32"/>
     <use xlink:href="#JetBrainsMono-Bold-36" transform="translate(59.999985 0)"/>
     <use xlink:href="#JetBrainsMono-Bold-35" transform="translate(119.999969 0)"/>
    </g>
   </g>
   <g id="text_21">
    <!-- Rank -->
    <g style="fill: #9b8bb8" transform="translate(565.7472 119.592) scale(0.11 -0.11)">
     <defs>
      <path id="JetBrainsMono-Regular-6b" d="M 621 0 
L 621 4672 
L 1197 4672 
L 1197 2067 
L 1869 2067 
L 2854 3520 
L 3514 3520 
L 2381 1843 
L 3578 0 
L 2906 0 
L 1882 1568 
L 1197 1568 
L 1197 0 
L 621 0 
z
" transform="scale(0.015625)"/>
     </defs>
     <use xlink:href="#JetBrainsMono-Regular-52"/>
     <use xlink:href="#JetBrainsMono-Regular-61" transform="translate(59.999985 0)"/>
     <use xlink:href="#JetBrainsMono-Regular-6e" transform="translate(119.999969 0)"/>
     <use xlink:href="#JetBrainsMono-Regular-6b" transform="translate(179.999954 0)"/>
    </g>
   </g>
   <g id="text_22">
    <!-- #118,004 -->
    <g style="fill: #8b5cf6" transform="translate(565.7472 148.104) scale(0.14 -0.14)">
     <defs>
      <path id="JetBrainsMono-Bold-23" d="M 493 0 
L 710 1216 
L 224 1216 
L 224 1760 
L 800 1760 
L 998 2912 
L 448 2912 
L 448 3456 
L 1094 3456 
L 1312 4672 
L 1875 4672 
L 1658 3456 
L 2566 3456 
L 2784 4672 
L 3347 4672 
L 3130 3456 
L 3616 3456 
L 3616 2912 
L 3034 2912 
L 2835 1760 
L 3392 1760 
L 3392 1216 
L 2739 1216 
L 2528 0 
L 1965 0 
L 2182 1216 
L 1267 1216 
L 1056 0 
L 493 0 
z
M 1363 1760 
L 2272 1760 
L 2470 2912 
L 1562 2912 
L 1363 1760 
z
" transform="scale(0.015625)"/>
      <path id="JetBrainsMono-Bold-31" d="M 538 0 
L 538 723 
L 1754 723 
L 1754 3898 
L 531 3002 
L 531 3898 
L 1606 4672 
L 2554 4672 
L 2554 723 
L 3533 723 
L 3533 0 
L 538 0 
z
" transform="scale(0.015625)"/>
      <path id="JetBrainsMono-Bold-38" d="M 1920 -64 
Q 1453 -64 1094 112 
Q 736 288 537 598 
Q 339 909 339 1318 
Q 339 1747 585 2067 
Q 832 2387 1229 2470 
L 1229 2483 
Q 890 2554 682 2829 
Q 474 3104 474 3482 
Q 474 3853 656 4134 
Q 838 4416 1164 4576 
Q 1491 4736 1920 4736 
Q 2349 4736 2678 4576 
Q 3008 4416 3190 4134 
Q 3373 3853 3373 3482 
Q 3373 3104 3161 2829 
Q 2950 2554 2611 2483 
L 2611 2470 
Q 3008 2387 3254 2067 
Q 3501 1747 3501 1318 
Q 3501 909 3302 598 
Q 3104 288 2745 112 
Q 2387 -64 1920 -64 
z
M 1920 2758 
Q 2221 2758 2406 2940 
Q 2592 3123 2592 3411 
Q 2592 3706 2406 3888 
Q 2221 4070 1920 4070 
Q 1619 4070 1433 3888 
Q 1248 3706 1248 3411 
Q 1248 3123 1433 2940 
Q 1619 2758 1920 2758 
z
M 1920 614 
Q 2272 614 2496 819 
Q 2720 1024 2720 1357 
Q 2720 1696 2496 1904 
Q 2272 2112 1920 2112 
Q 1568 2112 1344 1904 
Q 1120 1696 1120 1357 
Q 1120 1024 1344 819 
Q 1568 614 1920 614 
z
" transform="scale(0.015625)"/>
      <path id="JetBrainsMono-Bold-2c" d="M 1216 -1024 
L 1555 934 
L 2470 934 
L 1984 -1024 
L 1216 -1024 
z
" transform="scale(0.015625)"/>
      <path id="JetBrainsMono-Bold-30" d="M 1920 -64 
Q 1466 -64 1133 109 
Q 800 282 617 595 
Q 435 909 435 1331 
L 435 3341 
Q 435 3763 617 4076 
Q 800 4390 1133 4563 
Q 1466 4736 1920 4736 
Q 2374 4736 2707 4563 
Q 3040 4390 3222 4076 
Q 3405 3763 3405 3341 
L 3405 1331 
Q 3405 909 3222 595 
Q 3040 282 2707 109 
Q 2374 -64 1920 -64 
z
M 1920 627 
Q 2253 627 2451 819 
Q 2650 1011 2650 1331 
L 2650 3341 
Q 2650 3661 2454 3853 
Q 2259 4045 1920 4045 
Q 1581 4045 1385 3853 
Q 1190 3661 1190 3341 
L 1190 1331 
Q 1190 1011 1388 819 
Q 1587 627 1920 627 
z
M 1920 1952 
Q 1728 1952 1613 2057 
Q 1498 2163 1498 2355 
Q 1498 2547 1613 2646 
Q 1728 2746 1920 2746 
Q 2112 2746 2227 2646 
Q 2342 2547 2342 2355 
Q 2342 2163 2227 2057 
Q 2112 1952 1920 1952 
z
" transform="scale(0.015625)"/>
      <path id="JetBrainsMono-Bold-34" d="M 2445 0 
L 2445 928 
L 378 928 
L 378 2086 
L 2106 4672 
L 2995 4672 
L 1146 1875 
L 1146 1632 
L 2445 1632 
L 2445 2688 
L 3251 2688 
L 3251 0 
L 2445 0 
z
" transform="scale(0.015625)"/>
     </defs>
     <use xlink:href="#JetBrainsMono-Bold-23"/>
     <use xlink:href="#JetBrainsMono-Bold-31" transform="translate(59.999985 0)"/>
     <use xlink:href="#JetBrainsMono-Bold-31" transform="translate(119.999969 0)"/>
     <use xlink:href="#JetBrainsMono-Bold-38" transform="translate(179.999954 0)"/>
     <use xlink:href="#JetBrainsMono-Bold-2c" transform="translate(239.999939 0)"/>
     <use xlink:href="#JetBrainsMono-Bold-30" transform="translate(299.999924 0)"/>
     <use xlink:href="#JetBrainsMono-Bold-30" transform="translate(359.999908 0)"/>
     <use xlink:href="#JetBrainsMono-Bold-34" transform="translate(419.999893 0)"/>
    </g>
   </g>
   <g id="text_23">
    <!-- ─ 0 -->
    <g style="fill: #9b8bb8" transform="translate(565.7472 169.488) scale(0.11 -0.11)">
     <defs>
      <path id="JetBrainsMono-Bold-2500" d="M -128 2048 
L -128 2688 
L 3968 2688 
L 3968 2048 
L -128 2048 
z
" transform="scale(0.015625)"/>
     </defs>
     <use xlink:href="#JetBrainsMono-Bold-2500"/>
     <use xlink:href="#JetBrainsMono-Bold-20" transform="translate(59.999985 0)"/>
     <use xlink:href="#JetBrainsMono-Bold-30" transform="translate(119.999969 0)"/>
    </g>
   </g>
  </g>
 </g>
 <defs>
  <clipPath id="p31a5cf91c8">
   <rect x="55.296" y="55.44" width="490.752" height="269.28"/>
  </clipPath>
 </defs>
</svg>
