<?xml version="1.0" encoding="utf-8" standalone="no"?>
<!DOCTYPE svg PUBLIC "-//W3C//DTD SVG 1.1//EN"
  "http://www.w3.org/Graphics/SVG/1.1/DTD/svg11.dtd">
<svg xmlns:xlink="http://www.w3.org/1999/xlink" width="691.2pt" height="396pt" viewBox="0 0 691.2 396" xmlns="http://www.w3.org/2000/svg" version="1.1">
 <metadata>
  <rdf:RDF xmlns:dc="http://purl.org/dc/elements/1.1/" xmlns:cc="http://creativecommons.org/ns#" xmlns:rdf="http://www.w3.org/1999/02/22-rdf-syntax-ns#">
   <cc:Work>
    <dc:type rdf:resource="http://purl.org/dc/dcmitype/StillImage"/>
    <dc:date>2026-04-06T16:14:51.301839</dc:date>
    <dc:format>image/svg+xml</dc:format>
    <dc:creator>
     <cc:Agent>
      <dc:title>Matplotlib v3.10.8, https://matplotlib.org/</dc:title>
     </cc:Agent>
    </dc:creator>
   </cc:Work>
  </rdf:RDF>
 </metadata>
 <defs>
  <style type="text/css">*{stroke-linejoin: round; stroke-linecap: butt}</style>
 </defs>
 <g id="figure_1">
  <g id="patch_1">
   <path d="M 0 396 
L 691.2 396 
L 691.2 0 
L 0 0 
L 0 396 
z
" style="fill: none"/>
  </g>
  <g id="axes_1">
   <g id="patch_2">
    <path d="M 55.296 324.72 
L 546.048 324.72 
L 546.048 55.44 
L 55.296 55.44 
L 55.296 324.72 
z
" style="fill: none"/>
   </g>
   <g id="matplotlib.axis_1">
    <g id="xtick_1">
     <g id="line2d_1">
      <path d="M 90.349714 324.72 
L 90.349714 55.44 
" clip-path="url(#p1f4bdde345)" style="fill: none; stroke-dasharray: 2.22,0.96; stroke-dashoffset: 0; stroke: #e2d5f5; stroke-opacity: 0.7; stroke-width: 0.6"/>
     </g>
     <g id="line2d_2">
      <defs>
       <path id="m460d177813" d="M 0 0 
L 0 3.5 
" style="stroke: #9b8bb8; stroke-width: 0.8"/>
      </defs>
      <g>
       <use xlink:href="#m460d177813" x="90.349714" y="324.72" style="fill: #9b8bb8; stroke: #9b8bb8; stroke-width: 0.8"/>
      </g>
     </g>
     <g id="text_1">
      <!-- 03/31 -->
      <g style="fill: #9b8bb8" transform="translate(78.809333 353.301793) rotate(-30) scale(0.1 -0.1)">
       <defs>
        <path id="JetBrainsMono-Regular-30" d="M 1920 -64 
Q 1274 -64 893 310 
Q 512 685 512 1312 
L 512 3360 
Q 512 3987 893 4361 
Q 1274 4736 1920 4736 
Q 2566 4736 2947 4361 
Q 3328 3987 3328 3360 
L 3328 1312 
Q 3328 896 3155 585 
Q 2982 275 2665 105 
Q 2349 -64 1920 -64 
z
M 1920 429 
Q 2304 429 2537 675 
Q 2771 922 2771 1312 
L 2771 3360 
Q 2771 3750 2537 3996 
Q 2304 4243 1920 4243 
Q 1536 4243 1302 3996 
Q 1069 3750 1069 3360 
L 1069 1312 
Q 1069 922 1302 675 
Q 1536 429 1920 429 
z
M 1920 1984 
Q 1747 1984 1641 2080 
Q 1536 2176 1536 2355 
Q 1536 2528 1641 2621 
Q 1747 2714 1920 2714 
Q 2093 2714 2198 2621 
Q 2304 2528 2304 2355 
Q 2304 2176 2198 2080 
Q 2093 1984 1920 1984 
z
" transform="scale(0.015625)"/>
        <path id="JetBrainsMono-Regular-33" d="M 1850 -64 
Q 1203 -64 825 297 
Q 448 659 448 1280 
L 1024 1280 
Q 1024 896 1248 672 
Q 1472 448 1856 448 
Q 2240 448 2464 672 
Q 2688 896 2688 1280 
L 2688 1600 
Q 2688 1984 2464 2208 
Q 2240 2432 1856 2432 
L 1350 2432 
L 1350 2931 
L 2496 4147 
L 576 4147 
L 576 4672 
L 3149 4672 
L 3149 4134 
L 2022 2938 
Q 2598 2893 2931 2537 
Q 3264 2182 3264 1600 
L 3264 1280 
Q 3264 659 2883 297 
Q 2502 -64 1850 -64 
z
" transform="scale(0.015625)"/>
        <path id="JetBrainsMono-Regular-2f" d="M 480 -704 
L 2752 5312 
L 3360 5312 
L 1088 -704 
L 480 -704 
z
" transform="scale(0.015625)"/>
        <path id="JetBrainsMono-Regular-31" d="M 576 0 
L 576 525 
L 1843 525 
L 1843 4173 
L 576 3226 
L 576 3885 
L 1632 4672 
L 2419 4672 
L 2419 525 
L 3456 525 
L 3456 0 
L 576 0 
z
" transform="scale(0.015625)"/>
       </defs>
       <use xlink:href="#JetBrainsMono-Regular-30"/>
       <use xlink:href="#JetBrainsMono-Regular-33" transform="translate(59.999985 0)"/>
       <use xlink:href="#JetBrainsMono-Regular-2f" transform="translate(119.999969 0)"/>
       <use xlink:href="#JetBrainsMono-Regular-33" transform="translate(179.999954 0)"/>
       <use xlink:href="#JetBrainsMono-Regular-31" transform="translate(239.999939 0)"/>
      </g>
     </g>
    </g>
    <g id="xtick_2">
     <g id="line2d_3">
      <path d="M 160.457143 324.72 
L 160.457143 55.44 
" clip-path="url(#p1f4bdde345)" style="fill: none; stroke-dasharray: 2.22,0.96; stroke-dashoffset: 0; stroke: #e2d5f5; stroke-opacity: 0.7; stroke-width: 0.6"/>
     </g>
     <g id="line2d_4">
      <g>
       <use xlink:href="#m460d177813" x="160.457143" y="324.72" style="fill: #9b8bb8; stroke: #9b8bb8; stroke-width: 0.8"/>
      </g>
     </g>
     <g id="text_2">
      <!-- 04/01 -->
      <g style="fill: #9b8bb8" transform="translate(148.916762 353.301793) rotate(-30) scale(0.1 -0.1)">
       <defs>
        <path id="JetBrainsMono-Regular-34" d="M 2560 0 
L 2560 1024 
L 448 1024 
L 448 1926 
L 2150 4672 
L 2803 4672 
L 1024 1798 
L 1024 1549 
L 2560 1549 
L 2560 2688 
L 3136 2688 
L 3136 0 
L 2560 0 
z
" transform="scale(0.015625)"/>
       </defs>
       <use xlink:href="#JetBrainsMono-Regular-30"/>
       <use xlink:href="#JetBrainsMono-Regular-34" transform="translate(59.999985 0)"/>
       <use xlink:href="#JetBrainsMono-Regular-2f" transform="translate(119.999969 0)"/>
       <use xlink:href="#JetBrainsMono-Regular-30" transform="translate(179.999954 0)"/>
       <use xlink:href="#JetBrainsMono-Regular-31" transform="translate(239.999939 0)"/>
      </g>
     </g>
    </g>
    <g id="xtick_3">
     <g id="line2d_5">
      <path d="M 230.564571 324.72 
L 230.564571 55.44 
" clip-path="url(#p1f4bdde345)" style="fill: none; stroke-dasharray: 2.22,0.96; stroke-dashoffset: 0; stroke: #e2d5f5; stroke-opacity: 0.7; stroke-width: 0.6"/>
     </g>
     <g id="line2d_6">
      <g>
       <use xlink:href="#m460d177813" x="230.564571" y="324.72" style="fill: #9b8bb8; stroke: #9b8bb8; stroke-width: 0.8"/>
      </g>
     </g>
     <g id="text_3">
      <!-- 04/02 -->
      <g style="fill: #9b8bb8" transform="translate(219.02419 353.301793) rotate(-30) scale(0.1 -0.1)">
       <defs>
        <path id="JetBrainsMono-Regular-32" d="M 550 0 
L 550 531 
L 2106 2195 
Q 2445 2554 2585 2835 
Q 2726 3117 2726 3386 
Q 2726 3770 2505 3997 
Q 2285 4224 1907 4224 
Q 1517 4224 1289 3990 
Q 1062 3757 1062 3360 
L 486 3360 
Q 506 3994 890 4365 
Q 1274 4736 1907 4736 
Q 2554 4736 2934 4371 
Q 3315 4006 3315 3379 
Q 3315 3046 3132 2675 
Q 2950 2304 2509 1843 
L 1248 525 
L 3373 525 
L 3373 0 
L 550 0 
z
" transform="scale(0.015625)"/>
       </defs>
       <use xlink:href="#JetBrainsMono-Regular-30"/>
       <use xlink:href="#JetBrainsMono-Regular-34" transform="translate(59.999985 0)"/>
       <use xlink:href="#JetBrainsMono-Regular-2f" transform="translate(119.999969 0)"/>
       <use xlink:href="#JetBrainsMono-Regular-30" transform="translate(179.999954 0)"/>
       <use xlink:href="#JetBrainsMono-Regular-32" transform="translate(239.999939 0)"/>
      </g>
     </g>
    </g>
    <g id="xtick_4">
     <g id="line2d_7">
      <path d="M 300.672 324.72 
L 300.672 55.44 
" clip-path="url(#p1f4bdde345)" style="fill: none; stroke-dasharray: 2.22,0.96; stroke-dashoffset: 0; stroke: #e2d5f5; stroke-opacity: 0.7; stroke-width: 0.6"/>
     </g>
     <g id="line2d_8">
      <g>
       <use xlink:href="#m460d177813" x="300.672" y="324.72" style="fill: #9b8bb8; stroke: #9b8bb8; stroke-width: 0.8"/>
      </g>
     </g>
     <g id="text_4">
      <!-- 04/03 -->
      <g style="fill: #9b8bb8" transform="translate(289.131619 353.301793) rotate(-30) scale(0.1 -0.1)">
       <use xlink:href="#JetBrainsMono-Regular-30"/>
       <use xlink:href="#JetBrainsMono-Regular-34" transform="translate(59.999985 0)"/>
       <use xlink:href="#JetBrainsMono-Regular-2f" transform="translate(119.999969 0)"/>
       <use xlink:href="#JetBrainsMono-Regular-30" transform="translate(179.999954 0)"/>
       <use xlink:href="#JetBrainsMono-Regular-33" transform="translate(239.999939 0)"/>
      </g>
     </g>
    </g>
    <g id="xtick_5">
     <g id="line2d_9">
      <path d="M 370.779429 324.72 
L 370.779429 55.44 
" clip-path="url(#p1f4bdde345)" style="fill: none; stroke-dasharray: 2.22,0.96; stroke-dashoffset: 0; stroke: #e2d5f5; stroke-opacity: 0.7; stroke-width: 0.6"/>
     </g>
     <g id="line2d_10">
      <g>
       <use xlink:href="#m460d177813" x="370.779429" y="324.72" style="fill: #9b8bb8; stroke: #9b8bb8; stroke-width: 0.8"/>
      </g>
     </g>
     <g id="text_5">
      <!-- 04/04 -->
      <g style="fill: #9b8bb8" transform="translate(359.239048 353.301793) rotate(-30) scale(0.1 -0.1)">
       <use xlink:href="#JetBrainsMono-Regular-30"/>
       <use xlink:href="#JetBrainsMono-Regular-34" transform="translate(59.999985 0)"/>
       <use xlink:href="#JetBrainsMono-Regular-2f" transform="translate(119.999969 0)"/>
       <use xlink:href="#JetBrainsMono-Regular-30" transform="translate(179.999954 0)"/>
       <use xlink:href="#JetBrainsMono-Regular-34" transform="translate(239.999939 0)"/>
      </g>
     </g>
    </g>
    <g id="xtick_6">
     <g id="line2d_11">
      <path d="M 440.886857 324.72 
L 440.886857 55.44 
" clip-path="url(#p1f4bdde345)" style="fill: none; stroke-dasharray: 2.22,0.96; stroke-dashoffset: 0; stroke: #e2d5f5; stroke-opacity: 0.7; stroke-width: 0.6"/>
     </g>
     <g id="line2d_12">
      <g>
       <use xlink:href="#m460d177813" x="440.886857" y="324.72" style="fill: #9b8bb8; stroke: #9b8bb8; stroke-width: 0.8"/>
      </g>
     </g>
     <g id="text_6">
      <!-- 04/05 -->
      <g style="fill: #9b8bb8" transform="translate(429.346476 353.301793) rotate(-30) scale(0.1 -0.1)">
       <defs>
        <path id="JetBrainsMono-Regular-35" d="M 1882 -64 
Q 1235 -64 857 297 
Q 480 659 480 1280 
L 1056 1280 
Q 1056 896 1280 672 
Q 1504 448 1888 448 
Q 2272 448 2496 672 
Q 2720 896 2720 1280 
L 2720 1568 
Q 2720 1952 2502 2176 
Q 2285 2400 1914 2400 
L 640 2400 
L 640 4672 
L 3130 4672 
L 3130 4147 
L 1178 4147 
L 1190 2925 
L 1946 2925 
Q 2592 2925 2944 2569 
Q 3296 2214 3296 1568 
L 3296 1280 
Q 3296 659 2915 297 
Q 2534 -64 1882 -64 
z
" transform="scale(0.015625)"/>
       </defs>
       <use xlink:href="#JetBrainsMono-Regular-30"/>
       <use xlink:href="#JetBrainsMono-Regular-34" transform="translate(59.999985 0)"/>
       <use xlink:href="#JetBrainsMono-Regular-2f" transform="translate(119.999969 0)"/>
       <use xlink:href="#JetBrainsMono-Regular-30" transform="translate(179.999954 0)"/>
       <use xlink:href="#JetBrainsMono-Regular-35" transform="translate(239.999939 0)"/>
      </g>
     </g>
    </g>
    <g id="xtick_7">
     <g id="line2d_13">
      <path d="M 510.994286 324.72 
L 510.994286 55.44 
" clip-path="url(#p1f4bdde345)" style="fill: none; stroke-dasharray: 2.22,0.96; stroke-dashoffset: 0; stroke: #e2d5f5; stroke-opacity: 0.7; stroke-width: 0.6"/>
     </g>
     <g id="line2d_14">
      <g>
       <use xlink:href="#m460d177813" x="510.994286" y="324.72" style="fill: #9b8bb8; stroke: #9b8bb8; stroke-width: 0.8"/>
      </g>
     </g>
     <g id="text_7">
      <!-- 04/06 -->
      <g style="fill: #9b8bb8" transform="translate(499.453905 353.301793) rotate(-30) scale(0.1 -0.1)">
       <defs>
        <path id="JetBrainsMono-Regular-36" d="M 1926 -64 
Q 1478 -64 1136 125 
Q 794 314 602 650 
Q 410 986 410 1427 
Q 410 1734 525 2057 
Q 640 2381 838 2733 
L 1920 4672 
L 2560 4672 
L 1408 2669 
L 1427 2656 
Q 1510 2765 1676 2822 
Q 1843 2880 2042 2880 
Q 2458 2880 2768 2697 
Q 3078 2515 3254 2195 
Q 3430 1875 3430 1453 
Q 3430 1005 3238 662 
Q 3046 320 2710 128 
Q 2374 -64 1926 -64 
z
M 1920 448 
Q 2336 448 2595 723 
Q 2854 998 2854 1440 
Q 2854 1882 2595 2157 
Q 2336 2432 1920 2432 
Q 1504 2432 1245 2157 
Q 986 1882 986 1440 
Q 986 998 1245 723 
Q 1504 448 1920 448 
z
" transform="scale(0.015625)"/>
       </defs>
       <use xlink:href="#JetBrainsMono-Regular-30"/>
       <use xlink:href="#JetBrainsMono-Regular-34" transform="translate(59.999985 0)"/>
       <use xlink:href="#JetBrainsMono-Regular-2f" transform="translate(119.999969 0)"/>
       <use xlink:href="#JetBrainsMono-Regular-30" transform="translate(179.999954 0)"/>
       <use xlink:href="#JetBrainsMono-Regular-36" transform="translate(239.999939 0)"/>
      </g>
     </g>
    </g>
   </g>
   <g id="matplotlib.axis_2">
    <g id="ytick_1">
     <g id="line2d_15">
      <path d="M 55.296 286.792047 
L 546.048 286.792047 
" clip-path="url(#p1f4bdde345)" style="fill: none; stroke-dasharray: 2.22,0.96; stroke-dashoffset: 0; stroke: #e2d5f5; stroke-opacity: 0.7; stroke-width: 0.6"/>
     </g>
     <g id="line2d_16">
      <defs>
       <path id="mf3f7d50677" d="M 0 0 
L -3.5 0 
" style="stroke: #9b8bb8; stroke-width: 0.8"/>
      </defs>
      <g>
       <use xlink:href="#mf3f7d50677" x="55.296" y="286.792047" style="fill: #9b8bb8; stroke: #9b8bb8; stroke-width: 0.8"/>
      </g>
     </g>
     <g id="text_8">
      <!-- 200 -->
      <g style="fill: #9b8bb8" transform="translate(30.296 290.442047) scale(0.1 -0.1)">
       <use xlink:href="#JetBrainsMono-Regular-32"/>
       <use xlink:href="#JetBrainsMono-Regular-30" transform="translate(59.999985 0)"/>
       <use xlink:href="#JetBrainsMono-Regular-30" transform="translate(119.999969 0)"/>
      </g>
     </g>
    </g>
    <g id="ytick_2">
     <g id="line2d_17">
      <path d="M 55.296 239.382105 
L 546.048 239.382105 
" clip-path="url(#p1f4bdde345)" style="fill: none; stroke-dasharray: 2.22,0.96; stroke-dashoffset: 0; stroke: #e2d5f5; stroke-opacity: 0.7; stroke-width: 0.6"/>
     </g>
     <g id="line2d_18">
      <g>
       <use xlink:href="#mf3f7d50677" x="55.296" y="239.382105" style="fill: #9b8bb8; stroke: #9b8bb8; stroke-width: 0.8"/>
      </g>
     </g>
     <g id="text_9">
      <!-- 205 -->
      <g style="fill: #9b8bb8" transform="translate(30.296 243.032105) scale(0.1 -0.1)">
       <use xlink:href="#JetBrainsMono-Regular-32"/>
       <use xlink:href="#JetBrainsMono-Regular-30" transform="translate(59.999985 0)"/>
       <use xlink:href="#JetBrainsMono-Regular-35" transform="translate(119.999969 0)"/>
      </g>
     </g>
    </g>
    <g id="ytick_3">
     <g id="line2d_19">
      <path d="M 55.296 191.972164 
L 546.048 191.972164 
" clip-path="url(#p1f4bdde345)" style="fill: none; stroke-dasharray: 2.22,0.96; stroke-dashoffset: 0; stroke: #e2d5f5; stroke-opacity: 0.7; stroke-width: 0.6"/>
     </g>
     <g id="line2d_20">
      <g>
       <use xlink:href="#mf3f7d50677" x="55.296" y="191.972164" style="fill: #9b8bb8; stroke: #9b8bb8; stroke-width: 0.8"/>
      </g>
     </g>
     <g id="text_10">
      <!-- 210 -->
      <g style="fill: #9b8bb8" transform="translate(30.296 195.622164) scale(0.1 -0.1)">
       <use xlink:href="#JetBrainsMono-Regular-32"/>
       <use xlink:href="#JetBrainsMono-Regular-31" transform="translate(59.999985 0)"/>
       <use xlink:href="#JetBrainsMono-Regular-30" transform="translate(119.999969 0)"/>
      </g>
     </g>
    </g>
    <g id="ytick_4">
     <g id="line2d_21">
      <path d="M 55.296 144.562222 
L 546.048 144.562222 
" clip-path="url(#p1f4bdde345)" style="fill: none; stroke-dasharray: 2.22,0.96; stroke-dashoffset: 0; stroke: #e2d5f5; stroke-opacity: 0.7; stroke-width: 0.6"/>
     </g>
     <g id="line2d_22">
      <g>
       <use xlink:href="#mf3f7d50677" x="55.296" y="144.562222" style="fill: #9b8bb8; stroke: #9b8bb8; stroke-width: 0.8"/>
      </g>
     </g>
     <g id="text_11">
      <!-- 215 -->
      <g style="fill: #9b8bb8" transform="translate(30.296 148.212222) scale(0.1 -0.1)">
       <use xlink:href="#JetBrainsMono-Regular-32"/>
       <use xlink:href="#JetBrainsMono-Regular-31" transform="translate(59.999985 0)"/>
       <use xlink:href="#JetBrainsMono-Regular-35" transform="translate(119.999969 0)"/>
      </g>
     </g>
    </g>
    <g id="ytick_5">
     <g id="line2d_23">
      <path d="M 55.296 97.152281 
L 546.048 97.152281 
" clip-path="url(#p1f4bdde345)" style="fill: none; stroke-dasharray: 2.22,0.96; stroke-dashoffset: 0; stroke: #e2d5f5; stroke-opacity: 0.7; stroke-width: 0.6"/>
     </g>
     <g id="line2d_24">
      <g>
       <use xlink:href="#mf3f7d50677" x="55.296" y="97.152281" style="fill: #9b8bb8; stroke: #9b8bb8; stroke-width: 0.8"/>
      </g>
     </g>
     <g id="text_12">
      <!-- 220 -->
      <g style="fill: #9b8bb8" transform="translate(30.296 100.802281) scale(0.1 -0.1)">
       <use xlink:href="#JetBrainsMono-Regular-32"/>
       <use xlink:href="#JetBrainsMono-Regular-32" transform="translate(59.999985 0)"/>
       <use xlink:href="#JetBrainsMono-Regular-30" transform="translate(119.999969 0)"/>
      </g>
     </g>
    </g>
    <g id="text_13">
     <!-- Rating -->
     <g style="fill: #9b8bb8" transform="translate(24.496 208.08) rotate(-90) scale(0.1 -0.1)">
      <defs>
       <path id="JetBrainsMono-Regular-52" d="M 595 0 
L 595 4672 
L 2035 4672 
Q 2451 4672 2764 4502 
Q 3078 4333 3251 4032 
Q 3424 3731 3424 3328 
Q 3424 2854 3181 2515 
Q 2938 2176 2534 2042 
L 3488 0 
L 2854 0 
L 1939 1984 
L 1165 1984 
L 1165 0 
L 595 0 
z
M 1165 2502 
L 2035 2502 
Q 2394 2502 2611 2729 
Q 2829 2957 2829 3328 
Q 2829 3706 2611 3930 
Q 2394 4154 2035 4154 
L 1165 4154 
L 1165 2502 
z
" transform="scale(0.015625)"/>
       <path id="JetBrainsMono-Regular-61" d="M 1613 -64 
Q 1069 -64 749 240 
Q 429 544 429 1037 
Q 429 1363 576 1606 
Q 723 1850 985 1987 
Q 1248 2125 1587 2125 
L 2675 2125 
L 2675 2400 
Q 2675 3085 1926 3085 
Q 1594 3085 1389 2963 
Q 1184 2842 1171 2624 
L 595 2624 
Q 627 3040 982 3312 
Q 1338 3584 1926 3584 
Q 2566 3584 2908 3277 
Q 3251 2970 3251 2419 
L 3251 0 
L 2682 0 
L 2682 640 
L 2669 640 
Q 2618 314 2342 125 
Q 2067 -64 1613 -64 
z
M 1754 422 
Q 2176 422 2425 627 
Q 2675 832 2675 1184 
L 2675 1677 
L 1651 1677 
Q 1370 1677 1194 1507 
Q 1018 1338 1018 1056 
Q 1018 762 1213 592 
Q 1408 422 1754 422 
z
" transform="scale(0.015625)"/>
       <path id="JetBrainsMono-Regular-74" d="M 2272 0 
Q 1837 0 1574 253 
Q 1312 506 1312 928 
L 1312 2995 
L 301 2995 
L 301 3520 
L 1312 3520 
L 1312 4512 
L 1888 4512 
L 1888 3520 
L 3328 3520 
L 3328 2995 
L 1888 2995 
L 1888 928 
Q 1888 749 1993 637 
Q 2099 525 2272 525 
L 3296 525 
L 3296 0 
L 2272 0 
z
" transform="scale(0.015625)"/>
       <path id="JetBrainsMono-Regular-69" d="M 544 0 
L 544 525 
L 1792 525 
L 1792 2995 
L 672 2995 
L 672 3520 
L 2368 3520 
L 2368 525 
L 3552 525 
L 3552 0 
L 544 0 
z
M 2016 4154 
Q 1805 4154 1683 4262 
Q 1562 4371 1562 4557 
Q 1562 4749 1683 4861 
Q 1805 4973 2016 4973 
Q 2227 4973 2348 4861 
Q 2470 4749 2470 4557 
Q 2470 4371 2348 4262 
Q 2227 4154 2016 4154 
z
" transform="scale(0.015625)"/>
       <path id="JetBrainsMono-Regular-6e" d="M 589 0 
L 589 3520 
L 1165 3520 
L 1165 2848 
L 1171 2848 
Q 1216 3200 1459 3392 
Q 1702 3584 2106 3584 
Q 2637 3584 2950 3257 
Q 3264 2931 3264 2368 
L 3264 0 
L 2688 0 
L 2688 2266 
Q 2688 2669 2486 2883 
Q 2285 3098 1939 3098 
Q 1581 3098 1373 2874 
Q 1165 2650 1165 2240 
L 1165 0 
L 589 0 
z
" transform="scale(0.015625)"/>
       <path id="JetBrainsMono-Regular-67" d="M 1030 -1152 
L 1030 -627 
L 2022 -627 
Q 2323 -627 2496 -457 
Q 2669 -288 2669 0 
L 2669 320 
L 2682 896 
L 2662 896 
Q 2611 582 2361 412 
Q 2112 243 1734 243 
Q 1190 243 876 588 
Q 563 934 563 1536 
L 563 2278 
Q 563 2880 876 3232 
Q 1190 3584 1734 3584 
Q 2112 3584 2361 3405 
Q 2611 3226 2662 2912 
L 2675 2912 
L 2675 3520 
L 3245 3520 
L 3245 0 
Q 3245 -531 2915 -841 
Q 2586 -1152 2016 -1152 
L 1030 -1152 
z
M 1907 723 
Q 2266 723 2470 947 
Q 2675 1171 2675 1568 
L 2675 2240 
Q 2675 2637 2470 2861 
Q 2266 3085 1907 3085 
Q 1542 3085 1340 2873 
Q 1139 2662 1139 2304 
L 1139 1504 
Q 1139 1146 1340 934 
Q 1542 723 1907 723 
z
" transform="scale(0.015625)"/>
      </defs>
      <use xlink:href="#JetBrainsMono-Regular-52"/>
      <use xlink:href="#JetBrainsMono-Regular-61" transform="translate(59.999985 0)"/>
      <use xlink:href="#JetBrainsMono-Regular-74" transform="translate(119.999969 0)"/>
      <use xlink:href="#JetBrainsMono-Regular-69" transform="translate(179.999954 0)"/>
      <use xlink:href="#JetBrainsMono-Regular-6e" transform="translate(239.999939 0)"/>
      <use xlink:href="#JetBrainsMono-Regular-67" transform="translate(299.999924 0)"/>
     </g>
    </g>
   </g>
   <g id="patch_3">
    <path d="M 55.296 324.72 
L 55.296 55.44 
" style="fill: none; stroke: #d8c8ef; stroke-width: 0.8; stroke-linejoin: miter; stroke-linecap: square"/>
   </g>
   <g id="patch_4">
    <path d="M 55.296 324.72 
L 546.048 324.72 
" style="fill: none; stroke: #d8c8ef; stroke-width: 0.8; stroke-linejoin: miter; stroke-linecap: square"/>
   </g>
   <g id="FillBetweenPolyCollection_1">
    <defs>
     <path id="m19013f55b3" d="M 90.349714 -71.28 
L 90.349714 -118.689941 
L 91.756552 -120.27979 
L 93.16339 -121.772958 
L 94.570228 -123.171426 
L 95.977066 -124.477174 
L 97.383904 -125.692181 
L 98.790742 -126.818428 
L 100.197581 -127.857893 
L 101.604419 -128.812557 
L 103.011257 -129.6844 
L 104.418095 -130.475401 
L 105.824933 -131.187541 
L 107.231771 -131.822798 
L 108.638609 -132.383153 
L 110.045447 -132.870586 
L 111.452285 -133.287076 
L 112.859123 -133.634603 
L 114.265961 -133.915147 
L 115.672799 -134.130688 
L 117.079637 -134.283206 
L 118.486475 -134.37468 
L 119.893313 -134.40709 
L 121.300151 -134.382416 
L 122.706989 -134.302637 
L 124.113827 -134.169734 
L 125.520665 -133.985687 
L 126.927503 -133.752474 
L 128.334341 -133.472077 
L 129.741179 -133.146474 
L 131.148017 -132.777646 
L 132.554855 -132.367571 
L 133.961693 -131.918231 
L 135.368531 -131.431605 
L 136.775369 -130.909673 
L 138.182207 -130.354414 
L 139.589045 -129.767808 
L 140.995883 -129.151835 
L 142.402721 -128.508475 
L 143.809559 -127.839708 
L 145.216398 -127.147513 
L 146.623236 -126.433871 
L 148.030074 -125.70076 
L 149.436912 -124.950162 
L 150.84375 -124.184054 
L 152.250588 -123.404419 
L 153.657426 -122.613234 
L 155.064264 -121.812481 
L 156.471102 -121.004138 
L 157.87794 -120.190186 
L 159.284778 -119.372604 
L 160.691616 -118.553372 
L 162.098454 -117.734471 
L 163.505292 -116.917879 
L 164.91213 -116.105576 
L 166.318968 -115.299543 
L 167.725806 -114.50176 
L 169.132644 -113.714205 
L 170.539482 -112.938859 
L 171.94632 -112.177701 
L 173.353158 -111.432712 
L 174.759996 -110.70587 
L 176.166834 -109.999157 
L 177.573672 -109.314551 
L 178.98051 -108.654033 
L 180.387348 -108.019583 
L 181.794186 -107.413179 
L 183.201024 -106.836802 
L 184.607862 -106.292432 
L 186.0147 -105.782048 
L 187.421538 -105.307631 
L 188.828376 -104.871159 
L 190.235215 -104.474614 
L 191.642053 -104.119974 
L 193.048891 -103.80922 
L 194.455729 -103.544331 
L 195.862567 -103.327286 
L 197.269405 -103.160067 
L 198.676243 -103.044652 
L 200.083081 -102.983022 
L 201.489919 -102.977156 
L 202.896757 -103.029034 
L 204.303595 -103.140636 
L 205.710433 -103.313941 
L 207.117271 -103.55093 
L 208.524109 -103.853582 
L 209.930947 -104.223877 
L 211.337785 -104.663794 
L 212.744623 -105.175315 
L 214.151461 -105.760417 
L 215.558299 -106.421082 
L 216.965137 -107.159289 
L 218.371975 -107.977017 
L 219.778813 -108.876247 
L 221.185651 -109.858958 
L 222.592489 -110.927131 
L 223.999327 -112.082744 
L 225.406165 -113.327778 
L 226.813003 -114.664213 
L 228.219841 -116.094028 
L 229.626679 -117.619203 
L 231.033517 -119.241681 
L 232.440355 -120.96122 
L 233.847194 -122.774189 
L 235.254032 -124.676665 
L 236.66087 -126.664725 
L 238.067708 -128.734446 
L 239.474546 -130.881907 
L 240.881384 -133.103183 
L 242.288222 -135.394354 
L 243.69506 -137.751496 
L 245.101898 -140.170685 
L 246.508736 -142.648001 
L 247.915574 -145.17952 
L 249.322412 -147.761319 
L 250.72925 -150.389476 
L 252.136088 -153.060068 
L 253.542926 -155.769173 
L 254.949764 -158.512867 
L 256.356602 -161.287229 
L 257.76344 -164.088335 
L 259.170278 -166.912263 
L 260.577116 -169.755091 
L 261.983954 -172.612895 
L 263.390792 -175.481753 
L 264.79763 -178.357742 
L 266.204468 -181.23694 
L 267.611306 -184.115424 
L 269.018144 -186.989271 
L 270.424982 -189.854559 
L 271.83182 -192.707366 
L 273.238658 -195.543767 
L 274.645496 -198.359842 
L 276.052334 -201.151666 
L 277.459172 -203.915318 
L 278.866011 -206.646875 
L 280.272849 -209.342414 
L 281.679687 -211.998013 
L 283.086525 -214.609748 
L 284.493363 -217.173698 
L 285.900201 -219.68594 
L 287.307039 -222.14255 
L 288.713877 -224.539607 
L 290.120715 -226.873187 
L 291.527553 -229.139368 
L 292.934391 -231.334228 
L 294.341229 -233.453844 
L 295.748067 -235.494292 
L 297.154905 -237.451651 
L 298.561743 -239.321998 
L 299.968581 -241.10141 
L 301.375419 -242.786102 
L 302.782257 -244.375451 
L 304.189095 -245.871998 
L 305.595933 -247.27842 
L 307.002771 -248.597394 
L 308.409609 -249.831599 
L 309.816447 -250.983712 
L 311.223285 -252.05641 
L 312.630123 -253.052372 
L 314.036961 -253.974274 
L 315.443799 -254.824794 
L 316.850637 -255.606609 
L 318.257475 -256.322398 
L 319.664313 -256.974838 
L 321.071151 -257.566607 
L 322.477989 -258.100381 
L 323.884828 -258.57884 
L 325.291666 -259.004659 
L 326.698504 -259.380517 
L 328.105342 -259.709092 
L 329.51218 -259.993061 
L 330.919018 -260.235101 
L 332.325856 -260.43789 
L 333.732694 -260.604106 
L 335.139532 -260.736426 
L 336.54637 -260.837528 
L 337.953208 -260.91009 
L 339.360046 -260.956789 
L 340.766884 -260.980302 
L 342.173722 -260.983307 
L 343.58056 -260.968482 
L 344.987398 -260.938505 
L 346.394236 -260.896052 
L 347.801074 -260.843802 
L 349.207912 -260.784432 
L 350.61475 -260.72062 
L 352.021588 -260.655043 
L 353.428426 -260.590379 
L 354.835264 -260.529305 
L 356.242102 -260.474499 
L 357.64894 -260.428638 
L 359.055778 -260.394401 
L 360.462616 -260.374465 
L 361.869454 -260.371507 
L 363.276292 -260.388204 
L 364.68313 -260.427236 
L 366.089968 -260.491278 
L 367.496806 -260.583009 
L 368.903645 -260.705106 
L 370.310483 -260.860246 
L 371.717321 -261.050936 
L 373.124159 -261.277678 
L 374.530997 -261.539681 
L 375.937835 -261.836134 
L 377.344673 -262.166226 
L 378.751511 -262.529146 
L 380.158349 -262.924082 
L 381.565187 -263.350223 
L 382.972025 -263.806757 
L 384.378863 -264.292874 
L 385.785701 -264.807762 
L 387.192539 -265.350609 
L 388.599377 -265.920604 
L 390.006215 -266.516936 
L 391.413053 -267.138794 
L 392.819891 -267.785366 
L 394.226729 -268.45584 
L 395.633567 -269.149406 
L 397.040405 -269.865252 
L 398.447243 -270.602567 
L 399.854081 -271.360539 
L 401.260919 -272.138358 
L 402.667757 -272.935211 
L 404.074595 -273.750287 
L 405.481433 -274.582776 
L 406.888271 -275.431865 
L 408.295109 -276.296743 
L 409.701947 -277.1766 
L 411.108785 -278.070623 
L 412.515624 -278.978001 
L 413.922462 -279.897923 
L 415.3293 -280.829578 
L 416.736138 -281.772154 
L 418.142976 -282.72484 
L 419.549814 -283.686825 
L 420.956652 -284.657297 
L 422.36349 -285.635444 
L 423.770328 -286.620456 
L 425.177166 -287.611522 
L 426.584004 -288.607829 
L 427.990842 -289.608567 
L 429.39768 -290.612923 
L 430.804518 -291.620088 
L 432.211356 -292.629249 
L 433.618194 -293.639595 
L 435.025032 -294.650315 
L 436.43187 -295.660597 
L 437.838708 -296.669631 
L 439.245546 -297.676604 
L 440.652384 -298.680705 
L 442.059222 -299.681123 
L 443.46606 -300.677047 
L 444.872898 -301.667666 
L 446.279736 -302.652167 
L 447.686574 -303.62974 
L 449.093412 -304.599574 
L 450.50025 -305.560856 
L 451.907088 -306.512776 
L 453.313926 -307.454522 
L 454.720764 -308.385283 
L 456.127602 -309.304247 
L 457.534441 -310.210604 
L 458.941279 -311.103541 
L 460.348117 -311.982249 
L 461.754955 -312.845914 
L 463.161793 -313.693726 
L 464.568631 -314.524874 
L 465.975469 -315.338545 
L 467.382307 -316.13393 
L 468.789145 -316.910216 
L 470.195983 -317.666592 
L 471.602821 -318.402246 
L 473.009659 -319.116369 
L 474.416497 -319.808147 
L 475.823335 -320.47677 
L 477.230173 -321.121426 
L 478.637011 -321.741304 
L 480.043849 -322.335593 
L 481.450687 -322.903482 
L 482.857525 -323.444158 
L 484.264363 -323.956811 
L 485.671201 -324.440629 
L 487.078039 -324.894801 
L 488.484877 -325.318516 
L 489.891715 -325.710962 
L 491.298553 -326.071327 
L 492.705391 -326.398802 
L 494.112229 -326.692573 
L 495.519067 -326.951831 
L 496.925905 -327.175763 
L 498.332743 -327.363558 
L 499.739581 -327.514405 
L 501.146419 -327.627492 
L 502.553258 -327.702009 
L 503.960096 -327.737143 
L 505.366934 -327.732084 
L 506.773772 -327.686019 
L 508.18061 -327.598139 
L 509.587448 -327.467631 
L 510.994286 -327.293684 
L 510.994286 -71.28 
L 510.994286 -71.28 
L 509.587448 -71.28 
L 508.18061 -71.28 
L 506.773772 -71.28 
L 505.366934 -71.28 
L 503.960096 -71.28 
L 502.553258 -71.28 
L 501.146419 -71.28 
L 499.739581 -71.28 
L 498.332743 -71.28 
L 496.925905 -71.28 
L 495.519067 -71.28 
L 494.112229 -71.28 
L 492.705391 -71.28 
L 491.298553 -71.28 
L 489.891715 -71.28 
L 488.484877 -71.28 
L 487.078039 -71.28 
L 485.671201 -71.28 
L 484.264363 -71.28 
L 482.857525 -71.28 
L 481.450687 -71.28 
L 480.043849 -71.28 
L 478.637011 -71.28 
L 477.230173 -71.28 
L 475.823335 -71.28 
L 474.416497 -71.28 
L 473.009659 -71.28 
L 471.602821 -71.28 
L 470.195983 -71.28 
L 468.789145 -71.28 
L 467.382307 -71.28 
L 465.975469 -71.28 
L 464.568631 -71.28 
L 463.161793 -71.28 
L 461.754955 -71.28 
L 460.348117 -71.28 
L 458.941279 -71.28 
L 457.534441 -71.28 
L 456.127602 -71.28 
L 454.720764 -71.28 
L 453.313926 -71.28 
L 451.907088 -71.28 
L 450.50025 -71.28 
L 449.093412 -71.28 
L 447.686574 -71.28 
L 446.279736 -71.28 
L 444.872898 -71.28 
L 443.46606 -71.28 
L 442.059222 -71.28 
L 440.652384 -71.28 
L 439.245546 -71.28 
L 437.838708 -71.28 
L 436.43187 -71.28 
L 435.025032 -71.28 
L 433.618194 -71.28 
L 432.211356 -71.28 
L 430.804518 -71.28 
L 429.39768 -71.28 
L 427.990842 -71.28 
L 426.584004 -71.28 
L 425.177166 -71.28 
L 423.770328 -71.28 
L 422.36349 -71.28 
L 420.956652 -71.28 
L 419.549814 -71.28 
L 418.142976 -71.28 
L 416.736138 -71.28 
L 415.3293 -71.28 
L 413.922462 -71.28 
L 412.515624 -71.28 
L 411.108785 -71.28 
L 409.701947 -71.28 
L 408.295109 -71.28 
L 406.888271 -71.28 
L 405.481433 -71.28 
L 404.074595 -71.28 
L 402.667757 -71.28 
L 401.260919 -71.28 
L 399.854081 -71.28 
L 398.447243 -71.28 
L 397.040405 -71.28 
L 395.633567 -71.28 
L 394.226729 -71.28 
L 392.819891 -71.28 
L 391.413053 -71.28 
L 390.006215 -71.28 
L 388.599377 -71.28 
L 387.192539 -71.28 
L 385.785701 -71.28 
L 384.378863 -71.28 
L 382.972025 -71.28 
L 381.565187 -71.28 
L 380.158349 -71.28 
L 378.751511 -71.28 
L 377.344673 -71.28 
L 375.937835 -71.28 
L 374.530997 -71.28 
L 373.124159 -71.28 
L 371.717321 -71.28 
L 370.310483 -71.28 
L 368.903645 -71.28 
L 367.496806 -71.28 
L 366.089968 -71.28 
L 364.68313 -71.28 
L 363.276292 -71.28 
L 361.869454 -71.28 
L 360.462616 -71.28 
L 359.055778 -71.28 
L 357.64894 -71.28 
L 356.242102 -71.28 
L 354.835264 -71.28 
L 353.428426 -71.28 
L 352.021588 -71.28 
L 350.61475 -71.28 
L 349.207912 -71.28 
L 347.801074 -71.28 
L 346.394236 -71.28 
L 344.987398 -71.28 
L 343.58056 -71.28 
L 342.173722 -71.28 
L 340.766884 -71.28 
L 339.360046 -71.28 
L 337.953208 -71.28 
L 336.54637 -71.28 
L 335.139532 -71.28 
L 333.732694 -71.28 
L 332.325856 -71.28 
L 330.919018 -71.28 
L 329.51218 -71.28 
L 328.105342 -71.28 
L 326.698504 -71.28 
L 325.291666 -71.28 
L 323.884828 -71.28 
L 322.477989 -71.28 
L 321.071151 -71.28 
L 319.664313 -71.28 
L 318.257475 -71.28 
L 316.850637 -71.28 
L 315.443799 -71.28 
L 314.036961 -71.28 
L 312.630123 -71.28 
L 311.223285 -71.28 
L 309.816447 -71.28 
L 308.409609 -71.28 
L 307.002771 -71.28 
L 305.595933 -71.28 
L 304.189095 -71.28 
L 302.782257 -71.28 
L 301.375419 -71.28 
L 299.968581 -71.28 
L 298.561743 -71.28 
L 297.154905 -71.28 
L 295.748067 -71.28 
L 294.341229 -71.28 
L 292.934391 -71.28 
L 291.527553 -71.28 
L 290.120715 -71.28 
L 288.713877 -71.28 
L 287.307039 -71.28 
L 285.900201 -71.28 
L 284.493363 -71.28 
L 283.086525 -71.28 
L 281.679687 -71.28 
L 280.272849 -71.28 
L 278.866011 -71.28 
L 277.459172 -71.28 
L 276.052334 -71.28 
L 274.645496 -71.28 
L 273.238658 -71.28 
L 271.83182 -71.28 
L 270.424982 -71.28 
L 269.018144 -71.28 
L 267.611306 -71.28 
L 266.204468 -71.28 
L 264.79763 -71.28 
L 263.390792 -71.28 
L 261.983954 -71.28 
L 260.577116 -71.28 
L 259.170278 -71.28 
L 257.76344 -71.28 
L 256.356602 -71.28 
L 254.949764 -71.28 
L 253.542926 -71.28 
L 252.136088 -71.28 
L 250.72925 -71.28 
L 249.322412 -71.28 
L 247.915574 -71.28 
L 246.508736 -71.28 
L 245.101898 -71.28 
L 243.69506 -71.28 
L 242.288222 -71.28 
L 240.881384 -71.28 
L 239.474546 -71.28 
L 238.067708 -71.28 
L 236.66087 -71.28 
L 235.254032 -71.28 
L 233.847194 -71.28 
L 232.440355 -71.28 
L 231.033517 -71.28 
L 229.626679 -71.28 
L 228.219841 -71.28 
L 226.813003 -71.28 
L 225.406165 -71.28 
L 223.999327 -71.28 
L 222.592489 -71.28 
L 221.185651 -71.28 
L 219.778813 -71.28 
L 218.371975 -71.28 
L 216.965137 -71.28 
L 215.558299 -71.28 
L 214.151461 -71.28 
L 212.744623 -71.28 
L 211.337785 -71.28 
L 209.930947 -71.28 
L 208.524109 -71.28 
L 207.117271 -71.28 
L 205.710433 -71.28 
L 204.303595 -71.28 
L 202.896757 -71.28 
L 201.489919 -71.28 
L 200.083081 -71.28 
L 198.676243 -71.28 
L 197.269405 -71.28 
L 195.862567 -71.28 
L 194.455729 -71.28 
L 193.048891 -71.28 
L 191.642053 -71.28 
L 190.235215 -71.28 
L 188.828376 -71.28 
L 187.421538 -71.28 
L 186.0147 -71.28 
L 184.607862 -71.28 
L 183.201024 -71.28 
L 181.794186 -71.28 
L 180.387348 -71.28 
L 178.98051 -71.28 
L 177.573672 -71.28 
L 176.166834 -71.28 
L 174.759996 -71.28 
L 173.353158 -71.28 
L 171.94632 -71.28 
L 170.539482 -71.28 
L 169.132644 -71.28 
L 167.725806 -71.28 
L 166.318968 -71.28 
L 164.91213 -71.28 
L 163.505292 -71.28 
L 162.098454 -71.28 
L 160.691616 -71.28 
L 159.284778 -71.28 
L 157.87794 -71.28 
L 156.471102 -71.28 
L 155.064264 -71.28 
L 153.657426 -71.28 
L 152.250588 -71.28 
L 150.84375 -71.28 
L 149.436912 -71.28 
L 148.030074 -71.28 
L 146.623236 -71.28 
L 145.216398 -71.28 
L 143.809559 -71.28 
L 142.402721 -71.28 
L 140.995883 -71.28 
L 139.589045 -71.28 
L 138.182207 -71.28 
L 136.775369 -71.28 
L 135.368531 -71.28 
L 133.961693 -71.28 
L 132.554855 -71.28 
L 131.148017 -71.28 
L 129.741179 -71.28 
L 128.334341 -71.28 
L 126.927503 -71.28 
L 125.520665 -71.28 
L 124.113827 -71.28 
L 122.706989 -71.28 
L 121.300151 -71.28 
L 119.893313 -71.28 
L 118.486475 -71.28 
L 117.079637 -71.28 
L 115.672799 -71.28 
L 114.265961 -71.28 
L 112.859123 -71.28 
L 111.452285 -71.28 
L 110.045447 -71.28 
L 108.638609 -71.28 
L 107.231771 -71.28 
L 105.824933 -71.28 
L 104.418095 -71.28 
L 103.011257 -71.28 
L 101.604419 -71.28 
L 100.197581 -71.28 
L 98.790742 -71.28 
L 97.383904 -71.28 
L 95.977066 -71.28 
L 94.570228 -71.28 
L 93.16339 -71.28 
L 91.756552 -71.28 
L 90.349714 -71.28 
z
" style="stroke: #8b5cf6; stroke-opacity: 0.12"/>
    </defs>
    <g clip-path="url(#p1f4bdde345)">
     <use xlink:href="#m19013f55b3" x="0" y="396" style="fill: #8b5cf6; fill-opacity: 0.12; stroke: #8b5cf6; stroke-opacity: 0.12"/>
    </g>
   </g>
   <g id="text_14">
    <!-- 223 -->
    <g style="fill: #8b5cf6" transform="translate(513.994286 65.706316) scale(0.12 -0.12)">
     <defs>
      <path id="JetBrainsMono-Bold-32" d="M 474 0 
L 474 723 
L 2157 2445 
Q 2566 2874 2566 3315 
Q 2566 3629 2384 3824 
Q 2202 4019 1894 4019 
Q 1581 4019 1392 3817 
Q 1203 3616 1203 3283 
L 403 3283 
Q 403 3718 595 4044 
Q 787 4371 1126 4553 
Q 1466 4736 1914 4736 
Q 2355 4736 2688 4563 
Q 3021 4390 3203 4080 
Q 3386 3770 3386 3354 
Q 3386 2995 3216 2636 
Q 3046 2278 2656 1894 
L 1478 723 
L 3443 723 
L 3443 0 
L 474 0 
z
" transform="scale(0.015625)"/>
      <path id="JetBrainsMono-Bold-33" d="M 1875 -64 
Q 1184 -64 781 297 
Q 378 659 378 1280 
L 1184 1280 
Q 1184 986 1369 810 
Q 1555 634 1882 634 
Q 2202 634 2387 810 
Q 2573 986 2573 1280 
L 2573 1632 
Q 2573 1946 2390 2122 
Q 2208 2298 1882 2298 
L 1293 2298 
L 1293 2938 
L 2368 3968 
L 544 3968 
L 544 4672 
L 3245 4672 
L 3245 3994 
L 2170 2963 
Q 2733 2886 3056 2537 
Q 3379 2189 3379 1632 
L 3379 1280 
Q 3379 659 2972 297 
Q 2566 -64 1875 -64 
z
" transform="scale(0.015625)"/>
     </defs>
     <use xlink:href="#JetBrainsMono-Bold-32"/>
     <use xlink:href="#JetBrainsMono-Bold-32" transform="translate(59.999985 0)"/>
     <use xlink:href="#JetBrainsMono-Bold-33" transform="translate(119.999969 0)"/>
    </g>
   </g>
   <g id="text_15">
    <!-- Rating History -->
    <g style="fill: #8b5cf6" transform="translate(55.296 50.44) scale(0.17 -0.17)">
     <defs>
      <path id="JetBrainsMono-Bold-52" d="M 493 0 
L 493 4672 
L 1965 4672 
Q 2432 4672 2774 4499 
Q 3117 4326 3309 4016 
Q 3501 3706 3501 3283 
Q 3501 2816 3270 2467 
Q 3040 2118 2650 1971 
L 3565 0 
L 2688 0 
L 1869 1856 
L 1286 1856 
L 1286 0 
L 493 0 
z
M 1286 2560 
L 1965 2560 
Q 2304 2560 2496 2745 
Q 2688 2931 2688 3258 
Q 2688 3584 2493 3776 
Q 2298 3968 1965 3968 
L 1286 3968 
L 1286 2560 
z
" transform="scale(0.015625)"/>
      <path id="JetBrainsMono-Bold-61" d="M 1530 -64 
Q 992 -64 681 240 
Q 371 544 371 1037 
Q 371 1549 723 1853 
Q 1075 2157 1690 2157 
L 2547 2157 
L 2547 2406 
Q 2547 2938 1926 2938 
Q 1645 2938 1478 2829 
Q 1312 2720 1293 2522 
L 525 2522 
Q 550 2995 924 3289 
Q 1299 3584 1933 3584 
Q 2605 3584 2976 3270 
Q 3347 2957 3347 2387 
L 3347 0 
L 2566 0 
L 2566 659 
Q 2522 320 2246 128 
Q 1971 -64 1530 -64 
z
M 1786 589 
Q 2138 589 2342 761 
Q 2547 934 2547 1222 
L 2547 1638 
L 1728 1638 
Q 1466 1638 1312 1491 
Q 1158 1344 1158 1114 
Q 1158 877 1321 733 
Q 1485 589 1786 589 
z
" transform="scale(0.015625)"/>
      <path id="JetBrainsMono-Bold-74" d="M 2272 0 
Q 1779 0 1488 285 
Q 1197 570 1197 1056 
L 1197 2797 
L 224 2797 
L 224 3520 
L 1197 3520 
L 1197 4512 
L 2003 4512 
L 2003 3520 
L 3405 3520 
L 3405 2797 
L 2003 2797 
L 2003 1075 
Q 2003 922 2089 822 
Q 2176 723 2330 723 
L 3373 723 
L 3373 0 
L 2272 0 
z
" transform="scale(0.015625)"/>
      <path id="JetBrainsMono-Bold-69" d="M 486 0 
L 486 723 
L 1690 723 
L 1690 2797 
L 614 2797 
L 614 3520 
L 2490 3520 
L 2490 723 
L 3571 723 
L 3571 0 
L 486 0 
z
M 2032 4109 
Q 1789 4109 1648 4233 
Q 1507 4358 1507 4570 
Q 1507 4781 1648 4905 
Q 1789 5030 2032 5030 
Q 2275 5030 2416 4905 
Q 2557 4781 2557 4570 
Q 2557 4358 2416 4233 
Q 2275 4109 2032 4109 
z
" transform="scale(0.015625)"/>
      <path id="JetBrainsMono-Bold-6e" d="M 493 0 
L 493 3520 
L 1274 3520 
L 1274 2861 
Q 1338 3194 1587 3389 
Q 1837 3584 2221 3584 
Q 2739 3584 3049 3238 
Q 3360 2893 3360 2310 
L 3360 0 
L 2560 0 
L 2560 2214 
Q 2560 2541 2390 2717 
Q 2221 2893 1933 2893 
Q 1632 2893 1462 2713 
Q 1293 2534 1293 2202 
L 1293 0 
L 493 0 
z
" transform="scale(0.015625)"/>
      <path id="JetBrainsMono-Bold-67" d="M 973 -1152 
L 973 -486 
L 1965 -486 
Q 2246 -486 2400 -336 
Q 2554 -186 2554 70 
L 2554 282 
L 2566 832 
Q 2458 538 2218 374 
Q 1978 211 1632 211 
Q 1094 211 777 572 
Q 461 934 461 1555 
L 461 2240 
Q 461 2854 777 3219 
Q 1094 3584 1632 3584 
Q 1978 3584 2218 3421 
Q 2458 3258 2566 2957 
L 2566 3520 
L 3347 3520 
L 3347 51 
Q 3347 -506 2979 -829 
Q 2611 -1152 1978 -1152 
L 973 -1152 
z
M 1901 896 
Q 2208 896 2377 1078 
Q 2547 1261 2547 1587 
L 2547 2202 
Q 2547 2528 2377 2710 
Q 2208 2893 1901 2893 
Q 1594 2893 1427 2717 
Q 1261 2541 1261 2227 
L 1261 1562 
Q 1261 1248 1427 1072 
Q 1594 896 1901 896 
z
" transform="scale(0.015625)"/>
      <path id="JetBrainsMono-Bold-20" transform="scale(0.015625)"/>
      <path id="JetBrainsMono-Bold-48" d="M 493 0 
L 493 4672 
L 1293 4672 
L 1293 2778 
L 2547 2778 
L 2547 4672 
L 3347 4672 
L 3347 0 
L 2547 0 
L 2547 2054 
L 1293 2054 
L 1293 0 
L 493 0 
z
" transform="scale(0.015625)"/>
      <path id="JetBrainsMono-Bold-73" d="M 1773 -58 
Q 1146 -58 781 227 
Q 416 512 416 998 
L 1203 998 
Q 1203 794 1353 685 
Q 1504 576 1773 576 
L 2054 576 
Q 2342 576 2499 685 
Q 2656 794 2656 998 
Q 2656 1190 2547 1283 
Q 2438 1376 2214 1408 
L 1338 1523 
Q 915 1581 688 1849 
Q 461 2118 461 2547 
Q 461 3046 793 3312 
Q 1126 3578 1754 3578 
L 2048 3578 
Q 2637 3578 2995 3309 
Q 3354 3040 3366 2592 
L 2573 2592 
Q 2566 2758 2425 2857 
Q 2285 2957 2048 2957 
L 1754 2957 
Q 1498 2957 1363 2851 
Q 1229 2746 1229 2566 
Q 1229 2406 1328 2329 
Q 1427 2253 1619 2234 
L 2445 2118 
Q 2931 2061 3177 1776 
Q 3424 1491 3424 1011 
Q 3424 499 3075 220 
Q 2726 -58 2054 -58 
L 1773 -58 
z
" transform="scale(0.015625)"/>
      <path id="JetBrainsMono-Bold-6f" d="M 1920 -58 
Q 1242 -58 845 323 
Q 448 704 448 1350 
L 448 2170 
Q 448 2822 845 3200 
Q 1242 3578 1920 3578 
Q 2598 3578 2995 3200 
Q 3392 2822 3392 2170 
L 3392 1350 
Q 3392 704 2995 323 
Q 2598 -58 1920 -58 
z
M 1920 640 
Q 2240 640 2416 816 
Q 2592 992 2592 1325 
L 2592 2195 
Q 2592 2528 2416 2704 
Q 2240 2880 1920 2880 
Q 1600 2880 1424 2704 
Q 1248 2528 1248 2195 
L 1248 1325 
Q 1248 992 1424 816 
Q 1600 640 1920 640 
z
" transform="scale(0.015625)"/>
      <path id="JetBrainsMono-Bold-72" d="M 621 0 
L 621 3520 
L 1402 3520 
L 1402 2835 
Q 1466 3181 1718 3382 
Q 1971 3584 2374 3584 
Q 2912 3584 3213 3238 
Q 3514 2893 3514 2272 
L 3514 1939 
L 2714 1939 
L 2714 2234 
Q 2714 2554 2547 2723 
Q 2381 2893 2074 2893 
Q 1754 2893 1587 2701 
Q 1421 2509 1421 2157 
L 1421 0 
L 621 0 
z
" transform="scale(0.015625)"/>
      <path id="JetBrainsMono-Bold-79" d="M 1056 -1152 
L 1555 192 
L 230 3520 
L 1075 3520 
L 1754 1722 
Q 1811 1562 1868 1373 
Q 1926 1184 1952 1024 
Q 1971 1184 2025 1373 
Q 2080 1562 2138 1722 
L 2765 3520 
L 3610 3520 
L 1894 -1152 
L 1056 -1152 
z
" transform="scale(0.015625)"/>
     </defs>
     <use xlink:href="#JetBrainsMono-Bold-52"/>
     <use xlink:href="#JetBrainsMono-Bold-61" transform="translate(59.999985 0)"/>
     <use xlink:href="#JetBrainsMono-Bold-74" transform="translate(119.999969 0)"/>
     <use xlink:href="#JetBrainsMono-Bold-69" transform="translate(179.999954 0)"/>
     <use xlink:href="#JetBrainsMono-Bold-6e" transform="translate(239.999939 0)"/>
     <use xlink:href="#JetBrainsMono-Bold-67" transform="translate(299.999924 0)"/>
     <use xlink:href="#JetBrainsMono-Bold-20" transform="translate(359.999908 0)"/>
     <use xlink:href="#JetBrainsMono-Bold-48" transform="translate(419.999893 0)"/>
     <use xlink:href="#JetBrainsMono-Bold-69" transform="translate(479.999878 0)"/>
     <use xlink:href="#JetBrainsMono-Bold-73" transform="translate(539.999863 0)"/>
     <use xlink:href="#JetBrainsMono-Bold-74" transform="translate(599.999847 0)"/>
     <use xlink:href="#JetBrainsMono-Bold-6f" transform="translate(659.999832 0)"/>
     <use xlink:href="#JetBrainsMono-Bold-72" transform="translate(719.999817 0)"/>
     <use xlink:href="#JetBrainsMono-Bold-79" transform="translate(779.999802 0)"/>
    </g>
   </g>
   <g id="line2d_25">
    <path d="M 90.349714 277.310059 
L 93.16339 274.227042 
L 95.977066 271.522826 
L 98.790742 269.181572 
L 101.604419 267.187443 
L 104.418095 265.524599 
L 107.231771 264.177202 
L 110.045447 263.129414 
L 112.859123 262.365397 
L 115.672799 261.869312 
L 118.486475 261.62532 
L 121.300151 261.617584 
L 124.113827 261.830266 
L 126.927503 262.247526 
L 129.741179 262.853526 
L 132.554855 263.632429 
L 136.775369 265.090327 
L 140.995883 266.848165 
L 145.216398 268.852487 
L 150.84375 271.815946 
L 157.87794 275.809814 
L 170.539482 283.061141 
L 176.166834 286.000843 
L 180.387348 287.980417 
L 184.607862 289.707568 
L 188.828376 291.128841 
L 191.642053 291.880026 
L 194.455729 292.455669 
L 197.269405 292.839933 
L 200.083081 293.016978 
L 202.896757 292.970966 
L 205.710433 292.686059 
L 208.524109 292.146418 
L 211.337785 291.336206 
L 214.151461 290.239583 
L 216.965137 288.840711 
L 219.778813 287.123753 
L 222.592489 285.072869 
L 225.406165 282.672222 
L 228.219841 279.905972 
L 231.033517 276.758319 
L 233.847194 273.225811 
L 236.66087 269.335275 
L 239.474546 265.118093 
L 243.69506 258.248504 
L 247.915574 250.82048 
L 252.136088 242.939932 
L 257.76344 231.911665 
L 266.204468 214.76306 
L 276.052334 194.848334 
L 281.679687 184.001987 
L 285.900201 176.31406 
L 290.120715 169.126813 
L 292.934391 164.665772 
L 295.748067 160.505708 
L 298.561743 156.678002 
L 301.375419 153.213898 
L 304.189095 150.128002 
L 307.002771 147.402606 
L 309.816447 145.016288 
L 312.630123 142.947628 
L 315.443799 141.175206 
L 318.257475 139.677602 
L 321.071151 138.433393 
L 323.884828 137.42116 
L 326.698504 136.619483 
L 329.51218 136.006939 
L 332.325856 135.56211 
L 336.54637 135.162472 
L 340.766884 135.019698 
L 346.394236 135.103948 
L 361.869454 135.628493 
L 366.089968 135.508722 
L 370.310483 135.139754 
L 374.530997 134.460319 
L 378.751511 133.470854 
L 382.972025 132.193243 
L 387.192539 130.649391 
L 391.413053 128.861206 
L 395.633567 126.850594 
L 399.854081 124.639461 
L 405.481433 121.417224 
L 411.108785 117.929377 
L 418.142976 113.27516 
L 426.584004 107.392171 
L 451.907088 89.487224 
L 458.941279 84.896459 
L 464.568631 81.475126 
L 470.195983 78.333408 
L 474.416497 76.191853 
L 478.637011 74.258696 
L 482.857525 72.555842 
L 487.078039 71.105199 
L 491.298553 69.928673 
L 495.519067 69.048169 
L 499.739581 68.485595 
L 502.553258 68.297991 
L 505.366934 68.267916 
L 508.18061 68.401861 
L 510.994286 68.706316 
L 510.994286 68.706316 
" clip-path="url(#p1f4bdde345)" style="fill: none; stroke: #8b5cf6; stroke-width: 1.2; stroke-linecap: round"/>
   </g>
   <g id="PathCollection_1">
    <defs>
     <path id="md5a8f3167a" d="M 0 2.236068 
C 0.593012 2.236068 1.161816 2.000462 1.581139 1.581139 
C 2.000462 1.161816 2.236068 0.593012 2.236068 0 
C 2.236068 -0.593012 2.000462 -1.161816 1.581139 -1.581139 
C 1.161816 -2.000462 0.593012 -2.236068 0 -2.236068 
C -0.593012 -2.236068 -1.161816 -2.000462 -1.581139 -1.581139 
C -2.000462 -1.161816 -2.236068 -0.593012 -2.236068 0 
C -2.236068 0.593012 -2.000462 1.161816 -1.581139 1.581139 
C -1.161816 2.000462 -0.593012 2.236068 0 2.236068 
z
" style="stroke: #ffffff; stroke-width: 0.8"/>
    </defs>
    <g clip-path="url(#p1f4bdde345)">
     <use xlink:href="#md5a8f3167a" x="510.994286" y="68.706316" style="fill: #8b5cf6; stroke: #ffffff; stroke-width: 0.8"/>
    </g>
   </g>
  </g>
  <g id="axes_2">
   <g id="text_16">
    <!-- Rating -->
    <g style="fill: #9b8bb8" transform="translate(565.7472 48.312) scale(0.11 -0.11)">
     <use xlink:href="#JetBrainsMono-Regular-52"/>
     <use xlink:href="#JetBrainsMono-Regular-61" transform="translate(59.999985 0)"/>
     <use xlink:href="#JetBrainsMono-Regular-74" transform="translate(119.999969 0)"/>
     <use xlink:href="#JetBrainsMono-Regular-69" transform="translate(179.999954 0)"/>
     <use xlink:href="#JetBrainsMono-Regular-6e" transform="translate(239.999939 0)"/>
     <use xlink:href="#JetBrainsMono-Regular-67" transform="translate(299.999924 0)"/>
    </g>
   </g>
   <g id="text_17">
    <!-- 223 -->
    <g style="fill: #8b5cf6" transform="translate(565.7472 81.548) scale(0.26 -0.26)">
     <use xlink:href="#JetBrainsMono-Bold-32"/>
     <use xlink:href="#JetBrainsMono-Bold-32" transform="translate(59.999985 0)"/>
     <use xlink:href="#JetBrainsMono-Bold-33" transform="translate(119.999969 0)"/>
    </g>
   </g>
   <g id="text_18">
    <!-- Rank -->
    <g style="fill: #9b8bb8" transform="translate(565.7472 119.592) scale(0.11 -0.11)">
     <defs>
      <path id="JetBrainsMono-Regular-6b" d="M 621 0 
L 621 4672 
L 1197 4672 
L 1197 2067 
L 1869 2067 
L 2854 3520 
L 3514 3520 
L 2381 1843 
L 3578 0 
L 2906 0 
L 1882 1568 
L 1197 1568 
L 1197 0 
L 621 0 
z
" transform="scale(0.015625)"/>
     </defs>
     <use xlink:href="#JetBrainsMono-Regular-52"/>
     <use xlink:href="#JetBrainsMono-Regular-61" transform="translate(59.999985 0)"/>
     <use xlink:href="#JetBrainsMono-Regular-6e" transform="translate(119.999969 0)"/>
     <use xlink:href="#JetBrainsMono-Regular-6b" transform="translate(179.999954 0)"/>
    </g>
   </g>
   <g id="text_19">
    <!-- #126,337 -->
    <g style="fill: #8b5cf6" transform="translate(565.7472 148.104) scale(0.14 -0.14)">
     <defs>
      <path id="JetBrainsMono-Bold-23" d="M 493 0 
L 710 1216 
L 224 1216 
L 224 1760 
L 800 1760 
L 998 2912 
L 448 2912 
L 448 3456 
L 1094 3456 
L 1312 4672 
L 1875 4672 
L 1658 3456 
L 2566 3456 
L 2784 4672 
L 3347 4672 
L 3130 3456 
L 3616 3456 
L 3616 2912 
L 3034 2912 
L 2835 1760 
L 3392 1760 
L 3392 1216 
L 2739 1216 
L 2528 0 
L 1965 0 
L 2182 1216 
L 1267 1216 
L 1056 0 
L 493 0 
z
M 1363 1760 
L 2272 1760 
L 2470 2912 
L 1562 2912 
L 1363 1760 
z
" transform="scale(0.015625)"/>
      <path id="JetBrainsMono-Bold-31" d="M 538 0 
L 538 723 
L 1754 723 
L 1754 3898 
L 531 3002 
L 531 3898 
L 1606 4672 
L 2554 4672 
L 2554 723 
L 3533 723 
L 3533 0 
L 538 0 
z
" transform="scale(0.015625)"/>
      <path id="JetBrainsMono-Bold-36" d="M 1920 -64 
Q 1440 -64 1085 128 
Q 730 320 534 669 
Q 339 1018 339 1485 
Q 339 1760 457 2115 
Q 576 2470 781 2835 
L 1792 4672 
L 2701 4672 
L 1498 2611 
L 1523 2598 
Q 1619 2733 1804 2809 
Q 1990 2886 2208 2886 
Q 2598 2886 2889 2710 
Q 3181 2534 3341 2214 
Q 3501 1894 3501 1459 
Q 3501 998 3305 656 
Q 3110 314 2755 125 
Q 2400 -64 1920 -64 
z
M 1920 614 
Q 2278 614 2496 841 
Q 2714 1069 2714 1446 
Q 2714 1830 2496 2057 
Q 2278 2285 1920 2285 
Q 1562 2285 1344 2057 
Q 1126 1830 1126 1446 
Q 1126 1069 1344 841 
Q 1562 614 1920 614 
z
" transform="scale(0.015625)"/>
      <path id="JetBrainsMono-Bold-2c" d="M 1216 -1024 
L 1555 934 
L 2470 934 
L 1984 -1024 
L 1216 -1024 
z
" transform="scale(0.015625)"/>
      <path id="JetBrainsMono-Bold-37" d="M 1011 0 
L 2720 3968 
L 1229 3968 
L 1229 3206 
L 429 3206 
L 429 4672 
L 3584 4672 
L 3584 3968 
L 1888 0 
L 1011 0 
z
" transform="scale(0.015625)"/>
     </defs>
     <use xlink:href="#JetBrainsMono-Bold-23"/>
     <use xlink:href="#JetBrainsMono-Bold-31" transform="translate(59.999985 0)"/>
     <use xlink:href="#JetBrainsMono-Bold-32" transform="translate(119.999969 0)"/>
     <use xlink:href="#JetBrainsMono-Bold-36" transform="translate(179.999954 0)"/>
     <use xlink:href="#JetBrainsMono-Bold-2c" transform="translate(239.999939 0)"/>
     <use xlink:href="#JetBrainsMono-Bold-33" transform="translate(299.999924 0)"/>
     <use xlink:href="#JetBrainsMono-Bold-33" transform="translate(359.999908 0)"/>
     <use xlink:href="#JetBrainsMono-Bold-37" transform="translate(419.999893 0)"/>
    </g>
   </g>
   <g id="text_20">
    <!-- ▲ +3 -->
    <g style="fill: #4caf50" transform="translate(565.7472 169.488) scale(0.11 -0.11)">
     <defs>
      <path id="JetBrainsMono-Bold-25b2" d="M -64 384 
L 1920 4288 
L 3904 384 
L -64 384 
z
" transform="scale(0.015625)"/>
      <path id="JetBrainsMono-Bold-2b" d="M 1523 589 
L 1523 1741 
L 378 1741 
L 378 2483 
L 1523 2483 
L 1523 3635 
L 2317 3635 
L 2317 2483 
L 3462 2483 
L 3462 1741 
L 2317 1741 
L 2317 589 
L 1523 589 
z
" transform="scale(0.015625)"/>
     </defs>
     <use xlink:href="#JetBrainsMono-Bold-25b2"/>
     <use xlink:href="#JetBrainsMono-Bold-20" transform="translate(59.999985 0)"/>
     <use xlink:href="#JetBrainsMono-Bold-2b" transform="translate(119.999969 0)"/>
     <use xlink:href="#JetBrainsMono-Bold-33" transform="translate(179.999954 0)"/>
    </g>
   </g>
  </g>
 </g>
 <defs>
  <clipPath id="p1f4bdde345">
   <rect x="55.296" y="55.44" width="490.752" height="269.28"/>
  </clipPath>
 </defs>
</svg>
