<?xml version="1.0" encoding="utf-8" standalone="no"?>
<!DOCTYPE svg PUBLIC "-//W3C//DTD SVG 1.1//EN"
  "http://www.w3.org/Graphics/SVG/1.1/DTD/svg11.dtd">
<svg xmlns:xlink="http://www.w3.org/1999/xlink" width="691.2pt" height="396pt" viewBox="0 0 691.2 396" xmlns="http://www.w3.org/2000/svg" version="1.1">
 <metadata>
  <rdf:RDF xmlns:dc="http://purl.org/dc/elements/1.1/" xmlns:cc="http://creativecommons.org/ns#" xmlns:rdf="http://www.w3.org/1999/02/22-rdf-syntax-ns#">
   <cc:Work>
    <dc:type rdf:resource="http://purl.org/dc/dcmitype/StillImage"/>
    <dc:date>2026-04-12T16:20:30.975728</dc:date>
    <dc:format>image/svg+xml</dc:format>
    <dc:creator>
     <cc:Agent>
      <dc:title>Matplotlib v3.10.8, https://matplotlib.org/</dc:title>
     </cc:Agent>
    </dc:creator>
   </cc:Work>
  </rdf:RDF>
 </metadata>
 <defs>
  <style type="text/css">*{stroke-linejoin: round; stroke-linecap: butt}</style>
 </defs>
 <g id="figure_1">
  <g id="patch_1">
   <path d="M 0 396 
L 691.2 396 
L 691.2 0 
L 0 0 
L 0 396 
z
" style="fill: none"/>
  </g>
  <g id="axes_1">
   <g id="patch_2">
    <path d="M 55.296 324.72 
L 546.048 324.72 
L 546.048 55.44 
L 55.296 55.44 
L 55.296 324.72 
z
" style="fill: none"/>
   </g>
   <g id="matplotlib.axis_1">
    <g id="xtick_1">
     <g id="line2d_1">
      <path d="M 74.171077 324.72 
L 74.171077 55.44 
" clip-path="url(#p8cbc6beebb)" style="fill: none; stroke-dasharray: 2.22,0.96; stroke-dashoffset: 0; stroke: #e2d5f5; stroke-opacity: 0.7; stroke-width: 0.6"/>
     </g>
     <g id="line2d_2">
      <defs>
       <path id="mc1afc4d157" d="M 0 0 
L 0 3.5 
" style="stroke: #9b8bb8; stroke-width: 0.8"/>
      </defs>
      <g>
       <use xlink:href="#mc1afc4d157" x="74.171077" y="324.72" style="fill: #9b8bb8; stroke: #9b8bb8; stroke-width: 0.8"/>
      </g>
     </g>
     <g id="text_1">
      <!-- 03/31 -->
      <g style="fill: #9b8bb8" transform="translate(62.630696 353.301793) rotate(-30) scale(0.1 -0.1)">
       <defs>
        <path id="JetBrainsMono-Regular-30" d="M 1920 -64 
Q 1274 -64 893 310 
Q 512 685 512 1312 
L 512 3360 
Q 512 3987 893 4361 
Q 1274 4736 1920 4736 
Q 2566 4736 2947 4361 
Q 3328 3987 3328 3360 
L 3328 1312 
Q 3328 896 3155 585 
Q 2982 275 2665 105 
Q 2349 -64 1920 -64 
z
M 1920 429 
Q 2304 429 2537 675 
Q 2771 922 2771 1312 
L 2771 3360 
Q 2771 3750 2537 3996 
Q 2304 4243 1920 4243 
Q 1536 4243 1302 3996 
Q 1069 3750 1069 3360 
L 1069 1312 
Q 1069 922 1302 675 
Q 1536 429 1920 429 
z
M 1920 1984 
Q 1747 1984 1641 2080 
Q 1536 2176 1536 2355 
Q 1536 2528 1641 2621 
Q 1747 2714 1920 2714 
Q 2093 2714 2198 2621 
Q 2304 2528 2304 2355 
Q 2304 2176 2198 2080 
Q 2093 1984 1920 1984 
z
" transform="scale(0.015625)"/>
        <path id="JetBrainsMono-Regular-33" d="M 1850 -64 
Q 1203 -64 825 297 
Q 448 659 448 1280 
L 1024 1280 
Q 1024 896 1248 672 
Q 1472 448 1856 448 
Q 2240 448 2464 672 
Q 2688 896 2688 1280 
L 2688 1600 
Q 2688 1984 2464 2208 
Q 2240 2432 1856 2432 
L 1350 2432 
L 1350 2931 
L 2496 4147 
L 576 4147 
L 576 4672 
L 3149 4672 
L 3149 4134 
L 2022 2938 
Q 2598 2893 2931 2537 
Q 3264 2182 3264 1600 
L 3264 1280 
Q 3264 659 2883 297 
Q 2502 -64 1850 -64 
z
" transform="scale(0.015625)"/>
        <path id="JetBrainsMono-Regular-2f" d="M 480 -704 
L 2752 5312 
L 3360 5312 
L 1088 -704 
L 480 -704 
z
" transform="scale(0.015625)"/>
        <path id="JetBrainsMono-Regular-31" d="M 576 0 
L 576 525 
L 1843 525 
L 1843 4173 
L 576 3226 
L 576 3885 
L 1632 4672 
L 2419 4672 
L 2419 525 
L 3456 525 
L 3456 0 
L 576 0 
z
" transform="scale(0.015625)"/>
       </defs>
       <use xlink:href="#JetBrainsMono-Regular-30"/>
       <use xlink:href="#JetBrainsMono-Regular-33" transform="translate(59.999985 0)"/>
       <use xlink:href="#JetBrainsMono-Regular-2f" transform="translate(119.999969 0)"/>
       <use xlink:href="#JetBrainsMono-Regular-33" transform="translate(179.999954 0)"/>
       <use xlink:href="#JetBrainsMono-Regular-31" transform="translate(239.999939 0)"/>
      </g>
     </g>
    </g>
    <g id="xtick_2">
     <g id="line2d_3">
      <path d="M 111.921231 324.72 
L 111.921231 55.44 
" clip-path="url(#p8cbc6beebb)" style="fill: none; stroke-dasharray: 2.22,0.96; stroke-dashoffset: 0; stroke: #e2d5f5; stroke-opacity: 0.7; stroke-width: 0.6"/>
     </g>
     <g id="line2d_4">
      <g>
       <use xlink:href="#mc1afc4d157" x="111.921231" y="324.72" style="fill: #9b8bb8; stroke: #9b8bb8; stroke-width: 0.8"/>
      </g>
     </g>
     <g id="text_2">
      <!-- 04/01 -->
      <g style="fill: #9b8bb8" transform="translate(100.38085 353.301793) rotate(-30) scale(0.1 -0.1)">
       <defs>
        <path id="JetBrainsMono-Regular-34" d="M 2560 0 
L 2560 1024 
L 448 1024 
L 448 1926 
L 2150 4672 
L 2803 4672 
L 1024 1798 
L 1024 1549 
L 2560 1549 
L 2560 2688 
L 3136 2688 
L 3136 0 
L 2560 0 
z
" transform="scale(0.015625)"/>
       </defs>
       <use xlink:href="#JetBrainsMono-Regular-30"/>
       <use xlink:href="#JetBrainsMono-Regular-34" transform="translate(59.999985 0)"/>
       <use xlink:href="#JetBrainsMono-Regular-2f" transform="translate(119.999969 0)"/>
       <use xlink:href="#JetBrainsMono-Regular-30" transform="translate(179.999954 0)"/>
       <use xlink:href="#JetBrainsMono-Regular-31" transform="translate(239.999939 0)"/>
      </g>
     </g>
    </g>
    <g id="xtick_3">
     <g id="line2d_5">
      <path d="M 149.671385 324.72 
L 149.671385 55.44 
" clip-path="url(#p8cbc6beebb)" style="fill: none; stroke-dasharray: 2.22,0.96; stroke-dashoffset: 0; stroke: #e2d5f5; stroke-opacity: 0.7; stroke-width: 0.6"/>
     </g>
     <g id="line2d_6">
      <g>
       <use xlink:href="#mc1afc4d157" x="149.671385" y="324.72" style="fill: #9b8bb8; stroke: #9b8bb8; stroke-width: 0.8"/>
      </g>
     </g>
     <g id="text_3">
      <!-- 04/02 -->
      <g style="fill: #9b8bb8" transform="translate(138.131004 353.301793) rotate(-30) scale(0.1 -0.1)">
       <defs>
        <path id="JetBrainsMono-Regular-32" d="M 550 0 
L 550 531 
L 2106 2195 
Q 2445 2554 2585 2835 
Q 2726 3117 2726 3386 
Q 2726 3770 2505 3997 
Q 2285 4224 1907 4224 
Q 1517 4224 1289 3990 
Q 1062 3757 1062 3360 
L 486 3360 
Q 506 3994 890 4365 
Q 1274 4736 1907 4736 
Q 2554 4736 2934 4371 
Q 3315 4006 3315 3379 
Q 3315 3046 3132 2675 
Q 2950 2304 2509 1843 
L 1248 525 
L 3373 525 
L 3373 0 
L 550 0 
z
" transform="scale(0.015625)"/>
       </defs>
       <use xlink:href="#JetBrainsMono-Regular-30"/>
       <use xlink:href="#JetBrainsMono-Regular-34" transform="translate(59.999985 0)"/>
       <use xlink:href="#JetBrainsMono-Regular-2f" transform="translate(119.999969 0)"/>
       <use xlink:href="#JetBrainsMono-Regular-30" transform="translate(179.999954 0)"/>
       <use xlink:href="#JetBrainsMono-Regular-32" transform="translate(239.999939 0)"/>
      </g>
     </g>
    </g>
    <g id="xtick_4">
     <g id="line2d_7">
      <path d="M 187.421538 324.72 
L 187.421538 55.44 
" clip-path="url(#p8cbc6beebb)" style="fill: none; stroke-dasharray: 2.22,0.96; stroke-dashoffset: 0; stroke: #e2d5f5; stroke-opacity: 0.7; stroke-width: 0.6"/>
     </g>
     <g id="line2d_8">
      <g>
       <use xlink:href="#mc1afc4d157" x="187.421538" y="324.72" style="fill: #9b8bb8; stroke: #9b8bb8; stroke-width: 0.8"/>
      </g>
     </g>
     <g id="text_4">
      <!-- 04/03 -->
      <g style="fill: #9b8bb8" transform="translate(175.881157 353.301793) rotate(-30) scale(0.1 -0.1)">
       <use xlink:href="#JetBrainsMono-Regular-30"/>
       <use xlink:href="#JetBrainsMono-Regular-34" transform="translate(59.999985 0)"/>
       <use xlink:href="#JetBrainsMono-Regular-2f" transform="translate(119.999969 0)"/>
       <use xlink:href="#JetBrainsMono-Regular-30" transform="translate(179.999954 0)"/>
       <use xlink:href="#JetBrainsMono-Regular-33" transform="translate(239.999939 0)"/>
      </g>
     </g>
    </g>
    <g id="xtick_5">
     <g id="line2d_9">
      <path d="M 225.171692 324.72 
L 225.171692 55.44 
" clip-path="url(#p8cbc6beebb)" style="fill: none; stroke-dasharray: 2.22,0.96; stroke-dashoffset: 0; stroke: #e2d5f5; stroke-opacity: 0.7; stroke-width: 0.6"/>
     </g>
     <g id="line2d_10">
      <g>
       <use xlink:href="#mc1afc4d157" x="225.171692" y="324.72" style="fill: #9b8bb8; stroke: #9b8bb8; stroke-width: 0.8"/>
      </g>
     </g>
     <g id="text_5">
      <!-- 04/04 -->
      <g style="fill: #9b8bb8" transform="translate(213.631311 353.301793) rotate(-30) scale(0.1 -0.1)">
       <use xlink:href="#JetBrainsMono-Regular-30"/>
       <use xlink:href="#JetBrainsMono-Regular-34" transform="translate(59.999985 0)"/>
       <use xlink:href="#JetBrainsMono-Regular-2f" transform="translate(119.999969 0)"/>
       <use xlink:href="#JetBrainsMono-Regular-30" transform="translate(179.999954 0)"/>
       <use xlink:href="#JetBrainsMono-Regular-34" transform="translate(239.999939 0)"/>
      </g>
     </g>
    </g>
    <g id="xtick_6">
     <g id="line2d_11">
      <path d="M 262.921846 324.72 
L 262.921846 55.44 
" clip-path="url(#p8cbc6beebb)" style="fill: none; stroke-dasharray: 2.22,0.96; stroke-dashoffset: 0; stroke: #e2d5f5; stroke-opacity: 0.7; stroke-width: 0.6"/>
     </g>
     <g id="line2d_12">
      <g>
       <use xlink:href="#mc1afc4d157" x="262.921846" y="324.72" style="fill: #9b8bb8; stroke: #9b8bb8; stroke-width: 0.8"/>
      </g>
     </g>
     <g id="text_6">
      <!-- 04/05 -->
      <g style="fill: #9b8bb8" transform="translate(251.381465 353.301793) rotate(-30) scale(0.1 -0.1)">
       <defs>
        <path id="JetBrainsMono-Regular-35" d="M 1882 -64 
Q 1235 -64 857 297 
Q 480 659 480 1280 
L 1056 1280 
Q 1056 896 1280 672 
Q 1504 448 1888 448 
Q 2272 448 2496 672 
Q 2720 896 2720 1280 
L 2720 1568 
Q 2720 1952 2502 2176 
Q 2285 2400 1914 2400 
L 640 2400 
L 640 4672 
L 3130 4672 
L 3130 4147 
L 1178 4147 
L 1190 2925 
L 1946 2925 
Q 2592 2925 2944 2569 
Q 3296 2214 3296 1568 
L 3296 1280 
Q 3296 659 2915 297 
Q 2534 -64 1882 -64 
z
" transform="scale(0.015625)"/>
       </defs>
       <use xlink:href="#JetBrainsMono-Regular-30"/>
       <use xlink:href="#JetBrainsMono-Regular-34" transform="translate(59.999985 0)"/>
       <use xlink:href="#JetBrainsMono-Regular-2f" transform="translate(119.999969 0)"/>
       <use xlink:href="#JetBrainsMono-Regular-30" transform="translate(179.999954 0)"/>
       <use xlink:href="#JetBrainsMono-Regular-35" transform="translate(239.999939 0)"/>
      </g>
     </g>
    </g>
    <g id="xtick_7">
     <g id="line2d_13">
      <path d="M 300.672 324.72 
L 300.672 55.44 
" clip-path="url(#p8cbc6beebb)" style="fill: none; stroke-dasharray: 2.22,0.96; stroke-dashoffset: 0; stroke: #e2d5f5; stroke-opacity: 0.7; stroke-width: 0.6"/>
     </g>
     <g id="line2d_14">
      <g>
       <use xlink:href="#mc1afc4d157" x="300.672" y="324.72" style="fill: #9b8bb8; stroke: #9b8bb8; stroke-width: 0.8"/>
      </g>
     </g>
     <g id="text_7">
      <!-- 04/06 -->
      <g style="fill: #9b8bb8" transform="translate(289.131619 353.301793) rotate(-30) scale(0.1 -0.1)">
       <defs>
        <path id="JetBrainsMono-Regular-36" d="M 1926 -64 
Q 1478 -64 1136 125 
Q 794 314 602 650 
Q 410 986 410 1427 
Q 410 1734 525 2057 
Q 640 2381 838 2733 
L 1920 4672 
L 2560 4672 
L 1408 2669 
L 1427 2656 
Q 1510 2765 1676 2822 
Q 1843 2880 2042 2880 
Q 2458 2880 2768 2697 
Q 3078 2515 3254 2195 
Q 3430 1875 3430 1453 
Q 3430 1005 3238 662 
Q 3046 320 2710 128 
Q 2374 -64 1926 -64 
z
M 1920 448 
Q 2336 448 2595 723 
Q 2854 998 2854 1440 
Q 2854 1882 2595 2157 
Q 2336 2432 1920 2432 
Q 1504 2432 1245 2157 
Q 986 1882 986 1440 
Q 986 998 1245 723 
Q 1504 448 1920 448 
z
" transform="scale(0.015625)"/>
       </defs>
       <use xlink:href="#JetBrainsMono-Regular-30"/>
       <use xlink:href="#JetBrainsMono-Regular-34" transform="translate(59.999985 0)"/>
       <use xlink:href="#JetBrainsMono-Regular-2f" transform="translate(119.999969 0)"/>
       <use xlink:href="#JetBrainsMono-Regular-30" transform="translate(179.999954 0)"/>
       <use xlink:href="#JetBrainsMono-Regular-36" transform="translate(239.999939 0)"/>
      </g>
     </g>
    </g>
    <g id="xtick_8">
     <g id="line2d_15">
      <path d="M 338.422154 324.72 
L 338.422154 55.44 
" clip-path="url(#p8cbc6beebb)" style="fill: none; stroke-dasharray: 2.22,0.96; stroke-dashoffset: 0; stroke: #e2d5f5; stroke-opacity: 0.7; stroke-width: 0.6"/>
     </g>
     <g id="line2d_16">
      <g>
       <use xlink:href="#mc1afc4d157" x="338.422154" y="324.72" style="fill: #9b8bb8; stroke: #9b8bb8; stroke-width: 0.8"/>
      </g>
     </g>
     <g id="text_8">
      <!-- 04/07 -->
      <g style="fill: #9b8bb8" transform="translate(326.881773 353.301793) rotate(-30) scale(0.1 -0.1)">
       <defs>
        <path id="JetBrainsMono-Regular-37" d="M 1216 0 
L 2880 4147 
L 1101 4147 
L 1101 3392 
L 525 3392 
L 525 4672 
L 3494 4672 
L 3494 4134 
L 1843 0 
L 1216 0 
z
" transform="scale(0.015625)"/>
       </defs>
       <use xlink:href="#JetBrainsMono-Regular-30"/>
       <use xlink:href="#JetBrainsMono-Regular-34" transform="translate(59.999985 0)"/>
       <use xlink:href="#JetBrainsMono-Regular-2f" transform="translate(119.999969 0)"/>
       <use xlink:href="#JetBrainsMono-Regular-30" transform="translate(179.999954 0)"/>
       <use xlink:href="#JetBrainsMono-Regular-37" transform="translate(239.999939 0)"/>
      </g>
     </g>
    </g>
    <g id="xtick_9">
     <g id="line2d_17">
      <path d="M 376.172308 324.72 
L 376.172308 55.44 
" clip-path="url(#p8cbc6beebb)" style="fill: none; stroke-dasharray: 2.22,0.96; stroke-dashoffset: 0; stroke: #e2d5f5; stroke-opacity: 0.7; stroke-width: 0.6"/>
     </g>
     <g id="line2d_18">
      <g>
       <use xlink:href="#mc1afc4d157" x="376.172308" y="324.72" style="fill: #9b8bb8; stroke: #9b8bb8; stroke-width: 0.8"/>
      </g>
     </g>
     <g id="text_9">
      <!-- 04/08 -->
      <g style="fill: #9b8bb8" transform="translate(364.631927 353.301793) rotate(-30) scale(0.1 -0.1)">
       <defs>
        <path id="JetBrainsMono-Regular-38" d="M 1920 -64 
Q 1478 -64 1139 109 
Q 800 282 611 592 
Q 422 902 422 1306 
Q 422 1747 675 2067 
Q 928 2387 1350 2458 
L 1350 2477 
Q 986 2560 768 2845 
Q 550 3130 550 3501 
Q 550 3866 723 4144 
Q 896 4422 1206 4579 
Q 1517 4736 1920 4736 
Q 2330 4736 2637 4579 
Q 2944 4422 3117 4144 
Q 3290 3866 3290 3501 
Q 3290 3130 3072 2845 
Q 2854 2560 2490 2477 
L 2490 2458 
Q 2912 2387 3165 2067 
Q 3418 1747 3418 1306 
Q 3418 902 3229 592 
Q 3040 282 2704 109 
Q 2368 -64 1920 -64 
z
M 1920 2701 
Q 2278 2701 2496 2912 
Q 2714 3123 2714 3462 
Q 2714 3802 2496 4013 
Q 2278 4224 1920 4224 
Q 1568 4224 1347 4013 
Q 1126 3802 1126 3462 
Q 1126 3123 1347 2912 
Q 1568 2701 1920 2701 
z
M 1920 454 
Q 2330 454 2586 694 
Q 2842 934 2842 1318 
Q 2842 1709 2586 1949 
Q 2330 2189 1920 2189 
Q 1510 2189 1254 1949 
Q 998 1709 998 1318 
Q 998 934 1254 694 
Q 1510 454 1920 454 
z
" transform="scale(0.015625)"/>
       </defs>
       <use xlink:href="#JetBrainsMono-Regular-30"/>
       <use xlink:href="#JetBrainsMono-Regular-34" transform="translate(59.999985 0)"/>
       <use xlink:href="#JetBrainsMono-Regular-2f" transform="translate(119.999969 0)"/>
       <use xlink:href="#JetBrainsMono-Regular-30" transform="translate(179.999954 0)"/>
       <use xlink:href="#JetBrainsMono-Regular-38" transform="translate(239.999939 0)"/>
      </g>
     </g>
    </g>
    <g id="xtick_10">
     <g id="line2d_19">
      <path d="M 413.922462 324.72 
L 413.922462 55.44 
" clip-path="url(#p8cbc6beebb)" style="fill: none; stroke-dasharray: 2.22,0.96; stroke-dashoffset: 0; stroke: #e2d5f5; stroke-opacity: 0.7; stroke-width: 0.6"/>
     </g>
     <g id="line2d_20">
      <g>
       <use xlink:href="#mc1afc4d157" x="413.922462" y="324.72" style="fill: #9b8bb8; stroke: #9b8bb8; stroke-width: 0.8"/>
      </g>
     </g>
     <g id="text_10">
      <!-- 04/09 -->
      <g style="fill: #9b8bb8" transform="translate(402.38208 353.301793) rotate(-30) scale(0.1 -0.1)">
       <defs>
        <path id="JetBrainsMono-Regular-39" d="M 1248 0 
L 2400 2003 
L 2381 2016 
Q 2317 1914 2144 1853 
Q 1971 1792 1766 1792 
Q 1363 1792 1059 1974 
Q 755 2157 582 2477 
Q 410 2797 410 3219 
Q 410 3674 602 4013 
Q 794 4352 1133 4544 
Q 1472 4736 1914 4736 
Q 2368 4736 2707 4547 
Q 3046 4358 3238 4022 
Q 3430 3686 3430 3245 
Q 3430 2938 3315 2614 
Q 3200 2291 3002 1939 
L 1920 0 
L 1248 0 
z
M 1920 2240 
Q 2336 2240 2595 2515 
Q 2854 2790 2854 3232 
Q 2854 3674 2595 3949 
Q 2336 4224 1920 4224 
Q 1504 4224 1245 3949 
Q 986 3674 986 3232 
Q 986 2790 1245 2515 
Q 1504 2240 1920 2240 
z
" transform="scale(0.015625)"/>
       </defs>
       <use xlink:href="#JetBrainsMono-Regular-30"/>
       <use xlink:href="#JetBrainsMono-Regular-34" transform="translate(59.999985 0)"/>
       <use xlink:href="#JetBrainsMono-Regular-2f" transform="translate(119.999969 0)"/>
       <use xlink:href="#JetBrainsMono-Regular-30" transform="translate(179.999954 0)"/>
       <use xlink:href="#JetBrainsMono-Regular-39" transform="translate(239.999939 0)"/>
      </g>
     </g>
    </g>
    <g id="xtick_11">
     <g id="line2d_21">
      <path d="M 451.672615 324.72 
L 451.672615 55.44 
" clip-path="url(#p8cbc6beebb)" style="fill: none; stroke-dasharray: 2.22,0.96; stroke-dashoffset: 0; stroke: #e2d5f5; stroke-opacity: 0.7; stroke-width: 0.6"/>
     </g>
     <g id="line2d_22">
      <g>
       <use xlink:href="#mc1afc4d157" x="451.672615" y="324.72" style="fill: #9b8bb8; stroke: #9b8bb8; stroke-width: 0.8"/>
      </g>
     </g>
     <g id="text_11">
      <!-- 04/10 -->
      <g style="fill: #9b8bb8" transform="translate(440.132234 353.301793) rotate(-30) scale(0.1 -0.1)">
       <use xlink:href="#JetBrainsMono-Regular-30"/>
       <use xlink:href="#JetBrainsMono-Regular-34" transform="translate(59.999985 0)"/>
       <use xlink:href="#JetBrainsMono-Regular-2f" transform="translate(119.999969 0)"/>
       <use xlink:href="#JetBrainsMono-Regular-31" transform="translate(179.999954 0)"/>
       <use xlink:href="#JetBrainsMono-Regular-30" transform="translate(239.999939 0)"/>
      </g>
     </g>
    </g>
    <g id="xtick_12">
     <g id="line2d_23">
      <path d="M 489.422769 324.72 
L 489.422769 55.44 
" clip-path="url(#p8cbc6beebb)" style="fill: none; stroke-dasharray: 2.22,0.96; stroke-dashoffset: 0; stroke: #e2d5f5; stroke-opacity: 0.7; stroke-width: 0.6"/>
     </g>
     <g id="line2d_24">
      <g>
       <use xlink:href="#mc1afc4d157" x="489.422769" y="324.72" style="fill: #9b8bb8; stroke: #9b8bb8; stroke-width: 0.8"/>
      </g>
     </g>
     <g id="text_12">
      <!-- 04/11 -->
      <g style="fill: #9b8bb8" transform="translate(477.882388 353.301793) rotate(-30) scale(0.1 -0.1)">
       <use xlink:href="#JetBrainsMono-Regular-30"/>
       <use xlink:href="#JetBrainsMono-Regular-34" transform="translate(59.999985 0)"/>
       <use xlink:href="#JetBrainsMono-Regular-2f" transform="translate(119.999969 0)"/>
       <use xlink:href="#JetBrainsMono-Regular-31" transform="translate(179.999954 0)"/>
       <use xlink:href="#JetBrainsMono-Regular-31" transform="translate(239.999939 0)"/>
      </g>
     </g>
    </g>
    <g id="xtick_13">
     <g id="line2d_25">
      <path d="M 527.172923 324.72 
L 527.172923 55.44 
" clip-path="url(#p8cbc6beebb)" style="fill: none; stroke-dasharray: 2.22,0.96; stroke-dashoffset: 0; stroke: #e2d5f5; stroke-opacity: 0.7; stroke-width: 0.6"/>
     </g>
     <g id="line2d_26">
      <g>
       <use xlink:href="#mc1afc4d157" x="527.172923" y="324.72" style="fill: #9b8bb8; stroke: #9b8bb8; stroke-width: 0.8"/>
      </g>
     </g>
     <g id="text_13">
      <!-- 04/12 -->
      <g style="fill: #9b8bb8" transform="translate(515.632542 353.301793) rotate(-30) scale(0.1 -0.1)">
       <use xlink:href="#JetBrainsMono-Regular-30"/>
       <use xlink:href="#JetBrainsMono-Regular-34" transform="translate(59.999985 0)"/>
       <use xlink:href="#JetBrainsMono-Regular-2f" transform="translate(119.999969 0)"/>
       <use xlink:href="#JetBrainsMono-Regular-31" transform="translate(179.999954 0)"/>
       <use xlink:href="#JetBrainsMono-Regular-32" transform="translate(239.999939 0)"/>
      </g>
     </g>
    </g>
   </g>
   <g id="matplotlib.axis_2">
    <g id="ytick_1">
     <g id="line2d_27">
      <path d="M 55.296 306.723008 
L 546.048 306.723008 
" clip-path="url(#p8cbc6beebb)" style="fill: none; stroke-dasharray: 2.22,0.96; stroke-dashoffset: 0; stroke: #e2d5f5; stroke-opacity: 0.7; stroke-width: 0.6"/>
     </g>
     <g id="line2d_28">
      <defs>
       <path id="mf2ac8f2dfd" d="M 0 0 
L -3.5 0 
" style="stroke: #9b8bb8; stroke-width: 0.8"/>
      </defs>
      <g>
       <use xlink:href="#mf2ac8f2dfd" x="55.296" y="306.723008" style="fill: #9b8bb8; stroke: #9b8bb8; stroke-width: 0.8"/>
      </g>
     </g>
     <g id="text_14">
      <!-- 200 -->
      <g style="fill: #9b8bb8" transform="translate(30.296 310.373008) scale(0.1 -0.1)">
       <use xlink:href="#JetBrainsMono-Regular-32"/>
       <use xlink:href="#JetBrainsMono-Regular-30" transform="translate(59.999985 0)"/>
       <use xlink:href="#JetBrainsMono-Regular-30" transform="translate(119.999969 0)"/>
      </g>
     </g>
    </g>
    <g id="ytick_2">
     <g id="line2d_29">
      <path d="M 55.296 261.730526 
L 546.048 261.730526 
" clip-path="url(#p8cbc6beebb)" style="fill: none; stroke-dasharray: 2.22,0.96; stroke-dashoffset: 0; stroke: #e2d5f5; stroke-opacity: 0.7; stroke-width: 0.6"/>
     </g>
     <g id="line2d_30">
      <g>
       <use xlink:href="#mf2ac8f2dfd" x="55.296" y="261.730526" style="fill: #9b8bb8; stroke: #9b8bb8; stroke-width: 0.8"/>
      </g>
     </g>
     <g id="text_15">
      <!-- 210 -->
      <g style="fill: #9b8bb8" transform="translate(30.296 265.380526) scale(0.1 -0.1)">
       <use xlink:href="#JetBrainsMono-Regular-32"/>
       <use xlink:href="#JetBrainsMono-Regular-31" transform="translate(59.999985 0)"/>
       <use xlink:href="#JetBrainsMono-Regular-30" transform="translate(119.999969 0)"/>
      </g>
     </g>
    </g>
    <g id="ytick_3">
     <g id="line2d_31">
      <path d="M 55.296 216.738045 
L 546.048 216.738045 
" clip-path="url(#p8cbc6beebb)" style="fill: none; stroke-dasharray: 2.22,0.96; stroke-dashoffset: 0; stroke: #e2d5f5; stroke-opacity: 0.7; stroke-width: 0.6"/>
     </g>
     <g id="line2d_32">
      <g>
       <use xlink:href="#mf2ac8f2dfd" x="55.296" y="216.738045" style="fill: #9b8bb8; stroke: #9b8bb8; stroke-width: 0.8"/>
      </g>
     </g>
     <g id="text_16">
      <!-- 220 -->
      <g style="fill: #9b8bb8" transform="translate(30.296 220.388045) scale(0.1 -0.1)">
       <use xlink:href="#JetBrainsMono-Regular-32"/>
       <use xlink:href="#JetBrainsMono-Regular-32" transform="translate(59.999985 0)"/>
       <use xlink:href="#JetBrainsMono-Regular-30" transform="translate(119.999969 0)"/>
      </g>
     </g>
    </g>
    <g id="ytick_4">
     <g id="line2d_33">
      <path d="M 55.296 171.745564 
L 546.048 171.745564 
" clip-path="url(#p8cbc6beebb)" style="fill: none; stroke-dasharray: 2.22,0.96; stroke-dashoffset: 0; stroke: #e2d5f5; stroke-opacity: 0.7; stroke-width: 0.6"/>
     </g>
     <g id="line2d_34">
      <g>
       <use xlink:href="#mf2ac8f2dfd" x="55.296" y="171.745564" style="fill: #9b8bb8; stroke: #9b8bb8; stroke-width: 0.8"/>
      </g>
     </g>
     <g id="text_17">
      <!-- 230 -->
      <g style="fill: #9b8bb8" transform="translate(30.296 175.395564) scale(0.1 -0.1)">
       <use xlink:href="#JetBrainsMono-Regular-32"/>
       <use xlink:href="#JetBrainsMono-Regular-33" transform="translate(59.999985 0)"/>
       <use xlink:href="#JetBrainsMono-Regular-30" transform="translate(119.999969 0)"/>
      </g>
     </g>
    </g>
    <g id="ytick_5">
     <g id="line2d_35">
      <path d="M 55.296 126.753083 
L 546.048 126.753083 
" clip-path="url(#p8cbc6beebb)" style="fill: none; stroke-dasharray: 2.22,0.96; stroke-dashoffset: 0; stroke: #e2d5f5; stroke-opacity: 0.7; stroke-width: 0.6"/>
     </g>
     <g id="line2d_36">
      <g>
       <use xlink:href="#mf2ac8f2dfd" x="55.296" y="126.753083" style="fill: #9b8bb8; stroke: #9b8bb8; stroke-width: 0.8"/>
      </g>
     </g>
     <g id="text_18">
      <!-- 240 -->
      <g style="fill: #9b8bb8" transform="translate(30.296 130.403083) scale(0.1 -0.1)">
       <use xlink:href="#JetBrainsMono-Regular-32"/>
       <use xlink:href="#JetBrainsMono-Regular-34" transform="translate(59.999985 0)"/>
       <use xlink:href="#JetBrainsMono-Regular-30" transform="translate(119.999969 0)"/>
      </g>
     </g>
    </g>
    <g id="ytick_6">
     <g id="line2d_37">
      <path d="M 55.296 81.760602 
L 546.048 81.760602 
" clip-path="url(#p8cbc6beebb)" style="fill: none; stroke-dasharray: 2.22,0.96; stroke-dashoffset: 0; stroke: #e2d5f5; stroke-opacity: 0.7; stroke-width: 0.6"/>
     </g>
     <g id="line2d_38">
      <g>
       <use xlink:href="#mf2ac8f2dfd" x="55.296" y="81.760602" style="fill: #9b8bb8; stroke: #9b8bb8; stroke-width: 0.8"/>
      </g>
     </g>
     <g id="text_19">
      <!-- 250 -->
      <g style="fill: #9b8bb8" transform="translate(30.296 85.410602) scale(0.1 -0.1)">
       <use xlink:href="#JetBrainsMono-Regular-32"/>
       <use xlink:href="#JetBrainsMono-Regular-35" transform="translate(59.999985 0)"/>
       <use xlink:href="#JetBrainsMono-Regular-30" transform="translate(119.999969 0)"/>
      </g>
     </g>
    </g>
    <g id="text_20">
     <!-- Rating -->
     <g style="fill: #9b8bb8" transform="translate(24.496 208.08) rotate(-90) scale(0.1 -0.1)">
      <defs>
       <path id="JetBrainsMono-Regular-52" d="M 595 0 
L 595 4672 
L 2035 4672 
Q 2451 4672 2764 4502 
Q 3078 4333 3251 4032 
Q 3424 3731 3424 3328 
Q 3424 2854 3181 2515 
Q 2938 2176 2534 2042 
L 3488 0 
L 2854 0 
L 1939 1984 
L 1165 1984 
L 1165 0 
L 595 0 
z
M 1165 2502 
L 2035 2502 
Q 2394 2502 2611 2729 
Q 2829 2957 2829 3328 
Q 2829 3706 2611 3930 
Q 2394 4154 2035 4154 
L 1165 4154 
L 1165 2502 
z
" transform="scale(0.015625)"/>
       <path id="JetBrainsMono-Regular-61" d="M 1613 -64 
Q 1069 -64 749 240 
Q 429 544 429 1037 
Q 429 1363 576 1606 
Q 723 1850 985 1987 
Q 1248 2125 1587 2125 
L 2675 2125 
L 2675 2400 
Q 2675 3085 1926 3085 
Q 1594 3085 1389 2963 
Q 1184 2842 1171 2624 
L 595 2624 
Q 627 3040 982 3312 
Q 1338 3584 1926 3584 
Q 2566 3584 2908 3277 
Q 3251 2970 3251 2419 
L 3251 0 
L 2682 0 
L 2682 640 
L 2669 640 
Q 2618 314 2342 125 
Q 2067 -64 1613 -64 
z
M 1754 422 
Q 2176 422 2425 627 
Q 2675 832 2675 1184 
L 2675 1677 
L 1651 1677 
Q 1370 1677 1194 1507 
Q 1018 1338 1018 1056 
Q 1018 762 1213 592 
Q 1408 422 1754 422 
z
" transform="scale(0.015625)"/>
       <path id="JetBrainsMono-Regular-74" d="M 2272 0 
Q 1837 0 1574 253 
Q 1312 506 1312 928 
L 1312 2995 
L 301 2995 
L 301 3520 
L 1312 3520 
L 1312 4512 
L 1888 4512 
L 1888 3520 
L 3328 3520 
L 3328 2995 
L 1888 2995 
L 1888 928 
Q 1888 749 1993 637 
Q 2099 525 2272 525 
L 3296 525 
L 3296 0 
L 2272 0 
z
" transform="scale(0.015625)"/>
       <path id="JetBrainsMono-Regular-69" d="M 544 0 
L 544 525 
L 1792 525 
L 1792 2995 
L 672 2995 
L 672 3520 
L 2368 3520 
L 2368 525 
L 3552 525 
L 3552 0 
L 544 0 
z
M 2016 4154 
Q 1805 4154 1683 4262 
Q 1562 4371 1562 4557 
Q 1562 4749 1683 4861 
Q 1805 4973 2016 4973 
Q 2227 4973 2348 4861 
Q 2470 4749 2470 4557 
Q 2470 4371 2348 4262 
Q 2227 4154 2016 4154 
z
" transform="scale(0.015625)"/>
       <path id="JetBrainsMono-Regular-6e" d="M 589 0 
L 589 3520 
L 1165 3520 
L 1165 2848 
L 1171 2848 
Q 1216 3200 1459 3392 
Q 1702 3584 2106 3584 
Q 2637 3584 2950 3257 
Q 3264 2931 3264 2368 
L 3264 0 
L 2688 0 
L 2688 2266 
Q 2688 2669 2486 2883 
Q 2285 3098 1939 3098 
Q 1581 3098 1373 2874 
Q 1165 2650 1165 2240 
L 1165 0 
L 589 0 
z
" transform="scale(0.015625)"/>
       <path id="JetBrainsMono-Regular-67" d="M 1030 -1152 
L 1030 -627 
L 2022 -627 
Q 2323 -627 2496 -457 
Q 2669 -288 2669 0 
L 2669 320 
L 2682 896 
L 2662 896 
Q 2611 582 2361 412 
Q 2112 243 1734 243 
Q 1190 243 876 588 
Q 563 934 563 1536 
L 563 2278 
Q 563 2880 876 3232 
Q 1190 3584 1734 3584 
Q 2112 3584 2361 3405 
Q 2611 3226 2662 2912 
L 2675 2912 
L 2675 3520 
L 3245 3520 
L 3245 0 
Q 3245 -531 2915 -841 
Q 2586 -1152 2016 -1152 
L 1030 -1152 
z
M 1907 723 
Q 2266 723 2470 947 
Q 2675 1171 2675 1568 
L 2675 2240 
Q 2675 2637 2470 2861 
Q 2266 3085 1907 3085 
Q 1542 3085 1340 2873 
Q 1139 2662 1139 2304 
L 1139 1504 
Q 1139 1146 1340 934 
Q 1542 723 1907 723 
z
" transform="scale(0.015625)"/>
      </defs>
      <use xlink:href="#JetBrainsMono-Regular-52"/>
      <use xlink:href="#JetBrainsMono-Regular-61" transform="translate(59.999985 0)"/>
      <use xlink:href="#JetBrainsMono-Regular-74" transform="translate(119.999969 0)"/>
      <use xlink:href="#JetBrainsMono-Regular-69" transform="translate(179.999954 0)"/>
      <use xlink:href="#JetBrainsMono-Regular-6e" transform="translate(239.999939 0)"/>
      <use xlink:href="#JetBrainsMono-Regular-67" transform="translate(299.999924 0)"/>
     </g>
    </g>
   </g>
   <g id="patch_3">
    <path d="M 55.296 324.72 
L 55.296 55.44 
" style="fill: none; stroke: #d8c8ef; stroke-width: 0.8; stroke-linejoin: miter; stroke-linecap: square"/>
   </g>
   <g id="patch_4">
    <path d="M 55.296 324.72 
L 546.048 324.72 
" style="fill: none; stroke: #d8c8ef; stroke-width: 0.8; stroke-linejoin: miter; stroke-linecap: square"/>
   </g>
   <g id="FillBetweenPolyCollection_1">
    <defs>
     <path id="mb7558aeb17" d="M 74.171077 -71.28 
L 74.171077 -93.776241 
L 75.686133 -95.242467 
L 77.20119 -96.528543 
L 78.716246 -97.642 
L 80.231302 -98.590372 
L 81.746359 -99.38119 
L 83.261415 -100.021987 
L 84.776471 -100.520296 
L 86.291528 -100.883649 
L 87.806584 -101.119578 
L 89.32164 -101.235616 
L 90.836697 -101.239295 
L 92.351753 -101.138147 
L 93.866809 -100.939706 
L 95.381866 -100.651503 
L 96.896922 -100.281072 
L 98.411978 -99.835943 
L 99.927035 -99.323651 
L 101.442091 -98.751726 
L 102.957147 -98.127703 
L 104.472204 -97.459112 
L 105.98726 -96.753487 
L 107.502316 -96.01836 
L 109.017373 -95.261263 
L 110.532429 -94.489729 
L 112.047485 -93.711291 
L 113.562542 -92.93348 
L 115.077598 -92.163829 
L 116.592654 -91.409871 
L 118.107711 -90.679138 
L 119.622767 -89.979162 
L 121.137824 -89.317476 
L 122.65288 -88.701613 
L 124.167936 -88.139104 
L 125.682993 -87.637482 
L 127.198049 -87.20428 
L 128.713105 -86.84703 
L 130.228162 -86.573265 
L 131.743218 -86.390516 
L 133.258274 -86.306317 
L 134.773331 -86.328199 
L 136.288387 -86.463696 
L 137.803443 -86.720339 
L 139.3185 -87.105661 
L 140.833556 -87.627195 
L 142.348612 -88.292473 
L 143.863669 -89.109027 
L 145.378725 -90.08439 
L 146.893781 -91.226094 
L 148.408838 -92.541671 
L 149.923894 -94.038638 
L 151.43895 -95.718621 
L 152.954007 -97.568815 
L 154.469063 -99.574244 
L 155.984119 -101.719933 
L 157.499176 -103.990906 
L 159.014232 -106.372188 
L 160.529288 -108.848801 
L 162.044345 -111.405771 
L 163.559401 -114.028122 
L 165.074457 -116.700878 
L 166.589514 -119.409062 
L 168.10457 -122.1377 
L 169.619626 -124.871816 
L 171.134683 -127.596433 
L 172.649739 -130.296575 
L 174.164795 -132.957268 
L 175.679852 -135.563535 
L 177.194908 -138.100401 
L 178.709964 -140.552889 
L 180.225021 -142.906023 
L 181.740077 -145.144829 
L 183.255134 -147.25433 
L 184.77019 -149.21955 
L 186.285246 -151.025514 
L 187.800303 -152.657312 
L 189.315359 -154.108058 
L 190.830415 -155.386451 
L 192.345472 -156.502978 
L 193.860528 -157.468128 
L 195.375584 -158.292389 
L 196.890641 -158.98625 
L 198.405697 -159.560198 
L 199.920753 -160.024722 
L 201.43581 -160.390311 
L 202.950866 -160.667453 
L 204.465922 -160.866635 
L 205.980979 -160.998347 
L 207.496035 -161.073076 
L 209.011091 -161.101311 
L 210.526148 -161.09354 
L 212.041204 -161.060252 
L 213.55626 -161.011934 
L 215.071317 -160.959076 
L 216.586373 -160.912165 
L 218.101429 -160.88169 
L 219.616486 -160.878138 
L 221.131542 -160.911999 
L 222.646598 -160.993761 
L 224.161655 -161.133911 
L 225.676711 -161.342847 
L 227.191767 -161.625493 
L 228.706824 -161.978287 
L 230.22188 -162.396937 
L 231.736936 -162.877153 
L 233.251993 -163.414645 
L 234.767049 -164.00512 
L 236.282105 -164.644288 
L 237.797162 -165.327857 
L 239.312218 -166.051538 
L 240.827275 -166.811038 
L 242.342331 -167.602066 
L 243.857387 -168.420333 
L 245.372444 -169.261545 
L 246.8875 -170.121414 
L 248.402556 -170.995646 
L 249.917613 -171.879953 
L 251.432669 -172.770041 
L 252.947725 -173.661621 
L 254.462782 -174.550401 
L 255.977838 -175.43209 
L 257.492894 -176.302398 
L 259.007951 -177.157033 
L 260.523007 -177.991704 
L 262.038063 -178.80212 
L 263.55312 -179.584059 
L 265.068176 -180.335739 
L 266.583232 -181.05841 
L 268.098289 -181.753514 
L 269.613345 -182.422491 
L 271.128401 -183.066781 
L 272.643458 -183.687825 
L 274.158514 -184.287063 
L 275.67357 -184.865937 
L 277.188627 -185.425886 
L 278.703683 -185.968351 
L 280.218739 -186.494773 
L 281.733796 -187.006592 
L 283.248852 -187.505249 
L 284.763908 -187.992185 
L 286.278965 -188.468839 
L 287.794021 -188.936652 
L 289.309077 -189.397066 
L 290.824134 -189.85152 
L 292.33919 -190.301456 
L 293.854246 -190.748313 
L 295.369303 -191.193532 
L 296.884359 -191.638554 
L 298.399415 -192.084819 
L 299.914472 -192.533768 
L 301.429528 -192.98689 
L 302.944585 -193.446787 
L 304.459641 -193.917175 
L 305.974697 -194.401818 
L 307.489754 -194.904481 
L 309.00481 -195.428926 
L 310.519866 -195.97892 
L 312.034923 -196.558224 
L 313.549979 -197.170605 
L 315.065035 -197.819825 
L 316.580092 -198.50965 
L 318.095148 -199.243843 
L 319.610204 -200.026168 
L 321.125261 -200.86039 
L 322.640317 -201.750272 
L 324.155373 -202.699579 
L 325.67043 -203.712075 
L 327.185486 -204.791524 
L 328.700542 -205.941691 
L 330.215599 -207.166338 
L 331.730655 -208.469232 
L 333.245711 -209.854134 
L 334.760768 -211.324811 
L 336.275824 -212.885026 
L 337.79088 -214.538543 
L 339.305937 -216.288686 
L 340.820993 -218.131753 
L 342.336049 -220.058386 
L 343.851106 -222.059069 
L 345.366162 -224.124285 
L 346.881218 -226.244517 
L 348.396275 -228.41025 
L 349.911331 -230.611965 
L 351.426387 -232.840146 
L 352.941444 -235.085276 
L 354.4565 -237.33784 
L 355.971556 -239.58832 
L 357.486613 -241.827199 
L 359.001669 -244.04496 
L 360.516725 -246.232088 
L 362.031782 -248.379065 
L 363.546838 -250.476374 
L 365.061895 -252.514499 
L 366.576951 -254.483923 
L 368.092007 -256.37513 
L 369.607064 -258.178602 
L 371.12212 -259.884824 
L 372.637176 -261.484277 
L 374.152233 -262.967446 
L 375.667289 -264.324814 
L 377.182345 -265.547735 
L 378.697402 -266.637693 
L 380.212458 -267.602703 
L 381.727514 -268.450894 
L 383.242571 -269.19039 
L 384.757627 -269.829318 
L 386.272683 -270.375804 
L 387.78774 -270.837974 
L 389.302796 -271.223955 
L 390.817852 -271.541872 
L 392.332909 -271.799851 
L 393.847965 -272.00602 
L 395.363021 -272.168503 
L 396.878078 -272.295427 
L 398.393134 -272.394918 
L 399.90819 -272.475103 
L 401.423247 -272.544107 
L 402.938303 -272.610057 
L 404.453359 -272.681078 
L 405.968416 -272.765297 
L 407.483472 -272.870841 
L 408.998528 -273.005834 
L 410.513585 -273.178404 
L 412.028641 -273.396676 
L 413.543697 -273.668777 
L 415.058754 -274.001995 
L 416.57381 -274.396324 
L 418.088866 -274.848004 
L 419.603923 -275.353243 
L 421.118979 -275.908249 
L 422.634036 -276.509231 
L 424.149092 -277.152397 
L 425.664148 -277.833955 
L 427.179205 -278.550113 
L 428.694261 -279.297081 
L 430.209317 -280.071065 
L 431.724374 -280.868275 
L 433.23943 -281.684918 
L 434.754486 -282.517203 
L 436.269543 -283.361339 
L 437.784599 -284.213533 
L 439.299655 -285.069993 
L 440.814712 -285.926929 
L 442.329768 -286.780548 
L 443.844824 -287.627059 
L 445.359881 -288.462669 
L 446.874937 -289.283588 
L 448.389993 -290.086023 
L 449.90505 -290.866183 
L 451.420106 -291.620276 
L 452.935162 -292.34505 
L 454.450219 -293.040843 
L 455.965275 -293.709454 
L 457.480331 -294.352691 
L 458.995388 -294.972357 
L 460.510444 -295.570259 
L 462.0255 -296.148202 
L 463.540557 -296.707991 
L 465.055613 -297.251432 
L 466.570669 -297.78033 
L 468.085726 -298.29649 
L 469.600782 -298.801719 
L 471.115838 -299.29782 
L 472.630895 -299.786601 
L 474.145951 -300.269866 
L 475.661007 -300.74942 
L 477.176064 -301.227069 
L 478.69112 -301.704619 
L 480.206176 -302.183874 
L 481.721233 -302.66664 
L 483.236289 -303.154723 
L 484.751346 -303.649928 
L 486.266402 -304.154061 
L 487.781458 -304.668926 
L 489.296515 -305.196329 
L 490.811571 -305.738076 
L 492.326627 -306.295973 
L 493.841684 -306.871823 
L 495.35674 -307.467433 
L 496.871796 -308.084609 
L 498.386853 -308.725155 
L 499.901909 -309.390877 
L 501.416965 -310.083581 
L 502.932022 -310.805071 
L 504.447078 -311.557154 
L 505.962134 -312.341635 
L 507.477191 -313.160318 
L 508.992247 -314.01501 
L 510.507303 -314.907516 
L 512.02236 -315.839641 
L 513.537416 -316.813191 
L 515.052472 -317.829971 
L 516.567529 -318.891786 
L 518.082585 -320.000443 
L 519.597641 -321.157745 
L 521.112698 -322.3655 
L 522.627754 -323.625511 
L 524.14281 -324.939585 
L 525.657867 -326.309528 
L 527.172923 -327.737143 
L 527.172923 -71.28 
L 527.172923 -71.28 
L 525.657867 -71.28 
L 524.14281 -71.28 
L 522.627754 -71.28 
L 521.112698 -71.28 
L 519.597641 -71.28 
L 518.082585 -71.28 
L 516.567529 -71.28 
L 515.052472 -71.28 
L 513.537416 -71.28 
L 512.02236 -71.28 
L 510.507303 -71.28 
L 508.992247 -71.28 
L 507.477191 -71.28 
L 505.962134 -71.28 
L 504.447078 -71.28 
L 502.932022 -71.28 
L 501.416965 -71.28 
L 499.901909 -71.28 
L 498.386853 -71.28 
L 496.871796 -71.28 
L 495.35674 -71.28 
L 493.841684 -71.28 
L 492.326627 -71.28 
L 490.811571 -71.28 
L 489.296515 -71.28 
L 487.781458 -71.28 
L 486.266402 -71.28 
L 484.751346 -71.28 
L 483.236289 -71.28 
L 481.721233 -71.28 
L 480.206176 -71.28 
L 478.69112 -71.28 
L 477.176064 -71.28 
L 475.661007 -71.28 
L 474.145951 -71.28 
L 472.630895 -71.28 
L 471.115838 -71.28 
L 469.600782 -71.28 
L 468.085726 -71.28 
L 466.570669 -71.28 
L 465.055613 -71.28 
L 463.540557 -71.28 
L 462.0255 -71.28 
L 460.510444 -71.28 
L 458.995388 -71.28 
L 457.480331 -71.28 
L 455.965275 -71.28 
L 454.450219 -71.28 
L 452.935162 -71.28 
L 451.420106 -71.28 
L 449.90505 -71.28 
L 448.389993 -71.28 
L 446.874937 -71.28 
L 445.359881 -71.28 
L 443.844824 -71.28 
L 442.329768 -71.28 
L 440.814712 -71.28 
L 439.299655 -71.28 
L 437.784599 -71.28 
L 436.269543 -71.28 
L 434.754486 -71.28 
L 433.23943 -71.28 
L 431.724374 -71.28 
L 430.209317 -71.28 
L 428.694261 -71.28 
L 427.179205 -71.28 
L 425.664148 -71.28 
L 424.149092 -71.28 
L 422.634036 -71.28 
L 421.118979 -71.28 
L 419.603923 -71.28 
L 418.088866 -71.28 
L 416.57381 -71.28 
L 415.058754 -71.28 
L 413.543697 -71.28 
L 412.028641 -71.28 
L 410.513585 -71.28 
L 408.998528 -71.28 
L 407.483472 -71.28 
L 405.968416 -71.28 
L 404.453359 -71.28 
L 402.938303 -71.28 
L 401.423247 -71.28 
L 399.90819 -71.28 
L 398.393134 -71.28 
L 396.878078 -71.28 
L 395.363021 -71.28 
L 393.847965 -71.28 
L 392.332909 -71.28 
L 390.817852 -71.28 
L 389.302796 -71.28 
L 387.78774 -71.28 
L 386.272683 -71.28 
L 384.757627 -71.28 
L 383.242571 -71.28 
L 381.727514 -71.28 
L 380.212458 -71.28 
L 378.697402 -71.28 
L 377.182345 -71.28 
L 375.667289 -71.28 
L 374.152233 -71.28 
L 372.637176 -71.28 
L 371.12212 -71.28 
L 369.607064 -71.28 
L 368.092007 -71.28 
L 366.576951 -71.28 
L 365.061895 -71.28 
L 363.546838 -71.28 
L 362.031782 -71.28 
L 360.516725 -71.28 
L 359.001669 -71.28 
L 357.486613 -71.28 
L 355.971556 -71.28 
L 354.4565 -71.28 
L 352.941444 -71.28 
L 351.426387 -71.28 
L 349.911331 -71.28 
L 348.396275 -71.28 
L 346.881218 -71.28 
L 345.366162 -71.28 
L 343.851106 -71.28 
L 342.336049 -71.28 
L 340.820993 -71.28 
L 339.305937 -71.28 
L 337.79088 -71.28 
L 336.275824 -71.28 
L 334.760768 -71.28 
L 333.245711 -71.28 
L 331.730655 -71.28 
L 330.215599 -71.28 
L 328.700542 -71.28 
L 327.185486 -71.28 
L 325.67043 -71.28 
L 324.155373 -71.28 
L 322.640317 -71.28 
L 321.125261 -71.28 
L 319.610204 -71.28 
L 318.095148 -71.28 
L 316.580092 -71.28 
L 315.065035 -71.28 
L 313.549979 -71.28 
L 312.034923 -71.28 
L 310.519866 -71.28 
L 309.00481 -71.28 
L 307.489754 -71.28 
L 305.974697 -71.28 
L 304.459641 -71.28 
L 302.944585 -71.28 
L 301.429528 -71.28 
L 299.914472 -71.28 
L 298.399415 -71.28 
L 296.884359 -71.28 
L 295.369303 -71.28 
L 293.854246 -71.28 
L 292.33919 -71.28 
L 290.824134 -71.28 
L 289.309077 -71.28 
L 287.794021 -71.28 
L 286.278965 -71.28 
L 284.763908 -71.28 
L 283.248852 -71.28 
L 281.733796 -71.28 
L 280.218739 -71.28 
L 278.703683 -71.28 
L 277.188627 -71.28 
L 275.67357 -71.28 
L 274.158514 -71.28 
L 272.643458 -71.28 
L 271.128401 -71.28 
L 269.613345 -71.28 
L 268.098289 -71.28 
L 266.583232 -71.28 
L 265.068176 -71.28 
L 263.55312 -71.28 
L 262.038063 -71.28 
L 260.523007 -71.28 
L 259.007951 -71.28 
L 257.492894 -71.28 
L 255.977838 -71.28 
L 254.462782 -71.28 
L 252.947725 -71.28 
L 251.432669 -71.28 
L 249.917613 -71.28 
L 248.402556 -71.28 
L 246.8875 -71.28 
L 245.372444 -71.28 
L 243.857387 -71.28 
L 242.342331 -71.28 
L 240.827275 -71.28 
L 239.312218 -71.28 
L 237.797162 -71.28 
L 236.282105 -71.28 
L 234.767049 -71.28 
L 233.251993 -71.28 
L 231.736936 -71.28 
L 230.22188 -71.28 
L 228.706824 -71.28 
L 227.191767 -71.28 
L 225.676711 -71.28 
L 224.161655 -71.28 
L 222.646598 -71.28 
L 221.131542 -71.28 
L 219.616486 -71.28 
L 218.101429 -71.28 
L 216.586373 -71.28 
L 215.071317 -71.28 
L 213.55626 -71.28 
L 212.041204 -71.28 
L 210.526148 -71.28 
L 209.011091 -71.28 
L 207.496035 -71.28 
L 205.980979 -71.28 
L 204.465922 -71.28 
L 202.950866 -71.28 
L 201.43581 -71.28 
L 199.920753 -71.28 
L 198.405697 -71.28 
L 196.890641 -71.28 
L 195.375584 -71.28 
L 193.860528 -71.28 
L 192.345472 -71.28 
L 190.830415 -71.28 
L 189.315359 -71.28 
L 187.800303 -71.28 
L 186.285246 -71.28 
L 184.77019 -71.28 
L 183.255134 -71.28 
L 181.740077 -71.28 
L 180.225021 -71.28 
L 178.709964 -71.28 
L 177.194908 -71.28 
L 175.679852 -71.28 
L 174.164795 -71.28 
L 172.649739 -71.28 
L 171.134683 -71.28 
L 169.619626 -71.28 
L 168.10457 -71.28 
L 166.589514 -71.28 
L 165.074457 -71.28 
L 163.559401 -71.28 
L 162.044345 -71.28 
L 160.529288 -71.28 
L 159.014232 -71.28 
L 157.499176 -71.28 
L 155.984119 -71.28 
L 154.469063 -71.28 
L 152.954007 -71.28 
L 151.43895 -71.28 
L 149.923894 -71.28 
L 148.408838 -71.28 
L 146.893781 -71.28 
L 145.378725 -71.28 
L 143.863669 -71.28 
L 142.348612 -71.28 
L 140.833556 -71.28 
L 139.3185 -71.28 
L 137.803443 -71.28 
L 136.288387 -71.28 
L 134.773331 -71.28 
L 133.258274 -71.28 
L 131.743218 -71.28 
L 130.228162 -71.28 
L 128.713105 -71.28 
L 127.198049 -71.28 
L 125.682993 -71.28 
L 124.167936 -71.28 
L 122.65288 -71.28 
L 121.137824 -71.28 
L 119.622767 -71.28 
L 118.107711 -71.28 
L 116.592654 -71.28 
L 115.077598 -71.28 
L 113.562542 -71.28 
L 112.047485 -71.28 
L 110.532429 -71.28 
L 109.017373 -71.28 
L 107.502316 -71.28 
L 105.98726 -71.28 
L 104.472204 -71.28 
L 102.957147 -71.28 
L 101.442091 -71.28 
L 99.927035 -71.28 
L 98.411978 -71.28 
L 96.896922 -71.28 
L 95.381866 -71.28 
L 93.866809 -71.28 
L 92.351753 -71.28 
L 90.836697 -71.28 
L 89.32164 -71.28 
L 87.806584 -71.28 
L 86.291528 -71.28 
L 84.776471 -71.28 
L 83.261415 -71.28 
L 81.746359 -71.28 
L 80.231302 -71.28 
L 78.716246 -71.28 
L 77.20119 -71.28 
L 75.686133 -71.28 
L 74.171077 -71.28 
z
" style="stroke: #8b5cf6; stroke-opacity: 0.12"/>
    </defs>
    <g clip-path="url(#p8cbc6beebb)">
     <use xlink:href="#mb7558aeb17" x="0" y="396" style="fill: #8b5cf6; fill-opacity: 0.12; stroke: #8b5cf6; stroke-opacity: 0.12"/>
    </g>
   </g>
   <g id="text_21">
    <!-- 253 -->
    <g style="fill: #8b5cf6" transform="translate(530.172923 65.262857) scale(0.12 -0.12)">
     <defs>
      <path id="JetBrainsMono-Bold-32" d="M 474 0 
L 474 723 
L 2157 2445 
Q 2566 2874 2566 3315 
Q 2566 3629 2384 3824 
Q 2202 4019 1894 4019 
Q 1581 4019 1392 3817 
Q 1203 3616 1203 3283 
L 403 3283 
Q 403 3718 595 4044 
Q 787 4371 1126 4553 
Q 1466 4736 1914 4736 
Q 2355 4736 2688 4563 
Q 3021 4390 3203 4080 
Q 3386 3770 3386 3354 
Q 3386 2995 3216 2636 
Q 3046 2278 2656 1894 
L 1478 723 
L 3443 723 
L 3443 0 
L 474 0 
z
" transform="scale(0.015625)"/>
      <path id="JetBrainsMono-Bold-35" d="M 1894 -64 
Q 1210 -64 803 297 
Q 397 659 397 1280 
L 1197 1280 
Q 1197 986 1385 810 
Q 1574 634 1901 634 
Q 2227 634 2409 810 
Q 2592 986 2592 1299 
L 2592 1606 
Q 2592 1920 2413 2096 
Q 2234 2272 1907 2272 
L 557 2272 
L 557 4672 
L 3219 4672 
L 3219 3949 
L 1312 3949 
L 1318 2976 
L 1946 2976 
Q 2637 2976 3014 2617 
Q 3392 2259 3392 1606 
L 3392 1299 
Q 3392 666 2992 301 
Q 2592 -64 1894 -64 
z
" transform="scale(0.015625)"/>
      <path id="JetBrainsMono-Bold-33" d="M 1875 -64 
Q 1184 -64 781 297 
Q 378 659 378 1280 
L 1184 1280 
Q 1184 986 1369 810 
Q 1555 634 1882 634 
Q 2202 634 2387 810 
Q 2573 986 2573 1280 
L 2573 1632 
Q 2573 1946 2390 2122 
Q 2208 2298 1882 2298 
L 1293 2298 
L 1293 2938 
L 2368 3968 
L 544 3968 
L 544 4672 
L 3245 4672 
L 3245 3994 
L 2170 2963 
Q 2733 2886 3056 2537 
Q 3379 2189 3379 1632 
L 3379 1280 
Q 3379 659 2972 297 
Q 2566 -64 1875 -64 
z
" transform="scale(0.015625)"/>
     </defs>
     <use xlink:href="#JetBrainsMono-Bold-32"/>
     <use xlink:href="#JetBrainsMono-Bold-35" transform="translate(59.999985 0)"/>
     <use xlink:href="#JetBrainsMono-Bold-33" transform="translate(119.999969 0)"/>
    </g>
   </g>
   <g id="text_22">
    <!-- Rating History -->
    <g style="fill: #8b5cf6" transform="translate(55.296 50.44) scale(0.17 -0.17)">
     <defs>
      <path id="JetBrainsMono-Bold-52" d="M 493 0 
L 493 4672 
L 1965 4672 
Q 2432 4672 2774 4499 
Q 3117 4326 3309 4016 
Q 3501 3706 3501 3283 
Q 3501 2816 3270 2467 
Q 3040 2118 2650 1971 
L 3565 0 
L 2688 0 
L 1869 1856 
L 1286 1856 
L 1286 0 
L 493 0 
z
M 1286 2560 
L 1965 2560 
Q 2304 2560 2496 2745 
Q 2688 2931 2688 3258 
Q 2688 3584 2493 3776 
Q 2298 3968 1965 3968 
L 1286 3968 
L 1286 2560 
z
" transform="scale(0.015625)"/>
      <path id="JetBrainsMono-Bold-61" d="M 1530 -64 
Q 992 -64 681 240 
Q 371 544 371 1037 
Q 371 1549 723 1853 
Q 1075 2157 1690 2157 
L 2547 2157 
L 2547 2406 
Q 2547 2938 1926 2938 
Q 1645 2938 1478 2829 
Q 1312 2720 1293 2522 
L 525 2522 
Q 550 2995 924 3289 
Q 1299 3584 1933 3584 
Q 2605 3584 2976 3270 
Q 3347 2957 3347 2387 
L 3347 0 
L 2566 0 
L 2566 659 
Q 2522 320 2246 128 
Q 1971 -64 1530 -64 
z
M 1786 589 
Q 2138 589 2342 761 
Q 2547 934 2547 1222 
L 2547 1638 
L 1728 1638 
Q 1466 1638 1312 1491 
Q 1158 1344 1158 1114 
Q 1158 877 1321 733 
Q 1485 589 1786 589 
z
" transform="scale(0.015625)"/>
      <path id="JetBrainsMono-Bold-74" d="M 2272 0 
Q 1779 0 1488 285 
Q 1197 570 1197 1056 
L 1197 2797 
L 224 2797 
L 224 3520 
L 1197 3520 
L 1197 4512 
L 2003 4512 
L 2003 3520 
L 3405 3520 
L 3405 2797 
L 2003 2797 
L 2003 1075 
Q 2003 922 2089 822 
Q 2176 723 2330 723 
L 3373 723 
L 3373 0 
L 2272 0 
z
" transform="scale(0.015625)"/>
      <path id="JetBrainsMono-Bold-69" d="M 486 0 
L 486 723 
L 1690 723 
L 1690 2797 
L 614 2797 
L 614 3520 
L 2490 3520 
L 2490 723 
L 3571 723 
L 3571 0 
L 486 0 
z
M 2032 4109 
Q 1789 4109 1648 4233 
Q 1507 4358 1507 4570 
Q 1507 4781 1648 4905 
Q 1789 5030 2032 5030 
Q 2275 5030 2416 4905 
Q 2557 4781 2557 4570 
Q 2557 4358 2416 4233 
Q 2275 4109 2032 4109 
z
" transform="scale(0.015625)"/>
      <path id="JetBrainsMono-Bold-6e" d="M 493 0 
L 493 3520 
L 1274 3520 
L 1274 2861 
Q 1338 3194 1587 3389 
Q 1837 3584 2221 3584 
Q 2739 3584 3049 3238 
Q 3360 2893 3360 2310 
L 3360 0 
L 2560 0 
L 2560 2214 
Q 2560 2541 2390 2717 
Q 2221 2893 1933 2893 
Q 1632 2893 1462 2713 
Q 1293 2534 1293 2202 
L 1293 0 
L 493 0 
z
" transform="scale(0.015625)"/>
      <path id="JetBrainsMono-Bold-67" d="M 973 -1152 
L 973 -486 
L 1965 -486 
Q 2246 -486 2400 -336 
Q 2554 -186 2554 70 
L 2554 282 
L 2566 832 
Q 2458 538 2218 374 
Q 1978 211 1632 211 
Q 1094 211 777 572 
Q 461 934 461 1555 
L 461 2240 
Q 461 2854 777 3219 
Q 1094 3584 1632 3584 
Q 1978 3584 2218 3421 
Q 2458 3258 2566 2957 
L 2566 3520 
L 3347 3520 
L 3347 51 
Q 3347 -506 2979 -829 
Q 2611 -1152 1978 -1152 
L 973 -1152 
z
M 1901 896 
Q 2208 896 2377 1078 
Q 2547 1261 2547 1587 
L 2547 2202 
Q 2547 2528 2377 2710 
Q 2208 2893 1901 2893 
Q 1594 2893 1427 2717 
Q 1261 2541 1261 2227 
L 1261 1562 
Q 1261 1248 1427 1072 
Q 1594 896 1901 896 
z
" transform="scale(0.015625)"/>
      <path id="JetBrainsMono-Bold-20" transform="scale(0.015625)"/>
      <path id="JetBrainsMono-Bold-48" d="M 493 0 
L 493 4672 
L 1293 4672 
L 1293 2778 
L 2547 2778 
L 2547 4672 
L 3347 4672 
L 3347 0 
L 2547 0 
L 2547 2054 
L 1293 2054 
L 1293 0 
L 493 0 
z
" transform="scale(0.015625)"/>
      <path id="JetBrainsMono-Bold-73" d="M 1773 -58 
Q 1146 -58 781 227 
Q 416 512 416 998 
L 1203 998 
Q 1203 794 1353 685 
Q 1504 576 1773 576 
L 2054 576 
Q 2342 576 2499 685 
Q 2656 794 2656 998 
Q 2656 1190 2547 1283 
Q 2438 1376 2214 1408 
L 1338 1523 
Q 915 1581 688 1849 
Q 461 2118 461 2547 
Q 461 3046 793 3312 
Q 1126 3578 1754 3578 
L 2048 3578 
Q 2637 3578 2995 3309 
Q 3354 3040 3366 2592 
L 2573 2592 
Q 2566 2758 2425 2857 
Q 2285 2957 2048 2957 
L 1754 2957 
Q 1498 2957 1363 2851 
Q 1229 2746 1229 2566 
Q 1229 2406 1328 2329 
Q 1427 2253 1619 2234 
L 2445 2118 
Q 2931 2061 3177 1776 
Q 3424 1491 3424 1011 
Q 3424 499 3075 220 
Q 2726 -58 2054 -58 
L 1773 -58 
z
" transform="scale(0.015625)"/>
      <path id="JetBrainsMono-Bold-6f" d="M 1920 -58 
Q 1242 -58 845 323 
Q 448 704 448 1350 
L 448 2170 
Q 448 2822 845 3200 
Q 1242 3578 1920 3578 
Q 2598 3578 2995 3200 
Q 3392 2822 3392 2170 
L 3392 1350 
Q 3392 704 2995 323 
Q 2598 -58 1920 -58 
z
M 1920 640 
Q 2240 640 2416 816 
Q 2592 992 2592 1325 
L 2592 2195 
Q 2592 2528 2416 2704 
Q 2240 2880 1920 2880 
Q 1600 2880 1424 2704 
Q 1248 2528 1248 2195 
L 1248 1325 
Q 1248 992 1424 816 
Q 1600 640 1920 640 
z
" transform="scale(0.015625)"/>
      <path id="JetBrainsMono-Bold-72" d="M 621 0 
L 621 3520 
L 1402 3520 
L 1402 2835 
Q 1466 3181 1718 3382 
Q 1971 3584 2374 3584 
Q 2912 3584 3213 3238 
Q 3514 2893 3514 2272 
L 3514 1939 
L 2714 1939 
L 2714 2234 
Q 2714 2554 2547 2723 
Q 2381 2893 2074 2893 
Q 1754 2893 1587 2701 
Q 1421 2509 1421 2157 
L 1421 0 
L 621 0 
z
" transform="scale(0.015625)"/>
      <path id="JetBrainsMono-Bold-79" d="M 1056 -1152 
L 1555 192 
L 230 3520 
L 1075 3520 
L 1754 1722 
Q 1811 1562 1868 1373 
Q 1926 1184 1952 1024 
Q 1971 1184 2025 1373 
Q 2080 1562 2138 1722 
L 2765 3520 
L 3610 3520 
L 1894 -1152 
L 1056 -1152 
z
" transform="scale(0.015625)"/>
     </defs>
     <use xlink:href="#JetBrainsMono-Bold-52"/>
     <use xlink:href="#JetBrainsMono-Bold-61" transform="translate(59.999985 0)"/>
     <use xlink:href="#JetBrainsMono-Bold-74" transform="translate(119.999969 0)"/>
     <use xlink:href="#JetBrainsMono-Bold-69" transform="translate(179.999954 0)"/>
     <use xlink:href="#JetBrainsMono-Bold-6e" transform="translate(239.999939 0)"/>
     <use xlink:href="#JetBrainsMono-Bold-67" transform="translate(299.999924 0)"/>
     <use xlink:href="#JetBrainsMono-Bold-20" transform="translate(359.999908 0)"/>
     <use xlink:href="#JetBrainsMono-Bold-48" transform="translate(419.999893 0)"/>
     <use xlink:href="#JetBrainsMono-Bold-69" transform="translate(479.999878 0)"/>
     <use xlink:href="#JetBrainsMono-Bold-73" transform="translate(539.999863 0)"/>
     <use xlink:href="#JetBrainsMono-Bold-74" transform="translate(599.999847 0)"/>
     <use xlink:href="#JetBrainsMono-Bold-6f" transform="translate(659.999832 0)"/>
     <use xlink:href="#JetBrainsMono-Bold-72" transform="translate(719.999817 0)"/>
     <use xlink:href="#JetBrainsMono-Bold-79" transform="translate(779.999802 0)"/>
    </g>
   </g>
   <g id="line2d_39">
    <path d="M 74.171077 302.223759 
L 75.686133 300.757533 
L 77.20119 299.471457 
L 78.716246 298.358 
L 80.231302 297.409628 
L 81.746359 296.61881 
L 83.261415 295.978013 
L 84.776471 295.479704 
L 86.291528 295.116351 
L 87.806584 294.880422 
L 89.32164 294.764384 
L 92.351753 294.861853 
L 95.381866 295.348497 
L 98.411978 296.164057 
L 101.442091 297.248274 
L 104.472204 298.540888 
L 109.017373 300.738737 
L 119.622767 306.020838 
L 122.65288 307.298387 
L 125.682993 308.362518 
L 128.713105 309.15297 
L 131.743218 309.609484 
L 134.773331 309.671801 
L 136.288387 309.536304 
L 137.803443 309.279661 
L 139.3185 308.894339 
L 140.833556 308.372805 
L 142.348612 307.707527 
L 143.863669 306.890973 
L 145.378725 305.91561 
L 146.893781 304.773906 
L 148.408838 303.458329 
L 149.923894 301.961362 
L 151.43895 300.281379 
L 154.469063 296.425756 
L 157.499176 292.009094 
L 160.529288 287.151199 
L 165.074457 279.299122 
L 175.679852 260.436465 
L 178.709964 255.447111 
L 181.740077 250.855171 
L 184.77019 246.78045 
L 186.285246 244.974486 
L 187.800303 243.342688 
L 189.315359 241.891942 
L 190.830415 240.613549 
L 192.345472 239.497022 
L 193.860528 238.531872 
L 195.375584 237.707611 
L 198.405697 236.439802 
L 201.43581 235.609689 
L 204.465922 235.133365 
L 207.496035 234.926924 
L 212.041204 234.939748 
L 219.616486 235.121862 
L 222.646598 235.006239 
L 225.676711 234.657153 
L 228.706824 234.021713 
L 231.736936 233.122847 
L 234.767049 231.99488 
L 237.797162 230.672143 
L 242.342331 228.397934 
L 248.402556 225.004354 
L 260.523007 218.008296 
L 265.068176 215.664261 
L 269.613345 213.577509 
L 274.158514 211.712937 
L 280.218739 209.505227 
L 287.794021 207.063348 
L 309.00481 200.571074 
L 313.549979 198.829395 
L 316.580092 197.49035 
L 319.610204 195.973832 
L 322.640317 194.249728 
L 325.67043 192.287925 
L 328.700542 190.058309 
L 331.730655 187.530768 
L 334.760768 184.675189 
L 337.79088 181.461457 
L 340.820993 177.868247 
L 343.851106 173.940931 
L 348.396275 167.58975 
L 355.971556 156.41168 
L 362.031782 147.620935 
L 366.576951 141.516077 
L 369.607064 137.821398 
L 372.637176 134.515723 
L 375.667289 131.675186 
L 378.697402 129.362307 
L 381.727514 127.549106 
L 384.757627 126.170682 
L 387.78774 125.162026 
L 390.817852 124.458128 
L 393.847965 123.99398 
L 398.393134 123.605082 
L 408.998528 122.994166 
L 412.028641 122.603324 
L 415.058754 121.998005 
L 418.088866 121.151996 
L 421.118979 120.091751 
L 424.149092 118.847603 
L 428.694261 116.702919 
L 434.754486 113.482797 
L 449.90505 105.133817 
L 454.450219 102.959157 
L 458.995388 101.027643 
L 465.055613 98.748568 
L 472.630895 96.213399 
L 489.296515 90.803671 
L 495.35674 88.532567 
L 499.901909 86.609123 
L 504.447078 84.442846 
L 508.992247 81.98499 
L 513.537416 79.186809 
L 516.567529 77.108214 
L 519.597641 74.842255 
L 522.627754 72.374489 
L 525.657867 69.690472 
L 527.172923 68.262857 
L 527.172923 68.262857 
" clip-path="url(#p8cbc6beebb)" style="fill: none; stroke: #8b5cf6; stroke-width: 1.2; stroke-linecap: round"/>
   </g>
   <g id="PathCollection_1">
    <defs>
     <path id="m2834f8d932" d="M 0 2.236068 
C 0.593012 2.236068 1.161816 2.000462 1.581139 1.581139 
C 2.000462 1.161816 2.236068 0.593012 2.236068 0 
C 2.236068 -0.593012 2.000462 -1.161816 1.581139 -1.581139 
C 1.161816 -2.000462 0.593012 -2.236068 0 -2.236068 
C -0.593012 -2.236068 -1.161816 -2.000462 -1.581139 -1.581139 
C -2.000462 -1.161816 -2.236068 -0.593012 -2.236068 0 
C -2.236068 0.593012 -2.000462 1.161816 -1.581139 1.581139 
C -1.161816 2.000462 -0.593012 2.236068 0 2.236068 
z
" style="stroke: #ffffff; stroke-width: 0.8"/>
    </defs>
    <g clip-path="url(#p8cbc6beebb)">
     <use xlink:href="#m2834f8d932" x="527.172923" y="68.262857" style="fill: #8b5cf6; stroke: #ffffff; stroke-width: 0.8"/>
    </g>
   </g>
  </g>
  <g id="axes_2">
   <g id="text_23">
    <!-- Rating -->
    <g style="fill: #9b8bb8" transform="translate(565.7472 48.312) scale(0.11 -0.11)">
     <use xlink:href="#JetBrainsMono-Regular-52"/>
     <use xlink:href="#JetBrainsMono-Regular-61" transform="translate(59.999985 0)"/>
     <use xlink:href="#JetBrainsMono-Regular-74" transform="translate(119.999969 0)"/>
     <use xlink:href="#JetBrainsMono-Regular-69" transform="translate(179.999954 0)"/>
     <use xlink:href="#JetBrainsMono-Regular-6e" transform="translate(239.999939 0)"/>
     <use xlink:href="#JetBrainsMono-Regular-67" transform="translate(299.999924 0)"/>
    </g>
   </g>
   <g id="text_24">
    <!-- 253 -->
    <g style="fill: #8b5cf6" transform="translate(565.7472 81.548) scale(0.26 -0.26)">
     <use xlink:href="#JetBrainsMono-Bold-32"/>
     <use xlink:href="#JetBrainsMono-Bold-35" transform="translate(59.999985 0)"/>
     <use xlink:href="#JetBrainsMono-Bold-33" transform="translate(119.999969 0)"/>
    </g>
   </g>
   <g id="text_25">
    <!-- Rank -->
    <g style="fill: #9b8bb8" transform="translate(565.7472 119.592) scale(0.11 -0.11)">
     <defs>
      <path id="JetBrainsMono-Regular-6b" d="M 621 0 
L 621 4672 
L 1197 4672 
L 1197 2067 
L 1869 2067 
L 2854 3520 
L 3514 3520 
L 2381 1843 
L 3578 0 
L 2906 0 
L 1882 1568 
L 1197 1568 
L 1197 0 
L 621 0 
z
" transform="scale(0.015625)"/>
     </defs>
     <use xlink:href="#JetBrainsMono-Regular-52"/>
     <use xlink:href="#JetBrainsMono-Regular-61" transform="translate(59.999985 0)"/>
     <use xlink:href="#JetBrainsMono-Regular-6e" transform="translate(119.999969 0)"/>
     <use xlink:href="#JetBrainsMono-Regular-6b" transform="translate(179.999954 0)"/>
    </g>
   </g>
   <g id="text_26">
    <!-- #120,145 -->
    <g style="fill: #8b5cf6" transform="translate(565.7472 148.104) scale(0.14 -0.14)">
     <defs>
      <path id="JetBrainsMono-Bold-23" d="M 493 0 
L 710 1216 
L 224 1216 
L 224 1760 
L 800 1760 
L 998 2912 
L 448 2912 
L 448 3456 
L 1094 3456 
L 1312 4672 
L 1875 4672 
L 1658 3456 
L 2566 3456 
L 2784 4672 
L 3347 4672 
L 3130 3456 
L 3616 3456 
L 3616 2912 
L 3034 2912 
L 2835 1760 
L 3392 1760 
L 3392 1216 
L 2739 1216 
L 2528 0 
L 1965 0 
L 2182 1216 
L 1267 1216 
L 1056 0 
L 493 0 
z
M 1363 1760 
L 2272 1760 
L 2470 2912 
L 1562 2912 
L 1363 1760 
z
" transform="scale(0.015625)"/>
      <path id="JetBrainsMono-Bold-31" d="M 538 0 
L 538 723 
L 1754 723 
L 1754 3898 
L 531 3002 
L 531 3898 
L 1606 4672 
L 2554 4672 
L 2554 723 
L 3533 723 
L 3533 0 
L 538 0 
z
" transform="scale(0.015625)"/>
      <path id="JetBrainsMono-Bold-30" d="M 1920 -64 
Q 1466 -64 1133 109 
Q 800 282 617 595 
Q 435 909 435 1331 
L 435 3341 
Q 435 3763 617 4076 
Q 800 4390 1133 4563 
Q 1466 4736 1920 4736 
Q 2374 4736 2707 4563 
Q 3040 4390 3222 4076 
Q 3405 3763 3405 3341 
L 3405 1331 
Q 3405 909 3222 595 
Q 3040 282 2707 109 
Q 2374 -64 1920 -64 
z
M 1920 627 
Q 2253 627 2451 819 
Q 2650 1011 2650 1331 
L 2650 3341 
Q 2650 3661 2454 3853 
Q 2259 4045 1920 4045 
Q 1581 4045 1385 3853 
Q 1190 3661 1190 3341 
L 1190 1331 
Q 1190 1011 1388 819 
Q 1587 627 1920 627 
z
M 1920 1952 
Q 1728 1952 1613 2057 
Q 1498 2163 1498 2355 
Q 1498 2547 1613 2646 
Q 1728 2746 1920 2746 
Q 2112 2746 2227 2646 
Q 2342 2547 2342 2355 
Q 2342 2163 2227 2057 
Q 2112 1952 1920 1952 
z
" transform="scale(0.015625)"/>
      <path id="JetBrainsMono-Bold-2c" d="M 1216 -1024 
L 1555 934 
L 2470 934 
L 1984 -1024 
L 1216 -1024 
z
" transform="scale(0.015625)"/>
      <path id="JetBrainsMono-Bold-34" d="M 2445 0 
L 2445 928 
L 378 928 
L 378 2086 
L 2106 4672 
L 2995 4672 
L 1146 1875 
L 1146 1632 
L 2445 1632 
L 2445 2688 
L 3251 2688 
L 3251 0 
L 2445 0 
z
" transform="scale(0.015625)"/>
     </defs>
     <use xlink:href="#JetBrainsMono-Bold-23"/>
     <use xlink:href="#JetBrainsMono-Bold-31" transform="translate(59.999985 0)"/>
     <use xlink:href="#JetBrainsMono-Bold-32" transform="translate(119.999969 0)"/>
     <use xlink:href="#JetBrainsMono-Bold-30" transform="translate(179.999954 0)"/>
     <use xlink:href="#JetBrainsMono-Bold-2c" transform="translate(239.999939 0)"/>
     <use xlink:href="#JetBrainsMono-Bold-31" transform="translate(299.999924 0)"/>
     <use xlink:href="#JetBrainsMono-Bold-34" transform="translate(359.999908 0)"/>
     <use xlink:href="#JetBrainsMono-Bold-35" transform="translate(419.999893 0)"/>
    </g>
   </g>
   <g id="text_27">
    <!-- ▲ +5 -->
    <g style="fill: #4caf50" transform="translate(565.7472 169.488) scale(0.11 -0.11)">
     <defs>
      <path id="JetBrainsMono-Bold-25b2" d="M -64 384 
L 1920 4288 
L 3904 384 
L -64 384 
z
" transform="scale(0.015625)"/>
      <path id="JetBrainsMono-Bold-2b" d="M 1523 589 
L 1523 1741 
L 378 1741 
L 378 2483 
L 1523 2483 
L 1523 3635 
L 2317 3635 
L 2317 2483 
L 3462 2483 
L 3462 1741 
L 2317 1741 
L 2317 589 
L 1523 589 
z
" transform="scale(0.015625)"/>
     </defs>
     <use xlink:href="#JetBrainsMono-Bold-25b2"/>
     <use xlink:href="#JetBrainsMono-Bold-20" transform="translate(59.999985 0)"/>
     <use xlink:href="#JetBrainsMono-Bold-2b" transform="translate(119.999969 0)"/>
     <use xlink:href="#JetBrainsMono-Bold-35" transform="translate(179.999954 0)"/>
    </g>
   </g>
  </g>
 </g>
 <defs>
  <clipPath id="p8cbc6beebb">
   <rect x="55.296" y="55.44" width="490.752" height="269.28"/>
  </clipPath>
 </defs>
</svg>
