<?xml version="1.0" encoding="utf-8" standalone="no"?>
<!DOCTYPE svg PUBLIC "-//W3C//DTD SVG 1.1//EN"
  "http://www.w3.org/Graphics/SVG/1.1/DTD/svg11.dtd">
<svg xmlns:xlink="http://www.w3.org/1999/xlink" width="691.2pt" height="396pt" viewBox="0 0 691.2 396" xmlns="http://www.w3.org/2000/svg" version="1.1">
 <metadata>
  <rdf:RDF xmlns:dc="http://purl.org/dc/elements/1.1/" xmlns:cc="http://creativecommons.org/ns#" xmlns:rdf="http://www.w3.org/1999/02/22-rdf-syntax-ns#">
   <cc:Work>
    <dc:type rdf:resource="http://purl.org/dc/dcmitype/StillImage"/>
    <dc:date>2026-04-19T15:27:36.464243</dc:date>
    <dc:format>image/svg+xml</dc:format>
    <dc:creator>
     <cc:Agent>
      <dc:title>Matplotlib v3.10.8, https://matplotlib.org/</dc:title>
     </cc:Agent>
    </dc:creator>
   </cc:Work>
  </rdf:RDF>
 </metadata>
 <defs>
  <style type="text/css">*{stroke-linejoin: round; stroke-linecap: butt}</style>
 </defs>
 <g id="figure_1">
  <g id="patch_1">
   <path d="M 0 396 
L 691.2 396 
L 691.2 0 
L 0 0 
L 0 396 
z
" style="fill: none"/>
  </g>
  <g id="axes_1">
   <g id="patch_2">
    <path d="M 55.296 324.72 
L 546.048 324.72 
L 546.048 55.44 
L 55.296 55.44 
L 55.296 324.72 
z
" style="fill: none"/>
   </g>
   <g id="matplotlib.axis_1">
    <g id="xtick_1">
     <g id="line2d_1">
      <path d="M 92.1024 324.72 
L 92.1024 55.44 
" clip-path="url(#p78ce5fcfe4)" style="fill: none; stroke-dasharray: 2.22,0.96; stroke-dashoffset: 0; stroke: #e2d5f5; stroke-opacity: 0.7; stroke-width: 0.6"/>
     </g>
     <g id="line2d_2">
      <defs>
       <path id="m2002e78e20" d="M 0 0 
L 0 3.5 
" style="stroke: #9b8bb8; stroke-width: 0.8"/>
      </defs>
      <g>
       <use xlink:href="#m2002e78e20" x="92.1024" y="324.72" style="fill: #9b8bb8; stroke: #9b8bb8; stroke-width: 0.8"/>
      </g>
     </g>
     <g id="text_1">
      <!-- 04/01 -->
      <g style="fill: #9b8bb8" transform="translate(80.562019 353.301793) rotate(-30) scale(0.1 -0.1)">
       <defs>
        <path id="JetBrainsMono-Regular-30" d="M 1920 -64 
Q 1274 -64 893 310 
Q 512 685 512 1312 
L 512 3360 
Q 512 3987 893 4361 
Q 1274 4736 1920 4736 
Q 2566 4736 2947 4361 
Q 3328 3987 3328 3360 
L 3328 1312 
Q 3328 896 3155 585 
Q 2982 275 2665 105 
Q 2349 -64 1920 -64 
z
M 1920 429 
Q 2304 429 2537 675 
Q 2771 922 2771 1312 
L 2771 3360 
Q 2771 3750 2537 3996 
Q 2304 4243 1920 4243 
Q 1536 4243 1302 3996 
Q 1069 3750 1069 3360 
L 1069 1312 
Q 1069 922 1302 675 
Q 1536 429 1920 429 
z
M 1920 1984 
Q 1747 1984 1641 2080 
Q 1536 2176 1536 2355 
Q 1536 2528 1641 2621 
Q 1747 2714 1920 2714 
Q 2093 2714 2198 2621 
Q 2304 2528 2304 2355 
Q 2304 2176 2198 2080 
Q 2093 1984 1920 1984 
z
" transform="scale(0.015625)"/>
        <path id="JetBrainsMono-Regular-34" d="M 2560 0 
L 2560 1024 
L 448 1024 
L 448 1926 
L 2150 4672 
L 2803 4672 
L 1024 1798 
L 1024 1549 
L 2560 1549 
L 2560 2688 
L 3136 2688 
L 3136 0 
L 2560 0 
z
" transform="scale(0.015625)"/>
        <path id="JetBrainsMono-Regular-2f" d="M 480 -704 
L 2752 5312 
L 3360 5312 
L 1088 -704 
L 480 -704 
z
" transform="scale(0.015625)"/>
        <path id="JetBrainsMono-Regular-31" d="M 576 0 
L 576 525 
L 1843 525 
L 1843 4173 
L 576 3226 
L 576 3885 
L 1632 4672 
L 2419 4672 
L 2419 525 
L 3456 525 
L 3456 0 
L 576 0 
z
" transform="scale(0.015625)"/>
       </defs>
       <use xlink:href="#JetBrainsMono-Regular-30"/>
       <use xlink:href="#JetBrainsMono-Regular-34" transform="translate(59.999985 0)"/>
       <use xlink:href="#JetBrainsMono-Regular-2f" transform="translate(119.999969 0)"/>
       <use xlink:href="#JetBrainsMono-Regular-30" transform="translate(179.999954 0)"/>
       <use xlink:href="#JetBrainsMono-Regular-31" transform="translate(239.999939 0)"/>
      </g>
     </g>
    </g>
    <g id="xtick_2">
     <g id="line2d_3">
      <path d="M 141.1776 324.72 
L 141.1776 55.44 
" clip-path="url(#p78ce5fcfe4)" style="fill: none; stroke-dasharray: 2.22,0.96; stroke-dashoffset: 0; stroke: #e2d5f5; stroke-opacity: 0.7; stroke-width: 0.6"/>
     </g>
     <g id="line2d_4">
      <g>
       <use xlink:href="#m2002e78e20" x="141.1776" y="324.72" style="fill: #9b8bb8; stroke: #9b8bb8; stroke-width: 0.8"/>
      </g>
     </g>
     <g id="text_2">
      <!-- 04/03 -->
      <g style="fill: #9b8bb8" transform="translate(129.637219 353.301793) rotate(-30) scale(0.1 -0.1)">
       <defs>
        <path id="JetBrainsMono-Regular-33" d="M 1850 -64 
Q 1203 -64 825 297 
Q 448 659 448 1280 
L 1024 1280 
Q 1024 896 1248 672 
Q 1472 448 1856 448 
Q 2240 448 2464 672 
Q 2688 896 2688 1280 
L 2688 1600 
Q 2688 1984 2464 2208 
Q 2240 2432 1856 2432 
L 1350 2432 
L 1350 2931 
L 2496 4147 
L 576 4147 
L 576 4672 
L 3149 4672 
L 3149 4134 
L 2022 2938 
Q 2598 2893 2931 2537 
Q 3264 2182 3264 1600 
L 3264 1280 
Q 3264 659 2883 297 
Q 2502 -64 1850 -64 
z
" transform="scale(0.015625)"/>
       </defs>
       <use xlink:href="#JetBrainsMono-Regular-30"/>
       <use xlink:href="#JetBrainsMono-Regular-34" transform="translate(59.999985 0)"/>
       <use xlink:href="#JetBrainsMono-Regular-2f" transform="translate(119.999969 0)"/>
       <use xlink:href="#JetBrainsMono-Regular-30" transform="translate(179.999954 0)"/>
       <use xlink:href="#JetBrainsMono-Regular-33" transform="translate(239.999939 0)"/>
      </g>
     </g>
    </g>
    <g id="xtick_3">
     <g id="line2d_5">
      <path d="M 190.2528 324.72 
L 190.2528 55.44 
" clip-path="url(#p78ce5fcfe4)" style="fill: none; stroke-dasharray: 2.22,0.96; stroke-dashoffset: 0; stroke: #e2d5f5; stroke-opacity: 0.7; stroke-width: 0.6"/>
     </g>
     <g id="line2d_6">
      <g>
       <use xlink:href="#m2002e78e20" x="190.2528" y="324.72" style="fill: #9b8bb8; stroke: #9b8bb8; stroke-width: 0.8"/>
      </g>
     </g>
     <g id="text_3">
      <!-- 04/05 -->
      <g style="fill: #9b8bb8" transform="translate(178.712419 353.301793) rotate(-30) scale(0.1 -0.1)">
       <defs>
        <path id="JetBrainsMono-Regular-35" d="M 1882 -64 
Q 1235 -64 857 297 
Q 480 659 480 1280 
L 1056 1280 
Q 1056 896 1280 672 
Q 1504 448 1888 448 
Q 2272 448 2496 672 
Q 2720 896 2720 1280 
L 2720 1568 
Q 2720 1952 2502 2176 
Q 2285 2400 1914 2400 
L 640 2400 
L 640 4672 
L 3130 4672 
L 3130 4147 
L 1178 4147 
L 1190 2925 
L 1946 2925 
Q 2592 2925 2944 2569 
Q 3296 2214 3296 1568 
L 3296 1280 
Q 3296 659 2915 297 
Q 2534 -64 1882 -64 
z
" transform="scale(0.015625)"/>
       </defs>
       <use xlink:href="#JetBrainsMono-Regular-30"/>
       <use xlink:href="#JetBrainsMono-Regular-34" transform="translate(59.999985 0)"/>
       <use xlink:href="#JetBrainsMono-Regular-2f" transform="translate(119.999969 0)"/>
       <use xlink:href="#JetBrainsMono-Regular-30" transform="translate(179.999954 0)"/>
       <use xlink:href="#JetBrainsMono-Regular-35" transform="translate(239.999939 0)"/>
      </g>
     </g>
    </g>
    <g id="xtick_4">
     <g id="line2d_7">
      <path d="M 239.328 324.72 
L 239.328 55.44 
" clip-path="url(#p78ce5fcfe4)" style="fill: none; stroke-dasharray: 2.22,0.96; stroke-dashoffset: 0; stroke: #e2d5f5; stroke-opacity: 0.7; stroke-width: 0.6"/>
     </g>
     <g id="line2d_8">
      <g>
       <use xlink:href="#m2002e78e20" x="239.328" y="324.72" style="fill: #9b8bb8; stroke: #9b8bb8; stroke-width: 0.8"/>
      </g>
     </g>
     <g id="text_4">
      <!-- 04/07 -->
      <g style="fill: #9b8bb8" transform="translate(227.787619 353.301793) rotate(-30) scale(0.1 -0.1)">
       <defs>
        <path id="JetBrainsMono-Regular-37" d="M 1216 0 
L 2880 4147 
L 1101 4147 
L 1101 3392 
L 525 3392 
L 525 4672 
L 3494 4672 
L 3494 4134 
L 1843 0 
L 1216 0 
z
" transform="scale(0.015625)"/>
       </defs>
       <use xlink:href="#JetBrainsMono-Regular-30"/>
       <use xlink:href="#JetBrainsMono-Regular-34" transform="translate(59.999985 0)"/>
       <use xlink:href="#JetBrainsMono-Regular-2f" transform="translate(119.999969 0)"/>
       <use xlink:href="#JetBrainsMono-Regular-30" transform="translate(179.999954 0)"/>
       <use xlink:href="#JetBrainsMono-Regular-37" transform="translate(239.999939 0)"/>
      </g>
     </g>
    </g>
    <g id="xtick_5">
     <g id="line2d_9">
      <path d="M 288.4032 324.72 
L 288.4032 55.44 
" clip-path="url(#p78ce5fcfe4)" style="fill: none; stroke-dasharray: 2.22,0.96; stroke-dashoffset: 0; stroke: #e2d5f5; stroke-opacity: 0.7; stroke-width: 0.6"/>
     </g>
     <g id="line2d_10">
      <g>
       <use xlink:href="#m2002e78e20" x="288.4032" y="324.72" style="fill: #9b8bb8; stroke: #9b8bb8; stroke-width: 0.8"/>
      </g>
     </g>
     <g id="text_5">
      <!-- 04/09 -->
      <g style="fill: #9b8bb8" transform="translate(276.862819 353.301793) rotate(-30) scale(0.1 -0.1)">
       <defs>
        <path id="JetBrainsMono-Regular-39" d="M 1248 0 
L 2400 2003 
L 2381 2016 
Q 2317 1914 2144 1853 
Q 1971 1792 1766 1792 
Q 1363 1792 1059 1974 
Q 755 2157 582 2477 
Q 410 2797 410 3219 
Q 410 3674 602 4013 
Q 794 4352 1133 4544 
Q 1472 4736 1914 4736 
Q 2368 4736 2707 4547 
Q 3046 4358 3238 4022 
Q 3430 3686 3430 3245 
Q 3430 2938 3315 2614 
Q 3200 2291 3002 1939 
L 1920 0 
L 1248 0 
z
M 1920 2240 
Q 2336 2240 2595 2515 
Q 2854 2790 2854 3232 
Q 2854 3674 2595 3949 
Q 2336 4224 1920 4224 
Q 1504 4224 1245 3949 
Q 986 3674 986 3232 
Q 986 2790 1245 2515 
Q 1504 2240 1920 2240 
z
" transform="scale(0.015625)"/>
       </defs>
       <use xlink:href="#JetBrainsMono-Regular-30"/>
       <use xlink:href="#JetBrainsMono-Regular-34" transform="translate(59.999985 0)"/>
       <use xlink:href="#JetBrainsMono-Regular-2f" transform="translate(119.999969 0)"/>
       <use xlink:href="#JetBrainsMono-Regular-30" transform="translate(179.999954 0)"/>
       <use xlink:href="#JetBrainsMono-Regular-39" transform="translate(239.999939 0)"/>
      </g>
     </g>
    </g>
    <g id="xtick_6">
     <g id="line2d_11">
      <path d="M 337.4784 324.72 
L 337.4784 55.44 
" clip-path="url(#p78ce5fcfe4)" style="fill: none; stroke-dasharray: 2.22,0.96; stroke-dashoffset: 0; stroke: #e2d5f5; stroke-opacity: 0.7; stroke-width: 0.6"/>
     </g>
     <g id="line2d_12">
      <g>
       <use xlink:href="#m2002e78e20" x="337.4784" y="324.72" style="fill: #9b8bb8; stroke: #9b8bb8; stroke-width: 0.8"/>
      </g>
     </g>
     <g id="text_6">
      <!-- 04/11 -->
      <g style="fill: #9b8bb8" transform="translate(325.938019 353.301793) rotate(-30) scale(0.1 -0.1)">
       <use xlink:href="#JetBrainsMono-Regular-30"/>
       <use xlink:href="#JetBrainsMono-Regular-34" transform="translate(59.999985 0)"/>
       <use xlink:href="#JetBrainsMono-Regular-2f" transform="translate(119.999969 0)"/>
       <use xlink:href="#JetBrainsMono-Regular-31" transform="translate(179.999954 0)"/>
       <use xlink:href="#JetBrainsMono-Regular-31" transform="translate(239.999939 0)"/>
      </g>
     </g>
    </g>
    <g id="xtick_7">
     <g id="line2d_13">
      <path d="M 386.5536 324.72 
L 386.5536 55.44 
" clip-path="url(#p78ce5fcfe4)" style="fill: none; stroke-dasharray: 2.22,0.96; stroke-dashoffset: 0; stroke: #e2d5f5; stroke-opacity: 0.7; stroke-width: 0.6"/>
     </g>
     <g id="line2d_14">
      <g>
       <use xlink:href="#m2002e78e20" x="386.5536" y="324.72" style="fill: #9b8bb8; stroke: #9b8bb8; stroke-width: 0.8"/>
      </g>
     </g>
     <g id="text_7">
      <!-- 04/13 -->
      <g style="fill: #9b8bb8" transform="translate(375.013219 353.301793) rotate(-30) scale(0.1 -0.1)">
       <use xlink:href="#JetBrainsMono-Regular-30"/>
       <use xlink:href="#JetBrainsMono-Regular-34" transform="translate(59.999985 0)"/>
       <use xlink:href="#JetBrainsMono-Regular-2f" transform="translate(119.999969 0)"/>
       <use xlink:href="#JetBrainsMono-Regular-31" transform="translate(179.999954 0)"/>
       <use xlink:href="#JetBrainsMono-Regular-33" transform="translate(239.999939 0)"/>
      </g>
     </g>
    </g>
    <g id="xtick_8">
     <g id="line2d_15">
      <path d="M 435.6288 324.72 
L 435.6288 55.44 
" clip-path="url(#p78ce5fcfe4)" style="fill: none; stroke-dasharray: 2.22,0.96; stroke-dashoffset: 0; stroke: #e2d5f5; stroke-opacity: 0.7; stroke-width: 0.6"/>
     </g>
     <g id="line2d_16">
      <g>
       <use xlink:href="#m2002e78e20" x="435.6288" y="324.72" style="fill: #9b8bb8; stroke: #9b8bb8; stroke-width: 0.8"/>
      </g>
     </g>
     <g id="text_8">
      <!-- 04/15 -->
      <g style="fill: #9b8bb8" transform="translate(424.088419 353.301793) rotate(-30) scale(0.1 -0.1)">
       <use xlink:href="#JetBrainsMono-Regular-30"/>
       <use xlink:href="#JetBrainsMono-Regular-34" transform="translate(59.999985 0)"/>
       <use xlink:href="#JetBrainsMono-Regular-2f" transform="translate(119.999969 0)"/>
       <use xlink:href="#JetBrainsMono-Regular-31" transform="translate(179.999954 0)"/>
       <use xlink:href="#JetBrainsMono-Regular-35" transform="translate(239.999939 0)"/>
      </g>
     </g>
    </g>
    <g id="xtick_9">
     <g id="line2d_17">
      <path d="M 484.704 324.72 
L 484.704 55.44 
" clip-path="url(#p78ce5fcfe4)" style="fill: none; stroke-dasharray: 2.22,0.96; stroke-dashoffset: 0; stroke: #e2d5f5; stroke-opacity: 0.7; stroke-width: 0.6"/>
     </g>
     <g id="line2d_18">
      <g>
       <use xlink:href="#m2002e78e20" x="484.704" y="324.72" style="fill: #9b8bb8; stroke: #9b8bb8; stroke-width: 0.8"/>
      </g>
     </g>
     <g id="text_9">
      <!-- 04/17 -->
      <g style="fill: #9b8bb8" transform="translate(473.163619 353.301793) rotate(-30) scale(0.1 -0.1)">
       <use xlink:href="#JetBrainsMono-Regular-30"/>
       <use xlink:href="#JetBrainsMono-Regular-34" transform="translate(59.999985 0)"/>
       <use xlink:href="#JetBrainsMono-Regular-2f" transform="translate(119.999969 0)"/>
       <use xlink:href="#JetBrainsMono-Regular-31" transform="translate(179.999954 0)"/>
       <use xlink:href="#JetBrainsMono-Regular-37" transform="translate(239.999939 0)"/>
      </g>
     </g>
    </g>
    <g id="xtick_10">
     <g id="line2d_19">
      <path d="M 533.7792 324.72 
L 533.7792 55.44 
" clip-path="url(#p78ce5fcfe4)" style="fill: none; stroke-dasharray: 2.22,0.96; stroke-dashoffset: 0; stroke: #e2d5f5; stroke-opacity: 0.7; stroke-width: 0.6"/>
     </g>
     <g id="line2d_20">
      <g>
       <use xlink:href="#m2002e78e20" x="533.7792" y="324.72" style="fill: #9b8bb8; stroke: #9b8bb8; stroke-width: 0.8"/>
      </g>
     </g>
     <g id="text_10">
      <!-- 04/19 -->
      <g style="fill: #9b8bb8" transform="translate(522.238819 353.301793) rotate(-30) scale(0.1 -0.1)">
       <use xlink:href="#JetBrainsMono-Regular-30"/>
       <use xlink:href="#JetBrainsMono-Regular-34" transform="translate(59.999985 0)"/>
       <use xlink:href="#JetBrainsMono-Regular-2f" transform="translate(119.999969 0)"/>
       <use xlink:href="#JetBrainsMono-Regular-31" transform="translate(179.999954 0)"/>
       <use xlink:href="#JetBrainsMono-Regular-39" transform="translate(239.999939 0)"/>
      </g>
     </g>
    </g>
   </g>
   <g id="matplotlib.axis_2">
    <g id="ytick_1">
     <g id="line2d_21">
      <path d="M 55.296 309.990358 
L 546.048 309.990358 
" clip-path="url(#p78ce5fcfe4)" style="fill: none; stroke-dasharray: 2.22,0.96; stroke-dashoffset: 0; stroke: #e2d5f5; stroke-opacity: 0.7; stroke-width: 0.6"/>
     </g>
     <g id="line2d_22">
      <defs>
       <path id="m9f8a724156" d="M 0 0 
L -3.5 0 
" style="stroke: #9b8bb8; stroke-width: 0.8"/>
      </defs>
      <g>
       <use xlink:href="#m9f8a724156" x="55.296" y="309.990358" style="fill: #9b8bb8; stroke: #9b8bb8; stroke-width: 0.8"/>
      </g>
     </g>
     <g id="text_11">
      <!-- 200 -->
      <g style="fill: #9b8bb8" transform="translate(30.296 313.640358) scale(0.1 -0.1)">
       <defs>
        <path id="JetBrainsMono-Regular-32" d="M 550 0 
L 550 531 
L 2106 2195 
Q 2445 2554 2585 2835 
Q 2726 3117 2726 3386 
Q 2726 3770 2505 3997 
Q 2285 4224 1907 4224 
Q 1517 4224 1289 3990 
Q 1062 3757 1062 3360 
L 486 3360 
Q 506 3994 890 4365 
Q 1274 4736 1907 4736 
Q 2554 4736 2934 4371 
Q 3315 4006 3315 3379 
Q 3315 3046 3132 2675 
Q 2950 2304 2509 1843 
L 1248 525 
L 3373 525 
L 3373 0 
L 550 0 
z
" transform="scale(0.015625)"/>
       </defs>
       <use xlink:href="#JetBrainsMono-Regular-32"/>
       <use xlink:href="#JetBrainsMono-Regular-30" transform="translate(59.999985 0)"/>
       <use xlink:href="#JetBrainsMono-Regular-30" transform="translate(119.999969 0)"/>
      </g>
     </g>
    </g>
    <g id="ytick_2">
     <g id="line2d_23">
      <path d="M 55.296 273.166254 
L 546.048 273.166254 
" clip-path="url(#p78ce5fcfe4)" style="fill: none; stroke-dasharray: 2.22,0.96; stroke-dashoffset: 0; stroke: #e2d5f5; stroke-opacity: 0.7; stroke-width: 0.6"/>
     </g>
     <g id="line2d_24">
      <g>
       <use xlink:href="#m9f8a724156" x="55.296" y="273.166254" style="fill: #9b8bb8; stroke: #9b8bb8; stroke-width: 0.8"/>
      </g>
     </g>
     <g id="text_12">
      <!-- 210 -->
      <g style="fill: #9b8bb8" transform="translate(30.296 276.816254) scale(0.1 -0.1)">
       <use xlink:href="#JetBrainsMono-Regular-32"/>
       <use xlink:href="#JetBrainsMono-Regular-31" transform="translate(59.999985 0)"/>
       <use xlink:href="#JetBrainsMono-Regular-30" transform="translate(119.999969 0)"/>
      </g>
     </g>
    </g>
    <g id="ytick_3">
     <g id="line2d_25">
      <path d="M 55.296 236.34215 
L 546.048 236.34215 
" clip-path="url(#p78ce5fcfe4)" style="fill: none; stroke-dasharray: 2.22,0.96; stroke-dashoffset: 0; stroke: #e2d5f5; stroke-opacity: 0.7; stroke-width: 0.6"/>
     </g>
     <g id="line2d_26">
      <g>
       <use xlink:href="#m9f8a724156" x="55.296" y="236.34215" style="fill: #9b8bb8; stroke: #9b8bb8; stroke-width: 0.8"/>
      </g>
     </g>
     <g id="text_13">
      <!-- 220 -->
      <g style="fill: #9b8bb8" transform="translate(30.296 239.99215) scale(0.1 -0.1)">
       <use xlink:href="#JetBrainsMono-Regular-32"/>
       <use xlink:href="#JetBrainsMono-Regular-32" transform="translate(59.999985 0)"/>
       <use xlink:href="#JetBrainsMono-Regular-30" transform="translate(119.999969 0)"/>
      </g>
     </g>
    </g>
    <g id="ytick_4">
     <g id="line2d_27">
      <path d="M 55.296 199.518046 
L 546.048 199.518046 
" clip-path="url(#p78ce5fcfe4)" style="fill: none; stroke-dasharray: 2.22,0.96; stroke-dashoffset: 0; stroke: #e2d5f5; stroke-opacity: 0.7; stroke-width: 0.6"/>
     </g>
     <g id="line2d_28">
      <g>
       <use xlink:href="#m9f8a724156" x="55.296" y="199.518046" style="fill: #9b8bb8; stroke: #9b8bb8; stroke-width: 0.8"/>
      </g>
     </g>
     <g id="text_14">
      <!-- 230 -->
      <g style="fill: #9b8bb8" transform="translate(30.296 203.168046) scale(0.1 -0.1)">
       <use xlink:href="#JetBrainsMono-Regular-32"/>
       <use xlink:href="#JetBrainsMono-Regular-33" transform="translate(59.999985 0)"/>
       <use xlink:href="#JetBrainsMono-Regular-30" transform="translate(119.999969 0)"/>
      </g>
     </g>
    </g>
    <g id="ytick_5">
     <g id="line2d_29">
      <path d="M 55.296 162.693942 
L 546.048 162.693942 
" clip-path="url(#p78ce5fcfe4)" style="fill: none; stroke-dasharray: 2.22,0.96; stroke-dashoffset: 0; stroke: #e2d5f5; stroke-opacity: 0.7; stroke-width: 0.6"/>
     </g>
     <g id="line2d_30">
      <g>
       <use xlink:href="#m9f8a724156" x="55.296" y="162.693942" style="fill: #9b8bb8; stroke: #9b8bb8; stroke-width: 0.8"/>
      </g>
     </g>
     <g id="text_15">
      <!-- 240 -->
      <g style="fill: #9b8bb8" transform="translate(30.296 166.343942) scale(0.1 -0.1)">
       <use xlink:href="#JetBrainsMono-Regular-32"/>
       <use xlink:href="#JetBrainsMono-Regular-34" transform="translate(59.999985 0)"/>
       <use xlink:href="#JetBrainsMono-Regular-30" transform="translate(119.999969 0)"/>
      </g>
     </g>
    </g>
    <g id="ytick_6">
     <g id="line2d_31">
      <path d="M 55.296 125.869838 
L 546.048 125.869838 
" clip-path="url(#p78ce5fcfe4)" style="fill: none; stroke-dasharray: 2.22,0.96; stroke-dashoffset: 0; stroke: #e2d5f5; stroke-opacity: 0.7; stroke-width: 0.6"/>
     </g>
     <g id="line2d_32">
      <g>
       <use xlink:href="#m9f8a724156" x="55.296" y="125.869838" style="fill: #9b8bb8; stroke: #9b8bb8; stroke-width: 0.8"/>
      </g>
     </g>
     <g id="text_16">
      <!-- 250 -->
      <g style="fill: #9b8bb8" transform="translate(30.296 129.519838) scale(0.1 -0.1)">
       <use xlink:href="#JetBrainsMono-Regular-32"/>
       <use xlink:href="#JetBrainsMono-Regular-35" transform="translate(59.999985 0)"/>
       <use xlink:href="#JetBrainsMono-Regular-30" transform="translate(119.999969 0)"/>
      </g>
     </g>
    </g>
    <g id="ytick_7">
     <g id="line2d_33">
      <path d="M 55.296 89.045734 
L 546.048 89.045734 
" clip-path="url(#p78ce5fcfe4)" style="fill: none; stroke-dasharray: 2.22,0.96; stroke-dashoffset: 0; stroke: #e2d5f5; stroke-opacity: 0.7; stroke-width: 0.6"/>
     </g>
     <g id="line2d_34">
      <g>
       <use xlink:href="#m9f8a724156" x="55.296" y="89.045734" style="fill: #9b8bb8; stroke: #9b8bb8; stroke-width: 0.8"/>
      </g>
     </g>
     <g id="text_17">
      <!-- 260 -->
      <g style="fill: #9b8bb8" transform="translate(30.296 92.695734) scale(0.1 -0.1)">
       <defs>
        <path id="JetBrainsMono-Regular-36" d="M 1926 -64 
Q 1478 -64 1136 125 
Q 794 314 602 650 
Q 410 986 410 1427 
Q 410 1734 525 2057 
Q 640 2381 838 2733 
L 1920 4672 
L 2560 4672 
L 1408 2669 
L 1427 2656 
Q 1510 2765 1676 2822 
Q 1843 2880 2042 2880 
Q 2458 2880 2768 2697 
Q 3078 2515 3254 2195 
Q 3430 1875 3430 1453 
Q 3430 1005 3238 662 
Q 3046 320 2710 128 
Q 2374 -64 1926 -64 
z
M 1920 448 
Q 2336 448 2595 723 
Q 2854 998 2854 1440 
Q 2854 1882 2595 2157 
Q 2336 2432 1920 2432 
Q 1504 2432 1245 2157 
Q 986 1882 986 1440 
Q 986 998 1245 723 
Q 1504 448 1920 448 
z
" transform="scale(0.015625)"/>
       </defs>
       <use xlink:href="#JetBrainsMono-Regular-32"/>
       <use xlink:href="#JetBrainsMono-Regular-36" transform="translate(59.999985 0)"/>
       <use xlink:href="#JetBrainsMono-Regular-30" transform="translate(119.999969 0)"/>
      </g>
     </g>
    </g>
    <g id="text_18">
     <!-- Rating -->
     <g style="fill: #9b8bb8" transform="translate(24.496 208.08) rotate(-90) scale(0.1 -0.1)">
      <defs>
       <path id="JetBrainsMono-Regular-52" d="M 595 0 
L 595 4672 
L 2035 4672 
Q 2451 4672 2764 4502 
Q 3078 4333 3251 4032 
Q 3424 3731 3424 3328 
Q 3424 2854 3181 2515 
Q 2938 2176 2534 2042 
L 3488 0 
L 2854 0 
L 1939 1984 
L 1165 1984 
L 1165 0 
L 595 0 
z
M 1165 2502 
L 2035 2502 
Q 2394 2502 2611 2729 
Q 2829 2957 2829 3328 
Q 2829 3706 2611 3930 
Q 2394 4154 2035 4154 
L 1165 4154 
L 1165 2502 
z
" transform="scale(0.015625)"/>
       <path id="JetBrainsMono-Regular-61" d="M 1613 -64 
Q 1069 -64 749 240 
Q 429 544 429 1037 
Q 429 1363 576 1606 
Q 723 1850 985 1987 
Q 1248 2125 1587 2125 
L 2675 2125 
L 2675 2400 
Q 2675 3085 1926 3085 
Q 1594 3085 1389 2963 
Q 1184 2842 1171 2624 
L 595 2624 
Q 627 3040 982 3312 
Q 1338 3584 1926 3584 
Q 2566 3584 2908 3277 
Q 3251 2970 3251 2419 
L 3251 0 
L 2682 0 
L 2682 640 
L 2669 640 
Q 2618 314 2342 125 
Q 2067 -64 1613 -64 
z
M 1754 422 
Q 2176 422 2425 627 
Q 2675 832 2675 1184 
L 2675 1677 
L 1651 1677 
Q 1370 1677 1194 1507 
Q 1018 1338 1018 1056 
Q 1018 762 1213 592 
Q 1408 422 1754 422 
z
" transform="scale(0.015625)"/>
       <path id="JetBrainsMono-Regular-74" d="M 2272 0 
Q 1837 0 1574 253 
Q 1312 506 1312 928 
L 1312 2995 
L 301 2995 
L 301 3520 
L 1312 3520 
L 1312 4512 
L 1888 4512 
L 1888 3520 
L 3328 3520 
L 3328 2995 
L 1888 2995 
L 1888 928 
Q 1888 749 1993 637 
Q 2099 525 2272 525 
L 3296 525 
L 3296 0 
L 2272 0 
z
" transform="scale(0.015625)"/>
       <path id="JetBrainsMono-Regular-69" d="M 544 0 
L 544 525 
L 1792 525 
L 1792 2995 
L 672 2995 
L 672 3520 
L 2368 3520 
L 2368 525 
L 3552 525 
L 3552 0 
L 544 0 
z
M 2016 4154 
Q 1805 4154 1683 4262 
Q 1562 4371 1562 4557 
Q 1562 4749 1683 4861 
Q 1805 4973 2016 4973 
Q 2227 4973 2348 4861 
Q 2470 4749 2470 4557 
Q 2470 4371 2348 4262 
Q 2227 4154 2016 4154 
z
" transform="scale(0.015625)"/>
       <path id="JetBrainsMono-Regular-6e" d="M 589 0 
L 589 3520 
L 1165 3520 
L 1165 2848 
L 1171 2848 
Q 1216 3200 1459 3392 
Q 1702 3584 2106 3584 
Q 2637 3584 2950 3257 
Q 3264 2931 3264 2368 
L 3264 0 
L 2688 0 
L 2688 2266 
Q 2688 2669 2486 2883 
Q 2285 3098 1939 3098 
Q 1581 3098 1373 2874 
Q 1165 2650 1165 2240 
L 1165 0 
L 589 0 
z
" transform="scale(0.015625)"/>
       <path id="JetBrainsMono-Regular-67" d="M 1030 -1152 
L 1030 -627 
L 2022 -627 
Q 2323 -627 2496 -457 
Q 2669 -288 2669 0 
L 2669 320 
L 2682 896 
L 2662 896 
Q 2611 582 2361 412 
Q 2112 243 1734 243 
Q 1190 243 876 588 
Q 563 934 563 1536 
L 563 2278 
Q 563 2880 876 3232 
Q 1190 3584 1734 3584 
Q 2112 3584 2361 3405 
Q 2611 3226 2662 2912 
L 2675 2912 
L 2675 3520 
L 3245 3520 
L 3245 0 
Q 3245 -531 2915 -841 
Q 2586 -1152 2016 -1152 
L 1030 -1152 
z
M 1907 723 
Q 2266 723 2470 947 
Q 2675 1171 2675 1568 
L 2675 2240 
Q 2675 2637 2470 2861 
Q 2266 3085 1907 3085 
Q 1542 3085 1340 2873 
Q 1139 2662 1139 2304 
L 1139 1504 
Q 1139 1146 1340 934 
Q 1542 723 1907 723 
z
" transform="scale(0.015625)"/>
      </defs>
      <use xlink:href="#JetBrainsMono-Regular-52"/>
      <use xlink:href="#JetBrainsMono-Regular-61" transform="translate(59.999985 0)"/>
      <use xlink:href="#JetBrainsMono-Regular-74" transform="translate(119.999969 0)"/>
      <use xlink:href="#JetBrainsMono-Regular-69" transform="translate(179.999954 0)"/>
      <use xlink:href="#JetBrainsMono-Regular-6e" transform="translate(239.999939 0)"/>
      <use xlink:href="#JetBrainsMono-Regular-67" transform="translate(299.999924 0)"/>
     </g>
    </g>
   </g>
   <g id="patch_3">
    <path d="M 55.296 324.72 
L 55.296 55.44 
" style="fill: none; stroke: #d8c8ef; stroke-width: 0.8; stroke-linejoin: miter; stroke-linecap: square"/>
   </g>
   <g id="patch_4">
    <path d="M 55.296 324.72 
L 546.048 324.72 
" style="fill: none; stroke: #d8c8ef; stroke-width: 0.8; stroke-linejoin: miter; stroke-linecap: square"/>
   </g>
   <g id="FillBetweenPolyCollection_1">
    <defs>
     <path id="mca5620890e" d="M 67.5648 -71.28 
L 67.5648 -89.692052 
L 69.124045 -91.523617 
L 70.683291 -92.994563 
L 72.242536 -94.129361 
L 73.801782 -94.952481 
L 75.361027 -95.488393 
L 76.920273 -95.761569 
L 78.479518 -95.796479 
L 80.038764 -95.617593 
L 81.598009 -95.249381 
L 83.157255 -94.716316 
L 84.7165 -94.042867 
L 86.275746 -93.253504 
L 87.834991 -92.372699 
L 89.394237 -91.424922 
L 90.953482 -90.434643 
L 92.512728 -89.426333 
L 94.071973 -88.424463 
L 95.631219 -87.453503 
L 97.190464 -86.537923 
L 98.74971 -85.702195 
L 100.308955 -84.970789 
L 101.868201 -84.368176 
L 103.427446 -83.918826 
L 104.986692 -83.647209 
L 106.545937 -83.577797 
L 108.105183 -83.735059 
L 109.664428 -84.143467 
L 111.223674 -84.827491 
L 112.782919 -85.811601 
L 114.342165 -87.120269 
L 115.90141 -88.777964 
L 117.460656 -90.807381 
L 119.019901 -93.194986 
L 120.579146 -95.893422 
L 122.138392 -98.854039 
L 123.697637 -102.028183 
L 125.256883 -105.367204 
L 126.816128 -108.82245 
L 128.375374 -112.345268 
L 129.934619 -115.887007 
L 131.493865 -119.399015 
L 133.05311 -122.832641 
L 134.612356 -126.139232 
L 136.171601 -129.270137 
L 137.730847 -132.176704 
L 139.290092 -134.810281 
L 140.849338 -137.122217 
L 142.408583 -139.070643 
L 143.967829 -140.665563 
L 145.527074 -141.940919 
L 147.08632 -142.930785 
L 148.645565 -143.669233 
L 150.204811 -144.190338 
L 151.764056 -144.528171 
L 153.323302 -144.716806 
L 154.882547 -144.790316 
L 156.441793 -144.782773 
L 158.001038 -144.728251 
L 159.560284 -144.660822 
L 161.119529 -144.61456 
L 162.678775 -144.623538 
L 164.23802 -144.721828 
L 165.797266 -144.943502 
L 167.356511 -145.313303 
L 168.915757 -145.824098 
L 170.475002 -146.461945 
L 172.034247 -147.212908 
L 173.593493 -148.063045 
L 175.152738 -148.99842 
L 176.711984 -150.005092 
L 178.271229 -151.069123 
L 179.830475 -152.176573 
L 181.38972 -153.313505 
L 182.948966 -154.465978 
L 184.508211 -155.620053 
L 186.067457 -156.761793 
L 187.626702 -157.877258 
L 189.185948 -158.952508 
L 190.745193 -159.973704 
L 192.304439 -160.933679 
L 193.863684 -161.836115 
L 195.42293 -162.685687 
L 196.982175 -163.48707 
L 198.541421 -164.244939 
L 200.100666 -164.963968 
L 201.659912 -165.648834 
L 203.219157 -166.30421 
L 204.778403 -166.934771 
L 206.337648 -167.545194 
L 207.896894 -168.140152 
L 209.456139 -168.72432 
L 211.015385 -169.302374 
L 212.57463 -169.878988 
L 214.133876 -170.458837 
L 215.693121 -171.046842 
L 217.252367 -171.65191 
L 218.811612 -172.286194 
L 220.370858 -172.961942 
L 221.930103 -173.6914 
L 223.489348 -174.486815 
L 225.048594 -175.360436 
L 226.607839 -176.324508 
L 228.167085 -177.39128 
L 229.72633 -178.572997 
L 231.285576 -179.881908 
L 232.844821 -181.330259 
L 234.404067 -182.930298 
L 235.963312 -184.694271 
L 237.522558 -186.634427 
L 239.081803 -188.763011 
L 240.641049 -191.087968 
L 242.200294 -193.589413 
L 243.75954 -196.236388 
L 245.318785 -198.997907 
L 246.878031 -201.842984 
L 248.437276 -204.740632 
L 249.996522 -207.659865 
L 251.555767 -210.569697 
L 253.115013 -213.439141 
L 254.674258 -216.237212 
L 256.233504 -218.932924 
L 257.792749 -221.49529 
L 259.351995 -223.893323 
L 260.91124 -226.096039 
L 262.470486 -228.07245 
L 264.029731 -229.791581 
L 265.588977 -231.235385 
L 267.148222 -232.423638 
L 268.707468 -233.382998 
L 270.266713 -234.140122 
L 271.825959 -234.721669 
L 273.385204 -235.154297 
L 274.944449 -235.464663 
L 276.503695 -235.679426 
L 278.06294 -235.825243 
L 279.622186 -235.928773 
L 281.181431 -236.016673 
L 282.740677 -236.115602 
L 284.299922 -236.252216 
L 285.859168 -236.453175 
L 287.418413 -236.745136 
L 288.977659 -237.154424 
L 290.536904 -237.691639 
L 292.09615 -238.345172 
L 293.655395 -239.101743 
L 295.214641 -239.948067 
L 296.773886 -240.870862 
L 298.333132 -241.856844 
L 299.892377 -242.892731 
L 301.451623 -243.965239 
L 303.010868 -245.061085 
L 304.570114 -246.166986 
L 306.129359 -247.269658 
L 307.688605 -248.35582 
L 309.24785 -249.412188 
L 310.807096 -250.425478 
L 312.366341 -251.382408 
L 313.925587 -252.270649 
L 315.484832 -253.090522 
L 317.044078 -253.851302 
L 318.603323 -254.562458 
L 320.162569 -255.233454 
L 321.721814 -255.873757 
L 323.28106 -256.492835 
L 324.840305 -257.100153 
L 326.399551 -257.705178 
L 327.958796 -258.317377 
L 329.518041 -258.946216 
L 331.077287 -259.601161 
L 332.636532 -260.291679 
L 334.195778 -261.027236 
L 335.755023 -261.817299 
L 337.314269 -262.671335 
L 338.873514 -263.596775 
L 340.43276 -264.58987 
L 341.992005 -265.643048 
L 343.551251 -266.748734 
L 345.110496 -267.899352 
L 346.669742 -269.087329 
L 348.228987 -270.305089 
L 349.788233 -271.545058 
L 351.347478 -272.799659 
L 352.906724 -274.061319 
L 354.465969 -275.322463 
L 356.025215 -276.575515 
L 357.58446 -277.812901 
L 359.143706 -279.027046 
L 360.702951 -280.210374 
L 362.262197 -281.355323 
L 363.821442 -282.458699 
L 365.380688 -283.528299 
L 366.939933 -284.573618 
L 368.499179 -285.604149 
L 370.058424 -286.629388 
L 371.61767 -287.658829 
L 373.176915 -288.701967 
L 374.736161 -289.768295 
L 376.295406 -290.867309 
L 377.854652 -292.008504 
L 379.413897 -293.201374 
L 380.973142 -294.455413 
L 382.532388 -295.780116 
L 384.091633 -297.184977 
L 385.650879 -298.679492 
L 387.210124 -300.2728 
L 388.76937 -301.961801 
L 390.328615 -303.728354 
L 391.887861 -305.553396 
L 393.447106 -307.417861 
L 395.006352 -309.302684 
L 396.565597 -311.1888 
L 398.124843 -313.057146 
L 399.684088 -314.888656 
L 401.243334 -316.664265 
L 402.802579 -318.364909 
L 404.361825 -319.971523 
L 405.92107 -321.465041 
L 407.480316 -322.826401 
L 409.039561 -324.036536 
L 410.598807 -325.076382 
L 412.158052 -325.928732 
L 413.717298 -326.596661 
L 415.276543 -327.095726 
L 416.835789 -327.441667 
L 418.395034 -327.650226 
L 419.95428 -327.737143 
L 421.513525 -327.718158 
L 423.072771 -327.609012 
L 424.632016 -327.425445 
L 426.191262 -327.183199 
L 427.750507 -326.898013 
L 429.309753 -326.585628 
L 430.868998 -326.261785 
L 432.428243 -325.942225 
L 433.987489 -325.642687 
L 435.546734 -325.378912 
L 437.10598 -325.163814 
L 438.665225 -324.997057 
L 440.224471 -324.87443 
L 441.783716 -324.79172 
L 443.342962 -324.744715 
L 444.902207 -324.729203 
L 446.461453 -324.740972 
L 448.020698 -324.775808 
L 449.579944 -324.829501 
L 451.139189 -324.897837 
L 452.698435 -324.976605 
L 454.25768 -325.061592 
L 455.816926 -325.148586 
L 457.376171 -325.233375 
L 458.935417 -325.311746 
L 460.494662 -325.379496 
L 462.053908 -325.43396 
L 463.613153 -325.47581 
L 465.172399 -325.506156 
L 466.731644 -325.526105 
L 468.29089 -325.536766 
L 469.850135 -325.539248 
L 471.409381 -325.534659 
L 472.968626 -325.524107 
L 474.527872 -325.508701 
L 476.087117 -325.48955 
L 477.646363 -325.467761 
L 479.205608 -325.444444 
L 480.764854 -325.420707 
L 482.324099 -325.397658 
L 483.883344 -325.376407 
L 485.44259 -325.358037 
L 487.001835 -325.343019 
L 488.561081 -325.331162 
L 490.120326 -325.322247 
L 491.679572 -325.316049 
L 493.238817 -325.312349 
L 494.798063 -325.310925 
L 496.357308 -325.311553 
L 497.916554 -325.314014 
L 499.475799 -325.318085 
L 501.035045 -325.323545 
L 502.59429 -325.330171 
L 504.153536 -325.337743 
L 505.712781 -325.346038 
L 507.272027 -325.354834 
L 508.831272 -325.363911 
L 510.390518 -325.373046 
L 511.949763 -325.382018 
L 513.509009 -325.390604 
L 515.068254 -325.398584 
L 516.6275 -325.405736 
L 518.186745 -325.411837 
L 519.745991 -325.416667 
L 521.305236 -325.420002 
L 522.864482 -325.421623 
L 524.423727 -325.421307 
L 525.982973 -325.418832 
L 527.542218 -325.413977 
L 529.101464 -325.406519 
L 530.660709 -325.396238 
L 532.219955 -325.382912 
L 533.7792 -325.366318 
L 533.7792 -71.28 
L 533.7792 -71.28 
L 532.219955 -71.28 
L 530.660709 -71.28 
L 529.101464 -71.28 
L 527.542218 -71.28 
L 525.982973 -71.28 
L 524.423727 -71.28 
L 522.864482 -71.28 
L 521.305236 -71.28 
L 519.745991 -71.28 
L 518.186745 -71.28 
L 516.6275 -71.28 
L 515.068254 -71.28 
L 513.509009 -71.28 
L 511.949763 -71.28 
L 510.390518 -71.28 
L 508.831272 -71.28 
L 507.272027 -71.28 
L 505.712781 -71.28 
L 504.153536 -71.28 
L 502.59429 -71.28 
L 501.035045 -71.28 
L 499.475799 -71.28 
L 497.916554 -71.28 
L 496.357308 -71.28 
L 494.798063 -71.28 
L 493.238817 -71.28 
L 491.679572 -71.28 
L 490.120326 -71.28 
L 488.561081 -71.28 
L 487.001835 -71.28 
L 485.44259 -71.28 
L 483.883344 -71.28 
L 482.324099 -71.28 
L 480.764854 -71.28 
L 479.205608 -71.28 
L 477.646363 -71.28 
L 476.087117 -71.28 
L 474.527872 -71.28 
L 472.968626 -71.28 
L 471.409381 -71.28 
L 469.850135 -71.28 
L 468.29089 -71.28 
L 466.731644 -71.28 
L 465.172399 -71.28 
L 463.613153 -71.28 
L 462.053908 -71.28 
L 460.494662 -71.28 
L 458.935417 -71.28 
L 457.376171 -71.28 
L 455.816926 -71.28 
L 454.25768 -71.28 
L 452.698435 -71.28 
L 451.139189 -71.28 
L 449.579944 -71.28 
L 448.020698 -71.28 
L 446.461453 -71.28 
L 444.902207 -71.28 
L 443.342962 -71.28 
L 441.783716 -71.28 
L 440.224471 -71.28 
L 438.665225 -71.28 
L 437.10598 -71.28 
L 435.546734 -71.28 
L 433.987489 -71.28 
L 432.428243 -71.28 
L 430.868998 -71.28 
L 429.309753 -71.28 
L 427.750507 -71.28 
L 426.191262 -71.28 
L 424.632016 -71.28 
L 423.072771 -71.28 
L 421.513525 -71.28 
L 419.95428 -71.28 
L 418.395034 -71.28 
L 416.835789 -71.28 
L 415.276543 -71.28 
L 413.717298 -71.28 
L 412.158052 -71.28 
L 410.598807 -71.28 
L 409.039561 -71.28 
L 407.480316 -71.28 
L 405.92107 -71.28 
L 404.361825 -71.28 
L 402.802579 -71.28 
L 401.243334 -71.28 
L 399.684088 -71.28 
L 398.124843 -71.28 
L 396.565597 -71.28 
L 395.006352 -71.28 
L 393.447106 -71.28 
L 391.887861 -71.28 
L 390.328615 -71.28 
L 388.76937 -71.28 
L 387.210124 -71.28 
L 385.650879 -71.28 
L 384.091633 -71.28 
L 382.532388 -71.28 
L 380.973142 -71.28 
L 379.413897 -71.28 
L 377.854652 -71.28 
L 376.295406 -71.28 
L 374.736161 -71.28 
L 373.176915 -71.28 
L 371.61767 -71.28 
L 370.058424 -71.28 
L 368.499179 -71.28 
L 366.939933 -71.28 
L 365.380688 -71.28 
L 363.821442 -71.28 
L 362.262197 -71.28 
L 360.702951 -71.28 
L 359.143706 -71.28 
L 357.58446 -71.28 
L 356.025215 -71.28 
L 354.465969 -71.28 
L 352.906724 -71.28 
L 351.347478 -71.28 
L 349.788233 -71.28 
L 348.228987 -71.28 
L 346.669742 -71.28 
L 345.110496 -71.28 
L 343.551251 -71.28 
L 341.992005 -71.28 
L 340.43276 -71.28 
L 338.873514 -71.28 
L 337.314269 -71.28 
L 335.755023 -71.28 
L 334.195778 -71.28 
L 332.636532 -71.28 
L 331.077287 -71.28 
L 329.518041 -71.28 
L 327.958796 -71.28 
L 326.399551 -71.28 
L 324.840305 -71.28 
L 323.28106 -71.28 
L 321.721814 -71.28 
L 320.162569 -71.28 
L 318.603323 -71.28 
L 317.044078 -71.28 
L 315.484832 -71.28 
L 313.925587 -71.28 
L 312.366341 -71.28 
L 310.807096 -71.28 
L 309.24785 -71.28 
L 307.688605 -71.28 
L 306.129359 -71.28 
L 304.570114 -71.28 
L 303.010868 -71.28 
L 301.451623 -71.28 
L 299.892377 -71.28 
L 298.333132 -71.28 
L 296.773886 -71.28 
L 295.214641 -71.28 
L 293.655395 -71.28 
L 292.09615 -71.28 
L 290.536904 -71.28 
L 288.977659 -71.28 
L 287.418413 -71.28 
L 285.859168 -71.28 
L 284.299922 -71.28 
L 282.740677 -71.28 
L 281.181431 -71.28 
L 279.622186 -71.28 
L 278.06294 -71.28 
L 276.503695 -71.28 
L 274.944449 -71.28 
L 273.385204 -71.28 
L 271.825959 -71.28 
L 270.266713 -71.28 
L 268.707468 -71.28 
L 267.148222 -71.28 
L 265.588977 -71.28 
L 264.029731 -71.28 
L 262.470486 -71.28 
L 260.91124 -71.28 
L 259.351995 -71.28 
L 257.792749 -71.28 
L 256.233504 -71.28 
L 254.674258 -71.28 
L 253.115013 -71.28 
L 251.555767 -71.28 
L 249.996522 -71.28 
L 248.437276 -71.28 
L 246.878031 -71.28 
L 245.318785 -71.28 
L 243.75954 -71.28 
L 242.200294 -71.28 
L 240.641049 -71.28 
L 239.081803 -71.28 
L 237.522558 -71.28 
L 235.963312 -71.28 
L 234.404067 -71.28 
L 232.844821 -71.28 
L 231.285576 -71.28 
L 229.72633 -71.28 
L 228.167085 -71.28 
L 226.607839 -71.28 
L 225.048594 -71.28 
L 223.489348 -71.28 
L 221.930103 -71.28 
L 220.370858 -71.28 
L 218.811612 -71.28 
L 217.252367 -71.28 
L 215.693121 -71.28 
L 214.133876 -71.28 
L 212.57463 -71.28 
L 211.015385 -71.28 
L 209.456139 -71.28 
L 207.896894 -71.28 
L 206.337648 -71.28 
L 204.778403 -71.28 
L 203.219157 -71.28 
L 201.659912 -71.28 
L 200.100666 -71.28 
L 198.541421 -71.28 
L 196.982175 -71.28 
L 195.42293 -71.28 
L 193.863684 -71.28 
L 192.304439 -71.28 
L 190.745193 -71.28 
L 189.185948 -71.28 
L 187.626702 -71.28 
L 186.067457 -71.28 
L 184.508211 -71.28 
L 182.948966 -71.28 
L 181.38972 -71.28 
L 179.830475 -71.28 
L 178.271229 -71.28 
L 176.711984 -71.28 
L 175.152738 -71.28 
L 173.593493 -71.28 
L 172.034247 -71.28 
L 170.475002 -71.28 
L 168.915757 -71.28 
L 167.356511 -71.28 
L 165.797266 -71.28 
L 164.23802 -71.28 
L 162.678775 -71.28 
L 161.119529 -71.28 
L 159.560284 -71.28 
L 158.001038 -71.28 
L 156.441793 -71.28 
L 154.882547 -71.28 
L 153.323302 -71.28 
L 151.764056 -71.28 
L 150.204811 -71.28 
L 148.645565 -71.28 
L 147.08632 -71.28 
L 145.527074 -71.28 
L 143.967829 -71.28 
L 142.408583 -71.28 
L 140.849338 -71.28 
L 139.290092 -71.28 
L 137.730847 -71.28 
L 136.171601 -71.28 
L 134.612356 -71.28 
L 133.05311 -71.28 
L 131.493865 -71.28 
L 129.934619 -71.28 
L 128.375374 -71.28 
L 126.816128 -71.28 
L 125.256883 -71.28 
L 123.697637 -71.28 
L 122.138392 -71.28 
L 120.579146 -71.28 
L 119.019901 -71.28 
L 117.460656 -71.28 
L 115.90141 -71.28 
L 114.342165 -71.28 
L 112.782919 -71.28 
L 111.223674 -71.28 
L 109.664428 -71.28 
L 108.105183 -71.28 
L 106.545937 -71.28 
L 104.986692 -71.28 
L 103.427446 -71.28 
L 101.868201 -71.28 
L 100.308955 -71.28 
L 98.74971 -71.28 
L 97.190464 -71.28 
L 95.631219 -71.28 
L 94.071973 -71.28 
L 92.512728 -71.28 
L 90.953482 -71.28 
L 89.394237 -71.28 
L 87.834991 -71.28 
L 86.275746 -71.28 
L 84.7165 -71.28 
L 83.157255 -71.28 
L 81.598009 -71.28 
L 80.038764 -71.28 
L 78.479518 -71.28 
L 76.920273 -71.28 
L 75.361027 -71.28 
L 73.801782 -71.28 
L 72.242536 -71.28 
L 70.683291 -71.28 
L 69.124045 -71.28 
L 67.5648 -71.28 
z
" style="stroke: #8b5cf6; stroke-opacity: 0.12"/>
    </defs>
    <g clip-path="url(#p78ce5fcfe4)">
     <use xlink:href="#mca5620890e" x="0" y="396" style="fill: #8b5cf6; fill-opacity: 0.12; stroke: #8b5cf6; stroke-opacity: 0.12"/>
    </g>
   </g>
   <g id="text_19">
    <!-- 265 -->
    <g style="fill: #8b5cf6" transform="translate(536.7792 67.633682) scale(0.12 -0.12)">
     <defs>
      <path id="JetBrainsMono-Bold-32" d="M 474 0 
L 474 723 
L 2157 2445 
Q 2566 2874 2566 3315 
Q 2566 3629 2384 3824 
Q 2202 4019 1894 4019 
Q 1581 4019 1392 3817 
Q 1203 3616 1203 3283 
L 403 3283 
Q 403 3718 595 4044 
Q 787 4371 1126 4553 
Q 1466 4736 1914 4736 
Q 2355 4736 2688 4563 
Q 3021 4390 3203 4080 
Q 3386 3770 3386 3354 
Q 3386 2995 3216 2636 
Q 3046 2278 2656 1894 
L 1478 723 
L 3443 723 
L 3443 0 
L 474 0 
z
" transform="scale(0.015625)"/>
      <path id="JetBrainsMono-Bold-36" d="M 1920 -64 
Q 1440 -64 1085 128 
Q 730 320 534 669 
Q 339 1018 339 1485 
Q 339 1760 457 2115 
Q 576 2470 781 2835 
L 1792 4672 
L 2701 4672 
L 1498 2611 
L 1523 2598 
Q 1619 2733 1804 2809 
Q 1990 2886 2208 2886 
Q 2598 2886 2889 2710 
Q 3181 2534 3341 2214 
Q 3501 1894 3501 1459 
Q 3501 998 3305 656 
Q 3110 314 2755 125 
Q 2400 -64 1920 -64 
z
M 1920 614 
Q 2278 614 2496 841 
Q 2714 1069 2714 1446 
Q 2714 1830 2496 2057 
Q 2278 2285 1920 2285 
Q 1562 2285 1344 2057 
Q 1126 1830 1126 1446 
Q 1126 1069 1344 841 
Q 1562 614 1920 614 
z
" transform="scale(0.015625)"/>
      <path id="JetBrainsMono-Bold-35" d="M 1894 -64 
Q 1210 -64 803 297 
Q 397 659 397 1280 
L 1197 1280 
Q 1197 986 1385 810 
Q 1574 634 1901 634 
Q 2227 634 2409 810 
Q 2592 986 2592 1299 
L 2592 1606 
Q 2592 1920 2413 2096 
Q 2234 2272 1907 2272 
L 557 2272 
L 557 4672 
L 3219 4672 
L 3219 3949 
L 1312 3949 
L 1318 2976 
L 1946 2976 
Q 2637 2976 3014 2617 
Q 3392 2259 3392 1606 
L 3392 1299 
Q 3392 666 2992 301 
Q 2592 -64 1894 -64 
z
" transform="scale(0.015625)"/>
     </defs>
     <use xlink:href="#JetBrainsMono-Bold-32"/>
     <use xlink:href="#JetBrainsMono-Bold-36" transform="translate(59.999985 0)"/>
     <use xlink:href="#JetBrainsMono-Bold-35" transform="translate(119.999969 0)"/>
    </g>
   </g>
   <g id="text_20">
    <!-- Rating History -->
    <g style="fill: #8b5cf6" transform="translate(55.296 50.44) scale(0.17 -0.17)">
     <defs>
      <path id="JetBrainsMono-Bold-52" d="M 493 0 
L 493 4672 
L 1965 4672 
Q 2432 4672 2774 4499 
Q 3117 4326 3309 4016 
Q 3501 3706 3501 3283 
Q 3501 2816 3270 2467 
Q 3040 2118 2650 1971 
L 3565 0 
L 2688 0 
L 1869 1856 
L 1286 1856 
L 1286 0 
L 493 0 
z
M 1286 2560 
L 1965 2560 
Q 2304 2560 2496 2745 
Q 2688 2931 2688 3258 
Q 2688 3584 2493 3776 
Q 2298 3968 1965 3968 
L 1286 3968 
L 1286 2560 
z
" transform="scale(0.015625)"/>
      <path id="JetBrainsMono-Bold-61" d="M 1530 -64 
Q 992 -64 681 240 
Q 371 544 371 1037 
Q 371 1549 723 1853 
Q 1075 2157 1690 2157 
L 2547 2157 
L 2547 2406 
Q 2547 2938 1926 2938 
Q 1645 2938 1478 2829 
Q 1312 2720 1293 2522 
L 525 2522 
Q 550 2995 924 3289 
Q 1299 3584 1933 3584 
Q 2605 3584 2976 3270 
Q 3347 2957 3347 2387 
L 3347 0 
L 2566 0 
L 2566 659 
Q 2522 320 2246 128 
Q 1971 -64 1530 -64 
z
M 1786 589 
Q 2138 589 2342 761 
Q 2547 934 2547 1222 
L 2547 1638 
L 1728 1638 
Q 1466 1638 1312 1491 
Q 1158 1344 1158 1114 
Q 1158 877 1321 733 
Q 1485 589 1786 589 
z
" transform="scale(0.015625)"/>
      <path id="JetBrainsMono-Bold-74" d="M 2272 0 
Q 1779 0 1488 285 
Q 1197 570 1197 1056 
L 1197 2797 
L 224 2797 
L 224 3520 
L 1197 3520 
L 1197 4512 
L 2003 4512 
L 2003 3520 
L 3405 3520 
L 3405 2797 
L 2003 2797 
L 2003 1075 
Q 2003 922 2089 822 
Q 2176 723 2330 723 
L 3373 723 
L 3373 0 
L 2272 0 
z
" transform="scale(0.015625)"/>
      <path id="JetBrainsMono-Bold-69" d="M 486 0 
L 486 723 
L 1690 723 
L 1690 2797 
L 614 2797 
L 614 3520 
L 2490 3520 
L 2490 723 
L 3571 723 
L 3571 0 
L 486 0 
z
M 2032 4109 
Q 1789 4109 1648 4233 
Q 1507 4358 1507 4570 
Q 1507 4781 1648 4905 
Q 1789 5030 2032 5030 
Q 2275 5030 2416 4905 
Q 2557 4781 2557 4570 
Q 2557 4358 2416 4233 
Q 2275 4109 2032 4109 
z
" transform="scale(0.015625)"/>
      <path id="JetBrainsMono-Bold-6e" d="M 493 0 
L 493 3520 
L 1274 3520 
L 1274 2861 
Q 1338 3194 1587 3389 
Q 1837 3584 2221 3584 
Q 2739 3584 3049 3238 
Q 3360 2893 3360 2310 
L 3360 0 
L 2560 0 
L 2560 2214 
Q 2560 2541 2390 2717 
Q 2221 2893 1933 2893 
Q 1632 2893 1462 2713 
Q 1293 2534 1293 2202 
L 1293 0 
L 493 0 
z
" transform="scale(0.015625)"/>
      <path id="JetBrainsMono-Bold-67" d="M 973 -1152 
L 973 -486 
L 1965 -486 
Q 2246 -486 2400 -336 
Q 2554 -186 2554 70 
L 2554 282 
L 2566 832 
Q 2458 538 2218 374 
Q 1978 211 1632 211 
Q 1094 211 777 572 
Q 461 934 461 1555 
L 461 2240 
Q 461 2854 777 3219 
Q 1094 3584 1632 3584 
Q 1978 3584 2218 3421 
Q 2458 3258 2566 2957 
L 2566 3520 
L 3347 3520 
L 3347 51 
Q 3347 -506 2979 -829 
Q 2611 -1152 1978 -1152 
L 973 -1152 
z
M 1901 896 
Q 2208 896 2377 1078 
Q 2547 1261 2547 1587 
L 2547 2202 
Q 2547 2528 2377 2710 
Q 2208 2893 1901 2893 
Q 1594 2893 1427 2717 
Q 1261 2541 1261 2227 
L 1261 1562 
Q 1261 1248 1427 1072 
Q 1594 896 1901 896 
z
" transform="scale(0.015625)"/>
      <path id="JetBrainsMono-Bold-20" transform="scale(0.015625)"/>
      <path id="JetBrainsMono-Bold-48" d="M 493 0 
L 493 4672 
L 1293 4672 
L 1293 2778 
L 2547 2778 
L 2547 4672 
L 3347 4672 
L 3347 0 
L 2547 0 
L 2547 2054 
L 1293 2054 
L 1293 0 
L 493 0 
z
" transform="scale(0.015625)"/>
      <path id="JetBrainsMono-Bold-73" d="M 1773 -58 
Q 1146 -58 781 227 
Q 416 512 416 998 
L 1203 998 
Q 1203 794 1353 685 
Q 1504 576 1773 576 
L 2054 576 
Q 2342 576 2499 685 
Q 2656 794 2656 998 
Q 2656 1190 2547 1283 
Q 2438 1376 2214 1408 
L 1338 1523 
Q 915 1581 688 1849 
Q 461 2118 461 2547 
Q 461 3046 793 3312 
Q 1126 3578 1754 3578 
L 2048 3578 
Q 2637 3578 2995 3309 
Q 3354 3040 3366 2592 
L 2573 2592 
Q 2566 2758 2425 2857 
Q 2285 2957 2048 2957 
L 1754 2957 
Q 1498 2957 1363 2851 
Q 1229 2746 1229 2566 
Q 1229 2406 1328 2329 
Q 1427 2253 1619 2234 
L 2445 2118 
Q 2931 2061 3177 1776 
Q 3424 1491 3424 1011 
Q 3424 499 3075 220 
Q 2726 -58 2054 -58 
L 1773 -58 
z
" transform="scale(0.015625)"/>
      <path id="JetBrainsMono-Bold-6f" d="M 1920 -58 
Q 1242 -58 845 323 
Q 448 704 448 1350 
L 448 2170 
Q 448 2822 845 3200 
Q 1242 3578 1920 3578 
Q 2598 3578 2995 3200 
Q 3392 2822 3392 2170 
L 3392 1350 
Q 3392 704 2995 323 
Q 2598 -58 1920 -58 
z
M 1920 640 
Q 2240 640 2416 816 
Q 2592 992 2592 1325 
L 2592 2195 
Q 2592 2528 2416 2704 
Q 2240 2880 1920 2880 
Q 1600 2880 1424 2704 
Q 1248 2528 1248 2195 
L 1248 1325 
Q 1248 992 1424 816 
Q 1600 640 1920 640 
z
" transform="scale(0.015625)"/>
      <path id="JetBrainsMono-Bold-72" d="M 621 0 
L 621 3520 
L 1402 3520 
L 1402 2835 
Q 1466 3181 1718 3382 
Q 1971 3584 2374 3584 
Q 2912 3584 3213 3238 
Q 3514 2893 3514 2272 
L 3514 1939 
L 2714 1939 
L 2714 2234 
Q 2714 2554 2547 2723 
Q 2381 2893 2074 2893 
Q 1754 2893 1587 2701 
Q 1421 2509 1421 2157 
L 1421 0 
L 621 0 
z
" transform="scale(0.015625)"/>
      <path id="JetBrainsMono-Bold-79" d="M 1056 -1152 
L 1555 192 
L 230 3520 
L 1075 3520 
L 1754 1722 
Q 1811 1562 1868 1373 
Q 1926 1184 1952 1024 
Q 1971 1184 2025 1373 
Q 2080 1562 2138 1722 
L 2765 3520 
L 3610 3520 
L 1894 -1152 
L 1056 -1152 
z
" transform="scale(0.015625)"/>
     </defs>
     <use xlink:href="#JetBrainsMono-Bold-52"/>
     <use xlink:href="#JetBrainsMono-Bold-61" transform="translate(59.999985 0)"/>
     <use xlink:href="#JetBrainsMono-Bold-74" transform="translate(119.999969 0)"/>
     <use xlink:href="#JetBrainsMono-Bold-69" transform="translate(179.999954 0)"/>
     <use xlink:href="#JetBrainsMono-Bold-6e" transform="translate(239.999939 0)"/>
     <use xlink:href="#JetBrainsMono-Bold-67" transform="translate(299.999924 0)"/>
     <use xlink:href="#JetBrainsMono-Bold-20" transform="translate(359.999908 0)"/>
     <use xlink:href="#JetBrainsMono-Bold-48" transform="translate(419.999893 0)"/>
     <use xlink:href="#JetBrainsMono-Bold-69" transform="translate(479.999878 0)"/>
     <use xlink:href="#JetBrainsMono-Bold-73" transform="translate(539.999863 0)"/>
     <use xlink:href="#JetBrainsMono-Bold-74" transform="translate(599.999847 0)"/>
     <use xlink:href="#JetBrainsMono-Bold-6f" transform="translate(659.999832 0)"/>
     <use xlink:href="#JetBrainsMono-Bold-72" transform="translate(719.999817 0)"/>
     <use xlink:href="#JetBrainsMono-Bold-79" transform="translate(779.999802 0)"/>
    </g>
   </g>
   <g id="line2d_35">
    <path d="M 67.5648 306.307948 
L 69.124045 304.476383 
L 70.683291 303.005437 
L 72.242536 301.870639 
L 73.801782 301.047519 
L 75.361027 300.511607 
L 76.920273 300.238431 
L 78.479518 300.203521 
L 80.038764 300.382407 
L 81.598009 300.750619 
L 83.157255 301.283684 
L 86.275746 302.746496 
L 89.394237 304.575078 
L 97.190464 309.462077 
L 100.308955 311.029211 
L 101.868201 311.631824 
L 103.427446 312.081174 
L 104.986692 312.352791 
L 106.545937 312.422203 
L 108.105183 312.264941 
L 109.664428 311.856533 
L 111.223674 311.172509 
L 112.782919 310.188399 
L 114.342165 308.879731 
L 115.90141 307.222036 
L 117.460656 305.192619 
L 119.019901 302.805014 
L 120.579146 300.106578 
L 123.697637 293.971817 
L 126.816128 287.17755 
L 133.05311 273.167359 
L 136.171601 266.729863 
L 137.730847 263.823296 
L 139.290092 261.189719 
L 140.849338 258.877783 
L 142.408583 256.929357 
L 143.967829 255.334437 
L 145.527074 254.059081 
L 147.08632 253.069215 
L 148.645565 252.330767 
L 150.204811 251.809662 
L 151.764056 251.471829 
L 153.323302 251.283194 
L 156.441793 251.217227 
L 162.678775 251.376462 
L 164.23802 251.278172 
L 165.797266 251.056498 
L 167.356511 250.686697 
L 168.915757 250.175902 
L 172.034247 248.787092 
L 175.152738 247.00158 
L 178.271229 244.930877 
L 184.508211 240.379947 
L 189.185948 237.047492 
L 192.304439 235.066321 
L 195.42293 233.314313 
L 198.541421 231.755061 
L 203.219157 229.69579 
L 209.456139 227.27568 
L 218.811612 223.713806 
L 221.930103 222.3086 
L 225.048594 220.639564 
L 228.167085 218.60872 
L 231.285576 216.118092 
L 232.844821 214.669741 
L 234.404067 213.069702 
L 235.963312 211.305729 
L 237.522558 209.365573 
L 239.081803 207.236989 
L 242.200294 202.410587 
L 245.318785 197.002093 
L 256.233504 177.067076 
L 259.351995 172.106677 
L 260.91124 169.903961 
L 262.470486 167.92755 
L 264.029731 166.208419 
L 265.588977 164.764615 
L 267.148222 163.576362 
L 268.707468 162.617002 
L 270.266713 161.859878 
L 271.825959 161.278331 
L 273.385204 160.845703 
L 276.503695 160.320574 
L 281.181431 159.983327 
L 284.299922 159.747784 
L 287.418413 159.254864 
L 288.977659 158.845576 
L 292.09615 157.654828 
L 295.214641 156.051933 
L 298.333132 154.143156 
L 303.010868 150.938915 
L 309.24785 146.587812 
L 312.366341 144.617592 
L 315.484832 142.909478 
L 318.603323 141.437542 
L 323.28106 139.507165 
L 331.077287 136.398839 
L 334.195778 134.972764 
L 337.314269 133.328665 
L 340.43276 131.41013 
L 343.551251 129.251266 
L 348.228987 125.694911 
L 362.262197 114.644677 
L 366.939933 111.426382 
L 376.295406 105.132691 
L 379.413897 102.798626 
L 382.532388 100.219884 
L 385.650879 97.320508 
L 388.76937 94.038199 
L 393.447106 88.582139 
L 399.684088 81.111344 
L 402.802579 77.635091 
L 405.92107 74.534959 
L 407.480316 73.173599 
L 409.039561 71.963464 
L 410.598807 70.923618 
L 412.158052 70.071268 
L 413.717298 69.403339 
L 415.276543 68.904274 
L 416.835789 68.558333 
L 418.395034 68.349774 
L 421.513525 68.281842 
L 424.632016 68.574555 
L 427.750507 69.101987 
L 435.546734 70.621088 
L 438.665225 71.002943 
L 441.783716 71.20828 
L 446.461453 71.259028 
L 452.698435 71.023395 
L 463.613153 70.52419 
L 471.409381 70.465341 
L 510.390518 70.626954 
L 530.660709 70.603762 
L 533.7792 70.633682 
L 533.7792 70.633682 
" clip-path="url(#p78ce5fcfe4)" style="fill: none; stroke: #8b5cf6; stroke-width: 1.2; stroke-linecap: round"/>
   </g>
   <g id="PathCollection_1">
    <defs>
     <path id="m6dce0a410c" d="M 0 2.236068 
C 0.593012 2.236068 1.161816 2.000462 1.581139 1.581139 
C 2.000462 1.161816 2.236068 0.593012 2.236068 0 
C 2.236068 -0.593012 2.000462 -1.161816 1.581139 -1.581139 
C 1.161816 -2.000462 0.593012 -2.236068 0 -2.236068 
C -0.593012 -2.236068 -1.161816 -2.000462 -1.581139 -1.581139 
C -2.000462 -1.161816 -2.236068 -0.593012 -2.236068 0 
C -2.236068 0.593012 -2.000462 1.161816 -1.581139 1.581139 
C -1.161816 2.000462 -0.593012 2.236068 0 2.236068 
z
" style="stroke: #ffffff; stroke-width: 0.8"/>
    </defs>
    <g clip-path="url(#p78ce5fcfe4)">
     <use xlink:href="#m6dce0a410c" x="533.7792" y="70.633682" style="fill: #8b5cf6; stroke: #ffffff; stroke-width: 0.8"/>
    </g>
   </g>
  </g>
  <g id="axes_2">
   <g id="text_21">
    <!-- Rating -->
    <g style="fill: #9b8bb8" transform="translate(565.7472 48.312) scale(0.11 -0.11)">
     <use xlink:href="#JetBrainsMono-Regular-52"/>
     <use xlink:href="#JetBrainsMono-Regular-61" transform="translate(59.999985 0)"/>
     <use xlink:href="#JetBrainsMono-Regular-74" transform="translate(119.999969 0)"/>
     <use xlink:href="#JetBrainsMono-Regular-69" transform="translate(179.999954 0)"/>
     <use xlink:href="#JetBrainsMono-Regular-6e" transform="translate(239.999939 0)"/>
     <use xlink:href="#JetBrainsMono-Regular-67" transform="translate(299.999924 0)"/>
    </g>
   </g>
   <g id="text_22">
    <!-- 265 -->
    <g style="fill: #8b5cf6" transform="translate(565.7472 81.548) scale(0.26 -0.26)">
     <use xlink:href="#JetBrainsMono-Bold-32"/>
     <use xlink:href="#JetBrainsMono-Bold-36" transform="translate(59.999985 0)"/>
     <use xlink:href="#JetBrainsMono-Bold-35" transform="translate(119.999969 0)"/>
    </g>
   </g>
   <g id="text_23">
    <!-- Rank -->
    <g style="fill: #9b8bb8" transform="translate(565.7472 119.592) scale(0.11 -0.11)">
     <defs>
      <path id="JetBrainsMono-Regular-6b" d="M 621 0 
L 621 4672 
L 1197 4672 
L 1197 2067 
L 1869 2067 
L 2854 3520 
L 3514 3520 
L 2381 1843 
L 3578 0 
L 2906 0 
L 1882 1568 
L 1197 1568 
L 1197 0 
L 621 0 
z
" transform="scale(0.015625)"/>
     </defs>
     <use xlink:href="#JetBrainsMono-Regular-52"/>
     <use xlink:href="#JetBrainsMono-Regular-61" transform="translate(59.999985 0)"/>
     <use xlink:href="#JetBrainsMono-Regular-6e" transform="translate(119.999969 0)"/>
     <use xlink:href="#JetBrainsMono-Regular-6b" transform="translate(179.999954 0)"/>
    </g>
   </g>
   <g id="text_24">
    <!-- #117,954 -->
    <g style="fill: #8b5cf6" transform="translate(565.7472 148.104) scale(0.14 -0.14)">
     <defs>
      <path id="JetBrainsMono-Bold-23" d="M 493 0 
L 710 1216 
L 224 1216 
L 224 1760 
L 800 1760 
L 998 2912 
L 448 2912 
L 448 3456 
L 1094 3456 
L 1312 4672 
L 1875 4672 
L 1658 3456 
L 2566 3456 
L 2784 4672 
L 3347 4672 
L 3130 3456 
L 3616 3456 
L 3616 2912 
L 3034 2912 
L 2835 1760 
L 3392 1760 
L 3392 1216 
L 2739 1216 
L 2528 0 
L 1965 0 
L 2182 1216 
L 1267 1216 
L 1056 0 
L 493 0 
z
M 1363 1760 
L 2272 1760 
L 2470 2912 
L 1562 2912 
L 1363 1760 
z
" transform="scale(0.015625)"/>
      <path id="JetBrainsMono-Bold-31" d="M 538 0 
L 538 723 
L 1754 723 
L 1754 3898 
L 531 3002 
L 531 3898 
L 1606 4672 
L 2554 4672 
L 2554 723 
L 3533 723 
L 3533 0 
L 538 0 
z
" transform="scale(0.015625)"/>
      <path id="JetBrainsMono-Bold-37" d="M 1011 0 
L 2720 3968 
L 1229 3968 
L 1229 3206 
L 429 3206 
L 429 4672 
L 3584 4672 
L 3584 3968 
L 1888 0 
L 1011 0 
z
" transform="scale(0.015625)"/>
      <path id="JetBrainsMono-Bold-2c" d="M 1216 -1024 
L 1555 934 
L 2470 934 
L 1984 -1024 
L 1216 -1024 
z
" transform="scale(0.015625)"/>
      <path id="JetBrainsMono-Bold-39" d="M 1120 0 
L 2214 1888 
Q 2138 1830 2035 1788 
Q 1933 1747 1728 1747 
Q 1344 1747 1027 1932 
Q 710 2118 524 2448 
Q 339 2778 339 3213 
Q 339 3674 534 4016 
Q 730 4358 1085 4547 
Q 1440 4736 1920 4736 
Q 2400 4736 2755 4544 
Q 3110 4352 3305 4003 
Q 3501 3654 3501 3187 
Q 3501 2912 3382 2557 
Q 3264 2202 3059 1837 
L 2048 0 
L 1120 0 
z
M 1920 2387 
Q 2278 2387 2496 2614 
Q 2714 2842 2714 3226 
Q 2714 3603 2496 3830 
Q 2278 4058 1920 4058 
Q 1562 4058 1344 3830 
Q 1126 3603 1126 3226 
Q 1126 2842 1344 2614 
Q 1562 2387 1920 2387 
z
" transform="scale(0.015625)"/>
      <path id="JetBrainsMono-Bold-34" d="M 2445 0 
L 2445 928 
L 378 928 
L 378 2086 
L 2106 4672 
L 2995 4672 
L 1146 1875 
L 1146 1632 
L 2445 1632 
L 2445 2688 
L 3251 2688 
L 3251 0 
L 2445 0 
z
" transform="scale(0.015625)"/>
     </defs>
     <use xlink:href="#JetBrainsMono-Bold-23"/>
     <use xlink:href="#JetBrainsMono-Bold-31" transform="translate(59.999985 0)"/>
     <use xlink:href="#JetBrainsMono-Bold-31" transform="translate(119.999969 0)"/>
     <use xlink:href="#JetBrainsMono-Bold-37" transform="translate(179.999954 0)"/>
     <use xlink:href="#JetBrainsMono-Bold-2c" transform="translate(239.999939 0)"/>
     <use xlink:href="#JetBrainsMono-Bold-39" transform="translate(299.999924 0)"/>
     <use xlink:href="#JetBrainsMono-Bold-35" transform="translate(359.999908 0)"/>
     <use xlink:href="#JetBrainsMono-Bold-34" transform="translate(419.999893 0)"/>
    </g>
   </g>
   <g id="text_25">
    <!-- ─ 0 -->
    <g style="fill: #9b8bb8" transform="translate(565.7472 169.488) scale(0.11 -0.11)">
     <defs>
      <path id="JetBrainsMono-Bold-2500" d="M -128 2048 
L -128 2688 
L 3968 2688 
L 3968 2048 
L -128 2048 
z
" transform="scale(0.015625)"/>
      <path id="JetBrainsMono-Bold-30" d="M 1920 -64 
Q 1466 -64 1133 109 
Q 800 282 617 595 
Q 435 909 435 1331 
L 435 3341 
Q 435 3763 617 4076 
Q 800 4390 1133 4563 
Q 1466 4736 1920 4736 
Q 2374 4736 2707 4563 
Q 3040 4390 3222 4076 
Q 3405 3763 3405 3341 
L 3405 1331 
Q 3405 909 3222 595 
Q 3040 282 2707 109 
Q 2374 -64 1920 -64 
z
M 1920 627 
Q 2253 627 2451 819 
Q 2650 1011 2650 1331 
L 2650 3341 
Q 2650 3661 2454 3853 
Q 2259 4045 1920 4045 
Q 1581 4045 1385 3853 
Q 1190 3661 1190 3341 
L 1190 1331 
Q 1190 1011 1388 819 
Q 1587 627 1920 627 
z
M 1920 1952 
Q 1728 1952 1613 2057 
Q 1498 2163 1498 2355 
Q 1498 2547 1613 2646 
Q 1728 2746 1920 2746 
Q 2112 2746 2227 2646 
Q 2342 2547 2342 2355 
Q 2342 2163 2227 2057 
Q 2112 1952 1920 1952 
z
" transform="scale(0.015625)"/>
     </defs>
     <use xlink:href="#JetBrainsMono-Bold-2500"/>
     <use xlink:href="#JetBrainsMono-Bold-20" transform="translate(59.999985 0)"/>
     <use xlink:href="#JetBrainsMono-Bold-30" transform="translate(119.999969 0)"/>
    </g>
   </g>
  </g>
 </g>
 <defs>
  <clipPath id="p78ce5fcfe4">
   <rect x="55.296" y="55.44" width="490.752" height="269.28"/>
  </clipPath>
 </defs>
</svg>
