<?xml version="1.0" encoding="utf-8" standalone="no"?>
<!DOCTYPE svg PUBLIC "-//W3C//DTD SVG 1.1//EN"
  "http://www.w3.org/Graphics/SVG/1.1/DTD/svg11.dtd">
<svg xmlns:xlink="http://www.w3.org/1999/xlink" width="691.2pt" height="396pt" viewBox="0 0 691.2 396" xmlns="http://www.w3.org/2000/svg" version="1.1">
 <metadata>
  <rdf:RDF xmlns:dc="http://purl.org/dc/elements/1.1/" xmlns:cc="http://creativecommons.org/ns#" xmlns:rdf="http://www.w3.org/1999/02/22-rdf-syntax-ns#">
   <cc:Work>
    <dc:type rdf:resource="http://purl.org/dc/dcmitype/StillImage"/>
    <dc:date>2026-04-04T13:19:43.812318</dc:date>
    <dc:format>image/svg+xml</dc:format>
    <dc:creator>
     <cc:Agent>
      <dc:title>Matplotlib v3.10.8, https://matplotlib.org/</dc:title>
     </cc:Agent>
    </dc:creator>
   </cc:Work>
  </rdf:RDF>
 </metadata>
 <defs>
  <style type="text/css">*{stroke-linejoin: round; stroke-linecap: butt}</style>
 </defs>
 <g id="figure_1">
  <g id="patch_1">
   <path d="M 0 396 
L 691.2 396 
L 691.2 0 
L 0 0 
L 0 396 
z
" style="fill: none"/>
  </g>
  <g id="axes_1">
   <g id="patch_2">
    <path d="M 55.296 324.72 
L 546.048 324.72 
L 546.048 55.44 
L 55.296 55.44 
L 55.296 324.72 
z
" style="fill: none"/>
   </g>
   <g id="matplotlib.axis_1">
    <g id="xtick_1">
     <g id="line2d_1">
      <path d="M 55.296 324.72 
L 55.296 55.44 
" clip-path="url(#p7cdce234ac)" style="fill: none; stroke-dasharray: 2.22,0.96; stroke-dashoffset: 0; stroke: #e2d5f5; stroke-opacity: 0.7; stroke-width: 0.6"/>
     </g>
     <g id="line2d_2">
      <defs>
       <path id="meac502d8ab" d="M 0 0 
L 0 3.5 
" style="stroke: #9b8bb8; stroke-width: 0.8"/>
      </defs>
      <g>
       <use xlink:href="#meac502d8ab" x="55.296" y="324.72" style="fill: #9b8bb8; stroke: #9b8bb8; stroke-width: 0.8"/>
      </g>
     </g>
     <g id="text_1">
      <!-- 03/29 -->
      <g style="fill: #9b8bb8" transform="translate(43.755619 353.301793) rotate(-30) scale(0.1 -0.1)">
       <defs>
        <path id="JetBrainsMono-Regular-30" d="M 1920 -64 
Q 1274 -64 893 310 
Q 512 685 512 1312 
L 512 3360 
Q 512 3987 893 4361 
Q 1274 4736 1920 4736 
Q 2566 4736 2947 4361 
Q 3328 3987 3328 3360 
L 3328 1312 
Q 3328 896 3155 585 
Q 2982 275 2665 105 
Q 2349 -64 1920 -64 
z
M 1920 429 
Q 2304 429 2537 675 
Q 2771 922 2771 1312 
L 2771 3360 
Q 2771 3750 2537 3996 
Q 2304 4243 1920 4243 
Q 1536 4243 1302 3996 
Q 1069 3750 1069 3360 
L 1069 1312 
Q 1069 922 1302 675 
Q 1536 429 1920 429 
z
M 1920 1984 
Q 1747 1984 1641 2080 
Q 1536 2176 1536 2355 
Q 1536 2528 1641 2621 
Q 1747 2714 1920 2714 
Q 2093 2714 2198 2621 
Q 2304 2528 2304 2355 
Q 2304 2176 2198 2080 
Q 2093 1984 1920 1984 
z
" transform="scale(0.015625)"/>
        <path id="JetBrainsMono-Regular-33" d="M 1850 -64 
Q 1203 -64 825 297 
Q 448 659 448 1280 
L 1024 1280 
Q 1024 896 1248 672 
Q 1472 448 1856 448 
Q 2240 448 2464 672 
Q 2688 896 2688 1280 
L 2688 1600 
Q 2688 1984 2464 2208 
Q 2240 2432 1856 2432 
L 1350 2432 
L 1350 2931 
L 2496 4147 
L 576 4147 
L 576 4672 
L 3149 4672 
L 3149 4134 
L 2022 2938 
Q 2598 2893 2931 2537 
Q 3264 2182 3264 1600 
L 3264 1280 
Q 3264 659 2883 297 
Q 2502 -64 1850 -64 
z
" transform="scale(0.015625)"/>
        <path id="JetBrainsMono-Regular-2f" d="M 480 -704 
L 2752 5312 
L 3360 5312 
L 1088 -704 
L 480 -704 
z
" transform="scale(0.015625)"/>
        <path id="JetBrainsMono-Regular-32" d="M 550 0 
L 550 531 
L 2106 2195 
Q 2445 2554 2585 2835 
Q 2726 3117 2726 3386 
Q 2726 3770 2505 3997 
Q 2285 4224 1907 4224 
Q 1517 4224 1289 3990 
Q 1062 3757 1062 3360 
L 486 3360 
Q 506 3994 890 4365 
Q 1274 4736 1907 4736 
Q 2554 4736 2934 4371 
Q 3315 4006 3315 3379 
Q 3315 3046 3132 2675 
Q 2950 2304 2509 1843 
L 1248 525 
L 3373 525 
L 3373 0 
L 550 0 
z
" transform="scale(0.015625)"/>
        <path id="JetBrainsMono-Regular-39" d="M 1248 0 
L 2400 2003 
L 2381 2016 
Q 2317 1914 2144 1853 
Q 1971 1792 1766 1792 
Q 1363 1792 1059 1974 
Q 755 2157 582 2477 
Q 410 2797 410 3219 
Q 410 3674 602 4013 
Q 794 4352 1133 4544 
Q 1472 4736 1914 4736 
Q 2368 4736 2707 4547 
Q 3046 4358 3238 4022 
Q 3430 3686 3430 3245 
Q 3430 2938 3315 2614 
Q 3200 2291 3002 1939 
L 1920 0 
L 1248 0 
z
M 1920 2240 
Q 2336 2240 2595 2515 
Q 2854 2790 2854 3232 
Q 2854 3674 2595 3949 
Q 2336 4224 1920 4224 
Q 1504 4224 1245 3949 
Q 986 3674 986 3232 
Q 986 2790 1245 2515 
Q 1504 2240 1920 2240 
z
" transform="scale(0.015625)"/>
       </defs>
       <use xlink:href="#JetBrainsMono-Regular-30"/>
       <use xlink:href="#JetBrainsMono-Regular-33" transform="translate(59.999985 0)"/>
       <use xlink:href="#JetBrainsMono-Regular-2f" transform="translate(119.999969 0)"/>
       <use xlink:href="#JetBrainsMono-Regular-32" transform="translate(179.999954 0)"/>
       <use xlink:href="#JetBrainsMono-Regular-39" transform="translate(239.999939 0)"/>
      </g>
     </g>
    </g>
    <g id="xtick_2">
     <g id="line2d_3">
      <path d="M 130.796308 324.72 
L 130.796308 55.44 
" clip-path="url(#p7cdce234ac)" style="fill: none; stroke-dasharray: 2.22,0.96; stroke-dashoffset: 0; stroke: #e2d5f5; stroke-opacity: 0.7; stroke-width: 0.6"/>
     </g>
     <g id="line2d_4">
      <g>
       <use xlink:href="#meac502d8ab" x="130.796308" y="324.72" style="fill: #9b8bb8; stroke: #9b8bb8; stroke-width: 0.8"/>
      </g>
     </g>
     <g id="text_2">
      <!-- 03/30 -->
      <g style="fill: #9b8bb8" transform="translate(119.255927 353.301793) rotate(-30) scale(0.1 -0.1)">
       <use xlink:href="#JetBrainsMono-Regular-30"/>
       <use xlink:href="#JetBrainsMono-Regular-33" transform="translate(59.999985 0)"/>
       <use xlink:href="#JetBrainsMono-Regular-2f" transform="translate(119.999969 0)"/>
       <use xlink:href="#JetBrainsMono-Regular-33" transform="translate(179.999954 0)"/>
       <use xlink:href="#JetBrainsMono-Regular-30" transform="translate(239.999939 0)"/>
      </g>
     </g>
    </g>
    <g id="xtick_3">
     <g id="line2d_5">
      <path d="M 206.296615 324.72 
L 206.296615 55.44 
" clip-path="url(#p7cdce234ac)" style="fill: none; stroke-dasharray: 2.22,0.96; stroke-dashoffset: 0; stroke: #e2d5f5; stroke-opacity: 0.7; stroke-width: 0.6"/>
     </g>
     <g id="line2d_6">
      <g>
       <use xlink:href="#meac502d8ab" x="206.296615" y="324.72" style="fill: #9b8bb8; stroke: #9b8bb8; stroke-width: 0.8"/>
      </g>
     </g>
     <g id="text_3">
      <!-- 03/31 -->
      <g style="fill: #9b8bb8" transform="translate(194.756234 353.301793) rotate(-30) scale(0.1 -0.1)">
       <defs>
        <path id="JetBrainsMono-Regular-31" d="M 576 0 
L 576 525 
L 1843 525 
L 1843 4173 
L 576 3226 
L 576 3885 
L 1632 4672 
L 2419 4672 
L 2419 525 
L 3456 525 
L 3456 0 
L 576 0 
z
" transform="scale(0.015625)"/>
       </defs>
       <use xlink:href="#JetBrainsMono-Regular-30"/>
       <use xlink:href="#JetBrainsMono-Regular-33" transform="translate(59.999985 0)"/>
       <use xlink:href="#JetBrainsMono-Regular-2f" transform="translate(119.999969 0)"/>
       <use xlink:href="#JetBrainsMono-Regular-33" transform="translate(179.999954 0)"/>
       <use xlink:href="#JetBrainsMono-Regular-31" transform="translate(239.999939 0)"/>
      </g>
     </g>
    </g>
    <g id="xtick_4">
     <g id="line2d_7">
      <path d="M 281.796923 324.72 
L 281.796923 55.44 
" clip-path="url(#p7cdce234ac)" style="fill: none; stroke-dasharray: 2.22,0.96; stroke-dashoffset: 0; stroke: #e2d5f5; stroke-opacity: 0.7; stroke-width: 0.6"/>
     </g>
     <g id="line2d_8">
      <g>
       <use xlink:href="#meac502d8ab" x="281.796923" y="324.72" style="fill: #9b8bb8; stroke: #9b8bb8; stroke-width: 0.8"/>
      </g>
     </g>
     <g id="text_4">
      <!-- 04/01 -->
      <g style="fill: #9b8bb8" transform="translate(270.256542 353.301793) rotate(-30) scale(0.1 -0.1)">
       <defs>
        <path id="JetBrainsMono-Regular-34" d="M 2560 0 
L 2560 1024 
L 448 1024 
L 448 1926 
L 2150 4672 
L 2803 4672 
L 1024 1798 
L 1024 1549 
L 2560 1549 
L 2560 2688 
L 3136 2688 
L 3136 0 
L 2560 0 
z
" transform="scale(0.015625)"/>
       </defs>
       <use xlink:href="#JetBrainsMono-Regular-30"/>
       <use xlink:href="#JetBrainsMono-Regular-34" transform="translate(59.999985 0)"/>
       <use xlink:href="#JetBrainsMono-Regular-2f" transform="translate(119.999969 0)"/>
       <use xlink:href="#JetBrainsMono-Regular-30" transform="translate(179.999954 0)"/>
       <use xlink:href="#JetBrainsMono-Regular-31" transform="translate(239.999939 0)"/>
      </g>
     </g>
    </g>
    <g id="xtick_5">
     <g id="line2d_9">
      <path d="M 357.297231 324.72 
L 357.297231 55.44 
" clip-path="url(#p7cdce234ac)" style="fill: none; stroke-dasharray: 2.22,0.96; stroke-dashoffset: 0; stroke: #e2d5f5; stroke-opacity: 0.7; stroke-width: 0.6"/>
     </g>
     <g id="line2d_10">
      <g>
       <use xlink:href="#meac502d8ab" x="357.297231" y="324.72" style="fill: #9b8bb8; stroke: #9b8bb8; stroke-width: 0.8"/>
      </g>
     </g>
     <g id="text_5">
      <!-- 04/02 -->
      <g style="fill: #9b8bb8" transform="translate(345.75685 353.301793) rotate(-30) scale(0.1 -0.1)">
       <use xlink:href="#JetBrainsMono-Regular-30"/>
       <use xlink:href="#JetBrainsMono-Regular-34" transform="translate(59.999985 0)"/>
       <use xlink:href="#JetBrainsMono-Regular-2f" transform="translate(119.999969 0)"/>
       <use xlink:href="#JetBrainsMono-Regular-30" transform="translate(179.999954 0)"/>
       <use xlink:href="#JetBrainsMono-Regular-32" transform="translate(239.999939 0)"/>
      </g>
     </g>
    </g>
    <g id="xtick_6">
     <g id="line2d_11">
      <path d="M 432.797538 324.72 
L 432.797538 55.44 
" clip-path="url(#p7cdce234ac)" style="fill: none; stroke-dasharray: 2.22,0.96; stroke-dashoffset: 0; stroke: #e2d5f5; stroke-opacity: 0.7; stroke-width: 0.6"/>
     </g>
     <g id="line2d_12">
      <g>
       <use xlink:href="#meac502d8ab" x="432.797538" y="324.72" style="fill: #9b8bb8; stroke: #9b8bb8; stroke-width: 0.8"/>
      </g>
     </g>
     <g id="text_6">
      <!-- 04/03 -->
      <g style="fill: #9b8bb8" transform="translate(421.257157 353.301793) rotate(-30) scale(0.1 -0.1)">
       <use xlink:href="#JetBrainsMono-Regular-30"/>
       <use xlink:href="#JetBrainsMono-Regular-34" transform="translate(59.999985 0)"/>
       <use xlink:href="#JetBrainsMono-Regular-2f" transform="translate(119.999969 0)"/>
       <use xlink:href="#JetBrainsMono-Regular-30" transform="translate(179.999954 0)"/>
       <use xlink:href="#JetBrainsMono-Regular-33" transform="translate(239.999939 0)"/>
      </g>
     </g>
    </g>
    <g id="xtick_7">
     <g id="line2d_13">
      <path d="M 508.297846 324.72 
L 508.297846 55.44 
" clip-path="url(#p7cdce234ac)" style="fill: none; stroke-dasharray: 2.22,0.96; stroke-dashoffset: 0; stroke: #e2d5f5; stroke-opacity: 0.7; stroke-width: 0.6"/>
     </g>
     <g id="line2d_14">
      <g>
       <use xlink:href="#meac502d8ab" x="508.297846" y="324.72" style="fill: #9b8bb8; stroke: #9b8bb8; stroke-width: 0.8"/>
      </g>
     </g>
     <g id="text_7">
      <!-- 04/04 -->
      <g style="fill: #9b8bb8" transform="translate(496.757465 353.301793) rotate(-30) scale(0.1 -0.1)">
       <use xlink:href="#JetBrainsMono-Regular-30"/>
       <use xlink:href="#JetBrainsMono-Regular-34" transform="translate(59.999985 0)"/>
       <use xlink:href="#JetBrainsMono-Regular-2f" transform="translate(119.999969 0)"/>
       <use xlink:href="#JetBrainsMono-Regular-30" transform="translate(179.999954 0)"/>
       <use xlink:href="#JetBrainsMono-Regular-34" transform="translate(239.999939 0)"/>
      </g>
     </g>
    </g>
   </g>
   <g id="matplotlib.axis_2">
    <g id="ytick_1">
     <g id="line2d_15">
      <path d="M 55.296 323.608769 
L 546.048 323.608769 
" clip-path="url(#p7cdce234ac)" style="fill: none; stroke-dasharray: 2.22,0.96; stroke-dashoffset: 0; stroke: #e2d5f5; stroke-opacity: 0.7; stroke-width: 0.6"/>
     </g>
     <g id="line2d_16">
      <defs>
       <path id="ma449c3bdf9" d="M 0 0 
L -3.5 0 
" style="stroke: #9b8bb8; stroke-width: 0.8"/>
      </defs>
      <g>
       <use xlink:href="#ma449c3bdf9" x="55.296" y="323.608769" style="fill: #9b8bb8; stroke: #9b8bb8; stroke-width: 0.8"/>
      </g>
     </g>
     <g id="text_8">
      <!-- 195 -->
      <g style="fill: #9b8bb8" transform="translate(30.296 327.258769) scale(0.1 -0.1)">
       <defs>
        <path id="JetBrainsMono-Regular-35" d="M 1882 -64 
Q 1235 -64 857 297 
Q 480 659 480 1280 
L 1056 1280 
Q 1056 896 1280 672 
Q 1504 448 1888 448 
Q 2272 448 2496 672 
Q 2720 896 2720 1280 
L 2720 1568 
Q 2720 1952 2502 2176 
Q 2285 2400 1914 2400 
L 640 2400 
L 640 4672 
L 3130 4672 
L 3130 4147 
L 1178 4147 
L 1190 2925 
L 1946 2925 
Q 2592 2925 2944 2569 
Q 3296 2214 3296 1568 
L 3296 1280 
Q 3296 659 2915 297 
Q 2534 -64 1882 -64 
z
" transform="scale(0.015625)"/>
       </defs>
       <use xlink:href="#JetBrainsMono-Regular-31"/>
       <use xlink:href="#JetBrainsMono-Regular-39" transform="translate(59.999985 0)"/>
       <use xlink:href="#JetBrainsMono-Regular-35" transform="translate(119.999969 0)"/>
      </g>
     </g>
    </g>
    <g id="ytick_2">
     <g id="line2d_17">
      <path d="M 55.296 267.964923 
L 546.048 267.964923 
" clip-path="url(#p7cdce234ac)" style="fill: none; stroke-dasharray: 2.22,0.96; stroke-dashoffset: 0; stroke: #e2d5f5; stroke-opacity: 0.7; stroke-width: 0.6"/>
     </g>
     <g id="line2d_18">
      <g>
       <use xlink:href="#ma449c3bdf9" x="55.296" y="267.964923" style="fill: #9b8bb8; stroke: #9b8bb8; stroke-width: 0.8"/>
      </g>
     </g>
     <g id="text_9">
      <!-- 200 -->
      <g style="fill: #9b8bb8" transform="translate(30.296 271.614923) scale(0.1 -0.1)">
       <use xlink:href="#JetBrainsMono-Regular-32"/>
       <use xlink:href="#JetBrainsMono-Regular-30" transform="translate(59.999985 0)"/>
       <use xlink:href="#JetBrainsMono-Regular-30" transform="translate(119.999969 0)"/>
      </g>
     </g>
    </g>
    <g id="ytick_3">
     <g id="line2d_19">
      <path d="M 55.296 212.321076 
L 546.048 212.321076 
" clip-path="url(#p7cdce234ac)" style="fill: none; stroke-dasharray: 2.22,0.96; stroke-dashoffset: 0; stroke: #e2d5f5; stroke-opacity: 0.7; stroke-width: 0.6"/>
     </g>
     <g id="line2d_20">
      <g>
       <use xlink:href="#ma449c3bdf9" x="55.296" y="212.321076" style="fill: #9b8bb8; stroke: #9b8bb8; stroke-width: 0.8"/>
      </g>
     </g>
     <g id="text_10">
      <!-- 205 -->
      <g style="fill: #9b8bb8" transform="translate(30.296 215.971076) scale(0.1 -0.1)">
       <use xlink:href="#JetBrainsMono-Regular-32"/>
       <use xlink:href="#JetBrainsMono-Regular-30" transform="translate(59.999985 0)"/>
       <use xlink:href="#JetBrainsMono-Regular-35" transform="translate(119.999969 0)"/>
      </g>
     </g>
    </g>
    <g id="ytick_4">
     <g id="line2d_21">
      <path d="M 55.296 156.677229 
L 546.048 156.677229 
" clip-path="url(#p7cdce234ac)" style="fill: none; stroke-dasharray: 2.22,0.96; stroke-dashoffset: 0; stroke: #e2d5f5; stroke-opacity: 0.7; stroke-width: 0.6"/>
     </g>
     <g id="line2d_22">
      <g>
       <use xlink:href="#ma449c3bdf9" x="55.296" y="156.677229" style="fill: #9b8bb8; stroke: #9b8bb8; stroke-width: 0.8"/>
      </g>
     </g>
     <g id="text_11">
      <!-- 210 -->
      <g style="fill: #9b8bb8" transform="translate(30.296 160.327229) scale(0.1 -0.1)">
       <use xlink:href="#JetBrainsMono-Regular-32"/>
       <use xlink:href="#JetBrainsMono-Regular-31" transform="translate(59.999985 0)"/>
       <use xlink:href="#JetBrainsMono-Regular-30" transform="translate(119.999969 0)"/>
      </g>
     </g>
    </g>
    <g id="ytick_5">
     <g id="line2d_23">
      <path d="M 55.296 101.033383 
L 546.048 101.033383 
" clip-path="url(#p7cdce234ac)" style="fill: none; stroke-dasharray: 2.22,0.96; stroke-dashoffset: 0; stroke: #e2d5f5; stroke-opacity: 0.7; stroke-width: 0.6"/>
     </g>
     <g id="line2d_24">
      <g>
       <use xlink:href="#ma449c3bdf9" x="55.296" y="101.033383" style="fill: #9b8bb8; stroke: #9b8bb8; stroke-width: 0.8"/>
      </g>
     </g>
     <g id="text_12">
      <!-- 215 -->
      <g style="fill: #9b8bb8" transform="translate(30.296 104.683383) scale(0.1 -0.1)">
       <use xlink:href="#JetBrainsMono-Regular-32"/>
       <use xlink:href="#JetBrainsMono-Regular-31" transform="translate(59.999985 0)"/>
       <use xlink:href="#JetBrainsMono-Regular-35" transform="translate(119.999969 0)"/>
      </g>
     </g>
    </g>
    <g id="text_13">
     <!-- Rating -->
     <g style="fill: #9b8bb8" transform="translate(24.496 208.08) rotate(-90) scale(0.1 -0.1)">
      <defs>
       <path id="JetBrainsMono-Regular-52" d="M 595 0 
L 595 4672 
L 2035 4672 
Q 2451 4672 2764 4502 
Q 3078 4333 3251 4032 
Q 3424 3731 3424 3328 
Q 3424 2854 3181 2515 
Q 2938 2176 2534 2042 
L 3488 0 
L 2854 0 
L 1939 1984 
L 1165 1984 
L 1165 0 
L 595 0 
z
M 1165 2502 
L 2035 2502 
Q 2394 2502 2611 2729 
Q 2829 2957 2829 3328 
Q 2829 3706 2611 3930 
Q 2394 4154 2035 4154 
L 1165 4154 
L 1165 2502 
z
" transform="scale(0.015625)"/>
       <path id="JetBrainsMono-Regular-61" d="M 1613 -64 
Q 1069 -64 749 240 
Q 429 544 429 1037 
Q 429 1363 576 1606 
Q 723 1850 985 1987 
Q 1248 2125 1587 2125 
L 2675 2125 
L 2675 2400 
Q 2675 3085 1926 3085 
Q 1594 3085 1389 2963 
Q 1184 2842 1171 2624 
L 595 2624 
Q 627 3040 982 3312 
Q 1338 3584 1926 3584 
Q 2566 3584 2908 3277 
Q 3251 2970 3251 2419 
L 3251 0 
L 2682 0 
L 2682 640 
L 2669 640 
Q 2618 314 2342 125 
Q 2067 -64 1613 -64 
z
M 1754 422 
Q 2176 422 2425 627 
Q 2675 832 2675 1184 
L 2675 1677 
L 1651 1677 
Q 1370 1677 1194 1507 
Q 1018 1338 1018 1056 
Q 1018 762 1213 592 
Q 1408 422 1754 422 
z
" transform="scale(0.015625)"/>
       <path id="JetBrainsMono-Regular-74" d="M 2272 0 
Q 1837 0 1574 253 
Q 1312 506 1312 928 
L 1312 2995 
L 301 2995 
L 301 3520 
L 1312 3520 
L 1312 4512 
L 1888 4512 
L 1888 3520 
L 3328 3520 
L 3328 2995 
L 1888 2995 
L 1888 928 
Q 1888 749 1993 637 
Q 2099 525 2272 525 
L 3296 525 
L 3296 0 
L 2272 0 
z
" transform="scale(0.015625)"/>
       <path id="JetBrainsMono-Regular-69" d="M 544 0 
L 544 525 
L 1792 525 
L 1792 2995 
L 672 2995 
L 672 3520 
L 2368 3520 
L 2368 525 
L 3552 525 
L 3552 0 
L 544 0 
z
M 2016 4154 
Q 1805 4154 1683 4262 
Q 1562 4371 1562 4557 
Q 1562 4749 1683 4861 
Q 1805 4973 2016 4973 
Q 2227 4973 2348 4861 
Q 2470 4749 2470 4557 
Q 2470 4371 2348 4262 
Q 2227 4154 2016 4154 
z
" transform="scale(0.015625)"/>
       <path id="JetBrainsMono-Regular-6e" d="M 589 0 
L 589 3520 
L 1165 3520 
L 1165 2848 
L 1171 2848 
Q 1216 3200 1459 3392 
Q 1702 3584 2106 3584 
Q 2637 3584 2950 3257 
Q 3264 2931 3264 2368 
L 3264 0 
L 2688 0 
L 2688 2266 
Q 2688 2669 2486 2883 
Q 2285 3098 1939 3098 
Q 1581 3098 1373 2874 
Q 1165 2650 1165 2240 
L 1165 0 
L 589 0 
z
" transform="scale(0.015625)"/>
       <path id="JetBrainsMono-Regular-67" d="M 1030 -1152 
L 1030 -627 
L 2022 -627 
Q 2323 -627 2496 -457 
Q 2669 -288 2669 0 
L 2669 320 
L 2682 896 
L 2662 896 
Q 2611 582 2361 412 
Q 2112 243 1734 243 
Q 1190 243 876 588 
Q 563 934 563 1536 
L 563 2278 
Q 563 2880 876 3232 
Q 1190 3584 1734 3584 
Q 2112 3584 2361 3405 
Q 2611 3226 2662 2912 
L 2675 2912 
L 2675 3520 
L 3245 3520 
L 3245 0 
Q 3245 -531 2915 -841 
Q 2586 -1152 2016 -1152 
L 1030 -1152 
z
M 1907 723 
Q 2266 723 2470 947 
Q 2675 1171 2675 1568 
L 2675 2240 
Q 2675 2637 2470 2861 
Q 2266 3085 1907 3085 
Q 1542 3085 1340 2873 
Q 1139 2662 1139 2304 
L 1139 1504 
Q 1139 1146 1340 934 
Q 1542 723 1907 723 
z
" transform="scale(0.015625)"/>
      </defs>
      <use xlink:href="#JetBrainsMono-Regular-52"/>
      <use xlink:href="#JetBrainsMono-Regular-61" transform="translate(59.999985 0)"/>
      <use xlink:href="#JetBrainsMono-Regular-74" transform="translate(119.999969 0)"/>
      <use xlink:href="#JetBrainsMono-Regular-69" transform="translate(179.999954 0)"/>
      <use xlink:href="#JetBrainsMono-Regular-6e" transform="translate(239.999939 0)"/>
      <use xlink:href="#JetBrainsMono-Regular-67" transform="translate(299.999924 0)"/>
     </g>
    </g>
   </g>
   <g id="patch_3">
    <path d="M 55.296 324.72 
L 55.296 55.44 
" style="fill: none; stroke: #d8c8ef; stroke-width: 0.8; stroke-linejoin: miter; stroke-linecap: square"/>
   </g>
   <g id="patch_4">
    <path d="M 55.296 324.72 
L 546.048 324.72 
" style="fill: none; stroke: #d8c8ef; stroke-width: 0.8; stroke-linejoin: miter; stroke-linecap: square"/>
   </g>
   <g id="FillBetweenPolyCollection_1">
    <defs>
     <path id="mb7bbc8d40a" d="M 55.296 -83.52 
L 55.296 -139.163847 
L 56.811056 -139.281195 
L 58.326113 -139.391407 
L 59.841169 -139.494629 
L 61.356225 -139.591008 
L 62.871282 -139.680688 
L 64.386338 -139.763818 
L 65.901394 -139.840542 
L 67.416451 -139.911006 
L 68.931507 -139.975358 
L 70.446563 -140.033742 
L 71.96162 -140.086306 
L 73.476676 -140.133195 
L 74.991732 -140.174555 
L 76.506789 -140.210533 
L 78.021845 -140.241275 
L 79.536901 -140.266926 
L 81.051958 -140.287633 
L 82.567014 -140.303542 
L 84.08207 -140.3148 
L 85.597127 -140.321552 
L 87.112183 -140.323944 
L 88.62724 -140.322123 
L 90.142296 -140.316234 
L 91.657352 -140.306424 
L 93.172409 -140.29284 
L 94.687465 -140.275626 
L 96.202521 -140.25493 
L 97.717578 -140.230897 
L 99.232634 -140.203673 
L 100.74769 -140.173405 
L 102.262747 -140.140239 
L 103.777803 -140.104321 
L 105.292859 -140.065796 
L 106.807916 -140.024812 
L 108.322972 -139.981514 
L 109.838028 -139.936049 
L 111.353085 -139.888562 
L 112.868141 -139.839199 
L 114.383197 -139.788108 
L 115.898254 -139.735433 
L 117.41331 -139.681322 
L 118.928366 -139.625919 
L 120.443423 -139.569372 
L 121.958479 -139.511827 
L 123.473535 -139.453428 
L 124.988592 -139.394324 
L 126.503648 -139.33466 
L 128.018704 -139.274581 
L 129.533761 -139.214235 
L 131.048817 -139.153766 
L 132.563873 -139.093322 
L 134.07893 -139.033049 
L 135.593986 -138.973092 
L 137.109042 -138.913598 
L 138.624099 -138.854713 
L 140.139155 -138.796583 
L 141.654211 -138.739354 
L 143.169268 -138.683172 
L 144.684324 -138.628184 
L 146.19938 -138.574535 
L 147.714437 -138.522372 
L 149.229493 -138.471841 
L 150.74455 -138.423087 
L 152.259606 -138.376258 
L 153.774662 -138.331499 
L 155.289719 -138.288956 
L 156.804775 -138.248775 
L 158.319831 -138.211103 
L 159.834888 -138.176086 
L 161.349944 -138.14387 
L 162.865 -138.1146 
L 164.380057 -138.088424 
L 165.895113 -138.065487 
L 167.410169 -138.045935 
L 168.925226 -138.029915 
L 170.440282 -138.017572 
L 171.955338 -138.009054 
L 173.470395 -138.004505 
L 174.985451 -138.004072 
L 176.500507 -138.007901 
L 178.015564 -138.016138 
L 179.53062 -138.02893 
L 181.045676 -138.046422 
L 182.560733 -138.068761 
L 184.075789 -138.096093 
L 185.590845 -138.128564 
L 187.105902 -138.16632 
L 188.620958 -138.209507 
L 190.136014 -138.258271 
L 191.651071 -138.312759 
L 193.166127 -138.373116 
L 194.681183 -138.439489 
L 196.19624 -138.512024 
L 197.711296 -138.590867 
L 199.226352 -138.676163 
L 200.741409 -138.76806 
L 202.256465 -138.866704 
L 203.771521 -138.97224 
L 205.286578 -139.084814 
L 206.801634 -139.204568 
L 208.316691 -139.331318 
L 209.831747 -139.464375 
L 211.346803 -139.603009 
L 212.86186 -139.74649 
L 214.376916 -139.894088 
L 215.891972 -140.04507 
L 217.407029 -140.198707 
L 218.922085 -140.354269 
L 220.437141 -140.511023 
L 221.952198 -140.668241 
L 223.467254 -140.82519 
L 224.98231 -140.981141 
L 226.497367 -141.135363 
L 228.012423 -141.287125 
L 229.527479 -141.435696 
L 231.042536 -141.580346 
L 232.557592 -141.720345 
L 234.072648 -141.854961 
L 235.587705 -141.983463 
L 237.102761 -142.105122 
L 238.617817 -142.219207 
L 240.132874 -142.324986 
L 241.64793 -142.42173 
L 243.162986 -142.508707 
L 244.678043 -142.585188 
L 246.193099 -142.65044 
L 247.708155 -142.703735 
L 249.223212 -142.74434 
L 250.738268 -142.771526 
L 252.253324 -142.784561 
L 253.768381 -142.782716 
L 255.283437 -142.765258 
L 256.798493 -142.731459 
L 258.31355 -142.680587 
L 259.828606 -142.611911 
L 261.343662 -142.524701 
L 262.858719 -142.418226 
L 264.373775 -142.291755 
L 265.888831 -142.144559 
L 267.403888 -141.975905 
L 268.918944 -141.785064 
L 270.434001 -141.571305 
L 271.949057 -141.333897 
L 273.464113 -141.07211 
L 274.97917 -140.785213 
L 276.494226 -140.472475 
L 278.009282 -140.133165 
L 279.524339 -139.766554 
L 281.039395 -139.371909 
L 282.554451 -138.948575 
L 284.069508 -138.497573 
L 285.584564 -138.021607 
L 287.09962 -137.523454 
L 288.614677 -137.00589 
L 290.129733 -136.471691 
L 291.644789 -135.923634 
L 293.159846 -135.364496 
L 294.674902 -134.797052 
L 296.189958 -134.22408 
L 297.705015 -133.648356 
L 299.220071 -133.072656 
L 300.735127 -132.499757 
L 302.250184 -131.932436 
L 303.76524 -131.373468 
L 305.280296 -130.82563 
L 306.795353 -130.291699 
L 308.310409 -129.774452 
L 309.825465 -129.276664 
L 311.340522 -128.801112 
L 312.855578 -128.350573 
L 314.370634 -127.927823 
L 315.885691 -127.535639 
L 317.400747 -127.176796 
L 318.915803 -126.854073 
L 320.43086 -126.570244 
L 321.945916 -126.328087 
L 323.460972 -126.130378 
L 324.976029 -125.979893 
L 326.491085 -125.87941 
L 328.006141 -125.831704 
L 329.521198 -125.839551 
L 331.036254 -125.90573 
L 332.551311 -126.033015 
L 334.066367 -126.224183 
L 335.581423 -126.482011 
L 337.09648 -126.809276 
L 338.611536 -127.208753 
L 340.126592 -127.68322 
L 341.641649 -128.235452 
L 343.156705 -128.868227 
L 344.671761 -129.58432 
L 346.186818 -130.386508 
L 347.701874 -131.277568 
L 349.21693 -132.260277 
L 350.731987 -133.33741 
L 352.247043 -134.511744 
L 353.762099 -135.786055 
L 355.277156 -137.163121 
L 356.792212 -138.645717 
L 358.307268 -140.236317 
L 359.822325 -141.933871 
L 361.337381 -143.735056 
L 362.852437 -145.636511 
L 364.367494 -147.634874 
L 365.88255 -149.726785 
L 367.397606 -151.908884 
L 368.912663 -154.177808 
L 370.427719 -156.530197 
L 371.942775 -158.962689 
L 373.457832 -161.471925 
L 374.972888 -164.054542 
L 376.487944 -166.70718 
L 378.003001 -169.426479 
L 379.518057 -172.209075 
L 381.033113 -175.05161 
L 382.54817 -177.950722 
L 384.063226 -180.903049 
L 385.578282 -183.905231 
L 387.093339 -186.953907 
L 388.608395 -190.045716 
L 390.123452 -193.177297 
L 391.638508 -196.345289 
L 393.153564 -199.54633 
L 394.668621 -202.77706 
L 396.183677 -206.034118 
L 397.698733 -209.314143 
L 399.21379 -212.613774 
L 400.728846 -215.92965 
L 402.243902 -219.258409 
L 403.758959 -222.596691 
L 405.274015 -225.941135 
L 406.789071 -229.28838 
L 408.304128 -232.635065 
L 409.819184 -235.977829 
L 411.33424 -239.31331 
L 412.849297 -242.638148 
L 414.364353 -245.948982 
L 415.879409 -249.242451 
L 417.394466 -252.515194 
L 418.909522 -255.76385 
L 420.424578 -258.985057 
L 421.939635 -262.175455 
L 423.454691 -265.331683 
L 424.969747 -268.45038 
L 426.484804 -271.528185 
L 427.99986 -274.561737 
L 429.514916 -277.547674 
L 431.029973 -280.482636 
L 432.545029 -283.363262 
L 434.060085 -286.186191 
L 435.575142 -288.948062 
L 437.090198 -291.645514 
L 438.605254 -294.275185 
L 440.120311 -296.833715 
L 441.635367 -299.317743 
L 443.150423 -301.723908 
L 444.66548 -304.048849 
L 446.180536 -306.289204 
L 447.695592 -308.441614 
L 449.210649 -310.502716 
L 450.725705 -312.46915 
L 452.240762 -314.337555 
L 453.755818 -316.10457 
L 455.270874 -317.766833 
L 456.785931 -319.320984 
L 458.300987 -320.763663 
L 459.816043 -322.091507 
L 461.3311 -323.301155 
L 462.846156 -324.389248 
L 464.361212 -325.352424 
L 465.876269 -326.187321 
L 467.391325 -326.890579 
L 468.906381 -327.458837 
L 470.421438 -327.888734 
L 471.936494 -328.176909 
L 473.45155 -328.32 
L 474.966607 -328.314647 
L 476.481663 -328.157489 
L 477.996719 -327.845165 
L 479.511776 -327.374314 
L 481.026832 -326.741575 
L 482.541888 -325.943586 
L 484.056945 -324.976987 
L 485.572001 -323.838418 
L 487.087057 -322.524515 
L 488.602114 -321.03192 
L 490.11717 -319.357271 
L 491.632226 -317.497206 
L 493.147283 -315.448365 
L 494.662339 -313.207387 
L 496.177395 -310.770911 
L 497.692452 -308.135576 
L 499.207508 -305.298021 
L 500.722564 -302.254884 
L 502.237621 -299.002805 
L 503.752677 -295.538423 
L 505.267733 -291.858377 
L 506.78279 -287.959306 
L 508.297846 -283.837848 
L 508.297846 -83.52 
L 508.297846 -83.52 
L 506.78279 -83.52 
L 505.267733 -83.52 
L 503.752677 -83.52 
L 502.237621 -83.52 
L 500.722564 -83.52 
L 499.207508 -83.52 
L 497.692452 -83.52 
L 496.177395 -83.52 
L 494.662339 -83.52 
L 493.147283 -83.52 
L 491.632226 -83.52 
L 490.11717 -83.52 
L 488.602114 -83.52 
L 487.087057 -83.52 
L 485.572001 -83.52 
L 484.056945 -83.52 
L 482.541888 -83.52 
L 481.026832 -83.52 
L 479.511776 -83.52 
L 477.996719 -83.52 
L 476.481663 -83.52 
L 474.966607 -83.52 
L 473.45155 -83.52 
L 471.936494 -83.52 
L 470.421438 -83.52 
L 468.906381 -83.52 
L 467.391325 -83.52 
L 465.876269 -83.52 
L 464.361212 -83.52 
L 462.846156 -83.52 
L 461.3311 -83.52 
L 459.816043 -83.52 
L 458.300987 -83.52 
L 456.785931 -83.52 
L 455.270874 -83.52 
L 453.755818 -83.52 
L 452.240762 -83.52 
L 450.725705 -83.52 
L 449.210649 -83.52 
L 447.695592 -83.52 
L 446.180536 -83.52 
L 444.66548 -83.52 
L 443.150423 -83.52 
L 441.635367 -83.52 
L 440.120311 -83.52 
L 438.605254 -83.52 
L 437.090198 -83.52 
L 435.575142 -83.52 
L 434.060085 -83.52 
L 432.545029 -83.52 
L 431.029973 -83.52 
L 429.514916 -83.52 
L 427.99986 -83.52 
L 426.484804 -83.52 
L 424.969747 -83.52 
L 423.454691 -83.52 
L 421.939635 -83.52 
L 420.424578 -83.52 
L 418.909522 -83.52 
L 417.394466 -83.52 
L 415.879409 -83.52 
L 414.364353 -83.52 
L 412.849297 -83.52 
L 411.33424 -83.52 
L 409.819184 -83.52 
L 408.304128 -83.52 
L 406.789071 -83.52 
L 405.274015 -83.52 
L 403.758959 -83.52 
L 402.243902 -83.52 
L 400.728846 -83.52 
L 399.21379 -83.52 
L 397.698733 -83.52 
L 396.183677 -83.52 
L 394.668621 -83.52 
L 393.153564 -83.52 
L 391.638508 -83.52 
L 390.123452 -83.52 
L 388.608395 -83.52 
L 387.093339 -83.52 
L 385.578282 -83.52 
L 384.063226 -83.52 
L 382.54817 -83.52 
L 381.033113 -83.52 
L 379.518057 -83.52 
L 378.003001 -83.52 
L 376.487944 -83.52 
L 374.972888 -83.52 
L 373.457832 -83.52 
L 371.942775 -83.52 
L 370.427719 -83.52 
L 368.912663 -83.52 
L 367.397606 -83.52 
L 365.88255 -83.52 
L 364.367494 -83.52 
L 362.852437 -83.52 
L 361.337381 -83.52 
L 359.822325 -83.52 
L 358.307268 -83.52 
L 356.792212 -83.52 
L 355.277156 -83.52 
L 353.762099 -83.52 
L 352.247043 -83.52 
L 350.731987 -83.52 
L 349.21693 -83.52 
L 347.701874 -83.52 
L 346.186818 -83.52 
L 344.671761 -83.52 
L 343.156705 -83.52 
L 341.641649 -83.52 
L 340.126592 -83.52 
L 338.611536 -83.52 
L 337.09648 -83.52 
L 335.581423 -83.52 
L 334.066367 -83.52 
L 332.551311 -83.52 
L 331.036254 -83.52 
L 329.521198 -83.52 
L 328.006141 -83.52 
L 326.491085 -83.52 
L 324.976029 -83.52 
L 323.460972 -83.52 
L 321.945916 -83.52 
L 320.43086 -83.52 
L 318.915803 -83.52 
L 317.400747 -83.52 
L 315.885691 -83.52 
L 314.370634 -83.52 
L 312.855578 -83.52 
L 311.340522 -83.52 
L 309.825465 -83.52 
L 308.310409 -83.52 
L 306.795353 -83.52 
L 305.280296 -83.52 
L 303.76524 -83.52 
L 302.250184 -83.52 
L 300.735127 -83.52 
L 299.220071 -83.52 
L 297.705015 -83.52 
L 296.189958 -83.52 
L 294.674902 -83.52 
L 293.159846 -83.52 
L 291.644789 -83.52 
L 290.129733 -83.52 
L 288.614677 -83.52 
L 287.09962 -83.52 
L 285.584564 -83.52 
L 284.069508 -83.52 
L 282.554451 -83.52 
L 281.039395 -83.52 
L 279.524339 -83.52 
L 278.009282 -83.52 
L 276.494226 -83.52 
L 274.97917 -83.52 
L 273.464113 -83.52 
L 271.949057 -83.52 
L 270.434001 -83.52 
L 268.918944 -83.52 
L 267.403888 -83.52 
L 265.888831 -83.52 
L 264.373775 -83.52 
L 262.858719 -83.52 
L 261.343662 -83.52 
L 259.828606 -83.52 
L 258.31355 -83.52 
L 256.798493 -83.52 
L 255.283437 -83.52 
L 253.768381 -83.52 
L 252.253324 -83.52 
L 250.738268 -83.52 
L 249.223212 -83.52 
L 247.708155 -83.52 
L 246.193099 -83.52 
L 244.678043 -83.52 
L 243.162986 -83.52 
L 241.64793 -83.52 
L 240.132874 -83.52 
L 238.617817 -83.52 
L 237.102761 -83.52 
L 235.587705 -83.52 
L 234.072648 -83.52 
L 232.557592 -83.52 
L 231.042536 -83.52 
L 229.527479 -83.52 
L 228.012423 -83.52 
L 226.497367 -83.52 
L 224.98231 -83.52 
L 223.467254 -83.52 
L 221.952198 -83.52 
L 220.437141 -83.52 
L 218.922085 -83.52 
L 217.407029 -83.52 
L 215.891972 -83.52 
L 214.376916 -83.52 
L 212.86186 -83.52 
L 211.346803 -83.52 
L 209.831747 -83.52 
L 208.316691 -83.52 
L 206.801634 -83.52 
L 205.286578 -83.52 
L 203.771521 -83.52 
L 202.256465 -83.52 
L 200.741409 -83.52 
L 199.226352 -83.52 
L 197.711296 -83.52 
L 196.19624 -83.52 
L 194.681183 -83.52 
L 193.166127 -83.52 
L 191.651071 -83.52 
L 190.136014 -83.52 
L 188.620958 -83.52 
L 187.105902 -83.52 
L 185.590845 -83.52 
L 184.075789 -83.52 
L 182.560733 -83.52 
L 181.045676 -83.52 
L 179.53062 -83.52 
L 178.015564 -83.52 
L 176.500507 -83.52 
L 174.985451 -83.52 
L 173.470395 -83.52 
L 171.955338 -83.52 
L 170.440282 -83.52 
L 168.925226 -83.52 
L 167.410169 -83.52 
L 165.895113 -83.52 
L 164.380057 -83.52 
L 162.865 -83.52 
L 161.349944 -83.52 
L 159.834888 -83.52 
L 158.319831 -83.52 
L 156.804775 -83.52 
L 155.289719 -83.52 
L 153.774662 -83.52 
L 152.259606 -83.52 
L 150.74455 -83.52 
L 149.229493 -83.52 
L 147.714437 -83.52 
L 146.19938 -83.52 
L 144.684324 -83.52 
L 143.169268 -83.52 
L 141.654211 -83.52 
L 140.139155 -83.52 
L 138.624099 -83.52 
L 137.109042 -83.52 
L 135.593986 -83.52 
L 134.07893 -83.52 
L 132.563873 -83.52 
L 131.048817 -83.52 
L 129.533761 -83.52 
L 128.018704 -83.52 
L 126.503648 -83.52 
L 124.988592 -83.52 
L 123.473535 -83.52 
L 121.958479 -83.52 
L 120.443423 -83.52 
L 118.928366 -83.52 
L 117.41331 -83.52 
L 115.898254 -83.52 
L 114.383197 -83.52 
L 112.868141 -83.52 
L 111.353085 -83.52 
L 109.838028 -83.52 
L 108.322972 -83.52 
L 106.807916 -83.52 
L 105.292859 -83.52 
L 103.777803 -83.52 
L 102.262747 -83.52 
L 100.74769 -83.52 
L 99.232634 -83.52 
L 97.717578 -83.52 
L 96.202521 -83.52 
L 94.687465 -83.52 
L 93.172409 -83.52 
L 91.657352 -83.52 
L 90.142296 -83.52 
L 88.62724 -83.52 
L 87.112183 -83.52 
L 85.597127 -83.52 
L 84.08207 -83.52 
L 82.567014 -83.52 
L 81.051958 -83.52 
L 79.536901 -83.52 
L 78.021845 -83.52 
L 76.506789 -83.52 
L 74.991732 -83.52 
L 73.476676 -83.52 
L 71.96162 -83.52 
L 70.446563 -83.52 
L 68.931507 -83.52 
L 67.416451 -83.52 
L 65.901394 -83.52 
L 64.386338 -83.52 
L 62.871282 -83.52 
L 61.356225 -83.52 
L 59.841169 -83.52 
L 58.326113 -83.52 
L 56.811056 -83.52 
L 55.296 -83.52 
z
" style="stroke: #8b5cf6; stroke-opacity: 0.12"/>
    </defs>
    <g clip-path="url(#p7cdce234ac)">
     <use xlink:href="#mb7bbc8d40a" x="0" y="396" style="fill: #8b5cf6; fill-opacity: 0.12; stroke: #8b5cf6; stroke-opacity: 0.12"/>
    </g>
   </g>
   <g id="text_14">
    <!-- 214 -->
    <g style="fill: #8b5cf6" transform="translate(511.297846 109.162152) scale(0.12 -0.12)">
     <defs>
      <path id="JetBrainsMono-Bold-32" d="M 474 0 
L 474 723 
L 2157 2445 
Q 2566 2874 2566 3315 
Q 2566 3629 2384 3824 
Q 2202 4019 1894 4019 
Q 1581 4019 1392 3817 
Q 1203 3616 1203 3283 
L 403 3283 
Q 403 3718 595 4044 
Q 787 4371 1126 4553 
Q 1466 4736 1914 4736 
Q 2355 4736 2688 4563 
Q 3021 4390 3203 4080 
Q 3386 3770 3386 3354 
Q 3386 2995 3216 2636 
Q 3046 2278 2656 1894 
L 1478 723 
L 3443 723 
L 3443 0 
L 474 0 
z
" transform="scale(0.015625)"/>
      <path id="JetBrainsMono-Bold-31" d="M 538 0 
L 538 723 
L 1754 723 
L 1754 3898 
L 531 3002 
L 531 3898 
L 1606 4672 
L 2554 4672 
L 2554 723 
L 3533 723 
L 3533 0 
L 538 0 
z
" transform="scale(0.015625)"/>
      <path id="JetBrainsMono-Bold-34" d="M 2445 0 
L 2445 928 
L 378 928 
L 378 2086 
L 2106 4672 
L 2995 4672 
L 1146 1875 
L 1146 1632 
L 2445 1632 
L 2445 2688 
L 3251 2688 
L 3251 0 
L 2445 0 
z
" transform="scale(0.015625)"/>
     </defs>
     <use xlink:href="#JetBrainsMono-Bold-32"/>
     <use xlink:href="#JetBrainsMono-Bold-31" transform="translate(59.999985 0)"/>
     <use xlink:href="#JetBrainsMono-Bold-34" transform="translate(119.999969 0)"/>
    </g>
   </g>
   <g id="text_15">
    <!-- Rating History -->
    <g style="fill: #8b5cf6" transform="translate(55.296 50.44) scale(0.17 -0.17)">
     <defs>
      <path id="JetBrainsMono-Bold-52" d="M 493 0 
L 493 4672 
L 1965 4672 
Q 2432 4672 2774 4499 
Q 3117 4326 3309 4016 
Q 3501 3706 3501 3283 
Q 3501 2816 3270 2467 
Q 3040 2118 2650 1971 
L 3565 0 
L 2688 0 
L 1869 1856 
L 1286 1856 
L 1286 0 
L 493 0 
z
M 1286 2560 
L 1965 2560 
Q 2304 2560 2496 2745 
Q 2688 2931 2688 3258 
Q 2688 3584 2493 3776 
Q 2298 3968 1965 3968 
L 1286 3968 
L 1286 2560 
z
" transform="scale(0.015625)"/>
      <path id="JetBrainsMono-Bold-61" d="M 1530 -64 
Q 992 -64 681 240 
Q 371 544 371 1037 
Q 371 1549 723 1853 
Q 1075 2157 1690 2157 
L 2547 2157 
L 2547 2406 
Q 2547 2938 1926 2938 
Q 1645 2938 1478 2829 
Q 1312 2720 1293 2522 
L 525 2522 
Q 550 2995 924 3289 
Q 1299 3584 1933 3584 
Q 2605 3584 2976 3270 
Q 3347 2957 3347 2387 
L 3347 0 
L 2566 0 
L 2566 659 
Q 2522 320 2246 128 
Q 1971 -64 1530 -64 
z
M 1786 589 
Q 2138 589 2342 761 
Q 2547 934 2547 1222 
L 2547 1638 
L 1728 1638 
Q 1466 1638 1312 1491 
Q 1158 1344 1158 1114 
Q 1158 877 1321 733 
Q 1485 589 1786 589 
z
" transform="scale(0.015625)"/>
      <path id="JetBrainsMono-Bold-74" d="M 2272 0 
Q 1779 0 1488 285 
Q 1197 570 1197 1056 
L 1197 2797 
L 224 2797 
L 224 3520 
L 1197 3520 
L 1197 4512 
L 2003 4512 
L 2003 3520 
L 3405 3520 
L 3405 2797 
L 2003 2797 
L 2003 1075 
Q 2003 922 2089 822 
Q 2176 723 2330 723 
L 3373 723 
L 3373 0 
L 2272 0 
z
" transform="scale(0.015625)"/>
      <path id="JetBrainsMono-Bold-69" d="M 486 0 
L 486 723 
L 1690 723 
L 1690 2797 
L 614 2797 
L 614 3520 
L 2490 3520 
L 2490 723 
L 3571 723 
L 3571 0 
L 486 0 
z
M 2032 4109 
Q 1789 4109 1648 4233 
Q 1507 4358 1507 4570 
Q 1507 4781 1648 4905 
Q 1789 5030 2032 5030 
Q 2275 5030 2416 4905 
Q 2557 4781 2557 4570 
Q 2557 4358 2416 4233 
Q 2275 4109 2032 4109 
z
" transform="scale(0.015625)"/>
      <path id="JetBrainsMono-Bold-6e" d="M 493 0 
L 493 3520 
L 1274 3520 
L 1274 2861 
Q 1338 3194 1587 3389 
Q 1837 3584 2221 3584 
Q 2739 3584 3049 3238 
Q 3360 2893 3360 2310 
L 3360 0 
L 2560 0 
L 2560 2214 
Q 2560 2541 2390 2717 
Q 2221 2893 1933 2893 
Q 1632 2893 1462 2713 
Q 1293 2534 1293 2202 
L 1293 0 
L 493 0 
z
" transform="scale(0.015625)"/>
      <path id="JetBrainsMono-Bold-67" d="M 973 -1152 
L 973 -486 
L 1965 -486 
Q 2246 -486 2400 -336 
Q 2554 -186 2554 70 
L 2554 282 
L 2566 832 
Q 2458 538 2218 374 
Q 1978 211 1632 211 
Q 1094 211 777 572 
Q 461 934 461 1555 
L 461 2240 
Q 461 2854 777 3219 
Q 1094 3584 1632 3584 
Q 1978 3584 2218 3421 
Q 2458 3258 2566 2957 
L 2566 3520 
L 3347 3520 
L 3347 51 
Q 3347 -506 2979 -829 
Q 2611 -1152 1978 -1152 
L 973 -1152 
z
M 1901 896 
Q 2208 896 2377 1078 
Q 2547 1261 2547 1587 
L 2547 2202 
Q 2547 2528 2377 2710 
Q 2208 2893 1901 2893 
Q 1594 2893 1427 2717 
Q 1261 2541 1261 2227 
L 1261 1562 
Q 1261 1248 1427 1072 
Q 1594 896 1901 896 
z
" transform="scale(0.015625)"/>
      <path id="JetBrainsMono-Bold-20" transform="scale(0.015625)"/>
      <path id="JetBrainsMono-Bold-48" d="M 493 0 
L 493 4672 
L 1293 4672 
L 1293 2778 
L 2547 2778 
L 2547 4672 
L 3347 4672 
L 3347 0 
L 2547 0 
L 2547 2054 
L 1293 2054 
L 1293 0 
L 493 0 
z
" transform="scale(0.015625)"/>
      <path id="JetBrainsMono-Bold-73" d="M 1773 -58 
Q 1146 -58 781 227 
Q 416 512 416 998 
L 1203 998 
Q 1203 794 1353 685 
Q 1504 576 1773 576 
L 2054 576 
Q 2342 576 2499 685 
Q 2656 794 2656 998 
Q 2656 1190 2547 1283 
Q 2438 1376 2214 1408 
L 1338 1523 
Q 915 1581 688 1849 
Q 461 2118 461 2547 
Q 461 3046 793 3312 
Q 1126 3578 1754 3578 
L 2048 3578 
Q 2637 3578 2995 3309 
Q 3354 3040 3366 2592 
L 2573 2592 
Q 2566 2758 2425 2857 
Q 2285 2957 2048 2957 
L 1754 2957 
Q 1498 2957 1363 2851 
Q 1229 2746 1229 2566 
Q 1229 2406 1328 2329 
Q 1427 2253 1619 2234 
L 2445 2118 
Q 2931 2061 3177 1776 
Q 3424 1491 3424 1011 
Q 3424 499 3075 220 
Q 2726 -58 2054 -58 
L 1773 -58 
z
" transform="scale(0.015625)"/>
      <path id="JetBrainsMono-Bold-6f" d="M 1920 -58 
Q 1242 -58 845 323 
Q 448 704 448 1350 
L 448 2170 
Q 448 2822 845 3200 
Q 1242 3578 1920 3578 
Q 2598 3578 2995 3200 
Q 3392 2822 3392 2170 
L 3392 1350 
Q 3392 704 2995 323 
Q 2598 -58 1920 -58 
z
M 1920 640 
Q 2240 640 2416 816 
Q 2592 992 2592 1325 
L 2592 2195 
Q 2592 2528 2416 2704 
Q 2240 2880 1920 2880 
Q 1600 2880 1424 2704 
Q 1248 2528 1248 2195 
L 1248 1325 
Q 1248 992 1424 816 
Q 1600 640 1920 640 
z
" transform="scale(0.015625)"/>
      <path id="JetBrainsMono-Bold-72" d="M 621 0 
L 621 3520 
L 1402 3520 
L 1402 2835 
Q 1466 3181 1718 3382 
Q 1971 3584 2374 3584 
Q 2912 3584 3213 3238 
Q 3514 2893 3514 2272 
L 3514 1939 
L 2714 1939 
L 2714 2234 
Q 2714 2554 2547 2723 
Q 2381 2893 2074 2893 
Q 1754 2893 1587 2701 
Q 1421 2509 1421 2157 
L 1421 0 
L 621 0 
z
" transform="scale(0.015625)"/>
      <path id="JetBrainsMono-Bold-79" d="M 1056 -1152 
L 1555 192 
L 230 3520 
L 1075 3520 
L 1754 1722 
Q 1811 1562 1868 1373 
Q 1926 1184 1952 1024 
Q 1971 1184 2025 1373 
Q 2080 1562 2138 1722 
L 2765 3520 
L 3610 3520 
L 1894 -1152 
L 1056 -1152 
z
" transform="scale(0.015625)"/>
     </defs>
     <use xlink:href="#JetBrainsMono-Bold-52"/>
     <use xlink:href="#JetBrainsMono-Bold-61" transform="translate(59.999985 0)"/>
     <use xlink:href="#JetBrainsMono-Bold-74" transform="translate(119.999969 0)"/>
     <use xlink:href="#JetBrainsMono-Bold-69" transform="translate(179.999954 0)"/>
     <use xlink:href="#JetBrainsMono-Bold-6e" transform="translate(239.999939 0)"/>
     <use xlink:href="#JetBrainsMono-Bold-67" transform="translate(299.999924 0)"/>
     <use xlink:href="#JetBrainsMono-Bold-20" transform="translate(359.999908 0)"/>
     <use xlink:href="#JetBrainsMono-Bold-48" transform="translate(419.999893 0)"/>
     <use xlink:href="#JetBrainsMono-Bold-69" transform="translate(479.999878 0)"/>
     <use xlink:href="#JetBrainsMono-Bold-73" transform="translate(539.999863 0)"/>
     <use xlink:href="#JetBrainsMono-Bold-74" transform="translate(599.999847 0)"/>
     <use xlink:href="#JetBrainsMono-Bold-6f" transform="translate(659.999832 0)"/>
     <use xlink:href="#JetBrainsMono-Bold-72" transform="translate(719.999817 0)"/>
     <use xlink:href="#JetBrainsMono-Bold-79" transform="translate(779.999802 0)"/>
    </g>
   </g>
   <g id="line2d_25">
    <path d="M 55.296 256.836153 
L 64.386338 256.236182 
L 73.476676 255.866805 
L 84.08207 255.6852 
L 94.687465 255.724374 
L 108.322972 256.018486 
L 126.503648 256.66534 
L 155.289719 257.711044 
L 168.925226 257.970085 
L 179.53062 257.97107 
L 190.136014 257.741729 
L 199.226352 257.323837 
L 208.316691 256.668682 
L 218.922085 255.645731 
L 235.587705 254.016537 
L 243.162986 253.491293 
L 249.223212 253.25566 
L 255.283437 253.234742 
L 261.343662 253.475299 
L 265.888831 253.855441 
L 270.434001 254.428695 
L 274.97917 255.214787 
L 279.524339 256.233446 
L 284.069508 257.502427 
L 288.614677 258.99411 
L 296.189958 261.77592 
L 306.795353 265.708301 
L 311.340522 267.198888 
L 315.885691 268.464361 
L 320.43086 269.429756 
L 323.460972 269.869622 
L 326.491085 270.12059 
L 329.521198 270.160449 
L 332.551311 269.966985 
L 335.581423 269.517989 
L 338.611536 268.791247 
L 341.641649 267.764548 
L 344.671761 266.41568 
L 347.701874 264.722432 
L 350.731987 262.66259 
L 353.762099 260.213945 
L 356.792212 257.354283 
L 359.822325 254.066129 
L 362.852437 250.363489 
L 365.88255 246.273215 
L 368.912663 241.822192 
L 371.942775 237.037311 
L 374.972888 231.945458 
L 379.518057 223.790925 
L 384.063226 215.096951 
L 388.608395 205.954284 
L 394.668621 193.22294 
L 402.243902 176.741591 
L 418.909522 140.23615 
L 424.969747 127.54962 
L 429.514916 118.452326 
L 434.060085 109.813809 
L 438.605254 101.724815 
L 441.635367 96.682257 
L 444.66548 91.951151 
L 447.695592 87.558386 
L 450.725705 83.53085 
L 453.755818 79.89543 
L 456.785931 76.679016 
L 459.816043 73.908493 
L 462.846156 71.610752 
L 465.876269 69.812679 
L 467.391325 69.109421 
L 468.906381 68.541163 
L 470.421438 68.111266 
L 471.936494 67.823091 
L 473.45155 67.68 
L 474.966607 67.685353 
L 476.481663 67.842511 
L 477.996719 68.154835 
L 479.511776 68.625686 
L 481.026832 69.258425 
L 482.541888 70.056414 
L 484.056945 71.023013 
L 485.572001 72.161582 
L 487.087057 73.475485 
L 488.602114 74.96808 
L 490.11717 76.642729 
L 491.632226 78.502794 
L 493.147283 80.551635 
L 496.177395 85.229089 
L 499.207508 90.701979 
L 502.237621 96.997195 
L 505.267733 104.141623 
L 508.297846 112.162152 
L 508.297846 112.162152 
" clip-path="url(#p7cdce234ac)" style="fill: none; stroke: #8b5cf6; stroke-width: 1.2; stroke-linecap: round"/>
   </g>
   <g id="PathCollection_1">
    <defs>
     <path id="mb145f41ff7" d="M 0 1.658312 
C 0.43979 1.658312 0.861626 1.483582 1.172604 1.172604 
C 1.483582 0.861626 1.658312 0.43979 1.658312 0 
C 1.658312 -0.43979 1.483582 -0.861626 1.172604 -1.172604 
C 0.861626 -1.483582 0.43979 -1.658312 0 -1.658312 
C -0.43979 -1.658312 -0.861626 -1.483582 -1.172604 -1.172604 
C -1.483582 -0.861626 -1.658312 -0.43979 -1.658312 0 
C -1.658312 0.43979 -1.483582 0.861626 -1.172604 1.172604 
C -0.861626 1.483582 -0.43979 1.658312 0 1.658312 
z
" style="stroke: #ffffff; stroke-width: 0.5"/>
    </defs>
    <g clip-path="url(#p7cdce234ac)">
     <use xlink:href="#mb145f41ff7" x="55.296" y="256.836153" style="fill: #8b5cf6; stroke: #ffffff; stroke-width: 0.5"/>
     <use xlink:href="#mb145f41ff7" x="130.796308" y="256.836153" style="fill: #8b5cf6; stroke: #ffffff; stroke-width: 0.5"/>
     <use xlink:href="#mb145f41ff7" x="206.296615" y="256.836153" style="fill: #8b5cf6; stroke: #ffffff; stroke-width: 0.5"/>
     <use xlink:href="#mb145f41ff7" x="281.796923" y="256.836153" style="fill: #8b5cf6; stroke: #ffffff; stroke-width: 0.5"/>
     <use xlink:href="#mb145f41ff7" x="357.297231" y="256.836153" style="fill: #8b5cf6; stroke: #ffffff; stroke-width: 0.5"/>
     <use xlink:href="#mb145f41ff7" x="432.797538" y="112.162152" style="fill: #8b5cf6; stroke: #ffffff; stroke-width: 0.5"/>
     <use xlink:href="#mb145f41ff7" x="508.297846" y="112.162152" style="fill: #8b5cf6; stroke: #ffffff; stroke-width: 0.5"/>
    </g>
   </g>
  </g>
  <g id="axes_2">
   <g id="text_16">
    <!-- Rating -->
    <g style="fill: #9b8bb8" transform="translate(565.7472 48.312) scale(0.11 -0.11)">
     <use xlink:href="#JetBrainsMono-Regular-52"/>
     <use xlink:href="#JetBrainsMono-Regular-61" transform="translate(59.999985 0)"/>
     <use xlink:href="#JetBrainsMono-Regular-74" transform="translate(119.999969 0)"/>
     <use xlink:href="#JetBrainsMono-Regular-69" transform="translate(179.999954 0)"/>
     <use xlink:href="#JetBrainsMono-Regular-6e" transform="translate(239.999939 0)"/>
     <use xlink:href="#JetBrainsMono-Regular-67" transform="translate(299.999924 0)"/>
    </g>
   </g>
   <g id="text_17">
    <!-- 214 -->
    <g style="fill: #8b5cf6" transform="translate(565.7472 81.548) scale(0.26 -0.26)">
     <use xlink:href="#JetBrainsMono-Bold-32"/>
     <use xlink:href="#JetBrainsMono-Bold-31" transform="translate(59.999985 0)"/>
     <use xlink:href="#JetBrainsMono-Bold-34" transform="translate(119.999969 0)"/>
    </g>
   </g>
   <g id="text_18">
    <!-- Rank -->
    <g style="fill: #9b8bb8" transform="translate(565.7472 119.592) scale(0.11 -0.11)">
     <defs>
      <path id="JetBrainsMono-Regular-6b" d="M 621 0 
L 621 4672 
L 1197 4672 
L 1197 2067 
L 1869 2067 
L 2854 3520 
L 3514 3520 
L 2381 1843 
L 3578 0 
L 2906 0 
L 1882 1568 
L 1197 1568 
L 1197 0 
L 621 0 
z
" transform="scale(0.015625)"/>
     </defs>
     <use xlink:href="#JetBrainsMono-Regular-52"/>
     <use xlink:href="#JetBrainsMono-Regular-61" transform="translate(59.999985 0)"/>
     <use xlink:href="#JetBrainsMono-Regular-6e" transform="translate(119.999969 0)"/>
     <use xlink:href="#JetBrainsMono-Regular-6b" transform="translate(179.999954 0)"/>
    </g>
   </g>
   <g id="text_19">
    <!-- #128,292 -->
    <g style="fill: #8b5cf6" transform="translate(565.7472 148.104) scale(0.14 -0.14)">
     <defs>
      <path id="JetBrainsMono-Bold-23" d="M 493 0 
L 710 1216 
L 224 1216 
L 224 1760 
L 800 1760 
L 998 2912 
L 448 2912 
L 448 3456 
L 1094 3456 
L 1312 4672 
L 1875 4672 
L 1658 3456 
L 2566 3456 
L 2784 4672 
L 3347 4672 
L 3130 3456 
L 3616 3456 
L 3616 2912 
L 3034 2912 
L 2835 1760 
L 3392 1760 
L 3392 1216 
L 2739 1216 
L 2528 0 
L 1965 0 
L 2182 1216 
L 1267 1216 
L 1056 0 
L 493 0 
z
M 1363 1760 
L 2272 1760 
L 2470 2912 
L 1562 2912 
L 1363 1760 
z
" transform="scale(0.015625)"/>
      <path id="JetBrainsMono-Bold-38" d="M 1920 -64 
Q 1453 -64 1094 112 
Q 736 288 537 598 
Q 339 909 339 1318 
Q 339 1747 585 2067 
Q 832 2387 1229 2470 
L 1229 2483 
Q 890 2554 682 2829 
Q 474 3104 474 3482 
Q 474 3853 656 4134 
Q 838 4416 1164 4576 
Q 1491 4736 1920 4736 
Q 2349 4736 2678 4576 
Q 3008 4416 3190 4134 
Q 3373 3853 3373 3482 
Q 3373 3104 3161 2829 
Q 2950 2554 2611 2483 
L 2611 2470 
Q 3008 2387 3254 2067 
Q 3501 1747 3501 1318 
Q 3501 909 3302 598 
Q 3104 288 2745 112 
Q 2387 -64 1920 -64 
z
M 1920 2758 
Q 2221 2758 2406 2940 
Q 2592 3123 2592 3411 
Q 2592 3706 2406 3888 
Q 2221 4070 1920 4070 
Q 1619 4070 1433 3888 
Q 1248 3706 1248 3411 
Q 1248 3123 1433 2940 
Q 1619 2758 1920 2758 
z
M 1920 614 
Q 2272 614 2496 819 
Q 2720 1024 2720 1357 
Q 2720 1696 2496 1904 
Q 2272 2112 1920 2112 
Q 1568 2112 1344 1904 
Q 1120 1696 1120 1357 
Q 1120 1024 1344 819 
Q 1568 614 1920 614 
z
" transform="scale(0.015625)"/>
      <path id="JetBrainsMono-Bold-2c" d="M 1216 -1024 
L 1555 934 
L 2470 934 
L 1984 -1024 
L 1216 -1024 
z
" transform="scale(0.015625)"/>
      <path id="JetBrainsMono-Bold-39" d="M 1120 0 
L 2214 1888 
Q 2138 1830 2035 1788 
Q 1933 1747 1728 1747 
Q 1344 1747 1027 1932 
Q 710 2118 524 2448 
Q 339 2778 339 3213 
Q 339 3674 534 4016 
Q 730 4358 1085 4547 
Q 1440 4736 1920 4736 
Q 2400 4736 2755 4544 
Q 3110 4352 3305 4003 
Q 3501 3654 3501 3187 
Q 3501 2912 3382 2557 
Q 3264 2202 3059 1837 
L 2048 0 
L 1120 0 
z
M 1920 2387 
Q 2278 2387 2496 2614 
Q 2714 2842 2714 3226 
Q 2714 3603 2496 3830 
Q 2278 4058 1920 4058 
Q 1562 4058 1344 3830 
Q 1126 3603 1126 3226 
Q 1126 2842 1344 2614 
Q 1562 2387 1920 2387 
z
" transform="scale(0.015625)"/>
     </defs>
     <use xlink:href="#JetBrainsMono-Bold-23"/>
     <use xlink:href="#JetBrainsMono-Bold-31" transform="translate(59.999985 0)"/>
     <use xlink:href="#JetBrainsMono-Bold-32" transform="translate(119.999969 0)"/>
     <use xlink:href="#JetBrainsMono-Bold-38" transform="translate(179.999954 0)"/>
     <use xlink:href="#JetBrainsMono-Bold-2c" transform="translate(239.999939 0)"/>
     <use xlink:href="#JetBrainsMono-Bold-32" transform="translate(299.999924 0)"/>
     <use xlink:href="#JetBrainsMono-Bold-39" transform="translate(359.999908 0)"/>
     <use xlink:href="#JetBrainsMono-Bold-32" transform="translate(419.999893 0)"/>
    </g>
   </g>
   <g id="text_20">
    <!-- ─ 0 -->
    <g style="fill: #9b8bb8" transform="translate(565.7472 169.488) scale(0.11 -0.11)">
     <defs>
      <path id="JetBrainsMono-Bold-2500" d="M -128 2048 
L -128 2688 
L 3968 2688 
L 3968 2048 
L -128 2048 
z
" transform="scale(0.015625)"/>
      <path id="JetBrainsMono-Bold-30" d="M 1920 -64 
Q 1466 -64 1133 109 
Q 800 282 617 595 
Q 435 909 435 1331 
L 435 3341 
Q 435 3763 617 4076 
Q 800 4390 1133 4563 
Q 1466 4736 1920 4736 
Q 2374 4736 2707 4563 
Q 3040 4390 3222 4076 
Q 3405 3763 3405 3341 
L 3405 1331 
Q 3405 909 3222 595 
Q 3040 282 2707 109 
Q 2374 -64 1920 -64 
z
M 1920 627 
Q 2253 627 2451 819 
Q 2650 1011 2650 1331 
L 2650 3341 
Q 2650 3661 2454 3853 
Q 2259 4045 1920 4045 
Q 1581 4045 1385 3853 
Q 1190 3661 1190 3341 
L 1190 1331 
Q 1190 1011 1388 819 
Q 1587 627 1920 627 
z
M 1920 1952 
Q 1728 1952 1613 2057 
Q 1498 2163 1498 2355 
Q 1498 2547 1613 2646 
Q 1728 2746 1920 2746 
Q 2112 2746 2227 2646 
Q 2342 2547 2342 2355 
Q 2342 2163 2227 2057 
Q 2112 1952 1920 1952 
z
" transform="scale(0.015625)"/>
     </defs>
     <use xlink:href="#JetBrainsMono-Bold-2500"/>
     <use xlink:href="#JetBrainsMono-Bold-20" transform="translate(59.999985 0)"/>
     <use xlink:href="#JetBrainsMono-Bold-30" transform="translate(119.999969 0)"/>
    </g>
   </g>
  </g>
 </g>
 <defs>
  <clipPath id="p7cdce234ac">
   <rect x="55.296" y="55.44" width="490.752" height="269.28"/>
  </clipPath>
 </defs>
</svg>
