<?xml version="1.0" encoding="utf-8" standalone="no"?>
<!DOCTYPE svg PUBLIC "-//W3C//DTD SVG 1.1//EN"
  "http://www.w3.org/Graphics/SVG/1.1/DTD/svg11.dtd">
<svg xmlns:xlink="http://www.w3.org/1999/xlink" width="691.2pt" height="396pt" viewBox="0 0 691.2 396" xmlns="http://www.w3.org/2000/svg" version="1.1">
 <metadata>
  <rdf:RDF xmlns:dc="http://purl.org/dc/elements/1.1/" xmlns:cc="http://creativecommons.org/ns#" xmlns:rdf="http://www.w3.org/1999/02/22-rdf-syntax-ns#">
   <cc:Work>
    <dc:type rdf:resource="http://purl.org/dc/dcmitype/StillImage"/>
    <dc:date>2026-04-27T16:17:21.632430</dc:date>
    <dc:format>image/svg+xml</dc:format>
    <dc:creator>
     <cc:Agent>
      <dc:title>Matplotlib v3.10.9, https://matplotlib.org/</dc:title>
     </cc:Agent>
    </dc:creator>
   </cc:Work>
  </rdf:RDF>
 </metadata>
 <defs>
  <style type="text/css">*{stroke-linejoin: round; stroke-linecap: butt}</style>
 </defs>
 <g id="figure_1">
  <g id="patch_1">
   <path d="M 0 396 
L 691.2 396 
L 691.2 0 
L 0 0 
L 0 396 
z
" style="fill: none"/>
  </g>
  <g id="axes_1">
   <g id="patch_2">
    <path d="M 55.296 324.72 
L 546.048 324.72 
L 546.048 55.44 
L 55.296 55.44 
L 55.296 324.72 
z
" style="fill: none"/>
   </g>
   <g id="matplotlib.axis_1">
    <g id="xtick_1">
     <g id="line2d_1">
      <path d="M 116.64 324.72 
L 116.64 55.44 
" clip-path="url(#p3411022505)" style="fill: none; stroke-dasharray: 2.22,0.96; stroke-dashoffset: 0; stroke: #e2d5f5; stroke-opacity: 0.7; stroke-width: 0.6"/>
     </g>
     <g id="line2d_2">
      <defs>
       <path id="m3b92301591" d="M 0 0 
L 0 3.5 
" style="stroke: #9b8bb8; stroke-width: 0.8"/>
      </defs>
      <g>
       <use xlink:href="#m3b92301591" x="116.64" y="324.72" style="fill: #9b8bb8; stroke: #9b8bb8; stroke-width: 0.8"/>
      </g>
     </g>
     <g id="text_1">
      <!-- 04/03 -->
      <g style="fill: #9b8bb8" transform="translate(105.099619 353.301793) rotate(-30) scale(0.1 -0.1)">
       <defs>
        <path id="JetBrainsMono-Regular-30" d="M 1920 -64 
Q 1274 -64 893 310 
Q 512 685 512 1312 
L 512 3360 
Q 512 3987 893 4361 
Q 1274 4736 1920 4736 
Q 2566 4736 2947 4361 
Q 3328 3987 3328 3360 
L 3328 1312 
Q 3328 896 3155 585 
Q 2982 275 2665 105 
Q 2349 -64 1920 -64 
z
M 1920 429 
Q 2304 429 2537 675 
Q 2771 922 2771 1312 
L 2771 3360 
Q 2771 3750 2537 3996 
Q 2304 4243 1920 4243 
Q 1536 4243 1302 3996 
Q 1069 3750 1069 3360 
L 1069 1312 
Q 1069 922 1302 675 
Q 1536 429 1920 429 
z
M 1920 1984 
Q 1747 1984 1641 2080 
Q 1536 2176 1536 2355 
Q 1536 2528 1641 2621 
Q 1747 2714 1920 2714 
Q 2093 2714 2198 2621 
Q 2304 2528 2304 2355 
Q 2304 2176 2198 2080 
Q 2093 1984 1920 1984 
z
" transform="scale(0.015625)"/>
        <path id="JetBrainsMono-Regular-34" d="M 2560 0 
L 2560 1024 
L 448 1024 
L 448 1926 
L 2150 4672 
L 2803 4672 
L 1024 1798 
L 1024 1549 
L 2560 1549 
L 2560 2688 
L 3136 2688 
L 3136 0 
L 2560 0 
z
" transform="scale(0.015625)"/>
        <path id="JetBrainsMono-Regular-2f" d="M 480 -704 
L 2752 5312 
L 3360 5312 
L 1088 -704 
L 480 -704 
z
" transform="scale(0.015625)"/>
        <path id="JetBrainsMono-Regular-33" d="M 1850 -64 
Q 1203 -64 825 297 
Q 448 659 448 1280 
L 1024 1280 
Q 1024 896 1248 672 
Q 1472 448 1856 448 
Q 2240 448 2464 672 
Q 2688 896 2688 1280 
L 2688 1600 
Q 2688 1984 2464 2208 
Q 2240 2432 1856 2432 
L 1350 2432 
L 1350 2931 
L 2496 4147 
L 576 4147 
L 576 4672 
L 3149 4672 
L 3149 4134 
L 2022 2938 
Q 2598 2893 2931 2537 
Q 3264 2182 3264 1600 
L 3264 1280 
Q 3264 659 2883 297 
Q 2502 -64 1850 -64 
z
" transform="scale(0.015625)"/>
       </defs>
       <use xlink:href="#JetBrainsMono-Regular-30"/>
       <use xlink:href="#JetBrainsMono-Regular-34" transform="translate(59.999985 0)"/>
       <use xlink:href="#JetBrainsMono-Regular-2f" transform="translate(119.999969 0)"/>
       <use xlink:href="#JetBrainsMono-Regular-30" transform="translate(179.999954 0)"/>
       <use xlink:href="#JetBrainsMono-Regular-33" transform="translate(239.999939 0)"/>
      </g>
     </g>
    </g>
    <g id="xtick_2">
     <g id="line2d_3">
      <path d="M 186.747429 324.72 
L 186.747429 55.44 
" clip-path="url(#p3411022505)" style="fill: none; stroke-dasharray: 2.22,0.96; stroke-dashoffset: 0; stroke: #e2d5f5; stroke-opacity: 0.7; stroke-width: 0.6"/>
     </g>
     <g id="line2d_4">
      <g>
       <use xlink:href="#m3b92301591" x="186.747429" y="324.72" style="fill: #9b8bb8; stroke: #9b8bb8; stroke-width: 0.8"/>
      </g>
     </g>
     <g id="text_2">
      <!-- 04/07 -->
      <g style="fill: #9b8bb8" transform="translate(175.207048 353.301793) rotate(-30) scale(0.1 -0.1)">
       <defs>
        <path id="JetBrainsMono-Regular-37" d="M 1216 0 
L 2880 4147 
L 1101 4147 
L 1101 3392 
L 525 3392 
L 525 4672 
L 3494 4672 
L 3494 4134 
L 1843 0 
L 1216 0 
z
" transform="scale(0.015625)"/>
       </defs>
       <use xlink:href="#JetBrainsMono-Regular-30"/>
       <use xlink:href="#JetBrainsMono-Regular-34" transform="translate(59.999985 0)"/>
       <use xlink:href="#JetBrainsMono-Regular-2f" transform="translate(119.999969 0)"/>
       <use xlink:href="#JetBrainsMono-Regular-30" transform="translate(179.999954 0)"/>
       <use xlink:href="#JetBrainsMono-Regular-37" transform="translate(239.999939 0)"/>
      </g>
     </g>
    </g>
    <g id="xtick_3">
     <g id="line2d_5">
      <path d="M 256.854857 324.72 
L 256.854857 55.44 
" clip-path="url(#p3411022505)" style="fill: none; stroke-dasharray: 2.22,0.96; stroke-dashoffset: 0; stroke: #e2d5f5; stroke-opacity: 0.7; stroke-width: 0.6"/>
     </g>
     <g id="line2d_6">
      <g>
       <use xlink:href="#m3b92301591" x="256.854857" y="324.72" style="fill: #9b8bb8; stroke: #9b8bb8; stroke-width: 0.8"/>
      </g>
     </g>
     <g id="text_3">
      <!-- 04/11 -->
      <g style="fill: #9b8bb8" transform="translate(245.314476 353.301793) rotate(-30) scale(0.1 -0.1)">
       <defs>
        <path id="JetBrainsMono-Regular-31" d="M 576 0 
L 576 525 
L 1843 525 
L 1843 4173 
L 576 3226 
L 576 3885 
L 1632 4672 
L 2419 4672 
L 2419 525 
L 3456 525 
L 3456 0 
L 576 0 
z
" transform="scale(0.015625)"/>
       </defs>
       <use xlink:href="#JetBrainsMono-Regular-30"/>
       <use xlink:href="#JetBrainsMono-Regular-34" transform="translate(59.999985 0)"/>
       <use xlink:href="#JetBrainsMono-Regular-2f" transform="translate(119.999969 0)"/>
       <use xlink:href="#JetBrainsMono-Regular-31" transform="translate(179.999954 0)"/>
       <use xlink:href="#JetBrainsMono-Regular-31" transform="translate(239.999939 0)"/>
      </g>
     </g>
    </g>
    <g id="xtick_4">
     <g id="line2d_7">
      <path d="M 326.962286 324.72 
L 326.962286 55.44 
" clip-path="url(#p3411022505)" style="fill: none; stroke-dasharray: 2.22,0.96; stroke-dashoffset: 0; stroke: #e2d5f5; stroke-opacity: 0.7; stroke-width: 0.6"/>
     </g>
     <g id="line2d_8">
      <g>
       <use xlink:href="#m3b92301591" x="326.962286" y="324.72" style="fill: #9b8bb8; stroke: #9b8bb8; stroke-width: 0.8"/>
      </g>
     </g>
     <g id="text_4">
      <!-- 04/15 -->
      <g style="fill: #9b8bb8" transform="translate(315.421905 353.301793) rotate(-30) scale(0.1 -0.1)">
       <defs>
        <path id="JetBrainsMono-Regular-35" d="M 1882 -64 
Q 1235 -64 857 297 
Q 480 659 480 1280 
L 1056 1280 
Q 1056 896 1280 672 
Q 1504 448 1888 448 
Q 2272 448 2496 672 
Q 2720 896 2720 1280 
L 2720 1568 
Q 2720 1952 2502 2176 
Q 2285 2400 1914 2400 
L 640 2400 
L 640 4672 
L 3130 4672 
L 3130 4147 
L 1178 4147 
L 1190 2925 
L 1946 2925 
Q 2592 2925 2944 2569 
Q 3296 2214 3296 1568 
L 3296 1280 
Q 3296 659 2915 297 
Q 2534 -64 1882 -64 
z
" transform="scale(0.015625)"/>
       </defs>
       <use xlink:href="#JetBrainsMono-Regular-30"/>
       <use xlink:href="#JetBrainsMono-Regular-34" transform="translate(59.999985 0)"/>
       <use xlink:href="#JetBrainsMono-Regular-2f" transform="translate(119.999969 0)"/>
       <use xlink:href="#JetBrainsMono-Regular-31" transform="translate(179.999954 0)"/>
       <use xlink:href="#JetBrainsMono-Regular-35" transform="translate(239.999939 0)"/>
      </g>
     </g>
    </g>
    <g id="xtick_5">
     <g id="line2d_9">
      <path d="M 397.069714 324.72 
L 397.069714 55.44 
" clip-path="url(#p3411022505)" style="fill: none; stroke-dasharray: 2.22,0.96; stroke-dashoffset: 0; stroke: #e2d5f5; stroke-opacity: 0.7; stroke-width: 0.6"/>
     </g>
     <g id="line2d_10">
      <g>
       <use xlink:href="#m3b92301591" x="397.069714" y="324.72" style="fill: #9b8bb8; stroke: #9b8bb8; stroke-width: 0.8"/>
      </g>
     </g>
     <g id="text_5">
      <!-- 04/19 -->
      <g style="fill: #9b8bb8" transform="translate(385.529333 353.301793) rotate(-30) scale(0.1 -0.1)">
       <defs>
        <path id="JetBrainsMono-Regular-39" d="M 1248 0 
L 2400 2003 
L 2381 2016 
Q 2317 1914 2144 1853 
Q 1971 1792 1766 1792 
Q 1363 1792 1059 1974 
Q 755 2157 582 2477 
Q 410 2797 410 3219 
Q 410 3674 602 4013 
Q 794 4352 1133 4544 
Q 1472 4736 1914 4736 
Q 2368 4736 2707 4547 
Q 3046 4358 3238 4022 
Q 3430 3686 3430 3245 
Q 3430 2938 3315 2614 
Q 3200 2291 3002 1939 
L 1920 0 
L 1248 0 
z
M 1920 2240 
Q 2336 2240 2595 2515 
Q 2854 2790 2854 3232 
Q 2854 3674 2595 3949 
Q 2336 4224 1920 4224 
Q 1504 4224 1245 3949 
Q 986 3674 986 3232 
Q 986 2790 1245 2515 
Q 1504 2240 1920 2240 
z
" transform="scale(0.015625)"/>
       </defs>
       <use xlink:href="#JetBrainsMono-Regular-30"/>
       <use xlink:href="#JetBrainsMono-Regular-34" transform="translate(59.999985 0)"/>
       <use xlink:href="#JetBrainsMono-Regular-2f" transform="translate(119.999969 0)"/>
       <use xlink:href="#JetBrainsMono-Regular-31" transform="translate(179.999954 0)"/>
       <use xlink:href="#JetBrainsMono-Regular-39" transform="translate(239.999939 0)"/>
      </g>
     </g>
    </g>
    <g id="xtick_6">
     <g id="line2d_11">
      <path d="M 467.177143 324.72 
L 467.177143 55.44 
" clip-path="url(#p3411022505)" style="fill: none; stroke-dasharray: 2.22,0.96; stroke-dashoffset: 0; stroke: #e2d5f5; stroke-opacity: 0.7; stroke-width: 0.6"/>
     </g>
     <g id="line2d_12">
      <g>
       <use xlink:href="#m3b92301591" x="467.177143" y="324.72" style="fill: #9b8bb8; stroke: #9b8bb8; stroke-width: 0.8"/>
      </g>
     </g>
     <g id="text_6">
      <!-- 04/23 -->
      <g style="fill: #9b8bb8" transform="translate(455.636762 353.301793) rotate(-30) scale(0.1 -0.1)">
       <defs>
        <path id="JetBrainsMono-Regular-32" d="M 550 0 
L 550 531 
L 2106 2195 
Q 2445 2554 2585 2835 
Q 2726 3117 2726 3386 
Q 2726 3770 2505 3997 
Q 2285 4224 1907 4224 
Q 1517 4224 1289 3990 
Q 1062 3757 1062 3360 
L 486 3360 
Q 506 3994 890 4365 
Q 1274 4736 1907 4736 
Q 2554 4736 2934 4371 
Q 3315 4006 3315 3379 
Q 3315 3046 3132 2675 
Q 2950 2304 2509 1843 
L 1248 525 
L 3373 525 
L 3373 0 
L 550 0 
z
" transform="scale(0.015625)"/>
       </defs>
       <use xlink:href="#JetBrainsMono-Regular-30"/>
       <use xlink:href="#JetBrainsMono-Regular-34" transform="translate(59.999985 0)"/>
       <use xlink:href="#JetBrainsMono-Regular-2f" transform="translate(119.999969 0)"/>
       <use xlink:href="#JetBrainsMono-Regular-32" transform="translate(179.999954 0)"/>
       <use xlink:href="#JetBrainsMono-Regular-33" transform="translate(239.999939 0)"/>
      </g>
     </g>
    </g>
    <g id="xtick_7">
     <g id="line2d_13">
      <path d="M 537.284571 324.72 
L 537.284571 55.44 
" clip-path="url(#p3411022505)" style="fill: none; stroke-dasharray: 2.22,0.96; stroke-dashoffset: 0; stroke: #e2d5f5; stroke-opacity: 0.7; stroke-width: 0.6"/>
     </g>
     <g id="line2d_14">
      <g>
       <use xlink:href="#m3b92301591" x="537.284571" y="324.72" style="fill: #9b8bb8; stroke: #9b8bb8; stroke-width: 0.8"/>
      </g>
     </g>
     <g id="text_7">
      <!-- 04/27 -->
      <g style="fill: #9b8bb8" transform="translate(525.74419 353.301793) rotate(-30) scale(0.1 -0.1)">
       <use xlink:href="#JetBrainsMono-Regular-30"/>
       <use xlink:href="#JetBrainsMono-Regular-34" transform="translate(59.999985 0)"/>
       <use xlink:href="#JetBrainsMono-Regular-2f" transform="translate(119.999969 0)"/>
       <use xlink:href="#JetBrainsMono-Regular-32" transform="translate(179.999954 0)"/>
       <use xlink:href="#JetBrainsMono-Regular-37" transform="translate(239.999939 0)"/>
      </g>
     </g>
    </g>
   </g>
   <g id="matplotlib.axis_2">
    <g id="ytick_1">
     <g id="line2d_15">
      <path d="M 55.296 309.990245 
L 546.048 309.990245 
" clip-path="url(#p3411022505)" style="fill: none; stroke-dasharray: 2.22,0.96; stroke-dashoffset: 0; stroke: #e2d5f5; stroke-opacity: 0.7; stroke-width: 0.6"/>
     </g>
     <g id="line2d_16">
      <defs>
       <path id="m90aaa762b0" d="M 0 0 
L -3.5 0 
" style="stroke: #9b8bb8; stroke-width: 0.8"/>
      </defs>
      <g>
       <use xlink:href="#m90aaa762b0" x="55.296" y="309.990245" style="fill: #9b8bb8; stroke: #9b8bb8; stroke-width: 0.8"/>
      </g>
     </g>
     <g id="text_8">
      <!-- 200 -->
      <g style="fill: #9b8bb8" transform="translate(30.296 313.640245) scale(0.1 -0.1)">
       <use xlink:href="#JetBrainsMono-Regular-32"/>
       <use xlink:href="#JetBrainsMono-Regular-30" transform="translate(59.999985 0)"/>
       <use xlink:href="#JetBrainsMono-Regular-30" transform="translate(119.999969 0)"/>
      </g>
     </g>
    </g>
    <g id="ytick_2">
     <g id="line2d_17">
      <path d="M 55.296 273.165859 
L 546.048 273.165859 
" clip-path="url(#p3411022505)" style="fill: none; stroke-dasharray: 2.22,0.96; stroke-dashoffset: 0; stroke: #e2d5f5; stroke-opacity: 0.7; stroke-width: 0.6"/>
     </g>
     <g id="line2d_18">
      <g>
       <use xlink:href="#m90aaa762b0" x="55.296" y="273.165859" style="fill: #9b8bb8; stroke: #9b8bb8; stroke-width: 0.8"/>
      </g>
     </g>
     <g id="text_9">
      <!-- 210 -->
      <g style="fill: #9b8bb8" transform="translate(30.296 276.815859) scale(0.1 -0.1)">
       <use xlink:href="#JetBrainsMono-Regular-32"/>
       <use xlink:href="#JetBrainsMono-Regular-31" transform="translate(59.999985 0)"/>
       <use xlink:href="#JetBrainsMono-Regular-30" transform="translate(119.999969 0)"/>
      </g>
     </g>
    </g>
    <g id="ytick_3">
     <g id="line2d_19">
      <path d="M 55.296 236.341473 
L 546.048 236.341473 
" clip-path="url(#p3411022505)" style="fill: none; stroke-dasharray: 2.22,0.96; stroke-dashoffset: 0; stroke: #e2d5f5; stroke-opacity: 0.7; stroke-width: 0.6"/>
     </g>
     <g id="line2d_20">
      <g>
       <use xlink:href="#m90aaa762b0" x="55.296" y="236.341473" style="fill: #9b8bb8; stroke: #9b8bb8; stroke-width: 0.8"/>
      </g>
     </g>
     <g id="text_10">
      <!-- 220 -->
      <g style="fill: #9b8bb8" transform="translate(30.296 239.991473) scale(0.1 -0.1)">
       <use xlink:href="#JetBrainsMono-Regular-32"/>
       <use xlink:href="#JetBrainsMono-Regular-32" transform="translate(59.999985 0)"/>
       <use xlink:href="#JetBrainsMono-Regular-30" transform="translate(119.999969 0)"/>
      </g>
     </g>
    </g>
    <g id="ytick_4">
     <g id="line2d_21">
      <path d="M 55.296 199.517087 
L 546.048 199.517087 
" clip-path="url(#p3411022505)" style="fill: none; stroke-dasharray: 2.22,0.96; stroke-dashoffset: 0; stroke: #e2d5f5; stroke-opacity: 0.7; stroke-width: 0.6"/>
     </g>
     <g id="line2d_22">
      <g>
       <use xlink:href="#m90aaa762b0" x="55.296" y="199.517087" style="fill: #9b8bb8; stroke: #9b8bb8; stroke-width: 0.8"/>
      </g>
     </g>
     <g id="text_11">
      <!-- 230 -->
      <g style="fill: #9b8bb8" transform="translate(30.296 203.167087) scale(0.1 -0.1)">
       <use xlink:href="#JetBrainsMono-Regular-32"/>
       <use xlink:href="#JetBrainsMono-Regular-33" transform="translate(59.999985 0)"/>
       <use xlink:href="#JetBrainsMono-Regular-30" transform="translate(119.999969 0)"/>
      </g>
     </g>
    </g>
    <g id="ytick_5">
     <g id="line2d_23">
      <path d="M 55.296 162.6927 
L 546.048 162.6927 
" clip-path="url(#p3411022505)" style="fill: none; stroke-dasharray: 2.22,0.96; stroke-dashoffset: 0; stroke: #e2d5f5; stroke-opacity: 0.7; stroke-width: 0.6"/>
     </g>
     <g id="line2d_24">
      <g>
       <use xlink:href="#m90aaa762b0" x="55.296" y="162.6927" style="fill: #9b8bb8; stroke: #9b8bb8; stroke-width: 0.8"/>
      </g>
     </g>
     <g id="text_12">
      <!-- 240 -->
      <g style="fill: #9b8bb8" transform="translate(30.296 166.3427) scale(0.1 -0.1)">
       <use xlink:href="#JetBrainsMono-Regular-32"/>
       <use xlink:href="#JetBrainsMono-Regular-34" transform="translate(59.999985 0)"/>
       <use xlink:href="#JetBrainsMono-Regular-30" transform="translate(119.999969 0)"/>
      </g>
     </g>
    </g>
    <g id="ytick_6">
     <g id="line2d_25">
      <path d="M 55.296 125.868314 
L 546.048 125.868314 
" clip-path="url(#p3411022505)" style="fill: none; stroke-dasharray: 2.22,0.96; stroke-dashoffset: 0; stroke: #e2d5f5; stroke-opacity: 0.7; stroke-width: 0.6"/>
     </g>
     <g id="line2d_26">
      <g>
       <use xlink:href="#m90aaa762b0" x="55.296" y="125.868314" style="fill: #9b8bb8; stroke: #9b8bb8; stroke-width: 0.8"/>
      </g>
     </g>
     <g id="text_13">
      <!-- 250 -->
      <g style="fill: #9b8bb8" transform="translate(30.296 129.518314) scale(0.1 -0.1)">
       <use xlink:href="#JetBrainsMono-Regular-32"/>
       <use xlink:href="#JetBrainsMono-Regular-35" transform="translate(59.999985 0)"/>
       <use xlink:href="#JetBrainsMono-Regular-30" transform="translate(119.999969 0)"/>
      </g>
     </g>
    </g>
    <g id="ytick_7">
     <g id="line2d_27">
      <path d="M 55.296 89.043928 
L 546.048 89.043928 
" clip-path="url(#p3411022505)" style="fill: none; stroke-dasharray: 2.22,0.96; stroke-dashoffset: 0; stroke: #e2d5f5; stroke-opacity: 0.7; stroke-width: 0.6"/>
     </g>
     <g id="line2d_28">
      <g>
       <use xlink:href="#m90aaa762b0" x="55.296" y="89.043928" style="fill: #9b8bb8; stroke: #9b8bb8; stroke-width: 0.8"/>
      </g>
     </g>
     <g id="text_14">
      <!-- 260 -->
      <g style="fill: #9b8bb8" transform="translate(30.296 92.693928) scale(0.1 -0.1)">
       <defs>
        <path id="JetBrainsMono-Regular-36" d="M 1926 -64 
Q 1478 -64 1136 125 
Q 794 314 602 650 
Q 410 986 410 1427 
Q 410 1734 525 2057 
Q 640 2381 838 2733 
L 1920 4672 
L 2560 4672 
L 1408 2669 
L 1427 2656 
Q 1510 2765 1676 2822 
Q 1843 2880 2042 2880 
Q 2458 2880 2768 2697 
Q 3078 2515 3254 2195 
Q 3430 1875 3430 1453 
Q 3430 1005 3238 662 
Q 3046 320 2710 128 
Q 2374 -64 1926 -64 
z
M 1920 448 
Q 2336 448 2595 723 
Q 2854 998 2854 1440 
Q 2854 1882 2595 2157 
Q 2336 2432 1920 2432 
Q 1504 2432 1245 2157 
Q 986 1882 986 1440 
Q 986 998 1245 723 
Q 1504 448 1920 448 
z
" transform="scale(0.015625)"/>
       </defs>
       <use xlink:href="#JetBrainsMono-Regular-32"/>
       <use xlink:href="#JetBrainsMono-Regular-36" transform="translate(59.999985 0)"/>
       <use xlink:href="#JetBrainsMono-Regular-30" transform="translate(119.999969 0)"/>
      </g>
     </g>
    </g>
    <g id="text_15">
     <!-- Rating -->
     <g style="fill: #9b8bb8" transform="translate(24.496 208.08) rotate(-90) scale(0.1 -0.1)">
      <defs>
       <path id="JetBrainsMono-Regular-52" d="M 595 0 
L 595 4672 
L 2035 4672 
Q 2451 4672 2764 4502 
Q 3078 4333 3251 4032 
Q 3424 3731 3424 3328 
Q 3424 2854 3181 2515 
Q 2938 2176 2534 2042 
L 3488 0 
L 2854 0 
L 1939 1984 
L 1165 1984 
L 1165 0 
L 595 0 
z
M 1165 2502 
L 2035 2502 
Q 2394 2502 2611 2729 
Q 2829 2957 2829 3328 
Q 2829 3706 2611 3930 
Q 2394 4154 2035 4154 
L 1165 4154 
L 1165 2502 
z
" transform="scale(0.015625)"/>
       <path id="JetBrainsMono-Regular-61" d="M 1613 -64 
Q 1069 -64 749 240 
Q 429 544 429 1037 
Q 429 1363 576 1606 
Q 723 1850 985 1987 
Q 1248 2125 1587 2125 
L 2675 2125 
L 2675 2400 
Q 2675 3085 1926 3085 
Q 1594 3085 1389 2963 
Q 1184 2842 1171 2624 
L 595 2624 
Q 627 3040 982 3312 
Q 1338 3584 1926 3584 
Q 2566 3584 2908 3277 
Q 3251 2970 3251 2419 
L 3251 0 
L 2682 0 
L 2682 640 
L 2669 640 
Q 2618 314 2342 125 
Q 2067 -64 1613 -64 
z
M 1754 422 
Q 2176 422 2425 627 
Q 2675 832 2675 1184 
L 2675 1677 
L 1651 1677 
Q 1370 1677 1194 1507 
Q 1018 1338 1018 1056 
Q 1018 762 1213 592 
Q 1408 422 1754 422 
z
" transform="scale(0.015625)"/>
       <path id="JetBrainsMono-Regular-74" d="M 2272 0 
Q 1837 0 1574 253 
Q 1312 506 1312 928 
L 1312 2995 
L 301 2995 
L 301 3520 
L 1312 3520 
L 1312 4512 
L 1888 4512 
L 1888 3520 
L 3328 3520 
L 3328 2995 
L 1888 2995 
L 1888 928 
Q 1888 749 1993 637 
Q 2099 525 2272 525 
L 3296 525 
L 3296 0 
L 2272 0 
z
" transform="scale(0.015625)"/>
       <path id="JetBrainsMono-Regular-69" d="M 544 0 
L 544 525 
L 1792 525 
L 1792 2995 
L 672 2995 
L 672 3520 
L 2368 3520 
L 2368 525 
L 3552 525 
L 3552 0 
L 544 0 
z
M 2016 4154 
Q 1805 4154 1683 4262 
Q 1562 4371 1562 4557 
Q 1562 4749 1683 4861 
Q 1805 4973 2016 4973 
Q 2227 4973 2348 4861 
Q 2470 4749 2470 4557 
Q 2470 4371 2348 4262 
Q 2227 4154 2016 4154 
z
" transform="scale(0.015625)"/>
       <path id="JetBrainsMono-Regular-6e" d="M 589 0 
L 589 3520 
L 1165 3520 
L 1165 2848 
L 1171 2848 
Q 1216 3200 1459 3392 
Q 1702 3584 2106 3584 
Q 2637 3584 2950 3257 
Q 3264 2931 3264 2368 
L 3264 0 
L 2688 0 
L 2688 2266 
Q 2688 2669 2486 2883 
Q 2285 3098 1939 3098 
Q 1581 3098 1373 2874 
Q 1165 2650 1165 2240 
L 1165 0 
L 589 0 
z
" transform="scale(0.015625)"/>
       <path id="JetBrainsMono-Regular-67" d="M 1030 -1152 
L 1030 -627 
L 2022 -627 
Q 2323 -627 2496 -457 
Q 2669 -288 2669 0 
L 2669 320 
L 2682 896 
L 2662 896 
Q 2611 582 2361 412 
Q 2112 243 1734 243 
Q 1190 243 876 588 
Q 563 934 563 1536 
L 563 2278 
Q 563 2880 876 3232 
Q 1190 3584 1734 3584 
Q 2112 3584 2361 3405 
Q 2611 3226 2662 2912 
L 2675 2912 
L 2675 3520 
L 3245 3520 
L 3245 0 
Q 3245 -531 2915 -841 
Q 2586 -1152 2016 -1152 
L 1030 -1152 
z
M 1907 723 
Q 2266 723 2470 947 
Q 2675 1171 2675 1568 
L 2675 2240 
Q 2675 2637 2470 2861 
Q 2266 3085 1907 3085 
Q 1542 3085 1340 2873 
Q 1139 2662 1139 2304 
L 1139 1504 
Q 1139 1146 1340 934 
Q 1542 723 1907 723 
z
" transform="scale(0.015625)"/>
      </defs>
      <use xlink:href="#JetBrainsMono-Regular-52"/>
      <use xlink:href="#JetBrainsMono-Regular-61" transform="translate(59.999985 0)"/>
      <use xlink:href="#JetBrainsMono-Regular-74" transform="translate(119.999969 0)"/>
      <use xlink:href="#JetBrainsMono-Regular-69" transform="translate(179.999954 0)"/>
      <use xlink:href="#JetBrainsMono-Regular-6e" transform="translate(239.999939 0)"/>
      <use xlink:href="#JetBrainsMono-Regular-67" transform="translate(299.999924 0)"/>
     </g>
    </g>
   </g>
   <g id="patch_3">
    <path d="M 55.296 324.72 
L 55.296 55.44 
" style="fill: none; stroke: #d8c8ef; stroke-width: 0.8; stroke-linejoin: miter; stroke-linecap: square"/>
   </g>
   <g id="patch_4">
    <path d="M 55.296 324.72 
L 546.048 324.72 
" style="fill: none; stroke: #d8c8ef; stroke-width: 0.8; stroke-linejoin: miter; stroke-linecap: square"/>
   </g>
   <g id="FillBetweenPolyCollection_1">
    <defs>
     <path id="m0cabb7c5ba" d="M 64.059429 -71.28 
L 64.059429 -89.692193 
L 65.642121 -92.185664 
L 67.224814 -93.971705 
L 68.807507 -95.12054 
L 70.3902 -95.70239 
L 71.972892 -95.78748 
L 73.555585 -95.446031 
L 75.138278 -94.748266 
L 76.720971 -93.764408 
L 78.303664 -92.564681 
L 79.886356 -91.219306 
L 81.469049 -89.798507 
L 83.051742 -88.372506 
L 84.634435 -87.011526 
L 86.217128 -85.78579 
L 87.79982 -84.76552 
L 89.382513 -84.020941 
L 90.965206 -83.622273 
L 92.547899 -83.63974 
L 94.130591 -84.143566 
L 95.713284 -85.203971 
L 97.295977 -86.891181 
L 98.87867 -89.275416 
L 100.461363 -92.405282 
L 102.044055 -96.193755 
L 103.626748 -100.501334 
L 105.209441 -105.188403 
L 106.792134 -110.115348 
L 108.374827 -115.142553 
L 109.957519 -120.130403 
L 111.540212 -124.939283 
L 113.122905 -129.429578 
L 114.705598 -133.461673 
L 116.28829 -136.895952 
L 117.870983 -139.611416 
L 119.453676 -141.634908 
L 121.036369 -143.063772 
L 122.619062 -143.995788 
L 124.201754 -144.528733 
L 125.784447 -144.760385 
L 127.36714 -144.788525 
L 128.949833 -144.71093 
L 130.532526 -144.625378 
L 132.115218 -144.629649 
L 133.697911 -144.821521 
L 135.280604 -145.29077 
L 136.863297 -146.045625 
L 138.445989 -147.046682 
L 140.028682 -148.25394 
L 141.611375 -149.6274 
L 143.194068 -151.127061 
L 144.776761 -152.712922 
L 146.359453 -154.344984 
L 147.942146 -155.983245 
L 149.524839 -157.587706 
L 151.107532 -159.118365 
L 152.690225 -160.537446 
L 154.272917 -161.836809 
L 155.85561 -163.029418 
L 157.438303 -164.128689 
L 159.020996 -165.148037 
L 160.603688 -166.100878 
L 162.186381 -167.000627 
L 163.769074 -167.860701 
L 165.351767 -168.694514 
L 166.93446 -169.515483 
L 168.517152 -170.337022 
L 170.099845 -171.173169 
L 171.682538 -172.049109 
L 173.265231 -172.999668 
L 174.847924 -174.059991 
L 176.430616 -175.265226 
L 178.013309 -176.650516 
L 179.596002 -178.251007 
L 181.178695 -180.101844 
L 182.761387 -182.238174 
L 184.34408 -184.695141 
L 185.926773 -187.50789 
L 187.509466 -190.709259 
L 189.092159 -194.274084 
L 190.674851 -198.116326 
L 192.257544 -202.147064 
L 193.840237 -206.277379 
L 195.42293 -210.41835 
L 197.005623 -214.481055 
L 198.588315 -218.376575 
L 200.171008 -222.01599 
L 201.753701 -225.310377 
L 203.336394 -228.170818 
L 204.919086 -230.510255 
L 206.501779 -232.311034 
L 208.084472 -233.643919 
L 209.667165 -234.585408 
L 211.249858 -235.212002 
L 212.83255 -235.600201 
L 214.415243 -235.826504 
L 215.997936 -235.967412 
L 217.580629 -236.099423 
L 219.163322 -236.299038 
L 220.746014 -236.642757 
L 222.328707 -237.206372 
L 223.9114 -238.023224 
L 225.494093 -239.060856 
L 227.076785 -240.281148 
L 228.659478 -241.645982 
L 230.242171 -243.117241 
L 231.824864 -244.656806 
L 233.407557 -246.226559 
L 234.990249 -247.788381 
L 236.572942 -249.304154 
L 238.155635 -250.73576 
L 239.738328 -252.04527 
L 241.321021 -253.215725 
L 242.903713 -254.269867 
L 244.486406 -255.234863 
L 246.069099 -256.137878 
L 247.651792 -257.006078 
L 249.234484 -257.86663 
L 250.817177 -258.746699 
L 252.39987 -259.67345 
L 253.982563 -260.67405 
L 255.565256 -261.775664 
L 257.147948 -263.005407 
L 258.730641 -264.377031 
L 260.313334 -265.873207 
L 261.896027 -267.472198 
L 263.47872 -269.152265 
L 265.061412 -270.891672 
L 266.644105 -272.66868 
L 268.226798 -274.461552 
L 269.809491 -276.248549 
L 271.392183 -278.007935 
L 272.974876 -279.717972 
L 274.557569 -281.356932 
L 276.140262 -282.914245 
L 277.722955 -284.411421 
L 279.305647 -285.87571 
L 280.88834 -287.334356 
L 282.471033 -288.814607 
L 284.053726 -290.343709 
L 285.636419 -291.94891 
L 287.219111 -293.657456 
L 288.801804 -295.496594 
L 290.384497 -297.49357 
L 291.96719 -299.67563 
L 293.549882 -302.05479 
L 295.132575 -304.588535 
L 296.715268 -307.222154 
L 298.297961 -309.900938 
L 299.880654 -312.570173 
L 301.463346 -315.175151 
L 303.046039 -317.661159 
L 304.628732 -319.973487 
L 306.211425 -322.057424 
L 307.794118 -323.858259 
L 309.37681 -325.321281 
L 310.959503 -326.406644 
L 312.542196 -327.140959 
L 314.124889 -327.5694 
L 315.707581 -327.737143 
L 317.290274 -327.689361 
L 318.872967 -327.471231 
L 320.45566 -327.127926 
L 322.038353 -326.704621 
L 323.621045 -326.246492 
L 325.203738 -325.798713 
L 326.786431 -325.40646 
L 328.369124 -325.108201 
L 329.951817 -324.904889 
L 331.534509 -324.784433 
L 333.117202 -324.734727 
L 334.699895 -324.743668 
L 336.282588 -324.79915 
L 337.86528 -324.889068 
L 339.447973 -325.00132 
L 341.030666 -325.123799 
L 342.613359 -325.244402 
L 344.196052 -325.351023 
L 345.778744 -325.432942 
L 347.361437 -325.489193 
L 348.94413 -325.523002 
L 350.526823 -325.537614 
L 352.109516 -325.536271 
L 353.692208 -325.522217 
L 355.274901 -325.498696 
L 356.857594 -325.46895 
L 358.440287 -325.436224 
L 360.022979 -325.40376 
L 361.605672 -325.374802 
L 363.188365 -325.352315 
L 364.771058 -325.336763 
L 366.353751 -325.327288 
L 367.936443 -325.323022 
L 369.519136 -325.323095 
L 371.101829 -325.326638 
L 372.684522 -325.332782 
L 374.267215 -325.340659 
L 375.849907 -325.349398 
L 377.4326 -325.358132 
L 379.015293 -325.365991 
L 380.597986 -325.37216 
L 382.180678 -325.376457 
L 383.763371 -325.379108 
L 385.346064 -325.380347 
L 386.928757 -325.380405 
L 388.51145 -325.379517 
L 390.094142 -325.377914 
L 391.676835 -325.37583 
L 393.259528 -325.373497 
L 394.842221 -325.371149 
L 396.424914 -325.369018 
L 398.007606 -325.367327 
L 399.590299 -325.36614 
L 401.172992 -325.365399 
L 402.755685 -325.365041 
L 404.338377 -325.365004 
L 405.92107 -325.365226 
L 407.503763 -325.365643 
L 409.086456 -325.366194 
L 410.669149 -325.366817 
L 412.251841 -325.367448 
L 413.834534 -325.368025 
L 415.417227 -325.368488 
L 416.99992 -325.368816 
L 418.582613 -325.369023 
L 420.165305 -325.369126 
L 421.747998 -325.369141 
L 423.330691 -325.369086 
L 424.913384 -325.368978 
L 426.496076 -325.368832 
L 428.078769 -325.368666 
L 429.661462 -325.368497 
L 431.244155 -325.368341 
L 432.826848 -325.368214 
L 434.40954 -325.368123 
L 435.992233 -325.368066 
L 437.574926 -325.368036 
L 439.157619 -325.368031 
L 440.740312 -325.368044 
L 442.323004 -325.368072 
L 443.905697 -325.368111 
L 445.48839 -325.368155 
L 447.071083 -325.3682 
L 448.653775 -325.368243 
L 450.236468 -325.368277 
L 451.819161 -325.368302 
L 453.401854 -325.368318 
L 454.984547 -325.368327 
L 456.567239 -325.368329 
L 458.149932 -325.368325 
L 459.732625 -325.368318 
L 461.315318 -325.368308 
L 462.898011 -325.368296 
L 464.480703 -325.368284 
L 466.063396 -325.368273 
L 467.646089 -325.368263 
L 469.228782 -325.368256 
L 470.811474 -325.368252 
L 472.394167 -325.368249 
L 473.97686 -325.368249 
L 475.559553 -325.368249 
L 477.142246 -325.368251 
L 478.724938 -325.368254 
L 480.307631 -325.368257 
L 481.890324 -325.36826 
L 483.473017 -325.368264 
L 485.05571 -325.368266 
L 486.638402 -325.368268 
L 488.221095 -325.368269 
L 489.803788 -325.36827 
L 491.386481 -325.36827 
L 492.969173 -325.36827 
L 494.551866 -325.36827 
L 496.134559 -325.368269 
L 497.717252 -325.368268 
L 499.299945 -325.368267 
L 500.882637 -325.368266 
L 502.46533 -325.368265 
L 504.048023 -325.368265 
L 505.630716 -325.368265 
L 507.213409 -325.368264 
L 508.796101 -325.368264 
L 510.378794 -325.368264 
L 511.961487 -325.368264 
L 513.54418 -325.368264 
L 515.126872 -325.368265 
L 516.709565 -325.368265 
L 518.292258 -325.368265 
L 519.874951 -325.368266 
L 521.457644 -325.368266 
L 523.040336 -325.368266 
L 524.623029 -325.368267 
L 526.205722 -325.368267 
L 527.788415 -325.368267 
L 529.371108 -325.368267 
L 530.9538 -325.368267 
L 532.536493 -325.368267 
L 534.119186 -325.368267 
L 535.701879 -325.368266 
L 537.284571 -325.368266 
L 537.284571 -71.28 
L 537.284571 -71.28 
L 535.701879 -71.28 
L 534.119186 -71.28 
L 532.536493 -71.28 
L 530.9538 -71.28 
L 529.371108 -71.28 
L 527.788415 -71.28 
L 526.205722 -71.28 
L 524.623029 -71.28 
L 523.040336 -71.28 
L 521.457644 -71.28 
L 519.874951 -71.28 
L 518.292258 -71.28 
L 516.709565 -71.28 
L 515.126872 -71.28 
L 513.54418 -71.28 
L 511.961487 -71.28 
L 510.378794 -71.28 
L 508.796101 -71.28 
L 507.213409 -71.28 
L 505.630716 -71.28 
L 504.048023 -71.28 
L 502.46533 -71.28 
L 500.882637 -71.28 
L 499.299945 -71.28 
L 497.717252 -71.28 
L 496.134559 -71.28 
L 494.551866 -71.28 
L 492.969173 -71.28 
L 491.386481 -71.28 
L 489.803788 -71.28 
L 488.221095 -71.28 
L 486.638402 -71.28 
L 485.05571 -71.28 
L 483.473017 -71.28 
L 481.890324 -71.28 
L 480.307631 -71.28 
L 478.724938 -71.28 
L 477.142246 -71.28 
L 475.559553 -71.28 
L 473.97686 -71.28 
L 472.394167 -71.28 
L 470.811474 -71.28 
L 469.228782 -71.28 
L 467.646089 -71.28 
L 466.063396 -71.28 
L 464.480703 -71.28 
L 462.898011 -71.28 
L 461.315318 -71.28 
L 459.732625 -71.28 
L 458.149932 -71.28 
L 456.567239 -71.28 
L 454.984547 -71.28 
L 453.401854 -71.28 
L 451.819161 -71.28 
L 450.236468 -71.28 
L 448.653775 -71.28 
L 447.071083 -71.28 
L 445.48839 -71.28 
L 443.905697 -71.28 
L 442.323004 -71.28 
L 440.740312 -71.28 
L 439.157619 -71.28 
L 437.574926 -71.28 
L 435.992233 -71.28 
L 434.40954 -71.28 
L 432.826848 -71.28 
L 431.244155 -71.28 
L 429.661462 -71.28 
L 428.078769 -71.28 
L 426.496076 -71.28 
L 424.913384 -71.28 
L 423.330691 -71.28 
L 421.747998 -71.28 
L 420.165305 -71.28 
L 418.582613 -71.28 
L 416.99992 -71.28 
L 415.417227 -71.28 
L 413.834534 -71.28 
L 412.251841 -71.28 
L 410.669149 -71.28 
L 409.086456 -71.28 
L 407.503763 -71.28 
L 405.92107 -71.28 
L 404.338377 -71.28 
L 402.755685 -71.28 
L 401.172992 -71.28 
L 399.590299 -71.28 
L 398.007606 -71.28 
L 396.424914 -71.28 
L 394.842221 -71.28 
L 393.259528 -71.28 
L 391.676835 -71.28 
L 390.094142 -71.28 
L 388.51145 -71.28 
L 386.928757 -71.28 
L 385.346064 -71.28 
L 383.763371 -71.28 
L 382.180678 -71.28 
L 380.597986 -71.28 
L 379.015293 -71.28 
L 377.4326 -71.28 
L 375.849907 -71.28 
L 374.267215 -71.28 
L 372.684522 -71.28 
L 371.101829 -71.28 
L 369.519136 -71.28 
L 367.936443 -71.28 
L 366.353751 -71.28 
L 364.771058 -71.28 
L 363.188365 -71.28 
L 361.605672 -71.28 
L 360.022979 -71.28 
L 358.440287 -71.28 
L 356.857594 -71.28 
L 355.274901 -71.28 
L 353.692208 -71.28 
L 352.109516 -71.28 
L 350.526823 -71.28 
L 348.94413 -71.28 
L 347.361437 -71.28 
L 345.778744 -71.28 
L 344.196052 -71.28 
L 342.613359 -71.28 
L 341.030666 -71.28 
L 339.447973 -71.28 
L 337.86528 -71.28 
L 336.282588 -71.28 
L 334.699895 -71.28 
L 333.117202 -71.28 
L 331.534509 -71.28 
L 329.951817 -71.28 
L 328.369124 -71.28 
L 326.786431 -71.28 
L 325.203738 -71.28 
L 323.621045 -71.28 
L 322.038353 -71.28 
L 320.45566 -71.28 
L 318.872967 -71.28 
L 317.290274 -71.28 
L 315.707581 -71.28 
L 314.124889 -71.28 
L 312.542196 -71.28 
L 310.959503 -71.28 
L 309.37681 -71.28 
L 307.794118 -71.28 
L 306.211425 -71.28 
L 304.628732 -71.28 
L 303.046039 -71.28 
L 301.463346 -71.28 
L 299.880654 -71.28 
L 298.297961 -71.28 
L 296.715268 -71.28 
L 295.132575 -71.28 
L 293.549882 -71.28 
L 291.96719 -71.28 
L 290.384497 -71.28 
L 288.801804 -71.28 
L 287.219111 -71.28 
L 285.636419 -71.28 
L 284.053726 -71.28 
L 282.471033 -71.28 
L 280.88834 -71.28 
L 279.305647 -71.28 
L 277.722955 -71.28 
L 276.140262 -71.28 
L 274.557569 -71.28 
L 272.974876 -71.28 
L 271.392183 -71.28 
L 269.809491 -71.28 
L 268.226798 -71.28 
L 266.644105 -71.28 
L 265.061412 -71.28 
L 263.47872 -71.28 
L 261.896027 -71.28 
L 260.313334 -71.28 
L 258.730641 -71.28 
L 257.147948 -71.28 
L 255.565256 -71.28 
L 253.982563 -71.28 
L 252.39987 -71.28 
L 250.817177 -71.28 
L 249.234484 -71.28 
L 247.651792 -71.28 
L 246.069099 -71.28 
L 244.486406 -71.28 
L 242.903713 -71.28 
L 241.321021 -71.28 
L 239.738328 -71.28 
L 238.155635 -71.28 
L 236.572942 -71.28 
L 234.990249 -71.28 
L 233.407557 -71.28 
L 231.824864 -71.28 
L 230.242171 -71.28 
L 228.659478 -71.28 
L 227.076785 -71.28 
L 225.494093 -71.28 
L 223.9114 -71.28 
L 222.328707 -71.28 
L 220.746014 -71.28 
L 219.163322 -71.28 
L 217.580629 -71.28 
L 215.997936 -71.28 
L 214.415243 -71.28 
L 212.83255 -71.28 
L 211.249858 -71.28 
L 209.667165 -71.28 
L 208.084472 -71.28 
L 206.501779 -71.28 
L 204.919086 -71.28 
L 203.336394 -71.28 
L 201.753701 -71.28 
L 200.171008 -71.28 
L 198.588315 -71.28 
L 197.005623 -71.28 
L 195.42293 -71.28 
L 193.840237 -71.28 
L 192.257544 -71.28 
L 190.674851 -71.28 
L 189.092159 -71.28 
L 187.509466 -71.28 
L 185.926773 -71.28 
L 184.34408 -71.28 
L 182.761387 -71.28 
L 181.178695 -71.28 
L 179.596002 -71.28 
L 178.013309 -71.28 
L 176.430616 -71.28 
L 174.847924 -71.28 
L 173.265231 -71.28 
L 171.682538 -71.28 
L 170.099845 -71.28 
L 168.517152 -71.28 
L 166.93446 -71.28 
L 165.351767 -71.28 
L 163.769074 -71.28 
L 162.186381 -71.28 
L 160.603688 -71.28 
L 159.020996 -71.28 
L 157.438303 -71.28 
L 155.85561 -71.28 
L 154.272917 -71.28 
L 152.690225 -71.28 
L 151.107532 -71.28 
L 149.524839 -71.28 
L 147.942146 -71.28 
L 146.359453 -71.28 
L 144.776761 -71.28 
L 143.194068 -71.28 
L 141.611375 -71.28 
L 140.028682 -71.28 
L 138.445989 -71.28 
L 136.863297 -71.28 
L 135.280604 -71.28 
L 133.697911 -71.28 
L 132.115218 -71.28 
L 130.532526 -71.28 
L 128.949833 -71.28 
L 127.36714 -71.28 
L 125.784447 -71.28 
L 124.201754 -71.28 
L 122.619062 -71.28 
L 121.036369 -71.28 
L 119.453676 -71.28 
L 117.870983 -71.28 
L 116.28829 -71.28 
L 114.705598 -71.28 
L 113.122905 -71.28 
L 111.540212 -71.28 
L 109.957519 -71.28 
L 108.374827 -71.28 
L 106.792134 -71.28 
L 105.209441 -71.28 
L 103.626748 -71.28 
L 102.044055 -71.28 
L 100.461363 -71.28 
L 98.87867 -71.28 
L 97.295977 -71.28 
L 95.713284 -71.28 
L 94.130591 -71.28 
L 92.547899 -71.28 
L 90.965206 -71.28 
L 89.382513 -71.28 
L 87.79982 -71.28 
L 86.217128 -71.28 
L 84.634435 -71.28 
L 83.051742 -71.28 
L 81.469049 -71.28 
L 79.886356 -71.28 
L 78.303664 -71.28 
L 76.720971 -71.28 
L 75.138278 -71.28 
L 73.555585 -71.28 
L 71.972892 -71.28 
L 70.3902 -71.28 
L 68.807507 -71.28 
L 67.224814 -71.28 
L 65.642121 -71.28 
L 64.059429 -71.28 
z
" style="stroke: #8b5cf6; stroke-opacity: 0.12"/>
    </defs>
    <g clip-path="url(#p3411022505)">
     <use xlink:href="#m0cabb7c5ba" x="0" y="396" style="fill: #8b5cf6; fill-opacity: 0.12; stroke: #8b5cf6; stroke-opacity: 0.12"/>
    </g>
   </g>
   <g id="text_16">
    <!-- 265 -->
    <g style="fill: #8b5cf6" transform="translate(540.284571 67.631734) scale(0.12 -0.12)">
     <defs>
      <path id="JetBrainsMono-Bold-32" d="M 474 0 
L 474 723 
L 2157 2445 
Q 2566 2874 2566 3315 
Q 2566 3629 2384 3824 
Q 2202 4019 1894 4019 
Q 1581 4019 1392 3817 
Q 1203 3616 1203 3283 
L 403 3283 
Q 403 3718 595 4044 
Q 787 4371 1126 4553 
Q 1466 4736 1914 4736 
Q 2355 4736 2688 4563 
Q 3021 4390 3203 4080 
Q 3386 3770 3386 3354 
Q 3386 2995 3216 2636 
Q 3046 2278 2656 1894 
L 1478 723 
L 3443 723 
L 3443 0 
L 474 0 
z
" transform="scale(0.015625)"/>
      <path id="JetBrainsMono-Bold-36" d="M 1920 -64 
Q 1440 -64 1085 128 
Q 730 320 534 669 
Q 339 1018 339 1485 
Q 339 1760 457 2115 
Q 576 2470 781 2835 
L 1792 4672 
L 2701 4672 
L 1498 2611 
L 1523 2598 
Q 1619 2733 1804 2809 
Q 1990 2886 2208 2886 
Q 2598 2886 2889 2710 
Q 3181 2534 3341 2214 
Q 3501 1894 3501 1459 
Q 3501 998 3305 656 
Q 3110 314 2755 125 
Q 2400 -64 1920 -64 
z
M 1920 614 
Q 2278 614 2496 841 
Q 2714 1069 2714 1446 
Q 2714 1830 2496 2057 
Q 2278 2285 1920 2285 
Q 1562 2285 1344 2057 
Q 1126 1830 1126 1446 
Q 1126 1069 1344 841 
Q 1562 614 1920 614 
z
" transform="scale(0.015625)"/>
      <path id="JetBrainsMono-Bold-35" d="M 1894 -64 
Q 1210 -64 803 297 
Q 397 659 397 1280 
L 1197 1280 
Q 1197 986 1385 810 
Q 1574 634 1901 634 
Q 2227 634 2409 810 
Q 2592 986 2592 1299 
L 2592 1606 
Q 2592 1920 2413 2096 
Q 2234 2272 1907 2272 
L 557 2272 
L 557 4672 
L 3219 4672 
L 3219 3949 
L 1312 3949 
L 1318 2976 
L 1946 2976 
Q 2637 2976 3014 2617 
Q 3392 2259 3392 1606 
L 3392 1299 
Q 3392 666 2992 301 
Q 2592 -64 1894 -64 
z
" transform="scale(0.015625)"/>
     </defs>
     <use xlink:href="#JetBrainsMono-Bold-32"/>
     <use xlink:href="#JetBrainsMono-Bold-36" transform="translate(59.999985 0)"/>
     <use xlink:href="#JetBrainsMono-Bold-35" transform="translate(119.999969 0)"/>
    </g>
   </g>
   <g id="text_17">
    <!-- Rating History -->
    <g style="fill: #8b5cf6" transform="translate(55.296 50.44) scale(0.17 -0.17)">
     <defs>
      <path id="JetBrainsMono-Bold-52" d="M 493 0 
L 493 4672 
L 1965 4672 
Q 2432 4672 2774 4499 
Q 3117 4326 3309 4016 
Q 3501 3706 3501 3283 
Q 3501 2816 3270 2467 
Q 3040 2118 2650 1971 
L 3565 0 
L 2688 0 
L 1869 1856 
L 1286 1856 
L 1286 0 
L 493 0 
z
M 1286 2560 
L 1965 2560 
Q 2304 2560 2496 2745 
Q 2688 2931 2688 3258 
Q 2688 3584 2493 3776 
Q 2298 3968 1965 3968 
L 1286 3968 
L 1286 2560 
z
" transform="scale(0.015625)"/>
      <path id="JetBrainsMono-Bold-61" d="M 1530 -64 
Q 992 -64 681 240 
Q 371 544 371 1037 
Q 371 1549 723 1853 
Q 1075 2157 1690 2157 
L 2547 2157 
L 2547 2406 
Q 2547 2938 1926 2938 
Q 1645 2938 1478 2829 
Q 1312 2720 1293 2522 
L 525 2522 
Q 550 2995 924 3289 
Q 1299 3584 1933 3584 
Q 2605 3584 2976 3270 
Q 3347 2957 3347 2387 
L 3347 0 
L 2566 0 
L 2566 659 
Q 2522 320 2246 128 
Q 1971 -64 1530 -64 
z
M 1786 589 
Q 2138 589 2342 761 
Q 2547 934 2547 1222 
L 2547 1638 
L 1728 1638 
Q 1466 1638 1312 1491 
Q 1158 1344 1158 1114 
Q 1158 877 1321 733 
Q 1485 589 1786 589 
z
" transform="scale(0.015625)"/>
      <path id="JetBrainsMono-Bold-74" d="M 2272 0 
Q 1779 0 1488 285 
Q 1197 570 1197 1056 
L 1197 2797 
L 224 2797 
L 224 3520 
L 1197 3520 
L 1197 4512 
L 2003 4512 
L 2003 3520 
L 3405 3520 
L 3405 2797 
L 2003 2797 
L 2003 1075 
Q 2003 922 2089 822 
Q 2176 723 2330 723 
L 3373 723 
L 3373 0 
L 2272 0 
z
" transform="scale(0.015625)"/>
      <path id="JetBrainsMono-Bold-69" d="M 486 0 
L 486 723 
L 1690 723 
L 1690 2797 
L 614 2797 
L 614 3520 
L 2490 3520 
L 2490 723 
L 3571 723 
L 3571 0 
L 486 0 
z
M 2032 4109 
Q 1789 4109 1648 4233 
Q 1507 4358 1507 4570 
Q 1507 4781 1648 4905 
Q 1789 5030 2032 5030 
Q 2275 5030 2416 4905 
Q 2557 4781 2557 4570 
Q 2557 4358 2416 4233 
Q 2275 4109 2032 4109 
z
" transform="scale(0.015625)"/>
      <path id="JetBrainsMono-Bold-6e" d="M 493 0 
L 493 3520 
L 1274 3520 
L 1274 2861 
Q 1338 3194 1587 3389 
Q 1837 3584 2221 3584 
Q 2739 3584 3049 3238 
Q 3360 2893 3360 2310 
L 3360 0 
L 2560 0 
L 2560 2214 
Q 2560 2541 2390 2717 
Q 2221 2893 1933 2893 
Q 1632 2893 1462 2713 
Q 1293 2534 1293 2202 
L 1293 0 
L 493 0 
z
" transform="scale(0.015625)"/>
      <path id="JetBrainsMono-Bold-67" d="M 973 -1152 
L 973 -486 
L 1965 -486 
Q 2246 -486 2400 -336 
Q 2554 -186 2554 70 
L 2554 282 
L 2566 832 
Q 2458 538 2218 374 
Q 1978 211 1632 211 
Q 1094 211 777 572 
Q 461 934 461 1555 
L 461 2240 
Q 461 2854 777 3219 
Q 1094 3584 1632 3584 
Q 1978 3584 2218 3421 
Q 2458 3258 2566 2957 
L 2566 3520 
L 3347 3520 
L 3347 51 
Q 3347 -506 2979 -829 
Q 2611 -1152 1978 -1152 
L 973 -1152 
z
M 1901 896 
Q 2208 896 2377 1078 
Q 2547 1261 2547 1587 
L 2547 2202 
Q 2547 2528 2377 2710 
Q 2208 2893 1901 2893 
Q 1594 2893 1427 2717 
Q 1261 2541 1261 2227 
L 1261 1562 
Q 1261 1248 1427 1072 
Q 1594 896 1901 896 
z
" transform="scale(0.015625)"/>
      <path id="JetBrainsMono-Bold-20" transform="scale(0.015625)"/>
      <path id="JetBrainsMono-Bold-48" d="M 493 0 
L 493 4672 
L 1293 4672 
L 1293 2778 
L 2547 2778 
L 2547 4672 
L 3347 4672 
L 3347 0 
L 2547 0 
L 2547 2054 
L 1293 2054 
L 1293 0 
L 493 0 
z
" transform="scale(0.015625)"/>
      <path id="JetBrainsMono-Bold-73" d="M 1773 -58 
Q 1146 -58 781 227 
Q 416 512 416 998 
L 1203 998 
Q 1203 794 1353 685 
Q 1504 576 1773 576 
L 2054 576 
Q 2342 576 2499 685 
Q 2656 794 2656 998 
Q 2656 1190 2547 1283 
Q 2438 1376 2214 1408 
L 1338 1523 
Q 915 1581 688 1849 
Q 461 2118 461 2547 
Q 461 3046 793 3312 
Q 1126 3578 1754 3578 
L 2048 3578 
Q 2637 3578 2995 3309 
Q 3354 3040 3366 2592 
L 2573 2592 
Q 2566 2758 2425 2857 
Q 2285 2957 2048 2957 
L 1754 2957 
Q 1498 2957 1363 2851 
Q 1229 2746 1229 2566 
Q 1229 2406 1328 2329 
Q 1427 2253 1619 2234 
L 2445 2118 
Q 2931 2061 3177 1776 
Q 3424 1491 3424 1011 
Q 3424 499 3075 220 
Q 2726 -58 2054 -58 
L 1773 -58 
z
" transform="scale(0.015625)"/>
      <path id="JetBrainsMono-Bold-6f" d="M 1920 -58 
Q 1242 -58 845 323 
Q 448 704 448 1350 
L 448 2170 
Q 448 2822 845 3200 
Q 1242 3578 1920 3578 
Q 2598 3578 2995 3200 
Q 3392 2822 3392 2170 
L 3392 1350 
Q 3392 704 2995 323 
Q 2598 -58 1920 -58 
z
M 1920 640 
Q 2240 640 2416 816 
Q 2592 992 2592 1325 
L 2592 2195 
Q 2592 2528 2416 2704 
Q 2240 2880 1920 2880 
Q 1600 2880 1424 2704 
Q 1248 2528 1248 2195 
L 1248 1325 
Q 1248 992 1424 816 
Q 1600 640 1920 640 
z
" transform="scale(0.015625)"/>
      <path id="JetBrainsMono-Bold-72" d="M 621 0 
L 621 3520 
L 1402 3520 
L 1402 2835 
Q 1466 3181 1718 3382 
Q 1971 3584 2374 3584 
Q 2912 3584 3213 3238 
Q 3514 2893 3514 2272 
L 3514 1939 
L 2714 1939 
L 2714 2234 
Q 2714 2554 2547 2723 
Q 2381 2893 2074 2893 
Q 1754 2893 1587 2701 
Q 1421 2509 1421 2157 
L 1421 0 
L 621 0 
z
" transform="scale(0.015625)"/>
      <path id="JetBrainsMono-Bold-79" d="M 1056 -1152 
L 1555 192 
L 230 3520 
L 1075 3520 
L 1754 1722 
Q 1811 1562 1868 1373 
Q 1926 1184 1952 1024 
Q 1971 1184 2025 1373 
Q 2080 1562 2138 1722 
L 2765 3520 
L 3610 3520 
L 1894 -1152 
L 1056 -1152 
z
" transform="scale(0.015625)"/>
     </defs>
     <use xlink:href="#JetBrainsMono-Bold-52"/>
     <use xlink:href="#JetBrainsMono-Bold-61" transform="translate(59.999985 0)"/>
     <use xlink:href="#JetBrainsMono-Bold-74" transform="translate(119.999969 0)"/>
     <use xlink:href="#JetBrainsMono-Bold-69" transform="translate(179.999954 0)"/>
     <use xlink:href="#JetBrainsMono-Bold-6e" transform="translate(239.999939 0)"/>
     <use xlink:href="#JetBrainsMono-Bold-67" transform="translate(299.999924 0)"/>
     <use xlink:href="#JetBrainsMono-Bold-20" transform="translate(359.999908 0)"/>
     <use xlink:href="#JetBrainsMono-Bold-48" transform="translate(419.999893 0)"/>
     <use xlink:href="#JetBrainsMono-Bold-69" transform="translate(479.999878 0)"/>
     <use xlink:href="#JetBrainsMono-Bold-73" transform="translate(539.999863 0)"/>
     <use xlink:href="#JetBrainsMono-Bold-74" transform="translate(599.999847 0)"/>
     <use xlink:href="#JetBrainsMono-Bold-6f" transform="translate(659.999832 0)"/>
     <use xlink:href="#JetBrainsMono-Bold-72" transform="translate(719.999817 0)"/>
     <use xlink:href="#JetBrainsMono-Bold-79" transform="translate(779.999802 0)"/>
    </g>
   </g>
   <g id="line2d_29">
    <path d="M 64.059429 306.307807 
L 65.642121 303.814336 
L 67.224814 302.028295 
L 68.807507 300.87946 
L 70.3902 300.29761 
L 71.972892 300.21252 
L 73.555585 300.553969 
L 75.138278 301.251734 
L 76.720971 302.235592 
L 78.303664 303.435319 
L 81.469049 306.201493 
L 84.634435 308.988474 
L 86.217128 310.21421 
L 87.79982 311.23448 
L 89.382513 311.979059 
L 90.965206 312.377727 
L 92.547899 312.36026 
L 94.130591 311.856434 
L 95.713284 310.796029 
L 97.295977 309.108819 
L 98.87867 306.724584 
L 100.461363 303.594718 
L 102.044055 299.806245 
L 103.626748 295.498666 
L 106.792134 285.884652 
L 111.540212 271.060717 
L 113.122905 266.570422 
L 114.705598 262.538327 
L 116.28829 259.104048 
L 117.870983 256.388584 
L 119.453676 254.365092 
L 121.036369 252.936228 
L 122.619062 252.004212 
L 124.201754 251.471267 
L 125.784447 251.239615 
L 128.949833 251.28907 
L 132.115218 251.370351 
L 133.697911 251.178479 
L 135.280604 250.70923 
L 136.863297 249.954375 
L 138.445989 248.953318 
L 140.028682 247.74606 
L 143.194068 244.872939 
L 152.690225 235.462554 
L 155.85561 232.970582 
L 159.020996 230.851963 
L 162.186381 228.999373 
L 168.517152 225.662978 
L 171.682538 223.950891 
L 174.847924 221.940009 
L 176.430616 220.734774 
L 178.013309 219.349484 
L 179.596002 217.748993 
L 181.178695 215.898156 
L 182.761387 213.761826 
L 184.34408 211.304859 
L 185.926773 208.49211 
L 187.509466 205.290741 
L 189.092159 201.725916 
L 192.257544 193.852936 
L 198.588315 177.623425 
L 200.171008 173.98401 
L 201.753701 170.689623 
L 203.336394 167.829182 
L 204.919086 165.489745 
L 206.501779 163.688966 
L 208.084472 162.356081 
L 209.667165 161.414592 
L 211.249858 160.787998 
L 212.83255 160.399799 
L 215.997936 160.032588 
L 219.163322 159.700962 
L 220.746014 159.357243 
L 222.328707 158.793628 
L 223.9114 157.976776 
L 225.494093 156.939144 
L 227.076785 155.718852 
L 230.242171 152.882759 
L 238.155635 145.26424 
L 241.321021 142.784275 
L 244.486406 140.765137 
L 253.982563 135.32595 
L 257.147948 132.994593 
L 260.313334 130.126793 
L 263.47872 126.847735 
L 276.140262 113.085755 
L 285.636419 104.05109 
L 288.801804 100.503406 
L 290.384497 98.50643 
L 291.96719 96.32437 
L 295.132575 91.411465 
L 303.046039 78.338841 
L 304.628732 76.026513 
L 306.211425 73.942576 
L 307.794118 72.141741 
L 309.37681 70.678719 
L 310.959503 69.593356 
L 312.542196 68.859041 
L 314.124889 68.4306 
L 315.707581 68.262857 
L 317.290274 68.310639 
L 318.872967 68.528769 
L 322.038353 69.295379 
L 326.786431 70.59354 
L 329.951817 71.095111 
L 333.117202 71.265273 
L 336.282588 71.20085 
L 350.526823 70.462386 
L 358.440287 70.563776 
L 367.936443 70.676978 
L 537.284571 70.631734 
L 537.284571 70.631734 
" clip-path="url(#p3411022505)" style="fill: none; stroke: #8b5cf6; stroke-width: 1.2; stroke-linecap: round"/>
   </g>
   <g id="PathCollection_1">
    <defs>
     <path id="mc8252b7938" d="M 0 2.236068 
C 0.593012 2.236068 1.161816 2.000462 1.581139 1.581139 
C 2.000462 1.161816 2.236068 0.593012 2.236068 0 
C 2.236068 -0.593012 2.000462 -1.161816 1.581139 -1.581139 
C 1.161816 -2.000462 0.593012 -2.236068 0 -2.236068 
C -0.593012 -2.236068 -1.161816 -2.000462 -1.581139 -1.581139 
C -2.000462 -1.161816 -2.236068 -0.593012 -2.236068 0 
C -2.236068 0.593012 -2.000462 1.161816 -1.581139 1.581139 
C -1.161816 2.000462 -0.593012 2.236068 0 2.236068 
z
" style="stroke: #ffffff; stroke-width: 0.8"/>
    </defs>
    <g clip-path="url(#p3411022505)">
     <use xlink:href="#mc8252b7938" x="537.284571" y="70.631734" style="fill: #8b5cf6; stroke: #ffffff; stroke-width: 0.8"/>
    </g>
   </g>
  </g>
  <g id="axes_2">
   <g id="text_18">
    <!-- Rating -->
    <g style="fill: #9b8bb8" transform="translate(565.7472 48.312) scale(0.11 -0.11)">
     <use xlink:href="#JetBrainsMono-Regular-52"/>
     <use xlink:href="#JetBrainsMono-Regular-61" transform="translate(59.999985 0)"/>
     <use xlink:href="#JetBrainsMono-Regular-74" transform="translate(119.999969 0)"/>
     <use xlink:href="#JetBrainsMono-Regular-69" transform="translate(179.999954 0)"/>
     <use xlink:href="#JetBrainsMono-Regular-6e" transform="translate(239.999939 0)"/>
     <use xlink:href="#JetBrainsMono-Regular-67" transform="translate(299.999924 0)"/>
    </g>
   </g>
   <g id="text_19">
    <!-- 265 -->
    <g style="fill: #8b5cf6" transform="translate(565.7472 81.548) scale(0.26 -0.26)">
     <use xlink:href="#JetBrainsMono-Bold-32"/>
     <use xlink:href="#JetBrainsMono-Bold-36" transform="translate(59.999985 0)"/>
     <use xlink:href="#JetBrainsMono-Bold-35" transform="translate(119.999969 0)"/>
    </g>
   </g>
   <g id="text_20">
    <!-- Rank -->
    <g style="fill: #9b8bb8" transform="translate(565.7472 119.592) scale(0.11 -0.11)">
     <defs>
      <path id="JetBrainsMono-Regular-6b" d="M 621 0 
L 621 4672 
L 1197 4672 
L 1197 2067 
L 1869 2067 
L 2854 3520 
L 3514 3520 
L 2381 1843 
L 3578 0 
L 2906 0 
L 1882 1568 
L 1197 1568 
L 1197 0 
L 621 0 
z
" transform="scale(0.015625)"/>
     </defs>
     <use xlink:href="#JetBrainsMono-Regular-52"/>
     <use xlink:href="#JetBrainsMono-Regular-61" transform="translate(59.999985 0)"/>
     <use xlink:href="#JetBrainsMono-Regular-6e" transform="translate(119.999969 0)"/>
     <use xlink:href="#JetBrainsMono-Regular-6b" transform="translate(179.999954 0)"/>
    </g>
   </g>
   <g id="text_21">
    <!-- #118,027 -->
    <g style="fill: #8b5cf6" transform="translate(565.7472 148.104) scale(0.14 -0.14)">
     <defs>
      <path id="JetBrainsMono-Bold-23" d="M 493 0 
L 710 1216 
L 224 1216 
L 224 1760 
L 800 1760 
L 998 2912 
L 448 2912 
L 448 3456 
L 1094 3456 
L 1312 4672 
L 1875 4672 
L 1658 3456 
L 2566 3456 
L 2784 4672 
L 3347 4672 
L 3130 3456 
L 3616 3456 
L 3616 2912 
L 3034 2912 
L 2835 1760 
L 3392 1760 
L 3392 1216 
L 2739 1216 
L 2528 0 
L 1965 0 
L 2182 1216 
L 1267 1216 
L 1056 0 
L 493 0 
z
M 1363 1760 
L 2272 1760 
L 2470 2912 
L 1562 2912 
L 1363 1760 
z
" transform="scale(0.015625)"/>
      <path id="JetBrainsMono-Bold-31" d="M 538 0 
L 538 723 
L 1754 723 
L 1754 3898 
L 531 3002 
L 531 3898 
L 1606 4672 
L 2554 4672 
L 2554 723 
L 3533 723 
L 3533 0 
L 538 0 
z
" transform="scale(0.015625)"/>
      <path id="JetBrainsMono-Bold-38" d="M 1920 -64 
Q 1453 -64 1094 112 
Q 736 288 537 598 
Q 339 909 339 1318 
Q 339 1747 585 2067 
Q 832 2387 1229 2470 
L 1229 2483 
Q 890 2554 682 2829 
Q 474 3104 474 3482 
Q 474 3853 656 4134 
Q 838 4416 1164 4576 
Q 1491 4736 1920 4736 
Q 2349 4736 2678 4576 
Q 3008 4416 3190 4134 
Q 3373 3853 3373 3482 
Q 3373 3104 3161 2829 
Q 2950 2554 2611 2483 
L 2611 2470 
Q 3008 2387 3254 2067 
Q 3501 1747 3501 1318 
Q 3501 909 3302 598 
Q 3104 288 2745 112 
Q 2387 -64 1920 -64 
z
M 1920 2758 
Q 2221 2758 2406 2940 
Q 2592 3123 2592 3411 
Q 2592 3706 2406 3888 
Q 2221 4070 1920 4070 
Q 1619 4070 1433 3888 
Q 1248 3706 1248 3411 
Q 1248 3123 1433 2940 
Q 1619 2758 1920 2758 
z
M 1920 614 
Q 2272 614 2496 819 
Q 2720 1024 2720 1357 
Q 2720 1696 2496 1904 
Q 2272 2112 1920 2112 
Q 1568 2112 1344 1904 
Q 1120 1696 1120 1357 
Q 1120 1024 1344 819 
Q 1568 614 1920 614 
z
" transform="scale(0.015625)"/>
      <path id="JetBrainsMono-Bold-2c" d="M 1216 -1024 
L 1555 934 
L 2470 934 
L 1984 -1024 
L 1216 -1024 
z
" transform="scale(0.015625)"/>
      <path id="JetBrainsMono-Bold-30" d="M 1920 -64 
Q 1466 -64 1133 109 
Q 800 282 617 595 
Q 435 909 435 1331 
L 435 3341 
Q 435 3763 617 4076 
Q 800 4390 1133 4563 
Q 1466 4736 1920 4736 
Q 2374 4736 2707 4563 
Q 3040 4390 3222 4076 
Q 3405 3763 3405 3341 
L 3405 1331 
Q 3405 909 3222 595 
Q 3040 282 2707 109 
Q 2374 -64 1920 -64 
z
M 1920 627 
Q 2253 627 2451 819 
Q 2650 1011 2650 1331 
L 2650 3341 
Q 2650 3661 2454 3853 
Q 2259 4045 1920 4045 
Q 1581 4045 1385 3853 
Q 1190 3661 1190 3341 
L 1190 1331 
Q 1190 1011 1388 819 
Q 1587 627 1920 627 
z
M 1920 1952 
Q 1728 1952 1613 2057 
Q 1498 2163 1498 2355 
Q 1498 2547 1613 2646 
Q 1728 2746 1920 2746 
Q 2112 2746 2227 2646 
Q 2342 2547 2342 2355 
Q 2342 2163 2227 2057 
Q 2112 1952 1920 1952 
z
" transform="scale(0.015625)"/>
      <path id="JetBrainsMono-Bold-37" d="M 1011 0 
L 2720 3968 
L 1229 3968 
L 1229 3206 
L 429 3206 
L 429 4672 
L 3584 4672 
L 3584 3968 
L 1888 0 
L 1011 0 
z
" transform="scale(0.015625)"/>
     </defs>
     <use xlink:href="#JetBrainsMono-Bold-23"/>
     <use xlink:href="#JetBrainsMono-Bold-31" transform="translate(59.999985 0)"/>
     <use xlink:href="#JetBrainsMono-Bold-31" transform="translate(119.999969 0)"/>
     <use xlink:href="#JetBrainsMono-Bold-38" transform="translate(179.999954 0)"/>
     <use xlink:href="#JetBrainsMono-Bold-2c" transform="translate(239.999939 0)"/>
     <use xlink:href="#JetBrainsMono-Bold-30" transform="translate(299.999924 0)"/>
     <use xlink:href="#JetBrainsMono-Bold-32" transform="translate(359.999908 0)"/>
     <use xlink:href="#JetBrainsMono-Bold-37" transform="translate(419.999893 0)"/>
    </g>
   </g>
   <g id="text_22">
    <!-- ─ 0 -->
    <g style="fill: #9b8bb8" transform="translate(565.7472 169.488) scale(0.11 -0.11)">
     <defs>
      <path id="JetBrainsMono-Bold-2500" d="M -128 2048 
L -128 2688 
L 3968 2688 
L 3968 2048 
L -128 2048 
z
" transform="scale(0.015625)"/>
     </defs>
     <use xlink:href="#JetBrainsMono-Bold-2500"/>
     <use xlink:href="#JetBrainsMono-Bold-20" transform="translate(59.999985 0)"/>
     <use xlink:href="#JetBrainsMono-Bold-30" transform="translate(119.999969 0)"/>
    </g>
   </g>
  </g>
 </g>
 <defs>
  <clipPath id="p3411022505">
   <rect x="55.296" y="55.44" width="490.752" height="269.28"/>
  </clipPath>
 </defs>
</svg>
