<?xml version="1.0" encoding="utf-8" standalone="no"?>
<!DOCTYPE svg PUBLIC "-//W3C//DTD SVG 1.1//EN"
  "http://www.w3.org/Graphics/SVG/1.1/DTD/svg11.dtd">
<svg xmlns:xlink="http://www.w3.org/1999/xlink" width="691.2pt" height="396pt" viewBox="0 0 691.2 396" xmlns="http://www.w3.org/2000/svg" version="1.1">
 <metadata>
  <rdf:RDF xmlns:dc="http://purl.org/dc/elements/1.1/" xmlns:cc="http://creativecommons.org/ns#" xmlns:rdf="http://www.w3.org/1999/02/22-rdf-syntax-ns#">
   <cc:Work>
    <dc:type rdf:resource="http://purl.org/dc/dcmitype/StillImage"/>
    <dc:date>2026-04-20T16:04:15.969043</dc:date>
    <dc:format>image/svg+xml</dc:format>
    <dc:creator>
     <cc:Agent>
      <dc:title>Matplotlib v3.10.8, https://matplotlib.org/</dc:title>
     </cc:Agent>
    </dc:creator>
   </cc:Work>
  </rdf:RDF>
 </metadata>
 <defs>
  <style type="text/css">*{stroke-linejoin: round; stroke-linecap: butt}</style>
 </defs>
 <g id="figure_1">
  <g id="patch_1">
   <path d="M 0 396 
L 691.2 396 
L 691.2 0 
L 0 0 
L 0 396 
z
" style="fill: none"/>
  </g>
  <g id="axes_1">
   <g id="patch_2">
    <path d="M 55.296 324.72 
L 546.048 324.72 
L 546.048 55.44 
L 55.296 55.44 
L 55.296 324.72 
z
" style="fill: none"/>
   </g>
   <g id="matplotlib.axis_1">
    <g id="xtick_1">
     <g id="line2d_1">
      <path d="M 113.718857 324.72 
L 113.718857 55.44 
" clip-path="url(#pefd80586d2)" style="fill: none; stroke-dasharray: 2.22,0.96; stroke-dashoffset: 0; stroke: #e2d5f5; stroke-opacity: 0.7; stroke-width: 0.6"/>
     </g>
     <g id="line2d_2">
      <defs>
       <path id="mf1252430dc" d="M 0 0 
L 0 3.5 
" style="stroke: #9b8bb8; stroke-width: 0.8"/>
      </defs>
      <g>
       <use xlink:href="#mf1252430dc" x="113.718857" y="324.72" style="fill: #9b8bb8; stroke: #9b8bb8; stroke-width: 0.8"/>
      </g>
     </g>
     <g id="text_1">
      <!-- 04/02 -->
      <g style="fill: #9b8bb8" transform="translate(102.178476 353.301793) rotate(-30) scale(0.1 -0.1)">
       <defs>
        <path id="JetBrainsMono-Regular-30" d="M 1920 -64 
Q 1274 -64 893 310 
Q 512 685 512 1312 
L 512 3360 
Q 512 3987 893 4361 
Q 1274 4736 1920 4736 
Q 2566 4736 2947 4361 
Q 3328 3987 3328 3360 
L 3328 1312 
Q 3328 896 3155 585 
Q 2982 275 2665 105 
Q 2349 -64 1920 -64 
z
M 1920 429 
Q 2304 429 2537 675 
Q 2771 922 2771 1312 
L 2771 3360 
Q 2771 3750 2537 3996 
Q 2304 4243 1920 4243 
Q 1536 4243 1302 3996 
Q 1069 3750 1069 3360 
L 1069 1312 
Q 1069 922 1302 675 
Q 1536 429 1920 429 
z
M 1920 1984 
Q 1747 1984 1641 2080 
Q 1536 2176 1536 2355 
Q 1536 2528 1641 2621 
Q 1747 2714 1920 2714 
Q 2093 2714 2198 2621 
Q 2304 2528 2304 2355 
Q 2304 2176 2198 2080 
Q 2093 1984 1920 1984 
z
" transform="scale(0.015625)"/>
        <path id="JetBrainsMono-Regular-34" d="M 2560 0 
L 2560 1024 
L 448 1024 
L 448 1926 
L 2150 4672 
L 2803 4672 
L 1024 1798 
L 1024 1549 
L 2560 1549 
L 2560 2688 
L 3136 2688 
L 3136 0 
L 2560 0 
z
" transform="scale(0.015625)"/>
        <path id="JetBrainsMono-Regular-2f" d="M 480 -704 
L 2752 5312 
L 3360 5312 
L 1088 -704 
L 480 -704 
z
" transform="scale(0.015625)"/>
        <path id="JetBrainsMono-Regular-32" d="M 550 0 
L 550 531 
L 2106 2195 
Q 2445 2554 2585 2835 
Q 2726 3117 2726 3386 
Q 2726 3770 2505 3997 
Q 2285 4224 1907 4224 
Q 1517 4224 1289 3990 
Q 1062 3757 1062 3360 
L 486 3360 
Q 506 3994 890 4365 
Q 1274 4736 1907 4736 
Q 2554 4736 2934 4371 
Q 3315 4006 3315 3379 
Q 3315 3046 3132 2675 
Q 2950 2304 2509 1843 
L 1248 525 
L 3373 525 
L 3373 0 
L 550 0 
z
" transform="scale(0.015625)"/>
       </defs>
       <use xlink:href="#JetBrainsMono-Regular-30"/>
       <use xlink:href="#JetBrainsMono-Regular-34" transform="translate(59.999985 0)"/>
       <use xlink:href="#JetBrainsMono-Regular-2f" transform="translate(119.999969 0)"/>
       <use xlink:href="#JetBrainsMono-Regular-30" transform="translate(179.999954 0)"/>
       <use xlink:href="#JetBrainsMono-Regular-32" transform="translate(239.999939 0)"/>
      </g>
     </g>
    </g>
    <g id="xtick_2">
     <g id="line2d_3">
      <path d="M 183.826286 324.72 
L 183.826286 55.44 
" clip-path="url(#pefd80586d2)" style="fill: none; stroke-dasharray: 2.22,0.96; stroke-dashoffset: 0; stroke: #e2d5f5; stroke-opacity: 0.7; stroke-width: 0.6"/>
     </g>
     <g id="line2d_4">
      <g>
       <use xlink:href="#mf1252430dc" x="183.826286" y="324.72" style="fill: #9b8bb8; stroke: #9b8bb8; stroke-width: 0.8"/>
      </g>
     </g>
     <g id="text_2">
      <!-- 04/05 -->
      <g style="fill: #9b8bb8" transform="translate(172.285905 353.301793) rotate(-30) scale(0.1 -0.1)">
       <defs>
        <path id="JetBrainsMono-Regular-35" d="M 1882 -64 
Q 1235 -64 857 297 
Q 480 659 480 1280 
L 1056 1280 
Q 1056 896 1280 672 
Q 1504 448 1888 448 
Q 2272 448 2496 672 
Q 2720 896 2720 1280 
L 2720 1568 
Q 2720 1952 2502 2176 
Q 2285 2400 1914 2400 
L 640 2400 
L 640 4672 
L 3130 4672 
L 3130 4147 
L 1178 4147 
L 1190 2925 
L 1946 2925 
Q 2592 2925 2944 2569 
Q 3296 2214 3296 1568 
L 3296 1280 
Q 3296 659 2915 297 
Q 2534 -64 1882 -64 
z
" transform="scale(0.015625)"/>
       </defs>
       <use xlink:href="#JetBrainsMono-Regular-30"/>
       <use xlink:href="#JetBrainsMono-Regular-34" transform="translate(59.999985 0)"/>
       <use xlink:href="#JetBrainsMono-Regular-2f" transform="translate(119.999969 0)"/>
       <use xlink:href="#JetBrainsMono-Regular-30" transform="translate(179.999954 0)"/>
       <use xlink:href="#JetBrainsMono-Regular-35" transform="translate(239.999939 0)"/>
      </g>
     </g>
    </g>
    <g id="xtick_3">
     <g id="line2d_5">
      <path d="M 253.933714 324.72 
L 253.933714 55.44 
" clip-path="url(#pefd80586d2)" style="fill: none; stroke-dasharray: 2.22,0.96; stroke-dashoffset: 0; stroke: #e2d5f5; stroke-opacity: 0.7; stroke-width: 0.6"/>
     </g>
     <g id="line2d_6">
      <g>
       <use xlink:href="#mf1252430dc" x="253.933714" y="324.72" style="fill: #9b8bb8; stroke: #9b8bb8; stroke-width: 0.8"/>
      </g>
     </g>
     <g id="text_3">
      <!-- 04/08 -->
      <g style="fill: #9b8bb8" transform="translate(242.393333 353.301793) rotate(-30) scale(0.1 -0.1)">
       <defs>
        <path id="JetBrainsMono-Regular-38" d="M 1920 -64 
Q 1478 -64 1139 109 
Q 800 282 611 592 
Q 422 902 422 1306 
Q 422 1747 675 2067 
Q 928 2387 1350 2458 
L 1350 2477 
Q 986 2560 768 2845 
Q 550 3130 550 3501 
Q 550 3866 723 4144 
Q 896 4422 1206 4579 
Q 1517 4736 1920 4736 
Q 2330 4736 2637 4579 
Q 2944 4422 3117 4144 
Q 3290 3866 3290 3501 
Q 3290 3130 3072 2845 
Q 2854 2560 2490 2477 
L 2490 2458 
Q 2912 2387 3165 2067 
Q 3418 1747 3418 1306 
Q 3418 902 3229 592 
Q 3040 282 2704 109 
Q 2368 -64 1920 -64 
z
M 1920 2701 
Q 2278 2701 2496 2912 
Q 2714 3123 2714 3462 
Q 2714 3802 2496 4013 
Q 2278 4224 1920 4224 
Q 1568 4224 1347 4013 
Q 1126 3802 1126 3462 
Q 1126 3123 1347 2912 
Q 1568 2701 1920 2701 
z
M 1920 454 
Q 2330 454 2586 694 
Q 2842 934 2842 1318 
Q 2842 1709 2586 1949 
Q 2330 2189 1920 2189 
Q 1510 2189 1254 1949 
Q 998 1709 998 1318 
Q 998 934 1254 694 
Q 1510 454 1920 454 
z
" transform="scale(0.015625)"/>
       </defs>
       <use xlink:href="#JetBrainsMono-Regular-30"/>
       <use xlink:href="#JetBrainsMono-Regular-34" transform="translate(59.999985 0)"/>
       <use xlink:href="#JetBrainsMono-Regular-2f" transform="translate(119.999969 0)"/>
       <use xlink:href="#JetBrainsMono-Regular-30" transform="translate(179.999954 0)"/>
       <use xlink:href="#JetBrainsMono-Regular-38" transform="translate(239.999939 0)"/>
      </g>
     </g>
    </g>
    <g id="xtick_4">
     <g id="line2d_7">
      <path d="M 324.041143 324.72 
L 324.041143 55.44 
" clip-path="url(#pefd80586d2)" style="fill: none; stroke-dasharray: 2.22,0.96; stroke-dashoffset: 0; stroke: #e2d5f5; stroke-opacity: 0.7; stroke-width: 0.6"/>
     </g>
     <g id="line2d_8">
      <g>
       <use xlink:href="#mf1252430dc" x="324.041143" y="324.72" style="fill: #9b8bb8; stroke: #9b8bb8; stroke-width: 0.8"/>
      </g>
     </g>
     <g id="text_4">
      <!-- 04/11 -->
      <g style="fill: #9b8bb8" transform="translate(312.500762 353.301793) rotate(-30) scale(0.1 -0.1)">
       <defs>
        <path id="JetBrainsMono-Regular-31" d="M 576 0 
L 576 525 
L 1843 525 
L 1843 4173 
L 576 3226 
L 576 3885 
L 1632 4672 
L 2419 4672 
L 2419 525 
L 3456 525 
L 3456 0 
L 576 0 
z
" transform="scale(0.015625)"/>
       </defs>
       <use xlink:href="#JetBrainsMono-Regular-30"/>
       <use xlink:href="#JetBrainsMono-Regular-34" transform="translate(59.999985 0)"/>
       <use xlink:href="#JetBrainsMono-Regular-2f" transform="translate(119.999969 0)"/>
       <use xlink:href="#JetBrainsMono-Regular-31" transform="translate(179.999954 0)"/>
       <use xlink:href="#JetBrainsMono-Regular-31" transform="translate(239.999939 0)"/>
      </g>
     </g>
    </g>
    <g id="xtick_5">
     <g id="line2d_9">
      <path d="M 394.148571 324.72 
L 394.148571 55.44 
" clip-path="url(#pefd80586d2)" style="fill: none; stroke-dasharray: 2.22,0.96; stroke-dashoffset: 0; stroke: #e2d5f5; stroke-opacity: 0.7; stroke-width: 0.6"/>
     </g>
     <g id="line2d_10">
      <g>
       <use xlink:href="#mf1252430dc" x="394.148571" y="324.72" style="fill: #9b8bb8; stroke: #9b8bb8; stroke-width: 0.8"/>
      </g>
     </g>
     <g id="text_5">
      <!-- 04/14 -->
      <g style="fill: #9b8bb8" transform="translate(382.60819 353.301793) rotate(-30) scale(0.1 -0.1)">
       <use xlink:href="#JetBrainsMono-Regular-30"/>
       <use xlink:href="#JetBrainsMono-Regular-34" transform="translate(59.999985 0)"/>
       <use xlink:href="#JetBrainsMono-Regular-2f" transform="translate(119.999969 0)"/>
       <use xlink:href="#JetBrainsMono-Regular-31" transform="translate(179.999954 0)"/>
       <use xlink:href="#JetBrainsMono-Regular-34" transform="translate(239.999939 0)"/>
      </g>
     </g>
    </g>
    <g id="xtick_6">
     <g id="line2d_11">
      <path d="M 464.256 324.72 
L 464.256 55.44 
" clip-path="url(#pefd80586d2)" style="fill: none; stroke-dasharray: 2.22,0.96; stroke-dashoffset: 0; stroke: #e2d5f5; stroke-opacity: 0.7; stroke-width: 0.6"/>
     </g>
     <g id="line2d_12">
      <g>
       <use xlink:href="#mf1252430dc" x="464.256" y="324.72" style="fill: #9b8bb8; stroke: #9b8bb8; stroke-width: 0.8"/>
      </g>
     </g>
     <g id="text_6">
      <!-- 04/17 -->
      <g style="fill: #9b8bb8" transform="translate(452.715619 353.301793) rotate(-30) scale(0.1 -0.1)">
       <defs>
        <path id="JetBrainsMono-Regular-37" d="M 1216 0 
L 2880 4147 
L 1101 4147 
L 1101 3392 
L 525 3392 
L 525 4672 
L 3494 4672 
L 3494 4134 
L 1843 0 
L 1216 0 
z
" transform="scale(0.015625)"/>
       </defs>
       <use xlink:href="#JetBrainsMono-Regular-30"/>
       <use xlink:href="#JetBrainsMono-Regular-34" transform="translate(59.999985 0)"/>
       <use xlink:href="#JetBrainsMono-Regular-2f" transform="translate(119.999969 0)"/>
       <use xlink:href="#JetBrainsMono-Regular-31" transform="translate(179.999954 0)"/>
       <use xlink:href="#JetBrainsMono-Regular-37" transform="translate(239.999939 0)"/>
      </g>
     </g>
    </g>
    <g id="xtick_7">
     <g id="line2d_13">
      <path d="M 534.363429 324.72 
L 534.363429 55.44 
" clip-path="url(#pefd80586d2)" style="fill: none; stroke-dasharray: 2.22,0.96; stroke-dashoffset: 0; stroke: #e2d5f5; stroke-opacity: 0.7; stroke-width: 0.6"/>
     </g>
     <g id="line2d_14">
      <g>
       <use xlink:href="#mf1252430dc" x="534.363429" y="324.72" style="fill: #9b8bb8; stroke: #9b8bb8; stroke-width: 0.8"/>
      </g>
     </g>
     <g id="text_7">
      <!-- 04/20 -->
      <g style="fill: #9b8bb8" transform="translate(522.823048 353.301793) rotate(-30) scale(0.1 -0.1)">
       <use xlink:href="#JetBrainsMono-Regular-30"/>
       <use xlink:href="#JetBrainsMono-Regular-34" transform="translate(59.999985 0)"/>
       <use xlink:href="#JetBrainsMono-Regular-2f" transform="translate(119.999969 0)"/>
       <use xlink:href="#JetBrainsMono-Regular-32" transform="translate(179.999954 0)"/>
       <use xlink:href="#JetBrainsMono-Regular-30" transform="translate(239.999939 0)"/>
      </g>
     </g>
    </g>
   </g>
   <g id="matplotlib.axis_2">
    <g id="ytick_1">
     <g id="line2d_15">
      <path d="M 55.296 309.990619 
L 546.048 309.990619 
" clip-path="url(#pefd80586d2)" style="fill: none; stroke-dasharray: 2.22,0.96; stroke-dashoffset: 0; stroke: #e2d5f5; stroke-opacity: 0.7; stroke-width: 0.6"/>
     </g>
     <g id="line2d_16">
      <defs>
       <path id="m6d7e6f287b" d="M 0 0 
L -3.5 0 
" style="stroke: #9b8bb8; stroke-width: 0.8"/>
      </defs>
      <g>
       <use xlink:href="#m6d7e6f287b" x="55.296" y="309.990619" style="fill: #9b8bb8; stroke: #9b8bb8; stroke-width: 0.8"/>
      </g>
     </g>
     <g id="text_8">
      <!-- 200 -->
      <g style="fill: #9b8bb8" transform="translate(30.296 313.640619) scale(0.1 -0.1)">
       <use xlink:href="#JetBrainsMono-Regular-32"/>
       <use xlink:href="#JetBrainsMono-Regular-30" transform="translate(59.999985 0)"/>
       <use xlink:href="#JetBrainsMono-Regular-30" transform="translate(119.999969 0)"/>
      </g>
     </g>
    </g>
    <g id="ytick_2">
     <g id="line2d_17">
      <path d="M 55.296 273.167166 
L 546.048 273.167166 
" clip-path="url(#pefd80586d2)" style="fill: none; stroke-dasharray: 2.22,0.96; stroke-dashoffset: 0; stroke: #e2d5f5; stroke-opacity: 0.7; stroke-width: 0.6"/>
     </g>
     <g id="line2d_18">
      <g>
       <use xlink:href="#m6d7e6f287b" x="55.296" y="273.167166" style="fill: #9b8bb8; stroke: #9b8bb8; stroke-width: 0.8"/>
      </g>
     </g>
     <g id="text_9">
      <!-- 210 -->
      <g style="fill: #9b8bb8" transform="translate(30.296 276.817166) scale(0.1 -0.1)">
       <use xlink:href="#JetBrainsMono-Regular-32"/>
       <use xlink:href="#JetBrainsMono-Regular-31" transform="translate(59.999985 0)"/>
       <use xlink:href="#JetBrainsMono-Regular-30" transform="translate(119.999969 0)"/>
      </g>
     </g>
    </g>
    <g id="ytick_3">
     <g id="line2d_19">
      <path d="M 55.296 236.343713 
L 546.048 236.343713 
" clip-path="url(#pefd80586d2)" style="fill: none; stroke-dasharray: 2.22,0.96; stroke-dashoffset: 0; stroke: #e2d5f5; stroke-opacity: 0.7; stroke-width: 0.6"/>
     </g>
     <g id="line2d_20">
      <g>
       <use xlink:href="#m6d7e6f287b" x="55.296" y="236.343713" style="fill: #9b8bb8; stroke: #9b8bb8; stroke-width: 0.8"/>
      </g>
     </g>
     <g id="text_10">
      <!-- 220 -->
      <g style="fill: #9b8bb8" transform="translate(30.296 239.993713) scale(0.1 -0.1)">
       <use xlink:href="#JetBrainsMono-Regular-32"/>
       <use xlink:href="#JetBrainsMono-Regular-32" transform="translate(59.999985 0)"/>
       <use xlink:href="#JetBrainsMono-Regular-30" transform="translate(119.999969 0)"/>
      </g>
     </g>
    </g>
    <g id="ytick_4">
     <g id="line2d_21">
      <path d="M 55.296 199.520259 
L 546.048 199.520259 
" clip-path="url(#pefd80586d2)" style="fill: none; stroke-dasharray: 2.22,0.96; stroke-dashoffset: 0; stroke: #e2d5f5; stroke-opacity: 0.7; stroke-width: 0.6"/>
     </g>
     <g id="line2d_22">
      <g>
       <use xlink:href="#m6d7e6f287b" x="55.296" y="199.520259" style="fill: #9b8bb8; stroke: #9b8bb8; stroke-width: 0.8"/>
      </g>
     </g>
     <g id="text_11">
      <!-- 230 -->
      <g style="fill: #9b8bb8" transform="translate(30.296 203.170259) scale(0.1 -0.1)">
       <defs>
        <path id="JetBrainsMono-Regular-33" d="M 1850 -64 
Q 1203 -64 825 297 
Q 448 659 448 1280 
L 1024 1280 
Q 1024 896 1248 672 
Q 1472 448 1856 448 
Q 2240 448 2464 672 
Q 2688 896 2688 1280 
L 2688 1600 
Q 2688 1984 2464 2208 
Q 2240 2432 1856 2432 
L 1350 2432 
L 1350 2931 
L 2496 4147 
L 576 4147 
L 576 4672 
L 3149 4672 
L 3149 4134 
L 2022 2938 
Q 2598 2893 2931 2537 
Q 3264 2182 3264 1600 
L 3264 1280 
Q 3264 659 2883 297 
Q 2502 -64 1850 -64 
z
" transform="scale(0.015625)"/>
       </defs>
       <use xlink:href="#JetBrainsMono-Regular-32"/>
       <use xlink:href="#JetBrainsMono-Regular-33" transform="translate(59.999985 0)"/>
       <use xlink:href="#JetBrainsMono-Regular-30" transform="translate(119.999969 0)"/>
      </g>
     </g>
    </g>
    <g id="ytick_5">
     <g id="line2d_23">
      <path d="M 55.296 162.696806 
L 546.048 162.696806 
" clip-path="url(#pefd80586d2)" style="fill: none; stroke-dasharray: 2.22,0.96; stroke-dashoffset: 0; stroke: #e2d5f5; stroke-opacity: 0.7; stroke-width: 0.6"/>
     </g>
     <g id="line2d_24">
      <g>
       <use xlink:href="#m6d7e6f287b" x="55.296" y="162.696806" style="fill: #9b8bb8; stroke: #9b8bb8; stroke-width: 0.8"/>
      </g>
     </g>
     <g id="text_12">
      <!-- 240 -->
      <g style="fill: #9b8bb8" transform="translate(30.296 166.346806) scale(0.1 -0.1)">
       <use xlink:href="#JetBrainsMono-Regular-32"/>
       <use xlink:href="#JetBrainsMono-Regular-34" transform="translate(59.999985 0)"/>
       <use xlink:href="#JetBrainsMono-Regular-30" transform="translate(119.999969 0)"/>
      </g>
     </g>
    </g>
    <g id="ytick_6">
     <g id="line2d_25">
      <path d="M 55.296 125.873353 
L 546.048 125.873353 
" clip-path="url(#pefd80586d2)" style="fill: none; stroke-dasharray: 2.22,0.96; stroke-dashoffset: 0; stroke: #e2d5f5; stroke-opacity: 0.7; stroke-width: 0.6"/>
     </g>
     <g id="line2d_26">
      <g>
       <use xlink:href="#m6d7e6f287b" x="55.296" y="125.873353" style="fill: #9b8bb8; stroke: #9b8bb8; stroke-width: 0.8"/>
      </g>
     </g>
     <g id="text_13">
      <!-- 250 -->
      <g style="fill: #9b8bb8" transform="translate(30.296 129.523353) scale(0.1 -0.1)">
       <use xlink:href="#JetBrainsMono-Regular-32"/>
       <use xlink:href="#JetBrainsMono-Regular-35" transform="translate(59.999985 0)"/>
       <use xlink:href="#JetBrainsMono-Regular-30" transform="translate(119.999969 0)"/>
      </g>
     </g>
    </g>
    <g id="ytick_7">
     <g id="line2d_27">
      <path d="M 55.296 89.0499 
L 546.048 89.0499 
" clip-path="url(#pefd80586d2)" style="fill: none; stroke-dasharray: 2.22,0.96; stroke-dashoffset: 0; stroke: #e2d5f5; stroke-opacity: 0.7; stroke-width: 0.6"/>
     </g>
     <g id="line2d_28">
      <g>
       <use xlink:href="#m6d7e6f287b" x="55.296" y="89.0499" style="fill: #9b8bb8; stroke: #9b8bb8; stroke-width: 0.8"/>
      </g>
     </g>
     <g id="text_14">
      <!-- 260 -->
      <g style="fill: #9b8bb8" transform="translate(30.296 92.6999) scale(0.1 -0.1)">
       <defs>
        <path id="JetBrainsMono-Regular-36" d="M 1926 -64 
Q 1478 -64 1136 125 
Q 794 314 602 650 
Q 410 986 410 1427 
Q 410 1734 525 2057 
Q 640 2381 838 2733 
L 1920 4672 
L 2560 4672 
L 1408 2669 
L 1427 2656 
Q 1510 2765 1676 2822 
Q 1843 2880 2042 2880 
Q 2458 2880 2768 2697 
Q 3078 2515 3254 2195 
Q 3430 1875 3430 1453 
Q 3430 1005 3238 662 
Q 3046 320 2710 128 
Q 2374 -64 1926 -64 
z
M 1920 448 
Q 2336 448 2595 723 
Q 2854 998 2854 1440 
Q 2854 1882 2595 2157 
Q 2336 2432 1920 2432 
Q 1504 2432 1245 2157 
Q 986 1882 986 1440 
Q 986 998 1245 723 
Q 1504 448 1920 448 
z
" transform="scale(0.015625)"/>
       </defs>
       <use xlink:href="#JetBrainsMono-Regular-32"/>
       <use xlink:href="#JetBrainsMono-Regular-36" transform="translate(59.999985 0)"/>
       <use xlink:href="#JetBrainsMono-Regular-30" transform="translate(119.999969 0)"/>
      </g>
     </g>
    </g>
    <g id="text_15">
     <!-- Rating -->
     <g style="fill: #9b8bb8" transform="translate(24.496 208.08) rotate(-90) scale(0.1 -0.1)">
      <defs>
       <path id="JetBrainsMono-Regular-52" d="M 595 0 
L 595 4672 
L 2035 4672 
Q 2451 4672 2764 4502 
Q 3078 4333 3251 4032 
Q 3424 3731 3424 3328 
Q 3424 2854 3181 2515 
Q 2938 2176 2534 2042 
L 3488 0 
L 2854 0 
L 1939 1984 
L 1165 1984 
L 1165 0 
L 595 0 
z
M 1165 2502 
L 2035 2502 
Q 2394 2502 2611 2729 
Q 2829 2957 2829 3328 
Q 2829 3706 2611 3930 
Q 2394 4154 2035 4154 
L 1165 4154 
L 1165 2502 
z
" transform="scale(0.015625)"/>
       <path id="JetBrainsMono-Regular-61" d="M 1613 -64 
Q 1069 -64 749 240 
Q 429 544 429 1037 
Q 429 1363 576 1606 
Q 723 1850 985 1987 
Q 1248 2125 1587 2125 
L 2675 2125 
L 2675 2400 
Q 2675 3085 1926 3085 
Q 1594 3085 1389 2963 
Q 1184 2842 1171 2624 
L 595 2624 
Q 627 3040 982 3312 
Q 1338 3584 1926 3584 
Q 2566 3584 2908 3277 
Q 3251 2970 3251 2419 
L 3251 0 
L 2682 0 
L 2682 640 
L 2669 640 
Q 2618 314 2342 125 
Q 2067 -64 1613 -64 
z
M 1754 422 
Q 2176 422 2425 627 
Q 2675 832 2675 1184 
L 2675 1677 
L 1651 1677 
Q 1370 1677 1194 1507 
Q 1018 1338 1018 1056 
Q 1018 762 1213 592 
Q 1408 422 1754 422 
z
" transform="scale(0.015625)"/>
       <path id="JetBrainsMono-Regular-74" d="M 2272 0 
Q 1837 0 1574 253 
Q 1312 506 1312 928 
L 1312 2995 
L 301 2995 
L 301 3520 
L 1312 3520 
L 1312 4512 
L 1888 4512 
L 1888 3520 
L 3328 3520 
L 3328 2995 
L 1888 2995 
L 1888 928 
Q 1888 749 1993 637 
Q 2099 525 2272 525 
L 3296 525 
L 3296 0 
L 2272 0 
z
" transform="scale(0.015625)"/>
       <path id="JetBrainsMono-Regular-69" d="M 544 0 
L 544 525 
L 1792 525 
L 1792 2995 
L 672 2995 
L 672 3520 
L 2368 3520 
L 2368 525 
L 3552 525 
L 3552 0 
L 544 0 
z
M 2016 4154 
Q 1805 4154 1683 4262 
Q 1562 4371 1562 4557 
Q 1562 4749 1683 4861 
Q 1805 4973 2016 4973 
Q 2227 4973 2348 4861 
Q 2470 4749 2470 4557 
Q 2470 4371 2348 4262 
Q 2227 4154 2016 4154 
z
" transform="scale(0.015625)"/>
       <path id="JetBrainsMono-Regular-6e" d="M 589 0 
L 589 3520 
L 1165 3520 
L 1165 2848 
L 1171 2848 
Q 1216 3200 1459 3392 
Q 1702 3584 2106 3584 
Q 2637 3584 2950 3257 
Q 3264 2931 3264 2368 
L 3264 0 
L 2688 0 
L 2688 2266 
Q 2688 2669 2486 2883 
Q 2285 3098 1939 3098 
Q 1581 3098 1373 2874 
Q 1165 2650 1165 2240 
L 1165 0 
L 589 0 
z
" transform="scale(0.015625)"/>
       <path id="JetBrainsMono-Regular-67" d="M 1030 -1152 
L 1030 -627 
L 2022 -627 
Q 2323 -627 2496 -457 
Q 2669 -288 2669 0 
L 2669 320 
L 2682 896 
L 2662 896 
Q 2611 582 2361 412 
Q 2112 243 1734 243 
Q 1190 243 876 588 
Q 563 934 563 1536 
L 563 2278 
Q 563 2880 876 3232 
Q 1190 3584 1734 3584 
Q 2112 3584 2361 3405 
Q 2611 3226 2662 2912 
L 2675 2912 
L 2675 3520 
L 3245 3520 
L 3245 0 
Q 3245 -531 2915 -841 
Q 2586 -1152 2016 -1152 
L 1030 -1152 
z
M 1907 723 
Q 2266 723 2470 947 
Q 2675 1171 2675 1568 
L 2675 2240 
Q 2675 2637 2470 2861 
Q 2266 3085 1907 3085 
Q 1542 3085 1340 2873 
Q 1139 2662 1139 2304 
L 1139 1504 
Q 1139 1146 1340 934 
Q 1542 723 1907 723 
z
" transform="scale(0.015625)"/>
      </defs>
      <use xlink:href="#JetBrainsMono-Regular-52"/>
      <use xlink:href="#JetBrainsMono-Regular-61" transform="translate(59.999985 0)"/>
      <use xlink:href="#JetBrainsMono-Regular-74" transform="translate(119.999969 0)"/>
      <use xlink:href="#JetBrainsMono-Regular-69" transform="translate(179.999954 0)"/>
      <use xlink:href="#JetBrainsMono-Regular-6e" transform="translate(239.999939 0)"/>
      <use xlink:href="#JetBrainsMono-Regular-67" transform="translate(299.999924 0)"/>
     </g>
    </g>
   </g>
   <g id="patch_3">
    <path d="M 55.296 324.72 
L 55.296 55.44 
" style="fill: none; stroke: #d8c8ef; stroke-width: 0.8; stroke-linejoin: miter; stroke-linecap: square"/>
   </g>
   <g id="patch_4">
    <path d="M 55.296 324.72 
L 546.048 324.72 
" style="fill: none; stroke: #d8c8ef; stroke-width: 0.8; stroke-linejoin: miter; stroke-linecap: square"/>
   </g>
   <g id="FillBetweenPolyCollection_1">
    <defs>
     <path id="m8417057801" d="M 66.980571 -71.28 
L 66.980571 -89.691727 
L 68.543725 -91.609453 
L 70.106878 -93.129035 
L 71.670032 -94.279014 
L 73.233185 -95.087931 
L 74.796338 -95.584326 
L 76.359492 -95.796741 
L 77.922645 -95.753716 
L 79.485798 -95.483791 
L 81.048952 -95.015508 
L 82.612105 -94.377408 
L 84.175258 -93.598031 
L 85.738412 -92.705918 
L 87.301565 -91.729609 
L 88.864719 -90.697646 
L 90.427872 -89.638569 
L 91.991025 -88.58092 
L 93.554179 -87.553238 
L 95.117332 -86.584064 
L 96.680485 -85.70194 
L 98.243639 -84.935407 
L 99.806792 -84.313004 
L 101.369946 -83.863272 
L 102.933099 -83.614754 
L 104.496252 -83.595988 
L 106.059406 -83.835517 
L 107.622559 -84.36188 
L 109.185712 -85.203619 
L 110.748866 -86.389274 
L 112.312019 -87.947386 
L 113.875172 -89.906482 
L 115.438326 -92.276226 
L 117.001479 -95.010236 
L 118.564633 -98.051768 
L 120.127786 -101.344078 
L 121.690939 -104.830422 
L 123.254093 -108.454056 
L 124.817246 -112.158236 
L 126.380399 -115.886218 
L 127.943553 -119.581258 
L 129.506706 -123.186611 
L 131.06986 -126.645535 
L 132.633013 -129.901284 
L 134.196166 -132.897114 
L 135.75932 -135.576283 
L 137.322473 -137.882099 
L 138.885626 -139.782113 
L 140.44878 -141.306189 
L 142.011933 -142.494068 
L 143.575086 -143.385491 
L 145.13824 -144.020197 
L 146.701393 -144.437927 
L 148.264547 -144.67842 
L 149.8277 -144.781419 
L 151.390853 -144.786662 
L 152.954007 -144.73389 
L 154.51716 -144.662844 
L 156.080313 -144.613264 
L 157.643467 -144.624889 
L 159.20662 -144.737462 
L 160.769774 -144.990646 
L 162.332927 -145.408279 
L 163.89608 -145.978882 
L 165.459234 -146.686199 
L 167.022387 -147.51397 
L 168.58554 -148.445939 
L 170.148694 -149.465848 
L 171.711847 -150.557441 
L 173.275 -151.704458 
L 174.838154 -152.890644 
L 176.401307 -154.099741 
L 177.964461 -155.315491 
L 179.527614 -156.521636 
L 181.090767 -157.70192 
L 182.653921 -158.840085 
L 184.217074 -159.919929 
L 185.780227 -160.932094 
L 187.343381 -161.880504 
L 188.906534 -162.770614 
L 190.469688 -163.607874 
L 192.032841 -164.397738 
L 193.595994 -165.145658 
L 195.159148 -165.857087 
L 196.722301 -166.537477 
L 198.285454 -167.192281 
L 199.848608 -167.826951 
L 201.411761 -168.446939 
L 202.974914 -169.057699 
L 204.538068 -169.664683 
L 206.101221 -170.273344 
L 207.664375 -170.889173 
L 209.227528 -171.520738 
L 210.790681 -172.181818 
L 212.353835 -172.886697 
L 213.916988 -173.64966 
L 215.480141 -174.484991 
L 217.043295 -175.406974 
L 218.606448 -176.429892 
L 220.169602 -177.568031 
L 221.732755 -178.835675 
L 223.295908 -180.247107 
L 224.859062 -181.816613 
L 226.422215 -183.558475 
L 227.985368 -185.486979 
L 229.548522 -187.616408 
L 231.111675 -189.960687 
L 232.674828 -192.514503 
L 234.237982 -195.244025 
L 235.801135 -198.113111 
L 237.364289 -201.085623 
L 238.927442 -204.125419 
L 240.490595 -207.19636 
L 242.053749 -210.262306 
L 243.616902 -213.287116 
L 245.180055 -216.23465 
L 246.743209 -219.068768 
L 248.306362 -221.75333 
L 249.869516 -224.252196 
L 251.432669 -226.529226 
L 252.995822 -228.548279 
L 254.558976 -230.273933 
L 256.122129 -231.698643 
L 257.685282 -232.851082 
L 259.248436 -233.76234 
L 260.811589 -234.46351 
L 262.374742 -234.985684 
L 263.937896 -235.359954 
L 265.501049 -235.617412 
L 267.064203 -235.78915 
L 268.627356 -235.90626 
L 270.190509 -235.999833 
L 271.753663 -236.100962 
L 273.316816 -236.240739 
L 274.879969 -236.450255 
L 276.443123 -236.760603 
L 278.006276 -237.202167 
L 279.56943 -237.784492 
L 281.132583 -238.493377 
L 282.695736 -239.31333 
L 284.25889 -240.228858 
L 285.822043 -241.224468 
L 287.385196 -242.284668 
L 288.94835 -243.393967 
L 290.511503 -244.53687 
L 292.074656 -245.697886 
L 293.63781 -246.861523 
L 295.200963 -248.012287 
L 296.764117 -249.134686 
L 298.32727 -250.213229 
L 299.890423 -251.232421 
L 301.453577 -252.177325 
L 303.01673 -253.045713 
L 304.579883 -253.848074 
L 306.143037 -254.59545 
L 307.70619 -255.298881 
L 309.269344 -255.969409 
L 310.832497 -256.618074 
L 312.39565 -257.255917 
L 313.958804 -257.89398 
L 315.521957 -258.543304 
L 317.08511 -259.21493 
L 318.648264 -259.919898 
L 320.211417 -260.66925 
L 321.77457 -261.474027 
L 323.337724 -262.345271 
L 324.900877 -263.29347 
L 326.464031 -264.318983 
L 328.027184 -265.413278 
L 329.590337 -266.56752 
L 331.153491 -267.772873 
L 332.716644 -269.020503 
L 334.279797 -270.301574 
L 335.842951 -271.607253 
L 337.406104 -272.928704 
L 338.969258 -274.257092 
L 340.532411 -275.583582 
L 342.095564 -276.89934 
L 343.658718 -278.19553 
L 345.221871 -279.463318 
L 346.785024 -280.693868 
L 348.348178 -281.879063 
L 349.911331 -283.021508 
L 351.474484 -284.132066 
L 353.037638 -285.22181 
L 354.600791 -286.301813 
L 356.163945 -287.383151 
L 357.727098 -288.476897 
L 359.290251 -289.594124 
L 360.853405 -290.745907 
L 362.416558 -291.943319 
L 363.979711 -293.197435 
L 365.542865 -294.519329 
L 367.106018 -295.920074 
L 368.669172 -297.410745 
L 370.232325 -299.002414 
L 371.795478 -300.704633 
L 373.358632 -302.508109 
L 374.921785 -304.390844 
L 376.484938 -306.330602 
L 378.048092 -308.305147 
L 379.611245 -310.292243 
L 381.174398 -312.269653 
L 382.737552 -314.215141 
L 384.300705 -316.106471 
L 385.863859 -317.921407 
L 387.427012 -319.637712 
L 388.990165 -321.233151 
L 390.553319 -322.685486 
L 392.116472 -323.972482 
L 393.679625 -325.071902 
L 395.242779 -325.963831 
L 396.805932 -326.652313 
L 398.369086 -327.155525 
L 399.932239 -327.491826 
L 401.495392 -327.679579 
L 403.058546 -327.737143 
L 404.621699 -327.682878 
L 406.184852 -327.535145 
L 407.748006 -327.312304 
L 409.311159 -327.032716 
L 410.874312 -326.714741 
L 412.437466 -326.376739 
L 414.000619 -326.037071 
L 415.563773 -325.714097 
L 417.126926 -325.426178 
L 418.690079 -325.190036 
L 420.253233 -325.008149 
L 421.816386 -324.875659 
L 423.379539 -324.787646 
L 424.942693 -324.73919 
L 426.505846 -324.725374 
L 428.069 -324.741277 
L 429.632153 -324.78198 
L 431.195306 -324.842565 
L 432.75846 -324.918111 
L 434.321613 -325.003701 
L 435.884766 -325.094414 
L 437.44792 -325.185331 
L 439.011073 -325.271533 
L 440.574226 -325.348102 
L 442.13738 -325.410649 
L 443.700533 -325.458721 
L 445.263687 -325.493625 
L 446.82684 -325.516678 
L 448.389993 -325.529197 
L 449.953147 -325.532497 
L 451.5163 -325.527895 
L 453.079453 -325.516708 
L 454.642607 -325.500252 
L 456.20576 -325.479843 
L 457.768914 -325.456798 
L 459.332067 -325.432433 
L 460.89522 -325.408064 
L 462.458374 -325.385009 
L 464.021527 -325.364582 
L 465.58468 -325.347932 
L 467.147834 -325.335129 
L 468.710987 -325.325828 
L 470.27414 -325.319683 
L 471.837294 -325.316348 
L 473.400447 -325.315476 
L 474.963601 -325.316721 
L 476.526754 -325.319735 
L 478.089907 -325.324174 
L 479.653061 -325.32969 
L 481.216214 -325.335937 
L 482.779367 -325.342568 
L 484.342521 -325.349238 
L 485.905674 -325.355599 
L 487.468828 -325.361305 
L 489.031981 -325.366061 
L 490.595134 -325.369843 
L 492.158288 -325.372722 
L 493.721441 -325.374765 
L 495.284594 -325.376043 
L 496.847748 -325.376624 
L 498.410901 -325.376579 
L 499.974054 -325.375975 
L 501.537208 -325.374884 
L 503.100361 -325.373373 
L 504.663515 -325.371512 
L 506.226668 -325.369371 
L 507.789821 -325.367018 
L 509.352975 -325.364523 
L 510.916128 -325.361956 
L 512.479281 -325.359385 
L 514.042435 -325.356879 
L 515.605588 -325.354509 
L 517.168742 -325.352344 
L 518.731895 -325.350452 
L 520.295048 -325.348903 
L 521.858202 -325.347766 
L 523.421355 -325.347111 
L 524.984508 -325.347006 
L 526.547662 -325.347522 
L 528.110815 -325.348727 
L 529.673968 -325.350691 
L 531.237122 -325.353482 
L 532.800275 -325.357171 
L 534.363429 -325.361827 
L 534.363429 -71.28 
L 534.363429 -71.28 
L 532.800275 -71.28 
L 531.237122 -71.28 
L 529.673968 -71.28 
L 528.110815 -71.28 
L 526.547662 -71.28 
L 524.984508 -71.28 
L 523.421355 -71.28 
L 521.858202 -71.28 
L 520.295048 -71.28 
L 518.731895 -71.28 
L 517.168742 -71.28 
L 515.605588 -71.28 
L 514.042435 -71.28 
L 512.479281 -71.28 
L 510.916128 -71.28 
L 509.352975 -71.28 
L 507.789821 -71.28 
L 506.226668 -71.28 
L 504.663515 -71.28 
L 503.100361 -71.28 
L 501.537208 -71.28 
L 499.974054 -71.28 
L 498.410901 -71.28 
L 496.847748 -71.28 
L 495.284594 -71.28 
L 493.721441 -71.28 
L 492.158288 -71.28 
L 490.595134 -71.28 
L 489.031981 -71.28 
L 487.468828 -71.28 
L 485.905674 -71.28 
L 484.342521 -71.28 
L 482.779367 -71.28 
L 481.216214 -71.28 
L 479.653061 -71.28 
L 478.089907 -71.28 
L 476.526754 -71.28 
L 474.963601 -71.28 
L 473.400447 -71.28 
L 471.837294 -71.28 
L 470.27414 -71.28 
L 468.710987 -71.28 
L 467.147834 -71.28 
L 465.58468 -71.28 
L 464.021527 -71.28 
L 462.458374 -71.28 
L 460.89522 -71.28 
L 459.332067 -71.28 
L 457.768914 -71.28 
L 456.20576 -71.28 
L 454.642607 -71.28 
L 453.079453 -71.28 
L 451.5163 -71.28 
L 449.953147 -71.28 
L 448.389993 -71.28 
L 446.82684 -71.28 
L 445.263687 -71.28 
L 443.700533 -71.28 
L 442.13738 -71.28 
L 440.574226 -71.28 
L 439.011073 -71.28 
L 437.44792 -71.28 
L 435.884766 -71.28 
L 434.321613 -71.28 
L 432.75846 -71.28 
L 431.195306 -71.28 
L 429.632153 -71.28 
L 428.069 -71.28 
L 426.505846 -71.28 
L 424.942693 -71.28 
L 423.379539 -71.28 
L 421.816386 -71.28 
L 420.253233 -71.28 
L 418.690079 -71.28 
L 417.126926 -71.28 
L 415.563773 -71.28 
L 414.000619 -71.28 
L 412.437466 -71.28 
L 410.874312 -71.28 
L 409.311159 -71.28 
L 407.748006 -71.28 
L 406.184852 -71.28 
L 404.621699 -71.28 
L 403.058546 -71.28 
L 401.495392 -71.28 
L 399.932239 -71.28 
L 398.369086 -71.28 
L 396.805932 -71.28 
L 395.242779 -71.28 
L 393.679625 -71.28 
L 392.116472 -71.28 
L 390.553319 -71.28 
L 388.990165 -71.28 
L 387.427012 -71.28 
L 385.863859 -71.28 
L 384.300705 -71.28 
L 382.737552 -71.28 
L 381.174398 -71.28 
L 379.611245 -71.28 
L 378.048092 -71.28 
L 376.484938 -71.28 
L 374.921785 -71.28 
L 373.358632 -71.28 
L 371.795478 -71.28 
L 370.232325 -71.28 
L 368.669172 -71.28 
L 367.106018 -71.28 
L 365.542865 -71.28 
L 363.979711 -71.28 
L 362.416558 -71.28 
L 360.853405 -71.28 
L 359.290251 -71.28 
L 357.727098 -71.28 
L 356.163945 -71.28 
L 354.600791 -71.28 
L 353.037638 -71.28 
L 351.474484 -71.28 
L 349.911331 -71.28 
L 348.348178 -71.28 
L 346.785024 -71.28 
L 345.221871 -71.28 
L 343.658718 -71.28 
L 342.095564 -71.28 
L 340.532411 -71.28 
L 338.969258 -71.28 
L 337.406104 -71.28 
L 335.842951 -71.28 
L 334.279797 -71.28 
L 332.716644 -71.28 
L 331.153491 -71.28 
L 329.590337 -71.28 
L 328.027184 -71.28 
L 326.464031 -71.28 
L 324.900877 -71.28 
L 323.337724 -71.28 
L 321.77457 -71.28 
L 320.211417 -71.28 
L 318.648264 -71.28 
L 317.08511 -71.28 
L 315.521957 -71.28 
L 313.958804 -71.28 
L 312.39565 -71.28 
L 310.832497 -71.28 
L 309.269344 -71.28 
L 307.70619 -71.28 
L 306.143037 -71.28 
L 304.579883 -71.28 
L 303.01673 -71.28 
L 301.453577 -71.28 
L 299.890423 -71.28 
L 298.32727 -71.28 
L 296.764117 -71.28 
L 295.200963 -71.28 
L 293.63781 -71.28 
L 292.074656 -71.28 
L 290.511503 -71.28 
L 288.94835 -71.28 
L 287.385196 -71.28 
L 285.822043 -71.28 
L 284.25889 -71.28 
L 282.695736 -71.28 
L 281.132583 -71.28 
L 279.56943 -71.28 
L 278.006276 -71.28 
L 276.443123 -71.28 
L 274.879969 -71.28 
L 273.316816 -71.28 
L 271.753663 -71.28 
L 270.190509 -71.28 
L 268.627356 -71.28 
L 267.064203 -71.28 
L 265.501049 -71.28 
L 263.937896 -71.28 
L 262.374742 -71.28 
L 260.811589 -71.28 
L 259.248436 -71.28 
L 257.685282 -71.28 
L 256.122129 -71.28 
L 254.558976 -71.28 
L 252.995822 -71.28 
L 251.432669 -71.28 
L 249.869516 -71.28 
L 248.306362 -71.28 
L 246.743209 -71.28 
L 245.180055 -71.28 
L 243.616902 -71.28 
L 242.053749 -71.28 
L 240.490595 -71.28 
L 238.927442 -71.28 
L 237.364289 -71.28 
L 235.801135 -71.28 
L 234.237982 -71.28 
L 232.674828 -71.28 
L 231.111675 -71.28 
L 229.548522 -71.28 
L 227.985368 -71.28 
L 226.422215 -71.28 
L 224.859062 -71.28 
L 223.295908 -71.28 
L 221.732755 -71.28 
L 220.169602 -71.28 
L 218.606448 -71.28 
L 217.043295 -71.28 
L 215.480141 -71.28 
L 213.916988 -71.28 
L 212.353835 -71.28 
L 210.790681 -71.28 
L 209.227528 -71.28 
L 207.664375 -71.28 
L 206.101221 -71.28 
L 204.538068 -71.28 
L 202.974914 -71.28 
L 201.411761 -71.28 
L 199.848608 -71.28 
L 198.285454 -71.28 
L 196.722301 -71.28 
L 195.159148 -71.28 
L 193.595994 -71.28 
L 192.032841 -71.28 
L 190.469688 -71.28 
L 188.906534 -71.28 
L 187.343381 -71.28 
L 185.780227 -71.28 
L 184.217074 -71.28 
L 182.653921 -71.28 
L 181.090767 -71.28 
L 179.527614 -71.28 
L 177.964461 -71.28 
L 176.401307 -71.28 
L 174.838154 -71.28 
L 173.275 -71.28 
L 171.711847 -71.28 
L 170.148694 -71.28 
L 168.58554 -71.28 
L 167.022387 -71.28 
L 165.459234 -71.28 
L 163.89608 -71.28 
L 162.332927 -71.28 
L 160.769774 -71.28 
L 159.20662 -71.28 
L 157.643467 -71.28 
L 156.080313 -71.28 
L 154.51716 -71.28 
L 152.954007 -71.28 
L 151.390853 -71.28 
L 149.8277 -71.28 
L 148.264547 -71.28 
L 146.701393 -71.28 
L 145.13824 -71.28 
L 143.575086 -71.28 
L 142.011933 -71.28 
L 140.44878 -71.28 
L 138.885626 -71.28 
L 137.322473 -71.28 
L 135.75932 -71.28 
L 134.196166 -71.28 
L 132.633013 -71.28 
L 131.06986 -71.28 
L 129.506706 -71.28 
L 127.943553 -71.28 
L 126.380399 -71.28 
L 124.817246 -71.28 
L 123.254093 -71.28 
L 121.690939 -71.28 
L 120.127786 -71.28 
L 118.564633 -71.28 
L 117.001479 -71.28 
L 115.438326 -71.28 
L 113.875172 -71.28 
L 112.312019 -71.28 
L 110.748866 -71.28 
L 109.185712 -71.28 
L 107.622559 -71.28 
L 106.059406 -71.28 
L 104.496252 -71.28 
L 102.933099 -71.28 
L 101.369946 -71.28 
L 99.806792 -71.28 
L 98.243639 -71.28 
L 96.680485 -71.28 
L 95.117332 -71.28 
L 93.554179 -71.28 
L 91.991025 -71.28 
L 90.427872 -71.28 
L 88.864719 -71.28 
L 87.301565 -71.28 
L 85.738412 -71.28 
L 84.175258 -71.28 
L 82.612105 -71.28 
L 81.048952 -71.28 
L 79.485798 -71.28 
L 77.922645 -71.28 
L 76.359492 -71.28 
L 74.796338 -71.28 
L 73.233185 -71.28 
L 71.670032 -71.28 
L 70.106878 -71.28 
L 68.543725 -71.28 
L 66.980571 -71.28 
z
" style="stroke: #8b5cf6; stroke-opacity: 0.12"/>
    </defs>
    <g clip-path="url(#pefd80586d2)">
     <use xlink:href="#m8417057801" x="0" y="396" style="fill: #8b5cf6; fill-opacity: 0.12; stroke: #8b5cf6; stroke-opacity: 0.12"/>
    </g>
   </g>
   <g id="text_16">
    <!-- 265 -->
    <g style="fill: #8b5cf6" transform="translate(537.363429 67.638173) scale(0.12 -0.12)">
     <defs>
      <path id="JetBrainsMono-Bold-32" d="M 474 0 
L 474 723 
L 2157 2445 
Q 2566 2874 2566 3315 
Q 2566 3629 2384 3824 
Q 2202 4019 1894 4019 
Q 1581 4019 1392 3817 
Q 1203 3616 1203 3283 
L 403 3283 
Q 403 3718 595 4044 
Q 787 4371 1126 4553 
Q 1466 4736 1914 4736 
Q 2355 4736 2688 4563 
Q 3021 4390 3203 4080 
Q 3386 3770 3386 3354 
Q 3386 2995 3216 2636 
Q 3046 2278 2656 1894 
L 1478 723 
L 3443 723 
L 3443 0 
L 474 0 
z
" transform="scale(0.015625)"/>
      <path id="JetBrainsMono-Bold-36" d="M 1920 -64 
Q 1440 -64 1085 128 
Q 730 320 534 669 
Q 339 1018 339 1485 
Q 339 1760 457 2115 
Q 576 2470 781 2835 
L 1792 4672 
L 2701 4672 
L 1498 2611 
L 1523 2598 
Q 1619 2733 1804 2809 
Q 1990 2886 2208 2886 
Q 2598 2886 2889 2710 
Q 3181 2534 3341 2214 
Q 3501 1894 3501 1459 
Q 3501 998 3305 656 
Q 3110 314 2755 125 
Q 2400 -64 1920 -64 
z
M 1920 614 
Q 2278 614 2496 841 
Q 2714 1069 2714 1446 
Q 2714 1830 2496 2057 
Q 2278 2285 1920 2285 
Q 1562 2285 1344 2057 
Q 1126 1830 1126 1446 
Q 1126 1069 1344 841 
Q 1562 614 1920 614 
z
" transform="scale(0.015625)"/>
      <path id="JetBrainsMono-Bold-35" d="M 1894 -64 
Q 1210 -64 803 297 
Q 397 659 397 1280 
L 1197 1280 
Q 1197 986 1385 810 
Q 1574 634 1901 634 
Q 2227 634 2409 810 
Q 2592 986 2592 1299 
L 2592 1606 
Q 2592 1920 2413 2096 
Q 2234 2272 1907 2272 
L 557 2272 
L 557 4672 
L 3219 4672 
L 3219 3949 
L 1312 3949 
L 1318 2976 
L 1946 2976 
Q 2637 2976 3014 2617 
Q 3392 2259 3392 1606 
L 3392 1299 
Q 3392 666 2992 301 
Q 2592 -64 1894 -64 
z
" transform="scale(0.015625)"/>
     </defs>
     <use xlink:href="#JetBrainsMono-Bold-32"/>
     <use xlink:href="#JetBrainsMono-Bold-36" transform="translate(59.999985 0)"/>
     <use xlink:href="#JetBrainsMono-Bold-35" transform="translate(119.999969 0)"/>
    </g>
   </g>
   <g id="text_17">
    <!-- Rating History -->
    <g style="fill: #8b5cf6" transform="translate(55.296 50.44) scale(0.17 -0.17)">
     <defs>
      <path id="JetBrainsMono-Bold-52" d="M 493 0 
L 493 4672 
L 1965 4672 
Q 2432 4672 2774 4499 
Q 3117 4326 3309 4016 
Q 3501 3706 3501 3283 
Q 3501 2816 3270 2467 
Q 3040 2118 2650 1971 
L 3565 0 
L 2688 0 
L 1869 1856 
L 1286 1856 
L 1286 0 
L 493 0 
z
M 1286 2560 
L 1965 2560 
Q 2304 2560 2496 2745 
Q 2688 2931 2688 3258 
Q 2688 3584 2493 3776 
Q 2298 3968 1965 3968 
L 1286 3968 
L 1286 2560 
z
" transform="scale(0.015625)"/>
      <path id="JetBrainsMono-Bold-61" d="M 1530 -64 
Q 992 -64 681 240 
Q 371 544 371 1037 
Q 371 1549 723 1853 
Q 1075 2157 1690 2157 
L 2547 2157 
L 2547 2406 
Q 2547 2938 1926 2938 
Q 1645 2938 1478 2829 
Q 1312 2720 1293 2522 
L 525 2522 
Q 550 2995 924 3289 
Q 1299 3584 1933 3584 
Q 2605 3584 2976 3270 
Q 3347 2957 3347 2387 
L 3347 0 
L 2566 0 
L 2566 659 
Q 2522 320 2246 128 
Q 1971 -64 1530 -64 
z
M 1786 589 
Q 2138 589 2342 761 
Q 2547 934 2547 1222 
L 2547 1638 
L 1728 1638 
Q 1466 1638 1312 1491 
Q 1158 1344 1158 1114 
Q 1158 877 1321 733 
Q 1485 589 1786 589 
z
" transform="scale(0.015625)"/>
      <path id="JetBrainsMono-Bold-74" d="M 2272 0 
Q 1779 0 1488 285 
Q 1197 570 1197 1056 
L 1197 2797 
L 224 2797 
L 224 3520 
L 1197 3520 
L 1197 4512 
L 2003 4512 
L 2003 3520 
L 3405 3520 
L 3405 2797 
L 2003 2797 
L 2003 1075 
Q 2003 922 2089 822 
Q 2176 723 2330 723 
L 3373 723 
L 3373 0 
L 2272 0 
z
" transform="scale(0.015625)"/>
      <path id="JetBrainsMono-Bold-69" d="M 486 0 
L 486 723 
L 1690 723 
L 1690 2797 
L 614 2797 
L 614 3520 
L 2490 3520 
L 2490 723 
L 3571 723 
L 3571 0 
L 486 0 
z
M 2032 4109 
Q 1789 4109 1648 4233 
Q 1507 4358 1507 4570 
Q 1507 4781 1648 4905 
Q 1789 5030 2032 5030 
Q 2275 5030 2416 4905 
Q 2557 4781 2557 4570 
Q 2557 4358 2416 4233 
Q 2275 4109 2032 4109 
z
" transform="scale(0.015625)"/>
      <path id="JetBrainsMono-Bold-6e" d="M 493 0 
L 493 3520 
L 1274 3520 
L 1274 2861 
Q 1338 3194 1587 3389 
Q 1837 3584 2221 3584 
Q 2739 3584 3049 3238 
Q 3360 2893 3360 2310 
L 3360 0 
L 2560 0 
L 2560 2214 
Q 2560 2541 2390 2717 
Q 2221 2893 1933 2893 
Q 1632 2893 1462 2713 
Q 1293 2534 1293 2202 
L 1293 0 
L 493 0 
z
" transform="scale(0.015625)"/>
      <path id="JetBrainsMono-Bold-67" d="M 973 -1152 
L 973 -486 
L 1965 -486 
Q 2246 -486 2400 -336 
Q 2554 -186 2554 70 
L 2554 282 
L 2566 832 
Q 2458 538 2218 374 
Q 1978 211 1632 211 
Q 1094 211 777 572 
Q 461 934 461 1555 
L 461 2240 
Q 461 2854 777 3219 
Q 1094 3584 1632 3584 
Q 1978 3584 2218 3421 
Q 2458 3258 2566 2957 
L 2566 3520 
L 3347 3520 
L 3347 51 
Q 3347 -506 2979 -829 
Q 2611 -1152 1978 -1152 
L 973 -1152 
z
M 1901 896 
Q 2208 896 2377 1078 
Q 2547 1261 2547 1587 
L 2547 2202 
Q 2547 2528 2377 2710 
Q 2208 2893 1901 2893 
Q 1594 2893 1427 2717 
Q 1261 2541 1261 2227 
L 1261 1562 
Q 1261 1248 1427 1072 
Q 1594 896 1901 896 
z
" transform="scale(0.015625)"/>
      <path id="JetBrainsMono-Bold-20" transform="scale(0.015625)"/>
      <path id="JetBrainsMono-Bold-48" d="M 493 0 
L 493 4672 
L 1293 4672 
L 1293 2778 
L 2547 2778 
L 2547 4672 
L 3347 4672 
L 3347 0 
L 2547 0 
L 2547 2054 
L 1293 2054 
L 1293 0 
L 493 0 
z
" transform="scale(0.015625)"/>
      <path id="JetBrainsMono-Bold-73" d="M 1773 -58 
Q 1146 -58 781 227 
Q 416 512 416 998 
L 1203 998 
Q 1203 794 1353 685 
Q 1504 576 1773 576 
L 2054 576 
Q 2342 576 2499 685 
Q 2656 794 2656 998 
Q 2656 1190 2547 1283 
Q 2438 1376 2214 1408 
L 1338 1523 
Q 915 1581 688 1849 
Q 461 2118 461 2547 
Q 461 3046 793 3312 
Q 1126 3578 1754 3578 
L 2048 3578 
Q 2637 3578 2995 3309 
Q 3354 3040 3366 2592 
L 2573 2592 
Q 2566 2758 2425 2857 
Q 2285 2957 2048 2957 
L 1754 2957 
Q 1498 2957 1363 2851 
Q 1229 2746 1229 2566 
Q 1229 2406 1328 2329 
Q 1427 2253 1619 2234 
L 2445 2118 
Q 2931 2061 3177 1776 
Q 3424 1491 3424 1011 
Q 3424 499 3075 220 
Q 2726 -58 2054 -58 
L 1773 -58 
z
" transform="scale(0.015625)"/>
      <path id="JetBrainsMono-Bold-6f" d="M 1920 -58 
Q 1242 -58 845 323 
Q 448 704 448 1350 
L 448 2170 
Q 448 2822 845 3200 
Q 1242 3578 1920 3578 
Q 2598 3578 2995 3200 
Q 3392 2822 3392 2170 
L 3392 1350 
Q 3392 704 2995 323 
Q 2598 -58 1920 -58 
z
M 1920 640 
Q 2240 640 2416 816 
Q 2592 992 2592 1325 
L 2592 2195 
Q 2592 2528 2416 2704 
Q 2240 2880 1920 2880 
Q 1600 2880 1424 2704 
Q 1248 2528 1248 2195 
L 1248 1325 
Q 1248 992 1424 816 
Q 1600 640 1920 640 
z
" transform="scale(0.015625)"/>
      <path id="JetBrainsMono-Bold-72" d="M 621 0 
L 621 3520 
L 1402 3520 
L 1402 2835 
Q 1466 3181 1718 3382 
Q 1971 3584 2374 3584 
Q 2912 3584 3213 3238 
Q 3514 2893 3514 2272 
L 3514 1939 
L 2714 1939 
L 2714 2234 
Q 2714 2554 2547 2723 
Q 2381 2893 2074 2893 
Q 1754 2893 1587 2701 
Q 1421 2509 1421 2157 
L 1421 0 
L 621 0 
z
" transform="scale(0.015625)"/>
      <path id="JetBrainsMono-Bold-79" d="M 1056 -1152 
L 1555 192 
L 230 3520 
L 1075 3520 
L 1754 1722 
Q 1811 1562 1868 1373 
Q 1926 1184 1952 1024 
Q 1971 1184 2025 1373 
Q 2080 1562 2138 1722 
L 2765 3520 
L 3610 3520 
L 1894 -1152 
L 1056 -1152 
z
" transform="scale(0.015625)"/>
     </defs>
     <use xlink:href="#JetBrainsMono-Bold-52"/>
     <use xlink:href="#JetBrainsMono-Bold-61" transform="translate(59.999985 0)"/>
     <use xlink:href="#JetBrainsMono-Bold-74" transform="translate(119.999969 0)"/>
     <use xlink:href="#JetBrainsMono-Bold-69" transform="translate(179.999954 0)"/>
     <use xlink:href="#JetBrainsMono-Bold-6e" transform="translate(239.999939 0)"/>
     <use xlink:href="#JetBrainsMono-Bold-67" transform="translate(299.999924 0)"/>
     <use xlink:href="#JetBrainsMono-Bold-20" transform="translate(359.999908 0)"/>
     <use xlink:href="#JetBrainsMono-Bold-48" transform="translate(419.999893 0)"/>
     <use xlink:href="#JetBrainsMono-Bold-69" transform="translate(479.999878 0)"/>
     <use xlink:href="#JetBrainsMono-Bold-73" transform="translate(539.999863 0)"/>
     <use xlink:href="#JetBrainsMono-Bold-74" transform="translate(599.999847 0)"/>
     <use xlink:href="#JetBrainsMono-Bold-6f" transform="translate(659.999832 0)"/>
     <use xlink:href="#JetBrainsMono-Bold-72" transform="translate(719.999817 0)"/>
     <use xlink:href="#JetBrainsMono-Bold-79" transform="translate(779.999802 0)"/>
    </g>
   </g>
   <g id="line2d_29">
    <path d="M 66.980571 306.308273 
L 68.543725 304.390547 
L 70.106878 302.870965 
L 71.670032 301.720986 
L 73.233185 300.912069 
L 74.796338 300.415674 
L 76.359492 300.203259 
L 77.922645 300.246284 
L 79.485798 300.516209 
L 81.048952 300.984492 
L 82.612105 301.622592 
L 85.738412 303.294082 
L 88.864719 305.302354 
L 95.117332 309.415936 
L 98.243639 311.064593 
L 99.806792 311.686996 
L 101.369946 312.136728 
L 102.933099 312.385246 
L 104.496252 312.404012 
L 106.059406 312.164483 
L 107.622559 311.63812 
L 109.185712 310.796381 
L 110.748866 309.610726 
L 112.312019 308.052614 
L 113.875172 306.093518 
L 115.438326 303.723774 
L 117.001479 300.989764 
L 118.564633 297.948232 
L 121.690939 291.169578 
L 131.06986 269.354465 
L 132.633013 266.098716 
L 134.196166 263.102886 
L 135.75932 260.423717 
L 137.322473 258.117901 
L 138.885626 256.217887 
L 140.44878 254.693811 
L 142.011933 253.505932 
L 143.575086 252.614509 
L 145.13824 251.979803 
L 146.701393 251.562073 
L 148.264547 251.32158 
L 151.390853 251.213338 
L 157.643467 251.375111 
L 159.20662 251.262538 
L 160.769774 251.009354 
L 162.332927 250.591721 
L 163.89608 250.021118 
L 167.022387 248.48603 
L 170.148694 246.534152 
L 173.275 244.295542 
L 184.217074 236.080071 
L 187.343381 234.119496 
L 190.469688 232.392126 
L 195.159148 230.142913 
L 199.848608 228.173049 
L 212.353835 223.113303 
L 215.480141 221.515009 
L 218.606448 219.570108 
L 221.732755 217.164325 
L 223.295908 215.752893 
L 224.859062 214.183387 
L 226.422215 212.441525 
L 227.985368 210.513021 
L 229.548522 208.383592 
L 231.111675 206.039313 
L 234.237982 200.755975 
L 237.364289 194.914377 
L 245.180055 179.76535 
L 248.306362 174.24667 
L 249.869516 171.747804 
L 251.432669 169.470774 
L 252.995822 167.451721 
L 254.558976 165.726067 
L 256.122129 164.301357 
L 257.685282 163.148918 
L 259.248436 162.23766 
L 260.811589 161.53649 
L 262.374742 161.014316 
L 263.937896 160.640046 
L 267.064203 160.21085 
L 274.879969 159.549745 
L 276.443123 159.239397 
L 278.006276 158.797833 
L 279.56943 158.215508 
L 282.695736 156.68667 
L 285.822043 154.775532 
L 290.511503 151.46313 
L 298.32727 145.786771 
L 301.453577 143.822675 
L 304.579883 142.151926 
L 309.269344 140.030591 
L 318.648264 136.080102 
L 321.77457 134.525973 
L 324.900877 132.70653 
L 328.027184 130.586722 
L 331.153491 128.227127 
L 335.842951 124.392747 
L 345.221871 116.536682 
L 349.911331 112.978492 
L 362.416558 104.056681 
L 365.542865 101.480671 
L 368.669172 98.589255 
L 371.795478 95.295367 
L 374.921785 91.609156 
L 385.863859 78.078593 
L 388.990165 74.766849 
L 390.553319 73.314514 
L 392.116472 72.027518 
L 393.679625 70.928098 
L 395.242779 70.036169 
L 396.805932 69.347687 
L 398.369086 68.844475 
L 399.932239 68.508174 
L 401.495392 68.320421 
L 403.058546 68.262857 
L 406.184852 68.464855 
L 409.311159 68.967284 
L 418.690079 70.809964 
L 421.816386 71.124341 
L 424.942693 71.26081 
L 429.632153 71.21802 
L 437.44792 70.814669 
L 443.700533 70.541279 
L 451.5163 70.472105 
L 489.031981 70.633939 
L 526.547662 70.652478 
L 534.363429 70.638173 
L 534.363429 70.638173 
" clip-path="url(#pefd80586d2)" style="fill: none; stroke: #8b5cf6; stroke-width: 1.2; stroke-linecap: round"/>
   </g>
   <g id="PathCollection_1">
    <defs>
     <path id="m96f52924bf" d="M 0 2.236068 
C 0.593012 2.236068 1.161816 2.000462 1.581139 1.581139 
C 2.000462 1.161816 2.236068 0.593012 2.236068 0 
C 2.236068 -0.593012 2.000462 -1.161816 1.581139 -1.581139 
C 1.161816 -2.000462 0.593012 -2.236068 0 -2.236068 
C -0.593012 -2.236068 -1.161816 -2.000462 -1.581139 -1.581139 
C -2.000462 -1.161816 -2.236068 -0.593012 -2.236068 0 
C -2.236068 0.593012 -2.000462 1.161816 -1.581139 1.581139 
C -1.161816 2.000462 -0.593012 2.236068 0 2.236068 
z
" style="stroke: #ffffff; stroke-width: 0.8"/>
    </defs>
    <g clip-path="url(#pefd80586d2)">
     <use xlink:href="#m96f52924bf" x="534.363429" y="70.638173" style="fill: #8b5cf6; stroke: #ffffff; stroke-width: 0.8"/>
    </g>
   </g>
  </g>
  <g id="axes_2">
   <g id="text_18">
    <!-- Rating -->
    <g style="fill: #9b8bb8" transform="translate(565.7472 48.312) scale(0.11 -0.11)">
     <use xlink:href="#JetBrainsMono-Regular-52"/>
     <use xlink:href="#JetBrainsMono-Regular-61" transform="translate(59.999985 0)"/>
     <use xlink:href="#JetBrainsMono-Regular-74" transform="translate(119.999969 0)"/>
     <use xlink:href="#JetBrainsMono-Regular-69" transform="translate(179.999954 0)"/>
     <use xlink:href="#JetBrainsMono-Regular-6e" transform="translate(239.999939 0)"/>
     <use xlink:href="#JetBrainsMono-Regular-67" transform="translate(299.999924 0)"/>
    </g>
   </g>
   <g id="text_19">
    <!-- 265 -->
    <g style="fill: #8b5cf6" transform="translate(565.7472 81.548) scale(0.26 -0.26)">
     <use xlink:href="#JetBrainsMono-Bold-32"/>
     <use xlink:href="#JetBrainsMono-Bold-36" transform="translate(59.999985 0)"/>
     <use xlink:href="#JetBrainsMono-Bold-35" transform="translate(119.999969 0)"/>
    </g>
   </g>
   <g id="text_20">
    <!-- Rank -->
    <g style="fill: #9b8bb8" transform="translate(565.7472 119.592) scale(0.11 -0.11)">
     <defs>
      <path id="JetBrainsMono-Regular-6b" d="M 621 0 
L 621 4672 
L 1197 4672 
L 1197 2067 
L 1869 2067 
L 2854 3520 
L 3514 3520 
L 2381 1843 
L 3578 0 
L 2906 0 
L 1882 1568 
L 1197 1568 
L 1197 0 
L 621 0 
z
" transform="scale(0.015625)"/>
     </defs>
     <use xlink:href="#JetBrainsMono-Regular-52"/>
     <use xlink:href="#JetBrainsMono-Regular-61" transform="translate(59.999985 0)"/>
     <use xlink:href="#JetBrainsMono-Regular-6e" transform="translate(119.999969 0)"/>
     <use xlink:href="#JetBrainsMono-Regular-6b" transform="translate(179.999954 0)"/>
    </g>
   </g>
   <g id="text_21">
    <!-- #117,969 -->
    <g style="fill: #8b5cf6" transform="translate(565.7472 148.104) scale(0.14 -0.14)">
     <defs>
      <path id="JetBrainsMono-Bold-23" d="M 493 0 
L 710 1216 
L 224 1216 
L 224 1760 
L 800 1760 
L 998 2912 
L 448 2912 
L 448 3456 
L 1094 3456 
L 1312 4672 
L 1875 4672 
L 1658 3456 
L 2566 3456 
L 2784 4672 
L 3347 4672 
L 3130 3456 
L 3616 3456 
L 3616 2912 
L 3034 2912 
L 2835 1760 
L 3392 1760 
L 3392 1216 
L 2739 1216 
L 2528 0 
L 1965 0 
L 2182 1216 
L 1267 1216 
L 1056 0 
L 493 0 
z
M 1363 1760 
L 2272 1760 
L 2470 2912 
L 1562 2912 
L 1363 1760 
z
" transform="scale(0.015625)"/>
      <path id="JetBrainsMono-Bold-31" d="M 538 0 
L 538 723 
L 1754 723 
L 1754 3898 
L 531 3002 
L 531 3898 
L 1606 4672 
L 2554 4672 
L 2554 723 
L 3533 723 
L 3533 0 
L 538 0 
z
" transform="scale(0.015625)"/>
      <path id="JetBrainsMono-Bold-37" d="M 1011 0 
L 2720 3968 
L 1229 3968 
L 1229 3206 
L 429 3206 
L 429 4672 
L 3584 4672 
L 3584 3968 
L 1888 0 
L 1011 0 
z
" transform="scale(0.015625)"/>
      <path id="JetBrainsMono-Bold-2c" d="M 1216 -1024 
L 1555 934 
L 2470 934 
L 1984 -1024 
L 1216 -1024 
z
" transform="scale(0.015625)"/>
      <path id="JetBrainsMono-Bold-39" d="M 1120 0 
L 2214 1888 
Q 2138 1830 2035 1788 
Q 1933 1747 1728 1747 
Q 1344 1747 1027 1932 
Q 710 2118 524 2448 
Q 339 2778 339 3213 
Q 339 3674 534 4016 
Q 730 4358 1085 4547 
Q 1440 4736 1920 4736 
Q 2400 4736 2755 4544 
Q 3110 4352 3305 4003 
Q 3501 3654 3501 3187 
Q 3501 2912 3382 2557 
Q 3264 2202 3059 1837 
L 2048 0 
L 1120 0 
z
M 1920 2387 
Q 2278 2387 2496 2614 
Q 2714 2842 2714 3226 
Q 2714 3603 2496 3830 
Q 2278 4058 1920 4058 
Q 1562 4058 1344 3830 
Q 1126 3603 1126 3226 
Q 1126 2842 1344 2614 
Q 1562 2387 1920 2387 
z
" transform="scale(0.015625)"/>
     </defs>
     <use xlink:href="#JetBrainsMono-Bold-23"/>
     <use xlink:href="#JetBrainsMono-Bold-31" transform="translate(59.999985 0)"/>
     <use xlink:href="#JetBrainsMono-Bold-31" transform="translate(119.999969 0)"/>
     <use xlink:href="#JetBrainsMono-Bold-37" transform="translate(179.999954 0)"/>
     <use xlink:href="#JetBrainsMono-Bold-2c" transform="translate(239.999939 0)"/>
     <use xlink:href="#JetBrainsMono-Bold-39" transform="translate(299.999924 0)"/>
     <use xlink:href="#JetBrainsMono-Bold-36" transform="translate(359.999908 0)"/>
     <use xlink:href="#JetBrainsMono-Bold-39" transform="translate(419.999893 0)"/>
    </g>
   </g>
   <g id="text_22">
    <!-- ─ 0 -->
    <g style="fill: #9b8bb8" transform="translate(565.7472 169.488) scale(0.11 -0.11)">
     <defs>
      <path id="JetBrainsMono-Bold-2500" d="M -128 2048 
L -128 2688 
L 3968 2688 
L 3968 2048 
L -128 2048 
z
" transform="scale(0.015625)"/>
      <path id="JetBrainsMono-Bold-30" d="M 1920 -64 
Q 1466 -64 1133 109 
Q 800 282 617 595 
Q 435 909 435 1331 
L 435 3341 
Q 435 3763 617 4076 
Q 800 4390 1133 4563 
Q 1466 4736 1920 4736 
Q 2374 4736 2707 4563 
Q 3040 4390 3222 4076 
Q 3405 3763 3405 3341 
L 3405 1331 
Q 3405 909 3222 595 
Q 3040 282 2707 109 
Q 2374 -64 1920 -64 
z
M 1920 627 
Q 2253 627 2451 819 
Q 2650 1011 2650 1331 
L 2650 3341 
Q 2650 3661 2454 3853 
Q 2259 4045 1920 4045 
Q 1581 4045 1385 3853 
Q 1190 3661 1190 3341 
L 1190 1331 
Q 1190 1011 1388 819 
Q 1587 627 1920 627 
z
M 1920 1952 
Q 1728 1952 1613 2057 
Q 1498 2163 1498 2355 
Q 1498 2547 1613 2646 
Q 1728 2746 1920 2746 
Q 2112 2746 2227 2646 
Q 2342 2547 2342 2355 
Q 2342 2163 2227 2057 
Q 2112 1952 1920 1952 
z
" transform="scale(0.015625)"/>
     </defs>
     <use xlink:href="#JetBrainsMono-Bold-2500"/>
     <use xlink:href="#JetBrainsMono-Bold-20" transform="translate(59.999985 0)"/>
     <use xlink:href="#JetBrainsMono-Bold-30" transform="translate(119.999969 0)"/>
    </g>
   </g>
  </g>
 </g>
 <defs>
  <clipPath id="pefd80586d2">
   <rect x="55.296" y="55.44" width="490.752" height="269.28"/>
  </clipPath>
 </defs>
</svg>
