<?xml version="1.0" encoding="utf-8" standalone="no"?>
<!DOCTYPE svg PUBLIC "-//W3C//DTD SVG 1.1//EN"
  "http://www.w3.org/Graphics/SVG/1.1/DTD/svg11.dtd">
<svg xmlns:xlink="http://www.w3.org/1999/xlink" width="691.2pt" height="396pt" viewBox="0 0 691.2 396" xmlns="http://www.w3.org/2000/svg" version="1.1">
 <metadata>
  <rdf:RDF xmlns:dc="http://purl.org/dc/elements/1.1/" xmlns:cc="http://creativecommons.org/ns#" xmlns:rdf="http://www.w3.org/1999/02/22-rdf-syntax-ns#">
   <cc:Work>
    <dc:type rdf:resource="http://purl.org/dc/dcmitype/StillImage"/>
    <dc:date>2026-04-04T22:32:53.876694</dc:date>
    <dc:format>image/svg+xml</dc:format>
    <dc:creator>
     <cc:Agent>
      <dc:title>Matplotlib v3.10.8, https://matplotlib.org/</dc:title>
     </cc:Agent>
    </dc:creator>
   </cc:Work>
  </rdf:RDF>
 </metadata>
 <defs>
  <style type="text/css">*{stroke-linejoin: round; stroke-linecap: butt}</style>
 </defs>
 <g id="figure_1">
  <g id="patch_1">
   <path d="M 0 396 
L 691.2 396 
L 691.2 0 
L 0 0 
L 0 396 
z
" style="fill: none"/>
  </g>
  <g id="axes_1">
   <g id="patch_2">
    <path d="M 55.296 324.72 
L 546.048 324.72 
L 546.048 55.44 
L 55.296 55.44 
L 55.296 324.72 
z
" style="fill: none"/>
   </g>
   <g id="matplotlib.axis_1">
    <g id="xtick_1">
     <g id="line2d_1">
      <path d="M 104.3712 324.72 
L 104.3712 55.44 
" clip-path="url(#pd8e24c17c0)" style="fill: none; stroke-dasharray: 2.22,0.96; stroke-dashoffset: 0; stroke: #e2d5f5; stroke-opacity: 0.7; stroke-width: 0.6"/>
     </g>
     <g id="line2d_2">
      <defs>
       <path id="m761cc3279e" d="M 0 0 
L 0 3.5 
" style="stroke: #9b8bb8; stroke-width: 0.8"/>
      </defs>
      <g>
       <use xlink:href="#m761cc3279e" x="104.3712" y="324.72" style="fill: #9b8bb8; stroke: #9b8bb8; stroke-width: 0.8"/>
      </g>
     </g>
     <g id="text_1">
      <!-- 03/31 -->
      <g style="fill: #9b8bb8" transform="translate(92.72356 353.375578) rotate(-30) scale(0.1 -0.1)">
       <defs>
        <path id="Menlo-Regular-30" d="M 1925 4734 
Q 2672 4734 3055 4125 
Q 3438 3516 3438 2322 
Q 3438 1128 3055 518 
Q 2672 -91 1925 -91 
Q 1178 -91 797 518 
Q 416 1128 416 2322 
Q 416 3516 797 4125 
Q 1178 4734 1925 4734 
z
M 1925 409 
Q 2369 409 2586 881 
Q 2803 1353 2803 2322 
Q 2803 2838 2741 3253 
L 1253 925 
Q 1488 409 1925 409 
z
M 1925 4234 
Q 1484 4234 1267 3762 
Q 1050 3291 1050 2322 
Q 1050 1881 1109 1497 
L 2566 3819 
Q 2328 4234 1925 4234 
z
" transform="scale(0.015625)"/>
        <path id="Menlo-Regular-33" d="M 2425 2497 
Q 2884 2375 3128 2064 
Q 3372 1753 3372 1288 
Q 3372 644 2939 276 
Q 2506 -91 1741 -91 
Q 1419 -91 1084 -31 
Q 750 28 428 141 
L 428 769 
Q 747 603 1056 522 
Q 1366 441 1672 441 
Q 2191 441 2469 675 
Q 2747 909 2747 1350 
Q 2747 1756 2469 1995 
Q 2191 2234 1716 2234 
L 1234 2234 
L 1234 2753 
L 1716 2753 
Q 2150 2753 2394 2943 
Q 2638 3134 2638 3475 
Q 2638 3834 2411 4026 
Q 2184 4219 1766 4219 
Q 1488 4219 1191 4156 
Q 894 4094 569 3969 
L 569 4550 
Q 947 4650 1242 4700 
Q 1538 4750 1766 4750 
Q 2447 4750 2855 4408 
Q 3263 4066 3263 3500 
Q 3263 3116 3048 2859 
Q 2834 2603 2425 2497 
z
" transform="scale(0.015625)"/>
        <path id="Menlo-Regular-2f" d="M 2778 4666 
L 3372 4666 
L 916 -594 
L 319 -594 
L 2778 4666 
z
" transform="scale(0.015625)"/>
        <path id="Menlo-Regular-31" d="M 844 528 
L 1825 528 
L 1825 4053 
L 650 3488 
L 650 4094 
L 1819 4650 
L 2450 4650 
L 2450 528 
L 3419 528 
L 3419 0 
L 844 0 
L 844 528 
z
" transform="scale(0.015625)"/>
       </defs>
       <use xlink:href="#Menlo-Regular-30"/>
       <use xlink:href="#Menlo-Regular-33" transform="translate(60.205078 0)"/>
       <use xlink:href="#Menlo-Regular-2f" transform="translate(120.410156 0)"/>
       <use xlink:href="#Menlo-Regular-33" transform="translate(180.615234 0)"/>
       <use xlink:href="#Menlo-Regular-31" transform="translate(240.820312 0)"/>
      </g>
     </g>
    </g>
    <g id="xtick_2">
     <g id="line2d_3">
      <path d="M 202.5216 324.72 
L 202.5216 55.44 
" clip-path="url(#pd8e24c17c0)" style="fill: none; stroke-dasharray: 2.22,0.96; stroke-dashoffset: 0; stroke: #e2d5f5; stroke-opacity: 0.7; stroke-width: 0.6"/>
     </g>
     <g id="line2d_4">
      <g>
       <use xlink:href="#m761cc3279e" x="202.5216" y="324.72" style="fill: #9b8bb8; stroke: #9b8bb8; stroke-width: 0.8"/>
      </g>
     </g>
     <g id="text_2">
      <!-- 04/01 -->
      <g style="fill: #9b8bb8" transform="translate(190.87396 353.375578) rotate(-30) scale(0.1 -0.1)">
       <defs>
        <path id="Menlo-Regular-34" d="M 2297 4091 
L 825 1625 
L 2297 1625 
L 2297 4091 
z
M 2194 4666 
L 2925 4666 
L 2925 1625 
L 3547 1625 
L 3547 1113 
L 2925 1113 
L 2925 0 
L 2297 0 
L 2297 1113 
L 319 1113 
L 319 1709 
L 2194 4666 
z
" transform="scale(0.015625)"/>
       </defs>
       <use xlink:href="#Menlo-Regular-30"/>
       <use xlink:href="#Menlo-Regular-34" transform="translate(60.205078 0)"/>
       <use xlink:href="#Menlo-Regular-2f" transform="translate(120.410156 0)"/>
       <use xlink:href="#Menlo-Regular-30" transform="translate(180.615234 0)"/>
       <use xlink:href="#Menlo-Regular-31" transform="translate(240.820312 0)"/>
      </g>
     </g>
    </g>
    <g id="xtick_3">
     <g id="line2d_5">
      <path d="M 300.672 324.72 
L 300.672 55.44 
" clip-path="url(#pd8e24c17c0)" style="fill: none; stroke-dasharray: 2.22,0.96; stroke-dashoffset: 0; stroke: #e2d5f5; stroke-opacity: 0.7; stroke-width: 0.6"/>
     </g>
     <g id="line2d_6">
      <g>
       <use xlink:href="#m761cc3279e" x="300.672" y="324.72" style="fill: #9b8bb8; stroke: #9b8bb8; stroke-width: 0.8"/>
      </g>
     </g>
     <g id="text_3">
      <!-- 04/02 -->
      <g style="fill: #9b8bb8" transform="translate(289.02436 353.375578) rotate(-30) scale(0.1 -0.1)">
       <defs>
        <path id="Menlo-Regular-32" d="M 1166 531 
L 3309 531 
L 3309 0 
L 475 0 
L 475 531 
Q 1059 1147 1496 1619 
Q 1934 2091 2100 2284 
Q 2413 2666 2522 2902 
Q 2631 3138 2631 3384 
Q 2631 3775 2401 3997 
Q 2172 4219 1772 4219 
Q 1488 4219 1175 4116 
Q 863 4013 513 3803 
L 513 4441 
Q 834 4594 1145 4672 
Q 1456 4750 1759 4750 
Q 2444 4750 2861 4386 
Q 3278 4022 3278 3431 
Q 3278 3131 3139 2831 
Q 3000 2531 2688 2169 
Q 2513 1966 2180 1606 
Q 1847 1247 1166 531 
z
" transform="scale(0.015625)"/>
       </defs>
       <use xlink:href="#Menlo-Regular-30"/>
       <use xlink:href="#Menlo-Regular-34" transform="translate(60.205078 0)"/>
       <use xlink:href="#Menlo-Regular-2f" transform="translate(120.410156 0)"/>
       <use xlink:href="#Menlo-Regular-30" transform="translate(180.615234 0)"/>
       <use xlink:href="#Menlo-Regular-32" transform="translate(240.820312 0)"/>
      </g>
     </g>
    </g>
    <g id="xtick_4">
     <g id="line2d_7">
      <path d="M 398.8224 324.72 
L 398.8224 55.44 
" clip-path="url(#pd8e24c17c0)" style="fill: none; stroke-dasharray: 2.22,0.96; stroke-dashoffset: 0; stroke: #e2d5f5; stroke-opacity: 0.7; stroke-width: 0.6"/>
     </g>
     <g id="line2d_8">
      <g>
       <use xlink:href="#m761cc3279e" x="398.8224" y="324.72" style="fill: #9b8bb8; stroke: #9b8bb8; stroke-width: 0.8"/>
      </g>
     </g>
     <g id="text_4">
      <!-- 04/03 -->
      <g style="fill: #9b8bb8" transform="translate(387.17476 353.375578) rotate(-30) scale(0.1 -0.1)">
       <use xlink:href="#Menlo-Regular-30"/>
       <use xlink:href="#Menlo-Regular-34" transform="translate(60.205078 0)"/>
       <use xlink:href="#Menlo-Regular-2f" transform="translate(120.410156 0)"/>
       <use xlink:href="#Menlo-Regular-30" transform="translate(180.615234 0)"/>
       <use xlink:href="#Menlo-Regular-33" transform="translate(240.820312 0)"/>
      </g>
     </g>
    </g>
    <g id="xtick_5">
     <g id="line2d_9">
      <path d="M 496.9728 324.72 
L 496.9728 55.44 
" clip-path="url(#pd8e24c17c0)" style="fill: none; stroke-dasharray: 2.22,0.96; stroke-dashoffset: 0; stroke: #e2d5f5; stroke-opacity: 0.7; stroke-width: 0.6"/>
     </g>
     <g id="line2d_10">
      <g>
       <use xlink:href="#m761cc3279e" x="496.9728" y="324.72" style="fill: #9b8bb8; stroke: #9b8bb8; stroke-width: 0.8"/>
      </g>
     </g>
     <g id="text_5">
      <!-- 04/04 -->
      <g style="fill: #9b8bb8" transform="translate(485.32516 353.375578) rotate(-30) scale(0.1 -0.1)">
       <use xlink:href="#Menlo-Regular-30"/>
       <use xlink:href="#Menlo-Regular-34" transform="translate(60.205078 0)"/>
       <use xlink:href="#Menlo-Regular-2f" transform="translate(120.410156 0)"/>
       <use xlink:href="#Menlo-Regular-30" transform="translate(180.615234 0)"/>
       <use xlink:href="#Menlo-Regular-34" transform="translate(240.820312 0)"/>
      </g>
     </g>
    </g>
   </g>
   <g id="matplotlib.axis_2">
    <g id="ytick_1">
     <g id="line2d_11">
      <path d="M 55.296 323.660833 
L 546.048 323.660833 
" clip-path="url(#pd8e24c17c0)" style="fill: none; stroke-dasharray: 2.22,0.96; stroke-dashoffset: 0; stroke: #e2d5f5; stroke-opacity: 0.7; stroke-width: 0.6"/>
     </g>
     <g id="line2d_12">
      <defs>
       <path id="m936fb38f74" d="M 0 0 
L -3.5 0 
" style="stroke: #9b8bb8; stroke-width: 0.8"/>
      </defs>
      <g>
       <use xlink:href="#m936fb38f74" x="55.296" y="323.660833" style="fill: #9b8bb8; stroke: #9b8bb8; stroke-width: 0.8"/>
      </g>
     </g>
     <g id="text_6">
      <!-- 195 -->
      <g style="fill: #9b8bb8" transform="translate(30.235062 327.474114) scale(0.1 -0.1)">
       <defs>
        <path id="Menlo-Regular-39" d="M 1863 2069 
Q 2266 2069 2495 2359 
Q 2725 2650 2725 3163 
Q 2725 3675 2495 3965 
Q 2266 4256 1863 4256 
Q 1444 4256 1231 3979 
Q 1019 3703 1019 3163 
Q 1019 2619 1230 2344 
Q 1441 2069 1863 2069 
z
M 738 97 
L 738 678 
Q 934 563 1156 502 
Q 1378 441 1619 441 
Q 2219 441 2526 892 
Q 2834 1344 2834 2222 
Q 2688 1909 2422 1742 
Q 2156 1575 1813 1575 
Q 1138 1575 767 1990 
Q 397 2406 397 3169 
Q 397 3922 776 4336 
Q 1156 4750 1850 4750 
Q 2663 4750 3041 4165 
Q 3419 3581 3419 2328 
Q 3419 1150 2964 529 
Q 2509 -91 1644 -91 
Q 1416 -91 1184 -42 
Q 953 6 738 97 
z
" transform="scale(0.015625)"/>
        <path id="Menlo-Regular-35" d="M 647 4666 
L 3009 4666 
L 3009 4134 
L 1222 4134 
L 1222 2988 
Q 1356 3038 1492 3061 
Q 1628 3084 1766 3084 
Q 2491 3084 2916 2656 
Q 3341 2228 3341 1497 
Q 3341 759 2895 334 
Q 2450 -91 1678 -91 
Q 1306 -91 998 -41 
Q 691 9 447 109 
L 447 750 
Q 734 594 1025 517 
Q 1316 441 1619 441 
Q 2141 441 2423 716 
Q 2706 991 2706 1497 
Q 2706 1997 2414 2275 
Q 2122 2553 1600 2553 
Q 1347 2553 1106 2495 
Q 866 2438 647 2322 
L 647 4666 
z
" transform="scale(0.015625)"/>
       </defs>
       <use xlink:href="#Menlo-Regular-31"/>
       <use xlink:href="#Menlo-Regular-39" transform="translate(60.205078 0)"/>
       <use xlink:href="#Menlo-Regular-35" transform="translate(120.410156 0)"/>
      </g>
     </g>
    </g>
    <g id="ytick_2">
     <g id="line2d_13">
      <path d="M 55.296 267.756667 
L 546.048 267.756667 
" clip-path="url(#pd8e24c17c0)" style="fill: none; stroke-dasharray: 2.22,0.96; stroke-dashoffset: 0; stroke: #e2d5f5; stroke-opacity: 0.7; stroke-width: 0.6"/>
     </g>
     <g id="line2d_14">
      <g>
       <use xlink:href="#m936fb38f74" x="55.296" y="267.756667" style="fill: #9b8bb8; stroke: #9b8bb8; stroke-width: 0.8"/>
      </g>
     </g>
     <g id="text_7">
      <!-- 200 -->
      <g style="fill: #9b8bb8" transform="translate(30.235062 271.569949) scale(0.1 -0.1)">
       <use xlink:href="#Menlo-Regular-32"/>
       <use xlink:href="#Menlo-Regular-30" transform="translate(60.205078 0)"/>
       <use xlink:href="#Menlo-Regular-30" transform="translate(120.410156 0)"/>
      </g>
     </g>
    </g>
    <g id="ytick_3">
     <g id="line2d_15">
      <path d="M 55.296 211.852501 
L 546.048 211.852501 
" clip-path="url(#pd8e24c17c0)" style="fill: none; stroke-dasharray: 2.22,0.96; stroke-dashoffset: 0; stroke: #e2d5f5; stroke-opacity: 0.7; stroke-width: 0.6"/>
     </g>
     <g id="line2d_16">
      <g>
       <use xlink:href="#m936fb38f74" x="55.296" y="211.852501" style="fill: #9b8bb8; stroke: #9b8bb8; stroke-width: 0.8"/>
      </g>
     </g>
     <g id="text_8">
      <!-- 205 -->
      <g style="fill: #9b8bb8" transform="translate(30.235062 215.665783) scale(0.1 -0.1)">
       <use xlink:href="#Menlo-Regular-32"/>
       <use xlink:href="#Menlo-Regular-30" transform="translate(60.205078 0)"/>
       <use xlink:href="#Menlo-Regular-35" transform="translate(120.410156 0)"/>
      </g>
     </g>
    </g>
    <g id="ytick_4">
     <g id="line2d_17">
      <path d="M 55.296 155.948336 
L 546.048 155.948336 
" clip-path="url(#pd8e24c17c0)" style="fill: none; stroke-dasharray: 2.22,0.96; stroke-dashoffset: 0; stroke: #e2d5f5; stroke-opacity: 0.7; stroke-width: 0.6"/>
     </g>
     <g id="line2d_18">
      <g>
       <use xlink:href="#m936fb38f74" x="55.296" y="155.948336" style="fill: #9b8bb8; stroke: #9b8bb8; stroke-width: 0.8"/>
      </g>
     </g>
     <g id="text_9">
      <!-- 210 -->
      <g style="fill: #9b8bb8" transform="translate(30.235062 159.761617) scale(0.1 -0.1)">
       <use xlink:href="#Menlo-Regular-32"/>
       <use xlink:href="#Menlo-Regular-31" transform="translate(60.205078 0)"/>
       <use xlink:href="#Menlo-Regular-30" transform="translate(120.410156 0)"/>
      </g>
     </g>
    </g>
    <g id="ytick_5">
     <g id="line2d_19">
      <path d="M 55.296 100.04417 
L 546.048 100.04417 
" clip-path="url(#pd8e24c17c0)" style="fill: none; stroke-dasharray: 2.22,0.96; stroke-dashoffset: 0; stroke: #e2d5f5; stroke-opacity: 0.7; stroke-width: 0.6"/>
     </g>
     <g id="line2d_20">
      <g>
       <use xlink:href="#m936fb38f74" x="55.296" y="100.04417" style="fill: #9b8bb8; stroke: #9b8bb8; stroke-width: 0.8"/>
      </g>
     </g>
     <g id="text_10">
      <!-- 215 -->
      <g style="fill: #9b8bb8" transform="translate(30.235062 103.857451) scale(0.1 -0.1)">
       <use xlink:href="#Menlo-Regular-32"/>
       <use xlink:href="#Menlo-Regular-31" transform="translate(60.205078 0)"/>
       <use xlink:href="#Menlo-Regular-35" transform="translate(120.410156 0)"/>
      </g>
     </g>
    </g>
    <g id="text_11">
     <!-- Rating -->
     <g style="fill: #9b8bb8" transform="translate(24.086625 208.140937) rotate(-90) scale(0.1 -0.1)">
      <defs>
       <path id="Menlo-Regular-52" d="M 2375 2203 
Q 2619 2141 2791 1967 
Q 2963 1794 3219 1275 
L 3853 0 
L 3175 0 
L 2619 1178 
Q 2378 1681 2186 1826 
Q 1994 1972 1684 1972 
L 1081 1972 
L 1081 0 
L 447 0 
L 447 4666 
L 1747 4666 
Q 2516 4666 2925 4319 
Q 3334 3972 3334 3316 
Q 3334 2853 3082 2561 
Q 2831 2269 2375 2203 
z
M 1081 4147 
L 1081 2491 
L 1772 2491 
Q 2225 2491 2447 2694 
Q 2669 2897 2669 3316 
Q 2669 3719 2433 3933 
Q 2197 4147 1747 4147 
L 1081 4147 
z
" transform="scale(0.015625)"/>
       <path id="Menlo-Regular-61" d="M 2194 1759 
L 2003 1759 
Q 1500 1759 1245 1582 
Q 991 1406 991 1056 
Q 991 741 1181 566 
Q 1372 391 1709 391 
Q 2184 391 2456 720 
Q 2728 1050 2731 1631 
L 2731 1759 
L 2194 1759 
z
M 3309 1997 
L 3309 0 
L 2731 0 
L 2731 519 
Q 2547 206 2267 57 
Q 1988 -91 1588 -91 
Q 1053 -91 734 211 
Q 416 513 416 1019 
Q 416 1603 808 1906 
Q 1200 2209 1959 2209 
L 2731 2209 
L 2731 2300 
Q 2728 2719 2518 2908 
Q 2309 3097 1850 3097 
Q 1556 3097 1256 3012 
Q 956 2928 672 2766 
L 672 3341 
Q 991 3463 1283 3523 
Q 1575 3584 1850 3584 
Q 2284 3584 2592 3456 
Q 2900 3328 3091 3072 
Q 3209 2916 3259 2686 
Q 3309 2456 3309 1997 
z
" transform="scale(0.015625)"/>
       <path id="Menlo-Regular-74" d="M 1919 4494 
L 1919 3500 
L 3225 3500 
L 3225 3053 
L 1919 3053 
L 1919 1153 
Q 1919 766 2066 612 
Q 2213 459 2578 459 
L 3225 459 
L 3225 0 
L 2522 0 
Q 1875 0 1609 259 
Q 1344 519 1344 1153 
L 1344 3053 
L 409 3053 
L 409 3500 
L 1344 3500 
L 1344 4494 
L 1919 4494 
z
" transform="scale(0.015625)"/>
       <path id="Menlo-Regular-69" d="M 988 3488 
L 2459 3488 
L 2459 447 
L 3600 447 
L 3600 0 
L 744 0 
L 744 447 
L 1884 447 
L 1884 3041 
L 988 3041 
L 988 3488 
z
M 1884 4847 
L 2459 4847 
L 2459 4122 
L 1884 4122 
L 1884 4847 
z
" transform="scale(0.015625)"/>
       <path id="Menlo-Regular-6e" d="M 3284 2169 
L 3284 0 
L 2706 0 
L 2706 2169 
Q 2706 2641 2540 2862 
Q 2375 3084 2022 3084 
Q 1619 3084 1401 2798 
Q 1184 2513 1184 1978 
L 1184 0 
L 609 0 
L 609 3500 
L 1184 3500 
L 1184 2975 
Q 1338 3275 1600 3429 
Q 1863 3584 2222 3584 
Q 2756 3584 3020 3232 
Q 3284 2881 3284 2169 
z
" transform="scale(0.015625)"/>
       <path id="Menlo-Regular-67" d="M 2681 1778 
Q 2681 2425 2470 2761 
Q 2259 3097 1856 3097 
Q 1434 3097 1212 2761 
Q 991 2425 991 1778 
Q 991 1131 1214 792 
Q 1438 453 1863 453 
Q 2259 453 2470 793 
Q 2681 1134 2681 1778 
z
M 3256 225 
Q 3256 -563 2884 -969 
Q 2513 -1375 1791 -1375 
Q 1553 -1375 1293 -1331 
Q 1034 -1288 775 -1203 
L 775 -634 
Q 1081 -778 1331 -847 
Q 1581 -916 1791 -916 
Q 2256 -916 2468 -662 
Q 2681 -409 2681 141 
L 2681 166 
L 2681 556 
Q 2544 263 2306 119 
Q 2069 -25 1728 -25 
Q 1116 -25 750 465 
Q 384 956 384 1778 
Q 384 2603 750 3093 
Q 1116 3584 1728 3584 
Q 2066 3584 2300 3450 
Q 2534 3316 2681 3034 
L 2681 3488 
L 3256 3488 
L 3256 225 
z
" transform="scale(0.015625)"/>
      </defs>
      <use xlink:href="#Menlo-Regular-52"/>
      <use xlink:href="#Menlo-Regular-61" transform="translate(60.205078 0)"/>
      <use xlink:href="#Menlo-Regular-74" transform="translate(120.410156 0)"/>
      <use xlink:href="#Menlo-Regular-69" transform="translate(180.615234 0)"/>
      <use xlink:href="#Menlo-Regular-6e" transform="translate(240.820312 0)"/>
      <use xlink:href="#Menlo-Regular-67" transform="translate(301.025391 0)"/>
     </g>
    </g>
   </g>
   <g id="patch_3">
    <path d="M 55.296 324.72 
L 55.296 55.44 
" style="fill: none; stroke: #d8c8ef; stroke-width: 0.8; stroke-linejoin: miter; stroke-linecap: square"/>
   </g>
   <g id="patch_4">
    <path d="M 55.296 324.72 
L 546.048 324.72 
" style="fill: none; stroke: #d8c8ef; stroke-width: 0.8; stroke-linejoin: miter; stroke-linecap: square"/>
   </g>
   <g id="FillBetweenPolyCollection_1">
    <defs>
     <path id="m56cb0ac900" d="M 104.3712 -83.52 
L 104.3712 -139.424166 
L 105.684249 -140.535793 
L 106.997298 -141.602506 
L 108.310346 -142.624914 
L 109.623395 -143.603626 
L 110.936444 -144.53925 
L 112.249493 -145.432396 
L 113.562542 -146.283673 
L 114.875591 -147.09369 
L 116.188639 -147.863056 
L 117.501688 -148.592379 
L 118.814737 -149.282269 
L 120.127786 -149.933335 
L 121.440835 -150.546186 
L 122.753884 -151.121431 
L 124.066932 -151.659679 
L 125.379981 -152.161538 
L 126.69303 -152.627619 
L 128.006079 -153.058529 
L 129.319128 -153.454878 
L 130.632177 -153.817275 
L 131.945225 -154.146329 
L 133.258274 -154.442649 
L 134.571323 -154.706843 
L 135.884372 -154.939522 
L 137.197421 -155.141293 
L 138.51047 -155.312767 
L 139.823518 -155.454551 
L 141.136567 -155.567255 
L 142.449616 -155.651488 
L 143.762665 -155.70786 
L 145.075714 -155.736978 
L 146.388763 -155.739452 
L 147.701811 -155.715891 
L 149.01486 -155.666904 
L 150.327909 -155.5931 
L 151.640958 -155.495088 
L 152.954007 -155.373477 
L 154.267056 -155.228876 
L 155.580104 -155.061894 
L 156.893153 -154.87314 
L 158.206202 -154.663223 
L 159.519251 -154.432752 
L 160.8323 -154.182336 
L 162.145348 -153.912584 
L 163.458397 -153.624106 
L 164.771446 -153.317509 
L 166.084495 -152.993403 
L 167.397544 -152.652398 
L 168.710593 -152.295101 
L 170.023641 -151.922123 
L 171.33669 -151.534071 
L 172.649739 -151.131556 
L 173.962788 -150.715186 
L 175.275837 -150.28557 
L 176.588886 -149.843317 
L 177.901934 -149.389036 
L 179.214983 -148.923336 
L 180.528032 -148.446827 
L 181.841081 -147.960116 
L 183.15413 -147.463814 
L 184.467179 -146.958529 
L 185.780227 -146.44487 
L 187.093276 -145.923446 
L 188.406325 -145.394866 
L 189.719374 -144.85974 
L 191.032423 -144.318676 
L 192.345472 -143.772282 
L 193.65852 -143.22117 
L 194.971569 -142.665946 
L 196.284618 -142.10722 
L 197.597667 -141.545602 
L 198.910716 -140.9817 
L 200.223765 -140.416123 
L 201.536813 -139.849481 
L 202.849862 -139.282382 
L 204.162911 -138.715434 
L 205.47596 -138.149249 
L 206.789009 -137.584433 
L 208.102058 -137.021597 
L 209.415106 -136.461349 
L 210.728155 -135.904298 
L 212.041204 -135.351054 
L 213.354253 -134.802225 
L 214.667302 -134.25842 
L 215.980351 -133.720248 
L 217.293399 -133.188319 
L 218.606448 -132.663241 
L 219.919497 -132.145624 
L 221.232546 -131.636076 
L 222.545595 -131.135206 
L 223.858643 -130.643623 
L 225.171692 -130.161937 
L 226.484741 -129.690756 
L 227.79779 -129.23069 
L 229.110839 -128.782347 
L 230.423888 -128.346336 
L 231.736936 -127.923267 
L 233.049985 -127.513748 
L 234.363034 -127.118389 
L 235.676083 -126.737798 
L 236.989132 -126.372584 
L 238.302181 -126.023357 
L 239.615229 -125.690725 
L 240.928278 -125.375298 
L 242.241327 -125.077684 
L 243.554376 -124.798492 
L 244.867425 -124.538332 
L 246.180474 -124.297813 
L 247.493522 -124.077543 
L 248.806571 -123.878131 
L 250.11962 -123.700187 
L 251.432669 -123.54432 
L 252.745718 -123.411137 
L 254.058767 -123.30125 
L 255.371815 -123.215266 
L 256.684864 -123.153794 
L 257.997913 -123.117444 
L 259.310962 -123.106824 
L 260.624011 -123.122544 
L 261.93706 -123.165213 
L 263.250108 -123.235439 
L 264.563157 -123.333832 
L 265.876206 -123.461 
L 267.189255 -123.617553 
L 268.502304 -123.804099 
L 269.815353 -124.021248 
L 271.128401 -124.269608 
L 272.44145 -124.549789 
L 273.754499 -124.8624 
L 275.067548 -125.208049 
L 276.380597 -125.587346 
L 277.693645 -126.0009 
L 279.006694 -126.449319 
L 280.319743 -126.933213 
L 281.632792 -127.45319 
L 282.945841 -128.00986 
L 284.25889 -128.603832 
L 285.571938 -129.235714 
L 286.884987 -129.906116 
L 288.198036 -130.615647 
L 289.511085 -131.364915 
L 290.824134 -132.154531 
L 292.137183 -132.985101 
L 293.450231 -133.857237 
L 294.76328 -134.771546 
L 296.076329 -135.728638 
L 297.389378 -136.729121 
L 298.702427 -137.773606 
L 300.015476 -138.8627 
L 301.328524 -139.99698 
L 302.641573 -141.176272 
L 303.954622 -142.399652 
L 305.267671 -143.666163 
L 306.58072 -144.974847 
L 307.893769 -146.324749 
L 309.206817 -147.714909 
L 310.519866 -149.144373 
L 311.832915 -150.612182 
L 313.145964 -152.11738 
L 314.459013 -153.659009 
L 315.772062 -155.236113 
L 317.08511 -156.847735 
L 318.398159 -158.492917 
L 319.711208 -160.170703 
L 321.024257 -161.880136 
L 322.337306 -163.620258 
L 323.650355 -165.390113 
L 324.963403 -167.188743 
L 326.276452 -169.015192 
L 327.589501 -170.868502 
L 328.90255 -172.747717 
L 330.215599 -174.651879 
L 331.528647 -176.580032 
L 332.841696 -178.531218 
L 334.154745 -180.504481 
L 335.467794 -182.498863 
L 336.780843 -184.513408 
L 338.093892 -186.547158 
L 339.40694 -188.599157 
L 340.719989 -190.668447 
L 342.033038 -192.754072 
L 343.346087 -194.855074 
L 344.659136 -196.970496 
L 345.972185 -199.099382 
L 347.285233 -201.240774 
L 348.598282 -203.393716 
L 349.911331 -205.55725 
L 351.22438 -207.730419 
L 352.537429 -209.912266 
L 353.850478 -212.101835 
L 355.163526 -214.298169 
L 356.476575 -216.500309 
L 357.789624 -218.7073 
L 359.102673 -220.918184 
L 360.415722 -223.132005 
L 361.728771 -225.347804 
L 363.041819 -227.564626 
L 364.354868 -229.781514 
L 365.667917 -231.997509 
L 366.980966 -234.211656 
L 368.294015 -236.422997 
L 369.607064 -238.630575 
L 370.920112 -240.833433 
L 372.233161 -243.030615 
L 373.54621 -245.221162 
L 374.859259 -247.404119 
L 376.172308 -249.578528 
L 377.485357 -251.743432 
L 378.798405 -253.897875 
L 380.111454 -256.040898 
L 381.424503 -258.171546 
L 382.737552 -260.28886 
L 384.050601 -262.391885 
L 385.363649 -264.479663 
L 386.676698 -266.551237 
L 387.989747 -268.60565 
L 389.302796 -270.641945 
L 390.615845 -272.659165 
L 391.928894 -274.656353 
L 393.241942 -276.632552 
L 394.554991 -278.586805 
L 395.86804 -280.518155 
L 397.181089 -282.425646 
L 398.494138 -284.308319 
L 399.807187 -286.165218 
L 401.120235 -287.995386 
L 402.433284 -289.797866 
L 403.746333 -291.571701 
L 405.059382 -293.315934 
L 406.372431 -295.029607 
L 407.68548 -296.711765 
L 408.998528 -298.36145 
L 410.311577 -299.977704 
L 411.624626 -301.559572 
L 412.937675 -303.106095 
L 414.250724 -304.616317 
L 415.563773 -306.089281 
L 416.876821 -307.52403 
L 418.18987 -308.919606 
L 419.502919 -310.275054 
L 420.815968 -311.589415 
L 422.129017 -312.861733 
L 423.442066 -314.091051 
L 424.755114 -315.276411 
L 426.068163 -316.416858 
L 427.381212 -317.511433 
L 428.694261 -318.55918 
L 430.00731 -319.559141 
L 431.320359 -320.510361 
L 432.633407 -321.411881 
L 433.946456 -322.262745 
L 435.259505 -323.061995 
L 436.572554 -323.808675 
L 437.885603 -324.501828 
L 439.198652 -325.140496 
L 440.5117 -325.723723 
L 441.824749 -326.250552 
L 443.137798 -326.720026 
L 444.450847 -327.131187 
L 445.763896 -327.483078 
L 447.076944 -327.774743 
L 448.389993 -328.005225 
L 449.703042 -328.173567 
L 451.016091 -328.27881 
L 452.32914 -328.32 
L 453.642189 -328.296178 
L 454.955237 -328.206388 
L 456.268286 -328.049672 
L 457.581335 -327.825073 
L 458.894384 -327.531636 
L 460.207433 -327.168401 
L 461.520482 -326.734413 
L 462.83353 -326.228715 
L 464.146579 -325.650349 
L 465.459628 -324.998359 
L 466.772677 -324.271787 
L 468.085726 -323.469676 
L 469.398775 -322.59107 
L 470.711823 -321.635011 
L 472.024872 -320.600543 
L 473.337921 -319.486708 
L 474.65097 -318.292549 
L 475.964019 -317.01711 
L 477.277068 -315.659433 
L 478.590116 -314.218562 
L 479.903165 -312.693538 
L 481.216214 -311.083407 
L 482.529263 -309.387209 
L 483.842312 -307.603989 
L 485.155361 -305.732789 
L 486.468409 -303.772653 
L 487.781458 -301.722622 
L 489.094507 -299.581741 
L 490.407556 -297.349052 
L 491.720605 -295.023599 
L 493.033654 -292.604424 
L 494.346702 -290.09057 
L 495.659751 -287.48108 
L 496.9728 -284.774997 
L 496.9728 -83.52 
L 496.9728 -83.52 
L 495.659751 -83.52 
L 494.346702 -83.52 
L 493.033654 -83.52 
L 491.720605 -83.52 
L 490.407556 -83.52 
L 489.094507 -83.52 
L 487.781458 -83.52 
L 486.468409 -83.52 
L 485.155361 -83.52 
L 483.842312 -83.52 
L 482.529263 -83.52 
L 481.216214 -83.52 
L 479.903165 -83.52 
L 478.590116 -83.52 
L 477.277068 -83.52 
L 475.964019 -83.52 
L 474.65097 -83.52 
L 473.337921 -83.52 
L 472.024872 -83.52 
L 470.711823 -83.52 
L 469.398775 -83.52 
L 468.085726 -83.52 
L 466.772677 -83.52 
L 465.459628 -83.52 
L 464.146579 -83.52 
L 462.83353 -83.52 
L 461.520482 -83.52 
L 460.207433 -83.52 
L 458.894384 -83.52 
L 457.581335 -83.52 
L 456.268286 -83.52 
L 454.955237 -83.52 
L 453.642189 -83.52 
L 452.32914 -83.52 
L 451.016091 -83.52 
L 449.703042 -83.52 
L 448.389993 -83.52 
L 447.076944 -83.52 
L 445.763896 -83.52 
L 444.450847 -83.52 
L 443.137798 -83.52 
L 441.824749 -83.52 
L 440.5117 -83.52 
L 439.198652 -83.52 
L 437.885603 -83.52 
L 436.572554 -83.52 
L 435.259505 -83.52 
L 433.946456 -83.52 
L 432.633407 -83.52 
L 431.320359 -83.52 
L 430.00731 -83.52 
L 428.694261 -83.52 
L 427.381212 -83.52 
L 426.068163 -83.52 
L 424.755114 -83.52 
L 423.442066 -83.52 
L 422.129017 -83.52 
L 420.815968 -83.52 
L 419.502919 -83.52 
L 418.18987 -83.52 
L 416.876821 -83.52 
L 415.563773 -83.52 
L 414.250724 -83.52 
L 412.937675 -83.52 
L 411.624626 -83.52 
L 410.311577 -83.52 
L 408.998528 -83.52 
L 407.68548 -83.52 
L 406.372431 -83.52 
L 405.059382 -83.52 
L 403.746333 -83.52 
L 402.433284 -83.52 
L 401.120235 -83.52 
L 399.807187 -83.52 
L 398.494138 -83.52 
L 397.181089 -83.52 
L 395.86804 -83.52 
L 394.554991 -83.52 
L 393.241942 -83.52 
L 391.928894 -83.52 
L 390.615845 -83.52 
L 389.302796 -83.52 
L 387.989747 -83.52 
L 386.676698 -83.52 
L 385.363649 -83.52 
L 384.050601 -83.52 
L 382.737552 -83.52 
L 381.424503 -83.52 
L 380.111454 -83.52 
L 378.798405 -83.52 
L 377.485357 -83.52 
L 376.172308 -83.52 
L 374.859259 -83.52 
L 373.54621 -83.52 
L 372.233161 -83.52 
L 370.920112 -83.52 
L 369.607064 -83.52 
L 368.294015 -83.52 
L 366.980966 -83.52 
L 365.667917 -83.52 
L 364.354868 -83.52 
L 363.041819 -83.52 
L 361.728771 -83.52 
L 360.415722 -83.52 
L 359.102673 -83.52 
L 357.789624 -83.52 
L 356.476575 -83.52 
L 355.163526 -83.52 
L 353.850478 -83.52 
L 352.537429 -83.52 
L 351.22438 -83.52 
L 349.911331 -83.52 
L 348.598282 -83.52 
L 347.285233 -83.52 
L 345.972185 -83.52 
L 344.659136 -83.52 
L 343.346087 -83.52 
L 342.033038 -83.52 
L 340.719989 -83.52 
L 339.40694 -83.52 
L 338.093892 -83.52 
L 336.780843 -83.52 
L 335.467794 -83.52 
L 334.154745 -83.52 
L 332.841696 -83.52 
L 331.528647 -83.52 
L 330.215599 -83.52 
L 328.90255 -83.52 
L 327.589501 -83.52 
L 326.276452 -83.52 
L 324.963403 -83.52 
L 323.650355 -83.52 
L 322.337306 -83.52 
L 321.024257 -83.52 
L 319.711208 -83.52 
L 318.398159 -83.52 
L 317.08511 -83.52 
L 315.772062 -83.52 
L 314.459013 -83.52 
L 313.145964 -83.52 
L 311.832915 -83.52 
L 310.519866 -83.52 
L 309.206817 -83.52 
L 307.893769 -83.52 
L 306.58072 -83.52 
L 305.267671 -83.52 
L 303.954622 -83.52 
L 302.641573 -83.52 
L 301.328524 -83.52 
L 300.015476 -83.52 
L 298.702427 -83.52 
L 297.389378 -83.52 
L 296.076329 -83.52 
L 294.76328 -83.52 
L 293.450231 -83.52 
L 292.137183 -83.52 
L 290.824134 -83.52 
L 289.511085 -83.52 
L 288.198036 -83.52 
L 286.884987 -83.52 
L 285.571938 -83.52 
L 284.25889 -83.52 
L 282.945841 -83.52 
L 281.632792 -83.52 
L 280.319743 -83.52 
L 279.006694 -83.52 
L 277.693645 -83.52 
L 276.380597 -83.52 
L 275.067548 -83.52 
L 273.754499 -83.52 
L 272.44145 -83.52 
L 271.128401 -83.52 
L 269.815353 -83.52 
L 268.502304 -83.52 
L 267.189255 -83.52 
L 265.876206 -83.52 
L 264.563157 -83.52 
L 263.250108 -83.52 
L 261.93706 -83.52 
L 260.624011 -83.52 
L 259.310962 -83.52 
L 257.997913 -83.52 
L 256.684864 -83.52 
L 255.371815 -83.52 
L 254.058767 -83.52 
L 252.745718 -83.52 
L 251.432669 -83.52 
L 250.11962 -83.52 
L 248.806571 -83.52 
L 247.493522 -83.52 
L 246.180474 -83.52 
L 244.867425 -83.52 
L 243.554376 -83.52 
L 242.241327 -83.52 
L 240.928278 -83.52 
L 239.615229 -83.52 
L 238.302181 -83.52 
L 236.989132 -83.52 
L 235.676083 -83.52 
L 234.363034 -83.52 
L 233.049985 -83.52 
L 231.736936 -83.52 
L 230.423888 -83.52 
L 229.110839 -83.52 
L 227.79779 -83.52 
L 226.484741 -83.52 
L 225.171692 -83.52 
L 223.858643 -83.52 
L 222.545595 -83.52 
L 221.232546 -83.52 
L 219.919497 -83.52 
L 218.606448 -83.52 
L 217.293399 -83.52 
L 215.980351 -83.52 
L 214.667302 -83.52 
L 213.354253 -83.52 
L 212.041204 -83.52 
L 210.728155 -83.52 
L 209.415106 -83.52 
L 208.102058 -83.52 
L 206.789009 -83.52 
L 205.47596 -83.52 
L 204.162911 -83.52 
L 202.849862 -83.52 
L 201.536813 -83.52 
L 200.223765 -83.52 
L 198.910716 -83.52 
L 197.597667 -83.52 
L 196.284618 -83.52 
L 194.971569 -83.52 
L 193.65852 -83.52 
L 192.345472 -83.52 
L 191.032423 -83.52 
L 189.719374 -83.52 
L 188.406325 -83.52 
L 187.093276 -83.52 
L 185.780227 -83.52 
L 184.467179 -83.52 
L 183.15413 -83.52 
L 181.841081 -83.52 
L 180.528032 -83.52 
L 179.214983 -83.52 
L 177.901934 -83.52 
L 176.588886 -83.52 
L 175.275837 -83.52 
L 173.962788 -83.52 
L 172.649739 -83.52 
L 171.33669 -83.52 
L 170.023641 -83.52 
L 168.710593 -83.52 
L 167.397544 -83.52 
L 166.084495 -83.52 
L 164.771446 -83.52 
L 163.458397 -83.52 
L 162.145348 -83.52 
L 160.8323 -83.52 
L 159.519251 -83.52 
L 158.206202 -83.52 
L 156.893153 -83.52 
L 155.580104 -83.52 
L 154.267056 -83.52 
L 152.954007 -83.52 
L 151.640958 -83.52 
L 150.327909 -83.52 
L 149.01486 -83.52 
L 147.701811 -83.52 
L 146.388763 -83.52 
L 145.075714 -83.52 
L 143.762665 -83.52 
L 142.449616 -83.52 
L 141.136567 -83.52 
L 139.823518 -83.52 
L 138.51047 -83.52 
L 137.197421 -83.52 
L 135.884372 -83.52 
L 134.571323 -83.52 
L 133.258274 -83.52 
L 131.945225 -83.52 
L 130.632177 -83.52 
L 129.319128 -83.52 
L 128.006079 -83.52 
L 126.69303 -83.52 
L 125.379981 -83.52 
L 124.066932 -83.52 
L 122.753884 -83.52 
L 121.440835 -83.52 
L 120.127786 -83.52 
L 118.814737 -83.52 
L 117.501688 -83.52 
L 116.188639 -83.52 
L 114.875591 -83.52 
L 113.562542 -83.52 
L 112.249493 -83.52 
L 110.936444 -83.52 
L 109.623395 -83.52 
L 108.310346 -83.52 
L 106.997298 -83.52 
L 105.684249 -83.52 
L 104.3712 -83.52 
z
" style="stroke: #8b5cf6; stroke-opacity: 0.12"/>
    </defs>
    <g clip-path="url(#pd8e24c17c0)">
     <use xlink:href="#m56cb0ac900" x="0" y="396" style="fill: #8b5cf6; fill-opacity: 0.12; stroke: #8b5cf6; stroke-opacity: 0.12"/>
    </g>
   </g>
   <g id="text_12">
    <!-- 214 -->
    <g style="fill: #8b5cf6" transform="translate(499.9728 108.225003) scale(0.12 -0.12)">
     <use xlink:href="#Menlo-Regular-32"/>
     <use xlink:href="#Menlo-Regular-31" transform="translate(60.205078 0)"/>
     <use xlink:href="#Menlo-Regular-34" transform="translate(120.410156 0)"/>
    </g>
   </g>
   <g id="text_13">
    <!-- Rating History -->
    <g style="fill: #8b5cf6" transform="translate(55.296 50.44) scale(0.17 -0.17)">
     <defs>
      <path id="Menlo-Regular-20" transform="scale(0.015625)"/>
      <path id="Menlo-Regular-48" d="M 428 4666 
L 1063 4666 
L 1063 2878 
L 2791 2878 
L 2791 4666 
L 3425 4666 
L 3425 0 
L 2791 0 
L 2791 2347 
L 1063 2347 
L 1063 0 
L 428 0 
L 428 4666 
z
" transform="scale(0.015625)"/>
      <path id="Menlo-Regular-73" d="M 3041 3378 
L 3041 2816 
Q 2794 2959 2544 3031 
Q 2294 3103 2034 3103 
Q 1644 3103 1451 2976 
Q 1259 2850 1259 2591 
Q 1259 2356 1403 2240 
Q 1547 2125 2119 2016 
L 2350 1972 
Q 2778 1891 2998 1647 
Q 3219 1403 3219 1013 
Q 3219 494 2850 201 
Q 2481 -91 1825 -91 
Q 1566 -91 1281 -36 
Q 997 19 666 128 
L 666 722 
Q 988 556 1281 473 
Q 1575 391 1838 391 
Q 2219 391 2428 545 
Q 2638 700 2638 978 
Q 2638 1378 1872 1531 
L 1847 1538 
L 1631 1581 
Q 1134 1678 906 1908 
Q 678 2138 678 2534 
Q 678 3038 1018 3311 
Q 1359 3584 1991 3584 
Q 2272 3584 2531 3532 
Q 2791 3481 3041 3378 
z
" transform="scale(0.015625)"/>
      <path id="Menlo-Regular-6f" d="M 1925 3097 
Q 1488 3097 1263 2756 
Q 1038 2416 1038 1747 
Q 1038 1081 1263 739 
Q 1488 397 1925 397 
Q 2366 397 2591 739 
Q 2816 1081 2816 1747 
Q 2816 2416 2591 2756 
Q 2366 3097 1925 3097 
z
M 1925 3584 
Q 2653 3584 3039 3112 
Q 3425 2641 3425 1747 
Q 3425 850 3040 379 
Q 2656 -91 1925 -91 
Q 1197 -91 812 379 
Q 428 850 428 1747 
Q 428 2641 812 3112 
Q 1197 3584 1925 3584 
z
" transform="scale(0.015625)"/>
      <path id="Menlo-Regular-72" d="M 3609 2778 
Q 3425 2922 3234 2987 
Q 3044 3053 2816 3053 
Q 2278 3053 1993 2715 
Q 1709 2378 1709 1741 
L 1709 0 
L 1131 0 
L 1131 3500 
L 1709 3500 
L 1709 2816 
Q 1853 3188 2151 3386 
Q 2450 3584 2859 3584 
Q 3072 3584 3256 3531 
Q 3441 3478 3609 3366 
L 3609 2778 
z
" transform="scale(0.015625)"/>
      <path id="Menlo-Regular-79" d="M 2681 1125 
Q 2538 759 2316 163 
Q 2006 -663 1900 -844 
Q 1756 -1088 1540 -1209 
Q 1325 -1331 1038 -1331 
L 575 -1331 
L 575 -850 
L 916 -850 
Q 1169 -850 1312 -703 
Q 1456 -556 1678 56 
L 325 3500 
L 934 3500 
L 1972 763 
L 2994 3500 
L 3603 3500 
L 2681 1125 
z
" transform="scale(0.015625)"/>
     </defs>
     <use xlink:href="#Menlo-Regular-52"/>
     <use xlink:href="#Menlo-Regular-61" transform="translate(60.205078 0)"/>
     <use xlink:href="#Menlo-Regular-74" transform="translate(120.410156 0)"/>
     <use xlink:href="#Menlo-Regular-69" transform="translate(180.615234 0)"/>
     <use xlink:href="#Menlo-Regular-6e" transform="translate(240.820312 0)"/>
     <use xlink:href="#Menlo-Regular-67" transform="translate(301.025391 0)"/>
     <use xlink:href="#Menlo-Regular-20" transform="translate(361.230469 0)"/>
     <use xlink:href="#Menlo-Regular-48" transform="translate(421.435547 0)"/>
     <use xlink:href="#Menlo-Regular-69" transform="translate(481.640625 0)"/>
     <use xlink:href="#Menlo-Regular-73" transform="translate(541.845703 0)"/>
     <use xlink:href="#Menlo-Regular-74" transform="translate(602.050781 0)"/>
     <use xlink:href="#Menlo-Regular-6f" transform="translate(662.255859 0)"/>
     <use xlink:href="#Menlo-Regular-72" transform="translate(722.460938 0)"/>
     <use xlink:href="#Menlo-Regular-79" transform="translate(782.666016 0)"/>
    </g>
   </g>
   <g id="line2d_21">
    <path d="M 104.3712 256.575834 
L 108.310346 253.375086 
L 112.249493 250.567604 
L 116.188639 248.136944 
L 120.127786 246.066665 
L 124.066932 244.340321 
L 128.006079 242.941471 
L 131.945225 241.853671 
L 135.884372 241.060478 
L 139.823518 240.545449 
L 143.762665 240.29214 
L 147.701811 240.284109 
L 151.640958 240.504912 
L 155.580104 240.938106 
L 159.519251 241.567248 
L 163.458397 242.375894 
L 168.710593 243.704899 
L 173.962788 245.284814 
L 179.214983 247.076664 
L 185.780227 249.55513 
L 193.65852 252.77883 
L 221.232546 264.363924 
L 227.79779 266.76931 
L 233.049985 268.486252 
L 238.302181 269.976643 
L 243.554376 271.201508 
L 247.493522 271.922457 
L 251.432669 272.45568 
L 255.371815 272.784734 
L 259.310962 272.893176 
L 263.250108 272.764561 
L 267.189255 272.382447 
L 271.128401 271.730392 
L 275.067548 270.791951 
L 279.006694 269.550681 
L 282.945841 267.99014 
L 286.884987 266.093884 
L 290.824134 263.845469 
L 294.76328 261.228454 
L 298.702427 258.226394 
L 302.641573 254.823728 
L 306.58072 251.025153 
L 310.519866 246.855627 
L 314.459013 242.340991 
L 318.398159 237.507083 
L 322.337306 232.379742 
L 327.589501 225.131498 
L 332.841696 217.468782 
L 338.093892 209.452842 
L 344.659136 199.029504 
L 352.537429 186.087734 
L 366.980966 161.788344 
L 378.798405 142.102125 
L 386.676698 129.448763 
L 393.241942 119.367448 
L 398.494138 111.691681 
L 403.746333 104.428299 
L 407.68548 99.288235 
L 411.624626 94.440428 
L 415.563773 89.910719 
L 419.502919 85.724946 
L 423.442066 81.908949 
L 427.381212 78.488567 
L 430.00731 76.440859 
L 432.633407 74.588119 
L 435.259505 72.938005 
L 437.885603 71.498172 
L 440.5117 70.276277 
L 443.137798 69.279974 
L 445.763896 68.516922 
L 448.389993 67.994775 
L 451.016091 67.72119 
L 453.642189 67.703822 
L 456.268286 67.950328 
L 458.894384 68.468364 
L 461.520482 69.265587 
L 464.146579 70.349651 
L 466.772677 71.728213 
L 469.398775 73.40893 
L 472.024872 75.399457 
L 474.65097 77.707451 
L 477.277068 80.340567 
L 479.903165 83.306462 
L 482.529263 86.612791 
L 485.155361 90.267211 
L 487.781458 94.277378 
L 490.407556 98.650948 
L 493.033654 103.395576 
L 495.659751 108.51892 
L 496.9728 111.225003 
L 496.9728 111.225003 
" clip-path="url(#pd8e24c17c0)" style="fill: none; stroke: #8b5cf6; stroke-width: 1.2; stroke-linecap: round"/>
   </g>
   <g id="PathCollection_1">
    <defs>
     <path id="m1806ec2bcc" d="M 0 2.236068 
C 0.593012 2.236068 1.161816 2.000462 1.581139 1.581139 
C 2.000462 1.161816 2.236068 0.593012 2.236068 0 
C 2.236068 -0.593012 2.000462 -1.161816 1.581139 -1.581139 
C 1.161816 -2.000462 0.593012 -2.236068 0 -2.236068 
C -0.593012 -2.236068 -1.161816 -2.000462 -1.581139 -1.581139 
C -2.000462 -1.161816 -2.236068 -0.593012 -2.236068 0 
C -2.236068 0.593012 -2.000462 1.161816 -1.581139 1.581139 
C -1.161816 2.000462 -0.593012 2.236068 0 2.236068 
z
" style="stroke: #ffffff; stroke-width: 0.8"/>
    </defs>
    <g clip-path="url(#pd8e24c17c0)">
     <use xlink:href="#m1806ec2bcc" x="496.9728" y="111.225003" style="fill: #8b5cf6; stroke: #ffffff; stroke-width: 0.8"/>
    </g>
   </g>
  </g>
  <g id="axes_2">
   <g id="text_14">
    <!-- Rating -->
    <g style="fill: #9b8bb8" transform="translate(565.7472 48.312) scale(0.11 -0.11)">
     <use xlink:href="#Menlo-Regular-52"/>
     <use xlink:href="#Menlo-Regular-61" transform="translate(60.205078 0)"/>
     <use xlink:href="#Menlo-Regular-74" transform="translate(120.410156 0)"/>
     <use xlink:href="#Menlo-Regular-69" transform="translate(180.615234 0)"/>
     <use xlink:href="#Menlo-Regular-6e" transform="translate(240.820312 0)"/>
     <use xlink:href="#Menlo-Regular-67" transform="translate(301.025391 0)"/>
    </g>
   </g>
   <g id="text_15">
    <!-- 214 -->
    <g style="fill: #8b5cf6" transform="translate(565.7472 82.397063) scale(0.26 -0.26)">
     <use xlink:href="#Menlo-Regular-32"/>
     <use xlink:href="#Menlo-Regular-31" transform="translate(60.205078 0)"/>
     <use xlink:href="#Menlo-Regular-34" transform="translate(120.410156 0)"/>
    </g>
   </g>
   <g id="text_16">
    <!-- Rank -->
    <g style="fill: #9b8bb8" transform="translate(565.7472 119.592) scale(0.11 -0.11)">
     <defs>
      <path id="Menlo-Regular-6b" d="M 738 4863 
L 1331 4863 
L 1331 2047 
L 2841 3500 
L 3541 3500 
L 2163 2181 
L 3756 0 
L 3053 0 
L 1759 1806 
L 1331 1403 
L 1331 0 
L 738 0 
L 738 4863 
z
" transform="scale(0.015625)"/>
     </defs>
     <use xlink:href="#Menlo-Regular-52"/>
     <use xlink:href="#Menlo-Regular-61" transform="translate(60.205078 0)"/>
     <use xlink:href="#Menlo-Regular-6e" transform="translate(120.410156 0)"/>
     <use xlink:href="#Menlo-Regular-6b" transform="translate(180.615234 0)"/>
    </g>
   </g>
   <g id="text_17">
    <!-- #128,292 -->
    <g style="fill: #8b5cf6" transform="translate(565.7472 148.104) scale(0.14 -0.14)">
     <defs>
      <path id="Menlo-Regular-23" d="M 2138 4578 
L 1856 3472 
L 2622 3472 
L 2906 4578 
L 3406 4578 
L 3122 3472 
L 3884 3472 
L 3884 2994 
L 3006 2994 
L 2700 1766 
L 3481 1766 
L 3481 1288 
L 2578 1288 
L 2253 0 
L 1753 0 
L 2081 1288 
L 1313 1288 
L 984 0 
L 488 0 
L 813 1288 
L 6 1288 
L 6 1766 
L 934 1766 
L 1241 2994 
L 409 2994 
L 409 3472 
L 1356 3472 
L 1638 4578 
L 2138 4578 
z
M 2506 2994 
L 1741 2994 
L 1434 1766 
L 2203 1766 
L 2506 2994 
z
" transform="scale(0.015625)"/>
      <path id="Menlo-Regular-38" d="M 1925 2216 
Q 1503 2216 1273 1980 
Q 1044 1744 1044 1313 
Q 1044 881 1276 642 
Q 1509 403 1925 403 
Q 2350 403 2579 639 
Q 2809 875 2809 1313 
Q 2809 1741 2576 1978 
Q 2344 2216 1925 2216 
z
M 1375 2478 
Q 972 2581 745 2862 
Q 519 3144 519 3541 
Q 519 4097 897 4423 
Q 1275 4750 1925 4750 
Q 2578 4750 2956 4423 
Q 3334 4097 3334 3541 
Q 3334 3144 3107 2862 
Q 2881 2581 2478 2478 
Q 2947 2375 3195 2062 
Q 3444 1750 3444 1253 
Q 3444 622 3041 265 
Q 2638 -91 1925 -91 
Q 1213 -91 811 264 
Q 409 619 409 1247 
Q 409 1747 657 2061 
Q 906 2375 1375 2478 
z
M 1147 3481 
Q 1147 3106 1347 2909 
Q 1547 2713 1925 2713 
Q 2306 2713 2506 2909 
Q 2706 3106 2706 3481 
Q 2706 3863 2507 4063 
Q 2309 4263 1925 4263 
Q 1547 4263 1347 4061 
Q 1147 3859 1147 3481 
z
" transform="scale(0.015625)"/>
      <path id="Menlo-Regular-2c" d="M 1381 1128 
L 2356 1128 
L 2356 300 
L 1663 -1047 
L 1038 -1050 
L 1381 300 
L 1381 1128 
z
" transform="scale(0.015625)"/>
     </defs>
     <use xlink:href="#Menlo-Regular-23"/>
     <use xlink:href="#Menlo-Regular-31" transform="translate(60.205078 0)"/>
     <use xlink:href="#Menlo-Regular-32" transform="translate(120.410156 0)"/>
     <use xlink:href="#Menlo-Regular-38" transform="translate(180.615234 0)"/>
     <use xlink:href="#Menlo-Regular-2c" transform="translate(240.820312 0)"/>
     <use xlink:href="#Menlo-Regular-32" transform="translate(301.025391 0)"/>
     <use xlink:href="#Menlo-Regular-39" transform="translate(361.230469 0)"/>
     <use xlink:href="#Menlo-Regular-32" transform="translate(421.435547 0)"/>
    </g>
   </g>
   <g id="text_18">
    <!-- ─ 0 -->
    <g style="fill: #9b8bb8" transform="translate(565.7472 169.488) scale(0.11 -0.11)">
     <defs>
      <path id="Menlo-Regular-2500" d="M -63 1550 
L -63 2088 
L 3916 2088 
L 3916 1550 
L -63 1550 
z
" transform="scale(0.015625)"/>
     </defs>
     <use xlink:href="#Menlo-Regular-2500"/>
     <use xlink:href="#Menlo-Regular-20" transform="translate(60.205078 0)"/>
     <use xlink:href="#Menlo-Regular-30" transform="translate(120.410156 0)"/>
    </g>
   </g>
  </g>
 </g>
 <defs>
  <clipPath id="pd8e24c17c0">
   <rect x="55.296" y="55.44" width="490.752" height="269.28"/>
  </clipPath>
 </defs>
</svg>
