<?xml version="1.0" encoding="utf-8" standalone="no"?>
<!DOCTYPE svg PUBLIC "-//W3C//DTD SVG 1.1//EN"
  "http://www.w3.org/Graphics/SVG/1.1/DTD/svg11.dtd">
<svg xmlns:xlink="http://www.w3.org/1999/xlink" width="691.2pt" height="396pt" viewBox="0 0 691.2 396" xmlns="http://www.w3.org/2000/svg" version="1.1">
 <metadata>
  <rdf:RDF xmlns:dc="http://purl.org/dc/elements/1.1/" xmlns:cc="http://creativecommons.org/ns#" xmlns:rdf="http://www.w3.org/1999/02/22-rdf-syntax-ns#">
   <cc:Work>
    <dc:type rdf:resource="http://purl.org/dc/dcmitype/StillImage"/>
    <dc:date>2026-04-11T15:26:39.222692</dc:date>
    <dc:format>image/svg+xml</dc:format>
    <dc:creator>
     <cc:Agent>
      <dc:title>Matplotlib v3.10.8, https://matplotlib.org/</dc:title>
     </cc:Agent>
    </dc:creator>
   </cc:Work>
  </rdf:RDF>
 </metadata>
 <defs>
  <style type="text/css">*{stroke-linejoin: round; stroke-linecap: butt}</style>
 </defs>
 <g id="figure_1">
  <g id="patch_1">
   <path d="M 0 396 
L 691.2 396 
L 691.2 0 
L 0 0 
L 0 396 
z
" style="fill: none"/>
  </g>
  <g id="axes_1">
   <g id="patch_2">
    <path d="M 55.296 324.72 
L 546.048 324.72 
L 546.048 55.44 
L 55.296 55.44 
L 55.296 324.72 
z
" style="fill: none"/>
   </g>
   <g id="matplotlib.axis_1">
    <g id="xtick_1">
     <g id="line2d_1">
      <path d="M 75.744 324.72 
L 75.744 55.44 
" clip-path="url(#pb0b96ac388)" style="fill: none; stroke-dasharray: 2.22,0.96; stroke-dashoffset: 0; stroke: #e2d5f5; stroke-opacity: 0.7; stroke-width: 0.6"/>
     </g>
     <g id="line2d_2">
      <defs>
       <path id="m763b28d2c6" d="M 0 0 
L 0 3.5 
" style="stroke: #9b8bb8; stroke-width: 0.8"/>
      </defs>
      <g>
       <use xlink:href="#m763b28d2c6" x="75.744" y="324.72" style="fill: #9b8bb8; stroke: #9b8bb8; stroke-width: 0.8"/>
      </g>
     </g>
     <g id="text_1">
      <!-- 03/31 -->
      <g style="fill: #9b8bb8" transform="translate(64.203619 353.301793) rotate(-30) scale(0.1 -0.1)">
       <defs>
        <path id="JetBrainsMono-Regular-30" d="M 1920 -64 
Q 1274 -64 893 310 
Q 512 685 512 1312 
L 512 3360 
Q 512 3987 893 4361 
Q 1274 4736 1920 4736 
Q 2566 4736 2947 4361 
Q 3328 3987 3328 3360 
L 3328 1312 
Q 3328 896 3155 585 
Q 2982 275 2665 105 
Q 2349 -64 1920 -64 
z
M 1920 429 
Q 2304 429 2537 675 
Q 2771 922 2771 1312 
L 2771 3360 
Q 2771 3750 2537 3996 
Q 2304 4243 1920 4243 
Q 1536 4243 1302 3996 
Q 1069 3750 1069 3360 
L 1069 1312 
Q 1069 922 1302 675 
Q 1536 429 1920 429 
z
M 1920 1984 
Q 1747 1984 1641 2080 
Q 1536 2176 1536 2355 
Q 1536 2528 1641 2621 
Q 1747 2714 1920 2714 
Q 2093 2714 2198 2621 
Q 2304 2528 2304 2355 
Q 2304 2176 2198 2080 
Q 2093 1984 1920 1984 
z
" transform="scale(0.015625)"/>
        <path id="JetBrainsMono-Regular-33" d="M 1850 -64 
Q 1203 -64 825 297 
Q 448 659 448 1280 
L 1024 1280 
Q 1024 896 1248 672 
Q 1472 448 1856 448 
Q 2240 448 2464 672 
Q 2688 896 2688 1280 
L 2688 1600 
Q 2688 1984 2464 2208 
Q 2240 2432 1856 2432 
L 1350 2432 
L 1350 2931 
L 2496 4147 
L 576 4147 
L 576 4672 
L 3149 4672 
L 3149 4134 
L 2022 2938 
Q 2598 2893 2931 2537 
Q 3264 2182 3264 1600 
L 3264 1280 
Q 3264 659 2883 297 
Q 2502 -64 1850 -64 
z
" transform="scale(0.015625)"/>
        <path id="JetBrainsMono-Regular-2f" d="M 480 -704 
L 2752 5312 
L 3360 5312 
L 1088 -704 
L 480 -704 
z
" transform="scale(0.015625)"/>
        <path id="JetBrainsMono-Regular-31" d="M 576 0 
L 576 525 
L 1843 525 
L 1843 4173 
L 576 3226 
L 576 3885 
L 1632 4672 
L 2419 4672 
L 2419 525 
L 3456 525 
L 3456 0 
L 576 0 
z
" transform="scale(0.015625)"/>
       </defs>
       <use xlink:href="#JetBrainsMono-Regular-30"/>
       <use xlink:href="#JetBrainsMono-Regular-33" transform="translate(59.999985 0)"/>
       <use xlink:href="#JetBrainsMono-Regular-2f" transform="translate(119.999969 0)"/>
       <use xlink:href="#JetBrainsMono-Regular-33" transform="translate(179.999954 0)"/>
       <use xlink:href="#JetBrainsMono-Regular-31" transform="translate(239.999939 0)"/>
      </g>
     </g>
    </g>
    <g id="xtick_2">
     <g id="line2d_3">
      <path d="M 116.64 324.72 
L 116.64 55.44 
" clip-path="url(#pb0b96ac388)" style="fill: none; stroke-dasharray: 2.22,0.96; stroke-dashoffset: 0; stroke: #e2d5f5; stroke-opacity: 0.7; stroke-width: 0.6"/>
     </g>
     <g id="line2d_4">
      <g>
       <use xlink:href="#m763b28d2c6" x="116.64" y="324.72" style="fill: #9b8bb8; stroke: #9b8bb8; stroke-width: 0.8"/>
      </g>
     </g>
     <g id="text_2">
      <!-- 04/01 -->
      <g style="fill: #9b8bb8" transform="translate(105.099619 353.301793) rotate(-30) scale(0.1 -0.1)">
       <defs>
        <path id="JetBrainsMono-Regular-34" d="M 2560 0 
L 2560 1024 
L 448 1024 
L 448 1926 
L 2150 4672 
L 2803 4672 
L 1024 1798 
L 1024 1549 
L 2560 1549 
L 2560 2688 
L 3136 2688 
L 3136 0 
L 2560 0 
z
" transform="scale(0.015625)"/>
       </defs>
       <use xlink:href="#JetBrainsMono-Regular-30"/>
       <use xlink:href="#JetBrainsMono-Regular-34" transform="translate(59.999985 0)"/>
       <use xlink:href="#JetBrainsMono-Regular-2f" transform="translate(119.999969 0)"/>
       <use xlink:href="#JetBrainsMono-Regular-30" transform="translate(179.999954 0)"/>
       <use xlink:href="#JetBrainsMono-Regular-31" transform="translate(239.999939 0)"/>
      </g>
     </g>
    </g>
    <g id="xtick_3">
     <g id="line2d_5">
      <path d="M 157.536 324.72 
L 157.536 55.44 
" clip-path="url(#pb0b96ac388)" style="fill: none; stroke-dasharray: 2.22,0.96; stroke-dashoffset: 0; stroke: #e2d5f5; stroke-opacity: 0.7; stroke-width: 0.6"/>
     </g>
     <g id="line2d_6">
      <g>
       <use xlink:href="#m763b28d2c6" x="157.536" y="324.72" style="fill: #9b8bb8; stroke: #9b8bb8; stroke-width: 0.8"/>
      </g>
     </g>
     <g id="text_3">
      <!-- 04/02 -->
      <g style="fill: #9b8bb8" transform="translate(145.995619 353.301793) rotate(-30) scale(0.1 -0.1)">
       <defs>
        <path id="JetBrainsMono-Regular-32" d="M 550 0 
L 550 531 
L 2106 2195 
Q 2445 2554 2585 2835 
Q 2726 3117 2726 3386 
Q 2726 3770 2505 3997 
Q 2285 4224 1907 4224 
Q 1517 4224 1289 3990 
Q 1062 3757 1062 3360 
L 486 3360 
Q 506 3994 890 4365 
Q 1274 4736 1907 4736 
Q 2554 4736 2934 4371 
Q 3315 4006 3315 3379 
Q 3315 3046 3132 2675 
Q 2950 2304 2509 1843 
L 1248 525 
L 3373 525 
L 3373 0 
L 550 0 
z
" transform="scale(0.015625)"/>
       </defs>
       <use xlink:href="#JetBrainsMono-Regular-30"/>
       <use xlink:href="#JetBrainsMono-Regular-34" transform="translate(59.999985 0)"/>
       <use xlink:href="#JetBrainsMono-Regular-2f" transform="translate(119.999969 0)"/>
       <use xlink:href="#JetBrainsMono-Regular-30" transform="translate(179.999954 0)"/>
       <use xlink:href="#JetBrainsMono-Regular-32" transform="translate(239.999939 0)"/>
      </g>
     </g>
    </g>
    <g id="xtick_4">
     <g id="line2d_7">
      <path d="M 198.432 324.72 
L 198.432 55.44 
" clip-path="url(#pb0b96ac388)" style="fill: none; stroke-dasharray: 2.22,0.96; stroke-dashoffset: 0; stroke: #e2d5f5; stroke-opacity: 0.7; stroke-width: 0.6"/>
     </g>
     <g id="line2d_8">
      <g>
       <use xlink:href="#m763b28d2c6" x="198.432" y="324.72" style="fill: #9b8bb8; stroke: #9b8bb8; stroke-width: 0.8"/>
      </g>
     </g>
     <g id="text_4">
      <!-- 04/03 -->
      <g style="fill: #9b8bb8" transform="translate(186.891619 353.301793) rotate(-30) scale(0.1 -0.1)">
       <use xlink:href="#JetBrainsMono-Regular-30"/>
       <use xlink:href="#JetBrainsMono-Regular-34" transform="translate(59.999985 0)"/>
       <use xlink:href="#JetBrainsMono-Regular-2f" transform="translate(119.999969 0)"/>
       <use xlink:href="#JetBrainsMono-Regular-30" transform="translate(179.999954 0)"/>
       <use xlink:href="#JetBrainsMono-Regular-33" transform="translate(239.999939 0)"/>
      </g>
     </g>
    </g>
    <g id="xtick_5">
     <g id="line2d_9">
      <path d="M 239.328 324.72 
L 239.328 55.44 
" clip-path="url(#pb0b96ac388)" style="fill: none; stroke-dasharray: 2.22,0.96; stroke-dashoffset: 0; stroke: #e2d5f5; stroke-opacity: 0.7; stroke-width: 0.6"/>
     </g>
     <g id="line2d_10">
      <g>
       <use xlink:href="#m763b28d2c6" x="239.328" y="324.72" style="fill: #9b8bb8; stroke: #9b8bb8; stroke-width: 0.8"/>
      </g>
     </g>
     <g id="text_5">
      <!-- 04/04 -->
      <g style="fill: #9b8bb8" transform="translate(227.787619 353.301793) rotate(-30) scale(0.1 -0.1)">
       <use xlink:href="#JetBrainsMono-Regular-30"/>
       <use xlink:href="#JetBrainsMono-Regular-34" transform="translate(59.999985 0)"/>
       <use xlink:href="#JetBrainsMono-Regular-2f" transform="translate(119.999969 0)"/>
       <use xlink:href="#JetBrainsMono-Regular-30" transform="translate(179.999954 0)"/>
       <use xlink:href="#JetBrainsMono-Regular-34" transform="translate(239.999939 0)"/>
      </g>
     </g>
    </g>
    <g id="xtick_6">
     <g id="line2d_11">
      <path d="M 280.224 324.72 
L 280.224 55.44 
" clip-path="url(#pb0b96ac388)" style="fill: none; stroke-dasharray: 2.22,0.96; stroke-dashoffset: 0; stroke: #e2d5f5; stroke-opacity: 0.7; stroke-width: 0.6"/>
     </g>
     <g id="line2d_12">
      <g>
       <use xlink:href="#m763b28d2c6" x="280.224" y="324.72" style="fill: #9b8bb8; stroke: #9b8bb8; stroke-width: 0.8"/>
      </g>
     </g>
     <g id="text_6">
      <!-- 04/05 -->
      <g style="fill: #9b8bb8" transform="translate(268.683619 353.301793) rotate(-30) scale(0.1 -0.1)">
       <defs>
        <path id="JetBrainsMono-Regular-35" d="M 1882 -64 
Q 1235 -64 857 297 
Q 480 659 480 1280 
L 1056 1280 
Q 1056 896 1280 672 
Q 1504 448 1888 448 
Q 2272 448 2496 672 
Q 2720 896 2720 1280 
L 2720 1568 
Q 2720 1952 2502 2176 
Q 2285 2400 1914 2400 
L 640 2400 
L 640 4672 
L 3130 4672 
L 3130 4147 
L 1178 4147 
L 1190 2925 
L 1946 2925 
Q 2592 2925 2944 2569 
Q 3296 2214 3296 1568 
L 3296 1280 
Q 3296 659 2915 297 
Q 2534 -64 1882 -64 
z
" transform="scale(0.015625)"/>
       </defs>
       <use xlink:href="#JetBrainsMono-Regular-30"/>
       <use xlink:href="#JetBrainsMono-Regular-34" transform="translate(59.999985 0)"/>
       <use xlink:href="#JetBrainsMono-Regular-2f" transform="translate(119.999969 0)"/>
       <use xlink:href="#JetBrainsMono-Regular-30" transform="translate(179.999954 0)"/>
       <use xlink:href="#JetBrainsMono-Regular-35" transform="translate(239.999939 0)"/>
      </g>
     </g>
    </g>
    <g id="xtick_7">
     <g id="line2d_13">
      <path d="M 321.12 324.72 
L 321.12 55.44 
" clip-path="url(#pb0b96ac388)" style="fill: none; stroke-dasharray: 2.22,0.96; stroke-dashoffset: 0; stroke: #e2d5f5; stroke-opacity: 0.7; stroke-width: 0.6"/>
     </g>
     <g id="line2d_14">
      <g>
       <use xlink:href="#m763b28d2c6" x="321.12" y="324.72" style="fill: #9b8bb8; stroke: #9b8bb8; stroke-width: 0.8"/>
      </g>
     </g>
     <g id="text_7">
      <!-- 04/06 -->
      <g style="fill: #9b8bb8" transform="translate(309.579619 353.301793) rotate(-30) scale(0.1 -0.1)">
       <defs>
        <path id="JetBrainsMono-Regular-36" d="M 1926 -64 
Q 1478 -64 1136 125 
Q 794 314 602 650 
Q 410 986 410 1427 
Q 410 1734 525 2057 
Q 640 2381 838 2733 
L 1920 4672 
L 2560 4672 
L 1408 2669 
L 1427 2656 
Q 1510 2765 1676 2822 
Q 1843 2880 2042 2880 
Q 2458 2880 2768 2697 
Q 3078 2515 3254 2195 
Q 3430 1875 3430 1453 
Q 3430 1005 3238 662 
Q 3046 320 2710 128 
Q 2374 -64 1926 -64 
z
M 1920 448 
Q 2336 448 2595 723 
Q 2854 998 2854 1440 
Q 2854 1882 2595 2157 
Q 2336 2432 1920 2432 
Q 1504 2432 1245 2157 
Q 986 1882 986 1440 
Q 986 998 1245 723 
Q 1504 448 1920 448 
z
" transform="scale(0.015625)"/>
       </defs>
       <use xlink:href="#JetBrainsMono-Regular-30"/>
       <use xlink:href="#JetBrainsMono-Regular-34" transform="translate(59.999985 0)"/>
       <use xlink:href="#JetBrainsMono-Regular-2f" transform="translate(119.999969 0)"/>
       <use xlink:href="#JetBrainsMono-Regular-30" transform="translate(179.999954 0)"/>
       <use xlink:href="#JetBrainsMono-Regular-36" transform="translate(239.999939 0)"/>
      </g>
     </g>
    </g>
    <g id="xtick_8">
     <g id="line2d_15">
      <path d="M 362.016 324.72 
L 362.016 55.44 
" clip-path="url(#pb0b96ac388)" style="fill: none; stroke-dasharray: 2.22,0.96; stroke-dashoffset: 0; stroke: #e2d5f5; stroke-opacity: 0.7; stroke-width: 0.6"/>
     </g>
     <g id="line2d_16">
      <g>
       <use xlink:href="#m763b28d2c6" x="362.016" y="324.72" style="fill: #9b8bb8; stroke: #9b8bb8; stroke-width: 0.8"/>
      </g>
     </g>
     <g id="text_8">
      <!-- 04/07 -->
      <g style="fill: #9b8bb8" transform="translate(350.475619 353.301793) rotate(-30) scale(0.1 -0.1)">
       <defs>
        <path id="JetBrainsMono-Regular-37" d="M 1216 0 
L 2880 4147 
L 1101 4147 
L 1101 3392 
L 525 3392 
L 525 4672 
L 3494 4672 
L 3494 4134 
L 1843 0 
L 1216 0 
z
" transform="scale(0.015625)"/>
       </defs>
       <use xlink:href="#JetBrainsMono-Regular-30"/>
       <use xlink:href="#JetBrainsMono-Regular-34" transform="translate(59.999985 0)"/>
       <use xlink:href="#JetBrainsMono-Regular-2f" transform="translate(119.999969 0)"/>
       <use xlink:href="#JetBrainsMono-Regular-30" transform="translate(179.999954 0)"/>
       <use xlink:href="#JetBrainsMono-Regular-37" transform="translate(239.999939 0)"/>
      </g>
     </g>
    </g>
    <g id="xtick_9">
     <g id="line2d_17">
      <path d="M 402.912 324.72 
L 402.912 55.44 
" clip-path="url(#pb0b96ac388)" style="fill: none; stroke-dasharray: 2.22,0.96; stroke-dashoffset: 0; stroke: #e2d5f5; stroke-opacity: 0.7; stroke-width: 0.6"/>
     </g>
     <g id="line2d_18">
      <g>
       <use xlink:href="#m763b28d2c6" x="402.912" y="324.72" style="fill: #9b8bb8; stroke: #9b8bb8; stroke-width: 0.8"/>
      </g>
     </g>
     <g id="text_9">
      <!-- 04/08 -->
      <g style="fill: #9b8bb8" transform="translate(391.371619 353.301793) rotate(-30) scale(0.1 -0.1)">
       <defs>
        <path id="JetBrainsMono-Regular-38" d="M 1920 -64 
Q 1478 -64 1139 109 
Q 800 282 611 592 
Q 422 902 422 1306 
Q 422 1747 675 2067 
Q 928 2387 1350 2458 
L 1350 2477 
Q 986 2560 768 2845 
Q 550 3130 550 3501 
Q 550 3866 723 4144 
Q 896 4422 1206 4579 
Q 1517 4736 1920 4736 
Q 2330 4736 2637 4579 
Q 2944 4422 3117 4144 
Q 3290 3866 3290 3501 
Q 3290 3130 3072 2845 
Q 2854 2560 2490 2477 
L 2490 2458 
Q 2912 2387 3165 2067 
Q 3418 1747 3418 1306 
Q 3418 902 3229 592 
Q 3040 282 2704 109 
Q 2368 -64 1920 -64 
z
M 1920 2701 
Q 2278 2701 2496 2912 
Q 2714 3123 2714 3462 
Q 2714 3802 2496 4013 
Q 2278 4224 1920 4224 
Q 1568 4224 1347 4013 
Q 1126 3802 1126 3462 
Q 1126 3123 1347 2912 
Q 1568 2701 1920 2701 
z
M 1920 454 
Q 2330 454 2586 694 
Q 2842 934 2842 1318 
Q 2842 1709 2586 1949 
Q 2330 2189 1920 2189 
Q 1510 2189 1254 1949 
Q 998 1709 998 1318 
Q 998 934 1254 694 
Q 1510 454 1920 454 
z
" transform="scale(0.015625)"/>
       </defs>
       <use xlink:href="#JetBrainsMono-Regular-30"/>
       <use xlink:href="#JetBrainsMono-Regular-34" transform="translate(59.999985 0)"/>
       <use xlink:href="#JetBrainsMono-Regular-2f" transform="translate(119.999969 0)"/>
       <use xlink:href="#JetBrainsMono-Regular-30" transform="translate(179.999954 0)"/>
       <use xlink:href="#JetBrainsMono-Regular-38" transform="translate(239.999939 0)"/>
      </g>
     </g>
    </g>
    <g id="xtick_10">
     <g id="line2d_19">
      <path d="M 443.808 324.72 
L 443.808 55.44 
" clip-path="url(#pb0b96ac388)" style="fill: none; stroke-dasharray: 2.22,0.96; stroke-dashoffset: 0; stroke: #e2d5f5; stroke-opacity: 0.7; stroke-width: 0.6"/>
     </g>
     <g id="line2d_20">
      <g>
       <use xlink:href="#m763b28d2c6" x="443.808" y="324.72" style="fill: #9b8bb8; stroke: #9b8bb8; stroke-width: 0.8"/>
      </g>
     </g>
     <g id="text_10">
      <!-- 04/09 -->
      <g style="fill: #9b8bb8" transform="translate(432.267619 353.301793) rotate(-30) scale(0.1 -0.1)">
       <defs>
        <path id="JetBrainsMono-Regular-39" d="M 1248 0 
L 2400 2003 
L 2381 2016 
Q 2317 1914 2144 1853 
Q 1971 1792 1766 1792 
Q 1363 1792 1059 1974 
Q 755 2157 582 2477 
Q 410 2797 410 3219 
Q 410 3674 602 4013 
Q 794 4352 1133 4544 
Q 1472 4736 1914 4736 
Q 2368 4736 2707 4547 
Q 3046 4358 3238 4022 
Q 3430 3686 3430 3245 
Q 3430 2938 3315 2614 
Q 3200 2291 3002 1939 
L 1920 0 
L 1248 0 
z
M 1920 2240 
Q 2336 2240 2595 2515 
Q 2854 2790 2854 3232 
Q 2854 3674 2595 3949 
Q 2336 4224 1920 4224 
Q 1504 4224 1245 3949 
Q 986 3674 986 3232 
Q 986 2790 1245 2515 
Q 1504 2240 1920 2240 
z
" transform="scale(0.015625)"/>
       </defs>
       <use xlink:href="#JetBrainsMono-Regular-30"/>
       <use xlink:href="#JetBrainsMono-Regular-34" transform="translate(59.999985 0)"/>
       <use xlink:href="#JetBrainsMono-Regular-2f" transform="translate(119.999969 0)"/>
       <use xlink:href="#JetBrainsMono-Regular-30" transform="translate(179.999954 0)"/>
       <use xlink:href="#JetBrainsMono-Regular-39" transform="translate(239.999939 0)"/>
      </g>
     </g>
    </g>
    <g id="xtick_11">
     <g id="line2d_21">
      <path d="M 484.704 324.72 
L 484.704 55.44 
" clip-path="url(#pb0b96ac388)" style="fill: none; stroke-dasharray: 2.22,0.96; stroke-dashoffset: 0; stroke: #e2d5f5; stroke-opacity: 0.7; stroke-width: 0.6"/>
     </g>
     <g id="line2d_22">
      <g>
       <use xlink:href="#m763b28d2c6" x="484.704" y="324.72" style="fill: #9b8bb8; stroke: #9b8bb8; stroke-width: 0.8"/>
      </g>
     </g>
     <g id="text_11">
      <!-- 04/10 -->
      <g style="fill: #9b8bb8" transform="translate(473.163619 353.301793) rotate(-30) scale(0.1 -0.1)">
       <use xlink:href="#JetBrainsMono-Regular-30"/>
       <use xlink:href="#JetBrainsMono-Regular-34" transform="translate(59.999985 0)"/>
       <use xlink:href="#JetBrainsMono-Regular-2f" transform="translate(119.999969 0)"/>
       <use xlink:href="#JetBrainsMono-Regular-31" transform="translate(179.999954 0)"/>
       <use xlink:href="#JetBrainsMono-Regular-30" transform="translate(239.999939 0)"/>
      </g>
     </g>
    </g>
    <g id="xtick_12">
     <g id="line2d_23">
      <path d="M 525.6 324.72 
L 525.6 55.44 
" clip-path="url(#pb0b96ac388)" style="fill: none; stroke-dasharray: 2.22,0.96; stroke-dashoffset: 0; stroke: #e2d5f5; stroke-opacity: 0.7; stroke-width: 0.6"/>
     </g>
     <g id="line2d_24">
      <g>
       <use xlink:href="#m763b28d2c6" x="525.6" y="324.72" style="fill: #9b8bb8; stroke: #9b8bb8; stroke-width: 0.8"/>
      </g>
     </g>
     <g id="text_12">
      <!-- 04/11 -->
      <g style="fill: #9b8bb8" transform="translate(514.059619 353.301793) rotate(-30) scale(0.1 -0.1)">
       <use xlink:href="#JetBrainsMono-Regular-30"/>
       <use xlink:href="#JetBrainsMono-Regular-34" transform="translate(59.999985 0)"/>
       <use xlink:href="#JetBrainsMono-Regular-2f" transform="translate(119.999969 0)"/>
       <use xlink:href="#JetBrainsMono-Regular-31" transform="translate(179.999954 0)"/>
       <use xlink:href="#JetBrainsMono-Regular-31" transform="translate(239.999939 0)"/>
      </g>
     </g>
    </g>
   </g>
   <g id="matplotlib.axis_2">
    <g id="ytick_1">
     <g id="line2d_25">
      <path d="M 55.296 304.996834 
L 546.048 304.996834 
" clip-path="url(#pb0b96ac388)" style="fill: none; stroke-dasharray: 2.22,0.96; stroke-dashoffset: 0; stroke: #e2d5f5; stroke-opacity: 0.7; stroke-width: 0.6"/>
     </g>
     <g id="line2d_26">
      <defs>
       <path id="mf5b83cca2a" d="M 0 0 
L -3.5 0 
" style="stroke: #9b8bb8; stroke-width: 0.8"/>
      </defs>
      <g>
       <use xlink:href="#mf5b83cca2a" x="55.296" y="304.996834" style="fill: #9b8bb8; stroke: #9b8bb8; stroke-width: 0.8"/>
      </g>
     </g>
     <g id="text_13">
      <!-- 200 -->
      <g style="fill: #9b8bb8" transform="translate(30.296 308.646834) scale(0.1 -0.1)">
       <use xlink:href="#JetBrainsMono-Regular-32"/>
       <use xlink:href="#JetBrainsMono-Regular-30" transform="translate(59.999985 0)"/>
       <use xlink:href="#JetBrainsMono-Regular-30" transform="translate(119.999969 0)"/>
      </g>
     </g>
    </g>
    <g id="ytick_2">
     <g id="line2d_27">
      <path d="M 55.296 255.688918 
L 546.048 255.688918 
" clip-path="url(#pb0b96ac388)" style="fill: none; stroke-dasharray: 2.22,0.96; stroke-dashoffset: 0; stroke: #e2d5f5; stroke-opacity: 0.7; stroke-width: 0.6"/>
     </g>
     <g id="line2d_28">
      <g>
       <use xlink:href="#mf5b83cca2a" x="55.296" y="255.688918" style="fill: #9b8bb8; stroke: #9b8bb8; stroke-width: 0.8"/>
      </g>
     </g>
     <g id="text_14">
      <!-- 210 -->
      <g style="fill: #9b8bb8" transform="translate(30.296 259.338918) scale(0.1 -0.1)">
       <use xlink:href="#JetBrainsMono-Regular-32"/>
       <use xlink:href="#JetBrainsMono-Regular-31" transform="translate(59.999985 0)"/>
       <use xlink:href="#JetBrainsMono-Regular-30" transform="translate(119.999969 0)"/>
      </g>
     </g>
    </g>
    <g id="ytick_3">
     <g id="line2d_29">
      <path d="M 55.296 206.381002 
L 546.048 206.381002 
" clip-path="url(#pb0b96ac388)" style="fill: none; stroke-dasharray: 2.22,0.96; stroke-dashoffset: 0; stroke: #e2d5f5; stroke-opacity: 0.7; stroke-width: 0.6"/>
     </g>
     <g id="line2d_30">
      <g>
       <use xlink:href="#mf5b83cca2a" x="55.296" y="206.381002" style="fill: #9b8bb8; stroke: #9b8bb8; stroke-width: 0.8"/>
      </g>
     </g>
     <g id="text_15">
      <!-- 220 -->
      <g style="fill: #9b8bb8" transform="translate(30.296 210.031002) scale(0.1 -0.1)">
       <use xlink:href="#JetBrainsMono-Regular-32"/>
       <use xlink:href="#JetBrainsMono-Regular-32" transform="translate(59.999985 0)"/>
       <use xlink:href="#JetBrainsMono-Regular-30" transform="translate(119.999969 0)"/>
      </g>
     </g>
    </g>
    <g id="ytick_4">
     <g id="line2d_31">
      <path d="M 55.296 157.073086 
L 546.048 157.073086 
" clip-path="url(#pb0b96ac388)" style="fill: none; stroke-dasharray: 2.22,0.96; stroke-dashoffset: 0; stroke: #e2d5f5; stroke-opacity: 0.7; stroke-width: 0.6"/>
     </g>
     <g id="line2d_32">
      <g>
       <use xlink:href="#mf5b83cca2a" x="55.296" y="157.073086" style="fill: #9b8bb8; stroke: #9b8bb8; stroke-width: 0.8"/>
      </g>
     </g>
     <g id="text_16">
      <!-- 230 -->
      <g style="fill: #9b8bb8" transform="translate(30.296 160.723086) scale(0.1 -0.1)">
       <use xlink:href="#JetBrainsMono-Regular-32"/>
       <use xlink:href="#JetBrainsMono-Regular-33" transform="translate(59.999985 0)"/>
       <use xlink:href="#JetBrainsMono-Regular-30" transform="translate(119.999969 0)"/>
      </g>
     </g>
    </g>
    <g id="ytick_5">
     <g id="line2d_33">
      <path d="M 55.296 107.76517 
L 546.048 107.76517 
" clip-path="url(#pb0b96ac388)" style="fill: none; stroke-dasharray: 2.22,0.96; stroke-dashoffset: 0; stroke: #e2d5f5; stroke-opacity: 0.7; stroke-width: 0.6"/>
     </g>
     <g id="line2d_34">
      <g>
       <use xlink:href="#mf5b83cca2a" x="55.296" y="107.76517" style="fill: #9b8bb8; stroke: #9b8bb8; stroke-width: 0.8"/>
      </g>
     </g>
     <g id="text_17">
      <!-- 240 -->
      <g style="fill: #9b8bb8" transform="translate(30.296 111.41517) scale(0.1 -0.1)">
       <use xlink:href="#JetBrainsMono-Regular-32"/>
       <use xlink:href="#JetBrainsMono-Regular-34" transform="translate(59.999985 0)"/>
       <use xlink:href="#JetBrainsMono-Regular-30" transform="translate(119.999969 0)"/>
      </g>
     </g>
    </g>
    <g id="ytick_6">
     <g id="line2d_35">
      <path d="M 55.296 58.457254 
L 546.048 58.457254 
" clip-path="url(#pb0b96ac388)" style="fill: none; stroke-dasharray: 2.22,0.96; stroke-dashoffset: 0; stroke: #e2d5f5; stroke-opacity: 0.7; stroke-width: 0.6"/>
     </g>
     <g id="line2d_36">
      <g>
       <use xlink:href="#mf5b83cca2a" x="55.296" y="58.457254" style="fill: #9b8bb8; stroke: #9b8bb8; stroke-width: 0.8"/>
      </g>
     </g>
     <g id="text_18">
      <!-- 250 -->
      <g style="fill: #9b8bb8" transform="translate(30.296 62.107254) scale(0.1 -0.1)">
       <use xlink:href="#JetBrainsMono-Regular-32"/>
       <use xlink:href="#JetBrainsMono-Regular-35" transform="translate(59.999985 0)"/>
       <use xlink:href="#JetBrainsMono-Regular-30" transform="translate(119.999969 0)"/>
      </g>
     </g>
    </g>
    <g id="text_19">
     <!-- Rating -->
     <g style="fill: #9b8bb8" transform="translate(24.496 208.08) rotate(-90) scale(0.1 -0.1)">
      <defs>
       <path id="JetBrainsMono-Regular-52" d="M 595 0 
L 595 4672 
L 2035 4672 
Q 2451 4672 2764 4502 
Q 3078 4333 3251 4032 
Q 3424 3731 3424 3328 
Q 3424 2854 3181 2515 
Q 2938 2176 2534 2042 
L 3488 0 
L 2854 0 
L 1939 1984 
L 1165 1984 
L 1165 0 
L 595 0 
z
M 1165 2502 
L 2035 2502 
Q 2394 2502 2611 2729 
Q 2829 2957 2829 3328 
Q 2829 3706 2611 3930 
Q 2394 4154 2035 4154 
L 1165 4154 
L 1165 2502 
z
" transform="scale(0.015625)"/>
       <path id="JetBrainsMono-Regular-61" d="M 1613 -64 
Q 1069 -64 749 240 
Q 429 544 429 1037 
Q 429 1363 576 1606 
Q 723 1850 985 1987 
Q 1248 2125 1587 2125 
L 2675 2125 
L 2675 2400 
Q 2675 3085 1926 3085 
Q 1594 3085 1389 2963 
Q 1184 2842 1171 2624 
L 595 2624 
Q 627 3040 982 3312 
Q 1338 3584 1926 3584 
Q 2566 3584 2908 3277 
Q 3251 2970 3251 2419 
L 3251 0 
L 2682 0 
L 2682 640 
L 2669 640 
Q 2618 314 2342 125 
Q 2067 -64 1613 -64 
z
M 1754 422 
Q 2176 422 2425 627 
Q 2675 832 2675 1184 
L 2675 1677 
L 1651 1677 
Q 1370 1677 1194 1507 
Q 1018 1338 1018 1056 
Q 1018 762 1213 592 
Q 1408 422 1754 422 
z
" transform="scale(0.015625)"/>
       <path id="JetBrainsMono-Regular-74" d="M 2272 0 
Q 1837 0 1574 253 
Q 1312 506 1312 928 
L 1312 2995 
L 301 2995 
L 301 3520 
L 1312 3520 
L 1312 4512 
L 1888 4512 
L 1888 3520 
L 3328 3520 
L 3328 2995 
L 1888 2995 
L 1888 928 
Q 1888 749 1993 637 
Q 2099 525 2272 525 
L 3296 525 
L 3296 0 
L 2272 0 
z
" transform="scale(0.015625)"/>
       <path id="JetBrainsMono-Regular-69" d="M 544 0 
L 544 525 
L 1792 525 
L 1792 2995 
L 672 2995 
L 672 3520 
L 2368 3520 
L 2368 525 
L 3552 525 
L 3552 0 
L 544 0 
z
M 2016 4154 
Q 1805 4154 1683 4262 
Q 1562 4371 1562 4557 
Q 1562 4749 1683 4861 
Q 1805 4973 2016 4973 
Q 2227 4973 2348 4861 
Q 2470 4749 2470 4557 
Q 2470 4371 2348 4262 
Q 2227 4154 2016 4154 
z
" transform="scale(0.015625)"/>
       <path id="JetBrainsMono-Regular-6e" d="M 589 0 
L 589 3520 
L 1165 3520 
L 1165 2848 
L 1171 2848 
Q 1216 3200 1459 3392 
Q 1702 3584 2106 3584 
Q 2637 3584 2950 3257 
Q 3264 2931 3264 2368 
L 3264 0 
L 2688 0 
L 2688 2266 
Q 2688 2669 2486 2883 
Q 2285 3098 1939 3098 
Q 1581 3098 1373 2874 
Q 1165 2650 1165 2240 
L 1165 0 
L 589 0 
z
" transform="scale(0.015625)"/>
       <path id="JetBrainsMono-Regular-67" d="M 1030 -1152 
L 1030 -627 
L 2022 -627 
Q 2323 -627 2496 -457 
Q 2669 -288 2669 0 
L 2669 320 
L 2682 896 
L 2662 896 
Q 2611 582 2361 412 
Q 2112 243 1734 243 
Q 1190 243 876 588 
Q 563 934 563 1536 
L 563 2278 
Q 563 2880 876 3232 
Q 1190 3584 1734 3584 
Q 2112 3584 2361 3405 
Q 2611 3226 2662 2912 
L 2675 2912 
L 2675 3520 
L 3245 3520 
L 3245 0 
Q 3245 -531 2915 -841 
Q 2586 -1152 2016 -1152 
L 1030 -1152 
z
M 1907 723 
Q 2266 723 2470 947 
Q 2675 1171 2675 1568 
L 2675 2240 
Q 2675 2637 2470 2861 
Q 2266 3085 1907 3085 
Q 1542 3085 1340 2873 
Q 1139 2662 1139 2304 
L 1139 1504 
Q 1139 1146 1340 934 
Q 1542 723 1907 723 
z
" transform="scale(0.015625)"/>
      </defs>
      <use xlink:href="#JetBrainsMono-Regular-52"/>
      <use xlink:href="#JetBrainsMono-Regular-61" transform="translate(59.999985 0)"/>
      <use xlink:href="#JetBrainsMono-Regular-74" transform="translate(119.999969 0)"/>
      <use xlink:href="#JetBrainsMono-Regular-69" transform="translate(179.999954 0)"/>
      <use xlink:href="#JetBrainsMono-Regular-6e" transform="translate(239.999939 0)"/>
      <use xlink:href="#JetBrainsMono-Regular-67" transform="translate(299.999924 0)"/>
     </g>
    </g>
   </g>
   <g id="patch_3">
    <path d="M 55.296 324.72 
L 55.296 55.44 
" style="fill: none; stroke: #d8c8ef; stroke-width: 0.8; stroke-linejoin: miter; stroke-linecap: square"/>
   </g>
   <g id="patch_4">
    <path d="M 55.296 324.72 
L 546.048 324.72 
" style="fill: none; stroke: #d8c8ef; stroke-width: 0.8; stroke-linejoin: miter; stroke-linecap: square"/>
   </g>
   <g id="FillBetweenPolyCollection_1">
    <defs>
     <path id="m254e46a33e" d="M 75.744 -71.28 
L 75.744 -95.933958 
L 77.248535 -97.414571 
L 78.75307 -98.72871 
L 80.257605 -99.882732 
L 81.76214 -100.882997 
L 83.266676 -101.735863 
L 84.771211 -102.447689 
L 86.275746 -103.024831 
L 87.780281 -103.47365 
L 89.284816 -103.800503 
L 90.789351 -104.011749 
L 92.293886 -104.113746 
L 93.798421 -104.112853 
L 95.302957 -104.015427 
L 96.807492 -103.827828 
L 98.312027 -103.556414 
L 99.816562 -103.207543 
L 101.321097 -102.787574 
L 102.825632 -102.302864 
L 104.330167 -101.759773 
L 105.834702 -101.164659 
L 107.339237 -100.523879 
L 108.843773 -99.843794 
L 110.348308 -99.13076 
L 111.852843 -98.391137 
L 113.357378 -97.631282 
L 114.861913 -96.857554 
L 116.366448 -96.076312 
L 117.870983 -95.293914 
L 119.375518 -94.516719 
L 120.880054 -93.751084 
L 122.384589 -93.003368 
L 123.889124 -92.279929 
L 125.393659 -91.587127 
L 126.898194 -90.931319 
L 128.402729 -90.318863 
L 129.907264 -89.756119 
L 131.411799 -89.249444 
L 132.916334 -88.805197 
L 134.42087 -88.429736 
L 135.925405 -88.12942 
L 137.42994 -87.910607 
L 138.934475 -87.779656 
L 140.43901 -87.742924 
L 141.943545 -87.806771 
L 143.44808 -87.977555 
L 144.952615 -88.261633 
L 146.457151 -88.665365 
L 147.961686 -89.195109 
L 149.466221 -89.857223 
L 150.970756 -90.658065 
L 152.475291 -91.603995 
L 153.979826 -92.70137 
L 155.484361 -93.956549 
L 156.988896 -95.37589 
L 158.493431 -96.964936 
L 159.997967 -98.718618 
L 161.502502 -100.624446 
L 163.007037 -102.669779 
L 164.511572 -104.841974 
L 166.016107 -107.128392 
L 167.520642 -109.516388 
L 169.025177 -111.993323 
L 170.529712 -114.546555 
L 172.034247 -117.16344 
L 173.538783 -119.831339 
L 175.043318 -122.53761 
L 176.547853 -125.269609 
L 178.052388 -128.014697 
L 179.556923 -130.760231 
L 181.061458 -133.49357 
L 182.565993 -136.202072 
L 184.070528 -138.873095 
L 185.575064 -141.493997 
L 187.079599 -144.052138 
L 188.584134 -146.534874 
L 190.088669 -148.929566 
L 191.593204 -151.22357 
L 193.097739 -153.404245 
L 194.602274 -155.45895 
L 196.106809 -157.375043 
L 197.611344 -159.139882 
L 199.11588 -160.741162 
L 200.620415 -162.176257 
L 202.12495 -163.453439 
L 203.629485 -164.581562 
L 205.13402 -165.569481 
L 206.638555 -166.426049 
L 208.14309 -167.16012 
L 209.647625 -167.780548 
L 211.152161 -168.296187 
L 212.656696 -168.71589 
L 214.161231 -169.048512 
L 215.665766 -169.302906 
L 217.170301 -169.487927 
L 218.674836 -169.612428 
L 220.179371 -169.685264 
L 221.683906 -169.715287 
L 223.188441 -169.711352 
L 224.692977 -169.682313 
L 226.197512 -169.637024 
L 227.702047 -169.584338 
L 229.206582 -169.53311 
L 230.711117 -169.492194 
L 232.215652 -169.470442 
L 233.720187 -169.47671 
L 235.224722 -169.519851 
L 236.729258 -169.608719 
L 238.233793 -169.752168 
L 239.738328 -169.959009 
L 241.242863 -170.233936 
L 242.747398 -170.574125 
L 244.251933 -170.975953 
L 245.756468 -171.435796 
L 247.261003 -171.95003 
L 248.765538 -172.515032 
L 250.270074 -173.127178 
L 251.774609 -173.782844 
L 253.279144 -174.478408 
L 254.783679 -175.210245 
L 256.288214 -175.974732 
L 257.792749 -176.768245 
L 259.297284 -177.58716 
L 260.801819 -178.427855 
L 262.306355 -179.286705 
L 263.81089 -180.160087 
L 265.315425 -181.044377 
L 266.81996 -181.935952 
L 268.324495 -182.831188 
L 269.82903 -183.726462 
L 271.333565 -184.618149 
L 272.8381 -185.502627 
L 274.342635 -186.376271 
L 275.847171 -187.235459 
L 277.351706 -188.076566 
L 278.856241 -188.895969 
L 280.360776 -189.690046 
L 281.865311 -190.456218 
L 283.369846 -191.1951 
L 284.874381 -191.907914 
L 286.378916 -192.595881 
L 287.883452 -193.260221 
L 289.387987 -193.902157 
L 290.892522 -194.522908 
L 292.397057 -195.123698 
L 293.901592 -195.705745 
L 295.406127 -196.270273 
L 296.910662 -196.818501 
L 298.415197 -197.351651 
L 299.919732 -197.870945 
L 301.424268 -198.377602 
L 302.928803 -198.872846 
L 304.433338 -199.357896 
L 305.937873 -199.833974 
L 307.442408 -200.302301 
L 308.946943 -200.764098 
L 310.451478 -201.220586 
L 311.956013 -201.672987 
L 313.460548 -202.122522 
L 314.965084 -202.570411 
L 316.469619 -203.017877 
L 317.974154 -203.466139 
L 319.478689 -203.91642 
L 320.983224 -204.369941 
L 322.487759 -204.828165 
L 323.992294 -205.293831 
L 325.496829 -205.770099 
L 327.001365 -206.260126 
L 328.5059 -206.767071 
L 330.010435 -207.294091 
L 331.51497 -207.844346 
L 333.019505 -208.420992 
L 334.52404 -209.027189 
L 336.028575 -209.666095 
L 337.53311 -210.340867 
L 339.037645 -211.054665 
L 340.542181 -211.810646 
L 342.046716 -212.611968 
L 343.551251 -213.461791 
L 345.055786 -214.363271 
L 346.560321 -215.319568 
L 348.064856 -216.333839 
L 349.569391 -217.409243 
L 351.073926 -218.548938 
L 352.578462 -219.756082 
L 354.082997 -221.033833 
L 355.587532 -222.38535 
L 357.092067 -223.813791 
L 358.596602 -225.322315 
L 360.101137 -226.914078 
L 361.605672 -228.59224 
L 363.110207 -230.359246 
L 364.614742 -232.210843 
L 366.119278 -234.139105 
L 367.623813 -236.136072 
L 369.128348 -238.193782 
L 370.632883 -240.304272 
L 372.137418 -242.459582 
L 373.641953 -244.65175 
L 375.146488 -246.872814 
L 376.651023 -249.114812 
L 378.155559 -251.369783 
L 379.660094 -253.629765 
L 381.164629 -255.886796 
L 382.669164 -258.132915 
L 384.173699 -260.360159 
L 385.678234 -262.560568 
L 387.182769 -264.726179 
L 388.687304 -266.849031 
L 390.191839 -268.921163 
L 391.696375 -270.934611 
L 393.20091 -272.881416 
L 394.705445 -274.753614 
L 396.20998 -276.543245 
L 397.714515 -278.242347 
L 399.21905 -279.842957 
L 400.723585 -281.337115 
L 402.22812 -282.716859 
L 403.732656 -283.97462 
L 405.237191 -285.110209 
L 406.741726 -286.129991 
L 408.246261 -287.040558 
L 409.750796 -287.848502 
L 411.255331 -288.560414 
L 412.759866 -289.182887 
L 414.264401 -289.722512 
L 415.768936 -290.185883 
L 417.273472 -290.57959 
L 418.778007 -290.910226 
L 420.282542 -291.184382 
L 421.787077 -291.408652 
L 423.291612 -291.589626 
L 424.796147 -291.733897 
L 426.300682 -291.848057 
L 427.805217 -291.938698 
L 429.309753 -292.012411 
L 430.814288 -292.07579 
L 432.318823 -292.135425 
L 433.823358 -292.19791 
L 435.327893 -292.269835 
L 436.832428 -292.357793 
L 438.336963 -292.468376 
L 439.841498 -292.608176 
L 441.346033 -292.783785 
L 442.850569 -293.001795 
L 444.355104 -293.268728 
L 445.859639 -293.58767 
L 447.364174 -293.956796 
L 448.868709 -294.373906 
L 450.373244 -294.836795 
L 451.877779 -295.343263 
L 453.382314 -295.891107 
L 454.886849 -296.478124 
L 456.391385 -297.102112 
L 457.89592 -297.760869 
L 459.400455 -298.452193 
L 460.90499 -299.173882 
L 462.409525 -299.923733 
L 463.91406 -300.699543 
L 465.418595 -301.499112 
L 466.92313 -302.320235 
L 468.427666 -303.160712 
L 469.932201 -304.01834 
L 471.436736 -304.890917 
L 472.941271 -305.776239 
L 474.445806 -306.672106 
L 475.950341 -307.576315 
L 477.454876 -308.486663 
L 478.959411 -309.400949 
L 480.463946 -310.31697 
L 481.968482 -311.232523 
L 483.473017 -312.145407 
L 484.977552 -313.053419 
L 486.482087 -313.954358 
L 487.986622 -314.84602 
L 489.491157 -315.726203 
L 490.995692 -316.592706 
L 492.500227 -317.443325 
L 494.004763 -318.27586 
L 495.509298 -319.088106 
L 497.013833 -319.877863 
L 498.518368 -320.642928 
L 500.022903 -321.381098 
L 501.527438 -322.090172 
L 503.031973 -322.767947 
L 504.536508 -323.412221 
L 506.041043 -324.020791 
L 507.545579 -324.591455 
L 509.050114 -325.122012 
L 510.554649 -325.610258 
L 512.059184 -326.053992 
L 513.563719 -326.451011 
L 515.068254 -326.799114 
L 516.572789 -327.096097 
L 518.077324 -327.339758 
L 519.58186 -327.527895 
L 521.086395 -327.658307 
L 522.59093 -327.72879 
L 524.095465 -327.737143 
L 525.6 -327.681163 
L 525.6 -71.28 
L 525.6 -71.28 
L 524.095465 -71.28 
L 522.59093 -71.28 
L 521.086395 -71.28 
L 519.58186 -71.28 
L 518.077324 -71.28 
L 516.572789 -71.28 
L 515.068254 -71.28 
L 513.563719 -71.28 
L 512.059184 -71.28 
L 510.554649 -71.28 
L 509.050114 -71.28 
L 507.545579 -71.28 
L 506.041043 -71.28 
L 504.536508 -71.28 
L 503.031973 -71.28 
L 501.527438 -71.28 
L 500.022903 -71.28 
L 498.518368 -71.28 
L 497.013833 -71.28 
L 495.509298 -71.28 
L 494.004763 -71.28 
L 492.500227 -71.28 
L 490.995692 -71.28 
L 489.491157 -71.28 
L 487.986622 -71.28 
L 486.482087 -71.28 
L 484.977552 -71.28 
L 483.473017 -71.28 
L 481.968482 -71.28 
L 480.463946 -71.28 
L 478.959411 -71.28 
L 477.454876 -71.28 
L 475.950341 -71.28 
L 474.445806 -71.28 
L 472.941271 -71.28 
L 471.436736 -71.28 
L 469.932201 -71.28 
L 468.427666 -71.28 
L 466.92313 -71.28 
L 465.418595 -71.28 
L 463.91406 -71.28 
L 462.409525 -71.28 
L 460.90499 -71.28 
L 459.400455 -71.28 
L 457.89592 -71.28 
L 456.391385 -71.28 
L 454.886849 -71.28 
L 453.382314 -71.28 
L 451.877779 -71.28 
L 450.373244 -71.28 
L 448.868709 -71.28 
L 447.364174 -71.28 
L 445.859639 -71.28 
L 444.355104 -71.28 
L 442.850569 -71.28 
L 441.346033 -71.28 
L 439.841498 -71.28 
L 438.336963 -71.28 
L 436.832428 -71.28 
L 435.327893 -71.28 
L 433.823358 -71.28 
L 432.318823 -71.28 
L 430.814288 -71.28 
L 429.309753 -71.28 
L 427.805217 -71.28 
L 426.300682 -71.28 
L 424.796147 -71.28 
L 423.291612 -71.28 
L 421.787077 -71.28 
L 420.282542 -71.28 
L 418.778007 -71.28 
L 417.273472 -71.28 
L 415.768936 -71.28 
L 414.264401 -71.28 
L 412.759866 -71.28 
L 411.255331 -71.28 
L 409.750796 -71.28 
L 408.246261 -71.28 
L 406.741726 -71.28 
L 405.237191 -71.28 
L 403.732656 -71.28 
L 402.22812 -71.28 
L 400.723585 -71.28 
L 399.21905 -71.28 
L 397.714515 -71.28 
L 396.20998 -71.28 
L 394.705445 -71.28 
L 393.20091 -71.28 
L 391.696375 -71.28 
L 390.191839 -71.28 
L 388.687304 -71.28 
L 387.182769 -71.28 
L 385.678234 -71.28 
L 384.173699 -71.28 
L 382.669164 -71.28 
L 381.164629 -71.28 
L 379.660094 -71.28 
L 378.155559 -71.28 
L 376.651023 -71.28 
L 375.146488 -71.28 
L 373.641953 -71.28 
L 372.137418 -71.28 
L 370.632883 -71.28 
L 369.128348 -71.28 
L 367.623813 -71.28 
L 366.119278 -71.28 
L 364.614742 -71.28 
L 363.110207 -71.28 
L 361.605672 -71.28 
L 360.101137 -71.28 
L 358.596602 -71.28 
L 357.092067 -71.28 
L 355.587532 -71.28 
L 354.082997 -71.28 
L 352.578462 -71.28 
L 351.073926 -71.28 
L 349.569391 -71.28 
L 348.064856 -71.28 
L 346.560321 -71.28 
L 345.055786 -71.28 
L 343.551251 -71.28 
L 342.046716 -71.28 
L 340.542181 -71.28 
L 339.037645 -71.28 
L 337.53311 -71.28 
L 336.028575 -71.28 
L 334.52404 -71.28 
L 333.019505 -71.28 
L 331.51497 -71.28 
L 330.010435 -71.28 
L 328.5059 -71.28 
L 327.001365 -71.28 
L 325.496829 -71.28 
L 323.992294 -71.28 
L 322.487759 -71.28 
L 320.983224 -71.28 
L 319.478689 -71.28 
L 317.974154 -71.28 
L 316.469619 -71.28 
L 314.965084 -71.28 
L 313.460548 -71.28 
L 311.956013 -71.28 
L 310.451478 -71.28 
L 308.946943 -71.28 
L 307.442408 -71.28 
L 305.937873 -71.28 
L 304.433338 -71.28 
L 302.928803 -71.28 
L 301.424268 -71.28 
L 299.919732 -71.28 
L 298.415197 -71.28 
L 296.910662 -71.28 
L 295.406127 -71.28 
L 293.901592 -71.28 
L 292.397057 -71.28 
L 290.892522 -71.28 
L 289.387987 -71.28 
L 287.883452 -71.28 
L 286.378916 -71.28 
L 284.874381 -71.28 
L 283.369846 -71.28 
L 281.865311 -71.28 
L 280.360776 -71.28 
L 278.856241 -71.28 
L 277.351706 -71.28 
L 275.847171 -71.28 
L 274.342635 -71.28 
L 272.8381 -71.28 
L 271.333565 -71.28 
L 269.82903 -71.28 
L 268.324495 -71.28 
L 266.81996 -71.28 
L 265.315425 -71.28 
L 263.81089 -71.28 
L 262.306355 -71.28 
L 260.801819 -71.28 
L 259.297284 -71.28 
L 257.792749 -71.28 
L 256.288214 -71.28 
L 254.783679 -71.28 
L 253.279144 -71.28 
L 251.774609 -71.28 
L 250.270074 -71.28 
L 248.765538 -71.28 
L 247.261003 -71.28 
L 245.756468 -71.28 
L 244.251933 -71.28 
L 242.747398 -71.28 
L 241.242863 -71.28 
L 239.738328 -71.28 
L 238.233793 -71.28 
L 236.729258 -71.28 
L 235.224722 -71.28 
L 233.720187 -71.28 
L 232.215652 -71.28 
L 230.711117 -71.28 
L 229.206582 -71.28 
L 227.702047 -71.28 
L 226.197512 -71.28 
L 224.692977 -71.28 
L 223.188441 -71.28 
L 221.683906 -71.28 
L 220.179371 -71.28 
L 218.674836 -71.28 
L 217.170301 -71.28 
L 215.665766 -71.28 
L 214.161231 -71.28 
L 212.656696 -71.28 
L 211.152161 -71.28 
L 209.647625 -71.28 
L 208.14309 -71.28 
L 206.638555 -71.28 
L 205.13402 -71.28 
L 203.629485 -71.28 
L 202.12495 -71.28 
L 200.620415 -71.28 
L 199.11588 -71.28 
L 197.611344 -71.28 
L 196.106809 -71.28 
L 194.602274 -71.28 
L 193.097739 -71.28 
L 191.593204 -71.28 
L 190.088669 -71.28 
L 188.584134 -71.28 
L 187.079599 -71.28 
L 185.575064 -71.28 
L 184.070528 -71.28 
L 182.565993 -71.28 
L 181.061458 -71.28 
L 179.556923 -71.28 
L 178.052388 -71.28 
L 176.547853 -71.28 
L 175.043318 -71.28 
L 173.538783 -71.28 
L 172.034247 -71.28 
L 170.529712 -71.28 
L 169.025177 -71.28 
L 167.520642 -71.28 
L 166.016107 -71.28 
L 164.511572 -71.28 
L 163.007037 -71.28 
L 161.502502 -71.28 
L 159.997967 -71.28 
L 158.493431 -71.28 
L 156.988896 -71.28 
L 155.484361 -71.28 
L 153.979826 -71.28 
L 152.475291 -71.28 
L 150.970756 -71.28 
L 149.466221 -71.28 
L 147.961686 -71.28 
L 146.457151 -71.28 
L 144.952615 -71.28 
L 143.44808 -71.28 
L 141.943545 -71.28 
L 140.43901 -71.28 
L 138.934475 -71.28 
L 137.42994 -71.28 
L 135.925405 -71.28 
L 134.42087 -71.28 
L 132.916334 -71.28 
L 131.411799 -71.28 
L 129.907264 -71.28 
L 128.402729 -71.28 
L 126.898194 -71.28 
L 125.393659 -71.28 
L 123.889124 -71.28 
L 122.384589 -71.28 
L 120.880054 -71.28 
L 119.375518 -71.28 
L 117.870983 -71.28 
L 116.366448 -71.28 
L 114.861913 -71.28 
L 113.357378 -71.28 
L 111.852843 -71.28 
L 110.348308 -71.28 
L 108.843773 -71.28 
L 107.339237 -71.28 
L 105.834702 -71.28 
L 104.330167 -71.28 
L 102.825632 -71.28 
L 101.321097 -71.28 
L 99.816562 -71.28 
L 98.312027 -71.28 
L 96.807492 -71.28 
L 95.302957 -71.28 
L 93.798421 -71.28 
L 92.293886 -71.28 
L 90.789351 -71.28 
L 89.284816 -71.28 
L 87.780281 -71.28 
L 86.275746 -71.28 
L 84.771211 -71.28 
L 83.266676 -71.28 
L 81.76214 -71.28 
L 80.257605 -71.28 
L 78.75307 -71.28 
L 77.248535 -71.28 
L 75.744 -71.28 
z
" style="stroke: #8b5cf6; stroke-opacity: 0.12"/>
    </defs>
    <g clip-path="url(#pb0b96ac388)">
     <use xlink:href="#m254e46a33e" x="0" y="396" style="fill: #8b5cf6; fill-opacity: 0.12; stroke: #8b5cf6; stroke-opacity: 0.12"/>
    </g>
   </g>
   <g id="text_20">
    <!-- 248 -->
    <g style="fill: #8b5cf6" transform="translate(528.6 65.318837) scale(0.12 -0.12)">
     <defs>
      <path id="JetBrainsMono-Bold-32" d="M 474 0 
L 474 723 
L 2157 2445 
Q 2566 2874 2566 3315 
Q 2566 3629 2384 3824 
Q 2202 4019 1894 4019 
Q 1581 4019 1392 3817 
Q 1203 3616 1203 3283 
L 403 3283 
Q 403 3718 595 4044 
Q 787 4371 1126 4553 
Q 1466 4736 1914 4736 
Q 2355 4736 2688 4563 
Q 3021 4390 3203 4080 
Q 3386 3770 3386 3354 
Q 3386 2995 3216 2636 
Q 3046 2278 2656 1894 
L 1478 723 
L 3443 723 
L 3443 0 
L 474 0 
z
" transform="scale(0.015625)"/>
      <path id="JetBrainsMono-Bold-34" d="M 2445 0 
L 2445 928 
L 378 928 
L 378 2086 
L 2106 4672 
L 2995 4672 
L 1146 1875 
L 1146 1632 
L 2445 1632 
L 2445 2688 
L 3251 2688 
L 3251 0 
L 2445 0 
z
" transform="scale(0.015625)"/>
      <path id="JetBrainsMono-Bold-38" d="M 1920 -64 
Q 1453 -64 1094 112 
Q 736 288 537 598 
Q 339 909 339 1318 
Q 339 1747 585 2067 
Q 832 2387 1229 2470 
L 1229 2483 
Q 890 2554 682 2829 
Q 474 3104 474 3482 
Q 474 3853 656 4134 
Q 838 4416 1164 4576 
Q 1491 4736 1920 4736 
Q 2349 4736 2678 4576 
Q 3008 4416 3190 4134 
Q 3373 3853 3373 3482 
Q 3373 3104 3161 2829 
Q 2950 2554 2611 2483 
L 2611 2470 
Q 3008 2387 3254 2067 
Q 3501 1747 3501 1318 
Q 3501 909 3302 598 
Q 3104 288 2745 112 
Q 2387 -64 1920 -64 
z
M 1920 2758 
Q 2221 2758 2406 2940 
Q 2592 3123 2592 3411 
Q 2592 3706 2406 3888 
Q 2221 4070 1920 4070 
Q 1619 4070 1433 3888 
Q 1248 3706 1248 3411 
Q 1248 3123 1433 2940 
Q 1619 2758 1920 2758 
z
M 1920 614 
Q 2272 614 2496 819 
Q 2720 1024 2720 1357 
Q 2720 1696 2496 1904 
Q 2272 2112 1920 2112 
Q 1568 2112 1344 1904 
Q 1120 1696 1120 1357 
Q 1120 1024 1344 819 
Q 1568 614 1920 614 
z
" transform="scale(0.015625)"/>
     </defs>
     <use xlink:href="#JetBrainsMono-Bold-32"/>
     <use xlink:href="#JetBrainsMono-Bold-34" transform="translate(59.999985 0)"/>
     <use xlink:href="#JetBrainsMono-Bold-38" transform="translate(119.999969 0)"/>
    </g>
   </g>
   <g id="text_21">
    <!-- Rating History -->
    <g style="fill: #8b5cf6" transform="translate(55.296 50.44) scale(0.17 -0.17)">
     <defs>
      <path id="JetBrainsMono-Bold-52" d="M 493 0 
L 493 4672 
L 1965 4672 
Q 2432 4672 2774 4499 
Q 3117 4326 3309 4016 
Q 3501 3706 3501 3283 
Q 3501 2816 3270 2467 
Q 3040 2118 2650 1971 
L 3565 0 
L 2688 0 
L 1869 1856 
L 1286 1856 
L 1286 0 
L 493 0 
z
M 1286 2560 
L 1965 2560 
Q 2304 2560 2496 2745 
Q 2688 2931 2688 3258 
Q 2688 3584 2493 3776 
Q 2298 3968 1965 3968 
L 1286 3968 
L 1286 2560 
z
" transform="scale(0.015625)"/>
      <path id="JetBrainsMono-Bold-61" d="M 1530 -64 
Q 992 -64 681 240 
Q 371 544 371 1037 
Q 371 1549 723 1853 
Q 1075 2157 1690 2157 
L 2547 2157 
L 2547 2406 
Q 2547 2938 1926 2938 
Q 1645 2938 1478 2829 
Q 1312 2720 1293 2522 
L 525 2522 
Q 550 2995 924 3289 
Q 1299 3584 1933 3584 
Q 2605 3584 2976 3270 
Q 3347 2957 3347 2387 
L 3347 0 
L 2566 0 
L 2566 659 
Q 2522 320 2246 128 
Q 1971 -64 1530 -64 
z
M 1786 589 
Q 2138 589 2342 761 
Q 2547 934 2547 1222 
L 2547 1638 
L 1728 1638 
Q 1466 1638 1312 1491 
Q 1158 1344 1158 1114 
Q 1158 877 1321 733 
Q 1485 589 1786 589 
z
" transform="scale(0.015625)"/>
      <path id="JetBrainsMono-Bold-74" d="M 2272 0 
Q 1779 0 1488 285 
Q 1197 570 1197 1056 
L 1197 2797 
L 224 2797 
L 224 3520 
L 1197 3520 
L 1197 4512 
L 2003 4512 
L 2003 3520 
L 3405 3520 
L 3405 2797 
L 2003 2797 
L 2003 1075 
Q 2003 922 2089 822 
Q 2176 723 2330 723 
L 3373 723 
L 3373 0 
L 2272 0 
z
" transform="scale(0.015625)"/>
      <path id="JetBrainsMono-Bold-69" d="M 486 0 
L 486 723 
L 1690 723 
L 1690 2797 
L 614 2797 
L 614 3520 
L 2490 3520 
L 2490 723 
L 3571 723 
L 3571 0 
L 486 0 
z
M 2032 4109 
Q 1789 4109 1648 4233 
Q 1507 4358 1507 4570 
Q 1507 4781 1648 4905 
Q 1789 5030 2032 5030 
Q 2275 5030 2416 4905 
Q 2557 4781 2557 4570 
Q 2557 4358 2416 4233 
Q 2275 4109 2032 4109 
z
" transform="scale(0.015625)"/>
      <path id="JetBrainsMono-Bold-6e" d="M 493 0 
L 493 3520 
L 1274 3520 
L 1274 2861 
Q 1338 3194 1587 3389 
Q 1837 3584 2221 3584 
Q 2739 3584 3049 3238 
Q 3360 2893 3360 2310 
L 3360 0 
L 2560 0 
L 2560 2214 
Q 2560 2541 2390 2717 
Q 2221 2893 1933 2893 
Q 1632 2893 1462 2713 
Q 1293 2534 1293 2202 
L 1293 0 
L 493 0 
z
" transform="scale(0.015625)"/>
      <path id="JetBrainsMono-Bold-67" d="M 973 -1152 
L 973 -486 
L 1965 -486 
Q 2246 -486 2400 -336 
Q 2554 -186 2554 70 
L 2554 282 
L 2566 832 
Q 2458 538 2218 374 
Q 1978 211 1632 211 
Q 1094 211 777 572 
Q 461 934 461 1555 
L 461 2240 
Q 461 2854 777 3219 
Q 1094 3584 1632 3584 
Q 1978 3584 2218 3421 
Q 2458 3258 2566 2957 
L 2566 3520 
L 3347 3520 
L 3347 51 
Q 3347 -506 2979 -829 
Q 2611 -1152 1978 -1152 
L 973 -1152 
z
M 1901 896 
Q 2208 896 2377 1078 
Q 2547 1261 2547 1587 
L 2547 2202 
Q 2547 2528 2377 2710 
Q 2208 2893 1901 2893 
Q 1594 2893 1427 2717 
Q 1261 2541 1261 2227 
L 1261 1562 
Q 1261 1248 1427 1072 
Q 1594 896 1901 896 
z
" transform="scale(0.015625)"/>
      <path id="JetBrainsMono-Bold-20" transform="scale(0.015625)"/>
      <path id="JetBrainsMono-Bold-48" d="M 493 0 
L 493 4672 
L 1293 4672 
L 1293 2778 
L 2547 2778 
L 2547 4672 
L 3347 4672 
L 3347 0 
L 2547 0 
L 2547 2054 
L 1293 2054 
L 1293 0 
L 493 0 
z
" transform="scale(0.015625)"/>
      <path id="JetBrainsMono-Bold-73" d="M 1773 -58 
Q 1146 -58 781 227 
Q 416 512 416 998 
L 1203 998 
Q 1203 794 1353 685 
Q 1504 576 1773 576 
L 2054 576 
Q 2342 576 2499 685 
Q 2656 794 2656 998 
Q 2656 1190 2547 1283 
Q 2438 1376 2214 1408 
L 1338 1523 
Q 915 1581 688 1849 
Q 461 2118 461 2547 
Q 461 3046 793 3312 
Q 1126 3578 1754 3578 
L 2048 3578 
Q 2637 3578 2995 3309 
Q 3354 3040 3366 2592 
L 2573 2592 
Q 2566 2758 2425 2857 
Q 2285 2957 2048 2957 
L 1754 2957 
Q 1498 2957 1363 2851 
Q 1229 2746 1229 2566 
Q 1229 2406 1328 2329 
Q 1427 2253 1619 2234 
L 2445 2118 
Q 2931 2061 3177 1776 
Q 3424 1491 3424 1011 
Q 3424 499 3075 220 
Q 2726 -58 2054 -58 
L 1773 -58 
z
" transform="scale(0.015625)"/>
      <path id="JetBrainsMono-Bold-6f" d="M 1920 -58 
Q 1242 -58 845 323 
Q 448 704 448 1350 
L 448 2170 
Q 448 2822 845 3200 
Q 1242 3578 1920 3578 
Q 2598 3578 2995 3200 
Q 3392 2822 3392 2170 
L 3392 1350 
Q 3392 704 2995 323 
Q 2598 -58 1920 -58 
z
M 1920 640 
Q 2240 640 2416 816 
Q 2592 992 2592 1325 
L 2592 2195 
Q 2592 2528 2416 2704 
Q 2240 2880 1920 2880 
Q 1600 2880 1424 2704 
Q 1248 2528 1248 2195 
L 1248 1325 
Q 1248 992 1424 816 
Q 1600 640 1920 640 
z
" transform="scale(0.015625)"/>
      <path id="JetBrainsMono-Bold-72" d="M 621 0 
L 621 3520 
L 1402 3520 
L 1402 2835 
Q 1466 3181 1718 3382 
Q 1971 3584 2374 3584 
Q 2912 3584 3213 3238 
Q 3514 2893 3514 2272 
L 3514 1939 
L 2714 1939 
L 2714 2234 
Q 2714 2554 2547 2723 
Q 2381 2893 2074 2893 
Q 1754 2893 1587 2701 
Q 1421 2509 1421 2157 
L 1421 0 
L 621 0 
z
" transform="scale(0.015625)"/>
      <path id="JetBrainsMono-Bold-79" d="M 1056 -1152 
L 1555 192 
L 230 3520 
L 1075 3520 
L 1754 1722 
Q 1811 1562 1868 1373 
Q 1926 1184 1952 1024 
Q 1971 1184 2025 1373 
Q 2080 1562 2138 1722 
L 2765 3520 
L 3610 3520 
L 1894 -1152 
L 1056 -1152 
z
" transform="scale(0.015625)"/>
     </defs>
     <use xlink:href="#JetBrainsMono-Bold-52"/>
     <use xlink:href="#JetBrainsMono-Bold-61" transform="translate(59.999985 0)"/>
     <use xlink:href="#JetBrainsMono-Bold-74" transform="translate(119.999969 0)"/>
     <use xlink:href="#JetBrainsMono-Bold-69" transform="translate(179.999954 0)"/>
     <use xlink:href="#JetBrainsMono-Bold-6e" transform="translate(239.999939 0)"/>
     <use xlink:href="#JetBrainsMono-Bold-67" transform="translate(299.999924 0)"/>
     <use xlink:href="#JetBrainsMono-Bold-20" transform="translate(359.999908 0)"/>
     <use xlink:href="#JetBrainsMono-Bold-48" transform="translate(419.999893 0)"/>
     <use xlink:href="#JetBrainsMono-Bold-69" transform="translate(479.999878 0)"/>
     <use xlink:href="#JetBrainsMono-Bold-73" transform="translate(539.999863 0)"/>
     <use xlink:href="#JetBrainsMono-Bold-74" transform="translate(599.999847 0)"/>
     <use xlink:href="#JetBrainsMono-Bold-6f" transform="translate(659.999832 0)"/>
     <use xlink:href="#JetBrainsMono-Bold-72" transform="translate(719.999817 0)"/>
     <use xlink:href="#JetBrainsMono-Bold-79" transform="translate(779.999802 0)"/>
    </g>
   </g>
   <g id="line2d_37">
    <path d="M 75.744 300.066042 
L 77.248535 298.585429 
L 78.75307 297.27129 
L 80.257605 296.117268 
L 81.76214 295.117003 
L 83.266676 294.264137 
L 84.771211 293.552311 
L 86.275746 292.975169 
L 87.780281 292.52635 
L 89.284816 292.199497 
L 92.293886 291.886254 
L 95.302957 291.984573 
L 98.312027 292.443586 
L 101.321097 293.212426 
L 104.330167 294.240227 
L 107.339237 295.476121 
L 111.852843 297.608863 
L 125.393659 304.412873 
L 128.402729 305.681137 
L 131.411799 306.750556 
L 134.42087 307.570264 
L 137.42994 308.089393 
L 140.43901 308.257076 
L 143.44808 308.022445 
L 144.952615 307.738367 
L 146.457151 307.334635 
L 147.961686 306.804891 
L 149.466221 306.142777 
L 150.970756 305.341935 
L 152.475291 304.396005 
L 153.979826 303.29863 
L 155.484361 302.043451 
L 156.988896 300.62411 
L 158.493431 299.035064 
L 161.502502 295.375554 
L 164.511572 291.158026 
L 167.520642 286.483612 
L 170.529712 281.453445 
L 175.043318 273.46239 
L 185.575064 254.506003 
L 188.584134 249.465126 
L 191.593204 244.77643 
L 194.602274 240.54105 
L 197.611344 236.860118 
L 199.11588 235.258838 
L 200.620415 233.823743 
L 202.12495 232.546561 
L 203.629485 231.418438 
L 206.638555 229.573951 
L 209.647625 228.219452 
L 212.656696 227.28411 
L 215.665766 226.697094 
L 218.674836 226.387572 
L 221.683906 226.284713 
L 226.197512 226.362976 
L 233.720187 226.52329 
L 236.729258 226.391281 
L 239.738328 226.040991 
L 242.747398 225.425875 
L 245.756468 224.564204 
L 248.765538 223.484968 
L 251.774609 222.217156 
L 256.288214 220.025268 
L 260.801819 217.572145 
L 268.324495 213.168812 
L 277.351706 207.923434 
L 281.865311 205.543782 
L 286.378916 203.404119 
L 290.892522 201.477092 
L 296.910662 199.181499 
L 302.928803 197.127154 
L 311.956013 194.327013 
L 327.001365 189.739874 
L 331.51497 188.155654 
L 336.028575 186.333905 
L 340.542181 184.189354 
L 343.551251 182.538209 
L 346.560321 180.680432 
L 349.569391 178.590757 
L 352.578462 176.243918 
L 355.587532 173.61465 
L 358.596602 170.677685 
L 361.605672 167.40776 
L 364.614742 163.789157 
L 367.623813 159.863928 
L 372.137418 153.540418 
L 378.155559 144.630217 
L 385.678234 133.439432 
L 390.191839 127.078837 
L 393.20091 123.118584 
L 396.20998 119.456755 
L 399.21905 116.157043 
L 402.22812 113.283141 
L 405.237191 110.889791 
L 408.246261 108.959442 
L 411.255331 107.439586 
L 414.264401 106.277488 
L 417.273472 105.42041 
L 420.282542 104.815618 
L 423.291612 104.410374 
L 427.805217 104.061302 
L 439.841498 103.391824 
L 442.850569 102.998205 
L 445.859639 102.41233 
L 448.868709 101.626094 
L 451.877779 100.656737 
L 456.391385 98.897888 
L 460.90499 96.826118 
L 465.418595 94.500888 
L 471.436736 91.109083 
L 480.463946 85.68303 
L 489.491157 80.273797 
L 495.509298 76.911894 
L 500.022903 74.618902 
L 504.536508 72.587779 
L 509.050114 70.877988 
L 512.059184 69.946008 
L 515.068254 69.200886 
L 518.077324 68.660242 
L 521.086395 68.341693 
L 524.095465 68.262857 
L 525.6 68.318837 
L 525.6 68.318837 
" clip-path="url(#pb0b96ac388)" style="fill: none; stroke: #8b5cf6; stroke-width: 1.2; stroke-linecap: round"/>
   </g>
   <g id="PathCollection_1">
    <defs>
     <path id="ma6a76f7080" d="M 0 2.236068 
C 0.593012 2.236068 1.161816 2.000462 1.581139 1.581139 
C 2.000462 1.161816 2.236068 0.593012 2.236068 0 
C 2.236068 -0.593012 2.000462 -1.161816 1.581139 -1.581139 
C 1.161816 -2.000462 0.593012 -2.236068 0 -2.236068 
C -0.593012 -2.236068 -1.161816 -2.000462 -1.581139 -1.581139 
C -2.000462 -1.161816 -2.236068 -0.593012 -2.236068 0 
C -2.236068 0.593012 -2.000462 1.161816 -1.581139 1.581139 
C -1.161816 2.000462 -0.593012 2.236068 0 2.236068 
z
" style="stroke: #ffffff; stroke-width: 0.8"/>
    </defs>
    <g clip-path="url(#pb0b96ac388)">
     <use xlink:href="#ma6a76f7080" x="525.6" y="68.318837" style="fill: #8b5cf6; stroke: #ffffff; stroke-width: 0.8"/>
    </g>
   </g>
  </g>
  <g id="axes_2">
   <g id="text_22">
    <!-- Rating -->
    <g style="fill: #9b8bb8" transform="translate(565.7472 48.312) scale(0.11 -0.11)">
     <use xlink:href="#JetBrainsMono-Regular-52"/>
     <use xlink:href="#JetBrainsMono-Regular-61" transform="translate(59.999985 0)"/>
     <use xlink:href="#JetBrainsMono-Regular-74" transform="translate(119.999969 0)"/>
     <use xlink:href="#JetBrainsMono-Regular-69" transform="translate(179.999954 0)"/>
     <use xlink:href="#JetBrainsMono-Regular-6e" transform="translate(239.999939 0)"/>
     <use xlink:href="#JetBrainsMono-Regular-67" transform="translate(299.999924 0)"/>
    </g>
   </g>
   <g id="text_23">
    <!-- 248 -->
    <g style="fill: #8b5cf6" transform="translate(565.7472 81.548) scale(0.26 -0.26)">
     <use xlink:href="#JetBrainsMono-Bold-32"/>
     <use xlink:href="#JetBrainsMono-Bold-34" transform="translate(59.999985 0)"/>
     <use xlink:href="#JetBrainsMono-Bold-38" transform="translate(119.999969 0)"/>
    </g>
   </g>
   <g id="text_24">
    <!-- Rank -->
    <g style="fill: #9b8bb8" transform="translate(565.7472 119.592) scale(0.11 -0.11)">
     <defs>
      <path id="JetBrainsMono-Regular-6b" d="M 621 0 
L 621 4672 
L 1197 4672 
L 1197 2067 
L 1869 2067 
L 2854 3520 
L 3514 3520 
L 2381 1843 
L 3578 0 
L 2906 0 
L 1882 1568 
L 1197 1568 
L 1197 0 
L 621 0 
z
" transform="scale(0.015625)"/>
     </defs>
     <use xlink:href="#JetBrainsMono-Regular-52"/>
     <use xlink:href="#JetBrainsMono-Regular-61" transform="translate(59.999985 0)"/>
     <use xlink:href="#JetBrainsMono-Regular-6e" transform="translate(119.999969 0)"/>
     <use xlink:href="#JetBrainsMono-Regular-6b" transform="translate(179.999954 0)"/>
    </g>
   </g>
   <g id="text_25">
    <!-- #121,153 -->
    <g style="fill: #8b5cf6" transform="translate(565.7472 148.104) scale(0.14 -0.14)">
     <defs>
      <path id="JetBrainsMono-Bold-23" d="M 493 0 
L 710 1216 
L 224 1216 
L 224 1760 
L 800 1760 
L 998 2912 
L 448 2912 
L 448 3456 
L 1094 3456 
L 1312 4672 
L 1875 4672 
L 1658 3456 
L 2566 3456 
L 2784 4672 
L 3347 4672 
L 3130 3456 
L 3616 3456 
L 3616 2912 
L 3034 2912 
L 2835 1760 
L 3392 1760 
L 3392 1216 
L 2739 1216 
L 2528 0 
L 1965 0 
L 2182 1216 
L 1267 1216 
L 1056 0 
L 493 0 
z
M 1363 1760 
L 2272 1760 
L 2470 2912 
L 1562 2912 
L 1363 1760 
z
" transform="scale(0.015625)"/>
      <path id="JetBrainsMono-Bold-31" d="M 538 0 
L 538 723 
L 1754 723 
L 1754 3898 
L 531 3002 
L 531 3898 
L 1606 4672 
L 2554 4672 
L 2554 723 
L 3533 723 
L 3533 0 
L 538 0 
z
" transform="scale(0.015625)"/>
      <path id="JetBrainsMono-Bold-2c" d="M 1216 -1024 
L 1555 934 
L 2470 934 
L 1984 -1024 
L 1216 -1024 
z
" transform="scale(0.015625)"/>
      <path id="JetBrainsMono-Bold-35" d="M 1894 -64 
Q 1210 -64 803 297 
Q 397 659 397 1280 
L 1197 1280 
Q 1197 986 1385 810 
Q 1574 634 1901 634 
Q 2227 634 2409 810 
Q 2592 986 2592 1299 
L 2592 1606 
Q 2592 1920 2413 2096 
Q 2234 2272 1907 2272 
L 557 2272 
L 557 4672 
L 3219 4672 
L 3219 3949 
L 1312 3949 
L 1318 2976 
L 1946 2976 
Q 2637 2976 3014 2617 
Q 3392 2259 3392 1606 
L 3392 1299 
Q 3392 666 2992 301 
Q 2592 -64 1894 -64 
z
" transform="scale(0.015625)"/>
      <path id="JetBrainsMono-Bold-33" d="M 1875 -64 
Q 1184 -64 781 297 
Q 378 659 378 1280 
L 1184 1280 
Q 1184 986 1369 810 
Q 1555 634 1882 634 
Q 2202 634 2387 810 
Q 2573 986 2573 1280 
L 2573 1632 
Q 2573 1946 2390 2122 
Q 2208 2298 1882 2298 
L 1293 2298 
L 1293 2938 
L 2368 3968 
L 544 3968 
L 544 4672 
L 3245 4672 
L 3245 3994 
L 2170 2963 
Q 2733 2886 3056 2537 
Q 3379 2189 3379 1632 
L 3379 1280 
Q 3379 659 2972 297 
Q 2566 -64 1875 -64 
z
" transform="scale(0.015625)"/>
     </defs>
     <use xlink:href="#JetBrainsMono-Bold-23"/>
     <use xlink:href="#JetBrainsMono-Bold-31" transform="translate(59.999985 0)"/>
     <use xlink:href="#JetBrainsMono-Bold-32" transform="translate(119.999969 0)"/>
     <use xlink:href="#JetBrainsMono-Bold-31" transform="translate(179.999954 0)"/>
     <use xlink:href="#JetBrainsMono-Bold-2c" transform="translate(239.999939 0)"/>
     <use xlink:href="#JetBrainsMono-Bold-31" transform="translate(299.999924 0)"/>
     <use xlink:href="#JetBrainsMono-Bold-35" transform="translate(359.999908 0)"/>
     <use xlink:href="#JetBrainsMono-Bold-33" transform="translate(419.999893 0)"/>
    </g>
   </g>
   <g id="text_26">
    <!-- ▲ +3 -->
    <g style="fill: #4caf50" transform="translate(565.7472 169.488) scale(0.11 -0.11)">
     <defs>
      <path id="JetBrainsMono-Bold-25b2" d="M -64 384 
L 1920 4288 
L 3904 384 
L -64 384 
z
" transform="scale(0.015625)"/>
      <path id="JetBrainsMono-Bold-2b" d="M 1523 589 
L 1523 1741 
L 378 1741 
L 378 2483 
L 1523 2483 
L 1523 3635 
L 2317 3635 
L 2317 2483 
L 3462 2483 
L 3462 1741 
L 2317 1741 
L 2317 589 
L 1523 589 
z
" transform="scale(0.015625)"/>
     </defs>
     <use xlink:href="#JetBrainsMono-Bold-25b2"/>
     <use xlink:href="#JetBrainsMono-Bold-20" transform="translate(59.999985 0)"/>
     <use xlink:href="#JetBrainsMono-Bold-2b" transform="translate(119.999969 0)"/>
     <use xlink:href="#JetBrainsMono-Bold-33" transform="translate(179.999954 0)"/>
    </g>
   </g>
  </g>
 </g>
 <defs>
  <clipPath id="pb0b96ac388">
   <rect x="55.296" y="55.44" width="490.752" height="269.28"/>
  </clipPath>
 </defs>
</svg>
