<?xml version="1.0" encoding="utf-8" standalone="no"?>
<!DOCTYPE svg PUBLIC "-//W3C//DTD SVG 1.1//EN"
  "http://www.w3.org/Graphics/SVG/1.1/DTD/svg11.dtd">
<svg xmlns:xlink="http://www.w3.org/1999/xlink" width="691.2pt" height="396pt" viewBox="0 0 691.2 396" xmlns="http://www.w3.org/2000/svg" version="1.1">
 <metadata>
  <rdf:RDF xmlns:dc="http://purl.org/dc/elements/1.1/" xmlns:cc="http://creativecommons.org/ns#" xmlns:rdf="http://www.w3.org/1999/02/22-rdf-syntax-ns#">
   <cc:Work>
    <dc:type rdf:resource="http://purl.org/dc/dcmitype/StillImage"/>
    <dc:date>2026-05-09T15:39:36.936888</dc:date>
    <dc:format>image/svg+xml</dc:format>
    <dc:creator>
     <cc:Agent>
      <dc:title>Matplotlib v3.10.9, https://matplotlib.org/</dc:title>
     </cc:Agent>
    </dc:creator>
   </cc:Work>
  </rdf:RDF>
 </metadata>
 <defs>
  <style type="text/css">*{stroke-linejoin: round; stroke-linecap: butt}</style>
 </defs>
 <g id="figure_1">
  <g id="patch_1">
   <path d="M 0 396 
L 691.2 396 
L 691.2 0 
L 0 0 
L 0 396 
z
" style="fill: none"/>
  </g>
  <g id="axes_1">
   <g id="patch_2">
    <path d="M 55.296 324.72 
L 546.048 324.72 
L 546.048 55.44 
L 55.296 55.44 
L 55.296 324.72 
z
" style="fill: none"/>
   </g>
   <g id="matplotlib.axis_1">
    <g id="xtick_1">
     <g id="line2d_1">
      <path d="M 63.4752 324.72 
L 63.4752 55.44 
" clip-path="url(#pa7a830743f)" style="fill: none; stroke-dasharray: 2.22,0.96; stroke-dashoffset: 0; stroke: #e2d5f5; stroke-opacity: 0.7; stroke-width: 0.6"/>
     </g>
     <g id="line2d_2">
      <defs>
       <path id="m4b2d6b02c0" d="M 0 0 
L 0 3.5 
" style="stroke: #9b8bb8; stroke-width: 0.8"/>
      </defs>
      <g>
       <use xlink:href="#m4b2d6b02c0" x="63.4752" y="324.72" style="fill: #9b8bb8; stroke: #9b8bb8; stroke-width: 0.8"/>
      </g>
     </g>
     <g id="text_1">
      <!-- 04/10 -->
      <g style="fill: #9b8bb8" transform="translate(51.934819 353.301793) rotate(-30) scale(0.1 -0.1)">
       <defs>
        <path id="JetBrainsMono-Regular-30" d="M 1920 -64 
Q 1274 -64 893 310 
Q 512 685 512 1312 
L 512 3360 
Q 512 3987 893 4361 
Q 1274 4736 1920 4736 
Q 2566 4736 2947 4361 
Q 3328 3987 3328 3360 
L 3328 1312 
Q 3328 896 3155 585 
Q 2982 275 2665 105 
Q 2349 -64 1920 -64 
z
M 1920 429 
Q 2304 429 2537 675 
Q 2771 922 2771 1312 
L 2771 3360 
Q 2771 3750 2537 3996 
Q 2304 4243 1920 4243 
Q 1536 4243 1302 3996 
Q 1069 3750 1069 3360 
L 1069 1312 
Q 1069 922 1302 675 
Q 1536 429 1920 429 
z
M 1920 1984 
Q 1747 1984 1641 2080 
Q 1536 2176 1536 2355 
Q 1536 2528 1641 2621 
Q 1747 2714 1920 2714 
Q 2093 2714 2198 2621 
Q 2304 2528 2304 2355 
Q 2304 2176 2198 2080 
Q 2093 1984 1920 1984 
z
" transform="scale(0.015625)"/>
        <path id="JetBrainsMono-Regular-34" d="M 2560 0 
L 2560 1024 
L 448 1024 
L 448 1926 
L 2150 4672 
L 2803 4672 
L 1024 1798 
L 1024 1549 
L 2560 1549 
L 2560 2688 
L 3136 2688 
L 3136 0 
L 2560 0 
z
" transform="scale(0.015625)"/>
        <path id="JetBrainsMono-Regular-2f" d="M 480 -704 
L 2752 5312 
L 3360 5312 
L 1088 -704 
L 480 -704 
z
" transform="scale(0.015625)"/>
        <path id="JetBrainsMono-Regular-31" d="M 576 0 
L 576 525 
L 1843 525 
L 1843 4173 
L 576 3226 
L 576 3885 
L 1632 4672 
L 2419 4672 
L 2419 525 
L 3456 525 
L 3456 0 
L 576 0 
z
" transform="scale(0.015625)"/>
       </defs>
       <use xlink:href="#JetBrainsMono-Regular-30"/>
       <use xlink:href="#JetBrainsMono-Regular-34" transform="translate(59.999985 0)"/>
       <use xlink:href="#JetBrainsMono-Regular-2f" transform="translate(119.999969 0)"/>
       <use xlink:href="#JetBrainsMono-Regular-31" transform="translate(179.999954 0)"/>
       <use xlink:href="#JetBrainsMono-Regular-30" transform="translate(239.999939 0)"/>
      </g>
     </g>
    </g>
    <g id="xtick_2">
     <g id="line2d_3">
      <path d="M 128.9088 324.72 
L 128.9088 55.44 
" clip-path="url(#pa7a830743f)" style="fill: none; stroke-dasharray: 2.22,0.96; stroke-dashoffset: 0; stroke: #e2d5f5; stroke-opacity: 0.7; stroke-width: 0.6"/>
     </g>
     <g id="line2d_4">
      <g>
       <use xlink:href="#m4b2d6b02c0" x="128.9088" y="324.72" style="fill: #9b8bb8; stroke: #9b8bb8; stroke-width: 0.8"/>
      </g>
     </g>
     <g id="text_2">
      <!-- 04/14 -->
      <g style="fill: #9b8bb8" transform="translate(117.368419 353.301793) rotate(-30) scale(0.1 -0.1)">
       <use xlink:href="#JetBrainsMono-Regular-30"/>
       <use xlink:href="#JetBrainsMono-Regular-34" transform="translate(59.999985 0)"/>
       <use xlink:href="#JetBrainsMono-Regular-2f" transform="translate(119.999969 0)"/>
       <use xlink:href="#JetBrainsMono-Regular-31" transform="translate(179.999954 0)"/>
       <use xlink:href="#JetBrainsMono-Regular-34" transform="translate(239.999939 0)"/>
      </g>
     </g>
    </g>
    <g id="xtick_3">
     <g id="line2d_5">
      <path d="M 194.3424 324.72 
L 194.3424 55.44 
" clip-path="url(#pa7a830743f)" style="fill: none; stroke-dasharray: 2.22,0.96; stroke-dashoffset: 0; stroke: #e2d5f5; stroke-opacity: 0.7; stroke-width: 0.6"/>
     </g>
     <g id="line2d_6">
      <g>
       <use xlink:href="#m4b2d6b02c0" x="194.3424" y="324.72" style="fill: #9b8bb8; stroke: #9b8bb8; stroke-width: 0.8"/>
      </g>
     </g>
     <g id="text_3">
      <!-- 04/18 -->
      <g style="fill: #9b8bb8" transform="translate(182.802019 353.301793) rotate(-30) scale(0.1 -0.1)">
       <defs>
        <path id="JetBrainsMono-Regular-38" d="M 1920 -64 
Q 1478 -64 1139 109 
Q 800 282 611 592 
Q 422 902 422 1306 
Q 422 1747 675 2067 
Q 928 2387 1350 2458 
L 1350 2477 
Q 986 2560 768 2845 
Q 550 3130 550 3501 
Q 550 3866 723 4144 
Q 896 4422 1206 4579 
Q 1517 4736 1920 4736 
Q 2330 4736 2637 4579 
Q 2944 4422 3117 4144 
Q 3290 3866 3290 3501 
Q 3290 3130 3072 2845 
Q 2854 2560 2490 2477 
L 2490 2458 
Q 2912 2387 3165 2067 
Q 3418 1747 3418 1306 
Q 3418 902 3229 592 
Q 3040 282 2704 109 
Q 2368 -64 1920 -64 
z
M 1920 2701 
Q 2278 2701 2496 2912 
Q 2714 3123 2714 3462 
Q 2714 3802 2496 4013 
Q 2278 4224 1920 4224 
Q 1568 4224 1347 4013 
Q 1126 3802 1126 3462 
Q 1126 3123 1347 2912 
Q 1568 2701 1920 2701 
z
M 1920 454 
Q 2330 454 2586 694 
Q 2842 934 2842 1318 
Q 2842 1709 2586 1949 
Q 2330 2189 1920 2189 
Q 1510 2189 1254 1949 
Q 998 1709 998 1318 
Q 998 934 1254 694 
Q 1510 454 1920 454 
z
" transform="scale(0.015625)"/>
       </defs>
       <use xlink:href="#JetBrainsMono-Regular-30"/>
       <use xlink:href="#JetBrainsMono-Regular-34" transform="translate(59.999985 0)"/>
       <use xlink:href="#JetBrainsMono-Regular-2f" transform="translate(119.999969 0)"/>
       <use xlink:href="#JetBrainsMono-Regular-31" transform="translate(179.999954 0)"/>
       <use xlink:href="#JetBrainsMono-Regular-38" transform="translate(239.999939 0)"/>
      </g>
     </g>
    </g>
    <g id="xtick_4">
     <g id="line2d_7">
      <path d="M 259.776 324.72 
L 259.776 55.44 
" clip-path="url(#pa7a830743f)" style="fill: none; stroke-dasharray: 2.22,0.96; stroke-dashoffset: 0; stroke: #e2d5f5; stroke-opacity: 0.7; stroke-width: 0.6"/>
     </g>
     <g id="line2d_8">
      <g>
       <use xlink:href="#m4b2d6b02c0" x="259.776" y="324.72" style="fill: #9b8bb8; stroke: #9b8bb8; stroke-width: 0.8"/>
      </g>
     </g>
     <g id="text_4">
      <!-- 04/22 -->
      <g style="fill: #9b8bb8" transform="translate(248.235619 353.301793) rotate(-30) scale(0.1 -0.1)">
       <defs>
        <path id="JetBrainsMono-Regular-32" d="M 550 0 
L 550 531 
L 2106 2195 
Q 2445 2554 2585 2835 
Q 2726 3117 2726 3386 
Q 2726 3770 2505 3997 
Q 2285 4224 1907 4224 
Q 1517 4224 1289 3990 
Q 1062 3757 1062 3360 
L 486 3360 
Q 506 3994 890 4365 
Q 1274 4736 1907 4736 
Q 2554 4736 2934 4371 
Q 3315 4006 3315 3379 
Q 3315 3046 3132 2675 
Q 2950 2304 2509 1843 
L 1248 525 
L 3373 525 
L 3373 0 
L 550 0 
z
" transform="scale(0.015625)"/>
       </defs>
       <use xlink:href="#JetBrainsMono-Regular-30"/>
       <use xlink:href="#JetBrainsMono-Regular-34" transform="translate(59.999985 0)"/>
       <use xlink:href="#JetBrainsMono-Regular-2f" transform="translate(119.999969 0)"/>
       <use xlink:href="#JetBrainsMono-Regular-32" transform="translate(179.999954 0)"/>
       <use xlink:href="#JetBrainsMono-Regular-32" transform="translate(239.999939 0)"/>
      </g>
     </g>
    </g>
    <g id="xtick_5">
     <g id="line2d_9">
      <path d="M 325.2096 324.72 
L 325.2096 55.44 
" clip-path="url(#pa7a830743f)" style="fill: none; stroke-dasharray: 2.22,0.96; stroke-dashoffset: 0; stroke: #e2d5f5; stroke-opacity: 0.7; stroke-width: 0.6"/>
     </g>
     <g id="line2d_10">
      <g>
       <use xlink:href="#m4b2d6b02c0" x="325.2096" y="324.72" style="fill: #9b8bb8; stroke: #9b8bb8; stroke-width: 0.8"/>
      </g>
     </g>
     <g id="text_5">
      <!-- 04/26 -->
      <g style="fill: #9b8bb8" transform="translate(313.669219 353.301793) rotate(-30) scale(0.1 -0.1)">
       <defs>
        <path id="JetBrainsMono-Regular-36" d="M 1926 -64 
Q 1478 -64 1136 125 
Q 794 314 602 650 
Q 410 986 410 1427 
Q 410 1734 525 2057 
Q 640 2381 838 2733 
L 1920 4672 
L 2560 4672 
L 1408 2669 
L 1427 2656 
Q 1510 2765 1676 2822 
Q 1843 2880 2042 2880 
Q 2458 2880 2768 2697 
Q 3078 2515 3254 2195 
Q 3430 1875 3430 1453 
Q 3430 1005 3238 662 
Q 3046 320 2710 128 
Q 2374 -64 1926 -64 
z
M 1920 448 
Q 2336 448 2595 723 
Q 2854 998 2854 1440 
Q 2854 1882 2595 2157 
Q 2336 2432 1920 2432 
Q 1504 2432 1245 2157 
Q 986 1882 986 1440 
Q 986 998 1245 723 
Q 1504 448 1920 448 
z
" transform="scale(0.015625)"/>
       </defs>
       <use xlink:href="#JetBrainsMono-Regular-30"/>
       <use xlink:href="#JetBrainsMono-Regular-34" transform="translate(59.999985 0)"/>
       <use xlink:href="#JetBrainsMono-Regular-2f" transform="translate(119.999969 0)"/>
       <use xlink:href="#JetBrainsMono-Regular-32" transform="translate(179.999954 0)"/>
       <use xlink:href="#JetBrainsMono-Regular-36" transform="translate(239.999939 0)"/>
      </g>
     </g>
    </g>
    <g id="xtick_6">
     <g id="line2d_11">
      <path d="M 390.6432 324.72 
L 390.6432 55.44 
" clip-path="url(#pa7a830743f)" style="fill: none; stroke-dasharray: 2.22,0.96; stroke-dashoffset: 0; stroke: #e2d5f5; stroke-opacity: 0.7; stroke-width: 0.6"/>
     </g>
     <g id="line2d_12">
      <g>
       <use xlink:href="#m4b2d6b02c0" x="390.6432" y="324.72" style="fill: #9b8bb8; stroke: #9b8bb8; stroke-width: 0.8"/>
      </g>
     </g>
     <g id="text_6">
      <!-- 04/30 -->
      <g style="fill: #9b8bb8" transform="translate(379.102819 353.301793) rotate(-30) scale(0.1 -0.1)">
       <defs>
        <path id="JetBrainsMono-Regular-33" d="M 1850 -64 
Q 1203 -64 825 297 
Q 448 659 448 1280 
L 1024 1280 
Q 1024 896 1248 672 
Q 1472 448 1856 448 
Q 2240 448 2464 672 
Q 2688 896 2688 1280 
L 2688 1600 
Q 2688 1984 2464 2208 
Q 2240 2432 1856 2432 
L 1350 2432 
L 1350 2931 
L 2496 4147 
L 576 4147 
L 576 4672 
L 3149 4672 
L 3149 4134 
L 2022 2938 
Q 2598 2893 2931 2537 
Q 3264 2182 3264 1600 
L 3264 1280 
Q 3264 659 2883 297 
Q 2502 -64 1850 -64 
z
" transform="scale(0.015625)"/>
       </defs>
       <use xlink:href="#JetBrainsMono-Regular-30"/>
       <use xlink:href="#JetBrainsMono-Regular-34" transform="translate(59.999985 0)"/>
       <use xlink:href="#JetBrainsMono-Regular-2f" transform="translate(119.999969 0)"/>
       <use xlink:href="#JetBrainsMono-Regular-33" transform="translate(179.999954 0)"/>
       <use xlink:href="#JetBrainsMono-Regular-30" transform="translate(239.999939 0)"/>
      </g>
     </g>
    </g>
    <g id="xtick_7">
     <g id="line2d_13">
      <path d="M 456.0768 324.72 
L 456.0768 55.44 
" clip-path="url(#pa7a830743f)" style="fill: none; stroke-dasharray: 2.22,0.96; stroke-dashoffset: 0; stroke: #e2d5f5; stroke-opacity: 0.7; stroke-width: 0.6"/>
     </g>
     <g id="line2d_14">
      <g>
       <use xlink:href="#m4b2d6b02c0" x="456.0768" y="324.72" style="fill: #9b8bb8; stroke: #9b8bb8; stroke-width: 0.8"/>
      </g>
     </g>
     <g id="text_7">
      <!-- 05/04 -->
      <g style="fill: #9b8bb8" transform="translate(444.536419 353.301793) rotate(-30) scale(0.1 -0.1)">
       <defs>
        <path id="JetBrainsMono-Regular-35" d="M 1882 -64 
Q 1235 -64 857 297 
Q 480 659 480 1280 
L 1056 1280 
Q 1056 896 1280 672 
Q 1504 448 1888 448 
Q 2272 448 2496 672 
Q 2720 896 2720 1280 
L 2720 1568 
Q 2720 1952 2502 2176 
Q 2285 2400 1914 2400 
L 640 2400 
L 640 4672 
L 3130 4672 
L 3130 4147 
L 1178 4147 
L 1190 2925 
L 1946 2925 
Q 2592 2925 2944 2569 
Q 3296 2214 3296 1568 
L 3296 1280 
Q 3296 659 2915 297 
Q 2534 -64 1882 -64 
z
" transform="scale(0.015625)"/>
       </defs>
       <use xlink:href="#JetBrainsMono-Regular-30"/>
       <use xlink:href="#JetBrainsMono-Regular-35" transform="translate(59.999985 0)"/>
       <use xlink:href="#JetBrainsMono-Regular-2f" transform="translate(119.999969 0)"/>
       <use xlink:href="#JetBrainsMono-Regular-30" transform="translate(179.999954 0)"/>
       <use xlink:href="#JetBrainsMono-Regular-34" transform="translate(239.999939 0)"/>
      </g>
     </g>
    </g>
    <g id="xtick_8">
     <g id="line2d_15">
      <path d="M 521.5104 324.72 
L 521.5104 55.44 
" clip-path="url(#pa7a830743f)" style="fill: none; stroke-dasharray: 2.22,0.96; stroke-dashoffset: 0; stroke: #e2d5f5; stroke-opacity: 0.7; stroke-width: 0.6"/>
     </g>
     <g id="line2d_16">
      <g>
       <use xlink:href="#m4b2d6b02c0" x="521.5104" y="324.72" style="fill: #9b8bb8; stroke: #9b8bb8; stroke-width: 0.8"/>
      </g>
     </g>
     <g id="text_8">
      <!-- 05/08 -->
      <g style="fill: #9b8bb8" transform="translate(509.970019 353.301793) rotate(-30) scale(0.1 -0.1)">
       <use xlink:href="#JetBrainsMono-Regular-30"/>
       <use xlink:href="#JetBrainsMono-Regular-35" transform="translate(59.999985 0)"/>
       <use xlink:href="#JetBrainsMono-Regular-2f" transform="translate(119.999969 0)"/>
       <use xlink:href="#JetBrainsMono-Regular-30" transform="translate(179.999954 0)"/>
       <use xlink:href="#JetBrainsMono-Regular-38" transform="translate(239.999939 0)"/>
      </g>
     </g>
    </g>
   </g>
   <g id="matplotlib.axis_2">
    <g id="ytick_1">
     <g id="line2d_17">
      <path d="M 55.296 324.72 
L 546.048 324.72 
" clip-path="url(#pa7a830743f)" style="fill: none; stroke-dasharray: 2.22,0.96; stroke-dashoffset: 0; stroke: #e2d5f5; stroke-opacity: 0.7; stroke-width: 0.6"/>
     </g>
     <g id="line2d_18">
      <defs>
       <path id="me275937609" d="M 0 0 
L -3.5 0 
" style="stroke: #9b8bb8; stroke-width: 0.8"/>
      </defs>
      <g>
       <use xlink:href="#me275937609" x="55.296" y="324.72" style="fill: #9b8bb8; stroke: #9b8bb8; stroke-width: 0.8"/>
      </g>
     </g>
     <g id="text_9">
      <!-- 240 -->
      <g style="fill: #9b8bb8" transform="translate(30.296 328.37) scale(0.1 -0.1)">
       <use xlink:href="#JetBrainsMono-Regular-32"/>
       <use xlink:href="#JetBrainsMono-Regular-34" transform="translate(59.999985 0)"/>
       <use xlink:href="#JetBrainsMono-Regular-30" transform="translate(119.999969 0)"/>
      </g>
     </g>
    </g>
    <g id="ytick_2">
     <g id="line2d_19">
      <path d="M 55.296 274.711491 
L 546.048 274.711491 
" clip-path="url(#pa7a830743f)" style="fill: none; stroke-dasharray: 2.22,0.96; stroke-dashoffset: 0; stroke: #e2d5f5; stroke-opacity: 0.7; stroke-width: 0.6"/>
     </g>
     <g id="line2d_20">
      <g>
       <use xlink:href="#me275937609" x="55.296" y="274.711491" style="fill: #9b8bb8; stroke: #9b8bb8; stroke-width: 0.8"/>
      </g>
     </g>
     <g id="text_10">
      <!-- 245 -->
      <g style="fill: #9b8bb8" transform="translate(30.296 278.361491) scale(0.1 -0.1)">
       <use xlink:href="#JetBrainsMono-Regular-32"/>
       <use xlink:href="#JetBrainsMono-Regular-34" transform="translate(59.999985 0)"/>
       <use xlink:href="#JetBrainsMono-Regular-35" transform="translate(119.999969 0)"/>
      </g>
     </g>
    </g>
    <g id="ytick_3">
     <g id="line2d_21">
      <path d="M 55.296 224.702982 
L 546.048 224.702982 
" clip-path="url(#pa7a830743f)" style="fill: none; stroke-dasharray: 2.22,0.96; stroke-dashoffset: 0; stroke: #e2d5f5; stroke-opacity: 0.7; stroke-width: 0.6"/>
     </g>
     <g id="line2d_22">
      <g>
       <use xlink:href="#me275937609" x="55.296" y="224.702982" style="fill: #9b8bb8; stroke: #9b8bb8; stroke-width: 0.8"/>
      </g>
     </g>
     <g id="text_11">
      <!-- 250 -->
      <g style="fill: #9b8bb8" transform="translate(30.296 228.352982) scale(0.1 -0.1)">
       <use xlink:href="#JetBrainsMono-Regular-32"/>
       <use xlink:href="#JetBrainsMono-Regular-35" transform="translate(59.999985 0)"/>
       <use xlink:href="#JetBrainsMono-Regular-30" transform="translate(119.999969 0)"/>
      </g>
     </g>
    </g>
    <g id="ytick_4">
     <g id="line2d_23">
      <path d="M 55.296 174.694473 
L 546.048 174.694473 
" clip-path="url(#pa7a830743f)" style="fill: none; stroke-dasharray: 2.22,0.96; stroke-dashoffset: 0; stroke: #e2d5f5; stroke-opacity: 0.7; stroke-width: 0.6"/>
     </g>
     <g id="line2d_24">
      <g>
       <use xlink:href="#me275937609" x="55.296" y="174.694473" style="fill: #9b8bb8; stroke: #9b8bb8; stroke-width: 0.8"/>
      </g>
     </g>
     <g id="text_12">
      <!-- 255 -->
      <g style="fill: #9b8bb8" transform="translate(30.296 178.344473) scale(0.1 -0.1)">
       <use xlink:href="#JetBrainsMono-Regular-32"/>
       <use xlink:href="#JetBrainsMono-Regular-35" transform="translate(59.999985 0)"/>
       <use xlink:href="#JetBrainsMono-Regular-35" transform="translate(119.999969 0)"/>
      </g>
     </g>
    </g>
    <g id="ytick_5">
     <g id="line2d_25">
      <path d="M 55.296 124.685964 
L 546.048 124.685964 
" clip-path="url(#pa7a830743f)" style="fill: none; stroke-dasharray: 2.22,0.96; stroke-dashoffset: 0; stroke: #e2d5f5; stroke-opacity: 0.7; stroke-width: 0.6"/>
     </g>
     <g id="line2d_26">
      <g>
       <use xlink:href="#me275937609" x="55.296" y="124.685964" style="fill: #9b8bb8; stroke: #9b8bb8; stroke-width: 0.8"/>
      </g>
     </g>
     <g id="text_13">
      <!-- 260 -->
      <g style="fill: #9b8bb8" transform="translate(30.296 128.335964) scale(0.1 -0.1)">
       <use xlink:href="#JetBrainsMono-Regular-32"/>
       <use xlink:href="#JetBrainsMono-Regular-36" transform="translate(59.999985 0)"/>
       <use xlink:href="#JetBrainsMono-Regular-30" transform="translate(119.999969 0)"/>
      </g>
     </g>
    </g>
    <g id="ytick_6">
     <g id="line2d_27">
      <path d="M 55.296 74.677455 
L 546.048 74.677455 
" clip-path="url(#pa7a830743f)" style="fill: none; stroke-dasharray: 2.22,0.96; stroke-dashoffset: 0; stroke: #e2d5f5; stroke-opacity: 0.7; stroke-width: 0.6"/>
     </g>
     <g id="line2d_28">
      <g>
       <use xlink:href="#me275937609" x="55.296" y="74.677455" style="fill: #9b8bb8; stroke: #9b8bb8; stroke-width: 0.8"/>
      </g>
     </g>
     <g id="text_14">
      <!-- 265 -->
      <g style="fill: #9b8bb8" transform="translate(30.296 78.327455) scale(0.1 -0.1)">
       <use xlink:href="#JetBrainsMono-Regular-32"/>
       <use xlink:href="#JetBrainsMono-Regular-36" transform="translate(59.999985 0)"/>
       <use xlink:href="#JetBrainsMono-Regular-35" transform="translate(119.999969 0)"/>
      </g>
     </g>
    </g>
    <g id="text_15">
     <!-- Rating -->
     <g style="fill: #9b8bb8" transform="translate(24.496 208.08) rotate(-90) scale(0.1 -0.1)">
      <defs>
       <path id="JetBrainsMono-Regular-52" d="M 595 0 
L 595 4672 
L 2035 4672 
Q 2451 4672 2764 4502 
Q 3078 4333 3251 4032 
Q 3424 3731 3424 3328 
Q 3424 2854 3181 2515 
Q 2938 2176 2534 2042 
L 3488 0 
L 2854 0 
L 1939 1984 
L 1165 1984 
L 1165 0 
L 595 0 
z
M 1165 2502 
L 2035 2502 
Q 2394 2502 2611 2729 
Q 2829 2957 2829 3328 
Q 2829 3706 2611 3930 
Q 2394 4154 2035 4154 
L 1165 4154 
L 1165 2502 
z
" transform="scale(0.015625)"/>
       <path id="JetBrainsMono-Regular-61" d="M 1613 -64 
Q 1069 -64 749 240 
Q 429 544 429 1037 
Q 429 1363 576 1606 
Q 723 1850 985 1987 
Q 1248 2125 1587 2125 
L 2675 2125 
L 2675 2400 
Q 2675 3085 1926 3085 
Q 1594 3085 1389 2963 
Q 1184 2842 1171 2624 
L 595 2624 
Q 627 3040 982 3312 
Q 1338 3584 1926 3584 
Q 2566 3584 2908 3277 
Q 3251 2970 3251 2419 
L 3251 0 
L 2682 0 
L 2682 640 
L 2669 640 
Q 2618 314 2342 125 
Q 2067 -64 1613 -64 
z
M 1754 422 
Q 2176 422 2425 627 
Q 2675 832 2675 1184 
L 2675 1677 
L 1651 1677 
Q 1370 1677 1194 1507 
Q 1018 1338 1018 1056 
Q 1018 762 1213 592 
Q 1408 422 1754 422 
z
" transform="scale(0.015625)"/>
       <path id="JetBrainsMono-Regular-74" d="M 2272 0 
Q 1837 0 1574 253 
Q 1312 506 1312 928 
L 1312 2995 
L 301 2995 
L 301 3520 
L 1312 3520 
L 1312 4512 
L 1888 4512 
L 1888 3520 
L 3328 3520 
L 3328 2995 
L 1888 2995 
L 1888 928 
Q 1888 749 1993 637 
Q 2099 525 2272 525 
L 3296 525 
L 3296 0 
L 2272 0 
z
" transform="scale(0.015625)"/>
       <path id="JetBrainsMono-Regular-69" d="M 544 0 
L 544 525 
L 1792 525 
L 1792 2995 
L 672 2995 
L 672 3520 
L 2368 3520 
L 2368 525 
L 3552 525 
L 3552 0 
L 544 0 
z
M 2016 4154 
Q 1805 4154 1683 4262 
Q 1562 4371 1562 4557 
Q 1562 4749 1683 4861 
Q 1805 4973 2016 4973 
Q 2227 4973 2348 4861 
Q 2470 4749 2470 4557 
Q 2470 4371 2348 4262 
Q 2227 4154 2016 4154 
z
" transform="scale(0.015625)"/>
       <path id="JetBrainsMono-Regular-6e" d="M 589 0 
L 589 3520 
L 1165 3520 
L 1165 2848 
L 1171 2848 
Q 1216 3200 1459 3392 
Q 1702 3584 2106 3584 
Q 2637 3584 2950 3257 
Q 3264 2931 3264 2368 
L 3264 0 
L 2688 0 
L 2688 2266 
Q 2688 2669 2486 2883 
Q 2285 3098 1939 3098 
Q 1581 3098 1373 2874 
Q 1165 2650 1165 2240 
L 1165 0 
L 589 0 
z
" transform="scale(0.015625)"/>
       <path id="JetBrainsMono-Regular-67" d="M 1030 -1152 
L 1030 -627 
L 2022 -627 
Q 2323 -627 2496 -457 
Q 2669 -288 2669 0 
L 2669 320 
L 2682 896 
L 2662 896 
Q 2611 582 2361 412 
Q 2112 243 1734 243 
Q 1190 243 876 588 
Q 563 934 563 1536 
L 563 2278 
Q 563 2880 876 3232 
Q 1190 3584 1734 3584 
Q 2112 3584 2361 3405 
Q 2611 3226 2662 2912 
L 2675 2912 
L 2675 3520 
L 3245 3520 
L 3245 0 
Q 3245 -531 2915 -841 
Q 2586 -1152 2016 -1152 
L 1030 -1152 
z
M 1907 723 
Q 2266 723 2470 947 
Q 2675 1171 2675 1568 
L 2675 2240 
Q 2675 2637 2470 2861 
Q 2266 3085 1907 3085 
Q 1542 3085 1340 2873 
Q 1139 2662 1139 2304 
L 1139 1504 
Q 1139 1146 1340 934 
Q 1542 723 1907 723 
z
" transform="scale(0.015625)"/>
      </defs>
      <use xlink:href="#JetBrainsMono-Regular-52"/>
      <use xlink:href="#JetBrainsMono-Regular-61" transform="translate(59.999985 0)"/>
      <use xlink:href="#JetBrainsMono-Regular-74" transform="translate(119.999969 0)"/>
      <use xlink:href="#JetBrainsMono-Regular-69" transform="translate(179.999954 0)"/>
      <use xlink:href="#JetBrainsMono-Regular-6e" transform="translate(239.999939 0)"/>
      <use xlink:href="#JetBrainsMono-Regular-67" transform="translate(299.999924 0)"/>
     </g>
    </g>
   </g>
   <g id="patch_3">
    <path d="M 55.296 324.72 
L 55.296 55.44 
" style="fill: none; stroke: #d8c8ef; stroke-width: 0.8; stroke-linejoin: miter; stroke-linecap: square"/>
   </g>
   <g id="patch_4">
    <path d="M 55.296 324.72 
L 546.048 324.72 
" style="fill: none; stroke: #d8c8ef; stroke-width: 0.8; stroke-linejoin: miter; stroke-linecap: square"/>
   </g>
   <g id="FillBetweenPolyCollection_1">
    <defs>
     <path id="m9f821a291f" d="M 63.4752 -71.28 
L 63.4752 -121.288509 
L 65.061801 -122.154314 
L 66.648401 -123.565592 
L 68.235002 -125.483965 
L 69.821603 -127.871059 
L 71.408203 -130.688495 
L 72.994804 -133.897898 
L 74.581405 -137.46089 
L 76.168005 -141.339095 
L 77.754606 -145.494136 
L 79.341207 -149.887637 
L 80.927807 -154.481222 
L 82.514408 -159.236512 
L 84.101009 -164.115133 
L 85.687609 -169.078707 
L 87.27421 -174.088857 
L 88.860811 -179.107207 
L 90.447411 -184.09538 
L 92.034012 -189.015 
L 93.620613 -193.827691 
L 95.207213 -198.495074 
L 96.793814 -202.979872 
L 98.380415 -207.293227 
L 99.967015 -211.512703 
L 101.553616 -215.720677 
L 103.140217 -219.999529 
L 104.726817 -224.431635 
L 106.313418 -229.099374 
L 107.900019 -234.085122 
L 109.486619 -239.471258 
L 111.07322 -245.34016 
L 112.659821 -251.774191 
L 114.246421 -258.802025 
L 115.833022 -266.277544 
L 117.419623 -274.019118 
L 119.006223 -281.845119 
L 120.592824 -289.573918 
L 122.179425 -297.023885 
L 123.766025 -304.013392 
L 125.352626 -310.36081 
L 126.939227 -315.88451 
L 128.525827 -320.402862 
L 130.112428 -323.758468 
L 131.699029 -325.998864 
L 133.285629 -327.274635 
L 134.87223 -327.737143 
L 136.458831 -327.537753 
L 138.045431 -326.827829 
L 139.632032 -325.758734 
L 141.218633 -324.481833 
L 142.805233 -323.14849 
L 144.391834 -321.910068 
L 145.978435 -320.915051 
L 147.565035 -320.226277 
L 149.151636 -319.80856 
L 150.738237 -319.621344 
L 152.324837 -319.624069 
L 153.911438 -319.776179 
L 155.498039 -320.037115 
L 157.084639 -320.366319 
L 158.67124 -320.723234 
L 160.257841 -321.067302 
L 161.844441 -321.357987 
L 163.431042 -321.567294 
L 165.017643 -321.700598 
L 166.604243 -321.768767 
L 168.190844 -321.782668 
L 169.777445 -321.75317 
L 171.364045 -321.691139 
L 172.950646 -321.607443 
L 174.537247 -321.512949 
L 176.123847 -321.418525 
L 177.710448 -321.335038 
L 179.297049 -321.272055 
L 180.883649 -321.230327 
L 182.47025 -321.206957 
L 184.056851 -321.199031 
L 185.643452 -321.203637 
L 187.230052 -321.217865 
L 188.816653 -321.238801 
L 190.403254 -321.263534 
L 191.989854 -321.289153 
L 193.576455 -321.312744 
L 195.163056 -321.331482 
L 196.749656 -321.344348 
L 198.336257 -321.352053 
L 199.922858 -321.355377 
L 201.509458 -321.355102 
L 203.096059 -321.352006 
L 204.68266 -321.34687 
L 206.26926 -321.340475 
L 207.855861 -321.333601 
L 209.442462 -321.327028 
L 211.029062 -321.321534 
L 212.615663 -321.317615 
L 214.202264 -321.315144 
L 215.788864 -321.313911 
L 217.375465 -321.313708 
L 218.962066 -321.314325 
L 220.548666 -321.315554 
L 222.135267 -321.317185 
L 223.721868 -321.31901 
L 225.308468 -321.320818 
L 226.895069 -321.322402 
L 228.48167 -321.323584 
L 230.06827 -321.324361 
L 231.654871 -321.324788 
L 233.241472 -321.324922 
L 234.828072 -321.324819 
L 236.414673 -321.324535 
L 238.001274 -321.324125 
L 239.587874 -321.323646 
L 241.174475 -321.323154 
L 242.761076 -321.322705 
L 244.347676 -321.322353 
L 245.934277 -321.322112 
L 247.520878 -321.32197 
L 249.107478 -321.321912 
L 250.694079 -321.321921 
L 252.28068 -321.321984 
L 253.86728 -321.322085 
L 255.453881 -321.322209 
L 257.040482 -321.322341 
L 258.627082 -321.322467 
L 260.213683 -321.322571 
L 261.800284 -321.322644 
L 263.386884 -321.32269 
L 264.973485 -321.322712 
L 266.560086 -321.322715 
L 268.146686 -321.322702 
L 269.733287 -321.322678 
L 271.319888 -321.322646 
L 272.906488 -321.322611 
L 274.493089 -321.322576 
L 276.07969 -321.322546 
L 277.66629 -321.322524 
L 279.252891 -321.322509 
L 280.839492 -321.322501 
L 282.426092 -321.322499 
L 284.012693 -321.322502 
L 285.599294 -321.322507 
L 287.185894 -321.322515 
L 288.772495 -321.322524 
L 290.359096 -321.322534 
L 291.945696 -321.322542 
L 293.532297 -321.322549 
L 295.118898 -321.322554 
L 296.705498 -321.322556 
L 298.292099 -321.322557 
L 299.8787 -321.322557 
L 301.4653 -321.322556 
L 303.051901 -321.322554 
L 304.638502 -321.322551 
L 306.225102 -321.322549 
L 307.811703 -321.322546 
L 309.398304 -321.322544 
L 310.984904 -321.322543 
L 312.571505 -321.322542 
L 314.158106 -321.322542 
L 315.744706 -321.322542 
L 317.331307 -321.322542 
L 318.917908 -321.322542 
L 320.504508 -321.322543 
L 322.091109 -321.322544 
L 323.67771 -321.322544 
L 325.26431 -321.322545 
L 326.850911 -321.322545 
L 328.437512 -321.322546 
L 330.024112 -321.322546 
L 331.610713 -321.322546 
L 333.197314 -321.322546 
L 334.783914 -321.322546 
L 336.370515 -321.322546 
L 337.957116 -321.322545 
L 339.543716 -321.322545 
L 341.130317 -321.322545 
L 342.716918 -321.322545 
L 344.303518 -321.322545 
L 345.890119 -321.322545 
L 347.47672 -321.322545 
L 349.06332 -321.322545 
L 350.649921 -321.322545 
L 352.236522 -321.322545 
L 353.823122 -321.322545 
L 355.409723 -321.322545 
L 356.996324 -321.322545 
L 358.582924 -321.322545 
L 360.169525 -321.322545 
L 361.756126 -321.322545 
L 363.342726 -321.322545 
L 364.929327 -321.322545 
L 366.515928 -321.322545 
L 368.102528 -321.322545 
L 369.689129 -321.322545 
L 371.27573 -321.322545 
L 372.86233 -321.322545 
L 374.448931 -321.322545 
L 376.035532 -321.322545 
L 377.622132 -321.322545 
L 379.208733 -321.322545 
L 380.795334 -321.322545 
L 382.381934 -321.322545 
L 383.968535 -321.322545 
L 385.555136 -321.322545 
L 387.141736 -321.322545 
L 388.728337 -321.322545 
L 390.314938 -321.322545 
L 391.901538 -321.322545 
L 393.488139 -321.322545 
L 395.07474 -321.322545 
L 396.66134 -321.322545 
L 398.247941 -321.322545 
L 399.834542 -321.322545 
L 401.421142 -321.322545 
L 403.007743 -321.322545 
L 404.594344 -321.322545 
L 406.180944 -321.322545 
L 407.767545 -321.322545 
L 409.354146 -321.322545 
L 410.940746 -321.322545 
L 412.527347 -321.322545 
L 414.113948 -321.322545 
L 415.700548 -321.322545 
L 417.287149 -321.322545 
L 418.87375 -321.322545 
L 420.460351 -321.322545 
L 422.046951 -321.322545 
L 423.633552 -321.322545 
L 425.220153 -321.322545 
L 426.806753 -321.322545 
L 428.393354 -321.322545 
L 429.979955 -321.322545 
L 431.566555 -321.322545 
L 433.153156 -321.322545 
L 434.739757 -321.322545 
L 436.326357 -321.322545 
L 437.912958 -321.322545 
L 439.499559 -321.322545 
L 441.086159 -321.322545 
L 442.67276 -321.322545 
L 444.259361 -321.322545 
L 445.845961 -321.322545 
L 447.432562 -321.322545 
L 449.019163 -321.322545 
L 450.605763 -321.322545 
L 452.192364 -321.322545 
L 453.778965 -321.322545 
L 455.365565 -321.322545 
L 456.952166 -321.322545 
L 458.538767 -321.322545 
L 460.125367 -321.322545 
L 461.711968 -321.322545 
L 463.298569 -321.322545 
L 464.885169 -321.322545 
L 466.47177 -321.322545 
L 468.058371 -321.322545 
L 469.644971 -321.322545 
L 471.231572 -321.322545 
L 472.818173 -321.322545 
L 474.404773 -321.322545 
L 475.991374 -321.322545 
L 477.577975 -321.322545 
L 479.164575 -321.322545 
L 480.751176 -321.322545 
L 482.337777 -321.322545 
L 483.924377 -321.322545 
L 485.510978 -321.322545 
L 487.097579 -321.322545 
L 488.684179 -321.322545 
L 490.27078 -321.322545 
L 491.857381 -321.322545 
L 493.443981 -321.322545 
L 495.030582 -321.322545 
L 496.617183 -321.322545 
L 498.203783 -321.322545 
L 499.790384 -321.322545 
L 501.376985 -321.322545 
L 502.963585 -321.322545 
L 504.550186 -321.322545 
L 506.136787 -321.322545 
L 507.723387 -321.322545 
L 509.309988 -321.322545 
L 510.896589 -321.322545 
L 512.483189 -321.322545 
L 514.06979 -321.322545 
L 515.656391 -321.322545 
L 517.242991 -321.322545 
L 518.829592 -321.322545 
L 520.416193 -321.322545 
L 522.002793 -321.322545 
L 523.589394 -321.322545 
L 525.175995 -321.322545 
L 526.762595 -321.322545 
L 528.349196 -321.322545 
L 529.935797 -321.322545 
L 531.522397 -321.322545 
L 533.108998 -321.322545 
L 534.695599 -321.322545 
L 536.282199 -321.322545 
L 537.8688 -321.322545 
L 537.8688 -71.28 
L 537.8688 -71.28 
L 536.282199 -71.28 
L 534.695599 -71.28 
L 533.108998 -71.28 
L 531.522397 -71.28 
L 529.935797 -71.28 
L 528.349196 -71.28 
L 526.762595 -71.28 
L 525.175995 -71.28 
L 523.589394 -71.28 
L 522.002793 -71.28 
L 520.416193 -71.28 
L 518.829592 -71.28 
L 517.242991 -71.28 
L 515.656391 -71.28 
L 514.06979 -71.28 
L 512.483189 -71.28 
L 510.896589 -71.28 
L 509.309988 -71.28 
L 507.723387 -71.28 
L 506.136787 -71.28 
L 504.550186 -71.28 
L 502.963585 -71.28 
L 501.376985 -71.28 
L 499.790384 -71.28 
L 498.203783 -71.28 
L 496.617183 -71.28 
L 495.030582 -71.28 
L 493.443981 -71.28 
L 491.857381 -71.28 
L 490.27078 -71.28 
L 488.684179 -71.28 
L 487.097579 -71.28 
L 485.510978 -71.28 
L 483.924377 -71.28 
L 482.337777 -71.28 
L 480.751176 -71.28 
L 479.164575 -71.28 
L 477.577975 -71.28 
L 475.991374 -71.28 
L 474.404773 -71.28 
L 472.818173 -71.28 
L 471.231572 -71.28 
L 469.644971 -71.28 
L 468.058371 -71.28 
L 466.47177 -71.28 
L 464.885169 -71.28 
L 463.298569 -71.28 
L 461.711968 -71.28 
L 460.125367 -71.28 
L 458.538767 -71.28 
L 456.952166 -71.28 
L 455.365565 -71.28 
L 453.778965 -71.28 
L 452.192364 -71.28 
L 450.605763 -71.28 
L 449.019163 -71.28 
L 447.432562 -71.28 
L 445.845961 -71.28 
L 444.259361 -71.28 
L 442.67276 -71.28 
L 441.086159 -71.28 
L 439.499559 -71.28 
L 437.912958 -71.28 
L 436.326357 -71.28 
L 434.739757 -71.28 
L 433.153156 -71.28 
L 431.566555 -71.28 
L 429.979955 -71.28 
L 428.393354 -71.28 
L 426.806753 -71.28 
L 425.220153 -71.28 
L 423.633552 -71.28 
L 422.046951 -71.28 
L 420.460351 -71.28 
L 418.87375 -71.28 
L 417.287149 -71.28 
L 415.700548 -71.28 
L 414.113948 -71.28 
L 412.527347 -71.28 
L 410.940746 -71.28 
L 409.354146 -71.28 
L 407.767545 -71.28 
L 406.180944 -71.28 
L 404.594344 -71.28 
L 403.007743 -71.28 
L 401.421142 -71.28 
L 399.834542 -71.28 
L 398.247941 -71.28 
L 396.66134 -71.28 
L 395.07474 -71.28 
L 393.488139 -71.28 
L 391.901538 -71.28 
L 390.314938 -71.28 
L 388.728337 -71.28 
L 387.141736 -71.28 
L 385.555136 -71.28 
L 383.968535 -71.28 
L 382.381934 -71.28 
L 380.795334 -71.28 
L 379.208733 -71.28 
L 377.622132 -71.28 
L 376.035532 -71.28 
L 374.448931 -71.28 
L 372.86233 -71.28 
L 371.27573 -71.28 
L 369.689129 -71.28 
L 368.102528 -71.28 
L 366.515928 -71.28 
L 364.929327 -71.28 
L 363.342726 -71.28 
L 361.756126 -71.28 
L 360.169525 -71.28 
L 358.582924 -71.28 
L 356.996324 -71.28 
L 355.409723 -71.28 
L 353.823122 -71.28 
L 352.236522 -71.28 
L 350.649921 -71.28 
L 349.06332 -71.28 
L 347.47672 -71.28 
L 345.890119 -71.28 
L 344.303518 -71.28 
L 342.716918 -71.28 
L 341.130317 -71.28 
L 339.543716 -71.28 
L 337.957116 -71.28 
L 336.370515 -71.28 
L 334.783914 -71.28 
L 333.197314 -71.28 
L 331.610713 -71.28 
L 330.024112 -71.28 
L 328.437512 -71.28 
L 326.850911 -71.28 
L 325.26431 -71.28 
L 323.67771 -71.28 
L 322.091109 -71.28 
L 320.504508 -71.28 
L 318.917908 -71.28 
L 317.331307 -71.28 
L 315.744706 -71.28 
L 314.158106 -71.28 
L 312.571505 -71.28 
L 310.984904 -71.28 
L 309.398304 -71.28 
L 307.811703 -71.28 
L 306.225102 -71.28 
L 304.638502 -71.28 
L 303.051901 -71.28 
L 301.4653 -71.28 
L 299.8787 -71.28 
L 298.292099 -71.28 
L 296.705498 -71.28 
L 295.118898 -71.28 
L 293.532297 -71.28 
L 291.945696 -71.28 
L 290.359096 -71.28 
L 288.772495 -71.28 
L 287.185894 -71.28 
L 285.599294 -71.28 
L 284.012693 -71.28 
L 282.426092 -71.28 
L 280.839492 -71.28 
L 279.252891 -71.28 
L 277.66629 -71.28 
L 276.07969 -71.28 
L 274.493089 -71.28 
L 272.906488 -71.28 
L 271.319888 -71.28 
L 269.733287 -71.28 
L 268.146686 -71.28 
L 266.560086 -71.28 
L 264.973485 -71.28 
L 263.386884 -71.28 
L 261.800284 -71.28 
L 260.213683 -71.28 
L 258.627082 -71.28 
L 257.040482 -71.28 
L 255.453881 -71.28 
L 253.86728 -71.28 
L 252.28068 -71.28 
L 250.694079 -71.28 
L 249.107478 -71.28 
L 247.520878 -71.28 
L 245.934277 -71.28 
L 244.347676 -71.28 
L 242.761076 -71.28 
L 241.174475 -71.28 
L 239.587874 -71.28 
L 238.001274 -71.28 
L 236.414673 -71.28 
L 234.828072 -71.28 
L 233.241472 -71.28 
L 231.654871 -71.28 
L 230.06827 -71.28 
L 228.48167 -71.28 
L 226.895069 -71.28 
L 225.308468 -71.28 
L 223.721868 -71.28 
L 222.135267 -71.28 
L 220.548666 -71.28 
L 218.962066 -71.28 
L 217.375465 -71.28 
L 215.788864 -71.28 
L 214.202264 -71.28 
L 212.615663 -71.28 
L 211.029062 -71.28 
L 209.442462 -71.28 
L 207.855861 -71.28 
L 206.26926 -71.28 
L 204.68266 -71.28 
L 203.096059 -71.28 
L 201.509458 -71.28 
L 199.922858 -71.28 
L 198.336257 -71.28 
L 196.749656 -71.28 
L 195.163056 -71.28 
L 193.576455 -71.28 
L 191.989854 -71.28 
L 190.403254 -71.28 
L 188.816653 -71.28 
L 187.230052 -71.28 
L 185.643452 -71.28 
L 184.056851 -71.28 
L 182.47025 -71.28 
L 180.883649 -71.28 
L 179.297049 -71.28 
L 177.710448 -71.28 
L 176.123847 -71.28 
L 174.537247 -71.28 
L 172.950646 -71.28 
L 171.364045 -71.28 
L 169.777445 -71.28 
L 168.190844 -71.28 
L 166.604243 -71.28 
L 165.017643 -71.28 
L 163.431042 -71.28 
L 161.844441 -71.28 
L 160.257841 -71.28 
L 158.67124 -71.28 
L 157.084639 -71.28 
L 155.498039 -71.28 
L 153.911438 -71.28 
L 152.324837 -71.28 
L 150.738237 -71.28 
L 149.151636 -71.28 
L 147.565035 -71.28 
L 145.978435 -71.28 
L 144.391834 -71.28 
L 142.805233 -71.28 
L 141.218633 -71.28 
L 139.632032 -71.28 
L 138.045431 -71.28 
L 136.458831 -71.28 
L 134.87223 -71.28 
L 133.285629 -71.28 
L 131.699029 -71.28 
L 130.112428 -71.28 
L 128.525827 -71.28 
L 126.939227 -71.28 
L 125.352626 -71.28 
L 123.766025 -71.28 
L 122.179425 -71.28 
L 120.592824 -71.28 
L 119.006223 -71.28 
L 117.419623 -71.28 
L 115.833022 -71.28 
L 114.246421 -71.28 
L 112.659821 -71.28 
L 111.07322 -71.28 
L 109.486619 -71.28 
L 107.900019 -71.28 
L 106.313418 -71.28 
L 104.726817 -71.28 
L 103.140217 -71.28 
L 101.553616 -71.28 
L 99.967015 -71.28 
L 98.380415 -71.28 
L 96.793814 -71.28 
L 95.207213 -71.28 
L 93.620613 -71.28 
L 92.034012 -71.28 
L 90.447411 -71.28 
L 88.860811 -71.28 
L 87.27421 -71.28 
L 85.687609 -71.28 
L 84.101009 -71.28 
L 82.514408 -71.28 
L 80.927807 -71.28 
L 79.341207 -71.28 
L 77.754606 -71.28 
L 76.168005 -71.28 
L 74.581405 -71.28 
L 72.994804 -71.28 
L 71.408203 -71.28 
L 69.821603 -71.28 
L 68.235002 -71.28 
L 66.648401 -71.28 
L 65.061801 -71.28 
L 63.4752 -71.28 
z
" style="stroke: #8b5cf6; stroke-opacity: 0.12"/>
    </defs>
    <g clip-path="url(#pa7a830743f)">
     <use xlink:href="#m9f821a291f" x="0" y="396" style="fill: #8b5cf6; fill-opacity: 0.12; stroke: #8b5cf6; stroke-opacity: 0.12"/>
    </g>
   </g>
   <g id="text_16">
    <!-- 265 -->
    <g style="fill: #8b5cf6" transform="translate(540.8688 71.677455) scale(0.12 -0.12)">
     <defs>
      <path id="JetBrainsMono-Bold-32" d="M 474 0 
L 474 723 
L 2157 2445 
Q 2566 2874 2566 3315 
Q 2566 3629 2384 3824 
Q 2202 4019 1894 4019 
Q 1581 4019 1392 3817 
Q 1203 3616 1203 3283 
L 403 3283 
Q 403 3718 595 4044 
Q 787 4371 1126 4553 
Q 1466 4736 1914 4736 
Q 2355 4736 2688 4563 
Q 3021 4390 3203 4080 
Q 3386 3770 3386 3354 
Q 3386 2995 3216 2636 
Q 3046 2278 2656 1894 
L 1478 723 
L 3443 723 
L 3443 0 
L 474 0 
z
" transform="scale(0.015625)"/>
      <path id="JetBrainsMono-Bold-36" d="M 1920 -64 
Q 1440 -64 1085 128 
Q 730 320 534 669 
Q 339 1018 339 1485 
Q 339 1760 457 2115 
Q 576 2470 781 2835 
L 1792 4672 
L 2701 4672 
L 1498 2611 
L 1523 2598 
Q 1619 2733 1804 2809 
Q 1990 2886 2208 2886 
Q 2598 2886 2889 2710 
Q 3181 2534 3341 2214 
Q 3501 1894 3501 1459 
Q 3501 998 3305 656 
Q 3110 314 2755 125 
Q 2400 -64 1920 -64 
z
M 1920 614 
Q 2278 614 2496 841 
Q 2714 1069 2714 1446 
Q 2714 1830 2496 2057 
Q 2278 2285 1920 2285 
Q 1562 2285 1344 2057 
Q 1126 1830 1126 1446 
Q 1126 1069 1344 841 
Q 1562 614 1920 614 
z
" transform="scale(0.015625)"/>
      <path id="JetBrainsMono-Bold-35" d="M 1894 -64 
Q 1210 -64 803 297 
Q 397 659 397 1280 
L 1197 1280 
Q 1197 986 1385 810 
Q 1574 634 1901 634 
Q 2227 634 2409 810 
Q 2592 986 2592 1299 
L 2592 1606 
Q 2592 1920 2413 2096 
Q 2234 2272 1907 2272 
L 557 2272 
L 557 4672 
L 3219 4672 
L 3219 3949 
L 1312 3949 
L 1318 2976 
L 1946 2976 
Q 2637 2976 3014 2617 
Q 3392 2259 3392 1606 
L 3392 1299 
Q 3392 666 2992 301 
Q 2592 -64 1894 -64 
z
" transform="scale(0.015625)"/>
     </defs>
     <use xlink:href="#JetBrainsMono-Bold-32"/>
     <use xlink:href="#JetBrainsMono-Bold-36" transform="translate(59.999985 0)"/>
     <use xlink:href="#JetBrainsMono-Bold-35" transform="translate(119.999969 0)"/>
    </g>
   </g>
   <g id="text_17">
    <!-- Rating History -->
    <g style="fill: #8b5cf6" transform="translate(55.296 50.44) scale(0.17 -0.17)">
     <defs>
      <path id="JetBrainsMono-Bold-52" d="M 493 0 
L 493 4672 
L 1965 4672 
Q 2432 4672 2774 4499 
Q 3117 4326 3309 4016 
Q 3501 3706 3501 3283 
Q 3501 2816 3270 2467 
Q 3040 2118 2650 1971 
L 3565 0 
L 2688 0 
L 1869 1856 
L 1286 1856 
L 1286 0 
L 493 0 
z
M 1286 2560 
L 1965 2560 
Q 2304 2560 2496 2745 
Q 2688 2931 2688 3258 
Q 2688 3584 2493 3776 
Q 2298 3968 1965 3968 
L 1286 3968 
L 1286 2560 
z
" transform="scale(0.015625)"/>
      <path id="JetBrainsMono-Bold-61" d="M 1530 -64 
Q 992 -64 681 240 
Q 371 544 371 1037 
Q 371 1549 723 1853 
Q 1075 2157 1690 2157 
L 2547 2157 
L 2547 2406 
Q 2547 2938 1926 2938 
Q 1645 2938 1478 2829 
Q 1312 2720 1293 2522 
L 525 2522 
Q 550 2995 924 3289 
Q 1299 3584 1933 3584 
Q 2605 3584 2976 3270 
Q 3347 2957 3347 2387 
L 3347 0 
L 2566 0 
L 2566 659 
Q 2522 320 2246 128 
Q 1971 -64 1530 -64 
z
M 1786 589 
Q 2138 589 2342 761 
Q 2547 934 2547 1222 
L 2547 1638 
L 1728 1638 
Q 1466 1638 1312 1491 
Q 1158 1344 1158 1114 
Q 1158 877 1321 733 
Q 1485 589 1786 589 
z
" transform="scale(0.015625)"/>
      <path id="JetBrainsMono-Bold-74" d="M 2272 0 
Q 1779 0 1488 285 
Q 1197 570 1197 1056 
L 1197 2797 
L 224 2797 
L 224 3520 
L 1197 3520 
L 1197 4512 
L 2003 4512 
L 2003 3520 
L 3405 3520 
L 3405 2797 
L 2003 2797 
L 2003 1075 
Q 2003 922 2089 822 
Q 2176 723 2330 723 
L 3373 723 
L 3373 0 
L 2272 0 
z
" transform="scale(0.015625)"/>
      <path id="JetBrainsMono-Bold-69" d="M 486 0 
L 486 723 
L 1690 723 
L 1690 2797 
L 614 2797 
L 614 3520 
L 2490 3520 
L 2490 723 
L 3571 723 
L 3571 0 
L 486 0 
z
M 2032 4109 
Q 1789 4109 1648 4233 
Q 1507 4358 1507 4570 
Q 1507 4781 1648 4905 
Q 1789 5030 2032 5030 
Q 2275 5030 2416 4905 
Q 2557 4781 2557 4570 
Q 2557 4358 2416 4233 
Q 2275 4109 2032 4109 
z
" transform="scale(0.015625)"/>
      <path id="JetBrainsMono-Bold-6e" d="M 493 0 
L 493 3520 
L 1274 3520 
L 1274 2861 
Q 1338 3194 1587 3389 
Q 1837 3584 2221 3584 
Q 2739 3584 3049 3238 
Q 3360 2893 3360 2310 
L 3360 0 
L 2560 0 
L 2560 2214 
Q 2560 2541 2390 2717 
Q 2221 2893 1933 2893 
Q 1632 2893 1462 2713 
Q 1293 2534 1293 2202 
L 1293 0 
L 493 0 
z
" transform="scale(0.015625)"/>
      <path id="JetBrainsMono-Bold-67" d="M 973 -1152 
L 973 -486 
L 1965 -486 
Q 2246 -486 2400 -336 
Q 2554 -186 2554 70 
L 2554 282 
L 2566 832 
Q 2458 538 2218 374 
Q 1978 211 1632 211 
Q 1094 211 777 572 
Q 461 934 461 1555 
L 461 2240 
Q 461 2854 777 3219 
Q 1094 3584 1632 3584 
Q 1978 3584 2218 3421 
Q 2458 3258 2566 2957 
L 2566 3520 
L 3347 3520 
L 3347 51 
Q 3347 -506 2979 -829 
Q 2611 -1152 1978 -1152 
L 973 -1152 
z
M 1901 896 
Q 2208 896 2377 1078 
Q 2547 1261 2547 1587 
L 2547 2202 
Q 2547 2528 2377 2710 
Q 2208 2893 1901 2893 
Q 1594 2893 1427 2717 
Q 1261 2541 1261 2227 
L 1261 1562 
Q 1261 1248 1427 1072 
Q 1594 896 1901 896 
z
" transform="scale(0.015625)"/>
      <path id="JetBrainsMono-Bold-20" transform="scale(0.015625)"/>
      <path id="JetBrainsMono-Bold-48" d="M 493 0 
L 493 4672 
L 1293 4672 
L 1293 2778 
L 2547 2778 
L 2547 4672 
L 3347 4672 
L 3347 0 
L 2547 0 
L 2547 2054 
L 1293 2054 
L 1293 0 
L 493 0 
z
" transform="scale(0.015625)"/>
      <path id="JetBrainsMono-Bold-73" d="M 1773 -58 
Q 1146 -58 781 227 
Q 416 512 416 998 
L 1203 998 
Q 1203 794 1353 685 
Q 1504 576 1773 576 
L 2054 576 
Q 2342 576 2499 685 
Q 2656 794 2656 998 
Q 2656 1190 2547 1283 
Q 2438 1376 2214 1408 
L 1338 1523 
Q 915 1581 688 1849 
Q 461 2118 461 2547 
Q 461 3046 793 3312 
Q 1126 3578 1754 3578 
L 2048 3578 
Q 2637 3578 2995 3309 
Q 3354 3040 3366 2592 
L 2573 2592 
Q 2566 2758 2425 2857 
Q 2285 2957 2048 2957 
L 1754 2957 
Q 1498 2957 1363 2851 
Q 1229 2746 1229 2566 
Q 1229 2406 1328 2329 
Q 1427 2253 1619 2234 
L 2445 2118 
Q 2931 2061 3177 1776 
Q 3424 1491 3424 1011 
Q 3424 499 3075 220 
Q 2726 -58 2054 -58 
L 1773 -58 
z
" transform="scale(0.015625)"/>
      <path id="JetBrainsMono-Bold-6f" d="M 1920 -58 
Q 1242 -58 845 323 
Q 448 704 448 1350 
L 448 2170 
Q 448 2822 845 3200 
Q 1242 3578 1920 3578 
Q 2598 3578 2995 3200 
Q 3392 2822 3392 2170 
L 3392 1350 
Q 3392 704 2995 323 
Q 2598 -58 1920 -58 
z
M 1920 640 
Q 2240 640 2416 816 
Q 2592 992 2592 1325 
L 2592 2195 
Q 2592 2528 2416 2704 
Q 2240 2880 1920 2880 
Q 1600 2880 1424 2704 
Q 1248 2528 1248 2195 
L 1248 1325 
Q 1248 992 1424 816 
Q 1600 640 1920 640 
z
" transform="scale(0.015625)"/>
      <path id="JetBrainsMono-Bold-72" d="M 621 0 
L 621 3520 
L 1402 3520 
L 1402 2835 
Q 1466 3181 1718 3382 
Q 1971 3584 2374 3584 
Q 2912 3584 3213 3238 
Q 3514 2893 3514 2272 
L 3514 1939 
L 2714 1939 
L 2714 2234 
Q 2714 2554 2547 2723 
Q 2381 2893 2074 2893 
Q 1754 2893 1587 2701 
Q 1421 2509 1421 2157 
L 1421 0 
L 621 0 
z
" transform="scale(0.015625)"/>
      <path id="JetBrainsMono-Bold-79" d="M 1056 -1152 
L 1555 192 
L 230 3520 
L 1075 3520 
L 1754 1722 
Q 1811 1562 1868 1373 
Q 1926 1184 1952 1024 
Q 1971 1184 2025 1373 
Q 2080 1562 2138 1722 
L 2765 3520 
L 3610 3520 
L 1894 -1152 
L 1056 -1152 
z
" transform="scale(0.015625)"/>
     </defs>
     <use xlink:href="#JetBrainsMono-Bold-52"/>
     <use xlink:href="#JetBrainsMono-Bold-61" transform="translate(59.999985 0)"/>
     <use xlink:href="#JetBrainsMono-Bold-74" transform="translate(119.999969 0)"/>
     <use xlink:href="#JetBrainsMono-Bold-69" transform="translate(179.999954 0)"/>
     <use xlink:href="#JetBrainsMono-Bold-6e" transform="translate(239.999939 0)"/>
     <use xlink:href="#JetBrainsMono-Bold-67" transform="translate(299.999924 0)"/>
     <use xlink:href="#JetBrainsMono-Bold-20" transform="translate(359.999908 0)"/>
     <use xlink:href="#JetBrainsMono-Bold-48" transform="translate(419.999893 0)"/>
     <use xlink:href="#JetBrainsMono-Bold-69" transform="translate(479.999878 0)"/>
     <use xlink:href="#JetBrainsMono-Bold-73" transform="translate(539.999863 0)"/>
     <use xlink:href="#JetBrainsMono-Bold-74" transform="translate(599.999847 0)"/>
     <use xlink:href="#JetBrainsMono-Bold-6f" transform="translate(659.999832 0)"/>
     <use xlink:href="#JetBrainsMono-Bold-72" transform="translate(719.999817 0)"/>
     <use xlink:href="#JetBrainsMono-Bold-79" transform="translate(779.999802 0)"/>
    </g>
   </g>
   <g id="line2d_29">
    <path d="M 63.4752 274.711491 
L 65.061801 273.845686 
L 66.648401 272.434408 
L 68.235002 270.516035 
L 69.821603 268.128941 
L 71.408203 265.311505 
L 72.994804 262.102102 
L 74.581405 258.53911 
L 77.754606 250.505864 
L 80.927807 241.518778 
L 85.687609 226.921293 
L 93.620613 202.172309 
L 96.793814 193.020128 
L 106.313418 166.900626 
L 107.900019 161.914878 
L 109.486619 156.528742 
L 111.07322 150.65984 
L 112.659821 144.225809 
L 115.833022 129.722456 
L 122.179425 98.976115 
L 123.766025 91.986608 
L 125.352626 85.63919 
L 126.939227 80.11549 
L 128.525827 75.597138 
L 130.112428 72.241532 
L 131.699029 70.001136 
L 133.285629 68.725365 
L 134.87223 68.262857 
L 136.458831 68.462247 
L 138.045431 69.172171 
L 139.632032 70.241266 
L 144.391834 74.089932 
L 145.978435 75.084949 
L 147.565035 75.773723 
L 149.151636 76.19144 
L 150.738237 76.378656 
L 152.324837 76.375931 
L 155.498039 75.962885 
L 161.844441 74.642013 
L 165.017643 74.299402 
L 168.190844 74.217332 
L 172.950646 74.392557 
L 180.883649 74.769673 
L 187.230052 74.782135 
L 204.68266 74.65313 
L 236.414673 74.675465 
L 537.8688 74.677455 
L 537.8688 74.677455 
" clip-path="url(#pa7a830743f)" style="fill: none; stroke: #8b5cf6; stroke-width: 1.2; stroke-linecap: round"/>
   </g>
   <g id="PathCollection_1">
    <defs>
     <path id="m50b3179167" d="M 0 2.236068 
C 0.593012 2.236068 1.161816 2.000462 1.581139 1.581139 
C 2.000462 1.161816 2.236068 0.593012 2.236068 0 
C 2.236068 -0.593012 2.000462 -1.161816 1.581139 -1.581139 
C 1.161816 -2.000462 0.593012 -2.236068 0 -2.236068 
C -0.593012 -2.236068 -1.161816 -2.000462 -1.581139 -1.581139 
C -2.000462 -1.161816 -2.236068 -0.593012 -2.236068 0 
C -2.236068 0.593012 -2.000462 1.161816 -1.581139 1.581139 
C -1.161816 2.000462 -0.593012 2.236068 0 2.236068 
z
" style="stroke: #ffffff; stroke-width: 0.8"/>
    </defs>
    <g clip-path="url(#pa7a830743f)">
     <use xlink:href="#m50b3179167" x="537.8688" y="74.677455" style="fill: #8b5cf6; stroke: #ffffff; stroke-width: 0.8"/>
    </g>
   </g>
  </g>
  <g id="axes_2">
   <g id="text_18">
    <!-- Rating -->
    <g style="fill: #9b8bb8" transform="translate(565.7472 48.312) scale(0.11 -0.11)">
     <use xlink:href="#JetBrainsMono-Regular-52"/>
     <use xlink:href="#JetBrainsMono-Regular-61" transform="translate(59.999985 0)"/>
     <use xlink:href="#JetBrainsMono-Regular-74" transform="translate(119.999969 0)"/>
     <use xlink:href="#JetBrainsMono-Regular-69" transform="translate(179.999954 0)"/>
     <use xlink:href="#JetBrainsMono-Regular-6e" transform="translate(239.999939 0)"/>
     <use xlink:href="#JetBrainsMono-Regular-67" transform="translate(299.999924 0)"/>
    </g>
   </g>
   <g id="text_19">
    <!-- 265 -->
    <g style="fill: #8b5cf6" transform="translate(565.7472 81.548) scale(0.26 -0.26)">
     <use xlink:href="#JetBrainsMono-Bold-32"/>
     <use xlink:href="#JetBrainsMono-Bold-36" transform="translate(59.999985 0)"/>
     <use xlink:href="#JetBrainsMono-Bold-35" transform="translate(119.999969 0)"/>
    </g>
   </g>
   <g id="text_20">
    <!-- Rank -->
    <g style="fill: #9b8bb8" transform="translate(565.7472 119.592) scale(0.11 -0.11)">
     <defs>
      <path id="JetBrainsMono-Regular-6b" d="M 621 0 
L 621 4672 
L 1197 4672 
L 1197 2067 
L 1869 2067 
L 2854 3520 
L 3514 3520 
L 2381 1843 
L 3578 0 
L 2906 0 
L 1882 1568 
L 1197 1568 
L 1197 0 
L 621 0 
z
" transform="scale(0.015625)"/>
     </defs>
     <use xlink:href="#JetBrainsMono-Regular-52"/>
     <use xlink:href="#JetBrainsMono-Regular-61" transform="translate(59.999985 0)"/>
     <use xlink:href="#JetBrainsMono-Regular-6e" transform="translate(119.999969 0)"/>
     <use xlink:href="#JetBrainsMono-Regular-6b" transform="translate(179.999954 0)"/>
    </g>
   </g>
   <g id="text_21">
    <!-- #118,029 -->
    <g style="fill: #8b5cf6" transform="translate(565.7472 148.104) scale(0.14 -0.14)">
     <defs>
      <path id="JetBrainsMono-Bold-23" d="M 493 0 
L 710 1216 
L 224 1216 
L 224 1760 
L 800 1760 
L 998 2912 
L 448 2912 
L 448 3456 
L 1094 3456 
L 1312 4672 
L 1875 4672 
L 1658 3456 
L 2566 3456 
L 2784 4672 
L 3347 4672 
L 3130 3456 
L 3616 3456 
L 3616 2912 
L 3034 2912 
L 2835 1760 
L 3392 1760 
L 3392 1216 
L 2739 1216 
L 2528 0 
L 1965 0 
L 2182 1216 
L 1267 1216 
L 1056 0 
L 493 0 
z
M 1363 1760 
L 2272 1760 
L 2470 2912 
L 1562 2912 
L 1363 1760 
z
" transform="scale(0.015625)"/>
      <path id="JetBrainsMono-Bold-31" d="M 538 0 
L 538 723 
L 1754 723 
L 1754 3898 
L 531 3002 
L 531 3898 
L 1606 4672 
L 2554 4672 
L 2554 723 
L 3533 723 
L 3533 0 
L 538 0 
z
" transform="scale(0.015625)"/>
      <path id="JetBrainsMono-Bold-38" d="M 1920 -64 
Q 1453 -64 1094 112 
Q 736 288 537 598 
Q 339 909 339 1318 
Q 339 1747 585 2067 
Q 832 2387 1229 2470 
L 1229 2483 
Q 890 2554 682 2829 
Q 474 3104 474 3482 
Q 474 3853 656 4134 
Q 838 4416 1164 4576 
Q 1491 4736 1920 4736 
Q 2349 4736 2678 4576 
Q 3008 4416 3190 4134 
Q 3373 3853 3373 3482 
Q 3373 3104 3161 2829 
Q 2950 2554 2611 2483 
L 2611 2470 
Q 3008 2387 3254 2067 
Q 3501 1747 3501 1318 
Q 3501 909 3302 598 
Q 3104 288 2745 112 
Q 2387 -64 1920 -64 
z
M 1920 2758 
Q 2221 2758 2406 2940 
Q 2592 3123 2592 3411 
Q 2592 3706 2406 3888 
Q 2221 4070 1920 4070 
Q 1619 4070 1433 3888 
Q 1248 3706 1248 3411 
Q 1248 3123 1433 2940 
Q 1619 2758 1920 2758 
z
M 1920 614 
Q 2272 614 2496 819 
Q 2720 1024 2720 1357 
Q 2720 1696 2496 1904 
Q 2272 2112 1920 2112 
Q 1568 2112 1344 1904 
Q 1120 1696 1120 1357 
Q 1120 1024 1344 819 
Q 1568 614 1920 614 
z
" transform="scale(0.015625)"/>
      <path id="JetBrainsMono-Bold-2c" d="M 1216 -1024 
L 1555 934 
L 2470 934 
L 1984 -1024 
L 1216 -1024 
z
" transform="scale(0.015625)"/>
      <path id="JetBrainsMono-Bold-30" d="M 1920 -64 
Q 1466 -64 1133 109 
Q 800 282 617 595 
Q 435 909 435 1331 
L 435 3341 
Q 435 3763 617 4076 
Q 800 4390 1133 4563 
Q 1466 4736 1920 4736 
Q 2374 4736 2707 4563 
Q 3040 4390 3222 4076 
Q 3405 3763 3405 3341 
L 3405 1331 
Q 3405 909 3222 595 
Q 3040 282 2707 109 
Q 2374 -64 1920 -64 
z
M 1920 627 
Q 2253 627 2451 819 
Q 2650 1011 2650 1331 
L 2650 3341 
Q 2650 3661 2454 3853 
Q 2259 4045 1920 4045 
Q 1581 4045 1385 3853 
Q 1190 3661 1190 3341 
L 1190 1331 
Q 1190 1011 1388 819 
Q 1587 627 1920 627 
z
M 1920 1952 
Q 1728 1952 1613 2057 
Q 1498 2163 1498 2355 
Q 1498 2547 1613 2646 
Q 1728 2746 1920 2746 
Q 2112 2746 2227 2646 
Q 2342 2547 2342 2355 
Q 2342 2163 2227 2057 
Q 2112 1952 1920 1952 
z
" transform="scale(0.015625)"/>
      <path id="JetBrainsMono-Bold-39" d="M 1120 0 
L 2214 1888 
Q 2138 1830 2035 1788 
Q 1933 1747 1728 1747 
Q 1344 1747 1027 1932 
Q 710 2118 524 2448 
Q 339 2778 339 3213 
Q 339 3674 534 4016 
Q 730 4358 1085 4547 
Q 1440 4736 1920 4736 
Q 2400 4736 2755 4544 
Q 3110 4352 3305 4003 
Q 3501 3654 3501 3187 
Q 3501 2912 3382 2557 
Q 3264 2202 3059 1837 
L 2048 0 
L 1120 0 
z
M 1920 2387 
Q 2278 2387 2496 2614 
Q 2714 2842 2714 3226 
Q 2714 3603 2496 3830 
Q 2278 4058 1920 4058 
Q 1562 4058 1344 3830 
Q 1126 3603 1126 3226 
Q 1126 2842 1344 2614 
Q 1562 2387 1920 2387 
z
" transform="scale(0.015625)"/>
     </defs>
     <use xlink:href="#JetBrainsMono-Bold-23"/>
     <use xlink:href="#JetBrainsMono-Bold-31" transform="translate(59.999985 0)"/>
     <use xlink:href="#JetBrainsMono-Bold-31" transform="translate(119.999969 0)"/>
     <use xlink:href="#JetBrainsMono-Bold-38" transform="translate(179.999954 0)"/>
     <use xlink:href="#JetBrainsMono-Bold-2c" transform="translate(239.999939 0)"/>
     <use xlink:href="#JetBrainsMono-Bold-30" transform="translate(299.999924 0)"/>
     <use xlink:href="#JetBrainsMono-Bold-32" transform="translate(359.999908 0)"/>
     <use xlink:href="#JetBrainsMono-Bold-39" transform="translate(419.999893 0)"/>
    </g>
   </g>
   <g id="text_22">
    <!-- ─ 0 -->
    <g style="fill: #9b8bb8" transform="translate(565.7472 169.488) scale(0.11 -0.11)">
     <defs>
      <path id="JetBrainsMono-Bold-2500" d="M -128 2048 
L -128 2688 
L 3968 2688 
L 3968 2048 
L -128 2048 
z
" transform="scale(0.015625)"/>
     </defs>
     <use xlink:href="#JetBrainsMono-Bold-2500"/>
     <use xlink:href="#JetBrainsMono-Bold-20" transform="translate(59.999985 0)"/>
     <use xlink:href="#JetBrainsMono-Bold-30" transform="translate(119.999969 0)"/>
    </g>
   </g>
  </g>
 </g>
 <defs>
  <clipPath id="pa7a830743f">
   <rect x="55.296" y="55.44" width="490.752" height="269.28"/>
  </clipPath>
 </defs>
</svg>
