<?xml version="1.0" encoding="utf-8" standalone="no"?>
<!DOCTYPE svg PUBLIC "-//W3C//DTD SVG 1.1//EN"
  "http://www.w3.org/Graphics/SVG/1.1/DTD/svg11.dtd">
<svg xmlns:xlink="http://www.w3.org/1999/xlink" width="691.2pt" height="396pt" viewBox="0 0 691.2 396" xmlns="http://www.w3.org/2000/svg" version="1.1">
 <metadata>
  <rdf:RDF xmlns:dc="http://purl.org/dc/elements/1.1/" xmlns:cc="http://creativecommons.org/ns#" xmlns:rdf="http://www.w3.org/1999/02/22-rdf-syntax-ns#">
   <cc:Work>
    <dc:type rdf:resource="http://purl.org/dc/dcmitype/StillImage"/>
    <dc:date>2026-04-22T16:00:29.206559</dc:date>
    <dc:format>image/svg+xml</dc:format>
    <dc:creator>
     <cc:Agent>
      <dc:title>Matplotlib v3.10.8, https://matplotlib.org/</dc:title>
     </cc:Agent>
    </dc:creator>
   </cc:Work>
  </rdf:RDF>
 </metadata>
 <defs>
  <style type="text/css">*{stroke-linejoin: round; stroke-linecap: butt}</style>
 </defs>
 <g id="figure_1">
  <g id="patch_1">
   <path d="M 0 396 
L 691.2 396 
L 691.2 0 
L 0 0 
L 0 396 
z
" style="fill: none"/>
  </g>
  <g id="axes_1">
   <g id="patch_2">
    <path d="M 55.296 324.72 
L 546.048 324.72 
L 546.048 55.44 
L 55.296 55.44 
L 55.296 324.72 
z
" style="fill: none"/>
   </g>
   <g id="matplotlib.axis_1">
    <g id="xtick_1">
     <g id="line2d_1">
      <path d="M 65.964522 324.72 
L 65.964522 55.44 
" clip-path="url(#p2ea966f459)" style="fill: none; stroke-dasharray: 2.22,0.96; stroke-dashoffset: 0; stroke: #e2d5f5; stroke-opacity: 0.7; stroke-width: 0.6"/>
     </g>
     <g id="line2d_2">
      <defs>
       <path id="mf1d5c07890" d="M 0 0 
L 0 3.5 
" style="stroke: #9b8bb8; stroke-width: 0.8"/>
      </defs>
      <g>
       <use xlink:href="#mf1d5c07890" x="65.964522" y="324.72" style="fill: #9b8bb8; stroke: #9b8bb8; stroke-width: 0.8"/>
      </g>
     </g>
     <g id="text_1">
      <!-- 03/31 -->
      <g style="fill: #9b8bb8" transform="translate(54.424141 353.301793) rotate(-30) scale(0.1 -0.1)">
       <defs>
        <path id="JetBrainsMono-Regular-30" d="M 1920 -64 
Q 1274 -64 893 310 
Q 512 685 512 1312 
L 512 3360 
Q 512 3987 893 4361 
Q 1274 4736 1920 4736 
Q 2566 4736 2947 4361 
Q 3328 3987 3328 3360 
L 3328 1312 
Q 3328 896 3155 585 
Q 2982 275 2665 105 
Q 2349 -64 1920 -64 
z
M 1920 429 
Q 2304 429 2537 675 
Q 2771 922 2771 1312 
L 2771 3360 
Q 2771 3750 2537 3996 
Q 2304 4243 1920 4243 
Q 1536 4243 1302 3996 
Q 1069 3750 1069 3360 
L 1069 1312 
Q 1069 922 1302 675 
Q 1536 429 1920 429 
z
M 1920 1984 
Q 1747 1984 1641 2080 
Q 1536 2176 1536 2355 
Q 1536 2528 1641 2621 
Q 1747 2714 1920 2714 
Q 2093 2714 2198 2621 
Q 2304 2528 2304 2355 
Q 2304 2176 2198 2080 
Q 2093 1984 1920 1984 
z
" transform="scale(0.015625)"/>
        <path id="JetBrainsMono-Regular-33" d="M 1850 -64 
Q 1203 -64 825 297 
Q 448 659 448 1280 
L 1024 1280 
Q 1024 896 1248 672 
Q 1472 448 1856 448 
Q 2240 448 2464 672 
Q 2688 896 2688 1280 
L 2688 1600 
Q 2688 1984 2464 2208 
Q 2240 2432 1856 2432 
L 1350 2432 
L 1350 2931 
L 2496 4147 
L 576 4147 
L 576 4672 
L 3149 4672 
L 3149 4134 
L 2022 2938 
Q 2598 2893 2931 2537 
Q 3264 2182 3264 1600 
L 3264 1280 
Q 3264 659 2883 297 
Q 2502 -64 1850 -64 
z
" transform="scale(0.015625)"/>
        <path id="JetBrainsMono-Regular-2f" d="M 480 -704 
L 2752 5312 
L 3360 5312 
L 1088 -704 
L 480 -704 
z
" transform="scale(0.015625)"/>
        <path id="JetBrainsMono-Regular-31" d="M 576 0 
L 576 525 
L 1843 525 
L 1843 4173 
L 576 3226 
L 576 3885 
L 1632 4672 
L 2419 4672 
L 2419 525 
L 3456 525 
L 3456 0 
L 576 0 
z
" transform="scale(0.015625)"/>
       </defs>
       <use xlink:href="#JetBrainsMono-Regular-30"/>
       <use xlink:href="#JetBrainsMono-Regular-33" transform="translate(59.999985 0)"/>
       <use xlink:href="#JetBrainsMono-Regular-2f" transform="translate(119.999969 0)"/>
       <use xlink:href="#JetBrainsMono-Regular-33" transform="translate(179.999954 0)"/>
       <use xlink:href="#JetBrainsMono-Regular-31" transform="translate(239.999939 0)"/>
      </g>
     </g>
    </g>
    <g id="xtick_2">
     <g id="line2d_3">
      <path d="M 129.975652 324.72 
L 129.975652 55.44 
" clip-path="url(#p2ea966f459)" style="fill: none; stroke-dasharray: 2.22,0.96; stroke-dashoffset: 0; stroke: #e2d5f5; stroke-opacity: 0.7; stroke-width: 0.6"/>
     </g>
     <g id="line2d_4">
      <g>
       <use xlink:href="#mf1d5c07890" x="129.975652" y="324.72" style="fill: #9b8bb8; stroke: #9b8bb8; stroke-width: 0.8"/>
      </g>
     </g>
     <g id="text_2">
      <!-- 04/03 -->
      <g style="fill: #9b8bb8" transform="translate(118.435271 353.301793) rotate(-30) scale(0.1 -0.1)">
       <defs>
        <path id="JetBrainsMono-Regular-34" d="M 2560 0 
L 2560 1024 
L 448 1024 
L 448 1926 
L 2150 4672 
L 2803 4672 
L 1024 1798 
L 1024 1549 
L 2560 1549 
L 2560 2688 
L 3136 2688 
L 3136 0 
L 2560 0 
z
" transform="scale(0.015625)"/>
       </defs>
       <use xlink:href="#JetBrainsMono-Regular-30"/>
       <use xlink:href="#JetBrainsMono-Regular-34" transform="translate(59.999985 0)"/>
       <use xlink:href="#JetBrainsMono-Regular-2f" transform="translate(119.999969 0)"/>
       <use xlink:href="#JetBrainsMono-Regular-30" transform="translate(179.999954 0)"/>
       <use xlink:href="#JetBrainsMono-Regular-33" transform="translate(239.999939 0)"/>
      </g>
     </g>
    </g>
    <g id="xtick_3">
     <g id="line2d_5">
      <path d="M 193.986783 324.72 
L 193.986783 55.44 
" clip-path="url(#p2ea966f459)" style="fill: none; stroke-dasharray: 2.22,0.96; stroke-dashoffset: 0; stroke: #e2d5f5; stroke-opacity: 0.7; stroke-width: 0.6"/>
     </g>
     <g id="line2d_6">
      <g>
       <use xlink:href="#mf1d5c07890" x="193.986783" y="324.72" style="fill: #9b8bb8; stroke: #9b8bb8; stroke-width: 0.8"/>
      </g>
     </g>
     <g id="text_3">
      <!-- 04/06 -->
      <g style="fill: #9b8bb8" transform="translate(182.446402 353.301793) rotate(-30) scale(0.1 -0.1)">
       <defs>
        <path id="JetBrainsMono-Regular-36" d="M 1926 -64 
Q 1478 -64 1136 125 
Q 794 314 602 650 
Q 410 986 410 1427 
Q 410 1734 525 2057 
Q 640 2381 838 2733 
L 1920 4672 
L 2560 4672 
L 1408 2669 
L 1427 2656 
Q 1510 2765 1676 2822 
Q 1843 2880 2042 2880 
Q 2458 2880 2768 2697 
Q 3078 2515 3254 2195 
Q 3430 1875 3430 1453 
Q 3430 1005 3238 662 
Q 3046 320 2710 128 
Q 2374 -64 1926 -64 
z
M 1920 448 
Q 2336 448 2595 723 
Q 2854 998 2854 1440 
Q 2854 1882 2595 2157 
Q 2336 2432 1920 2432 
Q 1504 2432 1245 2157 
Q 986 1882 986 1440 
Q 986 998 1245 723 
Q 1504 448 1920 448 
z
" transform="scale(0.015625)"/>
       </defs>
       <use xlink:href="#JetBrainsMono-Regular-30"/>
       <use xlink:href="#JetBrainsMono-Regular-34" transform="translate(59.999985 0)"/>
       <use xlink:href="#JetBrainsMono-Regular-2f" transform="translate(119.999969 0)"/>
       <use xlink:href="#JetBrainsMono-Regular-30" transform="translate(179.999954 0)"/>
       <use xlink:href="#JetBrainsMono-Regular-36" transform="translate(239.999939 0)"/>
      </g>
     </g>
    </g>
    <g id="xtick_4">
     <g id="line2d_7">
      <path d="M 257.997913 324.72 
L 257.997913 55.44 
" clip-path="url(#p2ea966f459)" style="fill: none; stroke-dasharray: 2.22,0.96; stroke-dashoffset: 0; stroke: #e2d5f5; stroke-opacity: 0.7; stroke-width: 0.6"/>
     </g>
     <g id="line2d_8">
      <g>
       <use xlink:href="#mf1d5c07890" x="257.997913" y="324.72" style="fill: #9b8bb8; stroke: #9b8bb8; stroke-width: 0.8"/>
      </g>
     </g>
     <g id="text_4">
      <!-- 04/09 -->
      <g style="fill: #9b8bb8" transform="translate(246.457532 353.301793) rotate(-30) scale(0.1 -0.1)">
       <defs>
        <path id="JetBrainsMono-Regular-39" d="M 1248 0 
L 2400 2003 
L 2381 2016 
Q 2317 1914 2144 1853 
Q 1971 1792 1766 1792 
Q 1363 1792 1059 1974 
Q 755 2157 582 2477 
Q 410 2797 410 3219 
Q 410 3674 602 4013 
Q 794 4352 1133 4544 
Q 1472 4736 1914 4736 
Q 2368 4736 2707 4547 
Q 3046 4358 3238 4022 
Q 3430 3686 3430 3245 
Q 3430 2938 3315 2614 
Q 3200 2291 3002 1939 
L 1920 0 
L 1248 0 
z
M 1920 2240 
Q 2336 2240 2595 2515 
Q 2854 2790 2854 3232 
Q 2854 3674 2595 3949 
Q 2336 4224 1920 4224 
Q 1504 4224 1245 3949 
Q 986 3674 986 3232 
Q 986 2790 1245 2515 
Q 1504 2240 1920 2240 
z
" transform="scale(0.015625)"/>
       </defs>
       <use xlink:href="#JetBrainsMono-Regular-30"/>
       <use xlink:href="#JetBrainsMono-Regular-34" transform="translate(59.999985 0)"/>
       <use xlink:href="#JetBrainsMono-Regular-2f" transform="translate(119.999969 0)"/>
       <use xlink:href="#JetBrainsMono-Regular-30" transform="translate(179.999954 0)"/>
       <use xlink:href="#JetBrainsMono-Regular-39" transform="translate(239.999939 0)"/>
      </g>
     </g>
    </g>
    <g id="xtick_5">
     <g id="line2d_9">
      <path d="M 322.009043 324.72 
L 322.009043 55.44 
" clip-path="url(#p2ea966f459)" style="fill: none; stroke-dasharray: 2.22,0.96; stroke-dashoffset: 0; stroke: #e2d5f5; stroke-opacity: 0.7; stroke-width: 0.6"/>
     </g>
     <g id="line2d_10">
      <g>
       <use xlink:href="#mf1d5c07890" x="322.009043" y="324.72" style="fill: #9b8bb8; stroke: #9b8bb8; stroke-width: 0.8"/>
      </g>
     </g>
     <g id="text_5">
      <!-- 04/12 -->
      <g style="fill: #9b8bb8" transform="translate(310.468662 353.301793) rotate(-30) scale(0.1 -0.1)">
       <defs>
        <path id="JetBrainsMono-Regular-32" d="M 550 0 
L 550 531 
L 2106 2195 
Q 2445 2554 2585 2835 
Q 2726 3117 2726 3386 
Q 2726 3770 2505 3997 
Q 2285 4224 1907 4224 
Q 1517 4224 1289 3990 
Q 1062 3757 1062 3360 
L 486 3360 
Q 506 3994 890 4365 
Q 1274 4736 1907 4736 
Q 2554 4736 2934 4371 
Q 3315 4006 3315 3379 
Q 3315 3046 3132 2675 
Q 2950 2304 2509 1843 
L 1248 525 
L 3373 525 
L 3373 0 
L 550 0 
z
" transform="scale(0.015625)"/>
       </defs>
       <use xlink:href="#JetBrainsMono-Regular-30"/>
       <use xlink:href="#JetBrainsMono-Regular-34" transform="translate(59.999985 0)"/>
       <use xlink:href="#JetBrainsMono-Regular-2f" transform="translate(119.999969 0)"/>
       <use xlink:href="#JetBrainsMono-Regular-31" transform="translate(179.999954 0)"/>
       <use xlink:href="#JetBrainsMono-Regular-32" transform="translate(239.999939 0)"/>
      </g>
     </g>
    </g>
    <g id="xtick_6">
     <g id="line2d_11">
      <path d="M 386.020174 324.72 
L 386.020174 55.44 
" clip-path="url(#p2ea966f459)" style="fill: none; stroke-dasharray: 2.22,0.96; stroke-dashoffset: 0; stroke: #e2d5f5; stroke-opacity: 0.7; stroke-width: 0.6"/>
     </g>
     <g id="line2d_12">
      <g>
       <use xlink:href="#mf1d5c07890" x="386.020174" y="324.72" style="fill: #9b8bb8; stroke: #9b8bb8; stroke-width: 0.8"/>
      </g>
     </g>
     <g id="text_6">
      <!-- 04/15 -->
      <g style="fill: #9b8bb8" transform="translate(374.479793 353.301793) rotate(-30) scale(0.1 -0.1)">
       <defs>
        <path id="JetBrainsMono-Regular-35" d="M 1882 -64 
Q 1235 -64 857 297 
Q 480 659 480 1280 
L 1056 1280 
Q 1056 896 1280 672 
Q 1504 448 1888 448 
Q 2272 448 2496 672 
Q 2720 896 2720 1280 
L 2720 1568 
Q 2720 1952 2502 2176 
Q 2285 2400 1914 2400 
L 640 2400 
L 640 4672 
L 3130 4672 
L 3130 4147 
L 1178 4147 
L 1190 2925 
L 1946 2925 
Q 2592 2925 2944 2569 
Q 3296 2214 3296 1568 
L 3296 1280 
Q 3296 659 2915 297 
Q 2534 -64 1882 -64 
z
" transform="scale(0.015625)"/>
       </defs>
       <use xlink:href="#JetBrainsMono-Regular-30"/>
       <use xlink:href="#JetBrainsMono-Regular-34" transform="translate(59.999985 0)"/>
       <use xlink:href="#JetBrainsMono-Regular-2f" transform="translate(119.999969 0)"/>
       <use xlink:href="#JetBrainsMono-Regular-31" transform="translate(179.999954 0)"/>
       <use xlink:href="#JetBrainsMono-Regular-35" transform="translate(239.999939 0)"/>
      </g>
     </g>
    </g>
    <g id="xtick_7">
     <g id="line2d_13">
      <path d="M 450.031304 324.72 
L 450.031304 55.44 
" clip-path="url(#p2ea966f459)" style="fill: none; stroke-dasharray: 2.22,0.96; stroke-dashoffset: 0; stroke: #e2d5f5; stroke-opacity: 0.7; stroke-width: 0.6"/>
     </g>
     <g id="line2d_14">
      <g>
       <use xlink:href="#mf1d5c07890" x="450.031304" y="324.72" style="fill: #9b8bb8; stroke: #9b8bb8; stroke-width: 0.8"/>
      </g>
     </g>
     <g id="text_7">
      <!-- 04/18 -->
      <g style="fill: #9b8bb8" transform="translate(438.490923 353.301793) rotate(-30) scale(0.1 -0.1)">
       <defs>
        <path id="JetBrainsMono-Regular-38" d="M 1920 -64 
Q 1478 -64 1139 109 
Q 800 282 611 592 
Q 422 902 422 1306 
Q 422 1747 675 2067 
Q 928 2387 1350 2458 
L 1350 2477 
Q 986 2560 768 2845 
Q 550 3130 550 3501 
Q 550 3866 723 4144 
Q 896 4422 1206 4579 
Q 1517 4736 1920 4736 
Q 2330 4736 2637 4579 
Q 2944 4422 3117 4144 
Q 3290 3866 3290 3501 
Q 3290 3130 3072 2845 
Q 2854 2560 2490 2477 
L 2490 2458 
Q 2912 2387 3165 2067 
Q 3418 1747 3418 1306 
Q 3418 902 3229 592 
Q 3040 282 2704 109 
Q 2368 -64 1920 -64 
z
M 1920 2701 
Q 2278 2701 2496 2912 
Q 2714 3123 2714 3462 
Q 2714 3802 2496 4013 
Q 2278 4224 1920 4224 
Q 1568 4224 1347 4013 
Q 1126 3802 1126 3462 
Q 1126 3123 1347 2912 
Q 1568 2701 1920 2701 
z
M 1920 454 
Q 2330 454 2586 694 
Q 2842 934 2842 1318 
Q 2842 1709 2586 1949 
Q 2330 2189 1920 2189 
Q 1510 2189 1254 1949 
Q 998 1709 998 1318 
Q 998 934 1254 694 
Q 1510 454 1920 454 
z
" transform="scale(0.015625)"/>
       </defs>
       <use xlink:href="#JetBrainsMono-Regular-30"/>
       <use xlink:href="#JetBrainsMono-Regular-34" transform="translate(59.999985 0)"/>
       <use xlink:href="#JetBrainsMono-Regular-2f" transform="translate(119.999969 0)"/>
       <use xlink:href="#JetBrainsMono-Regular-31" transform="translate(179.999954 0)"/>
       <use xlink:href="#JetBrainsMono-Regular-38" transform="translate(239.999939 0)"/>
      </g>
     </g>
    </g>
    <g id="xtick_8">
     <g id="line2d_15">
      <path d="M 514.042435 324.72 
L 514.042435 55.44 
" clip-path="url(#p2ea966f459)" style="fill: none; stroke-dasharray: 2.22,0.96; stroke-dashoffset: 0; stroke: #e2d5f5; stroke-opacity: 0.7; stroke-width: 0.6"/>
     </g>
     <g id="line2d_16">
      <g>
       <use xlink:href="#mf1d5c07890" x="514.042435" y="324.72" style="fill: #9b8bb8; stroke: #9b8bb8; stroke-width: 0.8"/>
      </g>
     </g>
     <g id="text_8">
      <!-- 04/21 -->
      <g style="fill: #9b8bb8" transform="translate(502.502054 353.301793) rotate(-30) scale(0.1 -0.1)">
       <use xlink:href="#JetBrainsMono-Regular-30"/>
       <use xlink:href="#JetBrainsMono-Regular-34" transform="translate(59.999985 0)"/>
       <use xlink:href="#JetBrainsMono-Regular-2f" transform="translate(119.999969 0)"/>
       <use xlink:href="#JetBrainsMono-Regular-32" transform="translate(179.999954 0)"/>
       <use xlink:href="#JetBrainsMono-Regular-31" transform="translate(239.999939 0)"/>
      </g>
     </g>
    </g>
   </g>
   <g id="matplotlib.axis_2">
    <g id="ytick_1">
     <g id="line2d_17">
      <path d="M 55.296 309.989834 
L 546.048 309.989834 
" clip-path="url(#p2ea966f459)" style="fill: none; stroke-dasharray: 2.22,0.96; stroke-dashoffset: 0; stroke: #e2d5f5; stroke-opacity: 0.7; stroke-width: 0.6"/>
     </g>
     <g id="line2d_18">
      <defs>
       <path id="m2fedac7770" d="M 0 0 
L -3.5 0 
" style="stroke: #9b8bb8; stroke-width: 0.8"/>
      </defs>
      <g>
       <use xlink:href="#m2fedac7770" x="55.296" y="309.989834" style="fill: #9b8bb8; stroke: #9b8bb8; stroke-width: 0.8"/>
      </g>
     </g>
     <g id="text_9">
      <!-- 200 -->
      <g style="fill: #9b8bb8" transform="translate(30.296 313.639834) scale(0.1 -0.1)">
       <use xlink:href="#JetBrainsMono-Regular-32"/>
       <use xlink:href="#JetBrainsMono-Regular-30" transform="translate(59.999985 0)"/>
       <use xlink:href="#JetBrainsMono-Regular-30" transform="translate(119.999969 0)"/>
      </g>
     </g>
    </g>
    <g id="ytick_2">
     <g id="line2d_19">
      <path d="M 55.296 273.164418 
L 546.048 273.164418 
" clip-path="url(#p2ea966f459)" style="fill: none; stroke-dasharray: 2.22,0.96; stroke-dashoffset: 0; stroke: #e2d5f5; stroke-opacity: 0.7; stroke-width: 0.6"/>
     </g>
     <g id="line2d_20">
      <g>
       <use xlink:href="#m2fedac7770" x="55.296" y="273.164418" style="fill: #9b8bb8; stroke: #9b8bb8; stroke-width: 0.8"/>
      </g>
     </g>
     <g id="text_10">
      <!-- 210 -->
      <g style="fill: #9b8bb8" transform="translate(30.296 276.814418) scale(0.1 -0.1)">
       <use xlink:href="#JetBrainsMono-Regular-32"/>
       <use xlink:href="#JetBrainsMono-Regular-31" transform="translate(59.999985 0)"/>
       <use xlink:href="#JetBrainsMono-Regular-30" transform="translate(119.999969 0)"/>
      </g>
     </g>
    </g>
    <g id="ytick_3">
     <g id="line2d_21">
      <path d="M 55.296 236.339002 
L 546.048 236.339002 
" clip-path="url(#p2ea966f459)" style="fill: none; stroke-dasharray: 2.22,0.96; stroke-dashoffset: 0; stroke: #e2d5f5; stroke-opacity: 0.7; stroke-width: 0.6"/>
     </g>
     <g id="line2d_22">
      <g>
       <use xlink:href="#m2fedac7770" x="55.296" y="236.339002" style="fill: #9b8bb8; stroke: #9b8bb8; stroke-width: 0.8"/>
      </g>
     </g>
     <g id="text_11">
      <!-- 220 -->
      <g style="fill: #9b8bb8" transform="translate(30.296 239.989002) scale(0.1 -0.1)">
       <use xlink:href="#JetBrainsMono-Regular-32"/>
       <use xlink:href="#JetBrainsMono-Regular-32" transform="translate(59.999985 0)"/>
       <use xlink:href="#JetBrainsMono-Regular-30" transform="translate(119.999969 0)"/>
      </g>
     </g>
    </g>
    <g id="ytick_4">
     <g id="line2d_23">
      <path d="M 55.296 199.513587 
L 546.048 199.513587 
" clip-path="url(#p2ea966f459)" style="fill: none; stroke-dasharray: 2.22,0.96; stroke-dashoffset: 0; stroke: #e2d5f5; stroke-opacity: 0.7; stroke-width: 0.6"/>
     </g>
     <g id="line2d_24">
      <g>
       <use xlink:href="#m2fedac7770" x="55.296" y="199.513587" style="fill: #9b8bb8; stroke: #9b8bb8; stroke-width: 0.8"/>
      </g>
     </g>
     <g id="text_12">
      <!-- 230 -->
      <g style="fill: #9b8bb8" transform="translate(30.296 203.163587) scale(0.1 -0.1)">
       <use xlink:href="#JetBrainsMono-Regular-32"/>
       <use xlink:href="#JetBrainsMono-Regular-33" transform="translate(59.999985 0)"/>
       <use xlink:href="#JetBrainsMono-Regular-30" transform="translate(119.999969 0)"/>
      </g>
     </g>
    </g>
    <g id="ytick_5">
     <g id="line2d_25">
      <path d="M 55.296 162.688171 
L 546.048 162.688171 
" clip-path="url(#p2ea966f459)" style="fill: none; stroke-dasharray: 2.22,0.96; stroke-dashoffset: 0; stroke: #e2d5f5; stroke-opacity: 0.7; stroke-width: 0.6"/>
     </g>
     <g id="line2d_26">
      <g>
       <use xlink:href="#m2fedac7770" x="55.296" y="162.688171" style="fill: #9b8bb8; stroke: #9b8bb8; stroke-width: 0.8"/>
      </g>
     </g>
     <g id="text_13">
      <!-- 240 -->
      <g style="fill: #9b8bb8" transform="translate(30.296 166.338171) scale(0.1 -0.1)">
       <use xlink:href="#JetBrainsMono-Regular-32"/>
       <use xlink:href="#JetBrainsMono-Regular-34" transform="translate(59.999985 0)"/>
       <use xlink:href="#JetBrainsMono-Regular-30" transform="translate(119.999969 0)"/>
      </g>
     </g>
    </g>
    <g id="ytick_6">
     <g id="line2d_27">
      <path d="M 55.296 125.862755 
L 546.048 125.862755 
" clip-path="url(#p2ea966f459)" style="fill: none; stroke-dasharray: 2.22,0.96; stroke-dashoffset: 0; stroke: #e2d5f5; stroke-opacity: 0.7; stroke-width: 0.6"/>
     </g>
     <g id="line2d_28">
      <g>
       <use xlink:href="#m2fedac7770" x="55.296" y="125.862755" style="fill: #9b8bb8; stroke: #9b8bb8; stroke-width: 0.8"/>
      </g>
     </g>
     <g id="text_14">
      <!-- 250 -->
      <g style="fill: #9b8bb8" transform="translate(30.296 129.512755) scale(0.1 -0.1)">
       <use xlink:href="#JetBrainsMono-Regular-32"/>
       <use xlink:href="#JetBrainsMono-Regular-35" transform="translate(59.999985 0)"/>
       <use xlink:href="#JetBrainsMono-Regular-30" transform="translate(119.999969 0)"/>
      </g>
     </g>
    </g>
    <g id="ytick_7">
     <g id="line2d_29">
      <path d="M 55.296 89.03734 
L 546.048 89.03734 
" clip-path="url(#p2ea966f459)" style="fill: none; stroke-dasharray: 2.22,0.96; stroke-dashoffset: 0; stroke: #e2d5f5; stroke-opacity: 0.7; stroke-width: 0.6"/>
     </g>
     <g id="line2d_30">
      <g>
       <use xlink:href="#m2fedac7770" x="55.296" y="89.03734" style="fill: #9b8bb8; stroke: #9b8bb8; stroke-width: 0.8"/>
      </g>
     </g>
     <g id="text_15">
      <!-- 260 -->
      <g style="fill: #9b8bb8" transform="translate(30.296 92.68734) scale(0.1 -0.1)">
       <use xlink:href="#JetBrainsMono-Regular-32"/>
       <use xlink:href="#JetBrainsMono-Regular-36" transform="translate(59.999985 0)"/>
       <use xlink:href="#JetBrainsMono-Regular-30" transform="translate(119.999969 0)"/>
      </g>
     </g>
    </g>
    <g id="text_16">
     <!-- Rating -->
     <g style="fill: #9b8bb8" transform="translate(24.496 208.08) rotate(-90) scale(0.1 -0.1)">
      <defs>
       <path id="JetBrainsMono-Regular-52" d="M 595 0 
L 595 4672 
L 2035 4672 
Q 2451 4672 2764 4502 
Q 3078 4333 3251 4032 
Q 3424 3731 3424 3328 
Q 3424 2854 3181 2515 
Q 2938 2176 2534 2042 
L 3488 0 
L 2854 0 
L 1939 1984 
L 1165 1984 
L 1165 0 
L 595 0 
z
M 1165 2502 
L 2035 2502 
Q 2394 2502 2611 2729 
Q 2829 2957 2829 3328 
Q 2829 3706 2611 3930 
Q 2394 4154 2035 4154 
L 1165 4154 
L 1165 2502 
z
" transform="scale(0.015625)"/>
       <path id="JetBrainsMono-Regular-61" d="M 1613 -64 
Q 1069 -64 749 240 
Q 429 544 429 1037 
Q 429 1363 576 1606 
Q 723 1850 985 1987 
Q 1248 2125 1587 2125 
L 2675 2125 
L 2675 2400 
Q 2675 3085 1926 3085 
Q 1594 3085 1389 2963 
Q 1184 2842 1171 2624 
L 595 2624 
Q 627 3040 982 3312 
Q 1338 3584 1926 3584 
Q 2566 3584 2908 3277 
Q 3251 2970 3251 2419 
L 3251 0 
L 2682 0 
L 2682 640 
L 2669 640 
Q 2618 314 2342 125 
Q 2067 -64 1613 -64 
z
M 1754 422 
Q 2176 422 2425 627 
Q 2675 832 2675 1184 
L 2675 1677 
L 1651 1677 
Q 1370 1677 1194 1507 
Q 1018 1338 1018 1056 
Q 1018 762 1213 592 
Q 1408 422 1754 422 
z
" transform="scale(0.015625)"/>
       <path id="JetBrainsMono-Regular-74" d="M 2272 0 
Q 1837 0 1574 253 
Q 1312 506 1312 928 
L 1312 2995 
L 301 2995 
L 301 3520 
L 1312 3520 
L 1312 4512 
L 1888 4512 
L 1888 3520 
L 3328 3520 
L 3328 2995 
L 1888 2995 
L 1888 928 
Q 1888 749 1993 637 
Q 2099 525 2272 525 
L 3296 525 
L 3296 0 
L 2272 0 
z
" transform="scale(0.015625)"/>
       <path id="JetBrainsMono-Regular-69" d="M 544 0 
L 544 525 
L 1792 525 
L 1792 2995 
L 672 2995 
L 672 3520 
L 2368 3520 
L 2368 525 
L 3552 525 
L 3552 0 
L 544 0 
z
M 2016 4154 
Q 1805 4154 1683 4262 
Q 1562 4371 1562 4557 
Q 1562 4749 1683 4861 
Q 1805 4973 2016 4973 
Q 2227 4973 2348 4861 
Q 2470 4749 2470 4557 
Q 2470 4371 2348 4262 
Q 2227 4154 2016 4154 
z
" transform="scale(0.015625)"/>
       <path id="JetBrainsMono-Regular-6e" d="M 589 0 
L 589 3520 
L 1165 3520 
L 1165 2848 
L 1171 2848 
Q 1216 3200 1459 3392 
Q 1702 3584 2106 3584 
Q 2637 3584 2950 3257 
Q 3264 2931 3264 2368 
L 3264 0 
L 2688 0 
L 2688 2266 
Q 2688 2669 2486 2883 
Q 2285 3098 1939 3098 
Q 1581 3098 1373 2874 
Q 1165 2650 1165 2240 
L 1165 0 
L 589 0 
z
" transform="scale(0.015625)"/>
       <path id="JetBrainsMono-Regular-67" d="M 1030 -1152 
L 1030 -627 
L 2022 -627 
Q 2323 -627 2496 -457 
Q 2669 -288 2669 0 
L 2669 320 
L 2682 896 
L 2662 896 
Q 2611 582 2361 412 
Q 2112 243 1734 243 
Q 1190 243 876 588 
Q 563 934 563 1536 
L 563 2278 
Q 563 2880 876 3232 
Q 1190 3584 1734 3584 
Q 2112 3584 2361 3405 
Q 2611 3226 2662 2912 
L 2675 2912 
L 2675 3520 
L 3245 3520 
L 3245 0 
Q 3245 -531 2915 -841 
Q 2586 -1152 2016 -1152 
L 1030 -1152 
z
M 1907 723 
Q 2266 723 2470 947 
Q 2675 1171 2675 1568 
L 2675 2240 
Q 2675 2637 2470 2861 
Q 2266 3085 1907 3085 
Q 1542 3085 1340 2873 
Q 1139 2662 1139 2304 
L 1139 1504 
Q 1139 1146 1340 934 
Q 1542 723 1907 723 
z
" transform="scale(0.015625)"/>
      </defs>
      <use xlink:href="#JetBrainsMono-Regular-52"/>
      <use xlink:href="#JetBrainsMono-Regular-61" transform="translate(59.999985 0)"/>
      <use xlink:href="#JetBrainsMono-Regular-74" transform="translate(119.999969 0)"/>
      <use xlink:href="#JetBrainsMono-Regular-69" transform="translate(179.999954 0)"/>
      <use xlink:href="#JetBrainsMono-Regular-6e" transform="translate(239.999939 0)"/>
      <use xlink:href="#JetBrainsMono-Regular-67" transform="translate(299.999924 0)"/>
     </g>
    </g>
   </g>
   <g id="patch_3">
    <path d="M 55.296 324.72 
L 55.296 55.44 
" style="fill: none; stroke: #d8c8ef; stroke-width: 0.8; stroke-linejoin: miter; stroke-linecap: square"/>
   </g>
   <g id="patch_4">
    <path d="M 55.296 324.72 
L 546.048 324.72 
" style="fill: none; stroke: #d8c8ef; stroke-width: 0.8; stroke-linejoin: miter; stroke-linecap: square"/>
   </g>
   <g id="FillBetweenPolyCollection_1">
    <defs>
     <path id="mbe44c4993b" d="M 65.964522 -71.28 
L 65.964522 -89.692708 
L 67.534471 -91.779949 
L 69.104421 -93.388864 
L 70.674371 -94.557442 
L 72.24432 -95.323675 
L 73.81427 -95.72555 
L 75.38422 -95.801059 
L 76.95417 -95.58819 
L 78.524119 -95.124935 
L 80.094069 -94.449281 
L 81.664019 -93.59922 
L 83.233968 -92.612742 
L 84.803918 -91.527835 
L 86.373868 -90.382489 
L 87.943817 -89.214696 
L 89.513767 -88.062443 
L 91.083717 -86.963722 
L 92.653666 -85.956521 
L 94.223616 -85.078832 
L 95.793566 -84.368642 
L 97.363515 -83.863943 
L 98.933465 -83.602724 
L 100.503415 -83.622975 
L 102.073365 -83.962685 
L 103.643314 -84.659845 
L 105.213264 -85.752444 
L 106.783214 -87.278472 
L 108.353163 -89.275919 
L 109.923113 -91.772412 
L 111.493063 -94.723309 
L 113.063012 -98.053195 
L 114.632962 -101.686538 
L 116.202912 -105.547808 
L 117.772861 -109.561475 
L 119.342811 -113.652009 
L 120.912761 -117.743879 
L 122.48271 -121.761554 
L 124.05266 -125.629506 
L 125.62261 -129.272202 
L 127.19256 -132.614114 
L 128.762509 -135.579709 
L 130.332459 -138.093711 
L 131.902409 -140.1194 
L 133.472358 -141.699798 
L 135.042308 -142.887803 
L 136.612258 -143.736311 
L 138.182207 -144.29822 
L 139.752157 -144.626426 
L 141.322107 -144.773828 
L 142.892056 -144.793322 
L 144.462006 -144.737805 
L 146.031956 -144.660175 
L 147.601905 -144.613329 
L 149.171855 -144.650164 
L 150.741805 -144.823577 
L 152.311755 -145.183264 
L 153.881704 -145.737293 
L 155.451654 -146.464623 
L 157.021604 -147.343613 
L 158.591553 -148.352624 
L 160.161503 -149.470015 
L 161.731453 -150.674148 
L 163.301402 -151.943381 
L 164.871352 -153.256076 
L 166.441302 -154.590593 
L 168.011251 -155.925291 
L 169.581201 -157.238531 
L 171.151151 -158.508674 
L 172.7211 -159.714079 
L 174.29105 -160.838609 
L 175.861 -161.885333 
L 177.43095 -162.861509 
L 179.000899 -163.774393 
L 180.570849 -164.631245 
L 182.140799 -165.439321 
L 183.710748 -166.20588 
L 185.280698 -166.938178 
L 186.850648 -167.643475 
L 188.420597 -168.329026 
L 189.990547 -169.002091 
L 191.560497 -169.669927 
L 193.130446 -170.339791 
L 194.700396 -171.019126 
L 196.270346 -171.720666 
L 197.840295 -172.463106 
L 199.410245 -173.265461 
L 200.980195 -174.146742 
L 202.550145 -175.125965 
L 204.120094 -176.222141 
L 205.690044 -177.454284 
L 207.259994 -178.841407 
L 208.829943 -180.402525 
L 210.399893 -182.156649 
L 211.969843 -184.122793 
L 213.539792 -186.319971 
L 215.109742 -188.767195 
L 216.679692 -191.476274 
L 218.249641 -194.415432 
L 219.819591 -197.536592 
L 221.389541 -200.79165 
L 222.95949 -204.132499 
L 224.52944 -207.511036 
L 226.09939 -210.879155 
L 227.66934 -214.18875 
L 229.239289 -217.391718 
L 230.809239 -220.439952 
L 232.379189 -223.285347 
L 233.949138 -225.8798 
L 235.519088 -228.175203 
L 237.089038 -230.123756 
L 238.658987 -231.707193 
L 240.228937 -232.961164 
L 241.798887 -233.927054 
L 243.368836 -234.646249 
L 244.938786 -235.160133 
L 246.508736 -235.510094 
L 248.078685 -235.737516 
L 249.648635 -235.883785 
L 251.218585 -235.990287 
L 252.788535 -236.098407 
L 254.358484 -236.24953 
L 255.928434 -236.485044 
L 257.498384 -236.846332 
L 259.068333 -237.371506 
L 260.638283 -238.062615 
L 262.208233 -238.899371 
L 263.778182 -239.861153 
L 265.348132 -240.927339 
L 266.918082 -242.077307 
L 268.488031 -243.290436 
L 270.057981 -244.546104 
L 271.627931 -245.82369 
L 273.19788 -247.102571 
L 274.76783 -248.362127 
L 276.33778 -249.581736 
L 277.90773 -250.740776 
L 279.477679 -251.81863 
L 281.047629 -252.802306 
L 282.617579 -253.702076 
L 284.187528 -254.532638 
L 285.757478 -255.308689 
L 287.327428 -256.044924 
L 288.897377 -256.75604 
L 290.467327 -257.456733 
L 292.037277 -258.1617 
L 293.607226 -258.885637 
L 295.177176 -259.643241 
L 296.747126 -260.449209 
L 298.317075 -261.318236 
L 299.887025 -262.265019 
L 301.456975 -263.303703 
L 303.026925 -264.435757 
L 304.596874 -265.649972 
L 306.166824 -266.934588 
L 307.736774 -268.277845 
L 309.306723 -269.667983 
L 310.876673 -271.093243 
L 312.446623 -272.541865 
L 314.016572 -274.002087 
L 315.586522 -275.462152 
L 317.156472 -276.910299 
L 318.726421 -278.334767 
L 320.296371 -279.723798 
L 321.866321 -281.065631 
L 323.43627 -282.351825 
L 325.00622 -283.591396 
L 326.57617 -284.79908 
L 328.14612 -285.989618 
L 329.716069 -287.17775 
L 331.286019 -288.378217 
L 332.855969 -289.605758 
L 334.425918 -290.875114 
L 335.995868 -292.201024 
L 337.565818 -293.59823 
L 339.135767 -295.081471 
L 340.705717 -296.665488 
L 342.275667 -298.36502 
L 343.845616 -300.19457 
L 345.415566 -302.152666 
L 346.985516 -304.212053 
L 348.555465 -306.343132 
L 350.125415 -308.516305 
L 351.695365 -310.701975 
L 353.265315 -312.870542 
L 354.835264 -314.99241 
L 356.405214 -317.03798 
L 357.975164 -318.977654 
L 359.545113 -320.781834 
L 361.115063 -322.420922 
L 362.685013 -323.865319 
L 364.254962 -325.085429 
L 365.824912 -326.055116 
L 367.394862 -326.780802 
L 368.964811 -327.286742 
L 370.534761 -327.597376 
L 372.104711 -327.737143 
L 373.67466 -327.730482 
L 375.24461 -327.601831 
L 376.81456 -327.375632 
L 378.38451 -327.076321 
L 379.954459 -326.728339 
L 381.524409 -326.356125 
L 383.094359 -325.984117 
L 384.664308 -325.636755 
L 386.234258 -325.338465 
L 387.804208 -325.106147 
L 389.374157 -324.936579 
L 390.944107 -324.823213 
L 392.514057 -324.7595 
L 394.084006 -324.738892 
L 395.653956 -324.75484 
L 397.223906 -324.800796 
L 398.793855 -324.870212 
L 400.363805 -324.956539 
L 401.933755 -325.053228 
L 403.503705 -325.153731 
L 405.073654 -325.251501 
L 406.643604 -325.339987 
L 408.213554 -325.412867 
L 409.783503 -325.468026 
L 411.353453 -325.507089 
L 412.923403 -325.531811 
L 414.493352 -325.543946 
L 416.063302 -325.545248 
L 417.633252 -325.537474 
L 419.203201 -325.522376 
L 420.773151 -325.501711 
L 422.343101 -325.477232 
L 423.91305 -325.450694 
L 425.483 -325.423851 
L 427.05295 -325.398459 
L 428.6229 -325.376272 
L 430.192849 -325.358722 
L 431.762799 -325.345763 
L 433.332749 -325.336924 
L 434.902698 -325.331736 
L 436.472648 -325.329728 
L 438.042598 -325.33043 
L 439.612547 -325.333373 
L 441.182497 -325.338085 
L 442.752447 -325.344097 
L 444.322396 -325.350939 
L 445.892346 -325.358141 
L 447.462296 -325.365232 
L 449.032245 -325.371742 
L 450.602195 -325.377207 
L 452.172145 -325.381393 
L 453.742095 -325.384401 
L 455.312044 -325.386357 
L 456.881994 -325.387385 
L 458.451944 -325.387613 
L 460.021893 -325.387166 
L 461.591843 -325.38617 
L 463.161793 -325.38475 
L 464.731742 -325.383032 
L 466.301692 -325.381143 
L 467.871642 -325.379207 
L 469.441591 -325.377352 
L 471.011541 -325.375702 
L 472.581491 -325.374371 
L 474.15144 -325.373374 
L 475.72139 -325.372678 
L 477.29134 -325.37225 
L 478.86129 -325.372058 
L 480.431239 -325.372067 
L 482.001189 -325.372246 
L 483.571139 -325.37256 
L 485.141088 -325.372977 
L 486.711038 -325.373463 
L 488.280988 -325.373985 
L 489.850937 -325.374511 
L 491.420887 -325.375008 
L 492.990837 -325.375441 
L 494.560786 -325.375789 
L 496.130736 -325.376055 
L 497.700686 -325.376245 
L 499.270635 -325.376367 
L 500.840585 -325.376426 
L 502.410535 -325.37643 
L 503.980485 -325.376384 
L 505.550434 -325.376296 
L 507.120384 -325.376172 
L 508.690334 -325.376019 
L 510.260283 -325.375844 
L 511.830233 -325.375652 
L 513.400183 -325.375451 
L 514.970132 -325.375248 
L 516.540082 -325.375048 
L 518.110032 -325.374859 
L 519.679981 -325.374687 
L 521.249931 -325.374539 
L 522.819881 -325.374421 
L 524.38983 -325.374341 
L 525.95978 -325.374304 
L 527.52973 -325.374317 
L 529.09968 -325.374387 
L 530.669629 -325.37452 
L 532.239579 -325.374724 
L 533.809529 -325.375004 
L 535.379478 -325.375368 
L 535.379478 -71.28 
L 535.379478 -71.28 
L 533.809529 -71.28 
L 532.239579 -71.28 
L 530.669629 -71.28 
L 529.09968 -71.28 
L 527.52973 -71.28 
L 525.95978 -71.28 
L 524.38983 -71.28 
L 522.819881 -71.28 
L 521.249931 -71.28 
L 519.679981 -71.28 
L 518.110032 -71.28 
L 516.540082 -71.28 
L 514.970132 -71.28 
L 513.400183 -71.28 
L 511.830233 -71.28 
L 510.260283 -71.28 
L 508.690334 -71.28 
L 507.120384 -71.28 
L 505.550434 -71.28 
L 503.980485 -71.28 
L 502.410535 -71.28 
L 500.840585 -71.28 
L 499.270635 -71.28 
L 497.700686 -71.28 
L 496.130736 -71.28 
L 494.560786 -71.28 
L 492.990837 -71.28 
L 491.420887 -71.28 
L 489.850937 -71.28 
L 488.280988 -71.28 
L 486.711038 -71.28 
L 485.141088 -71.28 
L 483.571139 -71.28 
L 482.001189 -71.28 
L 480.431239 -71.28 
L 478.86129 -71.28 
L 477.29134 -71.28 
L 475.72139 -71.28 
L 474.15144 -71.28 
L 472.581491 -71.28 
L 471.011541 -71.28 
L 469.441591 -71.28 
L 467.871642 -71.28 
L 466.301692 -71.28 
L 464.731742 -71.28 
L 463.161793 -71.28 
L 461.591843 -71.28 
L 460.021893 -71.28 
L 458.451944 -71.28 
L 456.881994 -71.28 
L 455.312044 -71.28 
L 453.742095 -71.28 
L 452.172145 -71.28 
L 450.602195 -71.28 
L 449.032245 -71.28 
L 447.462296 -71.28 
L 445.892346 -71.28 
L 444.322396 -71.28 
L 442.752447 -71.28 
L 441.182497 -71.28 
L 439.612547 -71.28 
L 438.042598 -71.28 
L 436.472648 -71.28 
L 434.902698 -71.28 
L 433.332749 -71.28 
L 431.762799 -71.28 
L 430.192849 -71.28 
L 428.6229 -71.28 
L 427.05295 -71.28 
L 425.483 -71.28 
L 423.91305 -71.28 
L 422.343101 -71.28 
L 420.773151 -71.28 
L 419.203201 -71.28 
L 417.633252 -71.28 
L 416.063302 -71.28 
L 414.493352 -71.28 
L 412.923403 -71.28 
L 411.353453 -71.28 
L 409.783503 -71.28 
L 408.213554 -71.28 
L 406.643604 -71.28 
L 405.073654 -71.28 
L 403.503705 -71.28 
L 401.933755 -71.28 
L 400.363805 -71.28 
L 398.793855 -71.28 
L 397.223906 -71.28 
L 395.653956 -71.28 
L 394.084006 -71.28 
L 392.514057 -71.28 
L 390.944107 -71.28 
L 389.374157 -71.28 
L 387.804208 -71.28 
L 386.234258 -71.28 
L 384.664308 -71.28 
L 383.094359 -71.28 
L 381.524409 -71.28 
L 379.954459 -71.28 
L 378.38451 -71.28 
L 376.81456 -71.28 
L 375.24461 -71.28 
L 373.67466 -71.28 
L 372.104711 -71.28 
L 370.534761 -71.28 
L 368.964811 -71.28 
L 367.394862 -71.28 
L 365.824912 -71.28 
L 364.254962 -71.28 
L 362.685013 -71.28 
L 361.115063 -71.28 
L 359.545113 -71.28 
L 357.975164 -71.28 
L 356.405214 -71.28 
L 354.835264 -71.28 
L 353.265315 -71.28 
L 351.695365 -71.28 
L 350.125415 -71.28 
L 348.555465 -71.28 
L 346.985516 -71.28 
L 345.415566 -71.28 
L 343.845616 -71.28 
L 342.275667 -71.28 
L 340.705717 -71.28 
L 339.135767 -71.28 
L 337.565818 -71.28 
L 335.995868 -71.28 
L 334.425918 -71.28 
L 332.855969 -71.28 
L 331.286019 -71.28 
L 329.716069 -71.28 
L 328.14612 -71.28 
L 326.57617 -71.28 
L 325.00622 -71.28 
L 323.43627 -71.28 
L 321.866321 -71.28 
L 320.296371 -71.28 
L 318.726421 -71.28 
L 317.156472 -71.28 
L 315.586522 -71.28 
L 314.016572 -71.28 
L 312.446623 -71.28 
L 310.876673 -71.28 
L 309.306723 -71.28 
L 307.736774 -71.28 
L 306.166824 -71.28 
L 304.596874 -71.28 
L 303.026925 -71.28 
L 301.456975 -71.28 
L 299.887025 -71.28 
L 298.317075 -71.28 
L 296.747126 -71.28 
L 295.177176 -71.28 
L 293.607226 -71.28 
L 292.037277 -71.28 
L 290.467327 -71.28 
L 288.897377 -71.28 
L 287.327428 -71.28 
L 285.757478 -71.28 
L 284.187528 -71.28 
L 282.617579 -71.28 
L 281.047629 -71.28 
L 279.477679 -71.28 
L 277.90773 -71.28 
L 276.33778 -71.28 
L 274.76783 -71.28 
L 273.19788 -71.28 
L 271.627931 -71.28 
L 270.057981 -71.28 
L 268.488031 -71.28 
L 266.918082 -71.28 
L 265.348132 -71.28 
L 263.778182 -71.28 
L 262.208233 -71.28 
L 260.638283 -71.28 
L 259.068333 -71.28 
L 257.498384 -71.28 
L 255.928434 -71.28 
L 254.358484 -71.28 
L 252.788535 -71.28 
L 251.218585 -71.28 
L 249.648635 -71.28 
L 248.078685 -71.28 
L 246.508736 -71.28 
L 244.938786 -71.28 
L 243.368836 -71.28 
L 241.798887 -71.28 
L 240.228937 -71.28 
L 238.658987 -71.28 
L 237.089038 -71.28 
L 235.519088 -71.28 
L 233.949138 -71.28 
L 232.379189 -71.28 
L 230.809239 -71.28 
L 229.239289 -71.28 
L 227.66934 -71.28 
L 226.09939 -71.28 
L 224.52944 -71.28 
L 222.95949 -71.28 
L 221.389541 -71.28 
L 219.819591 -71.28 
L 218.249641 -71.28 
L 216.679692 -71.28 
L 215.109742 -71.28 
L 213.539792 -71.28 
L 211.969843 -71.28 
L 210.399893 -71.28 
L 208.829943 -71.28 
L 207.259994 -71.28 
L 205.690044 -71.28 
L 204.120094 -71.28 
L 202.550145 -71.28 
L 200.980195 -71.28 
L 199.410245 -71.28 
L 197.840295 -71.28 
L 196.270346 -71.28 
L 194.700396 -71.28 
L 193.130446 -71.28 
L 191.560497 -71.28 
L 189.990547 -71.28 
L 188.420597 -71.28 
L 186.850648 -71.28 
L 185.280698 -71.28 
L 183.710748 -71.28 
L 182.140799 -71.28 
L 180.570849 -71.28 
L 179.000899 -71.28 
L 177.43095 -71.28 
L 175.861 -71.28 
L 174.29105 -71.28 
L 172.7211 -71.28 
L 171.151151 -71.28 
L 169.581201 -71.28 
L 168.011251 -71.28 
L 166.441302 -71.28 
L 164.871352 -71.28 
L 163.301402 -71.28 
L 161.731453 -71.28 
L 160.161503 -71.28 
L 158.591553 -71.28 
L 157.021604 -71.28 
L 155.451654 -71.28 
L 153.881704 -71.28 
L 152.311755 -71.28 
L 150.741805 -71.28 
L 149.171855 -71.28 
L 147.601905 -71.28 
L 146.031956 -71.28 
L 144.462006 -71.28 
L 142.892056 -71.28 
L 141.322107 -71.28 
L 139.752157 -71.28 
L 138.182207 -71.28 
L 136.612258 -71.28 
L 135.042308 -71.28 
L 133.472358 -71.28 
L 131.902409 -71.28 
L 130.332459 -71.28 
L 128.762509 -71.28 
L 127.19256 -71.28 
L 125.62261 -71.28 
L 124.05266 -71.28 
L 122.48271 -71.28 
L 120.912761 -71.28 
L 119.342811 -71.28 
L 117.772861 -71.28 
L 116.202912 -71.28 
L 114.632962 -71.28 
L 113.063012 -71.28 
L 111.493063 -71.28 
L 109.923113 -71.28 
L 108.353163 -71.28 
L 106.783214 -71.28 
L 105.213264 -71.28 
L 103.643314 -71.28 
L 102.073365 -71.28 
L 100.503415 -71.28 
L 98.933465 -71.28 
L 97.363515 -71.28 
L 95.793566 -71.28 
L 94.223616 -71.28 
L 92.653666 -71.28 
L 91.083717 -71.28 
L 89.513767 -71.28 
L 87.943817 -71.28 
L 86.373868 -71.28 
L 84.803918 -71.28 
L 83.233968 -71.28 
L 81.664019 -71.28 
L 80.094069 -71.28 
L 78.524119 -71.28 
L 76.95417 -71.28 
L 75.38422 -71.28 
L 73.81427 -71.28 
L 72.24432 -71.28 
L 70.674371 -71.28 
L 69.104421 -71.28 
L 67.534471 -71.28 
L 65.964522 -71.28 
z
" style="stroke: #8b5cf6; stroke-opacity: 0.12"/>
    </defs>
    <g clip-path="url(#p2ea966f459)">
     <use xlink:href="#mbe44c4993b" x="0" y="396" style="fill: #8b5cf6; fill-opacity: 0.12; stroke: #8b5cf6; stroke-opacity: 0.12"/>
    </g>
   </g>
   <g id="text_17">
    <!-- 265 -->
    <g style="fill: #8b5cf6" transform="translate(538.379478 67.624632) scale(0.12 -0.12)">
     <defs>
      <path id="JetBrainsMono-Bold-32" d="M 474 0 
L 474 723 
L 2157 2445 
Q 2566 2874 2566 3315 
Q 2566 3629 2384 3824 
Q 2202 4019 1894 4019 
Q 1581 4019 1392 3817 
Q 1203 3616 1203 3283 
L 403 3283 
Q 403 3718 595 4044 
Q 787 4371 1126 4553 
Q 1466 4736 1914 4736 
Q 2355 4736 2688 4563 
Q 3021 4390 3203 4080 
Q 3386 3770 3386 3354 
Q 3386 2995 3216 2636 
Q 3046 2278 2656 1894 
L 1478 723 
L 3443 723 
L 3443 0 
L 474 0 
z
" transform="scale(0.015625)"/>
      <path id="JetBrainsMono-Bold-36" d="M 1920 -64 
Q 1440 -64 1085 128 
Q 730 320 534 669 
Q 339 1018 339 1485 
Q 339 1760 457 2115 
Q 576 2470 781 2835 
L 1792 4672 
L 2701 4672 
L 1498 2611 
L 1523 2598 
Q 1619 2733 1804 2809 
Q 1990 2886 2208 2886 
Q 2598 2886 2889 2710 
Q 3181 2534 3341 2214 
Q 3501 1894 3501 1459 
Q 3501 998 3305 656 
Q 3110 314 2755 125 
Q 2400 -64 1920 -64 
z
M 1920 614 
Q 2278 614 2496 841 
Q 2714 1069 2714 1446 
Q 2714 1830 2496 2057 
Q 2278 2285 1920 2285 
Q 1562 2285 1344 2057 
Q 1126 1830 1126 1446 
Q 1126 1069 1344 841 
Q 1562 614 1920 614 
z
" transform="scale(0.015625)"/>
      <path id="JetBrainsMono-Bold-35" d="M 1894 -64 
Q 1210 -64 803 297 
Q 397 659 397 1280 
L 1197 1280 
Q 1197 986 1385 810 
Q 1574 634 1901 634 
Q 2227 634 2409 810 
Q 2592 986 2592 1299 
L 2592 1606 
Q 2592 1920 2413 2096 
Q 2234 2272 1907 2272 
L 557 2272 
L 557 4672 
L 3219 4672 
L 3219 3949 
L 1312 3949 
L 1318 2976 
L 1946 2976 
Q 2637 2976 3014 2617 
Q 3392 2259 3392 1606 
L 3392 1299 
Q 3392 666 2992 301 
Q 2592 -64 1894 -64 
z
" transform="scale(0.015625)"/>
     </defs>
     <use xlink:href="#JetBrainsMono-Bold-32"/>
     <use xlink:href="#JetBrainsMono-Bold-36" transform="translate(59.999985 0)"/>
     <use xlink:href="#JetBrainsMono-Bold-35" transform="translate(119.999969 0)"/>
    </g>
   </g>
   <g id="text_18">
    <!-- Rating History -->
    <g style="fill: #8b5cf6" transform="translate(55.296 50.44) scale(0.17 -0.17)">
     <defs>
      <path id="JetBrainsMono-Bold-52" d="M 493 0 
L 493 4672 
L 1965 4672 
Q 2432 4672 2774 4499 
Q 3117 4326 3309 4016 
Q 3501 3706 3501 3283 
Q 3501 2816 3270 2467 
Q 3040 2118 2650 1971 
L 3565 0 
L 2688 0 
L 1869 1856 
L 1286 1856 
L 1286 0 
L 493 0 
z
M 1286 2560 
L 1965 2560 
Q 2304 2560 2496 2745 
Q 2688 2931 2688 3258 
Q 2688 3584 2493 3776 
Q 2298 3968 1965 3968 
L 1286 3968 
L 1286 2560 
z
" transform="scale(0.015625)"/>
      <path id="JetBrainsMono-Bold-61" d="M 1530 -64 
Q 992 -64 681 240 
Q 371 544 371 1037 
Q 371 1549 723 1853 
Q 1075 2157 1690 2157 
L 2547 2157 
L 2547 2406 
Q 2547 2938 1926 2938 
Q 1645 2938 1478 2829 
Q 1312 2720 1293 2522 
L 525 2522 
Q 550 2995 924 3289 
Q 1299 3584 1933 3584 
Q 2605 3584 2976 3270 
Q 3347 2957 3347 2387 
L 3347 0 
L 2566 0 
L 2566 659 
Q 2522 320 2246 128 
Q 1971 -64 1530 -64 
z
M 1786 589 
Q 2138 589 2342 761 
Q 2547 934 2547 1222 
L 2547 1638 
L 1728 1638 
Q 1466 1638 1312 1491 
Q 1158 1344 1158 1114 
Q 1158 877 1321 733 
Q 1485 589 1786 589 
z
" transform="scale(0.015625)"/>
      <path id="JetBrainsMono-Bold-74" d="M 2272 0 
Q 1779 0 1488 285 
Q 1197 570 1197 1056 
L 1197 2797 
L 224 2797 
L 224 3520 
L 1197 3520 
L 1197 4512 
L 2003 4512 
L 2003 3520 
L 3405 3520 
L 3405 2797 
L 2003 2797 
L 2003 1075 
Q 2003 922 2089 822 
Q 2176 723 2330 723 
L 3373 723 
L 3373 0 
L 2272 0 
z
" transform="scale(0.015625)"/>
      <path id="JetBrainsMono-Bold-69" d="M 486 0 
L 486 723 
L 1690 723 
L 1690 2797 
L 614 2797 
L 614 3520 
L 2490 3520 
L 2490 723 
L 3571 723 
L 3571 0 
L 486 0 
z
M 2032 4109 
Q 1789 4109 1648 4233 
Q 1507 4358 1507 4570 
Q 1507 4781 1648 4905 
Q 1789 5030 2032 5030 
Q 2275 5030 2416 4905 
Q 2557 4781 2557 4570 
Q 2557 4358 2416 4233 
Q 2275 4109 2032 4109 
z
" transform="scale(0.015625)"/>
      <path id="JetBrainsMono-Bold-6e" d="M 493 0 
L 493 3520 
L 1274 3520 
L 1274 2861 
Q 1338 3194 1587 3389 
Q 1837 3584 2221 3584 
Q 2739 3584 3049 3238 
Q 3360 2893 3360 2310 
L 3360 0 
L 2560 0 
L 2560 2214 
Q 2560 2541 2390 2717 
Q 2221 2893 1933 2893 
Q 1632 2893 1462 2713 
Q 1293 2534 1293 2202 
L 1293 0 
L 493 0 
z
" transform="scale(0.015625)"/>
      <path id="JetBrainsMono-Bold-67" d="M 973 -1152 
L 973 -486 
L 1965 -486 
Q 2246 -486 2400 -336 
Q 2554 -186 2554 70 
L 2554 282 
L 2566 832 
Q 2458 538 2218 374 
Q 1978 211 1632 211 
Q 1094 211 777 572 
Q 461 934 461 1555 
L 461 2240 
Q 461 2854 777 3219 
Q 1094 3584 1632 3584 
Q 1978 3584 2218 3421 
Q 2458 3258 2566 2957 
L 2566 3520 
L 3347 3520 
L 3347 51 
Q 3347 -506 2979 -829 
Q 2611 -1152 1978 -1152 
L 973 -1152 
z
M 1901 896 
Q 2208 896 2377 1078 
Q 2547 1261 2547 1587 
L 2547 2202 
Q 2547 2528 2377 2710 
Q 2208 2893 1901 2893 
Q 1594 2893 1427 2717 
Q 1261 2541 1261 2227 
L 1261 1562 
Q 1261 1248 1427 1072 
Q 1594 896 1901 896 
z
" transform="scale(0.015625)"/>
      <path id="JetBrainsMono-Bold-20" transform="scale(0.015625)"/>
      <path id="JetBrainsMono-Bold-48" d="M 493 0 
L 493 4672 
L 1293 4672 
L 1293 2778 
L 2547 2778 
L 2547 4672 
L 3347 4672 
L 3347 0 
L 2547 0 
L 2547 2054 
L 1293 2054 
L 1293 0 
L 493 0 
z
" transform="scale(0.015625)"/>
      <path id="JetBrainsMono-Bold-73" d="M 1773 -58 
Q 1146 -58 781 227 
Q 416 512 416 998 
L 1203 998 
Q 1203 794 1353 685 
Q 1504 576 1773 576 
L 2054 576 
Q 2342 576 2499 685 
Q 2656 794 2656 998 
Q 2656 1190 2547 1283 
Q 2438 1376 2214 1408 
L 1338 1523 
Q 915 1581 688 1849 
Q 461 2118 461 2547 
Q 461 3046 793 3312 
Q 1126 3578 1754 3578 
L 2048 3578 
Q 2637 3578 2995 3309 
Q 3354 3040 3366 2592 
L 2573 2592 
Q 2566 2758 2425 2857 
Q 2285 2957 2048 2957 
L 1754 2957 
Q 1498 2957 1363 2851 
Q 1229 2746 1229 2566 
Q 1229 2406 1328 2329 
Q 1427 2253 1619 2234 
L 2445 2118 
Q 2931 2061 3177 1776 
Q 3424 1491 3424 1011 
Q 3424 499 3075 220 
Q 2726 -58 2054 -58 
L 1773 -58 
z
" transform="scale(0.015625)"/>
      <path id="JetBrainsMono-Bold-6f" d="M 1920 -58 
Q 1242 -58 845 323 
Q 448 704 448 1350 
L 448 2170 
Q 448 2822 845 3200 
Q 1242 3578 1920 3578 
Q 2598 3578 2995 3200 
Q 3392 2822 3392 2170 
L 3392 1350 
Q 3392 704 2995 323 
Q 2598 -58 1920 -58 
z
M 1920 640 
Q 2240 640 2416 816 
Q 2592 992 2592 1325 
L 2592 2195 
Q 2592 2528 2416 2704 
Q 2240 2880 1920 2880 
Q 1600 2880 1424 2704 
Q 1248 2528 1248 2195 
L 1248 1325 
Q 1248 992 1424 816 
Q 1600 640 1920 640 
z
" transform="scale(0.015625)"/>
      <path id="JetBrainsMono-Bold-72" d="M 621 0 
L 621 3520 
L 1402 3520 
L 1402 2835 
Q 1466 3181 1718 3382 
Q 1971 3584 2374 3584 
Q 2912 3584 3213 3238 
Q 3514 2893 3514 2272 
L 3514 1939 
L 2714 1939 
L 2714 2234 
Q 2714 2554 2547 2723 
Q 2381 2893 2074 2893 
Q 1754 2893 1587 2701 
Q 1421 2509 1421 2157 
L 1421 0 
L 621 0 
z
" transform="scale(0.015625)"/>
      <path id="JetBrainsMono-Bold-79" d="M 1056 -1152 
L 1555 192 
L 230 3520 
L 1075 3520 
L 1754 1722 
Q 1811 1562 1868 1373 
Q 1926 1184 1952 1024 
Q 1971 1184 2025 1373 
Q 2080 1562 2138 1722 
L 2765 3520 
L 3610 3520 
L 1894 -1152 
L 1056 -1152 
z
" transform="scale(0.015625)"/>
     </defs>
     <use xlink:href="#JetBrainsMono-Bold-52"/>
     <use xlink:href="#JetBrainsMono-Bold-61" transform="translate(59.999985 0)"/>
     <use xlink:href="#JetBrainsMono-Bold-74" transform="translate(119.999969 0)"/>
     <use xlink:href="#JetBrainsMono-Bold-69" transform="translate(179.999954 0)"/>
     <use xlink:href="#JetBrainsMono-Bold-6e" transform="translate(239.999939 0)"/>
     <use xlink:href="#JetBrainsMono-Bold-67" transform="translate(299.999924 0)"/>
     <use xlink:href="#JetBrainsMono-Bold-20" transform="translate(359.999908 0)"/>
     <use xlink:href="#JetBrainsMono-Bold-48" transform="translate(419.999893 0)"/>
     <use xlink:href="#JetBrainsMono-Bold-69" transform="translate(479.999878 0)"/>
     <use xlink:href="#JetBrainsMono-Bold-73" transform="translate(539.999863 0)"/>
     <use xlink:href="#JetBrainsMono-Bold-74" transform="translate(599.999847 0)"/>
     <use xlink:href="#JetBrainsMono-Bold-6f" transform="translate(659.999832 0)"/>
     <use xlink:href="#JetBrainsMono-Bold-72" transform="translate(719.999817 0)"/>
     <use xlink:href="#JetBrainsMono-Bold-79" transform="translate(779.999802 0)"/>
    </g>
   </g>
   <g id="line2d_31">
    <path d="M 65.964522 306.307292 
L 67.534471 304.220051 
L 69.104421 302.611136 
L 70.674371 301.442558 
L 72.24432 300.676325 
L 73.81427 300.27445 
L 75.38422 300.198941 
L 76.95417 300.41181 
L 78.524119 300.875065 
L 80.094069 301.550719 
L 81.664019 302.40078 
L 84.803918 304.472165 
L 91.083717 309.036278 
L 94.223616 310.921168 
L 95.793566 311.631358 
L 97.363515 312.136057 
L 98.933465 312.397276 
L 100.503415 312.377025 
L 102.073365 312.037315 
L 103.643314 311.340155 
L 105.213264 310.247556 
L 106.783214 308.721528 
L 108.353163 306.724081 
L 109.923113 304.227588 
L 111.493063 301.276691 
L 113.063012 297.946805 
L 116.202912 290.452192 
L 124.05266 270.370494 
L 125.62261 266.727798 
L 127.19256 263.385886 
L 128.762509 260.420291 
L 130.332459 257.906289 
L 131.902409 255.8806 
L 133.472358 254.300202 
L 135.042308 253.112197 
L 136.612258 252.263689 
L 138.182207 251.70178 
L 139.752157 251.373574 
L 141.322107 251.226172 
L 144.462006 251.262195 
L 147.601905 251.386671 
L 149.171855 251.349836 
L 150.741805 251.176423 
L 152.311755 250.816736 
L 153.881704 250.262707 
L 155.451654 249.535377 
L 157.021604 248.656387 
L 160.161503 246.529985 
L 163.301402 244.056619 
L 172.7211 236.285921 
L 175.861 234.114667 
L 179.000899 232.225607 
L 182.140799 230.560679 
L 186.850648 228.356525 
L 197.840295 223.536894 
L 200.980195 221.853258 
L 204.120094 219.777859 
L 205.690044 218.545716 
L 207.259994 217.158593 
L 208.829943 215.597475 
L 210.399893 213.843351 
L 211.969843 211.877207 
L 213.539792 209.680029 
L 215.109742 207.232805 
L 216.679692 204.523726 
L 219.819591 198.463408 
L 224.52944 188.488964 
L 229.239289 178.608282 
L 232.379189 172.714653 
L 233.949138 170.1202 
L 235.519088 167.824797 
L 237.089038 165.876244 
L 238.658987 164.292807 
L 240.228937 163.038836 
L 241.798887 162.072946 
L 243.368836 161.353751 
L 244.938786 160.839867 
L 246.508736 160.489906 
L 249.648635 160.116215 
L 254.358484 159.75047 
L 255.928434 159.514956 
L 257.498384 159.153668 
L 259.068333 158.628494 
L 260.638283 157.937385 
L 263.778182 156.138847 
L 266.918082 153.922693 
L 271.627931 150.17631 
L 276.33778 146.418264 
L 279.477679 144.18137 
L 282.617579 142.297924 
L 285.757478 140.691311 
L 298.317075 134.681764 
L 301.456975 132.696297 
L 304.596874 130.350028 
L 307.736774 127.722155 
L 312.446623 123.458135 
L 320.296371 116.276202 
L 323.43627 113.648175 
L 329.716069 108.82225 
L 334.425918 105.124886 
L 337.565818 102.40177 
L 340.705717 99.334512 
L 343.845616 95.80543 
L 346.985516 91.787947 
L 357.975164 77.022346 
L 361.115063 73.579078 
L 362.685013 72.134681 
L 364.254962 70.914571 
L 365.824912 69.944884 
L 367.394862 69.219198 
L 368.964811 68.713258 
L 370.534761 68.402624 
L 372.104711 68.262857 
L 373.67466 68.269518 
L 376.81456 68.624368 
L 379.954459 69.271661 
L 386.234258 70.661535 
L 389.374157 71.063421 
L 392.514057 71.2405 
L 397.223906 71.199204 
L 405.073654 70.748499 
L 411.353453 70.492911 
L 419.203201 70.477624 
L 441.182497 70.661915 
L 478.86129 70.627942 
L 535.379478 70.624632 
L 535.379478 70.624632 
" clip-path="url(#p2ea966f459)" style="fill: none; stroke: #8b5cf6; stroke-width: 1.2; stroke-linecap: round"/>
   </g>
   <g id="PathCollection_1">
    <defs>
     <path id="m348f071a23" d="M 0 2.236068 
C 0.593012 2.236068 1.161816 2.000462 1.581139 1.581139 
C 2.000462 1.161816 2.236068 0.593012 2.236068 0 
C 2.236068 -0.593012 2.000462 -1.161816 1.581139 -1.581139 
C 1.161816 -2.000462 0.593012 -2.236068 0 -2.236068 
C -0.593012 -2.236068 -1.161816 -2.000462 -1.581139 -1.581139 
C -2.000462 -1.161816 -2.236068 -0.593012 -2.236068 0 
C -2.236068 0.593012 -2.000462 1.161816 -1.581139 1.581139 
C -1.161816 2.000462 -0.593012 2.236068 0 2.236068 
z
" style="stroke: #ffffff; stroke-width: 0.8"/>
    </defs>
    <g clip-path="url(#p2ea966f459)">
     <use xlink:href="#m348f071a23" x="535.379478" y="70.624632" style="fill: #8b5cf6; stroke: #ffffff; stroke-width: 0.8"/>
    </g>
   </g>
  </g>
  <g id="axes_2">
   <g id="text_19">
    <!-- Rating -->
    <g style="fill: #9b8bb8" transform="translate(565.7472 48.312) scale(0.11 -0.11)">
     <use xlink:href="#JetBrainsMono-Regular-52"/>
     <use xlink:href="#JetBrainsMono-Regular-61" transform="translate(59.999985 0)"/>
     <use xlink:href="#JetBrainsMono-Regular-74" transform="translate(119.999969 0)"/>
     <use xlink:href="#JetBrainsMono-Regular-69" transform="translate(179.999954 0)"/>
     <use xlink:href="#JetBrainsMono-Regular-6e" transform="translate(239.999939 0)"/>
     <use xlink:href="#JetBrainsMono-Regular-67" transform="translate(299.999924 0)"/>
    </g>
   </g>
   <g id="text_20">
    <!-- 265 -->
    <g style="fill: #8b5cf6" transform="translate(565.7472 81.548) scale(0.26 -0.26)">
     <use xlink:href="#JetBrainsMono-Bold-32"/>
     <use xlink:href="#JetBrainsMono-Bold-36" transform="translate(59.999985 0)"/>
     <use xlink:href="#JetBrainsMono-Bold-35" transform="translate(119.999969 0)"/>
    </g>
   </g>
   <g id="text_21">
    <!-- Rank -->
    <g style="fill: #9b8bb8" transform="translate(565.7472 119.592) scale(0.11 -0.11)">
     <defs>
      <path id="JetBrainsMono-Regular-6b" d="M 621 0 
L 621 4672 
L 1197 4672 
L 1197 2067 
L 1869 2067 
L 2854 3520 
L 3514 3520 
L 2381 1843 
L 3578 0 
L 2906 0 
L 1882 1568 
L 1197 1568 
L 1197 0 
L 621 0 
z
" transform="scale(0.015625)"/>
     </defs>
     <use xlink:href="#JetBrainsMono-Regular-52"/>
     <use xlink:href="#JetBrainsMono-Regular-61" transform="translate(59.999985 0)"/>
     <use xlink:href="#JetBrainsMono-Regular-6e" transform="translate(119.999969 0)"/>
     <use xlink:href="#JetBrainsMono-Regular-6b" transform="translate(179.999954 0)"/>
    </g>
   </g>
   <g id="text_22">
    <!-- #117,998 -->
    <g style="fill: #8b5cf6" transform="translate(565.7472 148.104) scale(0.14 -0.14)">
     <defs>
      <path id="JetBrainsMono-Bold-23" d="M 493 0 
L 710 1216 
L 224 1216 
L 224 1760 
L 800 1760 
L 998 2912 
L 448 2912 
L 448 3456 
L 1094 3456 
L 1312 4672 
L 1875 4672 
L 1658 3456 
L 2566 3456 
L 2784 4672 
L 3347 4672 
L 3130 3456 
L 3616 3456 
L 3616 2912 
L 3034 2912 
L 2835 1760 
L 3392 1760 
L 3392 1216 
L 2739 1216 
L 2528 0 
L 1965 0 
L 2182 1216 
L 1267 1216 
L 1056 0 
L 493 0 
z
M 1363 1760 
L 2272 1760 
L 2470 2912 
L 1562 2912 
L 1363 1760 
z
" transform="scale(0.015625)"/>
      <path id="JetBrainsMono-Bold-31" d="M 538 0 
L 538 723 
L 1754 723 
L 1754 3898 
L 531 3002 
L 531 3898 
L 1606 4672 
L 2554 4672 
L 2554 723 
L 3533 723 
L 3533 0 
L 538 0 
z
" transform="scale(0.015625)"/>
      <path id="JetBrainsMono-Bold-37" d="M 1011 0 
L 2720 3968 
L 1229 3968 
L 1229 3206 
L 429 3206 
L 429 4672 
L 3584 4672 
L 3584 3968 
L 1888 0 
L 1011 0 
z
" transform="scale(0.015625)"/>
      <path id="JetBrainsMono-Bold-2c" d="M 1216 -1024 
L 1555 934 
L 2470 934 
L 1984 -1024 
L 1216 -1024 
z
" transform="scale(0.015625)"/>
      <path id="JetBrainsMono-Bold-39" d="M 1120 0 
L 2214 1888 
Q 2138 1830 2035 1788 
Q 1933 1747 1728 1747 
Q 1344 1747 1027 1932 
Q 710 2118 524 2448 
Q 339 2778 339 3213 
Q 339 3674 534 4016 
Q 730 4358 1085 4547 
Q 1440 4736 1920 4736 
Q 2400 4736 2755 4544 
Q 3110 4352 3305 4003 
Q 3501 3654 3501 3187 
Q 3501 2912 3382 2557 
Q 3264 2202 3059 1837 
L 2048 0 
L 1120 0 
z
M 1920 2387 
Q 2278 2387 2496 2614 
Q 2714 2842 2714 3226 
Q 2714 3603 2496 3830 
Q 2278 4058 1920 4058 
Q 1562 4058 1344 3830 
Q 1126 3603 1126 3226 
Q 1126 2842 1344 2614 
Q 1562 2387 1920 2387 
z
" transform="scale(0.015625)"/>
      <path id="JetBrainsMono-Bold-38" d="M 1920 -64 
Q 1453 -64 1094 112 
Q 736 288 537 598 
Q 339 909 339 1318 
Q 339 1747 585 2067 
Q 832 2387 1229 2470 
L 1229 2483 
Q 890 2554 682 2829 
Q 474 3104 474 3482 
Q 474 3853 656 4134 
Q 838 4416 1164 4576 
Q 1491 4736 1920 4736 
Q 2349 4736 2678 4576 
Q 3008 4416 3190 4134 
Q 3373 3853 3373 3482 
Q 3373 3104 3161 2829 
Q 2950 2554 2611 2483 
L 2611 2470 
Q 3008 2387 3254 2067 
Q 3501 1747 3501 1318 
Q 3501 909 3302 598 
Q 3104 288 2745 112 
Q 2387 -64 1920 -64 
z
M 1920 2758 
Q 2221 2758 2406 2940 
Q 2592 3123 2592 3411 
Q 2592 3706 2406 3888 
Q 2221 4070 1920 4070 
Q 1619 4070 1433 3888 
Q 1248 3706 1248 3411 
Q 1248 3123 1433 2940 
Q 1619 2758 1920 2758 
z
M 1920 614 
Q 2272 614 2496 819 
Q 2720 1024 2720 1357 
Q 2720 1696 2496 1904 
Q 2272 2112 1920 2112 
Q 1568 2112 1344 1904 
Q 1120 1696 1120 1357 
Q 1120 1024 1344 819 
Q 1568 614 1920 614 
z
" transform="scale(0.015625)"/>
     </defs>
     <use xlink:href="#JetBrainsMono-Bold-23"/>
     <use xlink:href="#JetBrainsMono-Bold-31" transform="translate(59.999985 0)"/>
     <use xlink:href="#JetBrainsMono-Bold-31" transform="translate(119.999969 0)"/>
     <use xlink:href="#JetBrainsMono-Bold-37" transform="translate(179.999954 0)"/>
     <use xlink:href="#JetBrainsMono-Bold-2c" transform="translate(239.999939 0)"/>
     <use xlink:href="#JetBrainsMono-Bold-39" transform="translate(299.999924 0)"/>
     <use xlink:href="#JetBrainsMono-Bold-39" transform="translate(359.999908 0)"/>
     <use xlink:href="#JetBrainsMono-Bold-38" transform="translate(419.999893 0)"/>
    </g>
   </g>
   <g id="text_23">
    <!-- ─ 0 -->
    <g style="fill: #9b8bb8" transform="translate(565.7472 169.488) scale(0.11 -0.11)">
     <defs>
      <path id="JetBrainsMono-Bold-2500" d="M -128 2048 
L -128 2688 
L 3968 2688 
L 3968 2048 
L -128 2048 
z
" transform="scale(0.015625)"/>
      <path id="JetBrainsMono-Bold-30" d="M 1920 -64 
Q 1466 -64 1133 109 
Q 800 282 617 595 
Q 435 909 435 1331 
L 435 3341 
Q 435 3763 617 4076 
Q 800 4390 1133 4563 
Q 1466 4736 1920 4736 
Q 2374 4736 2707 4563 
Q 3040 4390 3222 4076 
Q 3405 3763 3405 3341 
L 3405 1331 
Q 3405 909 3222 595 
Q 3040 282 2707 109 
Q 2374 -64 1920 -64 
z
M 1920 627 
Q 2253 627 2451 819 
Q 2650 1011 2650 1331 
L 2650 3341 
Q 2650 3661 2454 3853 
Q 2259 4045 1920 4045 
Q 1581 4045 1385 3853 
Q 1190 3661 1190 3341 
L 1190 1331 
Q 1190 1011 1388 819 
Q 1587 627 1920 627 
z
M 1920 1952 
Q 1728 1952 1613 2057 
Q 1498 2163 1498 2355 
Q 1498 2547 1613 2646 
Q 1728 2746 1920 2746 
Q 2112 2746 2227 2646 
Q 2342 2547 2342 2355 
Q 2342 2163 2227 2057 
Q 2112 1952 1920 1952 
z
" transform="scale(0.015625)"/>
     </defs>
     <use xlink:href="#JetBrainsMono-Bold-2500"/>
     <use xlink:href="#JetBrainsMono-Bold-20" transform="translate(59.999985 0)"/>
     <use xlink:href="#JetBrainsMono-Bold-30" transform="translate(119.999969 0)"/>
    </g>
   </g>
  </g>
 </g>
 <defs>
  <clipPath id="p2ea966f459">
   <rect x="55.296" y="55.44" width="490.752" height="269.28"/>
  </clipPath>
 </defs>
</svg>
