<?xml version="1.0" encoding="utf-8" standalone="no"?>
<!DOCTYPE svg PUBLIC "-//W3C//DTD SVG 1.1//EN"
  "http://www.w3.org/Graphics/SVG/1.1/DTD/svg11.dtd">
<svg xmlns:xlink="http://www.w3.org/1999/xlink" width="691.2pt" height="396pt" viewBox="0 0 691.2 396" xmlns="http://www.w3.org/2000/svg" version="1.1">
 <metadata>
  <rdf:RDF xmlns:dc="http://purl.org/dc/elements/1.1/" xmlns:cc="http://creativecommons.org/ns#" xmlns:rdf="http://www.w3.org/1999/02/22-rdf-syntax-ns#">
   <cc:Work>
    <dc:type rdf:resource="http://purl.org/dc/dcmitype/StillImage"/>
    <dc:date>2026-04-04T15:49:24.673743</dc:date>
    <dc:format>image/svg+xml</dc:format>
    <dc:creator>
     <cc:Agent>
      <dc:title>Matplotlib v3.10.8, https://matplotlib.org/</dc:title>
     </cc:Agent>
    </dc:creator>
   </cc:Work>
  </rdf:RDF>
 </metadata>
 <defs>
  <style type="text/css">*{stroke-linejoin: round; stroke-linecap: butt}</style>
 </defs>
 <g id="figure_1">
  <g id="patch_1">
   <path d="M 0 396 
L 691.2 396 
L 691.2 0 
L 0 0 
L 0 396 
z
" style="fill: none"/>
  </g>
  <g id="axes_1">
   <g id="patch_2">
    <path d="M 55.296 324.72 
L 546.048 324.72 
L 546.048 55.44 
L 55.296 55.44 
L 55.296 324.72 
z
" style="fill: none"/>
   </g>
   <g id="matplotlib.axis_1">
    <g id="xtick_1">
     <g id="line2d_1">
      <path d="M 104.3712 324.72 
L 104.3712 55.44 
" clip-path="url(#p72be1456b8)" style="fill: none; stroke-dasharray: 2.22,0.96; stroke-dashoffset: 0; stroke: #e2d5f5; stroke-opacity: 0.7; stroke-width: 0.6"/>
     </g>
     <g id="line2d_2">
      <defs>
       <path id="me011f88bb4" d="M 0 0 
L 0 3.5 
" style="stroke: #9b8bb8; stroke-width: 0.8"/>
      </defs>
      <g>
       <use xlink:href="#me011f88bb4" x="104.3712" y="324.72" style="fill: #9b8bb8; stroke: #9b8bb8; stroke-width: 0.8"/>
      </g>
     </g>
     <g id="text_1">
      <!-- 03/31 -->
      <g style="fill: #9b8bb8" transform="translate(92.830819 353.301793) rotate(-30) scale(0.1 -0.1)">
       <defs>
        <path id="JetBrainsMono-Regular-30" d="M 1920 -64 
Q 1274 -64 893 310 
Q 512 685 512 1312 
L 512 3360 
Q 512 3987 893 4361 
Q 1274 4736 1920 4736 
Q 2566 4736 2947 4361 
Q 3328 3987 3328 3360 
L 3328 1312 
Q 3328 896 3155 585 
Q 2982 275 2665 105 
Q 2349 -64 1920 -64 
z
M 1920 429 
Q 2304 429 2537 675 
Q 2771 922 2771 1312 
L 2771 3360 
Q 2771 3750 2537 3996 
Q 2304 4243 1920 4243 
Q 1536 4243 1302 3996 
Q 1069 3750 1069 3360 
L 1069 1312 
Q 1069 922 1302 675 
Q 1536 429 1920 429 
z
M 1920 1984 
Q 1747 1984 1641 2080 
Q 1536 2176 1536 2355 
Q 1536 2528 1641 2621 
Q 1747 2714 1920 2714 
Q 2093 2714 2198 2621 
Q 2304 2528 2304 2355 
Q 2304 2176 2198 2080 
Q 2093 1984 1920 1984 
z
" transform="scale(0.015625)"/>
        <path id="JetBrainsMono-Regular-33" d="M 1850 -64 
Q 1203 -64 825 297 
Q 448 659 448 1280 
L 1024 1280 
Q 1024 896 1248 672 
Q 1472 448 1856 448 
Q 2240 448 2464 672 
Q 2688 896 2688 1280 
L 2688 1600 
Q 2688 1984 2464 2208 
Q 2240 2432 1856 2432 
L 1350 2432 
L 1350 2931 
L 2496 4147 
L 576 4147 
L 576 4672 
L 3149 4672 
L 3149 4134 
L 2022 2938 
Q 2598 2893 2931 2537 
Q 3264 2182 3264 1600 
L 3264 1280 
Q 3264 659 2883 297 
Q 2502 -64 1850 -64 
z
" transform="scale(0.015625)"/>
        <path id="JetBrainsMono-Regular-2f" d="M 480 -704 
L 2752 5312 
L 3360 5312 
L 1088 -704 
L 480 -704 
z
" transform="scale(0.015625)"/>
        <path id="JetBrainsMono-Regular-31" d="M 576 0 
L 576 525 
L 1843 525 
L 1843 4173 
L 576 3226 
L 576 3885 
L 1632 4672 
L 2419 4672 
L 2419 525 
L 3456 525 
L 3456 0 
L 576 0 
z
" transform="scale(0.015625)"/>
       </defs>
       <use xlink:href="#JetBrainsMono-Regular-30"/>
       <use xlink:href="#JetBrainsMono-Regular-33" transform="translate(59.999985 0)"/>
       <use xlink:href="#JetBrainsMono-Regular-2f" transform="translate(119.999969 0)"/>
       <use xlink:href="#JetBrainsMono-Regular-33" transform="translate(179.999954 0)"/>
       <use xlink:href="#JetBrainsMono-Regular-31" transform="translate(239.999939 0)"/>
      </g>
     </g>
    </g>
    <g id="xtick_2">
     <g id="line2d_3">
      <path d="M 202.5216 324.72 
L 202.5216 55.44 
" clip-path="url(#p72be1456b8)" style="fill: none; stroke-dasharray: 2.22,0.96; stroke-dashoffset: 0; stroke: #e2d5f5; stroke-opacity: 0.7; stroke-width: 0.6"/>
     </g>
     <g id="line2d_4">
      <g>
       <use xlink:href="#me011f88bb4" x="202.5216" y="324.72" style="fill: #9b8bb8; stroke: #9b8bb8; stroke-width: 0.8"/>
      </g>
     </g>
     <g id="text_2">
      <!-- 04/01 -->
      <g style="fill: #9b8bb8" transform="translate(190.981219 353.301793) rotate(-30) scale(0.1 -0.1)">
       <defs>
        <path id="JetBrainsMono-Regular-34" d="M 2560 0 
L 2560 1024 
L 448 1024 
L 448 1926 
L 2150 4672 
L 2803 4672 
L 1024 1798 
L 1024 1549 
L 2560 1549 
L 2560 2688 
L 3136 2688 
L 3136 0 
L 2560 0 
z
" transform="scale(0.015625)"/>
       </defs>
       <use xlink:href="#JetBrainsMono-Regular-30"/>
       <use xlink:href="#JetBrainsMono-Regular-34" transform="translate(59.999985 0)"/>
       <use xlink:href="#JetBrainsMono-Regular-2f" transform="translate(119.999969 0)"/>
       <use xlink:href="#JetBrainsMono-Regular-30" transform="translate(179.999954 0)"/>
       <use xlink:href="#JetBrainsMono-Regular-31" transform="translate(239.999939 0)"/>
      </g>
     </g>
    </g>
    <g id="xtick_3">
     <g id="line2d_5">
      <path d="M 300.672 324.72 
L 300.672 55.44 
" clip-path="url(#p72be1456b8)" style="fill: none; stroke-dasharray: 2.22,0.96; stroke-dashoffset: 0; stroke: #e2d5f5; stroke-opacity: 0.7; stroke-width: 0.6"/>
     </g>
     <g id="line2d_6">
      <g>
       <use xlink:href="#me011f88bb4" x="300.672" y="324.72" style="fill: #9b8bb8; stroke: #9b8bb8; stroke-width: 0.8"/>
      </g>
     </g>
     <g id="text_3">
      <!-- 04/02 -->
      <g style="fill: #9b8bb8" transform="translate(289.131619 353.301793) rotate(-30) scale(0.1 -0.1)">
       <defs>
        <path id="JetBrainsMono-Regular-32" d="M 550 0 
L 550 531 
L 2106 2195 
Q 2445 2554 2585 2835 
Q 2726 3117 2726 3386 
Q 2726 3770 2505 3997 
Q 2285 4224 1907 4224 
Q 1517 4224 1289 3990 
Q 1062 3757 1062 3360 
L 486 3360 
Q 506 3994 890 4365 
Q 1274 4736 1907 4736 
Q 2554 4736 2934 4371 
Q 3315 4006 3315 3379 
Q 3315 3046 3132 2675 
Q 2950 2304 2509 1843 
L 1248 525 
L 3373 525 
L 3373 0 
L 550 0 
z
" transform="scale(0.015625)"/>
       </defs>
       <use xlink:href="#JetBrainsMono-Regular-30"/>
       <use xlink:href="#JetBrainsMono-Regular-34" transform="translate(59.999985 0)"/>
       <use xlink:href="#JetBrainsMono-Regular-2f" transform="translate(119.999969 0)"/>
       <use xlink:href="#JetBrainsMono-Regular-30" transform="translate(179.999954 0)"/>
       <use xlink:href="#JetBrainsMono-Regular-32" transform="translate(239.999939 0)"/>
      </g>
     </g>
    </g>
    <g id="xtick_4">
     <g id="line2d_7">
      <path d="M 398.8224 324.72 
L 398.8224 55.44 
" clip-path="url(#p72be1456b8)" style="fill: none; stroke-dasharray: 2.22,0.96; stroke-dashoffset: 0; stroke: #e2d5f5; stroke-opacity: 0.7; stroke-width: 0.6"/>
     </g>
     <g id="line2d_8">
      <g>
       <use xlink:href="#me011f88bb4" x="398.8224" y="324.72" style="fill: #9b8bb8; stroke: #9b8bb8; stroke-width: 0.8"/>
      </g>
     </g>
     <g id="text_4">
      <!-- 04/03 -->
      <g style="fill: #9b8bb8" transform="translate(387.282019 353.301793) rotate(-30) scale(0.1 -0.1)">
       <use xlink:href="#JetBrainsMono-Regular-30"/>
       <use xlink:href="#JetBrainsMono-Regular-34" transform="translate(59.999985 0)"/>
       <use xlink:href="#JetBrainsMono-Regular-2f" transform="translate(119.999969 0)"/>
       <use xlink:href="#JetBrainsMono-Regular-30" transform="translate(179.999954 0)"/>
       <use xlink:href="#JetBrainsMono-Regular-33" transform="translate(239.999939 0)"/>
      </g>
     </g>
    </g>
    <g id="xtick_5">
     <g id="line2d_9">
      <path d="M 496.9728 324.72 
L 496.9728 55.44 
" clip-path="url(#p72be1456b8)" style="fill: none; stroke-dasharray: 2.22,0.96; stroke-dashoffset: 0; stroke: #e2d5f5; stroke-opacity: 0.7; stroke-width: 0.6"/>
     </g>
     <g id="line2d_10">
      <g>
       <use xlink:href="#me011f88bb4" x="496.9728" y="324.72" style="fill: #9b8bb8; stroke: #9b8bb8; stroke-width: 0.8"/>
      </g>
     </g>
     <g id="text_5">
      <!-- 04/04 -->
      <g style="fill: #9b8bb8" transform="translate(485.432419 353.301793) rotate(-30) scale(0.1 -0.1)">
       <use xlink:href="#JetBrainsMono-Regular-30"/>
       <use xlink:href="#JetBrainsMono-Regular-34" transform="translate(59.999985 0)"/>
       <use xlink:href="#JetBrainsMono-Regular-2f" transform="translate(119.999969 0)"/>
       <use xlink:href="#JetBrainsMono-Regular-30" transform="translate(179.999954 0)"/>
       <use xlink:href="#JetBrainsMono-Regular-34" transform="translate(239.999939 0)"/>
      </g>
     </g>
    </g>
   </g>
   <g id="matplotlib.axis_2">
    <g id="ytick_1">
     <g id="line2d_11">
      <path d="M 55.296 279.432045 
L 546.048 279.432045 
" clip-path="url(#p72be1456b8)" style="fill: none; stroke-dasharray: 2.22,0.96; stroke-dashoffset: 0; stroke: #e2d5f5; stroke-opacity: 0.7; stroke-width: 0.6"/>
     </g>
     <g id="line2d_12">
      <defs>
       <path id="m3822198483" d="M 0 0 
L -3.5 0 
" style="stroke: #9b8bb8; stroke-width: 0.8"/>
      </defs>
      <g>
       <use xlink:href="#m3822198483" x="55.296" y="279.432045" style="fill: #9b8bb8; stroke: #9b8bb8; stroke-width: 0.8"/>
      </g>
     </g>
     <g id="text_6">
      <!-- 200 -->
      <g style="fill: #9b8bb8" transform="translate(30.296 283.082045) scale(0.1 -0.1)">
       <use xlink:href="#JetBrainsMono-Regular-32"/>
       <use xlink:href="#JetBrainsMono-Regular-30" transform="translate(59.999985 0)"/>
       <use xlink:href="#JetBrainsMono-Regular-30" transform="translate(119.999969 0)"/>
      </g>
     </g>
    </g>
    <g id="ytick_2">
     <g id="line2d_13">
      <path d="M 55.296 222.822102 
L 546.048 222.822102 
" clip-path="url(#p72be1456b8)" style="fill: none; stroke-dasharray: 2.22,0.96; stroke-dashoffset: 0; stroke: #e2d5f5; stroke-opacity: 0.7; stroke-width: 0.6"/>
     </g>
     <g id="line2d_14">
      <g>
       <use xlink:href="#m3822198483" x="55.296" y="222.822102" style="fill: #9b8bb8; stroke: #9b8bb8; stroke-width: 0.8"/>
      </g>
     </g>
     <g id="text_7">
      <!-- 205 -->
      <g style="fill: #9b8bb8" transform="translate(30.296 226.472102) scale(0.1 -0.1)">
       <defs>
        <path id="JetBrainsMono-Regular-35" d="M 1882 -64 
Q 1235 -64 857 297 
Q 480 659 480 1280 
L 1056 1280 
Q 1056 896 1280 672 
Q 1504 448 1888 448 
Q 2272 448 2496 672 
Q 2720 896 2720 1280 
L 2720 1568 
Q 2720 1952 2502 2176 
Q 2285 2400 1914 2400 
L 640 2400 
L 640 4672 
L 3130 4672 
L 3130 4147 
L 1178 4147 
L 1190 2925 
L 1946 2925 
Q 2592 2925 2944 2569 
Q 3296 2214 3296 1568 
L 3296 1280 
Q 3296 659 2915 297 
Q 2534 -64 1882 -64 
z
" transform="scale(0.015625)"/>
       </defs>
       <use xlink:href="#JetBrainsMono-Regular-32"/>
       <use xlink:href="#JetBrainsMono-Regular-30" transform="translate(59.999985 0)"/>
       <use xlink:href="#JetBrainsMono-Regular-35" transform="translate(119.999969 0)"/>
      </g>
     </g>
    </g>
    <g id="ytick_3">
     <g id="line2d_15">
      <path d="M 55.296 166.212159 
L 546.048 166.212159 
" clip-path="url(#p72be1456b8)" style="fill: none; stroke-dasharray: 2.22,0.96; stroke-dashoffset: 0; stroke: #e2d5f5; stroke-opacity: 0.7; stroke-width: 0.6"/>
     </g>
     <g id="line2d_16">
      <g>
       <use xlink:href="#m3822198483" x="55.296" y="166.212159" style="fill: #9b8bb8; stroke: #9b8bb8; stroke-width: 0.8"/>
      </g>
     </g>
     <g id="text_8">
      <!-- 210 -->
      <g style="fill: #9b8bb8" transform="translate(30.296 169.862159) scale(0.1 -0.1)">
       <use xlink:href="#JetBrainsMono-Regular-32"/>
       <use xlink:href="#JetBrainsMono-Regular-31" transform="translate(59.999985 0)"/>
       <use xlink:href="#JetBrainsMono-Regular-30" transform="translate(119.999969 0)"/>
      </g>
     </g>
    </g>
    <g id="ytick_4">
     <g id="line2d_17">
      <path d="M 55.296 109.602215 
L 546.048 109.602215 
" clip-path="url(#p72be1456b8)" style="fill: none; stroke-dasharray: 2.22,0.96; stroke-dashoffset: 0; stroke: #e2d5f5; stroke-opacity: 0.7; stroke-width: 0.6"/>
     </g>
     <g id="line2d_18">
      <g>
       <use xlink:href="#m3822198483" x="55.296" y="109.602215" style="fill: #9b8bb8; stroke: #9b8bb8; stroke-width: 0.8"/>
      </g>
     </g>
     <g id="text_9">
      <!-- 215 -->
      <g style="fill: #9b8bb8" transform="translate(30.296 113.252215) scale(0.1 -0.1)">
       <use xlink:href="#JetBrainsMono-Regular-32"/>
       <use xlink:href="#JetBrainsMono-Regular-31" transform="translate(59.999985 0)"/>
       <use xlink:href="#JetBrainsMono-Regular-35" transform="translate(119.999969 0)"/>
      </g>
     </g>
    </g>
    <g id="text_10">
     <!-- Rating -->
     <g style="fill: #9b8bb8" transform="translate(24.496 208.08) rotate(-90) scale(0.1 -0.1)">
      <defs>
       <path id="JetBrainsMono-Regular-52" d="M 595 0 
L 595 4672 
L 2035 4672 
Q 2451 4672 2764 4502 
Q 3078 4333 3251 4032 
Q 3424 3731 3424 3328 
Q 3424 2854 3181 2515 
Q 2938 2176 2534 2042 
L 3488 0 
L 2854 0 
L 1939 1984 
L 1165 1984 
L 1165 0 
L 595 0 
z
M 1165 2502 
L 2035 2502 
Q 2394 2502 2611 2729 
Q 2829 2957 2829 3328 
Q 2829 3706 2611 3930 
Q 2394 4154 2035 4154 
L 1165 4154 
L 1165 2502 
z
" transform="scale(0.015625)"/>
       <path id="JetBrainsMono-Regular-61" d="M 1613 -64 
Q 1069 -64 749 240 
Q 429 544 429 1037 
Q 429 1363 576 1606 
Q 723 1850 985 1987 
Q 1248 2125 1587 2125 
L 2675 2125 
L 2675 2400 
Q 2675 3085 1926 3085 
Q 1594 3085 1389 2963 
Q 1184 2842 1171 2624 
L 595 2624 
Q 627 3040 982 3312 
Q 1338 3584 1926 3584 
Q 2566 3584 2908 3277 
Q 3251 2970 3251 2419 
L 3251 0 
L 2682 0 
L 2682 640 
L 2669 640 
Q 2618 314 2342 125 
Q 2067 -64 1613 -64 
z
M 1754 422 
Q 2176 422 2425 627 
Q 2675 832 2675 1184 
L 2675 1677 
L 1651 1677 
Q 1370 1677 1194 1507 
Q 1018 1338 1018 1056 
Q 1018 762 1213 592 
Q 1408 422 1754 422 
z
" transform="scale(0.015625)"/>
       <path id="JetBrainsMono-Regular-74" d="M 2272 0 
Q 1837 0 1574 253 
Q 1312 506 1312 928 
L 1312 2995 
L 301 2995 
L 301 3520 
L 1312 3520 
L 1312 4512 
L 1888 4512 
L 1888 3520 
L 3328 3520 
L 3328 2995 
L 1888 2995 
L 1888 928 
Q 1888 749 1993 637 
Q 2099 525 2272 525 
L 3296 525 
L 3296 0 
L 2272 0 
z
" transform="scale(0.015625)"/>
       <path id="JetBrainsMono-Regular-69" d="M 544 0 
L 544 525 
L 1792 525 
L 1792 2995 
L 672 2995 
L 672 3520 
L 2368 3520 
L 2368 525 
L 3552 525 
L 3552 0 
L 544 0 
z
M 2016 4154 
Q 1805 4154 1683 4262 
Q 1562 4371 1562 4557 
Q 1562 4749 1683 4861 
Q 1805 4973 2016 4973 
Q 2227 4973 2348 4861 
Q 2470 4749 2470 4557 
Q 2470 4371 2348 4262 
Q 2227 4154 2016 4154 
z
" transform="scale(0.015625)"/>
       <path id="JetBrainsMono-Regular-6e" d="M 589 0 
L 589 3520 
L 1165 3520 
L 1165 2848 
L 1171 2848 
Q 1216 3200 1459 3392 
Q 1702 3584 2106 3584 
Q 2637 3584 2950 3257 
Q 3264 2931 3264 2368 
L 3264 0 
L 2688 0 
L 2688 2266 
Q 2688 2669 2486 2883 
Q 2285 3098 1939 3098 
Q 1581 3098 1373 2874 
Q 1165 2650 1165 2240 
L 1165 0 
L 589 0 
z
" transform="scale(0.015625)"/>
       <path id="JetBrainsMono-Regular-67" d="M 1030 -1152 
L 1030 -627 
L 2022 -627 
Q 2323 -627 2496 -457 
Q 2669 -288 2669 0 
L 2669 320 
L 2682 896 
L 2662 896 
Q 2611 582 2361 412 
Q 2112 243 1734 243 
Q 1190 243 876 588 
Q 563 934 563 1536 
L 563 2278 
Q 563 2880 876 3232 
Q 1190 3584 1734 3584 
Q 2112 3584 2361 3405 
Q 2611 3226 2662 2912 
L 2675 2912 
L 2675 3520 
L 3245 3520 
L 3245 0 
Q 3245 -531 2915 -841 
Q 2586 -1152 2016 -1152 
L 1030 -1152 
z
M 1907 723 
Q 2266 723 2470 947 
Q 2675 1171 2675 1568 
L 2675 2240 
Q 2675 2637 2470 2861 
Q 2266 3085 1907 3085 
Q 1542 3085 1340 2873 
Q 1139 2662 1139 2304 
L 1139 1504 
Q 1139 1146 1340 934 
Q 1542 723 1907 723 
z
" transform="scale(0.015625)"/>
      </defs>
      <use xlink:href="#JetBrainsMono-Regular-52"/>
      <use xlink:href="#JetBrainsMono-Regular-61" transform="translate(59.999985 0)"/>
      <use xlink:href="#JetBrainsMono-Regular-74" transform="translate(119.999969 0)"/>
      <use xlink:href="#JetBrainsMono-Regular-69" transform="translate(179.999954 0)"/>
      <use xlink:href="#JetBrainsMono-Regular-6e" transform="translate(239.999939 0)"/>
      <use xlink:href="#JetBrainsMono-Regular-67" transform="translate(299.999924 0)"/>
     </g>
    </g>
   </g>
   <g id="patch_3">
    <path d="M 55.296 324.72 
L 55.296 55.44 
" style="fill: none; stroke: #d8c8ef; stroke-width: 0.8; stroke-linejoin: miter; stroke-linecap: square"/>
   </g>
   <g id="patch_4">
    <path d="M 55.296 324.72 
L 546.048 324.72 
" style="fill: none; stroke: #d8c8ef; stroke-width: 0.8; stroke-linejoin: miter; stroke-linecap: square"/>
   </g>
   <g id="FillBetweenPolyCollection_1">
    <defs>
     <path id="me02bbcf83a" d="M 104.3712 -71.28 
L 104.3712 -127.889943 
L 105.684249 -128.990865 
L 106.997298 -130.047305 
L 108.310346 -131.059866 
L 109.623395 -132.029152 
L 110.936444 -132.955766 
L 112.249493 -133.84031 
L 113.562542 -134.683389 
L 114.875591 -135.485605 
L 116.188639 -136.247561 
L 117.501688 -136.96986 
L 118.814737 -137.653106 
L 120.127786 -138.297902 
L 121.440835 -138.904851 
L 122.753884 -139.474556 
L 124.066932 -140.00762 
L 125.379981 -140.504646 
L 126.69303 -140.966237 
L 128.006079 -141.392998 
L 129.319128 -141.78553 
L 130.632177 -142.144436 
L 131.945225 -142.470321 
L 133.258274 -142.763787 
L 134.571323 -143.025438 
L 135.884372 -143.255875 
L 137.197421 -143.455704 
L 138.51047 -143.625526 
L 139.823518 -143.765944 
L 141.136567 -143.877563 
L 142.449616 -143.960985 
L 143.762665 -144.016813 
L 145.075714 -144.045651 
L 146.388763 -144.048101 
L 147.701811 -144.024767 
L 149.01486 -143.976252 
L 150.327909 -143.903159 
L 151.640958 -143.806091 
L 152.954007 -143.685651 
L 154.267056 -143.542443 
L 155.580104 -143.377069 
L 156.893153 -143.190133 
L 158.206202 -142.982238 
L 159.519251 -142.753986 
L 160.8323 -142.505982 
L 162.145348 -142.238828 
L 163.458397 -141.953127 
L 164.771446 -141.649483 
L 166.084495 -141.328499 
L 167.397544 -140.990778 
L 168.710593 -140.636922 
L 170.023641 -140.267536 
L 171.33669 -139.883222 
L 172.649739 -139.484583 
L 173.962788 -139.072223 
L 175.275837 -138.646744 
L 176.588886 -138.20875 
L 177.901934 -137.758845 
L 179.214983 -137.29763 
L 180.528032 -136.825709 
L 181.841081 -136.343686 
L 183.15413 -135.852164 
L 184.467179 -135.351745 
L 185.780227 -134.843033 
L 187.093276 -134.326631 
L 188.406325 -133.803142 
L 189.719374 -133.273169 
L 191.032423 -132.737315 
L 192.345472 -132.196184 
L 193.65852 -131.650379 
L 194.971569 -131.100503 
L 196.284618 -130.547158 
L 197.597667 -129.990949 
L 198.910716 -129.432477 
L 200.223765 -128.872348 
L 201.536813 -128.311162 
L 202.849862 -127.749524 
L 204.162911 -127.188038 
L 205.47596 -126.627305 
L 206.789009 -126.067929 
L 208.102058 -125.510513 
L 209.415106 -124.95566 
L 210.728155 -124.403975 
L 212.041204 -123.856058 
L 213.354253 -123.312515 
L 214.667302 -122.773947 
L 215.980351 -122.240959 
L 217.293399 -121.714152 
L 218.606448 -121.194131 
L 219.919497 -120.681499 
L 221.232546 -120.176858 
L 222.545595 -119.680812 
L 223.858643 -119.193964 
L 225.171692 -118.716917 
L 226.484741 -118.250274 
L 227.79779 -117.794638 
L 229.110839 -117.350613 
L 230.423888 -116.918801 
L 231.736936 -116.499806 
L 233.049985 -116.094232 
L 234.363034 -115.70268 
L 235.676083 -115.325754 
L 236.989132 -114.964058 
L 238.302181 -114.618194 
L 239.615229 -114.288765 
L 240.928278 -113.976376 
L 242.241327 -113.681628 
L 243.554376 -113.405126 
L 244.867425 -113.147471 
L 246.180474 -112.909268 
L 247.493522 -112.691119 
L 248.806571 -112.493628 
L 250.11962 -112.317398 
L 251.432669 -112.163031 
L 252.745718 -112.031132 
L 254.058767 -111.922303 
L 255.371815 -111.837146 
L 256.684864 -111.776267 
L 257.997913 -111.740267 
L 259.310962 -111.72975 
L 260.624011 -111.745318 
L 261.93706 -111.787576 
L 263.250108 -111.857126 
L 264.563157 -111.954571 
L 265.876206 -112.080514 
L 267.189255 -112.235559 
L 268.502304 -112.420309 
L 269.815353 -112.635366 
L 271.128401 -112.881335 
L 272.44145 -113.158818 
L 273.754499 -113.468418 
L 275.067548 -113.810738 
L 276.380597 -114.186382 
L 277.693645 -114.595953 
L 279.006694 -115.040053 
L 280.319743 -115.519287 
L 281.632792 -116.034257 
L 282.945841 -116.585566 
L 284.25889 -117.173817 
L 285.571938 -117.799614 
L 286.884987 -118.463559 
L 288.198036 -119.166257 
L 289.511085 -119.908309 
L 290.824134 -120.69032 
L 292.137183 -121.512892 
L 293.450231 -122.376628 
L 294.76328 -123.282132 
L 296.076329 -124.230006 
L 297.389378 -125.220854 
L 298.702427 -126.255279 
L 300.015476 -127.333885 
L 301.328524 -128.457242 
L 302.641573 -129.625202 
L 303.954622 -130.836895 
L 305.267671 -132.091419 
L 306.58072 -133.387874 
L 307.893769 -134.725357 
L 309.206817 -136.102968 
L 310.519866 -137.519805 
L 311.832915 -138.974967 
L 313.145964 -140.467553 
L 314.459013 -141.996661 
L 315.772062 -143.56139 
L 317.08511 -145.160838 
L 318.398159 -146.794105 
L 319.711208 -148.460288 
L 321.024257 -150.158488 
L 322.337306 -151.887801 
L 323.650355 -153.647328 
L 324.963403 -155.436166 
L 326.276452 -157.253414 
L 327.589501 -159.098172 
L 328.90255 -160.969537 
L 330.215599 -162.866609 
L 331.528647 -164.788485 
L 332.841696 -166.734266 
L 334.154745 -168.703048 
L 335.467794 -170.693932 
L 336.780843 -172.706016 
L 338.093892 -174.738398 
L 339.40694 -176.790177 
L 340.719989 -178.860451 
L 342.033038 -180.948321 
L 343.346087 -183.052883 
L 344.659136 -185.173237 
L 345.972185 -187.308482 
L 347.285233 -189.457716 
L 348.598282 -191.620037 
L 349.911331 -193.794546 
L 351.22438 -195.980339 
L 352.537429 -198.176516 
L 353.850478 -200.382176 
L 355.163526 -202.596417 
L 356.476575 -204.818338 
L 357.789624 -207.047037 
L 359.102673 -209.281614 
L 360.415722 -211.521166 
L 361.728771 -213.764793 
L 363.041819 -216.011594 
L 364.354868 -218.260666 
L 365.667917 -220.511109 
L 366.980966 -222.762021 
L 368.294015 -225.012501 
L 369.607064 -227.261648 
L 370.920112 -229.508561 
L 372.233161 -231.752337 
L 373.54621 -233.992076 
L 374.859259 -236.226876 
L 376.172308 -238.455836 
L 377.485357 -240.678055 
L 378.798405 -242.892632 
L 380.111454 -245.098664 
L 381.424503 -247.295251 
L 382.737552 -249.481492 
L 384.050601 -251.656485 
L 385.363649 -253.819328 
L 386.676698 -255.969121 
L 387.989747 -258.104962 
L 389.302796 -260.22595 
L 390.615845 -262.331183 
L 391.928894 -264.419761 
L 393.241942 -266.490781 
L 394.554991 -268.543343 
L 395.86804 -270.576545 
L 397.181089 -272.589485 
L 398.494138 -274.581264 
L 399.807187 -276.550978 
L 401.120235 -278.497728 
L 402.433284 -280.420611 
L 403.746333 -282.318726 
L 405.059382 -284.191172 
L 406.372431 -286.037048 
L 407.68548 -287.855452 
L 408.998528 -289.645483 
L 410.311577 -291.406239 
L 411.624626 -293.13682 
L 412.937675 -294.836324 
L 414.250724 -296.503849 
L 415.563773 -298.138495 
L 416.876821 -299.73936 
L 418.18987 -301.305542 
L 419.502919 -302.836141 
L 420.815968 -304.330255 
L 422.129017 -305.786982 
L 423.442066 -307.205422 
L 424.755114 -308.584673 
L 426.068163 -309.923834 
L 427.381212 -311.222003 
L 428.694261 -312.478279 
L 430.00731 -313.691761 
L 431.320359 -314.861548 
L 432.633407 -315.986737 
L 433.946456 -317.066428 
L 435.259505 -318.09972 
L 436.572554 -319.085711 
L 437.885603 -320.0235 
L 439.198652 -320.912185 
L 440.5117 -321.750865 
L 441.824749 -322.53864 
L 443.137798 -323.274606 
L 444.450847 -323.957864 
L 445.763896 -324.587512 
L 447.076944 -325.162649 
L 448.389993 -325.682372 
L 449.703042 -326.145782 
L 451.016091 -326.551976 
L 452.32914 -326.900053 
L 453.642189 -327.189113 
L 454.955237 -327.418253 
L 456.268286 -327.586572 
L 457.581335 -327.693169 
L 458.894384 -327.737143 
L 460.207433 -327.717592 
L 461.520482 -327.633615 
L 462.83353 -327.484311 
L 464.146579 -327.268778 
L 465.459628 -326.986115 
L 466.772677 -326.635421 
L 468.085726 -326.215794 
L 469.398775 -325.726334 
L 470.711823 -325.166138 
L 472.024872 -324.534305 
L 473.337921 -323.829935 
L 474.65097 -323.052125 
L 475.964019 -322.199975 
L 477.277068 -321.272583 
L 478.590116 -320.269047 
L 479.903165 -319.188467 
L 481.216214 -318.029942 
L 482.529263 -316.792569 
L 483.842312 -315.475447 
L 485.155361 -314.077676 
L 486.468409 -312.598353 
L 487.781458 -311.036578 
L 489.094507 -309.39145 
L 490.407556 -307.662066 
L 491.720605 -305.847526 
L 493.033654 -303.946927 
L 494.346702 -301.95937 
L 495.659751 -299.883953 
L 496.9728 -297.719773 
L 496.9728 -71.28 
L 496.9728 -71.28 
L 495.659751 -71.28 
L 494.346702 -71.28 
L 493.033654 -71.28 
L 491.720605 -71.28 
L 490.407556 -71.28 
L 489.094507 -71.28 
L 487.781458 -71.28 
L 486.468409 -71.28 
L 485.155361 -71.28 
L 483.842312 -71.28 
L 482.529263 -71.28 
L 481.216214 -71.28 
L 479.903165 -71.28 
L 478.590116 -71.28 
L 477.277068 -71.28 
L 475.964019 -71.28 
L 474.65097 -71.28 
L 473.337921 -71.28 
L 472.024872 -71.28 
L 470.711823 -71.28 
L 469.398775 -71.28 
L 468.085726 -71.28 
L 466.772677 -71.28 
L 465.459628 -71.28 
L 464.146579 -71.28 
L 462.83353 -71.28 
L 461.520482 -71.28 
L 460.207433 -71.28 
L 458.894384 -71.28 
L 457.581335 -71.28 
L 456.268286 -71.28 
L 454.955237 -71.28 
L 453.642189 -71.28 
L 452.32914 -71.28 
L 451.016091 -71.28 
L 449.703042 -71.28 
L 448.389993 -71.28 
L 447.076944 -71.28 
L 445.763896 -71.28 
L 444.450847 -71.28 
L 443.137798 -71.28 
L 441.824749 -71.28 
L 440.5117 -71.28 
L 439.198652 -71.28 
L 437.885603 -71.28 
L 436.572554 -71.28 
L 435.259505 -71.28 
L 433.946456 -71.28 
L 432.633407 -71.28 
L 431.320359 -71.28 
L 430.00731 -71.28 
L 428.694261 -71.28 
L 427.381212 -71.28 
L 426.068163 -71.28 
L 424.755114 -71.28 
L 423.442066 -71.28 
L 422.129017 -71.28 
L 420.815968 -71.28 
L 419.502919 -71.28 
L 418.18987 -71.28 
L 416.876821 -71.28 
L 415.563773 -71.28 
L 414.250724 -71.28 
L 412.937675 -71.28 
L 411.624626 -71.28 
L 410.311577 -71.28 
L 408.998528 -71.28 
L 407.68548 -71.28 
L 406.372431 -71.28 
L 405.059382 -71.28 
L 403.746333 -71.28 
L 402.433284 -71.28 
L 401.120235 -71.28 
L 399.807187 -71.28 
L 398.494138 -71.28 
L 397.181089 -71.28 
L 395.86804 -71.28 
L 394.554991 -71.28 
L 393.241942 -71.28 
L 391.928894 -71.28 
L 390.615845 -71.28 
L 389.302796 -71.28 
L 387.989747 -71.28 
L 386.676698 -71.28 
L 385.363649 -71.28 
L 384.050601 -71.28 
L 382.737552 -71.28 
L 381.424503 -71.28 
L 380.111454 -71.28 
L 378.798405 -71.28 
L 377.485357 -71.28 
L 376.172308 -71.28 
L 374.859259 -71.28 
L 373.54621 -71.28 
L 372.233161 -71.28 
L 370.920112 -71.28 
L 369.607064 -71.28 
L 368.294015 -71.28 
L 366.980966 -71.28 
L 365.667917 -71.28 
L 364.354868 -71.28 
L 363.041819 -71.28 
L 361.728771 -71.28 
L 360.415722 -71.28 
L 359.102673 -71.28 
L 357.789624 -71.28 
L 356.476575 -71.28 
L 355.163526 -71.28 
L 353.850478 -71.28 
L 352.537429 -71.28 
L 351.22438 -71.28 
L 349.911331 -71.28 
L 348.598282 -71.28 
L 347.285233 -71.28 
L 345.972185 -71.28 
L 344.659136 -71.28 
L 343.346087 -71.28 
L 342.033038 -71.28 
L 340.719989 -71.28 
L 339.40694 -71.28 
L 338.093892 -71.28 
L 336.780843 -71.28 
L 335.467794 -71.28 
L 334.154745 -71.28 
L 332.841696 -71.28 
L 331.528647 -71.28 
L 330.215599 -71.28 
L 328.90255 -71.28 
L 327.589501 -71.28 
L 326.276452 -71.28 
L 324.963403 -71.28 
L 323.650355 -71.28 
L 322.337306 -71.28 
L 321.024257 -71.28 
L 319.711208 -71.28 
L 318.398159 -71.28 
L 317.08511 -71.28 
L 315.772062 -71.28 
L 314.459013 -71.28 
L 313.145964 -71.28 
L 311.832915 -71.28 
L 310.519866 -71.28 
L 309.206817 -71.28 
L 307.893769 -71.28 
L 306.58072 -71.28 
L 305.267671 -71.28 
L 303.954622 -71.28 
L 302.641573 -71.28 
L 301.328524 -71.28 
L 300.015476 -71.28 
L 298.702427 -71.28 
L 297.389378 -71.28 
L 296.076329 -71.28 
L 294.76328 -71.28 
L 293.450231 -71.28 
L 292.137183 -71.28 
L 290.824134 -71.28 
L 289.511085 -71.28 
L 288.198036 -71.28 
L 286.884987 -71.28 
L 285.571938 -71.28 
L 284.25889 -71.28 
L 282.945841 -71.28 
L 281.632792 -71.28 
L 280.319743 -71.28 
L 279.006694 -71.28 
L 277.693645 -71.28 
L 276.380597 -71.28 
L 275.067548 -71.28 
L 273.754499 -71.28 
L 272.44145 -71.28 
L 271.128401 -71.28 
L 269.815353 -71.28 
L 268.502304 -71.28 
L 267.189255 -71.28 
L 265.876206 -71.28 
L 264.563157 -71.28 
L 263.250108 -71.28 
L 261.93706 -71.28 
L 260.624011 -71.28 
L 259.310962 -71.28 
L 257.997913 -71.28 
L 256.684864 -71.28 
L 255.371815 -71.28 
L 254.058767 -71.28 
L 252.745718 -71.28 
L 251.432669 -71.28 
L 250.11962 -71.28 
L 248.806571 -71.28 
L 247.493522 -71.28 
L 246.180474 -71.28 
L 244.867425 -71.28 
L 243.554376 -71.28 
L 242.241327 -71.28 
L 240.928278 -71.28 
L 239.615229 -71.28 
L 238.302181 -71.28 
L 236.989132 -71.28 
L 235.676083 -71.28 
L 234.363034 -71.28 
L 233.049985 -71.28 
L 231.736936 -71.28 
L 230.423888 -71.28 
L 229.110839 -71.28 
L 227.79779 -71.28 
L 226.484741 -71.28 
L 225.171692 -71.28 
L 223.858643 -71.28 
L 222.545595 -71.28 
L 221.232546 -71.28 
L 219.919497 -71.28 
L 218.606448 -71.28 
L 217.293399 -71.28 
L 215.980351 -71.28 
L 214.667302 -71.28 
L 213.354253 -71.28 
L 212.041204 -71.28 
L 210.728155 -71.28 
L 209.415106 -71.28 
L 208.102058 -71.28 
L 206.789009 -71.28 
L 205.47596 -71.28 
L 204.162911 -71.28 
L 202.849862 -71.28 
L 201.536813 -71.28 
L 200.223765 -71.28 
L 198.910716 -71.28 
L 197.597667 -71.28 
L 196.284618 -71.28 
L 194.971569 -71.28 
L 193.65852 -71.28 
L 192.345472 -71.28 
L 191.032423 -71.28 
L 189.719374 -71.28 
L 188.406325 -71.28 
L 187.093276 -71.28 
L 185.780227 -71.28 
L 184.467179 -71.28 
L 183.15413 -71.28 
L 181.841081 -71.28 
L 180.528032 -71.28 
L 179.214983 -71.28 
L 177.901934 -71.28 
L 176.588886 -71.28 
L 175.275837 -71.28 
L 173.962788 -71.28 
L 172.649739 -71.28 
L 171.33669 -71.28 
L 170.023641 -71.28 
L 168.710593 -71.28 
L 167.397544 -71.28 
L 166.084495 -71.28 
L 164.771446 -71.28 
L 163.458397 -71.28 
L 162.145348 -71.28 
L 160.8323 -71.28 
L 159.519251 -71.28 
L 158.206202 -71.28 
L 156.893153 -71.28 
L 155.580104 -71.28 
L 154.267056 -71.28 
L 152.954007 -71.28 
L 151.640958 -71.28 
L 150.327909 -71.28 
L 149.01486 -71.28 
L 147.701811 -71.28 
L 146.388763 -71.28 
L 145.075714 -71.28 
L 143.762665 -71.28 
L 142.449616 -71.28 
L 141.136567 -71.28 
L 139.823518 -71.28 
L 138.51047 -71.28 
L 137.197421 -71.28 
L 135.884372 -71.28 
L 134.571323 -71.28 
L 133.258274 -71.28 
L 131.945225 -71.28 
L 130.632177 -71.28 
L 129.319128 -71.28 
L 128.006079 -71.28 
L 126.69303 -71.28 
L 125.379981 -71.28 
L 124.066932 -71.28 
L 122.753884 -71.28 
L 121.440835 -71.28 
L 120.127786 -71.28 
L 118.814737 -71.28 
L 117.501688 -71.28 
L 116.188639 -71.28 
L 114.875591 -71.28 
L 113.562542 -71.28 
L 112.249493 -71.28 
L 110.936444 -71.28 
L 109.623395 -71.28 
L 108.310346 -71.28 
L 106.997298 -71.28 
L 105.684249 -71.28 
L 104.3712 -71.28 
z
" style="stroke: #8b5cf6; stroke-opacity: 0.12"/>
    </defs>
    <g clip-path="url(#p72be1456b8)">
     <use xlink:href="#me02bbcf83a" x="0" y="396" style="fill: #8b5cf6; fill-opacity: 0.12; stroke: #8b5cf6; stroke-opacity: 0.12"/>
    </g>
   </g>
   <g id="text_11">
    <!-- 216 -->
    <g style="fill: #8b5cf6" transform="translate(499.9728 95.280227) scale(0.12 -0.12)">
     <defs>
      <path id="JetBrainsMono-Bold-32" d="M 474 0 
L 474 723 
L 2157 2445 
Q 2566 2874 2566 3315 
Q 2566 3629 2384 3824 
Q 2202 4019 1894 4019 
Q 1581 4019 1392 3817 
Q 1203 3616 1203 3283 
L 403 3283 
Q 403 3718 595 4044 
Q 787 4371 1126 4553 
Q 1466 4736 1914 4736 
Q 2355 4736 2688 4563 
Q 3021 4390 3203 4080 
Q 3386 3770 3386 3354 
Q 3386 2995 3216 2636 
Q 3046 2278 2656 1894 
L 1478 723 
L 3443 723 
L 3443 0 
L 474 0 
z
" transform="scale(0.015625)"/>
      <path id="JetBrainsMono-Bold-31" d="M 538 0 
L 538 723 
L 1754 723 
L 1754 3898 
L 531 3002 
L 531 3898 
L 1606 4672 
L 2554 4672 
L 2554 723 
L 3533 723 
L 3533 0 
L 538 0 
z
" transform="scale(0.015625)"/>
      <path id="JetBrainsMono-Bold-36" d="M 1920 -64 
Q 1440 -64 1085 128 
Q 730 320 534 669 
Q 339 1018 339 1485 
Q 339 1760 457 2115 
Q 576 2470 781 2835 
L 1792 4672 
L 2701 4672 
L 1498 2611 
L 1523 2598 
Q 1619 2733 1804 2809 
Q 1990 2886 2208 2886 
Q 2598 2886 2889 2710 
Q 3181 2534 3341 2214 
Q 3501 1894 3501 1459 
Q 3501 998 3305 656 
Q 3110 314 2755 125 
Q 2400 -64 1920 -64 
z
M 1920 614 
Q 2278 614 2496 841 
Q 2714 1069 2714 1446 
Q 2714 1830 2496 2057 
Q 2278 2285 1920 2285 
Q 1562 2285 1344 2057 
Q 1126 1830 1126 1446 
Q 1126 1069 1344 841 
Q 1562 614 1920 614 
z
" transform="scale(0.015625)"/>
     </defs>
     <use xlink:href="#JetBrainsMono-Bold-32"/>
     <use xlink:href="#JetBrainsMono-Bold-31" transform="translate(59.999985 0)"/>
     <use xlink:href="#JetBrainsMono-Bold-36" transform="translate(119.999969 0)"/>
    </g>
   </g>
   <g id="text_12">
    <!-- Rating History -->
    <g style="fill: #8b5cf6" transform="translate(55.296 50.44) scale(0.17 -0.17)">
     <defs>
      <path id="JetBrainsMono-Bold-52" d="M 493 0 
L 493 4672 
L 1965 4672 
Q 2432 4672 2774 4499 
Q 3117 4326 3309 4016 
Q 3501 3706 3501 3283 
Q 3501 2816 3270 2467 
Q 3040 2118 2650 1971 
L 3565 0 
L 2688 0 
L 1869 1856 
L 1286 1856 
L 1286 0 
L 493 0 
z
M 1286 2560 
L 1965 2560 
Q 2304 2560 2496 2745 
Q 2688 2931 2688 3258 
Q 2688 3584 2493 3776 
Q 2298 3968 1965 3968 
L 1286 3968 
L 1286 2560 
z
" transform="scale(0.015625)"/>
      <path id="JetBrainsMono-Bold-61" d="M 1530 -64 
Q 992 -64 681 240 
Q 371 544 371 1037 
Q 371 1549 723 1853 
Q 1075 2157 1690 2157 
L 2547 2157 
L 2547 2406 
Q 2547 2938 1926 2938 
Q 1645 2938 1478 2829 
Q 1312 2720 1293 2522 
L 525 2522 
Q 550 2995 924 3289 
Q 1299 3584 1933 3584 
Q 2605 3584 2976 3270 
Q 3347 2957 3347 2387 
L 3347 0 
L 2566 0 
L 2566 659 
Q 2522 320 2246 128 
Q 1971 -64 1530 -64 
z
M 1786 589 
Q 2138 589 2342 761 
Q 2547 934 2547 1222 
L 2547 1638 
L 1728 1638 
Q 1466 1638 1312 1491 
Q 1158 1344 1158 1114 
Q 1158 877 1321 733 
Q 1485 589 1786 589 
z
" transform="scale(0.015625)"/>
      <path id="JetBrainsMono-Bold-74" d="M 2272 0 
Q 1779 0 1488 285 
Q 1197 570 1197 1056 
L 1197 2797 
L 224 2797 
L 224 3520 
L 1197 3520 
L 1197 4512 
L 2003 4512 
L 2003 3520 
L 3405 3520 
L 3405 2797 
L 2003 2797 
L 2003 1075 
Q 2003 922 2089 822 
Q 2176 723 2330 723 
L 3373 723 
L 3373 0 
L 2272 0 
z
" transform="scale(0.015625)"/>
      <path id="JetBrainsMono-Bold-69" d="M 486 0 
L 486 723 
L 1690 723 
L 1690 2797 
L 614 2797 
L 614 3520 
L 2490 3520 
L 2490 723 
L 3571 723 
L 3571 0 
L 486 0 
z
M 2032 4109 
Q 1789 4109 1648 4233 
Q 1507 4358 1507 4570 
Q 1507 4781 1648 4905 
Q 1789 5030 2032 5030 
Q 2275 5030 2416 4905 
Q 2557 4781 2557 4570 
Q 2557 4358 2416 4233 
Q 2275 4109 2032 4109 
z
" transform="scale(0.015625)"/>
      <path id="JetBrainsMono-Bold-6e" d="M 493 0 
L 493 3520 
L 1274 3520 
L 1274 2861 
Q 1338 3194 1587 3389 
Q 1837 3584 2221 3584 
Q 2739 3584 3049 3238 
Q 3360 2893 3360 2310 
L 3360 0 
L 2560 0 
L 2560 2214 
Q 2560 2541 2390 2717 
Q 2221 2893 1933 2893 
Q 1632 2893 1462 2713 
Q 1293 2534 1293 2202 
L 1293 0 
L 493 0 
z
" transform="scale(0.015625)"/>
      <path id="JetBrainsMono-Bold-67" d="M 973 -1152 
L 973 -486 
L 1965 -486 
Q 2246 -486 2400 -336 
Q 2554 -186 2554 70 
L 2554 282 
L 2566 832 
Q 2458 538 2218 374 
Q 1978 211 1632 211 
Q 1094 211 777 572 
Q 461 934 461 1555 
L 461 2240 
Q 461 2854 777 3219 
Q 1094 3584 1632 3584 
Q 1978 3584 2218 3421 
Q 2458 3258 2566 2957 
L 2566 3520 
L 3347 3520 
L 3347 51 
Q 3347 -506 2979 -829 
Q 2611 -1152 1978 -1152 
L 973 -1152 
z
M 1901 896 
Q 2208 896 2377 1078 
Q 2547 1261 2547 1587 
L 2547 2202 
Q 2547 2528 2377 2710 
Q 2208 2893 1901 2893 
Q 1594 2893 1427 2717 
Q 1261 2541 1261 2227 
L 1261 1562 
Q 1261 1248 1427 1072 
Q 1594 896 1901 896 
z
" transform="scale(0.015625)"/>
      <path id="JetBrainsMono-Bold-20" transform="scale(0.015625)"/>
      <path id="JetBrainsMono-Bold-48" d="M 493 0 
L 493 4672 
L 1293 4672 
L 1293 2778 
L 2547 2778 
L 2547 4672 
L 3347 4672 
L 3347 0 
L 2547 0 
L 2547 2054 
L 1293 2054 
L 1293 0 
L 493 0 
z
" transform="scale(0.015625)"/>
      <path id="JetBrainsMono-Bold-73" d="M 1773 -58 
Q 1146 -58 781 227 
Q 416 512 416 998 
L 1203 998 
Q 1203 794 1353 685 
Q 1504 576 1773 576 
L 2054 576 
Q 2342 576 2499 685 
Q 2656 794 2656 998 
Q 2656 1190 2547 1283 
Q 2438 1376 2214 1408 
L 1338 1523 
Q 915 1581 688 1849 
Q 461 2118 461 2547 
Q 461 3046 793 3312 
Q 1126 3578 1754 3578 
L 2048 3578 
Q 2637 3578 2995 3309 
Q 3354 3040 3366 2592 
L 2573 2592 
Q 2566 2758 2425 2857 
Q 2285 2957 2048 2957 
L 1754 2957 
Q 1498 2957 1363 2851 
Q 1229 2746 1229 2566 
Q 1229 2406 1328 2329 
Q 1427 2253 1619 2234 
L 2445 2118 
Q 2931 2061 3177 1776 
Q 3424 1491 3424 1011 
Q 3424 499 3075 220 
Q 2726 -58 2054 -58 
L 1773 -58 
z
" transform="scale(0.015625)"/>
      <path id="JetBrainsMono-Bold-6f" d="M 1920 -58 
Q 1242 -58 845 323 
Q 448 704 448 1350 
L 448 2170 
Q 448 2822 845 3200 
Q 1242 3578 1920 3578 
Q 2598 3578 2995 3200 
Q 3392 2822 3392 2170 
L 3392 1350 
Q 3392 704 2995 323 
Q 2598 -58 1920 -58 
z
M 1920 640 
Q 2240 640 2416 816 
Q 2592 992 2592 1325 
L 2592 2195 
Q 2592 2528 2416 2704 
Q 2240 2880 1920 2880 
Q 1600 2880 1424 2704 
Q 1248 2528 1248 2195 
L 1248 1325 
Q 1248 992 1424 816 
Q 1600 640 1920 640 
z
" transform="scale(0.015625)"/>
      <path id="JetBrainsMono-Bold-72" d="M 621 0 
L 621 3520 
L 1402 3520 
L 1402 2835 
Q 1466 3181 1718 3382 
Q 1971 3584 2374 3584 
Q 2912 3584 3213 3238 
Q 3514 2893 3514 2272 
L 3514 1939 
L 2714 1939 
L 2714 2234 
Q 2714 2554 2547 2723 
Q 2381 2893 2074 2893 
Q 1754 2893 1587 2701 
Q 1421 2509 1421 2157 
L 1421 0 
L 621 0 
z
" transform="scale(0.015625)"/>
      <path id="JetBrainsMono-Bold-79" d="M 1056 -1152 
L 1555 192 
L 230 3520 
L 1075 3520 
L 1754 1722 
Q 1811 1562 1868 1373 
Q 1926 1184 1952 1024 
Q 1971 1184 2025 1373 
Q 2080 1562 2138 1722 
L 2765 3520 
L 3610 3520 
L 1894 -1152 
L 1056 -1152 
z
" transform="scale(0.015625)"/>
     </defs>
     <use xlink:href="#JetBrainsMono-Bold-52"/>
     <use xlink:href="#JetBrainsMono-Bold-61" transform="translate(59.999985 0)"/>
     <use xlink:href="#JetBrainsMono-Bold-74" transform="translate(119.999969 0)"/>
     <use xlink:href="#JetBrainsMono-Bold-69" transform="translate(179.999954 0)"/>
     <use xlink:href="#JetBrainsMono-Bold-6e" transform="translate(239.999939 0)"/>
     <use xlink:href="#JetBrainsMono-Bold-67" transform="translate(299.999924 0)"/>
     <use xlink:href="#JetBrainsMono-Bold-20" transform="translate(359.999908 0)"/>
     <use xlink:href="#JetBrainsMono-Bold-48" transform="translate(419.999893 0)"/>
     <use xlink:href="#JetBrainsMono-Bold-69" transform="translate(479.999878 0)"/>
     <use xlink:href="#JetBrainsMono-Bold-73" transform="translate(539.999863 0)"/>
     <use xlink:href="#JetBrainsMono-Bold-74" transform="translate(599.999847 0)"/>
     <use xlink:href="#JetBrainsMono-Bold-6f" transform="translate(659.999832 0)"/>
     <use xlink:href="#JetBrainsMono-Bold-72" transform="translate(719.999817 0)"/>
     <use xlink:href="#JetBrainsMono-Bold-79" transform="translate(779.999802 0)"/>
    </g>
   </g>
   <g id="line2d_19">
    <path d="M 104.3712 268.110057 
L 108.310346 264.940134 
L 112.249493 262.15969 
L 116.188639 259.752439 
L 120.127786 257.702098 
L 124.066932 255.99238 
L 128.006079 254.607002 
L 131.945225 253.529679 
L 135.884372 252.744125 
L 139.823518 252.234056 
L 143.762665 251.983187 
L 147.701811 251.975233 
L 151.640958 252.193909 
L 155.580104 252.622931 
L 159.519251 253.246014 
L 164.771446 254.350517 
L 170.023641 255.732464 
L 175.275837 257.353256 
L 181.841081 259.656314 
L 188.406325 262.196858 
L 197.597667 266.009051 
L 217.293399 274.285848 
L 223.858643 276.806036 
L 230.423888 279.081199 
L 235.676083 280.674246 
L 240.928278 282.023624 
L 246.180474 283.090732 
L 250.11962 283.682602 
L 254.058767 284.077697 
L 257.997913 284.259733 
L 261.93706 284.212424 
L 265.876206 283.919486 
L 269.815353 283.364634 
L 273.754499 282.531582 
L 277.693645 281.404047 
L 281.632792 279.965743 
L 285.571938 278.200386 
L 289.511085 276.091691 
L 293.450231 273.623372 
L 297.389378 270.779146 
L 301.328524 267.542758 
L 305.267671 263.908581 
L 309.206817 259.897032 
L 313.145964 255.532447 
L 317.08511 250.839162 
L 321.024257 245.841512 
L 326.276452 238.746586 
L 331.528647 231.211515 
L 336.780843 223.293984 
L 343.346087 212.947117 
L 351.22438 200.019661 
L 361.728771 182.235207 
L 381.424503 148.704749 
L 389.302796 135.77405 
L 395.86804 125.423455 
L 401.120235 117.502272 
L 406.372431 109.962952 
L 411.624626 102.86318 
L 415.563773 97.861505 
L 419.502919 93.163859 
L 423.442066 88.794578 
L 427.381212 84.777997 
L 431.320359 81.138452 
L 435.259505 77.90028 
L 437.885603 75.9765 
L 440.5117 74.249135 
L 443.137798 72.725394 
L 445.763896 71.412488 
L 448.389993 70.317628 
L 451.016091 69.448024 
L 453.642189 68.810887 
L 456.268286 68.413428 
L 458.894384 68.262857 
L 461.520482 68.366385 
L 464.146579 68.731222 
L 466.772677 69.364579 
L 469.398775 70.273666 
L 472.024872 71.465695 
L 474.65097 72.947875 
L 477.277068 74.727417 
L 479.903165 76.811533 
L 482.529263 79.207431 
L 485.155361 81.922324 
L 487.781458 84.963422 
L 490.407556 88.337934 
L 493.033654 92.053073 
L 495.659751 96.116047 
L 496.9728 98.280227 
L 496.9728 98.280227 
" clip-path="url(#p72be1456b8)" style="fill: none; stroke: #8b5cf6; stroke-width: 1.2; stroke-linecap: round"/>
   </g>
   <g id="PathCollection_1">
    <defs>
     <path id="m74362ef98f" d="M 0 2.236068 
C 0.593012 2.236068 1.161816 2.000462 1.581139 1.581139 
C 2.000462 1.161816 2.236068 0.593012 2.236068 0 
C 2.236068 -0.593012 2.000462 -1.161816 1.581139 -1.581139 
C 1.161816 -2.000462 0.593012 -2.236068 0 -2.236068 
C -0.593012 -2.236068 -1.161816 -2.000462 -1.581139 -1.581139 
C -2.000462 -1.161816 -2.236068 -0.593012 -2.236068 0 
C -2.236068 0.593012 -2.000462 1.161816 -1.581139 1.581139 
C -1.161816 2.000462 -0.593012 2.236068 0 2.236068 
z
" style="stroke: #ffffff; stroke-width: 0.8"/>
    </defs>
    <g clip-path="url(#p72be1456b8)">
     <use xlink:href="#m74362ef98f" x="496.9728" y="98.280227" style="fill: #8b5cf6; stroke: #ffffff; stroke-width: 0.8"/>
    </g>
   </g>
  </g>
  <g id="axes_2">
   <g id="text_13">
    <!-- Rating -->
    <g style="fill: #9b8bb8" transform="translate(565.7472 48.312) scale(0.11 -0.11)">
     <use xlink:href="#JetBrainsMono-Regular-52"/>
     <use xlink:href="#JetBrainsMono-Regular-61" transform="translate(59.999985 0)"/>
     <use xlink:href="#JetBrainsMono-Regular-74" transform="translate(119.999969 0)"/>
     <use xlink:href="#JetBrainsMono-Regular-69" transform="translate(179.999954 0)"/>
     <use xlink:href="#JetBrainsMono-Regular-6e" transform="translate(239.999939 0)"/>
     <use xlink:href="#JetBrainsMono-Regular-67" transform="translate(299.999924 0)"/>
    </g>
   </g>
   <g id="text_14">
    <!-- 216 -->
    <g style="fill: #8b5cf6" transform="translate(565.7472 81.548) scale(0.26 -0.26)">
     <use xlink:href="#JetBrainsMono-Bold-32"/>
     <use xlink:href="#JetBrainsMono-Bold-31" transform="translate(59.999985 0)"/>
     <use xlink:href="#JetBrainsMono-Bold-36" transform="translate(119.999969 0)"/>
    </g>
   </g>
   <g id="text_15">
    <!-- Rank -->
    <g style="fill: #9b8bb8" transform="translate(565.7472 119.592) scale(0.11 -0.11)">
     <defs>
      <path id="JetBrainsMono-Regular-6b" d="M 621 0 
L 621 4672 
L 1197 4672 
L 1197 2067 
L 1869 2067 
L 2854 3520 
L 3514 3520 
L 2381 1843 
L 3578 0 
L 2906 0 
L 1882 1568 
L 1197 1568 
L 1197 0 
L 621 0 
z
" transform="scale(0.015625)"/>
     </defs>
     <use xlink:href="#JetBrainsMono-Regular-52"/>
     <use xlink:href="#JetBrainsMono-Regular-61" transform="translate(59.999985 0)"/>
     <use xlink:href="#JetBrainsMono-Regular-6e" transform="translate(119.999969 0)"/>
     <use xlink:href="#JetBrainsMono-Regular-6b" transform="translate(179.999954 0)"/>
    </g>
   </g>
   <g id="text_16">
    <!-- #127,831 -->
    <g style="fill: #8b5cf6" transform="translate(565.7472 148.104) scale(0.14 -0.14)">
     <defs>
      <path id="JetBrainsMono-Bold-23" d="M 493 0 
L 710 1216 
L 224 1216 
L 224 1760 
L 800 1760 
L 998 2912 
L 448 2912 
L 448 3456 
L 1094 3456 
L 1312 4672 
L 1875 4672 
L 1658 3456 
L 2566 3456 
L 2784 4672 
L 3347 4672 
L 3130 3456 
L 3616 3456 
L 3616 2912 
L 3034 2912 
L 2835 1760 
L 3392 1760 
L 3392 1216 
L 2739 1216 
L 2528 0 
L 1965 0 
L 2182 1216 
L 1267 1216 
L 1056 0 
L 493 0 
z
M 1363 1760 
L 2272 1760 
L 2470 2912 
L 1562 2912 
L 1363 1760 
z
" transform="scale(0.015625)"/>
      <path id="JetBrainsMono-Bold-37" d="M 1011 0 
L 2720 3968 
L 1229 3968 
L 1229 3206 
L 429 3206 
L 429 4672 
L 3584 4672 
L 3584 3968 
L 1888 0 
L 1011 0 
z
" transform="scale(0.015625)"/>
      <path id="JetBrainsMono-Bold-2c" d="M 1216 -1024 
L 1555 934 
L 2470 934 
L 1984 -1024 
L 1216 -1024 
z
" transform="scale(0.015625)"/>
      <path id="JetBrainsMono-Bold-38" d="M 1920 -64 
Q 1453 -64 1094 112 
Q 736 288 537 598 
Q 339 909 339 1318 
Q 339 1747 585 2067 
Q 832 2387 1229 2470 
L 1229 2483 
Q 890 2554 682 2829 
Q 474 3104 474 3482 
Q 474 3853 656 4134 
Q 838 4416 1164 4576 
Q 1491 4736 1920 4736 
Q 2349 4736 2678 4576 
Q 3008 4416 3190 4134 
Q 3373 3853 3373 3482 
Q 3373 3104 3161 2829 
Q 2950 2554 2611 2483 
L 2611 2470 
Q 3008 2387 3254 2067 
Q 3501 1747 3501 1318 
Q 3501 909 3302 598 
Q 3104 288 2745 112 
Q 2387 -64 1920 -64 
z
M 1920 2758 
Q 2221 2758 2406 2940 
Q 2592 3123 2592 3411 
Q 2592 3706 2406 3888 
Q 2221 4070 1920 4070 
Q 1619 4070 1433 3888 
Q 1248 3706 1248 3411 
Q 1248 3123 1433 2940 
Q 1619 2758 1920 2758 
z
M 1920 614 
Q 2272 614 2496 819 
Q 2720 1024 2720 1357 
Q 2720 1696 2496 1904 
Q 2272 2112 1920 2112 
Q 1568 2112 1344 1904 
Q 1120 1696 1120 1357 
Q 1120 1024 1344 819 
Q 1568 614 1920 614 
z
" transform="scale(0.015625)"/>
      <path id="JetBrainsMono-Bold-33" d="M 1875 -64 
Q 1184 -64 781 297 
Q 378 659 378 1280 
L 1184 1280 
Q 1184 986 1369 810 
Q 1555 634 1882 634 
Q 2202 634 2387 810 
Q 2573 986 2573 1280 
L 2573 1632 
Q 2573 1946 2390 2122 
Q 2208 2298 1882 2298 
L 1293 2298 
L 1293 2938 
L 2368 3968 
L 544 3968 
L 544 4672 
L 3245 4672 
L 3245 3994 
L 2170 2963 
Q 2733 2886 3056 2537 
Q 3379 2189 3379 1632 
L 3379 1280 
Q 3379 659 2972 297 
Q 2566 -64 1875 -64 
z
" transform="scale(0.015625)"/>
     </defs>
     <use xlink:href="#JetBrainsMono-Bold-23"/>
     <use xlink:href="#JetBrainsMono-Bold-31" transform="translate(59.999985 0)"/>
     <use xlink:href="#JetBrainsMono-Bold-32" transform="translate(119.999969 0)"/>
     <use xlink:href="#JetBrainsMono-Bold-37" transform="translate(179.999954 0)"/>
     <use xlink:href="#JetBrainsMono-Bold-2c" transform="translate(239.999939 0)"/>
     <use xlink:href="#JetBrainsMono-Bold-38" transform="translate(299.999924 0)"/>
     <use xlink:href="#JetBrainsMono-Bold-33" transform="translate(359.999908 0)"/>
     <use xlink:href="#JetBrainsMono-Bold-31" transform="translate(419.999893 0)"/>
    </g>
   </g>
   <g id="text_17">
    <!-- ▲ +2 -->
    <g style="fill: #4caf50" transform="translate(565.7472 169.488) scale(0.11 -0.11)">
     <defs>
      <path id="JetBrainsMono-Bold-25b2" d="M -64 384 
L 1920 4288 
L 3904 384 
L -64 384 
z
" transform="scale(0.015625)"/>
      <path id="JetBrainsMono-Bold-2b" d="M 1523 589 
L 1523 1741 
L 378 1741 
L 378 2483 
L 1523 2483 
L 1523 3635 
L 2317 3635 
L 2317 2483 
L 3462 2483 
L 3462 1741 
L 2317 1741 
L 2317 589 
L 1523 589 
z
" transform="scale(0.015625)"/>
     </defs>
     <use xlink:href="#JetBrainsMono-Bold-25b2"/>
     <use xlink:href="#JetBrainsMono-Bold-20" transform="translate(59.999985 0)"/>
     <use xlink:href="#JetBrainsMono-Bold-2b" transform="translate(119.999969 0)"/>
     <use xlink:href="#JetBrainsMono-Bold-32" transform="translate(179.999954 0)"/>
    </g>
   </g>
  </g>
 </g>
 <defs>
  <clipPath id="p72be1456b8">
   <rect x="55.296" y="55.44" width="490.752" height="269.28"/>
  </clipPath>
 </defs>
</svg>
