<?xml version="1.0" encoding="utf-8" standalone="no"?>
<!DOCTYPE svg PUBLIC "-//W3C//DTD SVG 1.1//EN"
  "http://www.w3.org/Graphics/SVG/1.1/DTD/svg11.dtd">
<svg xmlns:xlink="http://www.w3.org/1999/xlink" width="691.2pt" height="396pt" viewBox="0 0 691.2 396" xmlns="http://www.w3.org/2000/svg" version="1.1">
 <metadata>
  <rdf:RDF xmlns:dc="http://purl.org/dc/elements/1.1/" xmlns:cc="http://creativecommons.org/ns#" xmlns:rdf="http://www.w3.org/1999/02/22-rdf-syntax-ns#">
   <cc:Work>
    <dc:type rdf:resource="http://purl.org/dc/dcmitype/StillImage"/>
    <dc:date>2026-05-04T16:25:18.776205</dc:date>
    <dc:format>image/svg+xml</dc:format>
    <dc:creator>
     <cc:Agent>
      <dc:title>Matplotlib v3.10.9, https://matplotlib.org/</dc:title>
     </cc:Agent>
    </dc:creator>
   </cc:Work>
  </rdf:RDF>
 </metadata>
 <defs>
  <style type="text/css">*{stroke-linejoin: round; stroke-linecap: butt}</style>
 </defs>
 <g id="figure_1">
  <g id="patch_1">
   <path d="M 0 396 
L 691.2 396 
L 691.2 0 
L 0 0 
L 0 396 
z
" style="fill: none"/>
  </g>
  <g id="axes_1">
   <g id="patch_2">
    <path d="M 55.296 324.72 
L 546.048 324.72 
L 546.048 55.44 
L 55.296 55.44 
L 55.296 324.72 
z
" style="fill: none"/>
   </g>
   <g id="matplotlib.axis_1">
    <g id="xtick_1">
     <g id="line2d_1">
      <path d="M 63.4752 324.72 
L 63.4752 55.44 
" clip-path="url(#pe87595991e)" style="fill: none; stroke-dasharray: 2.22,0.96; stroke-dashoffset: 0; stroke: #e2d5f5; stroke-opacity: 0.7; stroke-width: 0.6"/>
     </g>
     <g id="line2d_2">
      <defs>
       <path id="mfc7f7e58f8" d="M 0 0 
L 0 3.5 
" style="stroke: #9b8bb8; stroke-width: 0.8"/>
      </defs>
      <g>
       <use xlink:href="#mfc7f7e58f8" x="63.4752" y="324.72" style="fill: #9b8bb8; stroke: #9b8bb8; stroke-width: 0.8"/>
      </g>
     </g>
     <g id="text_1">
      <!-- 04/05 -->
      <g style="fill: #9b8bb8" transform="translate(51.934819 353.301793) rotate(-30) scale(0.1 -0.1)">
       <defs>
        <path id="JetBrainsMono-Regular-30" d="M 1920 -64 
Q 1274 -64 893 310 
Q 512 685 512 1312 
L 512 3360 
Q 512 3987 893 4361 
Q 1274 4736 1920 4736 
Q 2566 4736 2947 4361 
Q 3328 3987 3328 3360 
L 3328 1312 
Q 3328 896 3155 585 
Q 2982 275 2665 105 
Q 2349 -64 1920 -64 
z
M 1920 429 
Q 2304 429 2537 675 
Q 2771 922 2771 1312 
L 2771 3360 
Q 2771 3750 2537 3996 
Q 2304 4243 1920 4243 
Q 1536 4243 1302 3996 
Q 1069 3750 1069 3360 
L 1069 1312 
Q 1069 922 1302 675 
Q 1536 429 1920 429 
z
M 1920 1984 
Q 1747 1984 1641 2080 
Q 1536 2176 1536 2355 
Q 1536 2528 1641 2621 
Q 1747 2714 1920 2714 
Q 2093 2714 2198 2621 
Q 2304 2528 2304 2355 
Q 2304 2176 2198 2080 
Q 2093 1984 1920 1984 
z
" transform="scale(0.015625)"/>
        <path id="JetBrainsMono-Regular-34" d="M 2560 0 
L 2560 1024 
L 448 1024 
L 448 1926 
L 2150 4672 
L 2803 4672 
L 1024 1798 
L 1024 1549 
L 2560 1549 
L 2560 2688 
L 3136 2688 
L 3136 0 
L 2560 0 
z
" transform="scale(0.015625)"/>
        <path id="JetBrainsMono-Regular-2f" d="M 480 -704 
L 2752 5312 
L 3360 5312 
L 1088 -704 
L 480 -704 
z
" transform="scale(0.015625)"/>
        <path id="JetBrainsMono-Regular-35" d="M 1882 -64 
Q 1235 -64 857 297 
Q 480 659 480 1280 
L 1056 1280 
Q 1056 896 1280 672 
Q 1504 448 1888 448 
Q 2272 448 2496 672 
Q 2720 896 2720 1280 
L 2720 1568 
Q 2720 1952 2502 2176 
Q 2285 2400 1914 2400 
L 640 2400 
L 640 4672 
L 3130 4672 
L 3130 4147 
L 1178 4147 
L 1190 2925 
L 1946 2925 
Q 2592 2925 2944 2569 
Q 3296 2214 3296 1568 
L 3296 1280 
Q 3296 659 2915 297 
Q 2534 -64 1882 -64 
z
" transform="scale(0.015625)"/>
       </defs>
       <use xlink:href="#JetBrainsMono-Regular-30"/>
       <use xlink:href="#JetBrainsMono-Regular-34" transform="translate(59.999985 0)"/>
       <use xlink:href="#JetBrainsMono-Regular-2f" transform="translate(119.999969 0)"/>
       <use xlink:href="#JetBrainsMono-Regular-30" transform="translate(179.999954 0)"/>
       <use xlink:href="#JetBrainsMono-Regular-35" transform="translate(239.999939 0)"/>
      </g>
     </g>
    </g>
    <g id="xtick_2">
     <g id="line2d_3">
      <path d="M 128.9088 324.72 
L 128.9088 55.44 
" clip-path="url(#pe87595991e)" style="fill: none; stroke-dasharray: 2.22,0.96; stroke-dashoffset: 0; stroke: #e2d5f5; stroke-opacity: 0.7; stroke-width: 0.6"/>
     </g>
     <g id="line2d_4">
      <g>
       <use xlink:href="#mfc7f7e58f8" x="128.9088" y="324.72" style="fill: #9b8bb8; stroke: #9b8bb8; stroke-width: 0.8"/>
      </g>
     </g>
     <g id="text_2">
      <!-- 04/09 -->
      <g style="fill: #9b8bb8" transform="translate(117.368419 353.301793) rotate(-30) scale(0.1 -0.1)">
       <defs>
        <path id="JetBrainsMono-Regular-39" d="M 1248 0 
L 2400 2003 
L 2381 2016 
Q 2317 1914 2144 1853 
Q 1971 1792 1766 1792 
Q 1363 1792 1059 1974 
Q 755 2157 582 2477 
Q 410 2797 410 3219 
Q 410 3674 602 4013 
Q 794 4352 1133 4544 
Q 1472 4736 1914 4736 
Q 2368 4736 2707 4547 
Q 3046 4358 3238 4022 
Q 3430 3686 3430 3245 
Q 3430 2938 3315 2614 
Q 3200 2291 3002 1939 
L 1920 0 
L 1248 0 
z
M 1920 2240 
Q 2336 2240 2595 2515 
Q 2854 2790 2854 3232 
Q 2854 3674 2595 3949 
Q 2336 4224 1920 4224 
Q 1504 4224 1245 3949 
Q 986 3674 986 3232 
Q 986 2790 1245 2515 
Q 1504 2240 1920 2240 
z
" transform="scale(0.015625)"/>
       </defs>
       <use xlink:href="#JetBrainsMono-Regular-30"/>
       <use xlink:href="#JetBrainsMono-Regular-34" transform="translate(59.999985 0)"/>
       <use xlink:href="#JetBrainsMono-Regular-2f" transform="translate(119.999969 0)"/>
       <use xlink:href="#JetBrainsMono-Regular-30" transform="translate(179.999954 0)"/>
       <use xlink:href="#JetBrainsMono-Regular-39" transform="translate(239.999939 0)"/>
      </g>
     </g>
    </g>
    <g id="xtick_3">
     <g id="line2d_5">
      <path d="M 194.3424 324.72 
L 194.3424 55.44 
" clip-path="url(#pe87595991e)" style="fill: none; stroke-dasharray: 2.22,0.96; stroke-dashoffset: 0; stroke: #e2d5f5; stroke-opacity: 0.7; stroke-width: 0.6"/>
     </g>
     <g id="line2d_6">
      <g>
       <use xlink:href="#mfc7f7e58f8" x="194.3424" y="324.72" style="fill: #9b8bb8; stroke: #9b8bb8; stroke-width: 0.8"/>
      </g>
     </g>
     <g id="text_3">
      <!-- 04/13 -->
      <g style="fill: #9b8bb8" transform="translate(182.802019 353.301793) rotate(-30) scale(0.1 -0.1)">
       <defs>
        <path id="JetBrainsMono-Regular-31" d="M 576 0 
L 576 525 
L 1843 525 
L 1843 4173 
L 576 3226 
L 576 3885 
L 1632 4672 
L 2419 4672 
L 2419 525 
L 3456 525 
L 3456 0 
L 576 0 
z
" transform="scale(0.015625)"/>
        <path id="JetBrainsMono-Regular-33" d="M 1850 -64 
Q 1203 -64 825 297 
Q 448 659 448 1280 
L 1024 1280 
Q 1024 896 1248 672 
Q 1472 448 1856 448 
Q 2240 448 2464 672 
Q 2688 896 2688 1280 
L 2688 1600 
Q 2688 1984 2464 2208 
Q 2240 2432 1856 2432 
L 1350 2432 
L 1350 2931 
L 2496 4147 
L 576 4147 
L 576 4672 
L 3149 4672 
L 3149 4134 
L 2022 2938 
Q 2598 2893 2931 2537 
Q 3264 2182 3264 1600 
L 3264 1280 
Q 3264 659 2883 297 
Q 2502 -64 1850 -64 
z
" transform="scale(0.015625)"/>
       </defs>
       <use xlink:href="#JetBrainsMono-Regular-30"/>
       <use xlink:href="#JetBrainsMono-Regular-34" transform="translate(59.999985 0)"/>
       <use xlink:href="#JetBrainsMono-Regular-2f" transform="translate(119.999969 0)"/>
       <use xlink:href="#JetBrainsMono-Regular-31" transform="translate(179.999954 0)"/>
       <use xlink:href="#JetBrainsMono-Regular-33" transform="translate(239.999939 0)"/>
      </g>
     </g>
    </g>
    <g id="xtick_4">
     <g id="line2d_7">
      <path d="M 259.776 324.72 
L 259.776 55.44 
" clip-path="url(#pe87595991e)" style="fill: none; stroke-dasharray: 2.22,0.96; stroke-dashoffset: 0; stroke: #e2d5f5; stroke-opacity: 0.7; stroke-width: 0.6"/>
     </g>
     <g id="line2d_8">
      <g>
       <use xlink:href="#mfc7f7e58f8" x="259.776" y="324.72" style="fill: #9b8bb8; stroke: #9b8bb8; stroke-width: 0.8"/>
      </g>
     </g>
     <g id="text_4">
      <!-- 04/17 -->
      <g style="fill: #9b8bb8" transform="translate(248.235619 353.301793) rotate(-30) scale(0.1 -0.1)">
       <defs>
        <path id="JetBrainsMono-Regular-37" d="M 1216 0 
L 2880 4147 
L 1101 4147 
L 1101 3392 
L 525 3392 
L 525 4672 
L 3494 4672 
L 3494 4134 
L 1843 0 
L 1216 0 
z
" transform="scale(0.015625)"/>
       </defs>
       <use xlink:href="#JetBrainsMono-Regular-30"/>
       <use xlink:href="#JetBrainsMono-Regular-34" transform="translate(59.999985 0)"/>
       <use xlink:href="#JetBrainsMono-Regular-2f" transform="translate(119.999969 0)"/>
       <use xlink:href="#JetBrainsMono-Regular-31" transform="translate(179.999954 0)"/>
       <use xlink:href="#JetBrainsMono-Regular-37" transform="translate(239.999939 0)"/>
      </g>
     </g>
    </g>
    <g id="xtick_5">
     <g id="line2d_9">
      <path d="M 325.2096 324.72 
L 325.2096 55.44 
" clip-path="url(#pe87595991e)" style="fill: none; stroke-dasharray: 2.22,0.96; stroke-dashoffset: 0; stroke: #e2d5f5; stroke-opacity: 0.7; stroke-width: 0.6"/>
     </g>
     <g id="line2d_10">
      <g>
       <use xlink:href="#mfc7f7e58f8" x="325.2096" y="324.72" style="fill: #9b8bb8; stroke: #9b8bb8; stroke-width: 0.8"/>
      </g>
     </g>
     <g id="text_5">
      <!-- 04/21 -->
      <g style="fill: #9b8bb8" transform="translate(313.669219 353.301793) rotate(-30) scale(0.1 -0.1)">
       <defs>
        <path id="JetBrainsMono-Regular-32" d="M 550 0 
L 550 531 
L 2106 2195 
Q 2445 2554 2585 2835 
Q 2726 3117 2726 3386 
Q 2726 3770 2505 3997 
Q 2285 4224 1907 4224 
Q 1517 4224 1289 3990 
Q 1062 3757 1062 3360 
L 486 3360 
Q 506 3994 890 4365 
Q 1274 4736 1907 4736 
Q 2554 4736 2934 4371 
Q 3315 4006 3315 3379 
Q 3315 3046 3132 2675 
Q 2950 2304 2509 1843 
L 1248 525 
L 3373 525 
L 3373 0 
L 550 0 
z
" transform="scale(0.015625)"/>
       </defs>
       <use xlink:href="#JetBrainsMono-Regular-30"/>
       <use xlink:href="#JetBrainsMono-Regular-34" transform="translate(59.999985 0)"/>
       <use xlink:href="#JetBrainsMono-Regular-2f" transform="translate(119.999969 0)"/>
       <use xlink:href="#JetBrainsMono-Regular-32" transform="translate(179.999954 0)"/>
       <use xlink:href="#JetBrainsMono-Regular-31" transform="translate(239.999939 0)"/>
      </g>
     </g>
    </g>
    <g id="xtick_6">
     <g id="line2d_11">
      <path d="M 390.6432 324.72 
L 390.6432 55.44 
" clip-path="url(#pe87595991e)" style="fill: none; stroke-dasharray: 2.22,0.96; stroke-dashoffset: 0; stroke: #e2d5f5; stroke-opacity: 0.7; stroke-width: 0.6"/>
     </g>
     <g id="line2d_12">
      <g>
       <use xlink:href="#mfc7f7e58f8" x="390.6432" y="324.72" style="fill: #9b8bb8; stroke: #9b8bb8; stroke-width: 0.8"/>
      </g>
     </g>
     <g id="text_6">
      <!-- 04/25 -->
      <g style="fill: #9b8bb8" transform="translate(379.102819 353.301793) rotate(-30) scale(0.1 -0.1)">
       <use xlink:href="#JetBrainsMono-Regular-30"/>
       <use xlink:href="#JetBrainsMono-Regular-34" transform="translate(59.999985 0)"/>
       <use xlink:href="#JetBrainsMono-Regular-2f" transform="translate(119.999969 0)"/>
       <use xlink:href="#JetBrainsMono-Regular-32" transform="translate(179.999954 0)"/>
       <use xlink:href="#JetBrainsMono-Regular-35" transform="translate(239.999939 0)"/>
      </g>
     </g>
    </g>
    <g id="xtick_7">
     <g id="line2d_13">
      <path d="M 456.0768 324.72 
L 456.0768 55.44 
" clip-path="url(#pe87595991e)" style="fill: none; stroke-dasharray: 2.22,0.96; stroke-dashoffset: 0; stroke: #e2d5f5; stroke-opacity: 0.7; stroke-width: 0.6"/>
     </g>
     <g id="line2d_14">
      <g>
       <use xlink:href="#mfc7f7e58f8" x="456.0768" y="324.72" style="fill: #9b8bb8; stroke: #9b8bb8; stroke-width: 0.8"/>
      </g>
     </g>
     <g id="text_7">
      <!-- 04/29 -->
      <g style="fill: #9b8bb8" transform="translate(444.536419 353.301793) rotate(-30) scale(0.1 -0.1)">
       <use xlink:href="#JetBrainsMono-Regular-30"/>
       <use xlink:href="#JetBrainsMono-Regular-34" transform="translate(59.999985 0)"/>
       <use xlink:href="#JetBrainsMono-Regular-2f" transform="translate(119.999969 0)"/>
       <use xlink:href="#JetBrainsMono-Regular-32" transform="translate(179.999954 0)"/>
       <use xlink:href="#JetBrainsMono-Regular-39" transform="translate(239.999939 0)"/>
      </g>
     </g>
    </g>
    <g id="xtick_8">
     <g id="line2d_15">
      <path d="M 521.5104 324.72 
L 521.5104 55.44 
" clip-path="url(#pe87595991e)" style="fill: none; stroke-dasharray: 2.22,0.96; stroke-dashoffset: 0; stroke: #e2d5f5; stroke-opacity: 0.7; stroke-width: 0.6"/>
     </g>
     <g id="line2d_16">
      <g>
       <use xlink:href="#mfc7f7e58f8" x="521.5104" y="324.72" style="fill: #9b8bb8; stroke: #9b8bb8; stroke-width: 0.8"/>
      </g>
     </g>
     <g id="text_8">
      <!-- 05/03 -->
      <g style="fill: #9b8bb8" transform="translate(509.970019 353.301793) rotate(-30) scale(0.1 -0.1)">
       <use xlink:href="#JetBrainsMono-Regular-30"/>
       <use xlink:href="#JetBrainsMono-Regular-35" transform="translate(59.999985 0)"/>
       <use xlink:href="#JetBrainsMono-Regular-2f" transform="translate(119.999969 0)"/>
       <use xlink:href="#JetBrainsMono-Regular-30" transform="translate(179.999954 0)"/>
       <use xlink:href="#JetBrainsMono-Regular-33" transform="translate(239.999939 0)"/>
      </g>
     </g>
    </g>
   </g>
   <g id="matplotlib.axis_2">
    <g id="ytick_1">
     <g id="line2d_17">
      <path d="M 55.296 299.399662 
L 546.048 299.399662 
" clip-path="url(#pe87595991e)" style="fill: none; stroke-dasharray: 2.22,0.96; stroke-dashoffset: 0; stroke: #e2d5f5; stroke-opacity: 0.7; stroke-width: 0.6"/>
     </g>
     <g id="line2d_18">
      <defs>
       <path id="m56105b91d8" d="M 0 0 
L -3.5 0 
" style="stroke: #9b8bb8; stroke-width: 0.8"/>
      </defs>
      <g>
       <use xlink:href="#m56105b91d8" x="55.296" y="299.399662" style="fill: #9b8bb8; stroke: #9b8bb8; stroke-width: 0.8"/>
      </g>
     </g>
     <g id="text_9">
      <!-- 220 -->
      <g style="fill: #9b8bb8" transform="translate(30.296 303.049662) scale(0.1 -0.1)">
       <use xlink:href="#JetBrainsMono-Regular-32"/>
       <use xlink:href="#JetBrainsMono-Regular-32" transform="translate(59.999985 0)"/>
       <use xlink:href="#JetBrainsMono-Regular-30" transform="translate(119.999969 0)"/>
      </g>
     </g>
    </g>
    <g id="ytick_2">
     <g id="line2d_19">
      <path d="M 55.296 248.758987 
L 546.048 248.758987 
" clip-path="url(#pe87595991e)" style="fill: none; stroke-dasharray: 2.22,0.96; stroke-dashoffset: 0; stroke: #e2d5f5; stroke-opacity: 0.7; stroke-width: 0.6"/>
     </g>
     <g id="line2d_20">
      <g>
       <use xlink:href="#m56105b91d8" x="55.296" y="248.758987" style="fill: #9b8bb8; stroke: #9b8bb8; stroke-width: 0.8"/>
      </g>
     </g>
     <g id="text_10">
      <!-- 230 -->
      <g style="fill: #9b8bb8" transform="translate(30.296 252.408987) scale(0.1 -0.1)">
       <use xlink:href="#JetBrainsMono-Regular-32"/>
       <use xlink:href="#JetBrainsMono-Regular-33" transform="translate(59.999985 0)"/>
       <use xlink:href="#JetBrainsMono-Regular-30" transform="translate(119.999969 0)"/>
      </g>
     </g>
    </g>
    <g id="ytick_3">
     <g id="line2d_21">
      <path d="M 55.296 198.118312 
L 546.048 198.118312 
" clip-path="url(#pe87595991e)" style="fill: none; stroke-dasharray: 2.22,0.96; stroke-dashoffset: 0; stroke: #e2d5f5; stroke-opacity: 0.7; stroke-width: 0.6"/>
     </g>
     <g id="line2d_22">
      <g>
       <use xlink:href="#m56105b91d8" x="55.296" y="198.118312" style="fill: #9b8bb8; stroke: #9b8bb8; stroke-width: 0.8"/>
      </g>
     </g>
     <g id="text_11">
      <!-- 240 -->
      <g style="fill: #9b8bb8" transform="translate(30.296 201.768312) scale(0.1 -0.1)">
       <use xlink:href="#JetBrainsMono-Regular-32"/>
       <use xlink:href="#JetBrainsMono-Regular-34" transform="translate(59.999985 0)"/>
       <use xlink:href="#JetBrainsMono-Regular-30" transform="translate(119.999969 0)"/>
      </g>
     </g>
    </g>
    <g id="ytick_4">
     <g id="line2d_23">
      <path d="M 55.296 147.477636 
L 546.048 147.477636 
" clip-path="url(#pe87595991e)" style="fill: none; stroke-dasharray: 2.22,0.96; stroke-dashoffset: 0; stroke: #e2d5f5; stroke-opacity: 0.7; stroke-width: 0.6"/>
     </g>
     <g id="line2d_24">
      <g>
       <use xlink:href="#m56105b91d8" x="55.296" y="147.477636" style="fill: #9b8bb8; stroke: #9b8bb8; stroke-width: 0.8"/>
      </g>
     </g>
     <g id="text_12">
      <!-- 250 -->
      <g style="fill: #9b8bb8" transform="translate(30.296 151.127636) scale(0.1 -0.1)">
       <use xlink:href="#JetBrainsMono-Regular-32"/>
       <use xlink:href="#JetBrainsMono-Regular-35" transform="translate(59.999985 0)"/>
       <use xlink:href="#JetBrainsMono-Regular-30" transform="translate(119.999969 0)"/>
      </g>
     </g>
    </g>
    <g id="ytick_5">
     <g id="line2d_25">
      <path d="M 55.296 96.836961 
L 546.048 96.836961 
" clip-path="url(#pe87595991e)" style="fill: none; stroke-dasharray: 2.22,0.96; stroke-dashoffset: 0; stroke: #e2d5f5; stroke-opacity: 0.7; stroke-width: 0.6"/>
     </g>
     <g id="line2d_26">
      <g>
       <use xlink:href="#m56105b91d8" x="55.296" y="96.836961" style="fill: #9b8bb8; stroke: #9b8bb8; stroke-width: 0.8"/>
      </g>
     </g>
     <g id="text_13">
      <!-- 260 -->
      <g style="fill: #9b8bb8" transform="translate(30.296 100.486961) scale(0.1 -0.1)">
       <defs>
        <path id="JetBrainsMono-Regular-36" d="M 1926 -64 
Q 1478 -64 1136 125 
Q 794 314 602 650 
Q 410 986 410 1427 
Q 410 1734 525 2057 
Q 640 2381 838 2733 
L 1920 4672 
L 2560 4672 
L 1408 2669 
L 1427 2656 
Q 1510 2765 1676 2822 
Q 1843 2880 2042 2880 
Q 2458 2880 2768 2697 
Q 3078 2515 3254 2195 
Q 3430 1875 3430 1453 
Q 3430 1005 3238 662 
Q 3046 320 2710 128 
Q 2374 -64 1926 -64 
z
M 1920 448 
Q 2336 448 2595 723 
Q 2854 998 2854 1440 
Q 2854 1882 2595 2157 
Q 2336 2432 1920 2432 
Q 1504 2432 1245 2157 
Q 986 1882 986 1440 
Q 986 998 1245 723 
Q 1504 448 1920 448 
z
" transform="scale(0.015625)"/>
       </defs>
       <use xlink:href="#JetBrainsMono-Regular-32"/>
       <use xlink:href="#JetBrainsMono-Regular-36" transform="translate(59.999985 0)"/>
       <use xlink:href="#JetBrainsMono-Regular-30" transform="translate(119.999969 0)"/>
      </g>
     </g>
    </g>
    <g id="text_14">
     <!-- Rating -->
     <g style="fill: #9b8bb8" transform="translate(24.496 208.08) rotate(-90) scale(0.1 -0.1)">
      <defs>
       <path id="JetBrainsMono-Regular-52" d="M 595 0 
L 595 4672 
L 2035 4672 
Q 2451 4672 2764 4502 
Q 3078 4333 3251 4032 
Q 3424 3731 3424 3328 
Q 3424 2854 3181 2515 
Q 2938 2176 2534 2042 
L 3488 0 
L 2854 0 
L 1939 1984 
L 1165 1984 
L 1165 0 
L 595 0 
z
M 1165 2502 
L 2035 2502 
Q 2394 2502 2611 2729 
Q 2829 2957 2829 3328 
Q 2829 3706 2611 3930 
Q 2394 4154 2035 4154 
L 1165 4154 
L 1165 2502 
z
" transform="scale(0.015625)"/>
       <path id="JetBrainsMono-Regular-61" d="M 1613 -64 
Q 1069 -64 749 240 
Q 429 544 429 1037 
Q 429 1363 576 1606 
Q 723 1850 985 1987 
Q 1248 2125 1587 2125 
L 2675 2125 
L 2675 2400 
Q 2675 3085 1926 3085 
Q 1594 3085 1389 2963 
Q 1184 2842 1171 2624 
L 595 2624 
Q 627 3040 982 3312 
Q 1338 3584 1926 3584 
Q 2566 3584 2908 3277 
Q 3251 2970 3251 2419 
L 3251 0 
L 2682 0 
L 2682 640 
L 2669 640 
Q 2618 314 2342 125 
Q 2067 -64 1613 -64 
z
M 1754 422 
Q 2176 422 2425 627 
Q 2675 832 2675 1184 
L 2675 1677 
L 1651 1677 
Q 1370 1677 1194 1507 
Q 1018 1338 1018 1056 
Q 1018 762 1213 592 
Q 1408 422 1754 422 
z
" transform="scale(0.015625)"/>
       <path id="JetBrainsMono-Regular-74" d="M 2272 0 
Q 1837 0 1574 253 
Q 1312 506 1312 928 
L 1312 2995 
L 301 2995 
L 301 3520 
L 1312 3520 
L 1312 4512 
L 1888 4512 
L 1888 3520 
L 3328 3520 
L 3328 2995 
L 1888 2995 
L 1888 928 
Q 1888 749 1993 637 
Q 2099 525 2272 525 
L 3296 525 
L 3296 0 
L 2272 0 
z
" transform="scale(0.015625)"/>
       <path id="JetBrainsMono-Regular-69" d="M 544 0 
L 544 525 
L 1792 525 
L 1792 2995 
L 672 2995 
L 672 3520 
L 2368 3520 
L 2368 525 
L 3552 525 
L 3552 0 
L 544 0 
z
M 2016 4154 
Q 1805 4154 1683 4262 
Q 1562 4371 1562 4557 
Q 1562 4749 1683 4861 
Q 1805 4973 2016 4973 
Q 2227 4973 2348 4861 
Q 2470 4749 2470 4557 
Q 2470 4371 2348 4262 
Q 2227 4154 2016 4154 
z
" transform="scale(0.015625)"/>
       <path id="JetBrainsMono-Regular-6e" d="M 589 0 
L 589 3520 
L 1165 3520 
L 1165 2848 
L 1171 2848 
Q 1216 3200 1459 3392 
Q 1702 3584 2106 3584 
Q 2637 3584 2950 3257 
Q 3264 2931 3264 2368 
L 3264 0 
L 2688 0 
L 2688 2266 
Q 2688 2669 2486 2883 
Q 2285 3098 1939 3098 
Q 1581 3098 1373 2874 
Q 1165 2650 1165 2240 
L 1165 0 
L 589 0 
z
" transform="scale(0.015625)"/>
       <path id="JetBrainsMono-Regular-67" d="M 1030 -1152 
L 1030 -627 
L 2022 -627 
Q 2323 -627 2496 -457 
Q 2669 -288 2669 0 
L 2669 320 
L 2682 896 
L 2662 896 
Q 2611 582 2361 412 
Q 2112 243 1734 243 
Q 1190 243 876 588 
Q 563 934 563 1536 
L 563 2278 
Q 563 2880 876 3232 
Q 1190 3584 1734 3584 
Q 2112 3584 2361 3405 
Q 2611 3226 2662 2912 
L 2675 2912 
L 2675 3520 
L 3245 3520 
L 3245 0 
Q 3245 -531 2915 -841 
Q 2586 -1152 2016 -1152 
L 1030 -1152 
z
M 1907 723 
Q 2266 723 2470 947 
Q 2675 1171 2675 1568 
L 2675 2240 
Q 2675 2637 2470 2861 
Q 2266 3085 1907 3085 
Q 1542 3085 1340 2873 
Q 1139 2662 1139 2304 
L 1139 1504 
Q 1139 1146 1340 934 
Q 1542 723 1907 723 
z
" transform="scale(0.015625)"/>
      </defs>
      <use xlink:href="#JetBrainsMono-Regular-52"/>
      <use xlink:href="#JetBrainsMono-Regular-61" transform="translate(59.999985 0)"/>
      <use xlink:href="#JetBrainsMono-Regular-74" transform="translate(119.999969 0)"/>
      <use xlink:href="#JetBrainsMono-Regular-69" transform="translate(179.999954 0)"/>
      <use xlink:href="#JetBrainsMono-Regular-6e" transform="translate(239.999939 0)"/>
      <use xlink:href="#JetBrainsMono-Regular-67" transform="translate(299.999924 0)"/>
     </g>
    </g>
   </g>
   <g id="patch_3">
    <path d="M 55.296 324.72 
L 55.296 55.44 
" style="fill: none; stroke: #d8c8ef; stroke-width: 0.8; stroke-linejoin: miter; stroke-linecap: square"/>
   </g>
   <g id="patch_4">
    <path d="M 55.296 324.72 
L 546.048 324.72 
" style="fill: none; stroke: #d8c8ef; stroke-width: 0.8; stroke-linejoin: miter; stroke-linecap: square"/>
   </g>
   <g id="FillBetweenPolyCollection_1">
    <defs>
     <path id="m00e8f61d6c" d="M 63.4752 -71.28 
L 63.4752 -96.600338 
L 65.061801 -99.215394 
L 66.648401 -101.441005 
L 68.235002 -103.329235 
L 69.821603 -104.932146 
L 71.408203 -106.301801 
L 72.994804 -107.490261 
L 74.581405 -108.54959 
L 76.168005 -109.531849 
L 77.754606 -110.489102 
L 79.341207 -111.473411 
L 80.927807 -112.536839 
L 82.514408 -113.731448 
L 84.101009 -115.1093 
L 85.687609 -116.722459 
L 87.27421 -118.622986 
L 88.860811 -120.862945 
L 90.447411 -123.494397 
L 92.034012 -126.569406 
L 93.620613 -130.140033 
L 95.207213 -134.258342 
L 96.793814 -138.974562 
L 98.380415 -144.258133 
L 99.967015 -149.967662 
L 101.553616 -155.953726 
L 103.140217 -162.066902 
L 104.726817 -168.157767 
L 106.313418 -174.076898 
L 107.900019 -179.674871 
L 109.486619 -184.802265 
L 111.07322 -189.309656 
L 112.659821 -193.047637 
L 114.246421 -195.923581 
L 115.833022 -198.029726 
L 117.419623 -199.495864 
L 119.006223 -200.451789 
L 120.592824 -201.027294 
L 122.179425 -201.352171 
L 123.766025 -201.556213 
L 125.352626 -201.769215 
L 126.939227 -202.120968 
L 128.525827 -202.741266 
L 130.112428 -203.745743 
L 131.699029 -205.130269 
L 133.285629 -206.8305 
L 134.87223 -208.781633 
L 136.458831 -210.918864 
L 138.045431 -213.177392 
L 139.632032 -215.492413 
L 141.218633 -217.799126 
L 142.805233 -220.032727 
L 144.391834 -222.128415 
L 145.978435 -224.023053 
L 147.565035 -225.703063 
L 149.151636 -227.211586 
L 150.738237 -228.594872 
L 152.324837 -229.899171 
L 153.911438 -231.170734 
L 155.498039 -232.455809 
L 157.084639 -233.800647 
L 158.67124 -235.251498 
L 160.257841 -236.854611 
L 161.844441 -238.656201 
L 163.431042 -240.682175 
L 165.017643 -242.904394 
L 166.604243 -245.285829 
L 168.190844 -247.789451 
L 169.777445 -250.378227 
L 171.364045 -253.01513 
L 172.950646 -255.663129 
L 174.537247 -258.285193 
L 176.123847 -260.844293 
L 177.710448 -263.303399 
L 179.297049 -265.633365 
L 180.883649 -267.858414 
L 182.47025 -270.0249 
L 184.056851 -272.179249 
L 185.643452 -274.367886 
L 187.230052 -276.637236 
L 188.816653 -279.033724 
L 190.403254 -281.603776 
L 191.989854 -284.393817 
L 193.576455 -287.450271 
L 195.163056 -290.816344 
L 196.749656 -294.46683 
L 198.336257 -298.31112 
L 199.922858 -302.255989 
L 201.509458 -306.208211 
L 203.096059 -310.07456 
L 204.68266 -313.76181 
L 206.26926 -317.176734 
L 207.855861 -320.226107 
L 209.442462 -322.816702 
L 211.029062 -324.855544 
L 212.615663 -326.298524 
L 214.202264 -327.208465 
L 215.788864 -327.662346 
L 217.375465 -327.737143 
L 218.962066 -327.509834 
L 220.548666 -327.057396 
L 222.135267 -326.456807 
L 223.721868 -325.785043 
L 225.308468 -325.119081 
L 226.895069 -324.535901 
L 228.48167 -324.100754 
L 230.06827 -323.814818 
L 231.654871 -323.657483 
L 233.241472 -323.608126 
L 234.828072 -323.646118 
L 236.414673 -323.750835 
L 238.001274 -323.90165 
L 239.587874 -324.077937 
L 241.174475 -324.25907 
L 242.761076 -324.424424 
L 244.347676 -324.554251 
L 245.934277 -324.642685 
L 247.520878 -324.694945 
L 249.107478 -324.716558 
L 250.694079 -324.71305 
L 252.28068 -324.689949 
L 253.86728 -324.65278 
L 255.453881 -324.607071 
L 257.040482 -324.558348 
L 258.627082 -324.512137 
L 260.213683 -324.473943 
L 261.800284 -324.446937 
L 263.386884 -324.430085 
L 264.973485 -324.421904 
L 266.560086 -324.420913 
L 268.146686 -324.425632 
L 269.733287 -324.43458 
L 271.319888 -324.446276 
L 272.906488 -324.459239 
L 274.493089 -324.471989 
L 276.07969 -324.483044 
L 277.66629 -324.491204 
L 279.252891 -324.496522 
L 280.839492 -324.499393 
L 282.426092 -324.500214 
L 284.012693 -324.499381 
L 285.599294 -324.497293 
L 287.185894 -324.494345 
L 288.772495 -324.490935 
L 290.359096 -324.487458 
L 291.945696 -324.484313 
L 293.532297 -324.481871 
L 295.118898 -324.480221 
L 296.705498 -324.47926 
L 298.292099 -324.478881 
L 299.8787 -324.478978 
L 301.4653 -324.479444 
L 303.051901 -324.480174 
L 304.638502 -324.481061 
L 306.225102 -324.481998 
L 307.811703 -324.48288 
L 309.398304 -324.483601 
L 310.984904 -324.484106 
L 312.571505 -324.484418 
L 314.158106 -324.484565 
L 315.744706 -324.484575 
L 317.331307 -324.484478 
L 318.917908 -324.484301 
L 320.504508 -324.484074 
L 322.091109 -324.483824 
L 323.67771 -324.48358 
L 325.26431 -324.48337 
L 326.850911 -324.483217 
L 328.437512 -324.483118 
L 330.024112 -324.483066 
L 331.610713 -324.483053 
L 333.197314 -324.483071 
L 334.783914 -324.483112 
L 336.370515 -324.48317 
L 337.957116 -324.483236 
L 339.543716 -324.483303 
L 341.130317 -324.483362 
L 342.716918 -324.483408 
L 344.303518 -324.483439 
L 345.890119 -324.483457 
L 347.47672 -324.483463 
L 349.06332 -324.483461 
L 350.649921 -324.483451 
L 352.236522 -324.483437 
L 353.823122 -324.48342 
L 355.409723 -324.483402 
L 356.996324 -324.483385 
L 358.582924 -324.483371 
L 360.169525 -324.483362 
L 361.756126 -324.483356 
L 363.342726 -324.483354 
L 364.929327 -324.483354 
L 366.515928 -324.483356 
L 368.102528 -324.483359 
L 369.689129 -324.483364 
L 371.27573 -324.483368 
L 372.86233 -324.483373 
L 374.448931 -324.483377 
L 376.035532 -324.48338 
L 377.622132 -324.483382 
L 379.208733 -324.483383 
L 380.795334 -324.483383 
L 382.381934 -324.483382 
L 383.968535 -324.483382 
L 385.555136 -324.48338 
L 387.141736 -324.483379 
L 388.728337 -324.483378 
L 390.314938 -324.483377 
L 391.901538 -324.483376 
L 393.488139 -324.483375 
L 395.07474 -324.483375 
L 396.66134 -324.483375 
L 398.247941 -324.483375 
L 399.834542 -324.483375 
L 401.421142 -324.483375 
L 403.007743 -324.483376 
L 404.594344 -324.483376 
L 406.180944 -324.483376 
L 407.767545 -324.483377 
L 409.354146 -324.483377 
L 410.940746 -324.483377 
L 412.527347 -324.483377 
L 414.113948 -324.483377 
L 415.700548 -324.483377 
L 417.287149 -324.483377 
L 418.87375 -324.483377 
L 420.460351 -324.483377 
L 422.046951 -324.483377 
L 423.633552 -324.483377 
L 425.220153 -324.483377 
L 426.806753 -324.483376 
L 428.393354 -324.483376 
L 429.979955 -324.483376 
L 431.566555 -324.483376 
L 433.153156 -324.483376 
L 434.739757 -324.483377 
L 436.326357 -324.483377 
L 437.912958 -324.483377 
L 439.499559 -324.483377 
L 441.086159 -324.483377 
L 442.67276 -324.483377 
L 444.259361 -324.483377 
L 445.845961 -324.483377 
L 447.432562 -324.483377 
L 449.019163 -324.483377 
L 450.605763 -324.483377 
L 452.192364 -324.483377 
L 453.778965 -324.483377 
L 455.365565 -324.483377 
L 456.952166 -324.483377 
L 458.538767 -324.483377 
L 460.125367 -324.483377 
L 461.711968 -324.483377 
L 463.298569 -324.483377 
L 464.885169 -324.483377 
L 466.47177 -324.483377 
L 468.058371 -324.483377 
L 469.644971 -324.483377 
L 471.231572 -324.483377 
L 472.818173 -324.483377 
L 474.404773 -324.483377 
L 475.991374 -324.483377 
L 477.577975 -324.483377 
L 479.164575 -324.483377 
L 480.751176 -324.483377 
L 482.337777 -324.483377 
L 483.924377 -324.483377 
L 485.510978 -324.483377 
L 487.097579 -324.483377 
L 488.684179 -324.483377 
L 490.27078 -324.483377 
L 491.857381 -324.483377 
L 493.443981 -324.483377 
L 495.030582 -324.483377 
L 496.617183 -324.483377 
L 498.203783 -324.483377 
L 499.790384 -324.483377 
L 501.376985 -324.483377 
L 502.963585 -324.483377 
L 504.550186 -324.483377 
L 506.136787 -324.483377 
L 507.723387 -324.483377 
L 509.309988 -324.483377 
L 510.896589 -324.483377 
L 512.483189 -324.483377 
L 514.06979 -324.483377 
L 515.656391 -324.483377 
L 517.242991 -324.483377 
L 518.829592 -324.483377 
L 520.416193 -324.483377 
L 522.002793 -324.483377 
L 523.589394 -324.483377 
L 525.175995 -324.483377 
L 526.762595 -324.483377 
L 528.349196 -324.483377 
L 529.935797 -324.483377 
L 531.522397 -324.483377 
L 533.108998 -324.483377 
L 534.695599 -324.483377 
L 536.282199 -324.483377 
L 537.8688 -324.483377 
L 537.8688 -71.28 
L 537.8688 -71.28 
L 536.282199 -71.28 
L 534.695599 -71.28 
L 533.108998 -71.28 
L 531.522397 -71.28 
L 529.935797 -71.28 
L 528.349196 -71.28 
L 526.762595 -71.28 
L 525.175995 -71.28 
L 523.589394 -71.28 
L 522.002793 -71.28 
L 520.416193 -71.28 
L 518.829592 -71.28 
L 517.242991 -71.28 
L 515.656391 -71.28 
L 514.06979 -71.28 
L 512.483189 -71.28 
L 510.896589 -71.28 
L 509.309988 -71.28 
L 507.723387 -71.28 
L 506.136787 -71.28 
L 504.550186 -71.28 
L 502.963585 -71.28 
L 501.376985 -71.28 
L 499.790384 -71.28 
L 498.203783 -71.28 
L 496.617183 -71.28 
L 495.030582 -71.28 
L 493.443981 -71.28 
L 491.857381 -71.28 
L 490.27078 -71.28 
L 488.684179 -71.28 
L 487.097579 -71.28 
L 485.510978 -71.28 
L 483.924377 -71.28 
L 482.337777 -71.28 
L 480.751176 -71.28 
L 479.164575 -71.28 
L 477.577975 -71.28 
L 475.991374 -71.28 
L 474.404773 -71.28 
L 472.818173 -71.28 
L 471.231572 -71.28 
L 469.644971 -71.28 
L 468.058371 -71.28 
L 466.47177 -71.28 
L 464.885169 -71.28 
L 463.298569 -71.28 
L 461.711968 -71.28 
L 460.125367 -71.28 
L 458.538767 -71.28 
L 456.952166 -71.28 
L 455.365565 -71.28 
L 453.778965 -71.28 
L 452.192364 -71.28 
L 450.605763 -71.28 
L 449.019163 -71.28 
L 447.432562 -71.28 
L 445.845961 -71.28 
L 444.259361 -71.28 
L 442.67276 -71.28 
L 441.086159 -71.28 
L 439.499559 -71.28 
L 437.912958 -71.28 
L 436.326357 -71.28 
L 434.739757 -71.28 
L 433.153156 -71.28 
L 431.566555 -71.28 
L 429.979955 -71.28 
L 428.393354 -71.28 
L 426.806753 -71.28 
L 425.220153 -71.28 
L 423.633552 -71.28 
L 422.046951 -71.28 
L 420.460351 -71.28 
L 418.87375 -71.28 
L 417.287149 -71.28 
L 415.700548 -71.28 
L 414.113948 -71.28 
L 412.527347 -71.28 
L 410.940746 -71.28 
L 409.354146 -71.28 
L 407.767545 -71.28 
L 406.180944 -71.28 
L 404.594344 -71.28 
L 403.007743 -71.28 
L 401.421142 -71.28 
L 399.834542 -71.28 
L 398.247941 -71.28 
L 396.66134 -71.28 
L 395.07474 -71.28 
L 393.488139 -71.28 
L 391.901538 -71.28 
L 390.314938 -71.28 
L 388.728337 -71.28 
L 387.141736 -71.28 
L 385.555136 -71.28 
L 383.968535 -71.28 
L 382.381934 -71.28 
L 380.795334 -71.28 
L 379.208733 -71.28 
L 377.622132 -71.28 
L 376.035532 -71.28 
L 374.448931 -71.28 
L 372.86233 -71.28 
L 371.27573 -71.28 
L 369.689129 -71.28 
L 368.102528 -71.28 
L 366.515928 -71.28 
L 364.929327 -71.28 
L 363.342726 -71.28 
L 361.756126 -71.28 
L 360.169525 -71.28 
L 358.582924 -71.28 
L 356.996324 -71.28 
L 355.409723 -71.28 
L 353.823122 -71.28 
L 352.236522 -71.28 
L 350.649921 -71.28 
L 349.06332 -71.28 
L 347.47672 -71.28 
L 345.890119 -71.28 
L 344.303518 -71.28 
L 342.716918 -71.28 
L 341.130317 -71.28 
L 339.543716 -71.28 
L 337.957116 -71.28 
L 336.370515 -71.28 
L 334.783914 -71.28 
L 333.197314 -71.28 
L 331.610713 -71.28 
L 330.024112 -71.28 
L 328.437512 -71.28 
L 326.850911 -71.28 
L 325.26431 -71.28 
L 323.67771 -71.28 
L 322.091109 -71.28 
L 320.504508 -71.28 
L 318.917908 -71.28 
L 317.331307 -71.28 
L 315.744706 -71.28 
L 314.158106 -71.28 
L 312.571505 -71.28 
L 310.984904 -71.28 
L 309.398304 -71.28 
L 307.811703 -71.28 
L 306.225102 -71.28 
L 304.638502 -71.28 
L 303.051901 -71.28 
L 301.4653 -71.28 
L 299.8787 -71.28 
L 298.292099 -71.28 
L 296.705498 -71.28 
L 295.118898 -71.28 
L 293.532297 -71.28 
L 291.945696 -71.28 
L 290.359096 -71.28 
L 288.772495 -71.28 
L 287.185894 -71.28 
L 285.599294 -71.28 
L 284.012693 -71.28 
L 282.426092 -71.28 
L 280.839492 -71.28 
L 279.252891 -71.28 
L 277.66629 -71.28 
L 276.07969 -71.28 
L 274.493089 -71.28 
L 272.906488 -71.28 
L 271.319888 -71.28 
L 269.733287 -71.28 
L 268.146686 -71.28 
L 266.560086 -71.28 
L 264.973485 -71.28 
L 263.386884 -71.28 
L 261.800284 -71.28 
L 260.213683 -71.28 
L 258.627082 -71.28 
L 257.040482 -71.28 
L 255.453881 -71.28 
L 253.86728 -71.28 
L 252.28068 -71.28 
L 250.694079 -71.28 
L 249.107478 -71.28 
L 247.520878 -71.28 
L 245.934277 -71.28 
L 244.347676 -71.28 
L 242.761076 -71.28 
L 241.174475 -71.28 
L 239.587874 -71.28 
L 238.001274 -71.28 
L 236.414673 -71.28 
L 234.828072 -71.28 
L 233.241472 -71.28 
L 231.654871 -71.28 
L 230.06827 -71.28 
L 228.48167 -71.28 
L 226.895069 -71.28 
L 225.308468 -71.28 
L 223.721868 -71.28 
L 222.135267 -71.28 
L 220.548666 -71.28 
L 218.962066 -71.28 
L 217.375465 -71.28 
L 215.788864 -71.28 
L 214.202264 -71.28 
L 212.615663 -71.28 
L 211.029062 -71.28 
L 209.442462 -71.28 
L 207.855861 -71.28 
L 206.26926 -71.28 
L 204.68266 -71.28 
L 203.096059 -71.28 
L 201.509458 -71.28 
L 199.922858 -71.28 
L 198.336257 -71.28 
L 196.749656 -71.28 
L 195.163056 -71.28 
L 193.576455 -71.28 
L 191.989854 -71.28 
L 190.403254 -71.28 
L 188.816653 -71.28 
L 187.230052 -71.28 
L 185.643452 -71.28 
L 184.056851 -71.28 
L 182.47025 -71.28 
L 180.883649 -71.28 
L 179.297049 -71.28 
L 177.710448 -71.28 
L 176.123847 -71.28 
L 174.537247 -71.28 
L 172.950646 -71.28 
L 171.364045 -71.28 
L 169.777445 -71.28 
L 168.190844 -71.28 
L 166.604243 -71.28 
L 165.017643 -71.28 
L 163.431042 -71.28 
L 161.844441 -71.28 
L 160.257841 -71.28 
L 158.67124 -71.28 
L 157.084639 -71.28 
L 155.498039 -71.28 
L 153.911438 -71.28 
L 152.324837 -71.28 
L 150.738237 -71.28 
L 149.151636 -71.28 
L 147.565035 -71.28 
L 145.978435 -71.28 
L 144.391834 -71.28 
L 142.805233 -71.28 
L 141.218633 -71.28 
L 139.632032 -71.28 
L 138.045431 -71.28 
L 136.458831 -71.28 
L 134.87223 -71.28 
L 133.285629 -71.28 
L 131.699029 -71.28 
L 130.112428 -71.28 
L 128.525827 -71.28 
L 126.939227 -71.28 
L 125.352626 -71.28 
L 123.766025 -71.28 
L 122.179425 -71.28 
L 120.592824 -71.28 
L 119.006223 -71.28 
L 117.419623 -71.28 
L 115.833022 -71.28 
L 114.246421 -71.28 
L 112.659821 -71.28 
L 111.07322 -71.28 
L 109.486619 -71.28 
L 107.900019 -71.28 
L 106.313418 -71.28 
L 104.726817 -71.28 
L 103.140217 -71.28 
L 101.553616 -71.28 
L 99.967015 -71.28 
L 98.380415 -71.28 
L 96.793814 -71.28 
L 95.207213 -71.28 
L 93.620613 -71.28 
L 92.034012 -71.28 
L 90.447411 -71.28 
L 88.860811 -71.28 
L 87.27421 -71.28 
L 85.687609 -71.28 
L 84.101009 -71.28 
L 82.514408 -71.28 
L 80.927807 -71.28 
L 79.341207 -71.28 
L 77.754606 -71.28 
L 76.168005 -71.28 
L 74.581405 -71.28 
L 72.994804 -71.28 
L 71.408203 -71.28 
L 69.821603 -71.28 
L 68.235002 -71.28 
L 66.648401 -71.28 
L 65.061801 -71.28 
L 63.4752 -71.28 
z
" style="stroke: #8b5cf6; stroke-opacity: 0.12"/>
    </defs>
    <g clip-path="url(#pe87595991e)">
     <use xlink:href="#m00e8f61d6c" x="0" y="396" style="fill: #8b5cf6; fill-opacity: 0.12; stroke: #8b5cf6; stroke-opacity: 0.12"/>
    </g>
   </g>
   <g id="text_15">
    <!-- 265 -->
    <g style="fill: #8b5cf6" transform="translate(540.8688 68.516623) scale(0.12 -0.12)">
     <defs>
      <path id="JetBrainsMono-Bold-32" d="M 474 0 
L 474 723 
L 2157 2445 
Q 2566 2874 2566 3315 
Q 2566 3629 2384 3824 
Q 2202 4019 1894 4019 
Q 1581 4019 1392 3817 
Q 1203 3616 1203 3283 
L 403 3283 
Q 403 3718 595 4044 
Q 787 4371 1126 4553 
Q 1466 4736 1914 4736 
Q 2355 4736 2688 4563 
Q 3021 4390 3203 4080 
Q 3386 3770 3386 3354 
Q 3386 2995 3216 2636 
Q 3046 2278 2656 1894 
L 1478 723 
L 3443 723 
L 3443 0 
L 474 0 
z
" transform="scale(0.015625)"/>
      <path id="JetBrainsMono-Bold-36" d="M 1920 -64 
Q 1440 -64 1085 128 
Q 730 320 534 669 
Q 339 1018 339 1485 
Q 339 1760 457 2115 
Q 576 2470 781 2835 
L 1792 4672 
L 2701 4672 
L 1498 2611 
L 1523 2598 
Q 1619 2733 1804 2809 
Q 1990 2886 2208 2886 
Q 2598 2886 2889 2710 
Q 3181 2534 3341 2214 
Q 3501 1894 3501 1459 
Q 3501 998 3305 656 
Q 3110 314 2755 125 
Q 2400 -64 1920 -64 
z
M 1920 614 
Q 2278 614 2496 841 
Q 2714 1069 2714 1446 
Q 2714 1830 2496 2057 
Q 2278 2285 1920 2285 
Q 1562 2285 1344 2057 
Q 1126 1830 1126 1446 
Q 1126 1069 1344 841 
Q 1562 614 1920 614 
z
" transform="scale(0.015625)"/>
      <path id="JetBrainsMono-Bold-35" d="M 1894 -64 
Q 1210 -64 803 297 
Q 397 659 397 1280 
L 1197 1280 
Q 1197 986 1385 810 
Q 1574 634 1901 634 
Q 2227 634 2409 810 
Q 2592 986 2592 1299 
L 2592 1606 
Q 2592 1920 2413 2096 
Q 2234 2272 1907 2272 
L 557 2272 
L 557 4672 
L 3219 4672 
L 3219 3949 
L 1312 3949 
L 1318 2976 
L 1946 2976 
Q 2637 2976 3014 2617 
Q 3392 2259 3392 1606 
L 3392 1299 
Q 3392 666 2992 301 
Q 2592 -64 1894 -64 
z
" transform="scale(0.015625)"/>
     </defs>
     <use xlink:href="#JetBrainsMono-Bold-32"/>
     <use xlink:href="#JetBrainsMono-Bold-36" transform="translate(59.999985 0)"/>
     <use xlink:href="#JetBrainsMono-Bold-35" transform="translate(119.999969 0)"/>
    </g>
   </g>
   <g id="text_16">
    <!-- Rating History -->
    <g style="fill: #8b5cf6" transform="translate(55.296 50.44) scale(0.17 -0.17)">
     <defs>
      <path id="JetBrainsMono-Bold-52" d="M 493 0 
L 493 4672 
L 1965 4672 
Q 2432 4672 2774 4499 
Q 3117 4326 3309 4016 
Q 3501 3706 3501 3283 
Q 3501 2816 3270 2467 
Q 3040 2118 2650 1971 
L 3565 0 
L 2688 0 
L 1869 1856 
L 1286 1856 
L 1286 0 
L 493 0 
z
M 1286 2560 
L 1965 2560 
Q 2304 2560 2496 2745 
Q 2688 2931 2688 3258 
Q 2688 3584 2493 3776 
Q 2298 3968 1965 3968 
L 1286 3968 
L 1286 2560 
z
" transform="scale(0.015625)"/>
      <path id="JetBrainsMono-Bold-61" d="M 1530 -64 
Q 992 -64 681 240 
Q 371 544 371 1037 
Q 371 1549 723 1853 
Q 1075 2157 1690 2157 
L 2547 2157 
L 2547 2406 
Q 2547 2938 1926 2938 
Q 1645 2938 1478 2829 
Q 1312 2720 1293 2522 
L 525 2522 
Q 550 2995 924 3289 
Q 1299 3584 1933 3584 
Q 2605 3584 2976 3270 
Q 3347 2957 3347 2387 
L 3347 0 
L 2566 0 
L 2566 659 
Q 2522 320 2246 128 
Q 1971 -64 1530 -64 
z
M 1786 589 
Q 2138 589 2342 761 
Q 2547 934 2547 1222 
L 2547 1638 
L 1728 1638 
Q 1466 1638 1312 1491 
Q 1158 1344 1158 1114 
Q 1158 877 1321 733 
Q 1485 589 1786 589 
z
" transform="scale(0.015625)"/>
      <path id="JetBrainsMono-Bold-74" d="M 2272 0 
Q 1779 0 1488 285 
Q 1197 570 1197 1056 
L 1197 2797 
L 224 2797 
L 224 3520 
L 1197 3520 
L 1197 4512 
L 2003 4512 
L 2003 3520 
L 3405 3520 
L 3405 2797 
L 2003 2797 
L 2003 1075 
Q 2003 922 2089 822 
Q 2176 723 2330 723 
L 3373 723 
L 3373 0 
L 2272 0 
z
" transform="scale(0.015625)"/>
      <path id="JetBrainsMono-Bold-69" d="M 486 0 
L 486 723 
L 1690 723 
L 1690 2797 
L 614 2797 
L 614 3520 
L 2490 3520 
L 2490 723 
L 3571 723 
L 3571 0 
L 486 0 
z
M 2032 4109 
Q 1789 4109 1648 4233 
Q 1507 4358 1507 4570 
Q 1507 4781 1648 4905 
Q 1789 5030 2032 5030 
Q 2275 5030 2416 4905 
Q 2557 4781 2557 4570 
Q 2557 4358 2416 4233 
Q 2275 4109 2032 4109 
z
" transform="scale(0.015625)"/>
      <path id="JetBrainsMono-Bold-6e" d="M 493 0 
L 493 3520 
L 1274 3520 
L 1274 2861 
Q 1338 3194 1587 3389 
Q 1837 3584 2221 3584 
Q 2739 3584 3049 3238 
Q 3360 2893 3360 2310 
L 3360 0 
L 2560 0 
L 2560 2214 
Q 2560 2541 2390 2717 
Q 2221 2893 1933 2893 
Q 1632 2893 1462 2713 
Q 1293 2534 1293 2202 
L 1293 0 
L 493 0 
z
" transform="scale(0.015625)"/>
      <path id="JetBrainsMono-Bold-67" d="M 973 -1152 
L 973 -486 
L 1965 -486 
Q 2246 -486 2400 -336 
Q 2554 -186 2554 70 
L 2554 282 
L 2566 832 
Q 2458 538 2218 374 
Q 1978 211 1632 211 
Q 1094 211 777 572 
Q 461 934 461 1555 
L 461 2240 
Q 461 2854 777 3219 
Q 1094 3584 1632 3584 
Q 1978 3584 2218 3421 
Q 2458 3258 2566 2957 
L 2566 3520 
L 3347 3520 
L 3347 51 
Q 3347 -506 2979 -829 
Q 2611 -1152 1978 -1152 
L 973 -1152 
z
M 1901 896 
Q 2208 896 2377 1078 
Q 2547 1261 2547 1587 
L 2547 2202 
Q 2547 2528 2377 2710 
Q 2208 2893 1901 2893 
Q 1594 2893 1427 2717 
Q 1261 2541 1261 2227 
L 1261 1562 
Q 1261 1248 1427 1072 
Q 1594 896 1901 896 
z
" transform="scale(0.015625)"/>
      <path id="JetBrainsMono-Bold-20" transform="scale(0.015625)"/>
      <path id="JetBrainsMono-Bold-48" d="M 493 0 
L 493 4672 
L 1293 4672 
L 1293 2778 
L 2547 2778 
L 2547 4672 
L 3347 4672 
L 3347 0 
L 2547 0 
L 2547 2054 
L 1293 2054 
L 1293 0 
L 493 0 
z
" transform="scale(0.015625)"/>
      <path id="JetBrainsMono-Bold-73" d="M 1773 -58 
Q 1146 -58 781 227 
Q 416 512 416 998 
L 1203 998 
Q 1203 794 1353 685 
Q 1504 576 1773 576 
L 2054 576 
Q 2342 576 2499 685 
Q 2656 794 2656 998 
Q 2656 1190 2547 1283 
Q 2438 1376 2214 1408 
L 1338 1523 
Q 915 1581 688 1849 
Q 461 2118 461 2547 
Q 461 3046 793 3312 
Q 1126 3578 1754 3578 
L 2048 3578 
Q 2637 3578 2995 3309 
Q 3354 3040 3366 2592 
L 2573 2592 
Q 2566 2758 2425 2857 
Q 2285 2957 2048 2957 
L 1754 2957 
Q 1498 2957 1363 2851 
Q 1229 2746 1229 2566 
Q 1229 2406 1328 2329 
Q 1427 2253 1619 2234 
L 2445 2118 
Q 2931 2061 3177 1776 
Q 3424 1491 3424 1011 
Q 3424 499 3075 220 
Q 2726 -58 2054 -58 
L 1773 -58 
z
" transform="scale(0.015625)"/>
      <path id="JetBrainsMono-Bold-6f" d="M 1920 -58 
Q 1242 -58 845 323 
Q 448 704 448 1350 
L 448 2170 
Q 448 2822 845 3200 
Q 1242 3578 1920 3578 
Q 2598 3578 2995 3200 
Q 3392 2822 3392 2170 
L 3392 1350 
Q 3392 704 2995 323 
Q 2598 -58 1920 -58 
z
M 1920 640 
Q 2240 640 2416 816 
Q 2592 992 2592 1325 
L 2592 2195 
Q 2592 2528 2416 2704 
Q 2240 2880 1920 2880 
Q 1600 2880 1424 2704 
Q 1248 2528 1248 2195 
L 1248 1325 
Q 1248 992 1424 816 
Q 1600 640 1920 640 
z
" transform="scale(0.015625)"/>
      <path id="JetBrainsMono-Bold-72" d="M 621 0 
L 621 3520 
L 1402 3520 
L 1402 2835 
Q 1466 3181 1718 3382 
Q 1971 3584 2374 3584 
Q 2912 3584 3213 3238 
Q 3514 2893 3514 2272 
L 3514 1939 
L 2714 1939 
L 2714 2234 
Q 2714 2554 2547 2723 
Q 2381 2893 2074 2893 
Q 1754 2893 1587 2701 
Q 1421 2509 1421 2157 
L 1421 0 
L 621 0 
z
" transform="scale(0.015625)"/>
      <path id="JetBrainsMono-Bold-79" d="M 1056 -1152 
L 1555 192 
L 230 3520 
L 1075 3520 
L 1754 1722 
Q 1811 1562 1868 1373 
Q 1926 1184 1952 1024 
Q 1971 1184 2025 1373 
Q 2080 1562 2138 1722 
L 2765 3520 
L 3610 3520 
L 1894 -1152 
L 1056 -1152 
z
" transform="scale(0.015625)"/>
     </defs>
     <use xlink:href="#JetBrainsMono-Bold-52"/>
     <use xlink:href="#JetBrainsMono-Bold-61" transform="translate(59.999985 0)"/>
     <use xlink:href="#JetBrainsMono-Bold-74" transform="translate(119.999969 0)"/>
     <use xlink:href="#JetBrainsMono-Bold-69" transform="translate(179.999954 0)"/>
     <use xlink:href="#JetBrainsMono-Bold-6e" transform="translate(239.999939 0)"/>
     <use xlink:href="#JetBrainsMono-Bold-67" transform="translate(299.999924 0)"/>
     <use xlink:href="#JetBrainsMono-Bold-20" transform="translate(359.999908 0)"/>
     <use xlink:href="#JetBrainsMono-Bold-48" transform="translate(419.999893 0)"/>
     <use xlink:href="#JetBrainsMono-Bold-69" transform="translate(479.999878 0)"/>
     <use xlink:href="#JetBrainsMono-Bold-73" transform="translate(539.999863 0)"/>
     <use xlink:href="#JetBrainsMono-Bold-74" transform="translate(599.999847 0)"/>
     <use xlink:href="#JetBrainsMono-Bold-6f" transform="translate(659.999832 0)"/>
     <use xlink:href="#JetBrainsMono-Bold-72" transform="translate(719.999817 0)"/>
     <use xlink:href="#JetBrainsMono-Bold-79" transform="translate(779.999802 0)"/>
    </g>
   </g>
   <g id="line2d_27">
    <path d="M 63.4752 299.399662 
L 65.061801 296.784606 
L 66.648401 294.558995 
L 68.235002 292.670765 
L 69.821603 291.067854 
L 71.408203 289.698199 
L 74.581405 287.45041 
L 80.927807 283.463161 
L 82.514408 282.268552 
L 84.101009 280.8907 
L 85.687609 279.277541 
L 87.27421 277.377014 
L 88.860811 275.137055 
L 90.447411 272.505603 
L 92.034012 269.430594 
L 93.620613 265.859967 
L 95.207213 261.741658 
L 96.793814 257.025438 
L 98.380415 251.741867 
L 101.553616 240.046274 
L 106.313418 221.923102 
L 107.900019 216.325129 
L 109.486619 211.197735 
L 111.07322 206.690344 
L 112.659821 202.952363 
L 114.246421 200.076419 
L 115.833022 197.970274 
L 117.419623 196.504136 
L 119.006223 195.548211 
L 120.592824 194.972706 
L 122.179425 194.647829 
L 125.352626 194.230785 
L 126.939227 193.879032 
L 128.525827 193.258734 
L 130.112428 192.254257 
L 131.699029 190.869731 
L 133.285629 189.1695 
L 134.87223 187.218367 
L 138.045431 182.822608 
L 142.805233 175.967273 
L 144.391834 173.871585 
L 145.978435 171.976947 
L 147.565035 170.296937 
L 150.738237 167.405128 
L 158.67124 160.748502 
L 160.257841 159.145389 
L 161.844441 157.343799 
L 163.431042 155.317825 
L 166.604243 150.714171 
L 169.777445 145.621773 
L 176.123847 135.155707 
L 179.297049 130.366635 
L 188.816653 116.966276 
L 190.403254 114.396224 
L 191.989854 111.606183 
L 193.576455 108.549729 
L 195.163056 105.183656 
L 198.336257 97.68888 
L 203.096059 85.92544 
L 206.26926 78.823266 
L 207.855861 75.773893 
L 209.442462 73.183298 
L 211.029062 71.144456 
L 212.615663 69.701476 
L 214.202264 68.791535 
L 215.788864 68.337654 
L 217.375465 68.262857 
L 218.962066 68.490166 
L 220.548666 68.942604 
L 223.721868 70.214957 
L 226.895069 71.464099 
L 228.48167 71.899246 
L 230.06827 72.185182 
L 233.241472 72.391874 
L 236.414673 72.249165 
L 247.520878 71.305055 
L 252.28068 71.310051 
L 268.146686 71.574368 
L 296.705498 71.52074 
L 537.8688 71.516623 
L 537.8688 71.516623 
" clip-path="url(#pe87595991e)" style="fill: none; stroke: #8b5cf6; stroke-width: 1.2; stroke-linecap: round"/>
   </g>
   <g id="PathCollection_1">
    <defs>
     <path id="m97b86ea190" d="M 0 2.236068 
C 0.593012 2.236068 1.161816 2.000462 1.581139 1.581139 
C 2.000462 1.161816 2.236068 0.593012 2.236068 0 
C 2.236068 -0.593012 2.000462 -1.161816 1.581139 -1.581139 
C 1.161816 -2.000462 0.593012 -2.236068 0 -2.236068 
C -0.593012 -2.236068 -1.161816 -2.000462 -1.581139 -1.581139 
C -2.000462 -1.161816 -2.236068 -0.593012 -2.236068 0 
C -2.236068 0.593012 -2.000462 1.161816 -1.581139 1.581139 
C -1.161816 2.000462 -0.593012 2.236068 0 2.236068 
z
" style="stroke: #ffffff; stroke-width: 0.8"/>
    </defs>
    <g clip-path="url(#pe87595991e)">
     <use xlink:href="#m97b86ea190" x="537.8688" y="71.516623" style="fill: #8b5cf6; stroke: #ffffff; stroke-width: 0.8"/>
    </g>
   </g>
  </g>
  <g id="axes_2">
   <g id="text_17">
    <!-- Rating -->
    <g style="fill: #9b8bb8" transform="translate(565.7472 48.312) scale(0.11 -0.11)">
     <use xlink:href="#JetBrainsMono-Regular-52"/>
     <use xlink:href="#JetBrainsMono-Regular-61" transform="translate(59.999985 0)"/>
     <use xlink:href="#JetBrainsMono-Regular-74" transform="translate(119.999969 0)"/>
     <use xlink:href="#JetBrainsMono-Regular-69" transform="translate(179.999954 0)"/>
     <use xlink:href="#JetBrainsMono-Regular-6e" transform="translate(239.999939 0)"/>
     <use xlink:href="#JetBrainsMono-Regular-67" transform="translate(299.999924 0)"/>
    </g>
   </g>
   <g id="text_18">
    <!-- 265 -->
    <g style="fill: #8b5cf6" transform="translate(565.7472 81.548) scale(0.26 -0.26)">
     <use xlink:href="#JetBrainsMono-Bold-32"/>
     <use xlink:href="#JetBrainsMono-Bold-36" transform="translate(59.999985 0)"/>
     <use xlink:href="#JetBrainsMono-Bold-35" transform="translate(119.999969 0)"/>
    </g>
   </g>
   <g id="text_19">
    <!-- Rank -->
    <g style="fill: #9b8bb8" transform="translate(565.7472 119.592) scale(0.11 -0.11)">
     <defs>
      <path id="JetBrainsMono-Regular-6b" d="M 621 0 
L 621 4672 
L 1197 4672 
L 1197 2067 
L 1869 2067 
L 2854 3520 
L 3514 3520 
L 2381 1843 
L 3578 0 
L 2906 0 
L 1882 1568 
L 1197 1568 
L 1197 0 
L 621 0 
z
" transform="scale(0.015625)"/>
     </defs>
     <use xlink:href="#JetBrainsMono-Regular-52"/>
     <use xlink:href="#JetBrainsMono-Regular-61" transform="translate(59.999985 0)"/>
     <use xlink:href="#JetBrainsMono-Regular-6e" transform="translate(119.999969 0)"/>
     <use xlink:href="#JetBrainsMono-Regular-6b" transform="translate(179.999954 0)"/>
    </g>
   </g>
   <g id="text_20">
    <!-- #118,029 -->
    <g style="fill: #8b5cf6" transform="translate(565.7472 148.104) scale(0.14 -0.14)">
     <defs>
      <path id="JetBrainsMono-Bold-23" d="M 493 0 
L 710 1216 
L 224 1216 
L 224 1760 
L 800 1760 
L 998 2912 
L 448 2912 
L 448 3456 
L 1094 3456 
L 1312 4672 
L 1875 4672 
L 1658 3456 
L 2566 3456 
L 2784 4672 
L 3347 4672 
L 3130 3456 
L 3616 3456 
L 3616 2912 
L 3034 2912 
L 2835 1760 
L 3392 1760 
L 3392 1216 
L 2739 1216 
L 2528 0 
L 1965 0 
L 2182 1216 
L 1267 1216 
L 1056 0 
L 493 0 
z
M 1363 1760 
L 2272 1760 
L 2470 2912 
L 1562 2912 
L 1363 1760 
z
" transform="scale(0.015625)"/>
      <path id="JetBrainsMono-Bold-31" d="M 538 0 
L 538 723 
L 1754 723 
L 1754 3898 
L 531 3002 
L 531 3898 
L 1606 4672 
L 2554 4672 
L 2554 723 
L 3533 723 
L 3533 0 
L 538 0 
z
" transform="scale(0.015625)"/>
      <path id="JetBrainsMono-Bold-38" d="M 1920 -64 
Q 1453 -64 1094 112 
Q 736 288 537 598 
Q 339 909 339 1318 
Q 339 1747 585 2067 
Q 832 2387 1229 2470 
L 1229 2483 
Q 890 2554 682 2829 
Q 474 3104 474 3482 
Q 474 3853 656 4134 
Q 838 4416 1164 4576 
Q 1491 4736 1920 4736 
Q 2349 4736 2678 4576 
Q 3008 4416 3190 4134 
Q 3373 3853 3373 3482 
Q 3373 3104 3161 2829 
Q 2950 2554 2611 2483 
L 2611 2470 
Q 3008 2387 3254 2067 
Q 3501 1747 3501 1318 
Q 3501 909 3302 598 
Q 3104 288 2745 112 
Q 2387 -64 1920 -64 
z
M 1920 2758 
Q 2221 2758 2406 2940 
Q 2592 3123 2592 3411 
Q 2592 3706 2406 3888 
Q 2221 4070 1920 4070 
Q 1619 4070 1433 3888 
Q 1248 3706 1248 3411 
Q 1248 3123 1433 2940 
Q 1619 2758 1920 2758 
z
M 1920 614 
Q 2272 614 2496 819 
Q 2720 1024 2720 1357 
Q 2720 1696 2496 1904 
Q 2272 2112 1920 2112 
Q 1568 2112 1344 1904 
Q 1120 1696 1120 1357 
Q 1120 1024 1344 819 
Q 1568 614 1920 614 
z
" transform="scale(0.015625)"/>
      <path id="JetBrainsMono-Bold-2c" d="M 1216 -1024 
L 1555 934 
L 2470 934 
L 1984 -1024 
L 1216 -1024 
z
" transform="scale(0.015625)"/>
      <path id="JetBrainsMono-Bold-30" d="M 1920 -64 
Q 1466 -64 1133 109 
Q 800 282 617 595 
Q 435 909 435 1331 
L 435 3341 
Q 435 3763 617 4076 
Q 800 4390 1133 4563 
Q 1466 4736 1920 4736 
Q 2374 4736 2707 4563 
Q 3040 4390 3222 4076 
Q 3405 3763 3405 3341 
L 3405 1331 
Q 3405 909 3222 595 
Q 3040 282 2707 109 
Q 2374 -64 1920 -64 
z
M 1920 627 
Q 2253 627 2451 819 
Q 2650 1011 2650 1331 
L 2650 3341 
Q 2650 3661 2454 3853 
Q 2259 4045 1920 4045 
Q 1581 4045 1385 3853 
Q 1190 3661 1190 3341 
L 1190 1331 
Q 1190 1011 1388 819 
Q 1587 627 1920 627 
z
M 1920 1952 
Q 1728 1952 1613 2057 
Q 1498 2163 1498 2355 
Q 1498 2547 1613 2646 
Q 1728 2746 1920 2746 
Q 2112 2746 2227 2646 
Q 2342 2547 2342 2355 
Q 2342 2163 2227 2057 
Q 2112 1952 1920 1952 
z
" transform="scale(0.015625)"/>
      <path id="JetBrainsMono-Bold-39" d="M 1120 0 
L 2214 1888 
Q 2138 1830 2035 1788 
Q 1933 1747 1728 1747 
Q 1344 1747 1027 1932 
Q 710 2118 524 2448 
Q 339 2778 339 3213 
Q 339 3674 534 4016 
Q 730 4358 1085 4547 
Q 1440 4736 1920 4736 
Q 2400 4736 2755 4544 
Q 3110 4352 3305 4003 
Q 3501 3654 3501 3187 
Q 3501 2912 3382 2557 
Q 3264 2202 3059 1837 
L 2048 0 
L 1120 0 
z
M 1920 2387 
Q 2278 2387 2496 2614 
Q 2714 2842 2714 3226 
Q 2714 3603 2496 3830 
Q 2278 4058 1920 4058 
Q 1562 4058 1344 3830 
Q 1126 3603 1126 3226 
Q 1126 2842 1344 2614 
Q 1562 2387 1920 2387 
z
" transform="scale(0.015625)"/>
     </defs>
     <use xlink:href="#JetBrainsMono-Bold-23"/>
     <use xlink:href="#JetBrainsMono-Bold-31" transform="translate(59.999985 0)"/>
     <use xlink:href="#JetBrainsMono-Bold-31" transform="translate(119.999969 0)"/>
     <use xlink:href="#JetBrainsMono-Bold-38" transform="translate(179.999954 0)"/>
     <use xlink:href="#JetBrainsMono-Bold-2c" transform="translate(239.999939 0)"/>
     <use xlink:href="#JetBrainsMono-Bold-30" transform="translate(299.999924 0)"/>
     <use xlink:href="#JetBrainsMono-Bold-32" transform="translate(359.999908 0)"/>
     <use xlink:href="#JetBrainsMono-Bold-39" transform="translate(419.999893 0)"/>
    </g>
   </g>
   <g id="text_21">
    <!-- ─ 0 -->
    <g style="fill: #9b8bb8" transform="translate(565.7472 169.488) scale(0.11 -0.11)">
     <defs>
      <path id="JetBrainsMono-Bold-2500" d="M -128 2048 
L -128 2688 
L 3968 2688 
L 3968 2048 
L -128 2048 
z
" transform="scale(0.015625)"/>
     </defs>
     <use xlink:href="#JetBrainsMono-Bold-2500"/>
     <use xlink:href="#JetBrainsMono-Bold-20" transform="translate(59.999985 0)"/>
     <use xlink:href="#JetBrainsMono-Bold-30" transform="translate(119.999969 0)"/>
    </g>
   </g>
  </g>
 </g>
 <defs>
  <clipPath id="pe87595991e">
   <rect x="55.296" y="55.44" width="490.752" height="269.28"/>
  </clipPath>
 </defs>
</svg>
