<?xml version="1.0" encoding="utf-8" standalone="no"?>
<!DOCTYPE svg PUBLIC "-//W3C//DTD SVG 1.1//EN"
  "http://www.w3.org/Graphics/SVG/1.1/DTD/svg11.dtd">
<svg xmlns:xlink="http://www.w3.org/1999/xlink" width="691.2pt" height="396pt" viewBox="0 0 691.2 396" xmlns="http://www.w3.org/2000/svg" version="1.1">
 <metadata>
  <rdf:RDF xmlns:dc="http://purl.org/dc/elements/1.1/" xmlns:cc="http://creativecommons.org/ns#" xmlns:rdf="http://www.w3.org/1999/02/22-rdf-syntax-ns#">
   <cc:Work>
    <dc:type rdf:resource="http://purl.org/dc/dcmitype/StillImage"/>
    <dc:date>2026-04-04T23:25:08.407700</dc:date>
    <dc:format>image/svg+xml</dc:format>
    <dc:creator>
     <cc:Agent>
      <dc:title>Matplotlib v3.10.8, https://matplotlib.org/</dc:title>
     </cc:Agent>
    </dc:creator>
   </cc:Work>
  </rdf:RDF>
 </metadata>
 <defs>
  <style type="text/css">*{stroke-linejoin: round; stroke-linecap: butt}</style>
 </defs>
 <g id="figure_1">
  <g id="patch_1">
   <path d="M 0 396 
L 691.2 396 
L 691.2 0 
L 0 0 
L 0 396 
z
" style="fill: none"/>
  </g>
  <g id="axes_1">
   <g id="patch_2">
    <path d="M 55.296 324.72 
L 546.048 324.72 
L 546.048 55.44 
L 55.296 55.44 
L 55.296 324.72 
z
" style="fill: none"/>
   </g>
   <g id="matplotlib.axis_1">
    <g id="xtick_1">
     <g id="line2d_1">
      <path d="M 104.3712 324.72 
L 104.3712 55.44 
" clip-path="url(#p099914de9b)" style="fill: none; stroke-dasharray: 2.22,0.96; stroke-dashoffset: 0; stroke: #e2d5f5; stroke-opacity: 0.7; stroke-width: 0.6"/>
     </g>
     <g id="line2d_2">
      <defs>
       <path id="m5c37971a27" d="M 0 0 
L 0 3.5 
" style="stroke: #9b8bb8; stroke-width: 0.8"/>
      </defs>
      <g>
       <use xlink:href="#m5c37971a27" x="104.3712" y="324.72" style="fill: #9b8bb8; stroke: #9b8bb8; stroke-width: 0.8"/>
      </g>
     </g>
     <g id="text_1">
      <!-- 03/31 -->
      <g style="fill: #9b8bb8" transform="translate(92.72356 353.375578) rotate(-30) scale(0.1 -0.1)">
       <defs>
        <path id="Menlo-Regular-30" d="M 1925 4734 
Q 2672 4734 3055 4125 
Q 3438 3516 3438 2322 
Q 3438 1128 3055 518 
Q 2672 -91 1925 -91 
Q 1178 -91 797 518 
Q 416 1128 416 2322 
Q 416 3516 797 4125 
Q 1178 4734 1925 4734 
z
M 1925 409 
Q 2369 409 2586 881 
Q 2803 1353 2803 2322 
Q 2803 2838 2741 3253 
L 1253 925 
Q 1488 409 1925 409 
z
M 1925 4234 
Q 1484 4234 1267 3762 
Q 1050 3291 1050 2322 
Q 1050 1881 1109 1497 
L 2566 3819 
Q 2328 4234 1925 4234 
z
" transform="scale(0.015625)"/>
        <path id="Menlo-Regular-33" d="M 2425 2497 
Q 2884 2375 3128 2064 
Q 3372 1753 3372 1288 
Q 3372 644 2939 276 
Q 2506 -91 1741 -91 
Q 1419 -91 1084 -31 
Q 750 28 428 141 
L 428 769 
Q 747 603 1056 522 
Q 1366 441 1672 441 
Q 2191 441 2469 675 
Q 2747 909 2747 1350 
Q 2747 1756 2469 1995 
Q 2191 2234 1716 2234 
L 1234 2234 
L 1234 2753 
L 1716 2753 
Q 2150 2753 2394 2943 
Q 2638 3134 2638 3475 
Q 2638 3834 2411 4026 
Q 2184 4219 1766 4219 
Q 1488 4219 1191 4156 
Q 894 4094 569 3969 
L 569 4550 
Q 947 4650 1242 4700 
Q 1538 4750 1766 4750 
Q 2447 4750 2855 4408 
Q 3263 4066 3263 3500 
Q 3263 3116 3048 2859 
Q 2834 2603 2425 2497 
z
" transform="scale(0.015625)"/>
        <path id="Menlo-Regular-2f" d="M 2778 4666 
L 3372 4666 
L 916 -594 
L 319 -594 
L 2778 4666 
z
" transform="scale(0.015625)"/>
        <path id="Menlo-Regular-31" d="M 844 528 
L 1825 528 
L 1825 4053 
L 650 3488 
L 650 4094 
L 1819 4650 
L 2450 4650 
L 2450 528 
L 3419 528 
L 3419 0 
L 844 0 
L 844 528 
z
" transform="scale(0.015625)"/>
       </defs>
       <use xlink:href="#Menlo-Regular-30"/>
       <use xlink:href="#Menlo-Regular-33" transform="translate(60.205078 0)"/>
       <use xlink:href="#Menlo-Regular-2f" transform="translate(120.410156 0)"/>
       <use xlink:href="#Menlo-Regular-33" transform="translate(180.615234 0)"/>
       <use xlink:href="#Menlo-Regular-31" transform="translate(240.820312 0)"/>
      </g>
     </g>
    </g>
    <g id="xtick_2">
     <g id="line2d_3">
      <path d="M 202.5216 324.72 
L 202.5216 55.44 
" clip-path="url(#p099914de9b)" style="fill: none; stroke-dasharray: 2.22,0.96; stroke-dashoffset: 0; stroke: #e2d5f5; stroke-opacity: 0.7; stroke-width: 0.6"/>
     </g>
     <g id="line2d_4">
      <g>
       <use xlink:href="#m5c37971a27" x="202.5216" y="324.72" style="fill: #9b8bb8; stroke: #9b8bb8; stroke-width: 0.8"/>
      </g>
     </g>
     <g id="text_2">
      <!-- 04/01 -->
      <g style="fill: #9b8bb8" transform="translate(190.87396 353.375578) rotate(-30) scale(0.1 -0.1)">
       <defs>
        <path id="Menlo-Regular-34" d="M 2297 4091 
L 825 1625 
L 2297 1625 
L 2297 4091 
z
M 2194 4666 
L 2925 4666 
L 2925 1625 
L 3547 1625 
L 3547 1113 
L 2925 1113 
L 2925 0 
L 2297 0 
L 2297 1113 
L 319 1113 
L 319 1709 
L 2194 4666 
z
" transform="scale(0.015625)"/>
       </defs>
       <use xlink:href="#Menlo-Regular-30"/>
       <use xlink:href="#Menlo-Regular-34" transform="translate(60.205078 0)"/>
       <use xlink:href="#Menlo-Regular-2f" transform="translate(120.410156 0)"/>
       <use xlink:href="#Menlo-Regular-30" transform="translate(180.615234 0)"/>
       <use xlink:href="#Menlo-Regular-31" transform="translate(240.820312 0)"/>
      </g>
     </g>
    </g>
    <g id="xtick_3">
     <g id="line2d_5">
      <path d="M 300.672 324.72 
L 300.672 55.44 
" clip-path="url(#p099914de9b)" style="fill: none; stroke-dasharray: 2.22,0.96; stroke-dashoffset: 0; stroke: #e2d5f5; stroke-opacity: 0.7; stroke-width: 0.6"/>
     </g>
     <g id="line2d_6">
      <g>
       <use xlink:href="#m5c37971a27" x="300.672" y="324.72" style="fill: #9b8bb8; stroke: #9b8bb8; stroke-width: 0.8"/>
      </g>
     </g>
     <g id="text_3">
      <!-- 04/02 -->
      <g style="fill: #9b8bb8" transform="translate(289.02436 353.375578) rotate(-30) scale(0.1 -0.1)">
       <defs>
        <path id="Menlo-Regular-32" d="M 1166 531 
L 3309 531 
L 3309 0 
L 475 0 
L 475 531 
Q 1059 1147 1496 1619 
Q 1934 2091 2100 2284 
Q 2413 2666 2522 2902 
Q 2631 3138 2631 3384 
Q 2631 3775 2401 3997 
Q 2172 4219 1772 4219 
Q 1488 4219 1175 4116 
Q 863 4013 513 3803 
L 513 4441 
Q 834 4594 1145 4672 
Q 1456 4750 1759 4750 
Q 2444 4750 2861 4386 
Q 3278 4022 3278 3431 
Q 3278 3131 3139 2831 
Q 3000 2531 2688 2169 
Q 2513 1966 2180 1606 
Q 1847 1247 1166 531 
z
" transform="scale(0.015625)"/>
       </defs>
       <use xlink:href="#Menlo-Regular-30"/>
       <use xlink:href="#Menlo-Regular-34" transform="translate(60.205078 0)"/>
       <use xlink:href="#Menlo-Regular-2f" transform="translate(120.410156 0)"/>
       <use xlink:href="#Menlo-Regular-30" transform="translate(180.615234 0)"/>
       <use xlink:href="#Menlo-Regular-32" transform="translate(240.820312 0)"/>
      </g>
     </g>
    </g>
    <g id="xtick_4">
     <g id="line2d_7">
      <path d="M 398.8224 324.72 
L 398.8224 55.44 
" clip-path="url(#p099914de9b)" style="fill: none; stroke-dasharray: 2.22,0.96; stroke-dashoffset: 0; stroke: #e2d5f5; stroke-opacity: 0.7; stroke-width: 0.6"/>
     </g>
     <g id="line2d_8">
      <g>
       <use xlink:href="#m5c37971a27" x="398.8224" y="324.72" style="fill: #9b8bb8; stroke: #9b8bb8; stroke-width: 0.8"/>
      </g>
     </g>
     <g id="text_4">
      <!-- 04/03 -->
      <g style="fill: #9b8bb8" transform="translate(387.17476 353.375578) rotate(-30) scale(0.1 -0.1)">
       <use xlink:href="#Menlo-Regular-30"/>
       <use xlink:href="#Menlo-Regular-34" transform="translate(60.205078 0)"/>
       <use xlink:href="#Menlo-Regular-2f" transform="translate(120.410156 0)"/>
       <use xlink:href="#Menlo-Regular-30" transform="translate(180.615234 0)"/>
       <use xlink:href="#Menlo-Regular-33" transform="translate(240.820312 0)"/>
      </g>
     </g>
    </g>
    <g id="xtick_5">
     <g id="line2d_9">
      <path d="M 496.9728 324.72 
L 496.9728 55.44 
" clip-path="url(#p099914de9b)" style="fill: none; stroke-dasharray: 2.22,0.96; stroke-dashoffset: 0; stroke: #e2d5f5; stroke-opacity: 0.7; stroke-width: 0.6"/>
     </g>
     <g id="line2d_10">
      <g>
       <use xlink:href="#m5c37971a27" x="496.9728" y="324.72" style="fill: #9b8bb8; stroke: #9b8bb8; stroke-width: 0.8"/>
      </g>
     </g>
     <g id="text_5">
      <!-- 04/04 -->
      <g style="fill: #9b8bb8" transform="translate(485.32516 353.375578) rotate(-30) scale(0.1 -0.1)">
       <use xlink:href="#Menlo-Regular-30"/>
       <use xlink:href="#Menlo-Regular-34" transform="translate(60.205078 0)"/>
       <use xlink:href="#Menlo-Regular-2f" transform="translate(120.410156 0)"/>
       <use xlink:href="#Menlo-Regular-30" transform="translate(180.615234 0)"/>
       <use xlink:href="#Menlo-Regular-34" transform="translate(240.820312 0)"/>
      </g>
     </g>
    </g>
   </g>
   <g id="matplotlib.axis_2">
    <g id="ytick_1">
     <g id="line2d_11">
      <path d="M 55.296 277.866985 
L 546.048 277.866985 
" clip-path="url(#p099914de9b)" style="fill: none; stroke-dasharray: 2.22,0.96; stroke-dashoffset: 0; stroke: #e2d5f5; stroke-opacity: 0.7; stroke-width: 0.6"/>
     </g>
     <g id="line2d_12">
      <defs>
       <path id="m3a147d40af" d="M 0 0 
L -3.5 0 
" style="stroke: #9b8bb8; stroke-width: 0.8"/>
      </defs>
      <g>
       <use xlink:href="#m3a147d40af" x="55.296" y="277.866985" style="fill: #9b8bb8; stroke: #9b8bb8; stroke-width: 0.8"/>
      </g>
     </g>
     <g id="text_6">
      <!-- 200 -->
      <g style="fill: #9b8bb8" transform="translate(30.235062 281.680266) scale(0.1 -0.1)">
       <use xlink:href="#Menlo-Regular-32"/>
       <use xlink:href="#Menlo-Regular-30" transform="translate(60.205078 0)"/>
       <use xlink:href="#Menlo-Regular-30" transform="translate(120.410156 0)"/>
      </g>
     </g>
    </g>
    <g id="ytick_2">
     <g id="line2d_13">
      <path d="M 55.296 219.300716 
L 546.048 219.300716 
" clip-path="url(#p099914de9b)" style="fill: none; stroke-dasharray: 2.22,0.96; stroke-dashoffset: 0; stroke: #e2d5f5; stroke-opacity: 0.7; stroke-width: 0.6"/>
     </g>
     <g id="line2d_14">
      <g>
       <use xlink:href="#m3a147d40af" x="55.296" y="219.300716" style="fill: #9b8bb8; stroke: #9b8bb8; stroke-width: 0.8"/>
      </g>
     </g>
     <g id="text_7">
      <!-- 205 -->
      <g style="fill: #9b8bb8" transform="translate(30.235062 223.113997) scale(0.1 -0.1)">
       <defs>
        <path id="Menlo-Regular-35" d="M 647 4666 
L 3009 4666 
L 3009 4134 
L 1222 4134 
L 1222 2988 
Q 1356 3038 1492 3061 
Q 1628 3084 1766 3084 
Q 2491 3084 2916 2656 
Q 3341 2228 3341 1497 
Q 3341 759 2895 334 
Q 2450 -91 1678 -91 
Q 1306 -91 998 -41 
Q 691 9 447 109 
L 447 750 
Q 734 594 1025 517 
Q 1316 441 1619 441 
Q 2141 441 2423 716 
Q 2706 991 2706 1497 
Q 2706 1997 2414 2275 
Q 2122 2553 1600 2553 
Q 1347 2553 1106 2495 
Q 866 2438 647 2322 
L 647 4666 
z
" transform="scale(0.015625)"/>
       </defs>
       <use xlink:href="#Menlo-Regular-32"/>
       <use xlink:href="#Menlo-Regular-30" transform="translate(60.205078 0)"/>
       <use xlink:href="#Menlo-Regular-35" transform="translate(120.410156 0)"/>
      </g>
     </g>
    </g>
    <g id="ytick_3">
     <g id="line2d_15">
      <path d="M 55.296 160.734447 
L 546.048 160.734447 
" clip-path="url(#p099914de9b)" style="fill: none; stroke-dasharray: 2.22,0.96; stroke-dashoffset: 0; stroke: #e2d5f5; stroke-opacity: 0.7; stroke-width: 0.6"/>
     </g>
     <g id="line2d_16">
      <g>
       <use xlink:href="#m3a147d40af" x="55.296" y="160.734447" style="fill: #9b8bb8; stroke: #9b8bb8; stroke-width: 0.8"/>
      </g>
     </g>
     <g id="text_8">
      <!-- 210 -->
      <g style="fill: #9b8bb8" transform="translate(30.235062 164.547728) scale(0.1 -0.1)">
       <use xlink:href="#Menlo-Regular-32"/>
       <use xlink:href="#Menlo-Regular-31" transform="translate(60.205078 0)"/>
       <use xlink:href="#Menlo-Regular-30" transform="translate(120.410156 0)"/>
      </g>
     </g>
    </g>
    <g id="ytick_4">
     <g id="line2d_17">
      <path d="M 55.296 102.168178 
L 546.048 102.168178 
" clip-path="url(#p099914de9b)" style="fill: none; stroke-dasharray: 2.22,0.96; stroke-dashoffset: 0; stroke: #e2d5f5; stroke-opacity: 0.7; stroke-width: 0.6"/>
     </g>
     <g id="line2d_18">
      <g>
       <use xlink:href="#m3a147d40af" x="55.296" y="102.168178" style="fill: #9b8bb8; stroke: #9b8bb8; stroke-width: 0.8"/>
      </g>
     </g>
     <g id="text_9">
      <!-- 215 -->
      <g style="fill: #9b8bb8" transform="translate(30.235062 105.981459) scale(0.1 -0.1)">
       <use xlink:href="#Menlo-Regular-32"/>
       <use xlink:href="#Menlo-Regular-31" transform="translate(60.205078 0)"/>
       <use xlink:href="#Menlo-Regular-35" transform="translate(120.410156 0)"/>
      </g>
     </g>
    </g>
    <g id="text_10">
     <!-- Rating -->
     <g style="fill: #9b8bb8" transform="translate(24.086625 208.140937) rotate(-90) scale(0.1 -0.1)">
      <defs>
       <path id="Menlo-Regular-52" d="M 2375 2203 
Q 2619 2141 2791 1967 
Q 2963 1794 3219 1275 
L 3853 0 
L 3175 0 
L 2619 1178 
Q 2378 1681 2186 1826 
Q 1994 1972 1684 1972 
L 1081 1972 
L 1081 0 
L 447 0 
L 447 4666 
L 1747 4666 
Q 2516 4666 2925 4319 
Q 3334 3972 3334 3316 
Q 3334 2853 3082 2561 
Q 2831 2269 2375 2203 
z
M 1081 4147 
L 1081 2491 
L 1772 2491 
Q 2225 2491 2447 2694 
Q 2669 2897 2669 3316 
Q 2669 3719 2433 3933 
Q 2197 4147 1747 4147 
L 1081 4147 
z
" transform="scale(0.015625)"/>
       <path id="Menlo-Regular-61" d="M 2194 1759 
L 2003 1759 
Q 1500 1759 1245 1582 
Q 991 1406 991 1056 
Q 991 741 1181 566 
Q 1372 391 1709 391 
Q 2184 391 2456 720 
Q 2728 1050 2731 1631 
L 2731 1759 
L 2194 1759 
z
M 3309 1997 
L 3309 0 
L 2731 0 
L 2731 519 
Q 2547 206 2267 57 
Q 1988 -91 1588 -91 
Q 1053 -91 734 211 
Q 416 513 416 1019 
Q 416 1603 808 1906 
Q 1200 2209 1959 2209 
L 2731 2209 
L 2731 2300 
Q 2728 2719 2518 2908 
Q 2309 3097 1850 3097 
Q 1556 3097 1256 3012 
Q 956 2928 672 2766 
L 672 3341 
Q 991 3463 1283 3523 
Q 1575 3584 1850 3584 
Q 2284 3584 2592 3456 
Q 2900 3328 3091 3072 
Q 3209 2916 3259 2686 
Q 3309 2456 3309 1997 
z
" transform="scale(0.015625)"/>
       <path id="Menlo-Regular-74" d="M 1919 4494 
L 1919 3500 
L 3225 3500 
L 3225 3053 
L 1919 3053 
L 1919 1153 
Q 1919 766 2066 612 
Q 2213 459 2578 459 
L 3225 459 
L 3225 0 
L 2522 0 
Q 1875 0 1609 259 
Q 1344 519 1344 1153 
L 1344 3053 
L 409 3053 
L 409 3500 
L 1344 3500 
L 1344 4494 
L 1919 4494 
z
" transform="scale(0.015625)"/>
       <path id="Menlo-Regular-69" d="M 988 3488 
L 2459 3488 
L 2459 447 
L 3600 447 
L 3600 0 
L 744 0 
L 744 447 
L 1884 447 
L 1884 3041 
L 988 3041 
L 988 3488 
z
M 1884 4847 
L 2459 4847 
L 2459 4122 
L 1884 4122 
L 1884 4847 
z
" transform="scale(0.015625)"/>
       <path id="Menlo-Regular-6e" d="M 3284 2169 
L 3284 0 
L 2706 0 
L 2706 2169 
Q 2706 2641 2540 2862 
Q 2375 3084 2022 3084 
Q 1619 3084 1401 2798 
Q 1184 2513 1184 1978 
L 1184 0 
L 609 0 
L 609 3500 
L 1184 3500 
L 1184 2975 
Q 1338 3275 1600 3429 
Q 1863 3584 2222 3584 
Q 2756 3584 3020 3232 
Q 3284 2881 3284 2169 
z
" transform="scale(0.015625)"/>
       <path id="Menlo-Regular-67" d="M 2681 1778 
Q 2681 2425 2470 2761 
Q 2259 3097 1856 3097 
Q 1434 3097 1212 2761 
Q 991 2425 991 1778 
Q 991 1131 1214 792 
Q 1438 453 1863 453 
Q 2259 453 2470 793 
Q 2681 1134 2681 1778 
z
M 3256 225 
Q 3256 -563 2884 -969 
Q 2513 -1375 1791 -1375 
Q 1553 -1375 1293 -1331 
Q 1034 -1288 775 -1203 
L 775 -634 
Q 1081 -778 1331 -847 
Q 1581 -916 1791 -916 
Q 2256 -916 2468 -662 
Q 2681 -409 2681 141 
L 2681 166 
L 2681 556 
Q 2544 263 2306 119 
Q 2069 -25 1728 -25 
Q 1116 -25 750 465 
Q 384 956 384 1778 
Q 384 2603 750 3093 
Q 1116 3584 1728 3584 
Q 2066 3584 2300 3450 
Q 2534 3316 2681 3034 
L 2681 3488 
L 3256 3488 
L 3256 225 
z
" transform="scale(0.015625)"/>
      </defs>
      <use xlink:href="#Menlo-Regular-52"/>
      <use xlink:href="#Menlo-Regular-61" transform="translate(60.205078 0)"/>
      <use xlink:href="#Menlo-Regular-74" transform="translate(120.410156 0)"/>
      <use xlink:href="#Menlo-Regular-69" transform="translate(180.615234 0)"/>
      <use xlink:href="#Menlo-Regular-6e" transform="translate(240.820312 0)"/>
      <use xlink:href="#Menlo-Regular-67" transform="translate(301.025391 0)"/>
     </g>
    </g>
   </g>
   <g id="patch_3">
    <path d="M 55.296 324.72 
L 55.296 55.44 
" style="fill: none; stroke: #d8c8ef; stroke-width: 0.8; stroke-linejoin: miter; stroke-linecap: square"/>
   </g>
   <g id="patch_4">
    <path d="M 55.296 324.72 
L 546.048 324.72 
" style="fill: none; stroke: #d8c8ef; stroke-width: 0.8; stroke-linejoin: miter; stroke-linecap: square"/>
   </g>
   <g id="FillBetweenPolyCollection_1">
    <defs>
     <path id="m4040016295" d="M 104.3712 -71.28 
L 104.3712 -129.846269 
L 105.684249 -131.010831 
L 106.997298 -132.12834 
L 108.310346 -133.199434 
L 109.623395 -134.224751 
L 110.936444 -135.204929 
L 112.249493 -136.140606 
L 113.562542 -137.03242 
L 114.875591 -137.881009 
L 116.188639 -138.687011 
L 117.501688 -139.451064 
L 118.814737 -140.173806 
L 120.127786 -140.855875 
L 121.440835 -141.49791 
L 122.753884 -142.100547 
L 124.066932 -142.664425 
L 125.379981 -143.190183 
L 126.69303 -143.678458 
L 128.006079 -144.129887 
L 129.319128 -144.54511 
L 130.632177 -144.924764 
L 131.945225 -145.269487 
L 133.258274 -145.579917 
L 134.571323 -145.856693 
L 135.884372 -146.100451 
L 137.197421 -146.311831 
L 138.51047 -146.49147 
L 139.823518 -146.640006 
L 141.136567 -146.758077 
L 142.449616 -146.846321 
L 143.762665 -146.905377 
L 145.075714 -146.935881 
L 146.388763 -146.938473 
L 147.701811 -146.91379 
L 149.01486 -146.862471 
L 150.327909 -146.785152 
L 151.640958 -146.682473 
L 152.954007 -146.555071 
L 154.267056 -146.403584 
L 155.580104 -146.228651 
L 156.893153 -146.030909 
L 158.206202 -145.810996 
L 159.519251 -145.56955 
L 160.8323 -145.307209 
L 162.145348 -145.024612 
L 163.458397 -144.722396 
L 164.771446 -144.4012 
L 166.084495 -144.06166 
L 167.397544 -143.704417 
L 168.710593 -143.330106 
L 170.023641 -142.939366 
L 171.33669 -142.532836 
L 172.649739 -142.111154 
L 173.962788 -141.674956 
L 175.275837 -141.224883 
L 176.588886 -140.76157 
L 177.901934 -140.285657 
L 179.214983 -139.797781 
L 180.528032 -139.29858 
L 181.841081 -138.788693 
L 183.15413 -138.268757 
L 184.467179 -137.739411 
L 185.780227 -137.201292 
L 187.093276 -136.655039 
L 188.406325 -136.101288 
L 189.719374 -135.54068 
L 191.032423 -134.973851 
L 192.345472 -134.401439 
L 193.65852 -133.824082 
L 194.971569 -133.24242 
L 196.284618 -132.657088 
L 197.597667 -132.068726 
L 198.910716 -131.477972 
L 200.223765 -130.885463 
L 201.536813 -130.291837 
L 202.849862 -129.697733 
L 204.162911 -129.103788 
L 205.47596 -128.510641 
L 206.789009 -127.91893 
L 208.102058 -127.329292 
L 209.415106 -126.742366 
L 210.728155 -126.158789 
L 212.041204 -125.579199 
L 213.354253 -125.004235 
L 214.667302 -124.434535 
L 215.980351 -123.870736 
L 217.293399 -123.313477 
L 218.606448 -122.763396 
L 219.919497 -122.22113 
L 221.232546 -121.687317 
L 222.545595 -121.162597 
L 223.858643 -120.647605 
L 225.171692 -120.142982 
L 226.484741 -119.649364 
L 227.79779 -119.16739 
L 229.110839 -118.697697 
L 230.423888 -118.240924 
L 231.736936 -117.797708 
L 233.049985 -117.368689 
L 234.363034 -116.954503 
L 235.676083 -116.555788 
L 236.989132 -116.173183 
L 238.302181 -115.807326 
L 239.615229 -115.458855 
L 240.928278 -115.128407 
L 242.241327 -114.816621 
L 243.554376 -114.524135 
L 244.867425 -114.251586 
L 246.180474 -113.999614 
L 247.493522 -113.768854 
L 248.806571 -113.559947 
L 250.11962 -113.373529 
L 251.432669 -113.21024 
L 252.745718 -113.070715 
L 254.058767 -112.955595 
L 255.371815 -112.865516 
L 256.684864 -112.801118 
L 257.997913 -112.763037 
L 259.310962 -112.751911 
L 260.624011 -112.76838 
L 261.93706 -112.81308 
L 263.250108 -112.88665 
L 264.563157 -112.989728 
L 265.876206 -113.122952 
L 267.189255 -113.28696 
L 268.502304 -113.482389 
L 269.815353 -113.709879 
L 271.128401 -113.970066 
L 272.44145 -114.263589 
L 273.754499 -114.591086 
L 275.067548 -114.953195 
L 276.380597 -115.350553 
L 277.693645 -115.7838 
L 279.006694 -116.253572 
L 280.319743 -116.760509 
L 281.632792 -117.305247 
L 282.945841 -117.888425 
L 284.25889 -118.510681 
L 285.571938 -119.172653 
L 286.884987 -119.874979 
L 288.198036 -120.618297 
L 289.511085 -121.403245 
L 290.824134 -122.230461 
L 292.137183 -123.100582 
L 293.450231 -124.014248 
L 294.76328 -124.972096 
L 296.076329 -125.974763 
L 297.389378 -127.022889 
L 298.702427 -128.117111 
L 300.015476 -129.258067 
L 301.328524 -130.44636 
L 302.641573 -131.681809 
L 303.954622 -132.963445 
L 305.267671 -134.290266 
L 306.58072 -135.661269 
L 307.893769 -137.075451 
L 309.206817 -138.53181 
L 310.519866 -140.029343 
L 311.832915 -141.567048 
L 313.145964 -143.143922 
L 314.459013 -144.758962 
L 315.772062 -146.411166 
L 317.08511 -148.099532 
L 318.398159 -149.823056 
L 319.711208 -151.580737 
L 321.024257 -153.371571 
L 322.337306 -155.194556 
L 323.650355 -157.048689 
L 324.963403 -158.932969 
L 326.276452 -160.846391 
L 327.589501 -162.787954 
L 328.90255 -164.756656 
L 330.215599 -166.751492 
L 331.528647 -168.771462 
L 332.841696 -170.815562 
L 334.154745 -172.88279 
L 335.467794 -174.972143 
L 336.780843 -177.082618 
L 338.093892 -179.213214 
L 339.40694 -181.362927 
L 340.719989 -183.530754 
L 342.033038 -185.715694 
L 343.346087 -187.916744 
L 344.659136 -190.132901 
L 345.972185 -192.363162 
L 347.285233 -194.606525 
L 348.598282 -196.861988 
L 349.911331 -199.128547 
L 351.22438 -201.405201 
L 352.537429 -203.690946 
L 353.850478 -205.98478 
L 355.163526 -208.2857 
L 356.476575 -210.592705 
L 357.789624 -212.904791 
L 359.102673 -215.220955 
L 360.415722 -217.540195 
L 361.728771 -219.861509 
L 363.041819 -222.183894 
L 364.354868 -224.506348 
L 365.667917 -226.827867 
L 366.980966 -229.147449 
L 368.294015 -231.464092 
L 369.607064 -233.776793 
L 370.920112 -236.084549 
L 372.233161 -238.386358 
L 373.54621 -240.681218 
L 374.859259 -242.968125 
L 376.172308 -245.246077 
L 377.485357 -247.514072 
L 378.798405 -249.771107 
L 380.111454 -252.016179 
L 381.424503 -254.248286 
L 382.737552 -256.466425 
L 384.050601 -258.669594 
L 385.363649 -260.85679 
L 386.676698 -263.02701 
L 387.989747 -265.179252 
L 389.302796 -267.312514 
L 390.615845 -269.425792 
L 391.928894 -271.518084 
L 393.241942 -273.588388 
L 394.554991 -275.635701 
L 395.86804 -277.65902 
L 397.181089 -279.657343 
L 398.494138 -281.629667 
L 399.807187 -283.57499 
L 401.120235 -285.492309 
L 402.433284 -287.380621 
L 403.746333 -289.238925 
L 405.059382 -291.066216 
L 406.372431 -292.861494 
L 407.68548 -294.623754 
L 408.998528 -296.351995 
L 410.311577 -298.045214 
L 411.624626 -299.702408 
L 412.937675 -301.322576 
L 414.250724 -302.904713 
L 415.563773 -304.447818 
L 416.876821 -305.950888 
L 418.18987 -307.412921 
L 419.502919 -308.832913 
L 420.815968 -310.209863 
L 422.129017 -311.542768 
L 423.442066 -312.830625 
L 424.755114 -314.072431 
L 426.068163 -315.267184 
L 427.381212 -316.413882 
L 428.694261 -317.511522 
L 430.00731 -318.559101 
L 431.320359 -319.555616 
L 432.633407 -320.500066 
L 433.946456 -321.391447 
L 435.259505 -322.228757 
L 436.572554 -323.010993 
L 437.885603 -323.737153 
L 439.198652 -324.406234 
L 440.5117 -325.017234 
L 441.824749 -325.56915 
L 443.137798 -326.060979 
L 444.450847 -326.491719 
L 445.763896 -326.860368 
L 447.076944 -327.165922 
L 448.389993 -327.407379 
L 449.703042 -327.583736 
L 451.016091 -327.693992 
L 452.32914 -327.737143 
L 453.642189 -327.712187 
L 454.955237 -327.61812 
L 456.268286 -327.453942 
L 457.581335 -327.218648 
L 458.894384 -326.911237 
L 460.207433 -326.530706 
L 461.520482 -326.076052 
L 462.83353 -325.546273 
L 464.146579 -324.940366 
L 465.459628 -324.257328 
L 466.772677 -323.496157 
L 468.085726 -322.655851 
L 469.398775 -321.735406 
L 470.711823 -320.733821 
L 472.024872 -319.650092 
L 473.337921 -318.483218 
L 474.65097 -317.232194 
L 475.964019 -315.89602 
L 477.277068 -314.473692 
L 478.590116 -312.964207 
L 479.903165 -311.366564 
L 481.216214 -309.679759 
L 482.529263 -307.902791 
L 483.842312 -306.034655 
L 485.155361 -304.074351 
L 486.468409 -302.020874 
L 487.781458 -299.873223 
L 489.094507 -297.630396 
L 490.407556 -295.291388 
L 491.720605 -292.855199 
L 493.033654 -290.320825 
L 494.346702 -287.687263 
L 495.659751 -284.953512 
L 496.9728 -282.118568 
L 496.9728 -71.28 
L 496.9728 -71.28 
L 495.659751 -71.28 
L 494.346702 -71.28 
L 493.033654 -71.28 
L 491.720605 -71.28 
L 490.407556 -71.28 
L 489.094507 -71.28 
L 487.781458 -71.28 
L 486.468409 -71.28 
L 485.155361 -71.28 
L 483.842312 -71.28 
L 482.529263 -71.28 
L 481.216214 -71.28 
L 479.903165 -71.28 
L 478.590116 -71.28 
L 477.277068 -71.28 
L 475.964019 -71.28 
L 474.65097 -71.28 
L 473.337921 -71.28 
L 472.024872 -71.28 
L 470.711823 -71.28 
L 469.398775 -71.28 
L 468.085726 -71.28 
L 466.772677 -71.28 
L 465.459628 -71.28 
L 464.146579 -71.28 
L 462.83353 -71.28 
L 461.520482 -71.28 
L 460.207433 -71.28 
L 458.894384 -71.28 
L 457.581335 -71.28 
L 456.268286 -71.28 
L 454.955237 -71.28 
L 453.642189 -71.28 
L 452.32914 -71.28 
L 451.016091 -71.28 
L 449.703042 -71.28 
L 448.389993 -71.28 
L 447.076944 -71.28 
L 445.763896 -71.28 
L 444.450847 -71.28 
L 443.137798 -71.28 
L 441.824749 -71.28 
L 440.5117 -71.28 
L 439.198652 -71.28 
L 437.885603 -71.28 
L 436.572554 -71.28 
L 435.259505 -71.28 
L 433.946456 -71.28 
L 432.633407 -71.28 
L 431.320359 -71.28 
L 430.00731 -71.28 
L 428.694261 -71.28 
L 427.381212 -71.28 
L 426.068163 -71.28 
L 424.755114 -71.28 
L 423.442066 -71.28 
L 422.129017 -71.28 
L 420.815968 -71.28 
L 419.502919 -71.28 
L 418.18987 -71.28 
L 416.876821 -71.28 
L 415.563773 -71.28 
L 414.250724 -71.28 
L 412.937675 -71.28 
L 411.624626 -71.28 
L 410.311577 -71.28 
L 408.998528 -71.28 
L 407.68548 -71.28 
L 406.372431 -71.28 
L 405.059382 -71.28 
L 403.746333 -71.28 
L 402.433284 -71.28 
L 401.120235 -71.28 
L 399.807187 -71.28 
L 398.494138 -71.28 
L 397.181089 -71.28 
L 395.86804 -71.28 
L 394.554991 -71.28 
L 393.241942 -71.28 
L 391.928894 -71.28 
L 390.615845 -71.28 
L 389.302796 -71.28 
L 387.989747 -71.28 
L 386.676698 -71.28 
L 385.363649 -71.28 
L 384.050601 -71.28 
L 382.737552 -71.28 
L 381.424503 -71.28 
L 380.111454 -71.28 
L 378.798405 -71.28 
L 377.485357 -71.28 
L 376.172308 -71.28 
L 374.859259 -71.28 
L 373.54621 -71.28 
L 372.233161 -71.28 
L 370.920112 -71.28 
L 369.607064 -71.28 
L 368.294015 -71.28 
L 366.980966 -71.28 
L 365.667917 -71.28 
L 364.354868 -71.28 
L 363.041819 -71.28 
L 361.728771 -71.28 
L 360.415722 -71.28 
L 359.102673 -71.28 
L 357.789624 -71.28 
L 356.476575 -71.28 
L 355.163526 -71.28 
L 353.850478 -71.28 
L 352.537429 -71.28 
L 351.22438 -71.28 
L 349.911331 -71.28 
L 348.598282 -71.28 
L 347.285233 -71.28 
L 345.972185 -71.28 
L 344.659136 -71.28 
L 343.346087 -71.28 
L 342.033038 -71.28 
L 340.719989 -71.28 
L 339.40694 -71.28 
L 338.093892 -71.28 
L 336.780843 -71.28 
L 335.467794 -71.28 
L 334.154745 -71.28 
L 332.841696 -71.28 
L 331.528647 -71.28 
L 330.215599 -71.28 
L 328.90255 -71.28 
L 327.589501 -71.28 
L 326.276452 -71.28 
L 324.963403 -71.28 
L 323.650355 -71.28 
L 322.337306 -71.28 
L 321.024257 -71.28 
L 319.711208 -71.28 
L 318.398159 -71.28 
L 317.08511 -71.28 
L 315.772062 -71.28 
L 314.459013 -71.28 
L 313.145964 -71.28 
L 311.832915 -71.28 
L 310.519866 -71.28 
L 309.206817 -71.28 
L 307.893769 -71.28 
L 306.58072 -71.28 
L 305.267671 -71.28 
L 303.954622 -71.28 
L 302.641573 -71.28 
L 301.328524 -71.28 
L 300.015476 -71.28 
L 298.702427 -71.28 
L 297.389378 -71.28 
L 296.076329 -71.28 
L 294.76328 -71.28 
L 293.450231 -71.28 
L 292.137183 -71.28 
L 290.824134 -71.28 
L 289.511085 -71.28 
L 288.198036 -71.28 
L 286.884987 -71.28 
L 285.571938 -71.28 
L 284.25889 -71.28 
L 282.945841 -71.28 
L 281.632792 -71.28 
L 280.319743 -71.28 
L 279.006694 -71.28 
L 277.693645 -71.28 
L 276.380597 -71.28 
L 275.067548 -71.28 
L 273.754499 -71.28 
L 272.44145 -71.28 
L 271.128401 -71.28 
L 269.815353 -71.28 
L 268.502304 -71.28 
L 267.189255 -71.28 
L 265.876206 -71.28 
L 264.563157 -71.28 
L 263.250108 -71.28 
L 261.93706 -71.28 
L 260.624011 -71.28 
L 259.310962 -71.28 
L 257.997913 -71.28 
L 256.684864 -71.28 
L 255.371815 -71.28 
L 254.058767 -71.28 
L 252.745718 -71.28 
L 251.432669 -71.28 
L 250.11962 -71.28 
L 248.806571 -71.28 
L 247.493522 -71.28 
L 246.180474 -71.28 
L 244.867425 -71.28 
L 243.554376 -71.28 
L 242.241327 -71.28 
L 240.928278 -71.28 
L 239.615229 -71.28 
L 238.302181 -71.28 
L 236.989132 -71.28 
L 235.676083 -71.28 
L 234.363034 -71.28 
L 233.049985 -71.28 
L 231.736936 -71.28 
L 230.423888 -71.28 
L 229.110839 -71.28 
L 227.79779 -71.28 
L 226.484741 -71.28 
L 225.171692 -71.28 
L 223.858643 -71.28 
L 222.545595 -71.28 
L 221.232546 -71.28 
L 219.919497 -71.28 
L 218.606448 -71.28 
L 217.293399 -71.28 
L 215.980351 -71.28 
L 214.667302 -71.28 
L 213.354253 -71.28 
L 212.041204 -71.28 
L 210.728155 -71.28 
L 209.415106 -71.28 
L 208.102058 -71.28 
L 206.789009 -71.28 
L 205.47596 -71.28 
L 204.162911 -71.28 
L 202.849862 -71.28 
L 201.536813 -71.28 
L 200.223765 -71.28 
L 198.910716 -71.28 
L 197.597667 -71.28 
L 196.284618 -71.28 
L 194.971569 -71.28 
L 193.65852 -71.28 
L 192.345472 -71.28 
L 191.032423 -71.28 
L 189.719374 -71.28 
L 188.406325 -71.28 
L 187.093276 -71.28 
L 185.780227 -71.28 
L 184.467179 -71.28 
L 183.15413 -71.28 
L 181.841081 -71.28 
L 180.528032 -71.28 
L 179.214983 -71.28 
L 177.901934 -71.28 
L 176.588886 -71.28 
L 175.275837 -71.28 
L 173.962788 -71.28 
L 172.649739 -71.28 
L 171.33669 -71.28 
L 170.023641 -71.28 
L 168.710593 -71.28 
L 167.397544 -71.28 
L 166.084495 -71.28 
L 164.771446 -71.28 
L 163.458397 -71.28 
L 162.145348 -71.28 
L 160.8323 -71.28 
L 159.519251 -71.28 
L 158.206202 -71.28 
L 156.893153 -71.28 
L 155.580104 -71.28 
L 154.267056 -71.28 
L 152.954007 -71.28 
L 151.640958 -71.28 
L 150.327909 -71.28 
L 149.01486 -71.28 
L 147.701811 -71.28 
L 146.388763 -71.28 
L 145.075714 -71.28 
L 143.762665 -71.28 
L 142.449616 -71.28 
L 141.136567 -71.28 
L 139.823518 -71.28 
L 138.51047 -71.28 
L 137.197421 -71.28 
L 135.884372 -71.28 
L 134.571323 -71.28 
L 133.258274 -71.28 
L 131.945225 -71.28 
L 130.632177 -71.28 
L 129.319128 -71.28 
L 128.006079 -71.28 
L 126.69303 -71.28 
L 125.379981 -71.28 
L 124.066932 -71.28 
L 122.753884 -71.28 
L 121.440835 -71.28 
L 120.127786 -71.28 
L 118.814737 -71.28 
L 117.501688 -71.28 
L 116.188639 -71.28 
L 114.875591 -71.28 
L 113.562542 -71.28 
L 112.249493 -71.28 
L 110.936444 -71.28 
L 109.623395 -71.28 
L 108.310346 -71.28 
L 106.997298 -71.28 
L 105.684249 -71.28 
L 104.3712 -71.28 
z
" style="stroke: #8b5cf6; stroke-opacity: 0.12"/>
    </defs>
    <g clip-path="url(#p099914de9b)">
     <use xlink:href="#m4040016295" x="0" y="396" style="fill: #8b5cf6; fill-opacity: 0.12; stroke: #8b5cf6; stroke-opacity: 0.12"/>
    </g>
   </g>
   <g id="text_11">
    <!-- 214 -->
    <g style="fill: #8b5cf6" transform="translate(499.9728 110.881432) scale(0.12 -0.12)">
     <use xlink:href="#Menlo-Regular-32"/>
     <use xlink:href="#Menlo-Regular-31" transform="translate(60.205078 0)"/>
     <use xlink:href="#Menlo-Regular-34" transform="translate(120.410156 0)"/>
    </g>
   </g>
   <g id="text_12">
    <!-- Rating History -->
    <g style="fill: #8b5cf6" transform="translate(55.296 50.44) scale(0.17 -0.17)">
     <defs>
      <path id="Menlo-Regular-20" transform="scale(0.015625)"/>
      <path id="Menlo-Regular-48" d="M 428 4666 
L 1063 4666 
L 1063 2878 
L 2791 2878 
L 2791 4666 
L 3425 4666 
L 3425 0 
L 2791 0 
L 2791 2347 
L 1063 2347 
L 1063 0 
L 428 0 
L 428 4666 
z
" transform="scale(0.015625)"/>
      <path id="Menlo-Regular-73" d="M 3041 3378 
L 3041 2816 
Q 2794 2959 2544 3031 
Q 2294 3103 2034 3103 
Q 1644 3103 1451 2976 
Q 1259 2850 1259 2591 
Q 1259 2356 1403 2240 
Q 1547 2125 2119 2016 
L 2350 1972 
Q 2778 1891 2998 1647 
Q 3219 1403 3219 1013 
Q 3219 494 2850 201 
Q 2481 -91 1825 -91 
Q 1566 -91 1281 -36 
Q 997 19 666 128 
L 666 722 
Q 988 556 1281 473 
Q 1575 391 1838 391 
Q 2219 391 2428 545 
Q 2638 700 2638 978 
Q 2638 1378 1872 1531 
L 1847 1538 
L 1631 1581 
Q 1134 1678 906 1908 
Q 678 2138 678 2534 
Q 678 3038 1018 3311 
Q 1359 3584 1991 3584 
Q 2272 3584 2531 3532 
Q 2791 3481 3041 3378 
z
" transform="scale(0.015625)"/>
      <path id="Menlo-Regular-6f" d="M 1925 3097 
Q 1488 3097 1263 2756 
Q 1038 2416 1038 1747 
Q 1038 1081 1263 739 
Q 1488 397 1925 397 
Q 2366 397 2591 739 
Q 2816 1081 2816 1747 
Q 2816 2416 2591 2756 
Q 2366 3097 1925 3097 
z
M 1925 3584 
Q 2653 3584 3039 3112 
Q 3425 2641 3425 1747 
Q 3425 850 3040 379 
Q 2656 -91 1925 -91 
Q 1197 -91 812 379 
Q 428 850 428 1747 
Q 428 2641 812 3112 
Q 1197 3584 1925 3584 
z
" transform="scale(0.015625)"/>
      <path id="Menlo-Regular-72" d="M 3609 2778 
Q 3425 2922 3234 2987 
Q 3044 3053 2816 3053 
Q 2278 3053 1993 2715 
Q 1709 2378 1709 1741 
L 1709 0 
L 1131 0 
L 1131 3500 
L 1709 3500 
L 1709 2816 
Q 1853 3188 2151 3386 
Q 2450 3584 2859 3584 
Q 3072 3584 3256 3531 
Q 3441 3478 3609 3366 
L 3609 2778 
z
" transform="scale(0.015625)"/>
      <path id="Menlo-Regular-79" d="M 2681 1125 
Q 2538 759 2316 163 
Q 2006 -663 1900 -844 
Q 1756 -1088 1540 -1209 
Q 1325 -1331 1038 -1331 
L 575 -1331 
L 575 -850 
L 916 -850 
Q 1169 -850 1312 -703 
Q 1456 -556 1678 56 
L 325 3500 
L 934 3500 
L 1972 763 
L 2994 3500 
L 3603 3500 
L 2681 1125 
z
" transform="scale(0.015625)"/>
     </defs>
     <use xlink:href="#Menlo-Regular-52"/>
     <use xlink:href="#Menlo-Regular-61" transform="translate(60.205078 0)"/>
     <use xlink:href="#Menlo-Regular-74" transform="translate(120.410156 0)"/>
     <use xlink:href="#Menlo-Regular-69" transform="translate(180.615234 0)"/>
     <use xlink:href="#Menlo-Regular-6e" transform="translate(240.820312 0)"/>
     <use xlink:href="#Menlo-Regular-67" transform="translate(301.025391 0)"/>
     <use xlink:href="#Menlo-Regular-20" transform="translate(361.230469 0)"/>
     <use xlink:href="#Menlo-Regular-48" transform="translate(421.435547 0)"/>
     <use xlink:href="#Menlo-Regular-69" transform="translate(481.640625 0)"/>
     <use xlink:href="#Menlo-Regular-73" transform="translate(541.845703 0)"/>
     <use xlink:href="#Menlo-Regular-74" transform="translate(602.050781 0)"/>
     <use xlink:href="#Menlo-Regular-6f" transform="translate(662.255859 0)"/>
     <use xlink:href="#Menlo-Regular-72" transform="translate(722.460938 0)"/>
     <use xlink:href="#Menlo-Regular-79" transform="translate(782.666016 0)"/>
    </g>
   </g>
   <g id="line2d_19">
    <path d="M 104.3712 266.153731 
L 108.310346 262.800566 
L 112.249493 259.859394 
L 116.188639 257.312989 
L 120.127786 255.144125 
L 124.066932 253.335575 
L 128.006079 251.870113 
L 131.945225 250.730513 
L 135.884372 249.899549 
L 139.823518 249.359994 
L 143.762665 249.094623 
L 147.701811 249.08621 
L 151.640958 249.317527 
L 155.580104 249.771349 
L 159.519251 250.43045 
L 163.458397 251.277604 
L 168.710593 252.669894 
L 173.962788 254.325044 
L 179.214983 256.202219 
L 185.780227 258.798708 
L 193.65852 262.175918 
L 221.232546 274.312683 
L 227.79779 276.83261 
L 233.049985 278.631311 
L 238.302181 280.192674 
L 243.554376 281.475865 
L 247.493522 282.231146 
L 251.432669 282.78976 
L 255.371815 283.134484 
L 259.310962 283.248089 
L 263.250108 283.11335 
L 267.189255 282.71304 
L 271.128401 282.029934 
L 275.067548 281.046805 
L 279.006694 279.746428 
L 282.945841 278.111575 
L 286.884987 276.125021 
L 290.824134 273.769539 
L 294.76328 271.027904 
L 298.702427 267.882889 
L 302.641573 264.318191 
L 306.58072 260.338731 
L 310.519866 255.970657 
L 314.459013 251.241038 
L 318.398159 246.176944 
L 322.337306 240.805444 
L 327.589501 233.212046 
L 332.841696 225.184438 
L 338.093892 216.786786 
L 344.659136 205.867099 
L 352.537429 192.309054 
L 365.667917 169.172133 
L 377.485357 148.485928 
L 385.363649 135.14321 
L 391.928894 124.481916 
L 397.181089 116.342657 
L 402.433284 108.619379 
L 407.68548 101.376246 
L 411.624626 96.297592 
L 415.563773 91.552182 
L 419.502919 87.167087 
L 423.442066 83.169375 
L 427.381212 79.586118 
L 430.00731 77.440899 
L 432.633407 75.499934 
L 435.259505 73.771243 
L 437.885603 72.262847 
L 440.5117 70.982766 
L 443.137798 69.939021 
L 445.763896 69.139632 
L 448.389993 68.592621 
L 451.016091 68.306008 
L 453.642189 68.287813 
L 456.268286 68.546058 
L 458.894384 69.088763 
L 461.520482 69.923948 
L 464.146579 71.059634 
L 466.772677 72.503843 
L 469.398775 74.264594 
L 472.024872 76.349908 
L 474.65097 78.767806 
L 477.277068 81.526308 
L 479.903165 84.633436 
L 482.529263 88.097209 
L 485.155361 91.925649 
L 487.781458 96.126777 
L 490.407556 100.708612 
L 493.033654 105.679175 
L 495.659751 111.046488 
L 496.9728 113.881432 
L 496.9728 113.881432 
" clip-path="url(#p099914de9b)" style="fill: none; stroke: #8b5cf6; stroke-width: 1.2; stroke-linecap: round"/>
   </g>
   <g id="PathCollection_1">
    <defs>
     <path id="md4d38d647d" d="M 0 2.236068 
C 0.593012 2.236068 1.161816 2.000462 1.581139 1.581139 
C 2.000462 1.161816 2.236068 0.593012 2.236068 0 
C 2.236068 -0.593012 2.000462 -1.161816 1.581139 -1.581139 
C 1.161816 -2.000462 0.593012 -2.236068 0 -2.236068 
C -0.593012 -2.236068 -1.161816 -2.000462 -1.581139 -1.581139 
C -2.000462 -1.161816 -2.236068 -0.593012 -2.236068 0 
C -2.236068 0.593012 -2.000462 1.161816 -1.581139 1.581139 
C -1.161816 2.000462 -0.593012 2.236068 0 2.236068 
z
" style="stroke: #ffffff; stroke-width: 0.8"/>
    </defs>
    <g clip-path="url(#p099914de9b)">
     <use xlink:href="#md4d38d647d" x="496.9728" y="113.881432" style="fill: #8b5cf6; stroke: #ffffff; stroke-width: 0.8"/>
    </g>
   </g>
  </g>
  <g id="axes_2">
   <g id="text_13">
    <!-- Rating -->
    <g style="fill: #9b8bb8" transform="translate(565.7472 48.312) scale(0.11 -0.11)">
     <use xlink:href="#Menlo-Regular-52"/>
     <use xlink:href="#Menlo-Regular-61" transform="translate(60.205078 0)"/>
     <use xlink:href="#Menlo-Regular-74" transform="translate(120.410156 0)"/>
     <use xlink:href="#Menlo-Regular-69" transform="translate(180.615234 0)"/>
     <use xlink:href="#Menlo-Regular-6e" transform="translate(240.820312 0)"/>
     <use xlink:href="#Menlo-Regular-67" transform="translate(301.025391 0)"/>
    </g>
   </g>
   <g id="text_14">
    <!-- 214 -->
    <g style="fill: #8b5cf6" transform="translate(565.7472 82.397063) scale(0.26 -0.26)">
     <use xlink:href="#Menlo-Regular-32"/>
     <use xlink:href="#Menlo-Regular-31" transform="translate(60.205078 0)"/>
     <use xlink:href="#Menlo-Regular-34" transform="translate(120.410156 0)"/>
    </g>
   </g>
   <g id="text_15">
    <!-- Rank -->
    <g style="fill: #9b8bb8" transform="translate(565.7472 119.592) scale(0.11 -0.11)">
     <defs>
      <path id="Menlo-Regular-6b" d="M 738 4863 
L 1331 4863 
L 1331 2047 
L 2841 3500 
L 3541 3500 
L 2163 2181 
L 3756 0 
L 3053 0 
L 1759 1806 
L 1331 1403 
L 1331 0 
L 738 0 
L 738 4863 
z
" transform="scale(0.015625)"/>
     </defs>
     <use xlink:href="#Menlo-Regular-52"/>
     <use xlink:href="#Menlo-Regular-61" transform="translate(60.205078 0)"/>
     <use xlink:href="#Menlo-Regular-6e" transform="translate(120.410156 0)"/>
     <use xlink:href="#Menlo-Regular-6b" transform="translate(180.615234 0)"/>
    </g>
   </g>
   <g id="text_16">
    <!-- #128,299 -->
    <g style="fill: #8b5cf6" transform="translate(565.7472 148.104) scale(0.14 -0.14)">
     <defs>
      <path id="Menlo-Regular-23" d="M 2138 4578 
L 1856 3472 
L 2622 3472 
L 2906 4578 
L 3406 4578 
L 3122 3472 
L 3884 3472 
L 3884 2994 
L 3006 2994 
L 2700 1766 
L 3481 1766 
L 3481 1288 
L 2578 1288 
L 2253 0 
L 1753 0 
L 2081 1288 
L 1313 1288 
L 984 0 
L 488 0 
L 813 1288 
L 6 1288 
L 6 1766 
L 934 1766 
L 1241 2994 
L 409 2994 
L 409 3472 
L 1356 3472 
L 1638 4578 
L 2138 4578 
z
M 2506 2994 
L 1741 2994 
L 1434 1766 
L 2203 1766 
L 2506 2994 
z
" transform="scale(0.015625)"/>
      <path id="Menlo-Regular-38" d="M 1925 2216 
Q 1503 2216 1273 1980 
Q 1044 1744 1044 1313 
Q 1044 881 1276 642 
Q 1509 403 1925 403 
Q 2350 403 2579 639 
Q 2809 875 2809 1313 
Q 2809 1741 2576 1978 
Q 2344 2216 1925 2216 
z
M 1375 2478 
Q 972 2581 745 2862 
Q 519 3144 519 3541 
Q 519 4097 897 4423 
Q 1275 4750 1925 4750 
Q 2578 4750 2956 4423 
Q 3334 4097 3334 3541 
Q 3334 3144 3107 2862 
Q 2881 2581 2478 2478 
Q 2947 2375 3195 2062 
Q 3444 1750 3444 1253 
Q 3444 622 3041 265 
Q 2638 -91 1925 -91 
Q 1213 -91 811 264 
Q 409 619 409 1247 
Q 409 1747 657 2061 
Q 906 2375 1375 2478 
z
M 1147 3481 
Q 1147 3106 1347 2909 
Q 1547 2713 1925 2713 
Q 2306 2713 2506 2909 
Q 2706 3106 2706 3481 
Q 2706 3863 2507 4063 
Q 2309 4263 1925 4263 
Q 1547 4263 1347 4061 
Q 1147 3859 1147 3481 
z
" transform="scale(0.015625)"/>
      <path id="Menlo-Regular-2c" d="M 1381 1128 
L 2356 1128 
L 2356 300 
L 1663 -1047 
L 1038 -1050 
L 1381 300 
L 1381 1128 
z
" transform="scale(0.015625)"/>
      <path id="Menlo-Regular-39" d="M 1863 2069 
Q 2266 2069 2495 2359 
Q 2725 2650 2725 3163 
Q 2725 3675 2495 3965 
Q 2266 4256 1863 4256 
Q 1444 4256 1231 3979 
Q 1019 3703 1019 3163 
Q 1019 2619 1230 2344 
Q 1441 2069 1863 2069 
z
M 738 97 
L 738 678 
Q 934 563 1156 502 
Q 1378 441 1619 441 
Q 2219 441 2526 892 
Q 2834 1344 2834 2222 
Q 2688 1909 2422 1742 
Q 2156 1575 1813 1575 
Q 1138 1575 767 1990 
Q 397 2406 397 3169 
Q 397 3922 776 4336 
Q 1156 4750 1850 4750 
Q 2663 4750 3041 4165 
Q 3419 3581 3419 2328 
Q 3419 1150 2964 529 
Q 2509 -91 1644 -91 
Q 1416 -91 1184 -42 
Q 953 6 738 97 
z
" transform="scale(0.015625)"/>
     </defs>
     <use xlink:href="#Menlo-Regular-23"/>
     <use xlink:href="#Menlo-Regular-31" transform="translate(60.205078 0)"/>
     <use xlink:href="#Menlo-Regular-32" transform="translate(120.410156 0)"/>
     <use xlink:href="#Menlo-Regular-38" transform="translate(180.615234 0)"/>
     <use xlink:href="#Menlo-Regular-2c" transform="translate(240.820312 0)"/>
     <use xlink:href="#Menlo-Regular-32" transform="translate(301.025391 0)"/>
     <use xlink:href="#Menlo-Regular-39" transform="translate(361.230469 0)"/>
     <use xlink:href="#Menlo-Regular-39" transform="translate(421.435547 0)"/>
    </g>
   </g>
   <g id="text_17">
    <!-- ─ 0 -->
    <g style="fill: #9b8bb8" transform="translate(565.7472 169.488) scale(0.11 -0.11)">
     <defs>
      <path id="Menlo-Regular-2500" d="M -63 1550 
L -63 2088 
L 3916 2088 
L 3916 1550 
L -63 1550 
z
" transform="scale(0.015625)"/>
     </defs>
     <use xlink:href="#Menlo-Regular-2500"/>
     <use xlink:href="#Menlo-Regular-20" transform="translate(60.205078 0)"/>
     <use xlink:href="#Menlo-Regular-30" transform="translate(120.410156 0)"/>
    </g>
   </g>
  </g>
 </g>
 <defs>
  <clipPath id="p099914de9b">
   <rect x="55.296" y="55.44" width="490.752" height="269.28"/>
  </clipPath>
 </defs>
</svg>
