<?xml version="1.0" encoding="utf-8" standalone="no"?>
<!DOCTYPE svg PUBLIC "-//W3C//DTD SVG 1.1//EN"
  "http://www.w3.org/Graphics/SVG/1.1/DTD/svg11.dtd">
<svg xmlns:xlink="http://www.w3.org/1999/xlink" width="691.2pt" height="396pt" viewBox="0 0 691.2 396" xmlns="http://www.w3.org/2000/svg" version="1.1">
 <metadata>
  <rdf:RDF xmlns:dc="http://purl.org/dc/elements/1.1/" xmlns:cc="http://creativecommons.org/ns#" xmlns:rdf="http://www.w3.org/1999/02/22-rdf-syntax-ns#">
   <cc:Work>
    <dc:type rdf:resource="http://purl.org/dc/dcmitype/StillImage"/>
    <dc:date>2026-04-06T15:36:15.562549</dc:date>
    <dc:format>image/svg+xml</dc:format>
    <dc:creator>
     <cc:Agent>
      <dc:title>Matplotlib v3.10.8, https://matplotlib.org/</dc:title>
     </cc:Agent>
    </dc:creator>
   </cc:Work>
  </rdf:RDF>
 </metadata>
 <defs>
  <style type="text/css">*{stroke-linejoin: round; stroke-linecap: butt}</style>
 </defs>
 <g id="figure_1">
  <g id="patch_1">
   <path d="M 0 396 
L 691.2 396 
L 691.2 0 
L 0 0 
L 0 396 
z
" style="fill: none"/>
  </g>
  <g id="axes_1">
   <g id="patch_2">
    <path d="M 55.296 324.72 
L 546.048 324.72 
L 546.048 55.44 
L 55.296 55.44 
L 55.296 324.72 
z
" style="fill: none"/>
   </g>
   <g id="matplotlib.axis_1">
    <g id="xtick_1">
     <g id="line2d_1">
      <path d="M 90.349714 324.72 
L 90.349714 55.44 
" clip-path="url(#p1314befbfe)" style="fill: none; stroke-dasharray: 2.22,0.96; stroke-dashoffset: 0; stroke: #e2d5f5; stroke-opacity: 0.7; stroke-width: 0.6"/>
     </g>
     <g id="line2d_2">
      <defs>
       <path id="m3c98ecf71f" d="M 0 0 
L 0 3.5 
" style="stroke: #9b8bb8; stroke-width: 0.8"/>
      </defs>
      <g>
       <use xlink:href="#m3c98ecf71f" x="90.349714" y="324.72" style="fill: #9b8bb8; stroke: #9b8bb8; stroke-width: 0.8"/>
      </g>
     </g>
     <g id="text_1">
      <!-- 03/31 -->
      <g style="fill: #9b8bb8" transform="translate(78.809333 353.301793) rotate(-30) scale(0.1 -0.1)">
       <defs>
        <path id="JetBrainsMono-Regular-30" d="M 1920 -64 
Q 1274 -64 893 310 
Q 512 685 512 1312 
L 512 3360 
Q 512 3987 893 4361 
Q 1274 4736 1920 4736 
Q 2566 4736 2947 4361 
Q 3328 3987 3328 3360 
L 3328 1312 
Q 3328 896 3155 585 
Q 2982 275 2665 105 
Q 2349 -64 1920 -64 
z
M 1920 429 
Q 2304 429 2537 675 
Q 2771 922 2771 1312 
L 2771 3360 
Q 2771 3750 2537 3996 
Q 2304 4243 1920 4243 
Q 1536 4243 1302 3996 
Q 1069 3750 1069 3360 
L 1069 1312 
Q 1069 922 1302 675 
Q 1536 429 1920 429 
z
M 1920 1984 
Q 1747 1984 1641 2080 
Q 1536 2176 1536 2355 
Q 1536 2528 1641 2621 
Q 1747 2714 1920 2714 
Q 2093 2714 2198 2621 
Q 2304 2528 2304 2355 
Q 2304 2176 2198 2080 
Q 2093 1984 1920 1984 
z
" transform="scale(0.015625)"/>
        <path id="JetBrainsMono-Regular-33" d="M 1850 -64 
Q 1203 -64 825 297 
Q 448 659 448 1280 
L 1024 1280 
Q 1024 896 1248 672 
Q 1472 448 1856 448 
Q 2240 448 2464 672 
Q 2688 896 2688 1280 
L 2688 1600 
Q 2688 1984 2464 2208 
Q 2240 2432 1856 2432 
L 1350 2432 
L 1350 2931 
L 2496 4147 
L 576 4147 
L 576 4672 
L 3149 4672 
L 3149 4134 
L 2022 2938 
Q 2598 2893 2931 2537 
Q 3264 2182 3264 1600 
L 3264 1280 
Q 3264 659 2883 297 
Q 2502 -64 1850 -64 
z
" transform="scale(0.015625)"/>
        <path id="JetBrainsMono-Regular-2f" d="M 480 -704 
L 2752 5312 
L 3360 5312 
L 1088 -704 
L 480 -704 
z
" transform="scale(0.015625)"/>
        <path id="JetBrainsMono-Regular-31" d="M 576 0 
L 576 525 
L 1843 525 
L 1843 4173 
L 576 3226 
L 576 3885 
L 1632 4672 
L 2419 4672 
L 2419 525 
L 3456 525 
L 3456 0 
L 576 0 
z
" transform="scale(0.015625)"/>
       </defs>
       <use xlink:href="#JetBrainsMono-Regular-30"/>
       <use xlink:href="#JetBrainsMono-Regular-33" transform="translate(59.999985 0)"/>
       <use xlink:href="#JetBrainsMono-Regular-2f" transform="translate(119.999969 0)"/>
       <use xlink:href="#JetBrainsMono-Regular-33" transform="translate(179.999954 0)"/>
       <use xlink:href="#JetBrainsMono-Regular-31" transform="translate(239.999939 0)"/>
      </g>
     </g>
    </g>
    <g id="xtick_2">
     <g id="line2d_3">
      <path d="M 160.457143 324.72 
L 160.457143 55.44 
" clip-path="url(#p1314befbfe)" style="fill: none; stroke-dasharray: 2.22,0.96; stroke-dashoffset: 0; stroke: #e2d5f5; stroke-opacity: 0.7; stroke-width: 0.6"/>
     </g>
     <g id="line2d_4">
      <g>
       <use xlink:href="#m3c98ecf71f" x="160.457143" y="324.72" style="fill: #9b8bb8; stroke: #9b8bb8; stroke-width: 0.8"/>
      </g>
     </g>
     <g id="text_2">
      <!-- 04/01 -->
      <g style="fill: #9b8bb8" transform="translate(148.916762 353.301793) rotate(-30) scale(0.1 -0.1)">
       <defs>
        <path id="JetBrainsMono-Regular-34" d="M 2560 0 
L 2560 1024 
L 448 1024 
L 448 1926 
L 2150 4672 
L 2803 4672 
L 1024 1798 
L 1024 1549 
L 2560 1549 
L 2560 2688 
L 3136 2688 
L 3136 0 
L 2560 0 
z
" transform="scale(0.015625)"/>
       </defs>
       <use xlink:href="#JetBrainsMono-Regular-30"/>
       <use xlink:href="#JetBrainsMono-Regular-34" transform="translate(59.999985 0)"/>
       <use xlink:href="#JetBrainsMono-Regular-2f" transform="translate(119.999969 0)"/>
       <use xlink:href="#JetBrainsMono-Regular-30" transform="translate(179.999954 0)"/>
       <use xlink:href="#JetBrainsMono-Regular-31" transform="translate(239.999939 0)"/>
      </g>
     </g>
    </g>
    <g id="xtick_3">
     <g id="line2d_5">
      <path d="M 230.564571 324.72 
L 230.564571 55.44 
" clip-path="url(#p1314befbfe)" style="fill: none; stroke-dasharray: 2.22,0.96; stroke-dashoffset: 0; stroke: #e2d5f5; stroke-opacity: 0.7; stroke-width: 0.6"/>
     </g>
     <g id="line2d_6">
      <g>
       <use xlink:href="#m3c98ecf71f" x="230.564571" y="324.72" style="fill: #9b8bb8; stroke: #9b8bb8; stroke-width: 0.8"/>
      </g>
     </g>
     <g id="text_3">
      <!-- 04/02 -->
      <g style="fill: #9b8bb8" transform="translate(219.02419 353.301793) rotate(-30) scale(0.1 -0.1)">
       <defs>
        <path id="JetBrainsMono-Regular-32" d="M 550 0 
L 550 531 
L 2106 2195 
Q 2445 2554 2585 2835 
Q 2726 3117 2726 3386 
Q 2726 3770 2505 3997 
Q 2285 4224 1907 4224 
Q 1517 4224 1289 3990 
Q 1062 3757 1062 3360 
L 486 3360 
Q 506 3994 890 4365 
Q 1274 4736 1907 4736 
Q 2554 4736 2934 4371 
Q 3315 4006 3315 3379 
Q 3315 3046 3132 2675 
Q 2950 2304 2509 1843 
L 1248 525 
L 3373 525 
L 3373 0 
L 550 0 
z
" transform="scale(0.015625)"/>
       </defs>
       <use xlink:href="#JetBrainsMono-Regular-30"/>
       <use xlink:href="#JetBrainsMono-Regular-34" transform="translate(59.999985 0)"/>
       <use xlink:href="#JetBrainsMono-Regular-2f" transform="translate(119.999969 0)"/>
       <use xlink:href="#JetBrainsMono-Regular-30" transform="translate(179.999954 0)"/>
       <use xlink:href="#JetBrainsMono-Regular-32" transform="translate(239.999939 0)"/>
      </g>
     </g>
    </g>
    <g id="xtick_4">
     <g id="line2d_7">
      <path d="M 300.672 324.72 
L 300.672 55.44 
" clip-path="url(#p1314befbfe)" style="fill: none; stroke-dasharray: 2.22,0.96; stroke-dashoffset: 0; stroke: #e2d5f5; stroke-opacity: 0.7; stroke-width: 0.6"/>
     </g>
     <g id="line2d_8">
      <g>
       <use xlink:href="#m3c98ecf71f" x="300.672" y="324.72" style="fill: #9b8bb8; stroke: #9b8bb8; stroke-width: 0.8"/>
      </g>
     </g>
     <g id="text_4">
      <!-- 04/03 -->
      <g style="fill: #9b8bb8" transform="translate(289.131619 353.301793) rotate(-30) scale(0.1 -0.1)">
       <use xlink:href="#JetBrainsMono-Regular-30"/>
       <use xlink:href="#JetBrainsMono-Regular-34" transform="translate(59.999985 0)"/>
       <use xlink:href="#JetBrainsMono-Regular-2f" transform="translate(119.999969 0)"/>
       <use xlink:href="#JetBrainsMono-Regular-30" transform="translate(179.999954 0)"/>
       <use xlink:href="#JetBrainsMono-Regular-33" transform="translate(239.999939 0)"/>
      </g>
     </g>
    </g>
    <g id="xtick_5">
     <g id="line2d_9">
      <path d="M 370.779429 324.72 
L 370.779429 55.44 
" clip-path="url(#p1314befbfe)" style="fill: none; stroke-dasharray: 2.22,0.96; stroke-dashoffset: 0; stroke: #e2d5f5; stroke-opacity: 0.7; stroke-width: 0.6"/>
     </g>
     <g id="line2d_10">
      <g>
       <use xlink:href="#m3c98ecf71f" x="370.779429" y="324.72" style="fill: #9b8bb8; stroke: #9b8bb8; stroke-width: 0.8"/>
      </g>
     </g>
     <g id="text_5">
      <!-- 04/04 -->
      <g style="fill: #9b8bb8" transform="translate(359.239048 353.301793) rotate(-30) scale(0.1 -0.1)">
       <use xlink:href="#JetBrainsMono-Regular-30"/>
       <use xlink:href="#JetBrainsMono-Regular-34" transform="translate(59.999985 0)"/>
       <use xlink:href="#JetBrainsMono-Regular-2f" transform="translate(119.999969 0)"/>
       <use xlink:href="#JetBrainsMono-Regular-30" transform="translate(179.999954 0)"/>
       <use xlink:href="#JetBrainsMono-Regular-34" transform="translate(239.999939 0)"/>
      </g>
     </g>
    </g>
    <g id="xtick_6">
     <g id="line2d_11">
      <path d="M 440.886857 324.72 
L 440.886857 55.44 
" clip-path="url(#p1314befbfe)" style="fill: none; stroke-dasharray: 2.22,0.96; stroke-dashoffset: 0; stroke: #e2d5f5; stroke-opacity: 0.7; stroke-width: 0.6"/>
     </g>
     <g id="line2d_12">
      <g>
       <use xlink:href="#m3c98ecf71f" x="440.886857" y="324.72" style="fill: #9b8bb8; stroke: #9b8bb8; stroke-width: 0.8"/>
      </g>
     </g>
     <g id="text_6">
      <!-- 04/05 -->
      <g style="fill: #9b8bb8" transform="translate(429.346476 353.301793) rotate(-30) scale(0.1 -0.1)">
       <defs>
        <path id="JetBrainsMono-Regular-35" d="M 1882 -64 
Q 1235 -64 857 297 
Q 480 659 480 1280 
L 1056 1280 
Q 1056 896 1280 672 
Q 1504 448 1888 448 
Q 2272 448 2496 672 
Q 2720 896 2720 1280 
L 2720 1568 
Q 2720 1952 2502 2176 
Q 2285 2400 1914 2400 
L 640 2400 
L 640 4672 
L 3130 4672 
L 3130 4147 
L 1178 4147 
L 1190 2925 
L 1946 2925 
Q 2592 2925 2944 2569 
Q 3296 2214 3296 1568 
L 3296 1280 
Q 3296 659 2915 297 
Q 2534 -64 1882 -64 
z
" transform="scale(0.015625)"/>
       </defs>
       <use xlink:href="#JetBrainsMono-Regular-30"/>
       <use xlink:href="#JetBrainsMono-Regular-34" transform="translate(59.999985 0)"/>
       <use xlink:href="#JetBrainsMono-Regular-2f" transform="translate(119.999969 0)"/>
       <use xlink:href="#JetBrainsMono-Regular-30" transform="translate(179.999954 0)"/>
       <use xlink:href="#JetBrainsMono-Regular-35" transform="translate(239.999939 0)"/>
      </g>
     </g>
    </g>
    <g id="xtick_7">
     <g id="line2d_13">
      <path d="M 510.994286 324.72 
L 510.994286 55.44 
" clip-path="url(#p1314befbfe)" style="fill: none; stroke-dasharray: 2.22,0.96; stroke-dashoffset: 0; stroke: #e2d5f5; stroke-opacity: 0.7; stroke-width: 0.6"/>
     </g>
     <g id="line2d_14">
      <g>
       <use xlink:href="#m3c98ecf71f" x="510.994286" y="324.72" style="fill: #9b8bb8; stroke: #9b8bb8; stroke-width: 0.8"/>
      </g>
     </g>
     <g id="text_7">
      <!-- 04/06 -->
      <g style="fill: #9b8bb8" transform="translate(499.453905 353.301793) rotate(-30) scale(0.1 -0.1)">
       <defs>
        <path id="JetBrainsMono-Regular-36" d="M 1926 -64 
Q 1478 -64 1136 125 
Q 794 314 602 650 
Q 410 986 410 1427 
Q 410 1734 525 2057 
Q 640 2381 838 2733 
L 1920 4672 
L 2560 4672 
L 1408 2669 
L 1427 2656 
Q 1510 2765 1676 2822 
Q 1843 2880 2042 2880 
Q 2458 2880 2768 2697 
Q 3078 2515 3254 2195 
Q 3430 1875 3430 1453 
Q 3430 1005 3238 662 
Q 3046 320 2710 128 
Q 2374 -64 1926 -64 
z
M 1920 448 
Q 2336 448 2595 723 
Q 2854 998 2854 1440 
Q 2854 1882 2595 2157 
Q 2336 2432 1920 2432 
Q 1504 2432 1245 2157 
Q 986 1882 986 1440 
Q 986 998 1245 723 
Q 1504 448 1920 448 
z
" transform="scale(0.015625)"/>
       </defs>
       <use xlink:href="#JetBrainsMono-Regular-30"/>
       <use xlink:href="#JetBrainsMono-Regular-34" transform="translate(59.999985 0)"/>
       <use xlink:href="#JetBrainsMono-Regular-2f" transform="translate(119.999969 0)"/>
       <use xlink:href="#JetBrainsMono-Regular-30" transform="translate(179.999954 0)"/>
       <use xlink:href="#JetBrainsMono-Regular-36" transform="translate(239.999939 0)"/>
      </g>
     </g>
    </g>
   </g>
   <g id="matplotlib.axis_2">
    <g id="ytick_1">
     <g id="line2d_15">
      <path d="M 55.296 284.356877 
L 546.048 284.356877 
" clip-path="url(#p1314befbfe)" style="fill: none; stroke-dasharray: 2.22,0.96; stroke-dashoffset: 0; stroke: #e2d5f5; stroke-opacity: 0.7; stroke-width: 0.6"/>
     </g>
     <g id="line2d_16">
      <defs>
       <path id="mb9dd2ede56" d="M 0 0 
L -3.5 0 
" style="stroke: #9b8bb8; stroke-width: 0.8"/>
      </defs>
      <g>
       <use xlink:href="#mb9dd2ede56" x="55.296" y="284.356877" style="fill: #9b8bb8; stroke: #9b8bb8; stroke-width: 0.8"/>
      </g>
     </g>
     <g id="text_8">
      <!-- 200 -->
      <g style="fill: #9b8bb8" transform="translate(30.296 288.006877) scale(0.1 -0.1)">
       <use xlink:href="#JetBrainsMono-Regular-32"/>
       <use xlink:href="#JetBrainsMono-Regular-30" transform="translate(59.999985 0)"/>
       <use xlink:href="#JetBrainsMono-Regular-30" transform="translate(119.999969 0)"/>
      </g>
     </g>
    </g>
    <g id="ytick_2">
     <g id="line2d_17">
      <path d="M 55.296 233.902974 
L 546.048 233.902974 
" clip-path="url(#p1314befbfe)" style="fill: none; stroke-dasharray: 2.22,0.96; stroke-dashoffset: 0; stroke: #e2d5f5; stroke-opacity: 0.7; stroke-width: 0.6"/>
     </g>
     <g id="line2d_18">
      <g>
       <use xlink:href="#mb9dd2ede56" x="55.296" y="233.902974" style="fill: #9b8bb8; stroke: #9b8bb8; stroke-width: 0.8"/>
      </g>
     </g>
     <g id="text_9">
      <!-- 205 -->
      <g style="fill: #9b8bb8" transform="translate(30.296 237.552974) scale(0.1 -0.1)">
       <use xlink:href="#JetBrainsMono-Regular-32"/>
       <use xlink:href="#JetBrainsMono-Regular-30" transform="translate(59.999985 0)"/>
       <use xlink:href="#JetBrainsMono-Regular-35" transform="translate(119.999969 0)"/>
      </g>
     </g>
    </g>
    <g id="ytick_3">
     <g id="line2d_19">
      <path d="M 55.296 183.44907 
L 546.048 183.44907 
" clip-path="url(#p1314befbfe)" style="fill: none; stroke-dasharray: 2.22,0.96; stroke-dashoffset: 0; stroke: #e2d5f5; stroke-opacity: 0.7; stroke-width: 0.6"/>
     </g>
     <g id="line2d_20">
      <g>
       <use xlink:href="#mb9dd2ede56" x="55.296" y="183.44907" style="fill: #9b8bb8; stroke: #9b8bb8; stroke-width: 0.8"/>
      </g>
     </g>
     <g id="text_10">
      <!-- 210 -->
      <g style="fill: #9b8bb8" transform="translate(30.296 187.09907) scale(0.1 -0.1)">
       <use xlink:href="#JetBrainsMono-Regular-32"/>
       <use xlink:href="#JetBrainsMono-Regular-31" transform="translate(59.999985 0)"/>
       <use xlink:href="#JetBrainsMono-Regular-30" transform="translate(119.999969 0)"/>
      </g>
     </g>
    </g>
    <g id="ytick_4">
     <g id="line2d_21">
      <path d="M 55.296 132.995166 
L 546.048 132.995166 
" clip-path="url(#p1314befbfe)" style="fill: none; stroke-dasharray: 2.22,0.96; stroke-dashoffset: 0; stroke: #e2d5f5; stroke-opacity: 0.7; stroke-width: 0.6"/>
     </g>
     <g id="line2d_22">
      <g>
       <use xlink:href="#mb9dd2ede56" x="55.296" y="132.995166" style="fill: #9b8bb8; stroke: #9b8bb8; stroke-width: 0.8"/>
      </g>
     </g>
     <g id="text_11">
      <!-- 215 -->
      <g style="fill: #9b8bb8" transform="translate(30.296 136.645166) scale(0.1 -0.1)">
       <use xlink:href="#JetBrainsMono-Regular-32"/>
       <use xlink:href="#JetBrainsMono-Regular-31" transform="translate(59.999985 0)"/>
       <use xlink:href="#JetBrainsMono-Regular-35" transform="translate(119.999969 0)"/>
      </g>
     </g>
    </g>
    <g id="ytick_5">
     <g id="line2d_23">
      <path d="M 55.296 82.541263 
L 546.048 82.541263 
" clip-path="url(#p1314befbfe)" style="fill: none; stroke-dasharray: 2.22,0.96; stroke-dashoffset: 0; stroke: #e2d5f5; stroke-opacity: 0.7; stroke-width: 0.6"/>
     </g>
     <g id="line2d_24">
      <g>
       <use xlink:href="#mb9dd2ede56" x="55.296" y="82.541263" style="fill: #9b8bb8; stroke: #9b8bb8; stroke-width: 0.8"/>
      </g>
     </g>
     <g id="text_12">
      <!-- 220 -->
      <g style="fill: #9b8bb8" transform="translate(30.296 86.191263) scale(0.1 -0.1)">
       <use xlink:href="#JetBrainsMono-Regular-32"/>
       <use xlink:href="#JetBrainsMono-Regular-32" transform="translate(59.999985 0)"/>
       <use xlink:href="#JetBrainsMono-Regular-30" transform="translate(119.999969 0)"/>
      </g>
     </g>
    </g>
    <g id="text_13">
     <!-- Rating -->
     <g style="fill: #9b8bb8" transform="translate(24.496 208.08) rotate(-90) scale(0.1 -0.1)">
      <defs>
       <path id="JetBrainsMono-Regular-52" d="M 595 0 
L 595 4672 
L 2035 4672 
Q 2451 4672 2764 4502 
Q 3078 4333 3251 4032 
Q 3424 3731 3424 3328 
Q 3424 2854 3181 2515 
Q 2938 2176 2534 2042 
L 3488 0 
L 2854 0 
L 1939 1984 
L 1165 1984 
L 1165 0 
L 595 0 
z
M 1165 2502 
L 2035 2502 
Q 2394 2502 2611 2729 
Q 2829 2957 2829 3328 
Q 2829 3706 2611 3930 
Q 2394 4154 2035 4154 
L 1165 4154 
L 1165 2502 
z
" transform="scale(0.015625)"/>
       <path id="JetBrainsMono-Regular-61" d="M 1613 -64 
Q 1069 -64 749 240 
Q 429 544 429 1037 
Q 429 1363 576 1606 
Q 723 1850 985 1987 
Q 1248 2125 1587 2125 
L 2675 2125 
L 2675 2400 
Q 2675 3085 1926 3085 
Q 1594 3085 1389 2963 
Q 1184 2842 1171 2624 
L 595 2624 
Q 627 3040 982 3312 
Q 1338 3584 1926 3584 
Q 2566 3584 2908 3277 
Q 3251 2970 3251 2419 
L 3251 0 
L 2682 0 
L 2682 640 
L 2669 640 
Q 2618 314 2342 125 
Q 2067 -64 1613 -64 
z
M 1754 422 
Q 2176 422 2425 627 
Q 2675 832 2675 1184 
L 2675 1677 
L 1651 1677 
Q 1370 1677 1194 1507 
Q 1018 1338 1018 1056 
Q 1018 762 1213 592 
Q 1408 422 1754 422 
z
" transform="scale(0.015625)"/>
       <path id="JetBrainsMono-Regular-74" d="M 2272 0 
Q 1837 0 1574 253 
Q 1312 506 1312 928 
L 1312 2995 
L 301 2995 
L 301 3520 
L 1312 3520 
L 1312 4512 
L 1888 4512 
L 1888 3520 
L 3328 3520 
L 3328 2995 
L 1888 2995 
L 1888 928 
Q 1888 749 1993 637 
Q 2099 525 2272 525 
L 3296 525 
L 3296 0 
L 2272 0 
z
" transform="scale(0.015625)"/>
       <path id="JetBrainsMono-Regular-69" d="M 544 0 
L 544 525 
L 1792 525 
L 1792 2995 
L 672 2995 
L 672 3520 
L 2368 3520 
L 2368 525 
L 3552 525 
L 3552 0 
L 544 0 
z
M 2016 4154 
Q 1805 4154 1683 4262 
Q 1562 4371 1562 4557 
Q 1562 4749 1683 4861 
Q 1805 4973 2016 4973 
Q 2227 4973 2348 4861 
Q 2470 4749 2470 4557 
Q 2470 4371 2348 4262 
Q 2227 4154 2016 4154 
z
" transform="scale(0.015625)"/>
       <path id="JetBrainsMono-Regular-6e" d="M 589 0 
L 589 3520 
L 1165 3520 
L 1165 2848 
L 1171 2848 
Q 1216 3200 1459 3392 
Q 1702 3584 2106 3584 
Q 2637 3584 2950 3257 
Q 3264 2931 3264 2368 
L 3264 0 
L 2688 0 
L 2688 2266 
Q 2688 2669 2486 2883 
Q 2285 3098 1939 3098 
Q 1581 3098 1373 2874 
Q 1165 2650 1165 2240 
L 1165 0 
L 589 0 
z
" transform="scale(0.015625)"/>
       <path id="JetBrainsMono-Regular-67" d="M 1030 -1152 
L 1030 -627 
L 2022 -627 
Q 2323 -627 2496 -457 
Q 2669 -288 2669 0 
L 2669 320 
L 2682 896 
L 2662 896 
Q 2611 582 2361 412 
Q 2112 243 1734 243 
Q 1190 243 876 588 
Q 563 934 563 1536 
L 563 2278 
Q 563 2880 876 3232 
Q 1190 3584 1734 3584 
Q 2112 3584 2361 3405 
Q 2611 3226 2662 2912 
L 2675 2912 
L 2675 3520 
L 3245 3520 
L 3245 0 
Q 3245 -531 2915 -841 
Q 2586 -1152 2016 -1152 
L 1030 -1152 
z
M 1907 723 
Q 2266 723 2470 947 
Q 2675 1171 2675 1568 
L 2675 2240 
Q 2675 2637 2470 2861 
Q 2266 3085 1907 3085 
Q 1542 3085 1340 2873 
Q 1139 2662 1139 2304 
L 1139 1504 
Q 1139 1146 1340 934 
Q 1542 723 1907 723 
z
" transform="scale(0.015625)"/>
      </defs>
      <use xlink:href="#JetBrainsMono-Regular-52"/>
      <use xlink:href="#JetBrainsMono-Regular-61" transform="translate(59.999985 0)"/>
      <use xlink:href="#JetBrainsMono-Regular-74" transform="translate(119.999969 0)"/>
      <use xlink:href="#JetBrainsMono-Regular-69" transform="translate(179.999954 0)"/>
      <use xlink:href="#JetBrainsMono-Regular-6e" transform="translate(239.999939 0)"/>
      <use xlink:href="#JetBrainsMono-Regular-67" transform="translate(299.999924 0)"/>
     </g>
    </g>
   </g>
   <g id="patch_3">
    <path d="M 55.296 324.72 
L 55.296 55.44 
" style="fill: none; stroke: #d8c8ef; stroke-width: 0.8; stroke-linejoin: miter; stroke-linecap: square"/>
   </g>
   <g id="patch_4">
    <path d="M 55.296 324.72 
L 546.048 324.72 
" style="fill: none; stroke: #d8c8ef; stroke-width: 0.8; stroke-linejoin: miter; stroke-linecap: square"/>
   </g>
   <g id="FillBetweenPolyCollection_1">
    <defs>
     <path id="m3421bfa637" d="M 90.349714 -71.28 
L 90.349714 -121.733904 
L 91.756552 -123.429336 
L 93.16339 -125.021668 
L 94.570228 -126.51301 
L 95.977066 -127.905475 
L 97.383904 -129.201173 
L 98.790742 -130.402215 
L 100.197581 -131.510713 
L 101.604419 -132.528778 
L 103.011257 -133.458521 
L 104.418095 -134.302054 
L 105.824933 -135.061487 
L 107.231771 -135.738933 
L 108.638609 -136.336502 
L 110.045447 -136.856306 
L 111.452285 -137.300456 
L 112.859123 -137.671063 
L 114.265961 -137.970239 
L 115.672799 -138.200094 
L 117.079637 -138.36274 
L 118.486475 -138.460289 
L 119.893313 -138.494851 
L 121.300151 -138.468539 
L 122.706989 -138.383462 
L 124.113827 -138.241733 
L 125.520665 -138.045463 
L 126.927503 -137.796762 
L 128.334341 -137.497743 
L 129.741179 -137.150516 
L 131.148017 -136.757193 
L 132.554855 -136.319886 
L 133.961693 -135.840704 
L 135.368531 -135.321761 
L 136.775369 -134.765166 
L 138.182207 -134.173031 
L 139.589045 -133.547468 
L 140.995883 -132.890588 
L 142.402721 -132.204501 
L 143.809559 -131.49132 
L 145.216398 -130.753156 
L 146.623236 -129.992119 
L 148.030074 -129.210321 
L 149.436912 -128.409874 
L 150.84375 -127.592889 
L 152.250588 -126.761476 
L 153.657426 -125.917748 
L 155.064264 -125.063815 
L 156.471102 -124.201789 
L 157.87794 -123.333781 
L 159.284778 -122.461903 
L 160.691616 -121.588265 
L 162.098454 -120.714978 
L 163.505292 -119.844156 
L 164.91213 -118.977907 
L 166.318968 -118.118344 
L 167.725806 -117.267578 
L 169.132644 -116.427721 
L 170.539482 -115.600883 
L 171.94632 -114.789175 
L 173.353158 -113.99471 
L 174.759996 -113.219598 
L 176.166834 -112.465951 
L 177.573672 -111.73588 
L 178.98051 -111.031496 
L 180.387348 -110.35491 
L 181.794186 -109.708234 
L 183.201024 -109.093579 
L 184.607862 -108.513057 
L 186.0147 -107.968778 
L 187.421538 -107.462853 
L 188.828376 -106.997395 
L 190.235215 -106.574515 
L 191.642053 -106.196323 
L 193.048891 -105.864931 
L 194.455729 -105.58245 
L 195.862567 -105.350991 
L 197.269405 -105.172667 
L 198.676243 -105.049587 
L 200.083081 -104.983864 
L 201.489919 -104.977608 
L 202.896757 -105.032932 
L 204.303595 -105.151945 
L 205.710433 -105.33676 
L 207.117271 -105.589487 
L 208.524109 -105.912239 
L 209.930947 -106.307125 
L 211.337785 -106.776259 
L 212.744623 -107.32175 
L 214.151461 -107.94571 
L 215.558299 -108.65025 
L 216.965137 -109.437483 
L 218.371975 -110.309518 
L 219.778813 -111.268467 
L 221.185651 -112.316441 
L 222.592489 -113.455553 
L 223.999327 -114.687912 
L 225.406165 -116.015631 
L 226.813003 -117.44082 
L 228.219841 -118.965591 
L 229.626679 -120.592055 
L 231.033517 -122.322285 
L 232.440355 -124.156016 
L 233.847194 -126.089364 
L 235.254032 -128.118133 
L 236.66087 -130.238125 
L 238.067708 -132.445146 
L 239.474546 -134.734997 
L 240.881384 -137.103484 
L 242.288222 -139.54641 
L 243.69506 -142.059577 
L 245.101898 -144.638791 
L 246.508736 -147.279855 
L 247.915574 -149.978572 
L 249.322412 -152.730746 
L 250.72925 -155.532181 
L 252.136088 -158.37868 
L 253.542926 -161.266047 
L 254.949764 -164.190085 
L 256.356602 -167.146599 
L 257.76344 -170.131392 
L 259.170278 -173.140268 
L 260.577116 -176.169029 
L 261.983954 -179.213481 
L 263.390792 -182.269426 
L 264.79763 -185.332669 
L 266.204468 -188.399012 
L 267.611306 -191.46426 
L 269.018144 -194.524217 
L 270.424982 -197.574685 
L 271.83182 -200.611468 
L 273.238658 -203.630371 
L 274.645496 -206.627197 
L 276.052334 -209.597749 
L 277.459172 -212.537832 
L 278.866011 -215.443248 
L 280.272849 -218.309801 
L 281.679687 -221.133296 
L 283.086525 -223.909536 
L 284.493363 -226.634324 
L 285.900201 -229.303464 
L 287.307039 -231.91276 
L 288.713877 -234.458016 
L 290.120715 -236.935034 
L 291.527553 -239.339619 
L 292.934391 -241.667575 
L 294.341229 -243.914705 
L 295.748067 -246.076812 
L 297.154905 -248.149701 
L 298.561743 -250.129175 
L 299.968581 -252.011037 
L 301.375419 -253.791241 
L 302.782257 -255.469153 
L 304.189095 -257.047558 
L 305.595933 -258.529389 
L 307.002771 -259.917577 
L 308.409609 -261.215056 
L 309.816447 -262.424758 
L 311.223285 -263.549615 
L 312.630123 -264.59256 
L 314.036961 -265.556525 
L 315.443799 -266.444443 
L 316.850637 -267.259247 
L 318.257475 -268.003868 
L 319.664313 -268.68124 
L 321.071151 -269.294294 
L 322.477989 -269.845963 
L 323.884828 -270.339181 
L 325.291666 -270.776878 
L 326.698504 -271.161989 
L 328.105342 -271.497444 
L 329.51218 -271.786177 
L 330.919018 -272.031121 
L 332.325856 -272.235207 
L 333.732694 -272.401368 
L 335.139532 -272.532537 
L 336.54637 -272.631647 
L 337.953208 -272.701628 
L 339.360046 -272.745415 
L 340.766884 -272.76594 
L 342.173722 -272.766135 
L 343.58056 -272.748932 
L 344.987398 -272.717264 
L 346.394236 -272.674064 
L 347.801074 -272.622264 
L 349.207912 -272.564797 
L 350.61475 -272.504594 
L 352.021588 -272.44459 
L 353.428426 -272.387715 
L 354.835264 -272.336903 
L 356.242102 -272.295085 
L 357.64894 -272.265195 
L 359.055778 -272.250166 
L 360.462616 -272.252928 
L 361.869454 -272.276416 
L 363.276292 -272.323561 
L 364.68313 -272.397296 
L 366.089968 -272.500554 
L 367.496806 -272.636266 
L 368.903645 -272.807366 
L 370.310483 -273.016785 
L 371.717321 -273.267255 
L 373.124159 -273.559146 
L 374.530997 -273.891311 
L 375.937835 -274.262577 
L 377.344673 -274.671769 
L 378.751511 -275.117715 
L 380.158349 -275.59924 
L 381.565187 -276.115172 
L 382.972025 -276.664335 
L 384.378863 -277.245558 
L 385.785701 -277.857666 
L 387.192539 -278.499485 
L 388.599377 -279.169843 
L 390.006215 -279.867565 
L 391.413053 -280.591479 
L 392.819891 -281.340409 
L 394.226729 -282.113184 
L 395.633567 -282.908629 
L 397.040405 -283.72557 
L 398.447243 -284.562834 
L 399.854081 -285.419248 
L 401.260919 -286.293638 
L 402.667757 -287.184831 
L 404.074595 -288.091652 
L 405.481433 -289.012928 
L 406.888271 -289.947486 
L 408.295109 -290.894152 
L 409.701947 -291.851752 
L 411.108785 -292.819114 
L 412.515624 -293.795062 
L 413.922462 -294.778425 
L 415.3293 -295.768027 
L 416.736138 -296.762696 
L 418.142976 -297.761258 
L 419.549814 -298.76254 
L 420.956652 -299.765367 
L 422.36349 -300.768567 
L 423.770328 -301.770965 
L 425.177166 -302.771388 
L 426.584004 -303.768663 
L 427.990842 -304.761616 
L 429.39768 -305.749073 
L 430.804518 -306.729861 
L 432.211356 -307.702807 
L 433.618194 -308.666735 
L 435.025032 -309.620474 
L 436.43187 -310.56285 
L 437.838708 -311.492688 
L 439.245546 -312.408816 
L 440.652384 -313.310059 
L 442.059222 -314.195245 
L 443.46606 -315.063199 
L 444.872898 -315.912748 
L 446.279736 -316.742719 
L 447.686574 -317.551937 
L 449.093412 -318.33923 
L 450.50025 -319.103424 
L 451.907088 -319.843344 
L 453.313926 -320.557819 
L 454.720764 -321.245673 
L 456.127602 -321.905733 
L 457.534441 -322.536827 
L 458.941279 -323.137779 
L 460.348117 -323.707417 
L 461.754955 -324.244568 
L 463.161793 -324.748056 
L 464.568631 -325.21671 
L 465.975469 -325.649355 
L 467.382307 -326.044818 
L 468.789145 -326.401925 
L 470.195983 -326.719503 
L 471.602821 -326.996377 
L 473.009659 -327.231376 
L 474.416497 -327.423324 
L 475.823335 -327.571048 
L 477.230173 -327.673375 
L 478.637011 -327.729131 
L 480.043849 -327.737143 
L 481.450687 -327.696237 
L 482.857525 -327.605239 
L 484.264363 -327.462976 
L 485.671201 -327.268274 
L 487.078039 -327.01996 
L 488.484877 -326.71686 
L 489.891715 -326.3578 
L 491.298553 -325.941608 
L 492.705391 -325.467109 
L 494.112229 -324.933129 
L 495.519067 -324.338496 
L 496.925905 -323.682035 
L 498.332743 -322.962574 
L 499.739581 -322.178938 
L 501.146419 -321.329954 
L 502.553258 -320.414448 
L 503.960096 -319.431247 
L 505.366934 -318.379177 
L 506.773772 -317.257064 
L 508.18061 -316.063736 
L 509.587448 -314.798018 
L 510.994286 -313.458737 
L 510.994286 -71.28 
L 510.994286 -71.28 
L 509.587448 -71.28 
L 508.18061 -71.28 
L 506.773772 -71.28 
L 505.366934 -71.28 
L 503.960096 -71.28 
L 502.553258 -71.28 
L 501.146419 -71.28 
L 499.739581 -71.28 
L 498.332743 -71.28 
L 496.925905 -71.28 
L 495.519067 -71.28 
L 494.112229 -71.28 
L 492.705391 -71.28 
L 491.298553 -71.28 
L 489.891715 -71.28 
L 488.484877 -71.28 
L 487.078039 -71.28 
L 485.671201 -71.28 
L 484.264363 -71.28 
L 482.857525 -71.28 
L 481.450687 -71.28 
L 480.043849 -71.28 
L 478.637011 -71.28 
L 477.230173 -71.28 
L 475.823335 -71.28 
L 474.416497 -71.28 
L 473.009659 -71.28 
L 471.602821 -71.28 
L 470.195983 -71.28 
L 468.789145 -71.28 
L 467.382307 -71.28 
L 465.975469 -71.28 
L 464.568631 -71.28 
L 463.161793 -71.28 
L 461.754955 -71.28 
L 460.348117 -71.28 
L 458.941279 -71.28 
L 457.534441 -71.28 
L 456.127602 -71.28 
L 454.720764 -71.28 
L 453.313926 -71.28 
L 451.907088 -71.28 
L 450.50025 -71.28 
L 449.093412 -71.28 
L 447.686574 -71.28 
L 446.279736 -71.28 
L 444.872898 -71.28 
L 443.46606 -71.28 
L 442.059222 -71.28 
L 440.652384 -71.28 
L 439.245546 -71.28 
L 437.838708 -71.28 
L 436.43187 -71.28 
L 435.025032 -71.28 
L 433.618194 -71.28 
L 432.211356 -71.28 
L 430.804518 -71.28 
L 429.39768 -71.28 
L 427.990842 -71.28 
L 426.584004 -71.28 
L 425.177166 -71.28 
L 423.770328 -71.28 
L 422.36349 -71.28 
L 420.956652 -71.28 
L 419.549814 -71.28 
L 418.142976 -71.28 
L 416.736138 -71.28 
L 415.3293 -71.28 
L 413.922462 -71.28 
L 412.515624 -71.28 
L 411.108785 -71.28 
L 409.701947 -71.28 
L 408.295109 -71.28 
L 406.888271 -71.28 
L 405.481433 -71.28 
L 404.074595 -71.28 
L 402.667757 -71.28 
L 401.260919 -71.28 
L 399.854081 -71.28 
L 398.447243 -71.28 
L 397.040405 -71.28 
L 395.633567 -71.28 
L 394.226729 -71.28 
L 392.819891 -71.28 
L 391.413053 -71.28 
L 390.006215 -71.28 
L 388.599377 -71.28 
L 387.192539 -71.28 
L 385.785701 -71.28 
L 384.378863 -71.28 
L 382.972025 -71.28 
L 381.565187 -71.28 
L 380.158349 -71.28 
L 378.751511 -71.28 
L 377.344673 -71.28 
L 375.937835 -71.28 
L 374.530997 -71.28 
L 373.124159 -71.28 
L 371.717321 -71.28 
L 370.310483 -71.28 
L 368.903645 -71.28 
L 367.496806 -71.28 
L 366.089968 -71.28 
L 364.68313 -71.28 
L 363.276292 -71.28 
L 361.869454 -71.28 
L 360.462616 -71.28 
L 359.055778 -71.28 
L 357.64894 -71.28 
L 356.242102 -71.28 
L 354.835264 -71.28 
L 353.428426 -71.28 
L 352.021588 -71.28 
L 350.61475 -71.28 
L 349.207912 -71.28 
L 347.801074 -71.28 
L 346.394236 -71.28 
L 344.987398 -71.28 
L 343.58056 -71.28 
L 342.173722 -71.28 
L 340.766884 -71.28 
L 339.360046 -71.28 
L 337.953208 -71.28 
L 336.54637 -71.28 
L 335.139532 -71.28 
L 333.732694 -71.28 
L 332.325856 -71.28 
L 330.919018 -71.28 
L 329.51218 -71.28 
L 328.105342 -71.28 
L 326.698504 -71.28 
L 325.291666 -71.28 
L 323.884828 -71.28 
L 322.477989 -71.28 
L 321.071151 -71.28 
L 319.664313 -71.28 
L 318.257475 -71.28 
L 316.850637 -71.28 
L 315.443799 -71.28 
L 314.036961 -71.28 
L 312.630123 -71.28 
L 311.223285 -71.28 
L 309.816447 -71.28 
L 308.409609 -71.28 
L 307.002771 -71.28 
L 305.595933 -71.28 
L 304.189095 -71.28 
L 302.782257 -71.28 
L 301.375419 -71.28 
L 299.968581 -71.28 
L 298.561743 -71.28 
L 297.154905 -71.28 
L 295.748067 -71.28 
L 294.341229 -71.28 
L 292.934391 -71.28 
L 291.527553 -71.28 
L 290.120715 -71.28 
L 288.713877 -71.28 
L 287.307039 -71.28 
L 285.900201 -71.28 
L 284.493363 -71.28 
L 283.086525 -71.28 
L 281.679687 -71.28 
L 280.272849 -71.28 
L 278.866011 -71.28 
L 277.459172 -71.28 
L 276.052334 -71.28 
L 274.645496 -71.28 
L 273.238658 -71.28 
L 271.83182 -71.28 
L 270.424982 -71.28 
L 269.018144 -71.28 
L 267.611306 -71.28 
L 266.204468 -71.28 
L 264.79763 -71.28 
L 263.390792 -71.28 
L 261.983954 -71.28 
L 260.577116 -71.28 
L 259.170278 -71.28 
L 257.76344 -71.28 
L 256.356602 -71.28 
L 254.949764 -71.28 
L 253.542926 -71.28 
L 252.136088 -71.28 
L 250.72925 -71.28 
L 249.322412 -71.28 
L 247.915574 -71.28 
L 246.508736 -71.28 
L 245.101898 -71.28 
L 243.69506 -71.28 
L 242.288222 -71.28 
L 240.881384 -71.28 
L 239.474546 -71.28 
L 238.067708 -71.28 
L 236.66087 -71.28 
L 235.254032 -71.28 
L 233.847194 -71.28 
L 232.440355 -71.28 
L 231.033517 -71.28 
L 229.626679 -71.28 
L 228.219841 -71.28 
L 226.813003 -71.28 
L 225.406165 -71.28 
L 223.999327 -71.28 
L 222.592489 -71.28 
L 221.185651 -71.28 
L 219.778813 -71.28 
L 218.371975 -71.28 
L 216.965137 -71.28 
L 215.558299 -71.28 
L 214.151461 -71.28 
L 212.744623 -71.28 
L 211.337785 -71.28 
L 209.930947 -71.28 
L 208.524109 -71.28 
L 207.117271 -71.28 
L 205.710433 -71.28 
L 204.303595 -71.28 
L 202.896757 -71.28 
L 201.489919 -71.28 
L 200.083081 -71.28 
L 198.676243 -71.28 
L 197.269405 -71.28 
L 195.862567 -71.28 
L 194.455729 -71.28 
L 193.048891 -71.28 
L 191.642053 -71.28 
L 190.235215 -71.28 
L 188.828376 -71.28 
L 187.421538 -71.28 
L 186.0147 -71.28 
L 184.607862 -71.28 
L 183.201024 -71.28 
L 181.794186 -71.28 
L 180.387348 -71.28 
L 178.98051 -71.28 
L 177.573672 -71.28 
L 176.166834 -71.28 
L 174.759996 -71.28 
L 173.353158 -71.28 
L 171.94632 -71.28 
L 170.539482 -71.28 
L 169.132644 -71.28 
L 167.725806 -71.28 
L 166.318968 -71.28 
L 164.91213 -71.28 
L 163.505292 -71.28 
L 162.098454 -71.28 
L 160.691616 -71.28 
L 159.284778 -71.28 
L 157.87794 -71.28 
L 156.471102 -71.28 
L 155.064264 -71.28 
L 153.657426 -71.28 
L 152.250588 -71.28 
L 150.84375 -71.28 
L 149.436912 -71.28 
L 148.030074 -71.28 
L 146.623236 -71.28 
L 145.216398 -71.28 
L 143.809559 -71.28 
L 142.402721 -71.28 
L 140.995883 -71.28 
L 139.589045 -71.28 
L 138.182207 -71.28 
L 136.775369 -71.28 
L 135.368531 -71.28 
L 133.961693 -71.28 
L 132.554855 -71.28 
L 131.148017 -71.28 
L 129.741179 -71.28 
L 128.334341 -71.28 
L 126.927503 -71.28 
L 125.520665 -71.28 
L 124.113827 -71.28 
L 122.706989 -71.28 
L 121.300151 -71.28 
L 119.893313 -71.28 
L 118.486475 -71.28 
L 117.079637 -71.28 
L 115.672799 -71.28 
L 114.265961 -71.28 
L 112.859123 -71.28 
L 111.452285 -71.28 
L 110.045447 -71.28 
L 108.638609 -71.28 
L 107.231771 -71.28 
L 105.824933 -71.28 
L 104.418095 -71.28 
L 103.011257 -71.28 
L 101.604419 -71.28 
L 100.197581 -71.28 
L 98.790742 -71.28 
L 97.383904 -71.28 
L 95.977066 -71.28 
L 94.570228 -71.28 
L 93.16339 -71.28 
L 91.756552 -71.28 
L 90.349714 -71.28 
z
" style="stroke: #8b5cf6; stroke-opacity: 0.12"/>
    </defs>
    <g clip-path="url(#p1314befbfe)">
     <use xlink:href="#m3421bfa637" x="0" y="396" style="fill: #8b5cf6; fill-opacity: 0.12; stroke: #8b5cf6; stroke-opacity: 0.12"/>
    </g>
   </g>
   <g id="text_14">
    <!-- 220 -->
    <g style="fill: #8b5cf6" transform="translate(513.994286 79.541263) scale(0.12 -0.12)">
     <defs>
      <path id="JetBrainsMono-Bold-32" d="M 474 0 
L 474 723 
L 2157 2445 
Q 2566 2874 2566 3315 
Q 2566 3629 2384 3824 
Q 2202 4019 1894 4019 
Q 1581 4019 1392 3817 
Q 1203 3616 1203 3283 
L 403 3283 
Q 403 3718 595 4044 
Q 787 4371 1126 4553 
Q 1466 4736 1914 4736 
Q 2355 4736 2688 4563 
Q 3021 4390 3203 4080 
Q 3386 3770 3386 3354 
Q 3386 2995 3216 2636 
Q 3046 2278 2656 1894 
L 1478 723 
L 3443 723 
L 3443 0 
L 474 0 
z
" transform="scale(0.015625)"/>
      <path id="JetBrainsMono-Bold-30" d="M 1920 -64 
Q 1466 -64 1133 109 
Q 800 282 617 595 
Q 435 909 435 1331 
L 435 3341 
Q 435 3763 617 4076 
Q 800 4390 1133 4563 
Q 1466 4736 1920 4736 
Q 2374 4736 2707 4563 
Q 3040 4390 3222 4076 
Q 3405 3763 3405 3341 
L 3405 1331 
Q 3405 909 3222 595 
Q 3040 282 2707 109 
Q 2374 -64 1920 -64 
z
M 1920 627 
Q 2253 627 2451 819 
Q 2650 1011 2650 1331 
L 2650 3341 
Q 2650 3661 2454 3853 
Q 2259 4045 1920 4045 
Q 1581 4045 1385 3853 
Q 1190 3661 1190 3341 
L 1190 1331 
Q 1190 1011 1388 819 
Q 1587 627 1920 627 
z
M 1920 1952 
Q 1728 1952 1613 2057 
Q 1498 2163 1498 2355 
Q 1498 2547 1613 2646 
Q 1728 2746 1920 2746 
Q 2112 2746 2227 2646 
Q 2342 2547 2342 2355 
Q 2342 2163 2227 2057 
Q 2112 1952 1920 1952 
z
" transform="scale(0.015625)"/>
     </defs>
     <use xlink:href="#JetBrainsMono-Bold-32"/>
     <use xlink:href="#JetBrainsMono-Bold-32" transform="translate(59.999985 0)"/>
     <use xlink:href="#JetBrainsMono-Bold-30" transform="translate(119.999969 0)"/>
    </g>
   </g>
   <g id="text_15">
    <!-- Rating History -->
    <g style="fill: #8b5cf6" transform="translate(55.296 50.44) scale(0.17 -0.17)">
     <defs>
      <path id="JetBrainsMono-Bold-52" d="M 493 0 
L 493 4672 
L 1965 4672 
Q 2432 4672 2774 4499 
Q 3117 4326 3309 4016 
Q 3501 3706 3501 3283 
Q 3501 2816 3270 2467 
Q 3040 2118 2650 1971 
L 3565 0 
L 2688 0 
L 1869 1856 
L 1286 1856 
L 1286 0 
L 493 0 
z
M 1286 2560 
L 1965 2560 
Q 2304 2560 2496 2745 
Q 2688 2931 2688 3258 
Q 2688 3584 2493 3776 
Q 2298 3968 1965 3968 
L 1286 3968 
L 1286 2560 
z
" transform="scale(0.015625)"/>
      <path id="JetBrainsMono-Bold-61" d="M 1530 -64 
Q 992 -64 681 240 
Q 371 544 371 1037 
Q 371 1549 723 1853 
Q 1075 2157 1690 2157 
L 2547 2157 
L 2547 2406 
Q 2547 2938 1926 2938 
Q 1645 2938 1478 2829 
Q 1312 2720 1293 2522 
L 525 2522 
Q 550 2995 924 3289 
Q 1299 3584 1933 3584 
Q 2605 3584 2976 3270 
Q 3347 2957 3347 2387 
L 3347 0 
L 2566 0 
L 2566 659 
Q 2522 320 2246 128 
Q 1971 -64 1530 -64 
z
M 1786 589 
Q 2138 589 2342 761 
Q 2547 934 2547 1222 
L 2547 1638 
L 1728 1638 
Q 1466 1638 1312 1491 
Q 1158 1344 1158 1114 
Q 1158 877 1321 733 
Q 1485 589 1786 589 
z
" transform="scale(0.015625)"/>
      <path id="JetBrainsMono-Bold-74" d="M 2272 0 
Q 1779 0 1488 285 
Q 1197 570 1197 1056 
L 1197 2797 
L 224 2797 
L 224 3520 
L 1197 3520 
L 1197 4512 
L 2003 4512 
L 2003 3520 
L 3405 3520 
L 3405 2797 
L 2003 2797 
L 2003 1075 
Q 2003 922 2089 822 
Q 2176 723 2330 723 
L 3373 723 
L 3373 0 
L 2272 0 
z
" transform="scale(0.015625)"/>
      <path id="JetBrainsMono-Bold-69" d="M 486 0 
L 486 723 
L 1690 723 
L 1690 2797 
L 614 2797 
L 614 3520 
L 2490 3520 
L 2490 723 
L 3571 723 
L 3571 0 
L 486 0 
z
M 2032 4109 
Q 1789 4109 1648 4233 
Q 1507 4358 1507 4570 
Q 1507 4781 1648 4905 
Q 1789 5030 2032 5030 
Q 2275 5030 2416 4905 
Q 2557 4781 2557 4570 
Q 2557 4358 2416 4233 
Q 2275 4109 2032 4109 
z
" transform="scale(0.015625)"/>
      <path id="JetBrainsMono-Bold-6e" d="M 493 0 
L 493 3520 
L 1274 3520 
L 1274 2861 
Q 1338 3194 1587 3389 
Q 1837 3584 2221 3584 
Q 2739 3584 3049 3238 
Q 3360 2893 3360 2310 
L 3360 0 
L 2560 0 
L 2560 2214 
Q 2560 2541 2390 2717 
Q 2221 2893 1933 2893 
Q 1632 2893 1462 2713 
Q 1293 2534 1293 2202 
L 1293 0 
L 493 0 
z
" transform="scale(0.015625)"/>
      <path id="JetBrainsMono-Bold-67" d="M 973 -1152 
L 973 -486 
L 1965 -486 
Q 2246 -486 2400 -336 
Q 2554 -186 2554 70 
L 2554 282 
L 2566 832 
Q 2458 538 2218 374 
Q 1978 211 1632 211 
Q 1094 211 777 572 
Q 461 934 461 1555 
L 461 2240 
Q 461 2854 777 3219 
Q 1094 3584 1632 3584 
Q 1978 3584 2218 3421 
Q 2458 3258 2566 2957 
L 2566 3520 
L 3347 3520 
L 3347 51 
Q 3347 -506 2979 -829 
Q 2611 -1152 1978 -1152 
L 973 -1152 
z
M 1901 896 
Q 2208 896 2377 1078 
Q 2547 1261 2547 1587 
L 2547 2202 
Q 2547 2528 2377 2710 
Q 2208 2893 1901 2893 
Q 1594 2893 1427 2717 
Q 1261 2541 1261 2227 
L 1261 1562 
Q 1261 1248 1427 1072 
Q 1594 896 1901 896 
z
" transform="scale(0.015625)"/>
      <path id="JetBrainsMono-Bold-20" transform="scale(0.015625)"/>
      <path id="JetBrainsMono-Bold-48" d="M 493 0 
L 493 4672 
L 1293 4672 
L 1293 2778 
L 2547 2778 
L 2547 4672 
L 3347 4672 
L 3347 0 
L 2547 0 
L 2547 2054 
L 1293 2054 
L 1293 0 
L 493 0 
z
" transform="scale(0.015625)"/>
      <path id="JetBrainsMono-Bold-73" d="M 1773 -58 
Q 1146 -58 781 227 
Q 416 512 416 998 
L 1203 998 
Q 1203 794 1353 685 
Q 1504 576 1773 576 
L 2054 576 
Q 2342 576 2499 685 
Q 2656 794 2656 998 
Q 2656 1190 2547 1283 
Q 2438 1376 2214 1408 
L 1338 1523 
Q 915 1581 688 1849 
Q 461 2118 461 2547 
Q 461 3046 793 3312 
Q 1126 3578 1754 3578 
L 2048 3578 
Q 2637 3578 2995 3309 
Q 3354 3040 3366 2592 
L 2573 2592 
Q 2566 2758 2425 2857 
Q 2285 2957 2048 2957 
L 1754 2957 
Q 1498 2957 1363 2851 
Q 1229 2746 1229 2566 
Q 1229 2406 1328 2329 
Q 1427 2253 1619 2234 
L 2445 2118 
Q 2931 2061 3177 1776 
Q 3424 1491 3424 1011 
Q 3424 499 3075 220 
Q 2726 -58 2054 -58 
L 1773 -58 
z
" transform="scale(0.015625)"/>
      <path id="JetBrainsMono-Bold-6f" d="M 1920 -58 
Q 1242 -58 845 323 
Q 448 704 448 1350 
L 448 2170 
Q 448 2822 845 3200 
Q 1242 3578 1920 3578 
Q 2598 3578 2995 3200 
Q 3392 2822 3392 2170 
L 3392 1350 
Q 3392 704 2995 323 
Q 2598 -58 1920 -58 
z
M 1920 640 
Q 2240 640 2416 816 
Q 2592 992 2592 1325 
L 2592 2195 
Q 2592 2528 2416 2704 
Q 2240 2880 1920 2880 
Q 1600 2880 1424 2704 
Q 1248 2528 1248 2195 
L 1248 1325 
Q 1248 992 1424 816 
Q 1600 640 1920 640 
z
" transform="scale(0.015625)"/>
      <path id="JetBrainsMono-Bold-72" d="M 621 0 
L 621 3520 
L 1402 3520 
L 1402 2835 
Q 1466 3181 1718 3382 
Q 1971 3584 2374 3584 
Q 2912 3584 3213 3238 
Q 3514 2893 3514 2272 
L 3514 1939 
L 2714 1939 
L 2714 2234 
Q 2714 2554 2547 2723 
Q 2381 2893 2074 2893 
Q 1754 2893 1587 2701 
Q 1421 2509 1421 2157 
L 1421 0 
L 621 0 
z
" transform="scale(0.015625)"/>
      <path id="JetBrainsMono-Bold-79" d="M 1056 -1152 
L 1555 192 
L 230 3520 
L 1075 3520 
L 1754 1722 
Q 1811 1562 1868 1373 
Q 1926 1184 1952 1024 
Q 1971 1184 2025 1373 
Q 2080 1562 2138 1722 
L 2765 3520 
L 3610 3520 
L 1894 -1152 
L 1056 -1152 
z
" transform="scale(0.015625)"/>
     </defs>
     <use xlink:href="#JetBrainsMono-Bold-52"/>
     <use xlink:href="#JetBrainsMono-Bold-61" transform="translate(59.999985 0)"/>
     <use xlink:href="#JetBrainsMono-Bold-74" transform="translate(119.999969 0)"/>
     <use xlink:href="#JetBrainsMono-Bold-69" transform="translate(179.999954 0)"/>
     <use xlink:href="#JetBrainsMono-Bold-6e" transform="translate(239.999939 0)"/>
     <use xlink:href="#JetBrainsMono-Bold-67" transform="translate(299.999924 0)"/>
     <use xlink:href="#JetBrainsMono-Bold-20" transform="translate(359.999908 0)"/>
     <use xlink:href="#JetBrainsMono-Bold-48" transform="translate(419.999893 0)"/>
     <use xlink:href="#JetBrainsMono-Bold-69" transform="translate(479.999878 0)"/>
     <use xlink:href="#JetBrainsMono-Bold-73" transform="translate(539.999863 0)"/>
     <use xlink:href="#JetBrainsMono-Bold-74" transform="translate(599.999847 0)"/>
     <use xlink:href="#JetBrainsMono-Bold-6f" transform="translate(659.999832 0)"/>
     <use xlink:href="#JetBrainsMono-Bold-72" transform="translate(719.999817 0)"/>
     <use xlink:href="#JetBrainsMono-Bold-79" transform="translate(779.999802 0)"/>
    </g>
   </g>
   <g id="line2d_25">
    <path d="M 90.349714 274.266096 
L 93.16339 270.978332 
L 95.977066 268.094525 
L 98.790742 265.597785 
L 101.604419 263.471222 
L 104.418095 261.697946 
L 107.231771 260.261067 
L 110.045447 259.143694 
L 112.859123 258.328937 
L 115.672799 257.799906 
L 118.486475 257.539711 
L 121.300151 257.531461 
L 124.113827 257.758267 
L 126.927503 258.203238 
L 129.741179 258.849484 
L 132.554855 259.680114 
L 136.775369 261.234834 
L 140.995883 263.109412 
L 145.216398 265.246844 
L 150.84375 268.407111 
L 157.87794 272.666219 
L 170.539482 280.399117 
L 176.166834 283.534049 
L 180.387348 285.64509 
L 184.607862 287.486943 
L 188.828376 289.002605 
L 191.642053 289.803677 
L 194.455729 290.41755 
L 197.269405 290.827333 
L 200.083081 291.016136 
L 202.896757 290.967068 
L 205.710433 290.66324 
L 208.524109 290.087761 
L 211.337785 289.223741 
L 214.151461 288.05429 
L 216.965137 286.562517 
L 219.778813 284.731533 
L 222.592489 282.544447 
L 225.406165 279.984369 
L 228.219841 277.034409 
L 231.033517 273.677715 
L 233.847194 269.910636 
L 236.66087 265.761875 
L 239.474546 261.265003 
L 242.288222 256.45359 
L 246.508736 248.720145 
L 250.72925 240.467819 
L 256.356602 228.853401 
L 263.390792 213.730574 
L 276.052334 186.402251 
L 281.679687 174.866704 
L 285.900201 166.696536 
L 290.120715 159.064966 
L 292.934391 154.332425 
L 295.748067 149.923188 
L 298.561743 145.870825 
L 301.375419 142.208759 
L 304.189095 138.952442 
L 307.002771 136.082423 
L 309.816447 133.575242 
L 312.630123 131.40744 
L 315.443799 129.555557 
L 318.257475 127.996132 
L 321.071151 126.705706 
L 323.884828 125.660819 
L 326.698504 124.838011 
L 329.51218 124.213823 
L 332.325856 123.764793 
L 336.54637 123.368353 
L 340.766884 123.23406 
L 346.394236 123.325936 
L 360.462616 123.747072 
L 364.68313 123.602704 
L 368.903645 123.192634 
L 371.717321 122.732745 
L 374.530997 122.108689 
L 378.751511 120.882285 
L 382.972025 119.335665 
L 387.192539 117.500515 
L 391.413053 115.408521 
L 395.633567 113.091371 
L 401.260919 109.706362 
L 406.888271 106.052514 
L 413.922462 101.221575 
L 437.838708 84.507312 
L 443.46606 80.936801 
L 449.093412 77.66077 
L 453.313926 75.442181 
L 457.534441 73.463173 
L 461.754955 71.755432 
L 465.975469 70.350645 
L 468.789145 69.598075 
L 471.602821 69.003623 
L 474.416497 68.576676 
L 477.230173 68.326625 
L 480.043849 68.262857 
L 482.857525 68.394761 
L 485.671201 68.731726 
L 488.484877 69.28314 
L 491.298553 70.058392 
L 494.112229 71.066871 
L 496.925905 72.317965 
L 499.739581 73.821062 
L 502.553258 75.585552 
L 505.366934 77.620823 
L 508.18061 79.936264 
L 510.994286 82.541263 
L 510.994286 82.541263 
" clip-path="url(#p1314befbfe)" style="fill: none; stroke: #8b5cf6; stroke-width: 1.2; stroke-linecap: round"/>
   </g>
   <g id="PathCollection_1">
    <defs>
     <path id="mf2a8a594cb" d="M 0 2.236068 
C 0.593012 2.236068 1.161816 2.000462 1.581139 1.581139 
C 2.000462 1.161816 2.236068 0.593012 2.236068 0 
C 2.236068 -0.593012 2.000462 -1.161816 1.581139 -1.581139 
C 1.161816 -2.000462 0.593012 -2.236068 0 -2.236068 
C -0.593012 -2.236068 -1.161816 -2.000462 -1.581139 -1.581139 
C -2.000462 -1.161816 -2.236068 -0.593012 -2.236068 0 
C -2.236068 0.593012 -2.000462 1.161816 -1.581139 1.581139 
C -1.161816 2.000462 -0.593012 2.236068 0 2.236068 
z
" style="stroke: #ffffff; stroke-width: 0.8"/>
    </defs>
    <g clip-path="url(#p1314befbfe)">
     <use xlink:href="#mf2a8a594cb" x="510.994286" y="82.541263" style="fill: #8b5cf6; stroke: #ffffff; stroke-width: 0.8"/>
    </g>
   </g>
  </g>
  <g id="axes_2">
   <g id="text_16">
    <!-- Rating -->
    <g style="fill: #9b8bb8" transform="translate(565.7472 48.312) scale(0.11 -0.11)">
     <use xlink:href="#JetBrainsMono-Regular-52"/>
     <use xlink:href="#JetBrainsMono-Regular-61" transform="translate(59.999985 0)"/>
     <use xlink:href="#JetBrainsMono-Regular-74" transform="translate(119.999969 0)"/>
     <use xlink:href="#JetBrainsMono-Regular-69" transform="translate(179.999954 0)"/>
     <use xlink:href="#JetBrainsMono-Regular-6e" transform="translate(239.999939 0)"/>
     <use xlink:href="#JetBrainsMono-Regular-67" transform="translate(299.999924 0)"/>
    </g>
   </g>
   <g id="text_17">
    <!-- 220 -->
    <g style="fill: #8b5cf6" transform="translate(565.7472 81.548) scale(0.26 -0.26)">
     <use xlink:href="#JetBrainsMono-Bold-32"/>
     <use xlink:href="#JetBrainsMono-Bold-32" transform="translate(59.999985 0)"/>
     <use xlink:href="#JetBrainsMono-Bold-30" transform="translate(119.999969 0)"/>
    </g>
   </g>
   <g id="text_18">
    <!-- Rank -->
    <g style="fill: #9b8bb8" transform="translate(565.7472 119.592) scale(0.11 -0.11)">
     <defs>
      <path id="JetBrainsMono-Regular-6b" d="M 621 0 
L 621 4672 
L 1197 4672 
L 1197 2067 
L 1869 2067 
L 2854 3520 
L 3514 3520 
L 2381 1843 
L 3578 0 
L 2906 0 
L 1882 1568 
L 1197 1568 
L 1197 0 
L 621 0 
z
" transform="scale(0.015625)"/>
     </defs>
     <use xlink:href="#JetBrainsMono-Regular-52"/>
     <use xlink:href="#JetBrainsMono-Regular-61" transform="translate(59.999985 0)"/>
     <use xlink:href="#JetBrainsMono-Regular-6e" transform="translate(119.999969 0)"/>
     <use xlink:href="#JetBrainsMono-Regular-6b" transform="translate(179.999954 0)"/>
    </g>
   </g>
   <g id="text_19">
    <!-- #126,997 -->
    <g style="fill: #8b5cf6" transform="translate(565.7472 148.104) scale(0.14 -0.14)">
     <defs>
      <path id="JetBrainsMono-Bold-23" d="M 493 0 
L 710 1216 
L 224 1216 
L 224 1760 
L 800 1760 
L 998 2912 
L 448 2912 
L 448 3456 
L 1094 3456 
L 1312 4672 
L 1875 4672 
L 1658 3456 
L 2566 3456 
L 2784 4672 
L 3347 4672 
L 3130 3456 
L 3616 3456 
L 3616 2912 
L 3034 2912 
L 2835 1760 
L 3392 1760 
L 3392 1216 
L 2739 1216 
L 2528 0 
L 1965 0 
L 2182 1216 
L 1267 1216 
L 1056 0 
L 493 0 
z
M 1363 1760 
L 2272 1760 
L 2470 2912 
L 1562 2912 
L 1363 1760 
z
" transform="scale(0.015625)"/>
      <path id="JetBrainsMono-Bold-31" d="M 538 0 
L 538 723 
L 1754 723 
L 1754 3898 
L 531 3002 
L 531 3898 
L 1606 4672 
L 2554 4672 
L 2554 723 
L 3533 723 
L 3533 0 
L 538 0 
z
" transform="scale(0.015625)"/>
      <path id="JetBrainsMono-Bold-36" d="M 1920 -64 
Q 1440 -64 1085 128 
Q 730 320 534 669 
Q 339 1018 339 1485 
Q 339 1760 457 2115 
Q 576 2470 781 2835 
L 1792 4672 
L 2701 4672 
L 1498 2611 
L 1523 2598 
Q 1619 2733 1804 2809 
Q 1990 2886 2208 2886 
Q 2598 2886 2889 2710 
Q 3181 2534 3341 2214 
Q 3501 1894 3501 1459 
Q 3501 998 3305 656 
Q 3110 314 2755 125 
Q 2400 -64 1920 -64 
z
M 1920 614 
Q 2278 614 2496 841 
Q 2714 1069 2714 1446 
Q 2714 1830 2496 2057 
Q 2278 2285 1920 2285 
Q 1562 2285 1344 2057 
Q 1126 1830 1126 1446 
Q 1126 1069 1344 841 
Q 1562 614 1920 614 
z
" transform="scale(0.015625)"/>
      <path id="JetBrainsMono-Bold-2c" d="M 1216 -1024 
L 1555 934 
L 2470 934 
L 1984 -1024 
L 1216 -1024 
z
" transform="scale(0.015625)"/>
      <path id="JetBrainsMono-Bold-39" d="M 1120 0 
L 2214 1888 
Q 2138 1830 2035 1788 
Q 1933 1747 1728 1747 
Q 1344 1747 1027 1932 
Q 710 2118 524 2448 
Q 339 2778 339 3213 
Q 339 3674 534 4016 
Q 730 4358 1085 4547 
Q 1440 4736 1920 4736 
Q 2400 4736 2755 4544 
Q 3110 4352 3305 4003 
Q 3501 3654 3501 3187 
Q 3501 2912 3382 2557 
Q 3264 2202 3059 1837 
L 2048 0 
L 1120 0 
z
M 1920 2387 
Q 2278 2387 2496 2614 
Q 2714 2842 2714 3226 
Q 2714 3603 2496 3830 
Q 2278 4058 1920 4058 
Q 1562 4058 1344 3830 
Q 1126 3603 1126 3226 
Q 1126 2842 1344 2614 
Q 1562 2387 1920 2387 
z
" transform="scale(0.015625)"/>
      <path id="JetBrainsMono-Bold-37" d="M 1011 0 
L 2720 3968 
L 1229 3968 
L 1229 3206 
L 429 3206 
L 429 4672 
L 3584 4672 
L 3584 3968 
L 1888 0 
L 1011 0 
z
" transform="scale(0.015625)"/>
     </defs>
     <use xlink:href="#JetBrainsMono-Bold-23"/>
     <use xlink:href="#JetBrainsMono-Bold-31" transform="translate(59.999985 0)"/>
     <use xlink:href="#JetBrainsMono-Bold-32" transform="translate(119.999969 0)"/>
     <use xlink:href="#JetBrainsMono-Bold-36" transform="translate(179.999954 0)"/>
     <use xlink:href="#JetBrainsMono-Bold-2c" transform="translate(239.999939 0)"/>
     <use xlink:href="#JetBrainsMono-Bold-39" transform="translate(299.999924 0)"/>
     <use xlink:href="#JetBrainsMono-Bold-39" transform="translate(359.999908 0)"/>
     <use xlink:href="#JetBrainsMono-Bold-37" transform="translate(419.999893 0)"/>
    </g>
   </g>
   <g id="text_20">
    <!-- ─ 0 -->
    <g style="fill: #9b8bb8" transform="translate(565.7472 169.488) scale(0.11 -0.11)">
     <defs>
      <path id="JetBrainsMono-Bold-2500" d="M -128 2048 
L -128 2688 
L 3968 2688 
L 3968 2048 
L -128 2048 
z
" transform="scale(0.015625)"/>
     </defs>
     <use xlink:href="#JetBrainsMono-Bold-2500"/>
     <use xlink:href="#JetBrainsMono-Bold-20" transform="translate(59.999985 0)"/>
     <use xlink:href="#JetBrainsMono-Bold-30" transform="translate(119.999969 0)"/>
    </g>
   </g>
  </g>
 </g>
 <defs>
  <clipPath id="p1314befbfe">
   <rect x="55.296" y="55.44" width="490.752" height="269.28"/>
  </clipPath>
 </defs>
</svg>
