<?xml version="1.0" encoding="utf-8" standalone="no"?>
<!DOCTYPE svg PUBLIC "-//W3C//DTD SVG 1.1//EN"
  "http://www.w3.org/Graphics/SVG/1.1/DTD/svg11.dtd">
<svg xmlns:xlink="http://www.w3.org/1999/xlink" width="691.2pt" height="396pt" viewBox="0 0 691.2 396" xmlns="http://www.w3.org/2000/svg" version="1.1">
 <metadata>
  <rdf:RDF xmlns:dc="http://purl.org/dc/elements/1.1/" xmlns:cc="http://creativecommons.org/ns#" xmlns:rdf="http://www.w3.org/1999/02/22-rdf-syntax-ns#">
   <cc:Work>
    <dc:type rdf:resource="http://purl.org/dc/dcmitype/StillImage"/>
    <dc:date>2026-04-08T16:06:34.871149</dc:date>
    <dc:format>image/svg+xml</dc:format>
    <dc:creator>
     <cc:Agent>
      <dc:title>Matplotlib v3.10.8, https://matplotlib.org/</dc:title>
     </cc:Agent>
    </dc:creator>
   </cc:Work>
  </rdf:RDF>
 </metadata>
 <defs>
  <style type="text/css">*{stroke-linejoin: round; stroke-linecap: butt}</style>
 </defs>
 <g id="figure_1">
  <g id="patch_1">
   <path d="M 0 396 
L 691.2 396 
L 691.2 0 
L 0 0 
L 0 396 
z
" style="fill: none"/>
  </g>
  <g id="axes_1">
   <g id="patch_2">
    <path d="M 55.296 324.72 
L 546.048 324.72 
L 546.048 55.44 
L 55.296 55.44 
L 55.296 324.72 
z
" style="fill: none"/>
   </g>
   <g id="matplotlib.axis_1">
    <g id="xtick_1">
     <g id="line2d_1">
      <path d="M 82.56 324.72 
L 82.56 55.44 
" clip-path="url(#pc3bf4651bf)" style="fill: none; stroke-dasharray: 2.22,0.96; stroke-dashoffset: 0; stroke: #e2d5f5; stroke-opacity: 0.7; stroke-width: 0.6"/>
     </g>
     <g id="line2d_2">
      <defs>
       <path id="m17af063241" d="M 0 0 
L 0 3.5 
" style="stroke: #9b8bb8; stroke-width: 0.8"/>
      </defs>
      <g>
       <use xlink:href="#m17af063241" x="82.56" y="324.72" style="fill: #9b8bb8; stroke: #9b8bb8; stroke-width: 0.8"/>
      </g>
     </g>
     <g id="text_1">
      <!-- 03/31 -->
      <g style="fill: #9b8bb8" transform="translate(71.019619 353.301793) rotate(-30) scale(0.1 -0.1)">
       <defs>
        <path id="JetBrainsMono-Regular-30" d="M 1920 -64 
Q 1274 -64 893 310 
Q 512 685 512 1312 
L 512 3360 
Q 512 3987 893 4361 
Q 1274 4736 1920 4736 
Q 2566 4736 2947 4361 
Q 3328 3987 3328 3360 
L 3328 1312 
Q 3328 896 3155 585 
Q 2982 275 2665 105 
Q 2349 -64 1920 -64 
z
M 1920 429 
Q 2304 429 2537 675 
Q 2771 922 2771 1312 
L 2771 3360 
Q 2771 3750 2537 3996 
Q 2304 4243 1920 4243 
Q 1536 4243 1302 3996 
Q 1069 3750 1069 3360 
L 1069 1312 
Q 1069 922 1302 675 
Q 1536 429 1920 429 
z
M 1920 1984 
Q 1747 1984 1641 2080 
Q 1536 2176 1536 2355 
Q 1536 2528 1641 2621 
Q 1747 2714 1920 2714 
Q 2093 2714 2198 2621 
Q 2304 2528 2304 2355 
Q 2304 2176 2198 2080 
Q 2093 1984 1920 1984 
z
" transform="scale(0.015625)"/>
        <path id="JetBrainsMono-Regular-33" d="M 1850 -64 
Q 1203 -64 825 297 
Q 448 659 448 1280 
L 1024 1280 
Q 1024 896 1248 672 
Q 1472 448 1856 448 
Q 2240 448 2464 672 
Q 2688 896 2688 1280 
L 2688 1600 
Q 2688 1984 2464 2208 
Q 2240 2432 1856 2432 
L 1350 2432 
L 1350 2931 
L 2496 4147 
L 576 4147 
L 576 4672 
L 3149 4672 
L 3149 4134 
L 2022 2938 
Q 2598 2893 2931 2537 
Q 3264 2182 3264 1600 
L 3264 1280 
Q 3264 659 2883 297 
Q 2502 -64 1850 -64 
z
" transform="scale(0.015625)"/>
        <path id="JetBrainsMono-Regular-2f" d="M 480 -704 
L 2752 5312 
L 3360 5312 
L 1088 -704 
L 480 -704 
z
" transform="scale(0.015625)"/>
        <path id="JetBrainsMono-Regular-31" d="M 576 0 
L 576 525 
L 1843 525 
L 1843 4173 
L 576 3226 
L 576 3885 
L 1632 4672 
L 2419 4672 
L 2419 525 
L 3456 525 
L 3456 0 
L 576 0 
z
" transform="scale(0.015625)"/>
       </defs>
       <use xlink:href="#JetBrainsMono-Regular-30"/>
       <use xlink:href="#JetBrainsMono-Regular-33" transform="translate(59.999985 0)"/>
       <use xlink:href="#JetBrainsMono-Regular-2f" transform="translate(119.999969 0)"/>
       <use xlink:href="#JetBrainsMono-Regular-33" transform="translate(179.999954 0)"/>
       <use xlink:href="#JetBrainsMono-Regular-31" transform="translate(239.999939 0)"/>
      </g>
     </g>
    </g>
    <g id="xtick_2">
     <g id="line2d_3">
      <path d="M 137.088 324.72 
L 137.088 55.44 
" clip-path="url(#pc3bf4651bf)" style="fill: none; stroke-dasharray: 2.22,0.96; stroke-dashoffset: 0; stroke: #e2d5f5; stroke-opacity: 0.7; stroke-width: 0.6"/>
     </g>
     <g id="line2d_4">
      <g>
       <use xlink:href="#m17af063241" x="137.088" y="324.72" style="fill: #9b8bb8; stroke: #9b8bb8; stroke-width: 0.8"/>
      </g>
     </g>
     <g id="text_2">
      <!-- 04/01 -->
      <g style="fill: #9b8bb8" transform="translate(125.547619 353.301793) rotate(-30) scale(0.1 -0.1)">
       <defs>
        <path id="JetBrainsMono-Regular-34" d="M 2560 0 
L 2560 1024 
L 448 1024 
L 448 1926 
L 2150 4672 
L 2803 4672 
L 1024 1798 
L 1024 1549 
L 2560 1549 
L 2560 2688 
L 3136 2688 
L 3136 0 
L 2560 0 
z
" transform="scale(0.015625)"/>
       </defs>
       <use xlink:href="#JetBrainsMono-Regular-30"/>
       <use xlink:href="#JetBrainsMono-Regular-34" transform="translate(59.999985 0)"/>
       <use xlink:href="#JetBrainsMono-Regular-2f" transform="translate(119.999969 0)"/>
       <use xlink:href="#JetBrainsMono-Regular-30" transform="translate(179.999954 0)"/>
       <use xlink:href="#JetBrainsMono-Regular-31" transform="translate(239.999939 0)"/>
      </g>
     </g>
    </g>
    <g id="xtick_3">
     <g id="line2d_5">
      <path d="M 191.616 324.72 
L 191.616 55.44 
" clip-path="url(#pc3bf4651bf)" style="fill: none; stroke-dasharray: 2.22,0.96; stroke-dashoffset: 0; stroke: #e2d5f5; stroke-opacity: 0.7; stroke-width: 0.6"/>
     </g>
     <g id="line2d_6">
      <g>
       <use xlink:href="#m17af063241" x="191.616" y="324.72" style="fill: #9b8bb8; stroke: #9b8bb8; stroke-width: 0.8"/>
      </g>
     </g>
     <g id="text_3">
      <!-- 04/02 -->
      <g style="fill: #9b8bb8" transform="translate(180.075619 353.301793) rotate(-30) scale(0.1 -0.1)">
       <defs>
        <path id="JetBrainsMono-Regular-32" d="M 550 0 
L 550 531 
L 2106 2195 
Q 2445 2554 2585 2835 
Q 2726 3117 2726 3386 
Q 2726 3770 2505 3997 
Q 2285 4224 1907 4224 
Q 1517 4224 1289 3990 
Q 1062 3757 1062 3360 
L 486 3360 
Q 506 3994 890 4365 
Q 1274 4736 1907 4736 
Q 2554 4736 2934 4371 
Q 3315 4006 3315 3379 
Q 3315 3046 3132 2675 
Q 2950 2304 2509 1843 
L 1248 525 
L 3373 525 
L 3373 0 
L 550 0 
z
" transform="scale(0.015625)"/>
       </defs>
       <use xlink:href="#JetBrainsMono-Regular-30"/>
       <use xlink:href="#JetBrainsMono-Regular-34" transform="translate(59.999985 0)"/>
       <use xlink:href="#JetBrainsMono-Regular-2f" transform="translate(119.999969 0)"/>
       <use xlink:href="#JetBrainsMono-Regular-30" transform="translate(179.999954 0)"/>
       <use xlink:href="#JetBrainsMono-Regular-32" transform="translate(239.999939 0)"/>
      </g>
     </g>
    </g>
    <g id="xtick_4">
     <g id="line2d_7">
      <path d="M 246.144 324.72 
L 246.144 55.44 
" clip-path="url(#pc3bf4651bf)" style="fill: none; stroke-dasharray: 2.22,0.96; stroke-dashoffset: 0; stroke: #e2d5f5; stroke-opacity: 0.7; stroke-width: 0.6"/>
     </g>
     <g id="line2d_8">
      <g>
       <use xlink:href="#m17af063241" x="246.144" y="324.72" style="fill: #9b8bb8; stroke: #9b8bb8; stroke-width: 0.8"/>
      </g>
     </g>
     <g id="text_4">
      <!-- 04/03 -->
      <g style="fill: #9b8bb8" transform="translate(234.603619 353.301793) rotate(-30) scale(0.1 -0.1)">
       <use xlink:href="#JetBrainsMono-Regular-30"/>
       <use xlink:href="#JetBrainsMono-Regular-34" transform="translate(59.999985 0)"/>
       <use xlink:href="#JetBrainsMono-Regular-2f" transform="translate(119.999969 0)"/>
       <use xlink:href="#JetBrainsMono-Regular-30" transform="translate(179.999954 0)"/>
       <use xlink:href="#JetBrainsMono-Regular-33" transform="translate(239.999939 0)"/>
      </g>
     </g>
    </g>
    <g id="xtick_5">
     <g id="line2d_9">
      <path d="M 300.672 324.72 
L 300.672 55.44 
" clip-path="url(#pc3bf4651bf)" style="fill: none; stroke-dasharray: 2.22,0.96; stroke-dashoffset: 0; stroke: #e2d5f5; stroke-opacity: 0.7; stroke-width: 0.6"/>
     </g>
     <g id="line2d_10">
      <g>
       <use xlink:href="#m17af063241" x="300.672" y="324.72" style="fill: #9b8bb8; stroke: #9b8bb8; stroke-width: 0.8"/>
      </g>
     </g>
     <g id="text_5">
      <!-- 04/04 -->
      <g style="fill: #9b8bb8" transform="translate(289.131619 353.301793) rotate(-30) scale(0.1 -0.1)">
       <use xlink:href="#JetBrainsMono-Regular-30"/>
       <use xlink:href="#JetBrainsMono-Regular-34" transform="translate(59.999985 0)"/>
       <use xlink:href="#JetBrainsMono-Regular-2f" transform="translate(119.999969 0)"/>
       <use xlink:href="#JetBrainsMono-Regular-30" transform="translate(179.999954 0)"/>
       <use xlink:href="#JetBrainsMono-Regular-34" transform="translate(239.999939 0)"/>
      </g>
     </g>
    </g>
    <g id="xtick_6">
     <g id="line2d_11">
      <path d="M 355.2 324.72 
L 355.2 55.44 
" clip-path="url(#pc3bf4651bf)" style="fill: none; stroke-dasharray: 2.22,0.96; stroke-dashoffset: 0; stroke: #e2d5f5; stroke-opacity: 0.7; stroke-width: 0.6"/>
     </g>
     <g id="line2d_12">
      <g>
       <use xlink:href="#m17af063241" x="355.2" y="324.72" style="fill: #9b8bb8; stroke: #9b8bb8; stroke-width: 0.8"/>
      </g>
     </g>
     <g id="text_6">
      <!-- 04/05 -->
      <g style="fill: #9b8bb8" transform="translate(343.659619 353.301793) rotate(-30) scale(0.1 -0.1)">
       <defs>
        <path id="JetBrainsMono-Regular-35" d="M 1882 -64 
Q 1235 -64 857 297 
Q 480 659 480 1280 
L 1056 1280 
Q 1056 896 1280 672 
Q 1504 448 1888 448 
Q 2272 448 2496 672 
Q 2720 896 2720 1280 
L 2720 1568 
Q 2720 1952 2502 2176 
Q 2285 2400 1914 2400 
L 640 2400 
L 640 4672 
L 3130 4672 
L 3130 4147 
L 1178 4147 
L 1190 2925 
L 1946 2925 
Q 2592 2925 2944 2569 
Q 3296 2214 3296 1568 
L 3296 1280 
Q 3296 659 2915 297 
Q 2534 -64 1882 -64 
z
" transform="scale(0.015625)"/>
       </defs>
       <use xlink:href="#JetBrainsMono-Regular-30"/>
       <use xlink:href="#JetBrainsMono-Regular-34" transform="translate(59.999985 0)"/>
       <use xlink:href="#JetBrainsMono-Regular-2f" transform="translate(119.999969 0)"/>
       <use xlink:href="#JetBrainsMono-Regular-30" transform="translate(179.999954 0)"/>
       <use xlink:href="#JetBrainsMono-Regular-35" transform="translate(239.999939 0)"/>
      </g>
     </g>
    </g>
    <g id="xtick_7">
     <g id="line2d_13">
      <path d="M 409.728 324.72 
L 409.728 55.44 
" clip-path="url(#pc3bf4651bf)" style="fill: none; stroke-dasharray: 2.22,0.96; stroke-dashoffset: 0; stroke: #e2d5f5; stroke-opacity: 0.7; stroke-width: 0.6"/>
     </g>
     <g id="line2d_14">
      <g>
       <use xlink:href="#m17af063241" x="409.728" y="324.72" style="fill: #9b8bb8; stroke: #9b8bb8; stroke-width: 0.8"/>
      </g>
     </g>
     <g id="text_7">
      <!-- 04/06 -->
      <g style="fill: #9b8bb8" transform="translate(398.187619 353.301793) rotate(-30) scale(0.1 -0.1)">
       <defs>
        <path id="JetBrainsMono-Regular-36" d="M 1926 -64 
Q 1478 -64 1136 125 
Q 794 314 602 650 
Q 410 986 410 1427 
Q 410 1734 525 2057 
Q 640 2381 838 2733 
L 1920 4672 
L 2560 4672 
L 1408 2669 
L 1427 2656 
Q 1510 2765 1676 2822 
Q 1843 2880 2042 2880 
Q 2458 2880 2768 2697 
Q 3078 2515 3254 2195 
Q 3430 1875 3430 1453 
Q 3430 1005 3238 662 
Q 3046 320 2710 128 
Q 2374 -64 1926 -64 
z
M 1920 448 
Q 2336 448 2595 723 
Q 2854 998 2854 1440 
Q 2854 1882 2595 2157 
Q 2336 2432 1920 2432 
Q 1504 2432 1245 2157 
Q 986 1882 986 1440 
Q 986 998 1245 723 
Q 1504 448 1920 448 
z
" transform="scale(0.015625)"/>
       </defs>
       <use xlink:href="#JetBrainsMono-Regular-30"/>
       <use xlink:href="#JetBrainsMono-Regular-34" transform="translate(59.999985 0)"/>
       <use xlink:href="#JetBrainsMono-Regular-2f" transform="translate(119.999969 0)"/>
       <use xlink:href="#JetBrainsMono-Regular-30" transform="translate(179.999954 0)"/>
       <use xlink:href="#JetBrainsMono-Regular-36" transform="translate(239.999939 0)"/>
      </g>
     </g>
    </g>
    <g id="xtick_8">
     <g id="line2d_15">
      <path d="M 464.256 324.72 
L 464.256 55.44 
" clip-path="url(#pc3bf4651bf)" style="fill: none; stroke-dasharray: 2.22,0.96; stroke-dashoffset: 0; stroke: #e2d5f5; stroke-opacity: 0.7; stroke-width: 0.6"/>
     </g>
     <g id="line2d_16">
      <g>
       <use xlink:href="#m17af063241" x="464.256" y="324.72" style="fill: #9b8bb8; stroke: #9b8bb8; stroke-width: 0.8"/>
      </g>
     </g>
     <g id="text_8">
      <!-- 04/07 -->
      <g style="fill: #9b8bb8" transform="translate(452.715619 353.301793) rotate(-30) scale(0.1 -0.1)">
       <defs>
        <path id="JetBrainsMono-Regular-37" d="M 1216 0 
L 2880 4147 
L 1101 4147 
L 1101 3392 
L 525 3392 
L 525 4672 
L 3494 4672 
L 3494 4134 
L 1843 0 
L 1216 0 
z
" transform="scale(0.015625)"/>
       </defs>
       <use xlink:href="#JetBrainsMono-Regular-30"/>
       <use xlink:href="#JetBrainsMono-Regular-34" transform="translate(59.999985 0)"/>
       <use xlink:href="#JetBrainsMono-Regular-2f" transform="translate(119.999969 0)"/>
       <use xlink:href="#JetBrainsMono-Regular-30" transform="translate(179.999954 0)"/>
       <use xlink:href="#JetBrainsMono-Regular-37" transform="translate(239.999939 0)"/>
      </g>
     </g>
    </g>
    <g id="xtick_9">
     <g id="line2d_17">
      <path d="M 518.784 324.72 
L 518.784 55.44 
" clip-path="url(#pc3bf4651bf)" style="fill: none; stroke-dasharray: 2.22,0.96; stroke-dashoffset: 0; stroke: #e2d5f5; stroke-opacity: 0.7; stroke-width: 0.6"/>
     </g>
     <g id="line2d_18">
      <g>
       <use xlink:href="#m17af063241" x="518.784" y="324.72" style="fill: #9b8bb8; stroke: #9b8bb8; stroke-width: 0.8"/>
      </g>
     </g>
     <g id="text_9">
      <!-- 04/08 -->
      <g style="fill: #9b8bb8" transform="translate(507.243619 353.301793) rotate(-30) scale(0.1 -0.1)">
       <defs>
        <path id="JetBrainsMono-Regular-38" d="M 1920 -64 
Q 1478 -64 1139 109 
Q 800 282 611 592 
Q 422 902 422 1306 
Q 422 1747 675 2067 
Q 928 2387 1350 2458 
L 1350 2477 
Q 986 2560 768 2845 
Q 550 3130 550 3501 
Q 550 3866 723 4144 
Q 896 4422 1206 4579 
Q 1517 4736 1920 4736 
Q 2330 4736 2637 4579 
Q 2944 4422 3117 4144 
Q 3290 3866 3290 3501 
Q 3290 3130 3072 2845 
Q 2854 2560 2490 2477 
L 2490 2458 
Q 2912 2387 3165 2067 
Q 3418 1747 3418 1306 
Q 3418 902 3229 592 
Q 3040 282 2704 109 
Q 2368 -64 1920 -64 
z
M 1920 2701 
Q 2278 2701 2496 2912 
Q 2714 3123 2714 3462 
Q 2714 3802 2496 4013 
Q 2278 4224 1920 4224 
Q 1568 4224 1347 4013 
Q 1126 3802 1126 3462 
Q 1126 3123 1347 2912 
Q 1568 2701 1920 2701 
z
M 1920 454 
Q 2330 454 2586 694 
Q 2842 934 2842 1318 
Q 2842 1709 2586 1949 
Q 2330 2189 1920 2189 
Q 1510 2189 1254 1949 
Q 998 1709 998 1318 
Q 998 934 1254 694 
Q 1510 454 1920 454 
z
" transform="scale(0.015625)"/>
       </defs>
       <use xlink:href="#JetBrainsMono-Regular-30"/>
       <use xlink:href="#JetBrainsMono-Regular-34" transform="translate(59.999985 0)"/>
       <use xlink:href="#JetBrainsMono-Regular-2f" transform="translate(119.999969 0)"/>
       <use xlink:href="#JetBrainsMono-Regular-30" transform="translate(179.999954 0)"/>
       <use xlink:href="#JetBrainsMono-Regular-38" transform="translate(239.999939 0)"/>
      </g>
     </g>
    </g>
   </g>
   <g id="matplotlib.axis_2">
    <g id="ytick_1">
     <g id="line2d_19">
      <path d="M 55.296 300.863522 
L 546.048 300.863522 
" clip-path="url(#pc3bf4651bf)" style="fill: none; stroke-dasharray: 2.22,0.96; stroke-dashoffset: 0; stroke: #e2d5f5; stroke-opacity: 0.7; stroke-width: 0.6"/>
     </g>
     <g id="line2d_20">
      <defs>
       <path id="m90ed3f0303" d="M 0 0 
L -3.5 0 
" style="stroke: #9b8bb8; stroke-width: 0.8"/>
      </defs>
      <g>
       <use xlink:href="#m90ed3f0303" x="55.296" y="300.863522" style="fill: #9b8bb8; stroke: #9b8bb8; stroke-width: 0.8"/>
      </g>
     </g>
     <g id="text_10">
      <!-- 200 -->
      <g style="fill: #9b8bb8" transform="translate(30.296 304.513522) scale(0.1 -0.1)">
       <use xlink:href="#JetBrainsMono-Regular-32"/>
       <use xlink:href="#JetBrainsMono-Regular-30" transform="translate(59.999985 0)"/>
       <use xlink:href="#JetBrainsMono-Regular-30" transform="translate(119.999969 0)"/>
      </g>
     </g>
    </g>
    <g id="ytick_2">
     <g id="line2d_21">
      <path d="M 55.296 241.222326 
L 546.048 241.222326 
" clip-path="url(#pc3bf4651bf)" style="fill: none; stroke-dasharray: 2.22,0.96; stroke-dashoffset: 0; stroke: #e2d5f5; stroke-opacity: 0.7; stroke-width: 0.6"/>
     </g>
     <g id="line2d_22">
      <g>
       <use xlink:href="#m90ed3f0303" x="55.296" y="241.222326" style="fill: #9b8bb8; stroke: #9b8bb8; stroke-width: 0.8"/>
      </g>
     </g>
     <g id="text_11">
      <!-- 210 -->
      <g style="fill: #9b8bb8" transform="translate(30.296 244.872326) scale(0.1 -0.1)">
       <use xlink:href="#JetBrainsMono-Regular-32"/>
       <use xlink:href="#JetBrainsMono-Regular-31" transform="translate(59.999985 0)"/>
       <use xlink:href="#JetBrainsMono-Regular-30" transform="translate(119.999969 0)"/>
      </g>
     </g>
    </g>
    <g id="ytick_3">
     <g id="line2d_23">
      <path d="M 55.296 181.58113 
L 546.048 181.58113 
" clip-path="url(#pc3bf4651bf)" style="fill: none; stroke-dasharray: 2.22,0.96; stroke-dashoffset: 0; stroke: #e2d5f5; stroke-opacity: 0.7; stroke-width: 0.6"/>
     </g>
     <g id="line2d_24">
      <g>
       <use xlink:href="#m90ed3f0303" x="55.296" y="181.58113" style="fill: #9b8bb8; stroke: #9b8bb8; stroke-width: 0.8"/>
      </g>
     </g>
     <g id="text_12">
      <!-- 220 -->
      <g style="fill: #9b8bb8" transform="translate(30.296 185.23113) scale(0.1 -0.1)">
       <use xlink:href="#JetBrainsMono-Regular-32"/>
       <use xlink:href="#JetBrainsMono-Regular-32" transform="translate(59.999985 0)"/>
       <use xlink:href="#JetBrainsMono-Regular-30" transform="translate(119.999969 0)"/>
      </g>
     </g>
    </g>
    <g id="ytick_4">
     <g id="line2d_25">
      <path d="M 55.296 121.939934 
L 546.048 121.939934 
" clip-path="url(#pc3bf4651bf)" style="fill: none; stroke-dasharray: 2.22,0.96; stroke-dashoffset: 0; stroke: #e2d5f5; stroke-opacity: 0.7; stroke-width: 0.6"/>
     </g>
     <g id="line2d_26">
      <g>
       <use xlink:href="#m90ed3f0303" x="55.296" y="121.939934" style="fill: #9b8bb8; stroke: #9b8bb8; stroke-width: 0.8"/>
      </g>
     </g>
     <g id="text_13">
      <!-- 230 -->
      <g style="fill: #9b8bb8" transform="translate(30.296 125.589934) scale(0.1 -0.1)">
       <use xlink:href="#JetBrainsMono-Regular-32"/>
       <use xlink:href="#JetBrainsMono-Regular-33" transform="translate(59.999985 0)"/>
       <use xlink:href="#JetBrainsMono-Regular-30" transform="translate(119.999969 0)"/>
      </g>
     </g>
    </g>
    <g id="ytick_5">
     <g id="line2d_27">
      <path d="M 55.296 62.298738 
L 546.048 62.298738 
" clip-path="url(#pc3bf4651bf)" style="fill: none; stroke-dasharray: 2.22,0.96; stroke-dashoffset: 0; stroke: #e2d5f5; stroke-opacity: 0.7; stroke-width: 0.6"/>
     </g>
     <g id="line2d_28">
      <g>
       <use xlink:href="#m90ed3f0303" x="55.296" y="62.298738" style="fill: #9b8bb8; stroke: #9b8bb8; stroke-width: 0.8"/>
      </g>
     </g>
     <g id="text_14">
      <!-- 240 -->
      <g style="fill: #9b8bb8" transform="translate(30.296 65.948738) scale(0.1 -0.1)">
       <use xlink:href="#JetBrainsMono-Regular-32"/>
       <use xlink:href="#JetBrainsMono-Regular-34" transform="translate(59.999985 0)"/>
       <use xlink:href="#JetBrainsMono-Regular-30" transform="translate(119.999969 0)"/>
      </g>
     </g>
    </g>
    <g id="text_15">
     <!-- Rating -->
     <g style="fill: #9b8bb8" transform="translate(24.496 208.08) rotate(-90) scale(0.1 -0.1)">
      <defs>
       <path id="JetBrainsMono-Regular-52" d="M 595 0 
L 595 4672 
L 2035 4672 
Q 2451 4672 2764 4502 
Q 3078 4333 3251 4032 
Q 3424 3731 3424 3328 
Q 3424 2854 3181 2515 
Q 2938 2176 2534 2042 
L 3488 0 
L 2854 0 
L 1939 1984 
L 1165 1984 
L 1165 0 
L 595 0 
z
M 1165 2502 
L 2035 2502 
Q 2394 2502 2611 2729 
Q 2829 2957 2829 3328 
Q 2829 3706 2611 3930 
Q 2394 4154 2035 4154 
L 1165 4154 
L 1165 2502 
z
" transform="scale(0.015625)"/>
       <path id="JetBrainsMono-Regular-61" d="M 1613 -64 
Q 1069 -64 749 240 
Q 429 544 429 1037 
Q 429 1363 576 1606 
Q 723 1850 985 1987 
Q 1248 2125 1587 2125 
L 2675 2125 
L 2675 2400 
Q 2675 3085 1926 3085 
Q 1594 3085 1389 2963 
Q 1184 2842 1171 2624 
L 595 2624 
Q 627 3040 982 3312 
Q 1338 3584 1926 3584 
Q 2566 3584 2908 3277 
Q 3251 2970 3251 2419 
L 3251 0 
L 2682 0 
L 2682 640 
L 2669 640 
Q 2618 314 2342 125 
Q 2067 -64 1613 -64 
z
M 1754 422 
Q 2176 422 2425 627 
Q 2675 832 2675 1184 
L 2675 1677 
L 1651 1677 
Q 1370 1677 1194 1507 
Q 1018 1338 1018 1056 
Q 1018 762 1213 592 
Q 1408 422 1754 422 
z
" transform="scale(0.015625)"/>
       <path id="JetBrainsMono-Regular-74" d="M 2272 0 
Q 1837 0 1574 253 
Q 1312 506 1312 928 
L 1312 2995 
L 301 2995 
L 301 3520 
L 1312 3520 
L 1312 4512 
L 1888 4512 
L 1888 3520 
L 3328 3520 
L 3328 2995 
L 1888 2995 
L 1888 928 
Q 1888 749 1993 637 
Q 2099 525 2272 525 
L 3296 525 
L 3296 0 
L 2272 0 
z
" transform="scale(0.015625)"/>
       <path id="JetBrainsMono-Regular-69" d="M 544 0 
L 544 525 
L 1792 525 
L 1792 2995 
L 672 2995 
L 672 3520 
L 2368 3520 
L 2368 525 
L 3552 525 
L 3552 0 
L 544 0 
z
M 2016 4154 
Q 1805 4154 1683 4262 
Q 1562 4371 1562 4557 
Q 1562 4749 1683 4861 
Q 1805 4973 2016 4973 
Q 2227 4973 2348 4861 
Q 2470 4749 2470 4557 
Q 2470 4371 2348 4262 
Q 2227 4154 2016 4154 
z
" transform="scale(0.015625)"/>
       <path id="JetBrainsMono-Regular-6e" d="M 589 0 
L 589 3520 
L 1165 3520 
L 1165 2848 
L 1171 2848 
Q 1216 3200 1459 3392 
Q 1702 3584 2106 3584 
Q 2637 3584 2950 3257 
Q 3264 2931 3264 2368 
L 3264 0 
L 2688 0 
L 2688 2266 
Q 2688 2669 2486 2883 
Q 2285 3098 1939 3098 
Q 1581 3098 1373 2874 
Q 1165 2650 1165 2240 
L 1165 0 
L 589 0 
z
" transform="scale(0.015625)"/>
       <path id="JetBrainsMono-Regular-67" d="M 1030 -1152 
L 1030 -627 
L 2022 -627 
Q 2323 -627 2496 -457 
Q 2669 -288 2669 0 
L 2669 320 
L 2682 896 
L 2662 896 
Q 2611 582 2361 412 
Q 2112 243 1734 243 
Q 1190 243 876 588 
Q 563 934 563 1536 
L 563 2278 
Q 563 2880 876 3232 
Q 1190 3584 1734 3584 
Q 2112 3584 2361 3405 
Q 2611 3226 2662 2912 
L 2675 2912 
L 2675 3520 
L 3245 3520 
L 3245 0 
Q 3245 -531 2915 -841 
Q 2586 -1152 2016 -1152 
L 1030 -1152 
z
M 1907 723 
Q 2266 723 2470 947 
Q 2675 1171 2675 1568 
L 2675 2240 
Q 2675 2637 2470 2861 
Q 2266 3085 1907 3085 
Q 1542 3085 1340 2873 
Q 1139 2662 1139 2304 
L 1139 1504 
Q 1139 1146 1340 934 
Q 1542 723 1907 723 
z
" transform="scale(0.015625)"/>
      </defs>
      <use xlink:href="#JetBrainsMono-Regular-52"/>
      <use xlink:href="#JetBrainsMono-Regular-61" transform="translate(59.999985 0)"/>
      <use xlink:href="#JetBrainsMono-Regular-74" transform="translate(119.999969 0)"/>
      <use xlink:href="#JetBrainsMono-Regular-69" transform="translate(179.999954 0)"/>
      <use xlink:href="#JetBrainsMono-Regular-6e" transform="translate(239.999939 0)"/>
      <use xlink:href="#JetBrainsMono-Regular-67" transform="translate(299.999924 0)"/>
     </g>
    </g>
   </g>
   <g id="patch_3">
    <path d="M 55.296 324.72 
L 55.296 55.44 
" style="fill: none; stroke: #d8c8ef; stroke-width: 0.8; stroke-linejoin: miter; stroke-linecap: square"/>
   </g>
   <g id="patch_4">
    <path d="M 55.296 324.72 
L 546.048 324.72 
" style="fill: none; stroke: #d8c8ef; stroke-width: 0.8; stroke-linejoin: miter; stroke-linecap: square"/>
   </g>
   <g id="FillBetweenPolyCollection_1">
    <defs>
     <path id="m83ccfcda44" d="M 82.56 -71.28 
L 82.56 -101.100598 
L 84.018943 -102.423858 
L 85.477886 -103.639463 
L 86.936829 -104.750373 
L 88.395773 -105.759547 
L 89.854716 -106.669944 
L 91.313659 -107.484525 
L 92.772602 -108.206249 
L 94.231545 -108.838075 
L 95.690488 -109.382963 
L 97.149431 -109.843873 
L 98.608375 -110.223764 
L 100.067318 -110.525596 
L 101.526261 -110.752328 
L 102.985204 -110.90692 
L 104.444147 -110.992332 
L 105.90309 -111.011523 
L 107.362033 -110.967453 
L 108.820977 -110.863081 
L 110.27992 -110.701367 
L 111.738863 -110.485271 
L 113.197806 -110.217752 
L 114.656749 -109.90177 
L 116.115692 -109.540284 
L 117.574635 -109.136253 
L 119.033579 -108.692639 
L 120.492522 -108.212399 
L 121.951465 -107.698494 
L 123.410408 -107.153883 
L 124.869351 -106.581526 
L 126.328294 -105.984383 
L 127.787237 -105.365413 
L 129.246181 -104.727575 
L 130.705124 -104.073829 
L 132.164067 -103.407136 
L 133.62301 -102.730453 
L 135.081953 -102.046742 
L 136.540896 -101.358961 
L 137.999839 -100.67007 
L 139.458783 -99.983029 
L 140.917726 -99.300798 
L 142.376669 -98.626335 
L 143.835612 -97.962601 
L 145.294555 -97.312555 
L 146.753498 -96.679156 
L 148.212441 -96.065365 
L 149.671385 -95.474141 
L 151.130328 -94.908443 
L 152.589271 -94.371231 
L 154.048214 -93.865465 
L 155.507157 -93.394105 
L 156.9661 -92.960108 
L 158.425043 -92.566437 
L 159.883987 -92.216049 
L 161.34293 -91.911905 
L 162.801873 -91.656964 
L 164.260816 -91.454186 
L 165.719759 -91.30653 
L 167.178702 -91.216957 
L 168.637645 -91.188424 
L 170.096589 -91.223893 
L 171.555532 -91.326323 
L 173.014475 -91.498672 
L 174.473418 -91.743902 
L 175.932361 -92.064971 
L 177.391304 -92.46484 
L 178.850247 -92.946467 
L 180.309191 -93.512812 
L 181.768134 -94.166835 
L 183.227077 -94.911495 
L 184.68602 -95.749753 
L 186.144963 -96.684567 
L 187.603906 -97.718897 
L 189.062849 -98.855703 
L 190.521793 -100.097945 
L 191.980736 -101.448558 
L 193.439679 -102.907692 
L 194.898622 -104.470081 
L 196.357565 -106.129838 
L 197.816508 -107.881075 
L 199.275452 -109.717905 
L 200.734395 -111.63444 
L 202.193338 -113.624792 
L 203.652281 -115.683074 
L 205.111224 -117.803399 
L 206.570167 -119.979878 
L 208.02911 -122.206625 
L 209.488054 -124.477752 
L 210.946997 -126.787371 
L 212.40594 -129.129594 
L 213.864883 -131.498535 
L 215.323826 -133.888305 
L 216.782769 -136.293017 
L 218.241712 -138.706784 
L 219.700656 -141.123718 
L 221.159599 -143.537931 
L 222.618542 -145.943537 
L 224.077485 -148.334646 
L 225.536428 -150.705372 
L 226.995371 -153.049828 
L 228.454314 -155.362125 
L 229.913258 -157.636376 
L 231.372201 -159.866694 
L 232.831144 -162.047191 
L 234.290087 -164.17198 
L 235.74903 -166.235173 
L 237.207973 -168.230882 
L 238.666916 -170.15322 
L 240.12586 -171.996299 
L 241.584803 -173.754232 
L 243.043746 -175.421131 
L 244.502689 -176.991109 
L 245.961632 -178.458279 
L 247.420575 -179.817871 
L 248.879518 -181.071658 
L 250.338462 -182.223776 
L 251.797405 -183.278365 
L 253.256348 -184.239568 
L 254.715291 -185.111523 
L 256.174234 -185.898373 
L 257.633177 -186.604256 
L 259.09212 -187.233315 
L 260.551064 -187.78969 
L 262.010007 -188.27752 
L 263.46895 -188.700948 
L 264.927893 -189.064113 
L 266.386836 -189.371156 
L 267.845779 -189.626217 
L 269.304722 -189.833439 
L 270.763666 -189.99696 
L 272.222609 -190.120921 
L 273.681552 -190.209464 
L 275.140495 -190.266728 
L 276.599438 -190.296855 
L 278.058381 -190.303985 
L 279.517324 -190.292258 
L 280.976268 -190.265816 
L 282.435211 -190.228798 
L 283.894154 -190.185346 
L 285.353097 -190.1396 
L 286.81204 -190.0957 
L 288.270983 -190.057788 
L 289.729926 -190.030004 
L 291.18887 -190.016488 
L 292.647813 -190.021382 
L 294.106756 -190.048825 
L 295.565699 -190.102958 
L 297.024642 -190.187923 
L 298.483585 -190.307859 
L 299.942528 -190.466907 
L 301.401472 -190.669085 
L 302.860415 -190.915581 
L 304.319358 -191.204753 
L 305.778301 -191.534837 
L 307.237244 -191.904068 
L 308.696187 -192.310682 
L 310.15513 -192.752915 
L 311.614074 -193.229001 
L 313.073017 -193.737177 
L 314.53196 -194.275677 
L 315.990903 -194.842738 
L 317.449846 -195.436594 
L 318.908789 -196.055482 
L 320.367732 -196.697637 
L 321.826676 -197.361294 
L 323.285619 -198.044688 
L 324.744562 -198.746056 
L 326.203505 -199.463633 
L 327.662448 -200.195654 
L 329.121391 -200.940355 
L 330.580334 -201.69597 
L 332.039278 -202.460737 
L 333.498221 -203.23289 
L 334.957164 -204.010665 
L 336.416107 -204.792296 
L 337.87505 -205.576021 
L 339.333993 -206.360074 
L 340.792936 -207.14269 
L 342.25188 -207.922106 
L 343.710823 -208.696556 
L 345.169766 -209.464277 
L 346.628709 -210.223503 
L 348.087652 -210.97247 
L 349.546595 -211.709415 
L 351.005538 -212.432571 
L 352.464482 -213.140175 
L 353.923425 -213.830462 
L 355.382368 -214.501668 
L 356.841311 -215.15265 
L 358.300254 -215.783976 
L 359.759197 -216.396506 
L 361.21814 -216.991102 
L 362.677084 -217.568625 
L 364.136027 -218.129936 
L 365.59497 -218.675897 
L 367.053913 -219.207368 
L 368.512856 -219.725211 
L 369.971799 -220.230286 
L 371.430742 -220.723456 
L 372.889686 -221.20558 
L 374.348629 -221.677521 
L 375.807572 -222.14014 
L 377.266515 -222.594297 
L 378.725458 -223.040854 
L 380.184401 -223.480671 
L 381.643344 -223.914611 
L 383.102288 -224.343534 
L 384.561231 -224.768302 
L 386.020174 -225.189775 
L 387.479117 -225.608815 
L 388.93806 -226.026283 
L 390.397003 -226.44304 
L 391.855946 -226.859948 
L 393.31489 -227.277867 
L 394.773833 -227.697658 
L 396.232776 -228.120183 
L 397.691719 -228.546303 
L 399.150662 -228.976879 
L 400.609605 -229.412772 
L 402.068548 -229.854844 
L 403.527492 -230.303956 
L 404.986435 -230.760968 
L 406.445378 -231.226742 
L 407.904321 -231.702139 
L 409.363264 -232.18802 
L 410.822207 -232.685212 
L 412.281151 -233.194246 
L 413.740094 -233.715499 
L 415.199037 -234.249347 
L 416.65798 -234.796166 
L 418.116923 -235.356332 
L 419.575866 -235.930221 
L 421.034809 -236.51821 
L 422.493753 -237.120674 
L 423.952696 -237.737989 
L 425.411639 -238.370533 
L 426.870582 -239.01868 
L 428.329525 -239.682807 
L 429.788468 -240.363289 
L 431.247411 -241.060504 
L 432.706355 -241.774827 
L 434.165298 -242.506635 
L 435.624241 -243.256302 
L 437.083184 -244.024206 
L 438.542127 -244.810723 
L 440.00107 -245.616228 
L 441.460013 -246.441098 
L 442.918957 -247.285709 
L 444.3779 -248.150437 
L 445.836843 -249.035658 
L 447.295786 -249.941748 
L 448.754729 -250.869083 
L 450.213672 -251.818039 
L 451.672615 -252.788993 
L 453.131559 -253.782321 
L 454.590502 -254.798398 
L 456.049445 -255.837601 
L 457.508388 -256.900306 
L 458.967331 -257.986889 
L 460.426274 -259.097726 
L 461.885217 -260.233193 
L 463.344161 -261.393666 
L 464.803104 -262.579521 
L 466.262047 -263.791135 
L 467.72099 -265.028884 
L 469.179933 -266.293143 
L 470.638876 -267.584289 
L 472.097819 -268.902698 
L 473.556763 -270.248746 
L 475.015706 -271.622808 
L 476.474649 -273.025262 
L 477.933592 -274.456484 
L 479.392535 -275.916848 
L 480.851478 -277.406732 
L 482.310421 -278.926511 
L 483.769365 -280.476563 
L 485.228308 -282.057262 
L 486.687251 -283.668984 
L 488.146194 -285.312107 
L 489.605137 -286.987006 
L 491.06408 -288.694056 
L 492.523023 -290.433636 
L 493.981967 -292.206119 
L 495.44091 -294.011883 
L 496.899853 -295.851303 
L 498.358796 -297.724756 
L 499.817739 -299.632618 
L 501.276682 -301.575265 
L 502.735625 -303.553073 
L 504.194569 -305.566417 
L 505.653512 -307.615675 
L 507.112455 -309.701222 
L 508.571398 -311.823434 
L 510.030341 -313.982688 
L 511.489284 -316.179359 
L 512.948227 -318.413824 
L 514.407171 -320.686459 
L 515.866114 -322.99764 
L 517.325057 -325.347742 
L 518.784 -327.737143 
L 518.784 -71.28 
L 518.784 -71.28 
L 517.325057 -71.28 
L 515.866114 -71.28 
L 514.407171 -71.28 
L 512.948227 -71.28 
L 511.489284 -71.28 
L 510.030341 -71.28 
L 508.571398 -71.28 
L 507.112455 -71.28 
L 505.653512 -71.28 
L 504.194569 -71.28 
L 502.735625 -71.28 
L 501.276682 -71.28 
L 499.817739 -71.28 
L 498.358796 -71.28 
L 496.899853 -71.28 
L 495.44091 -71.28 
L 493.981967 -71.28 
L 492.523023 -71.28 
L 491.06408 -71.28 
L 489.605137 -71.28 
L 488.146194 -71.28 
L 486.687251 -71.28 
L 485.228308 -71.28 
L 483.769365 -71.28 
L 482.310421 -71.28 
L 480.851478 -71.28 
L 479.392535 -71.28 
L 477.933592 -71.28 
L 476.474649 -71.28 
L 475.015706 -71.28 
L 473.556763 -71.28 
L 472.097819 -71.28 
L 470.638876 -71.28 
L 469.179933 -71.28 
L 467.72099 -71.28 
L 466.262047 -71.28 
L 464.803104 -71.28 
L 463.344161 -71.28 
L 461.885217 -71.28 
L 460.426274 -71.28 
L 458.967331 -71.28 
L 457.508388 -71.28 
L 456.049445 -71.28 
L 454.590502 -71.28 
L 453.131559 -71.28 
L 451.672615 -71.28 
L 450.213672 -71.28 
L 448.754729 -71.28 
L 447.295786 -71.28 
L 445.836843 -71.28 
L 444.3779 -71.28 
L 442.918957 -71.28 
L 441.460013 -71.28 
L 440.00107 -71.28 
L 438.542127 -71.28 
L 437.083184 -71.28 
L 435.624241 -71.28 
L 434.165298 -71.28 
L 432.706355 -71.28 
L 431.247411 -71.28 
L 429.788468 -71.28 
L 428.329525 -71.28 
L 426.870582 -71.28 
L 425.411639 -71.28 
L 423.952696 -71.28 
L 422.493753 -71.28 
L 421.034809 -71.28 
L 419.575866 -71.28 
L 418.116923 -71.28 
L 416.65798 -71.28 
L 415.199037 -71.28 
L 413.740094 -71.28 
L 412.281151 -71.28 
L 410.822207 -71.28 
L 409.363264 -71.28 
L 407.904321 -71.28 
L 406.445378 -71.28 
L 404.986435 -71.28 
L 403.527492 -71.28 
L 402.068548 -71.28 
L 400.609605 -71.28 
L 399.150662 -71.28 
L 397.691719 -71.28 
L 396.232776 -71.28 
L 394.773833 -71.28 
L 393.31489 -71.28 
L 391.855946 -71.28 
L 390.397003 -71.28 
L 388.93806 -71.28 
L 387.479117 -71.28 
L 386.020174 -71.28 
L 384.561231 -71.28 
L 383.102288 -71.28 
L 381.643344 -71.28 
L 380.184401 -71.28 
L 378.725458 -71.28 
L 377.266515 -71.28 
L 375.807572 -71.28 
L 374.348629 -71.28 
L 372.889686 -71.28 
L 371.430742 -71.28 
L 369.971799 -71.28 
L 368.512856 -71.28 
L 367.053913 -71.28 
L 365.59497 -71.28 
L 364.136027 -71.28 
L 362.677084 -71.28 
L 361.21814 -71.28 
L 359.759197 -71.28 
L 358.300254 -71.28 
L 356.841311 -71.28 
L 355.382368 -71.28 
L 353.923425 -71.28 
L 352.464482 -71.28 
L 351.005538 -71.28 
L 349.546595 -71.28 
L 348.087652 -71.28 
L 346.628709 -71.28 
L 345.169766 -71.28 
L 343.710823 -71.28 
L 342.25188 -71.28 
L 340.792936 -71.28 
L 339.333993 -71.28 
L 337.87505 -71.28 
L 336.416107 -71.28 
L 334.957164 -71.28 
L 333.498221 -71.28 
L 332.039278 -71.28 
L 330.580334 -71.28 
L 329.121391 -71.28 
L 327.662448 -71.28 
L 326.203505 -71.28 
L 324.744562 -71.28 
L 323.285619 -71.28 
L 321.826676 -71.28 
L 320.367732 -71.28 
L 318.908789 -71.28 
L 317.449846 -71.28 
L 315.990903 -71.28 
L 314.53196 -71.28 
L 313.073017 -71.28 
L 311.614074 -71.28 
L 310.15513 -71.28 
L 308.696187 -71.28 
L 307.237244 -71.28 
L 305.778301 -71.28 
L 304.319358 -71.28 
L 302.860415 -71.28 
L 301.401472 -71.28 
L 299.942528 -71.28 
L 298.483585 -71.28 
L 297.024642 -71.28 
L 295.565699 -71.28 
L 294.106756 -71.28 
L 292.647813 -71.28 
L 291.18887 -71.28 
L 289.729926 -71.28 
L 288.270983 -71.28 
L 286.81204 -71.28 
L 285.353097 -71.28 
L 283.894154 -71.28 
L 282.435211 -71.28 
L 280.976268 -71.28 
L 279.517324 -71.28 
L 278.058381 -71.28 
L 276.599438 -71.28 
L 275.140495 -71.28 
L 273.681552 -71.28 
L 272.222609 -71.28 
L 270.763666 -71.28 
L 269.304722 -71.28 
L 267.845779 -71.28 
L 266.386836 -71.28 
L 264.927893 -71.28 
L 263.46895 -71.28 
L 262.010007 -71.28 
L 260.551064 -71.28 
L 259.09212 -71.28 
L 257.633177 -71.28 
L 256.174234 -71.28 
L 254.715291 -71.28 
L 253.256348 -71.28 
L 251.797405 -71.28 
L 250.338462 -71.28 
L 248.879518 -71.28 
L 247.420575 -71.28 
L 245.961632 -71.28 
L 244.502689 -71.28 
L 243.043746 -71.28 
L 241.584803 -71.28 
L 240.12586 -71.28 
L 238.666916 -71.28 
L 237.207973 -71.28 
L 235.74903 -71.28 
L 234.290087 -71.28 
L 232.831144 -71.28 
L 231.372201 -71.28 
L 229.913258 -71.28 
L 228.454314 -71.28 
L 226.995371 -71.28 
L 225.536428 -71.28 
L 224.077485 -71.28 
L 222.618542 -71.28 
L 221.159599 -71.28 
L 219.700656 -71.28 
L 218.241712 -71.28 
L 216.782769 -71.28 
L 215.323826 -71.28 
L 213.864883 -71.28 
L 212.40594 -71.28 
L 210.946997 -71.28 
L 209.488054 -71.28 
L 208.02911 -71.28 
L 206.570167 -71.28 
L 205.111224 -71.28 
L 203.652281 -71.28 
L 202.193338 -71.28 
L 200.734395 -71.28 
L 199.275452 -71.28 
L 197.816508 -71.28 
L 196.357565 -71.28 
L 194.898622 -71.28 
L 193.439679 -71.28 
L 191.980736 -71.28 
L 190.521793 -71.28 
L 189.062849 -71.28 
L 187.603906 -71.28 
L 186.144963 -71.28 
L 184.68602 -71.28 
L 183.227077 -71.28 
L 181.768134 -71.28 
L 180.309191 -71.28 
L 178.850247 -71.28 
L 177.391304 -71.28 
L 175.932361 -71.28 
L 174.473418 -71.28 
L 173.014475 -71.28 
L 171.555532 -71.28 
L 170.096589 -71.28 
L 168.637645 -71.28 
L 167.178702 -71.28 
L 165.719759 -71.28 
L 164.260816 -71.28 
L 162.801873 -71.28 
L 161.34293 -71.28 
L 159.883987 -71.28 
L 158.425043 -71.28 
L 156.9661 -71.28 
L 155.507157 -71.28 
L 154.048214 -71.28 
L 152.589271 -71.28 
L 151.130328 -71.28 
L 149.671385 -71.28 
L 148.212441 -71.28 
L 146.753498 -71.28 
L 145.294555 -71.28 
L 143.835612 -71.28 
L 142.376669 -71.28 
L 140.917726 -71.28 
L 139.458783 -71.28 
L 137.999839 -71.28 
L 136.540896 -71.28 
L 135.081953 -71.28 
L 133.62301 -71.28 
L 132.164067 -71.28 
L 130.705124 -71.28 
L 129.246181 -71.28 
L 127.787237 -71.28 
L 126.328294 -71.28 
L 124.869351 -71.28 
L 123.410408 -71.28 
L 121.951465 -71.28 
L 120.492522 -71.28 
L 119.033579 -71.28 
L 117.574635 -71.28 
L 116.115692 -71.28 
L 114.656749 -71.28 
L 113.197806 -71.28 
L 111.738863 -71.28 
L 110.27992 -71.28 
L 108.820977 -71.28 
L 107.362033 -71.28 
L 105.90309 -71.28 
L 104.444147 -71.28 
L 102.985204 -71.28 
L 101.526261 -71.28 
L 100.067318 -71.28 
L 98.608375 -71.28 
L 97.149431 -71.28 
L 95.690488 -71.28 
L 94.231545 -71.28 
L 92.772602 -71.28 
L 91.313659 -71.28 
L 89.854716 -71.28 
L 88.395773 -71.28 
L 86.936829 -71.28 
L 85.477886 -71.28 
L 84.018943 -71.28 
L 82.56 -71.28 
z
" style="stroke: #8b5cf6; stroke-opacity: 0.12"/>
    </defs>
    <g clip-path="url(#pc3bf4651bf)">
     <use xlink:href="#m83ccfcda44" x="0" y="396" style="fill: #8b5cf6; fill-opacity: 0.12; stroke: #8b5cf6; stroke-opacity: 0.12"/>
    </g>
   </g>
   <g id="text_16">
    <!-- 239 -->
    <g style="fill: #8b5cf6" transform="translate(521.784 65.262857) scale(0.12 -0.12)">
     <defs>
      <path id="JetBrainsMono-Bold-32" d="M 474 0 
L 474 723 
L 2157 2445 
Q 2566 2874 2566 3315 
Q 2566 3629 2384 3824 
Q 2202 4019 1894 4019 
Q 1581 4019 1392 3817 
Q 1203 3616 1203 3283 
L 403 3283 
Q 403 3718 595 4044 
Q 787 4371 1126 4553 
Q 1466 4736 1914 4736 
Q 2355 4736 2688 4563 
Q 3021 4390 3203 4080 
Q 3386 3770 3386 3354 
Q 3386 2995 3216 2636 
Q 3046 2278 2656 1894 
L 1478 723 
L 3443 723 
L 3443 0 
L 474 0 
z
" transform="scale(0.015625)"/>
      <path id="JetBrainsMono-Bold-33" d="M 1875 -64 
Q 1184 -64 781 297 
Q 378 659 378 1280 
L 1184 1280 
Q 1184 986 1369 810 
Q 1555 634 1882 634 
Q 2202 634 2387 810 
Q 2573 986 2573 1280 
L 2573 1632 
Q 2573 1946 2390 2122 
Q 2208 2298 1882 2298 
L 1293 2298 
L 1293 2938 
L 2368 3968 
L 544 3968 
L 544 4672 
L 3245 4672 
L 3245 3994 
L 2170 2963 
Q 2733 2886 3056 2537 
Q 3379 2189 3379 1632 
L 3379 1280 
Q 3379 659 2972 297 
Q 2566 -64 1875 -64 
z
" transform="scale(0.015625)"/>
      <path id="JetBrainsMono-Bold-39" d="M 1120 0 
L 2214 1888 
Q 2138 1830 2035 1788 
Q 1933 1747 1728 1747 
Q 1344 1747 1027 1932 
Q 710 2118 524 2448 
Q 339 2778 339 3213 
Q 339 3674 534 4016 
Q 730 4358 1085 4547 
Q 1440 4736 1920 4736 
Q 2400 4736 2755 4544 
Q 3110 4352 3305 4003 
Q 3501 3654 3501 3187 
Q 3501 2912 3382 2557 
Q 3264 2202 3059 1837 
L 2048 0 
L 1120 0 
z
M 1920 2387 
Q 2278 2387 2496 2614 
Q 2714 2842 2714 3226 
Q 2714 3603 2496 3830 
Q 2278 4058 1920 4058 
Q 1562 4058 1344 3830 
Q 1126 3603 1126 3226 
Q 1126 2842 1344 2614 
Q 1562 2387 1920 2387 
z
" transform="scale(0.015625)"/>
     </defs>
     <use xlink:href="#JetBrainsMono-Bold-32"/>
     <use xlink:href="#JetBrainsMono-Bold-33" transform="translate(59.999985 0)"/>
     <use xlink:href="#JetBrainsMono-Bold-39" transform="translate(119.999969 0)"/>
    </g>
   </g>
   <g id="text_17">
    <!-- Rating History -->
    <g style="fill: #8b5cf6" transform="translate(55.296 50.44) scale(0.17 -0.17)">
     <defs>
      <path id="JetBrainsMono-Bold-52" d="M 493 0 
L 493 4672 
L 1965 4672 
Q 2432 4672 2774 4499 
Q 3117 4326 3309 4016 
Q 3501 3706 3501 3283 
Q 3501 2816 3270 2467 
Q 3040 2118 2650 1971 
L 3565 0 
L 2688 0 
L 1869 1856 
L 1286 1856 
L 1286 0 
L 493 0 
z
M 1286 2560 
L 1965 2560 
Q 2304 2560 2496 2745 
Q 2688 2931 2688 3258 
Q 2688 3584 2493 3776 
Q 2298 3968 1965 3968 
L 1286 3968 
L 1286 2560 
z
" transform="scale(0.015625)"/>
      <path id="JetBrainsMono-Bold-61" d="M 1530 -64 
Q 992 -64 681 240 
Q 371 544 371 1037 
Q 371 1549 723 1853 
Q 1075 2157 1690 2157 
L 2547 2157 
L 2547 2406 
Q 2547 2938 1926 2938 
Q 1645 2938 1478 2829 
Q 1312 2720 1293 2522 
L 525 2522 
Q 550 2995 924 3289 
Q 1299 3584 1933 3584 
Q 2605 3584 2976 3270 
Q 3347 2957 3347 2387 
L 3347 0 
L 2566 0 
L 2566 659 
Q 2522 320 2246 128 
Q 1971 -64 1530 -64 
z
M 1786 589 
Q 2138 589 2342 761 
Q 2547 934 2547 1222 
L 2547 1638 
L 1728 1638 
Q 1466 1638 1312 1491 
Q 1158 1344 1158 1114 
Q 1158 877 1321 733 
Q 1485 589 1786 589 
z
" transform="scale(0.015625)"/>
      <path id="JetBrainsMono-Bold-74" d="M 2272 0 
Q 1779 0 1488 285 
Q 1197 570 1197 1056 
L 1197 2797 
L 224 2797 
L 224 3520 
L 1197 3520 
L 1197 4512 
L 2003 4512 
L 2003 3520 
L 3405 3520 
L 3405 2797 
L 2003 2797 
L 2003 1075 
Q 2003 922 2089 822 
Q 2176 723 2330 723 
L 3373 723 
L 3373 0 
L 2272 0 
z
" transform="scale(0.015625)"/>
      <path id="JetBrainsMono-Bold-69" d="M 486 0 
L 486 723 
L 1690 723 
L 1690 2797 
L 614 2797 
L 614 3520 
L 2490 3520 
L 2490 723 
L 3571 723 
L 3571 0 
L 486 0 
z
M 2032 4109 
Q 1789 4109 1648 4233 
Q 1507 4358 1507 4570 
Q 1507 4781 1648 4905 
Q 1789 5030 2032 5030 
Q 2275 5030 2416 4905 
Q 2557 4781 2557 4570 
Q 2557 4358 2416 4233 
Q 2275 4109 2032 4109 
z
" transform="scale(0.015625)"/>
      <path id="JetBrainsMono-Bold-6e" d="M 493 0 
L 493 3520 
L 1274 3520 
L 1274 2861 
Q 1338 3194 1587 3389 
Q 1837 3584 2221 3584 
Q 2739 3584 3049 3238 
Q 3360 2893 3360 2310 
L 3360 0 
L 2560 0 
L 2560 2214 
Q 2560 2541 2390 2717 
Q 2221 2893 1933 2893 
Q 1632 2893 1462 2713 
Q 1293 2534 1293 2202 
L 1293 0 
L 493 0 
z
" transform="scale(0.015625)"/>
      <path id="JetBrainsMono-Bold-67" d="M 973 -1152 
L 973 -486 
L 1965 -486 
Q 2246 -486 2400 -336 
Q 2554 -186 2554 70 
L 2554 282 
L 2566 832 
Q 2458 538 2218 374 
Q 1978 211 1632 211 
Q 1094 211 777 572 
Q 461 934 461 1555 
L 461 2240 
Q 461 2854 777 3219 
Q 1094 3584 1632 3584 
Q 1978 3584 2218 3421 
Q 2458 3258 2566 2957 
L 2566 3520 
L 3347 3520 
L 3347 51 
Q 3347 -506 2979 -829 
Q 2611 -1152 1978 -1152 
L 973 -1152 
z
M 1901 896 
Q 2208 896 2377 1078 
Q 2547 1261 2547 1587 
L 2547 2202 
Q 2547 2528 2377 2710 
Q 2208 2893 1901 2893 
Q 1594 2893 1427 2717 
Q 1261 2541 1261 2227 
L 1261 1562 
Q 1261 1248 1427 1072 
Q 1594 896 1901 896 
z
" transform="scale(0.015625)"/>
      <path id="JetBrainsMono-Bold-20" transform="scale(0.015625)"/>
      <path id="JetBrainsMono-Bold-48" d="M 493 0 
L 493 4672 
L 1293 4672 
L 1293 2778 
L 2547 2778 
L 2547 4672 
L 3347 4672 
L 3347 0 
L 2547 0 
L 2547 2054 
L 1293 2054 
L 1293 0 
L 493 0 
z
" transform="scale(0.015625)"/>
      <path id="JetBrainsMono-Bold-73" d="M 1773 -58 
Q 1146 -58 781 227 
Q 416 512 416 998 
L 1203 998 
Q 1203 794 1353 685 
Q 1504 576 1773 576 
L 2054 576 
Q 2342 576 2499 685 
Q 2656 794 2656 998 
Q 2656 1190 2547 1283 
Q 2438 1376 2214 1408 
L 1338 1523 
Q 915 1581 688 1849 
Q 461 2118 461 2547 
Q 461 3046 793 3312 
Q 1126 3578 1754 3578 
L 2048 3578 
Q 2637 3578 2995 3309 
Q 3354 3040 3366 2592 
L 2573 2592 
Q 2566 2758 2425 2857 
Q 2285 2957 2048 2957 
L 1754 2957 
Q 1498 2957 1363 2851 
Q 1229 2746 1229 2566 
Q 1229 2406 1328 2329 
Q 1427 2253 1619 2234 
L 2445 2118 
Q 2931 2061 3177 1776 
Q 3424 1491 3424 1011 
Q 3424 499 3075 220 
Q 2726 -58 2054 -58 
L 1773 -58 
z
" transform="scale(0.015625)"/>
      <path id="JetBrainsMono-Bold-6f" d="M 1920 -58 
Q 1242 -58 845 323 
Q 448 704 448 1350 
L 448 2170 
Q 448 2822 845 3200 
Q 1242 3578 1920 3578 
Q 2598 3578 2995 3200 
Q 3392 2822 3392 2170 
L 3392 1350 
Q 3392 704 2995 323 
Q 2598 -58 1920 -58 
z
M 1920 640 
Q 2240 640 2416 816 
Q 2592 992 2592 1325 
L 2592 2195 
Q 2592 2528 2416 2704 
Q 2240 2880 1920 2880 
Q 1600 2880 1424 2704 
Q 1248 2528 1248 2195 
L 1248 1325 
Q 1248 992 1424 816 
Q 1600 640 1920 640 
z
" transform="scale(0.015625)"/>
      <path id="JetBrainsMono-Bold-72" d="M 621 0 
L 621 3520 
L 1402 3520 
L 1402 2835 
Q 1466 3181 1718 3382 
Q 1971 3584 2374 3584 
Q 2912 3584 3213 3238 
Q 3514 2893 3514 2272 
L 3514 1939 
L 2714 1939 
L 2714 2234 
Q 2714 2554 2547 2723 
Q 2381 2893 2074 2893 
Q 1754 2893 1587 2701 
Q 1421 2509 1421 2157 
L 1421 0 
L 621 0 
z
" transform="scale(0.015625)"/>
      <path id="JetBrainsMono-Bold-79" d="M 1056 -1152 
L 1555 192 
L 230 3520 
L 1075 3520 
L 1754 1722 
Q 1811 1562 1868 1373 
Q 1926 1184 1952 1024 
Q 1971 1184 2025 1373 
Q 2080 1562 2138 1722 
L 2765 3520 
L 3610 3520 
L 1894 -1152 
L 1056 -1152 
z
" transform="scale(0.015625)"/>
     </defs>
     <use xlink:href="#JetBrainsMono-Bold-52"/>
     <use xlink:href="#JetBrainsMono-Bold-61" transform="translate(59.999985 0)"/>
     <use xlink:href="#JetBrainsMono-Bold-74" transform="translate(119.999969 0)"/>
     <use xlink:href="#JetBrainsMono-Bold-69" transform="translate(179.999954 0)"/>
     <use xlink:href="#JetBrainsMono-Bold-6e" transform="translate(239.999939 0)"/>
     <use xlink:href="#JetBrainsMono-Bold-67" transform="translate(299.999924 0)"/>
     <use xlink:href="#JetBrainsMono-Bold-20" transform="translate(359.999908 0)"/>
     <use xlink:href="#JetBrainsMono-Bold-48" transform="translate(419.999893 0)"/>
     <use xlink:href="#JetBrainsMono-Bold-69" transform="translate(479.999878 0)"/>
     <use xlink:href="#JetBrainsMono-Bold-73" transform="translate(539.999863 0)"/>
     <use xlink:href="#JetBrainsMono-Bold-74" transform="translate(599.999847 0)"/>
     <use xlink:href="#JetBrainsMono-Bold-6f" transform="translate(659.999832 0)"/>
     <use xlink:href="#JetBrainsMono-Bold-72" transform="translate(719.999817 0)"/>
     <use xlink:href="#JetBrainsMono-Bold-79" transform="translate(779.999802 0)"/>
    </g>
   </g>
   <g id="line2d_29">
    <path d="M 82.56 294.899402 
L 85.477886 292.360537 
L 88.395773 290.240453 
L 91.313659 288.515475 
L 94.231545 287.161925 
L 97.149431 286.156127 
L 100.067318 285.474404 
L 102.985204 285.09308 
L 105.90309 284.988477 
L 108.820977 285.136919 
L 111.738863 285.514729 
L 114.656749 286.09823 
L 117.574635 286.863747 
L 121.951465 288.301506 
L 126.328294 290.015617 
L 132.164067 292.592864 
L 148.212441 299.934635 
L 152.589271 301.628769 
L 156.9661 303.039892 
L 159.883987 303.783951 
L 162.801873 304.343036 
L 165.719759 304.69347 
L 168.637645 304.811576 
L 171.555532 304.673677 
L 174.473418 304.256098 
L 177.391304 303.53516 
L 180.309191 302.487188 
L 183.227077 301.088505 
L 186.144963 299.315433 
L 189.062849 297.144297 
L 191.980736 294.551442 
L 194.898622 291.529919 
L 197.816508 288.118925 
L 200.734395 284.36556 
L 203.652281 280.316926 
L 208.02911 273.793375 
L 212.40594 266.870406 
L 221.159599 252.462069 
L 228.454314 240.637875 
L 232.831144 233.952809 
L 237.207973 227.769118 
L 240.12586 224.003701 
L 243.043746 220.578869 
L 245.961632 217.541721 
L 248.879518 214.928342 
L 251.797405 212.721635 
L 254.715291 210.888477 
L 257.633177 209.395744 
L 260.551064 208.21031 
L 263.46895 207.299052 
L 266.386836 206.628844 
L 269.304722 206.166561 
L 272.222609 205.879079 
L 276.599438 205.703145 
L 282.435211 205.771202 
L 292.647813 205.978618 
L 297.024642 205.812077 
L 299.942528 205.533093 
L 302.860415 205.084419 
L 305.778301 204.465163 
L 310.15513 203.247085 
L 314.53196 201.724323 
L 318.908789 199.944518 
L 323.285619 197.955312 
L 329.121391 195.059645 
L 337.87505 190.423979 
L 348.087652 185.02753 
L 353.923425 182.169538 
L 359.759197 179.603494 
L 365.59497 177.324103 
L 371.430742 175.276544 
L 378.725458 172.959146 
L 388.93806 169.973717 
L 403.527492 165.696044 
L 410.822207 163.314788 
L 416.65798 161.203834 
L 422.493753 158.879326 
L 428.329525 156.317193 
L 434.165298 153.493365 
L 440.00107 150.383772 
L 445.836843 146.964342 
L 451.672615 143.211007 
L 456.049445 140.162399 
L 460.426274 136.902274 
L 464.803104 133.420479 
L 469.179933 129.706857 
L 473.556763 125.751254 
L 477.933592 121.543516 
L 482.310421 117.073489 
L 486.687251 112.331016 
L 491.06408 107.305944 
L 495.44091 101.988117 
L 499.817739 96.367382 
L 504.194569 90.433583 
L 508.571398 84.176566 
L 512.948227 77.586176 
L 517.325057 70.652258 
L 518.784 68.262857 
L 518.784 68.262857 
" clip-path="url(#pc3bf4651bf)" style="fill: none; stroke: #8b5cf6; stroke-width: 1.2; stroke-linecap: round"/>
   </g>
   <g id="PathCollection_1">
    <defs>
     <path id="mf020d0f480" d="M 0 2.236068 
C 0.593012 2.236068 1.161816 2.000462 1.581139 1.581139 
C 2.000462 1.161816 2.236068 0.593012 2.236068 0 
C 2.236068 -0.593012 2.000462 -1.161816 1.581139 -1.581139 
C 1.161816 -2.000462 0.593012 -2.236068 0 -2.236068 
C -0.593012 -2.236068 -1.161816 -2.000462 -1.581139 -1.581139 
C -2.000462 -1.161816 -2.236068 -0.593012 -2.236068 0 
C -2.236068 0.593012 -2.000462 1.161816 -1.581139 1.581139 
C -1.161816 2.000462 -0.593012 2.236068 0 2.236068 
z
" style="stroke: #ffffff; stroke-width: 0.8"/>
    </defs>
    <g clip-path="url(#pc3bf4651bf)">
     <use xlink:href="#mf020d0f480" x="518.784" y="68.262857" style="fill: #8b5cf6; stroke: #ffffff; stroke-width: 0.8"/>
    </g>
   </g>
  </g>
  <g id="axes_2">
   <g id="text_18">
    <!-- Rating -->
    <g style="fill: #9b8bb8" transform="translate(565.7472 48.312) scale(0.11 -0.11)">
     <use xlink:href="#JetBrainsMono-Regular-52"/>
     <use xlink:href="#JetBrainsMono-Regular-61" transform="translate(59.999985 0)"/>
     <use xlink:href="#JetBrainsMono-Regular-74" transform="translate(119.999969 0)"/>
     <use xlink:href="#JetBrainsMono-Regular-69" transform="translate(179.999954 0)"/>
     <use xlink:href="#JetBrainsMono-Regular-6e" transform="translate(239.999939 0)"/>
     <use xlink:href="#JetBrainsMono-Regular-67" transform="translate(299.999924 0)"/>
    </g>
   </g>
   <g id="text_19">
    <!-- 239 -->
    <g style="fill: #8b5cf6" transform="translate(565.7472 81.548) scale(0.26 -0.26)">
     <use xlink:href="#JetBrainsMono-Bold-32"/>
     <use xlink:href="#JetBrainsMono-Bold-33" transform="translate(59.999985 0)"/>
     <use xlink:href="#JetBrainsMono-Bold-39" transform="translate(119.999969 0)"/>
    </g>
   </g>
   <g id="text_20">
    <!-- Rank -->
    <g style="fill: #9b8bb8" transform="translate(565.7472 119.592) scale(0.11 -0.11)">
     <defs>
      <path id="JetBrainsMono-Regular-6b" d="M 621 0 
L 621 4672 
L 1197 4672 
L 1197 2067 
L 1869 2067 
L 2854 3520 
L 3514 3520 
L 2381 1843 
L 3578 0 
L 2906 0 
L 1882 1568 
L 1197 1568 
L 1197 0 
L 621 0 
z
" transform="scale(0.015625)"/>
     </defs>
     <use xlink:href="#JetBrainsMono-Regular-52"/>
     <use xlink:href="#JetBrainsMono-Regular-61" transform="translate(59.999985 0)"/>
     <use xlink:href="#JetBrainsMono-Regular-6e" transform="translate(119.999969 0)"/>
     <use xlink:href="#JetBrainsMono-Regular-6b" transform="translate(179.999954 0)"/>
    </g>
   </g>
   <g id="text_21">
    <!-- #122,937 -->
    <g style="fill: #8b5cf6" transform="translate(565.7472 148.104) scale(0.14 -0.14)">
     <defs>
      <path id="JetBrainsMono-Bold-23" d="M 493 0 
L 710 1216 
L 224 1216 
L 224 1760 
L 800 1760 
L 998 2912 
L 448 2912 
L 448 3456 
L 1094 3456 
L 1312 4672 
L 1875 4672 
L 1658 3456 
L 2566 3456 
L 2784 4672 
L 3347 4672 
L 3130 3456 
L 3616 3456 
L 3616 2912 
L 3034 2912 
L 2835 1760 
L 3392 1760 
L 3392 1216 
L 2739 1216 
L 2528 0 
L 1965 0 
L 2182 1216 
L 1267 1216 
L 1056 0 
L 493 0 
z
M 1363 1760 
L 2272 1760 
L 2470 2912 
L 1562 2912 
L 1363 1760 
z
" transform="scale(0.015625)"/>
      <path id="JetBrainsMono-Bold-31" d="M 538 0 
L 538 723 
L 1754 723 
L 1754 3898 
L 531 3002 
L 531 3898 
L 1606 4672 
L 2554 4672 
L 2554 723 
L 3533 723 
L 3533 0 
L 538 0 
z
" transform="scale(0.015625)"/>
      <path id="JetBrainsMono-Bold-2c" d="M 1216 -1024 
L 1555 934 
L 2470 934 
L 1984 -1024 
L 1216 -1024 
z
" transform="scale(0.015625)"/>
      <path id="JetBrainsMono-Bold-37" d="M 1011 0 
L 2720 3968 
L 1229 3968 
L 1229 3206 
L 429 3206 
L 429 4672 
L 3584 4672 
L 3584 3968 
L 1888 0 
L 1011 0 
z
" transform="scale(0.015625)"/>
     </defs>
     <use xlink:href="#JetBrainsMono-Bold-23"/>
     <use xlink:href="#JetBrainsMono-Bold-31" transform="translate(59.999985 0)"/>
     <use xlink:href="#JetBrainsMono-Bold-32" transform="translate(119.999969 0)"/>
     <use xlink:href="#JetBrainsMono-Bold-32" transform="translate(179.999954 0)"/>
     <use xlink:href="#JetBrainsMono-Bold-2c" transform="translate(239.999939 0)"/>
     <use xlink:href="#JetBrainsMono-Bold-39" transform="translate(299.999924 0)"/>
     <use xlink:href="#JetBrainsMono-Bold-33" transform="translate(359.999908 0)"/>
     <use xlink:href="#JetBrainsMono-Bold-37" transform="translate(419.999893 0)"/>
    </g>
   </g>
   <g id="text_22">
    <!-- ▲ +11 -->
    <g style="fill: #4caf50" transform="translate(565.7472 169.488) scale(0.11 -0.11)">
     <defs>
      <path id="JetBrainsMono-Bold-25b2" d="M -64 384 
L 1920 4288 
L 3904 384 
L -64 384 
z
" transform="scale(0.015625)"/>
      <path id="JetBrainsMono-Bold-2b" d="M 1523 589 
L 1523 1741 
L 378 1741 
L 378 2483 
L 1523 2483 
L 1523 3635 
L 2317 3635 
L 2317 2483 
L 3462 2483 
L 3462 1741 
L 2317 1741 
L 2317 589 
L 1523 589 
z
" transform="scale(0.015625)"/>
     </defs>
     <use xlink:href="#JetBrainsMono-Bold-25b2"/>
     <use xlink:href="#JetBrainsMono-Bold-20" transform="translate(59.999985 0)"/>
     <use xlink:href="#JetBrainsMono-Bold-2b" transform="translate(119.999969 0)"/>
     <use xlink:href="#JetBrainsMono-Bold-31" transform="translate(179.999954 0)"/>
     <use xlink:href="#JetBrainsMono-Bold-31" transform="translate(239.999939 0)"/>
    </g>
   </g>
  </g>
 </g>
 <defs>
  <clipPath id="pc3bf4651bf">
   <rect x="55.296" y="55.44" width="490.752" height="269.28"/>
  </clipPath>
 </defs>
</svg>
