<?xml version="1.0" encoding="utf-8" standalone="no"?>
<!DOCTYPE svg PUBLIC "-//W3C//DTD SVG 1.1//EN"
  "http://www.w3.org/Graphics/SVG/1.1/DTD/svg11.dtd">
<svg xmlns:xlink="http://www.w3.org/1999/xlink" width="691.2pt" height="396pt" viewBox="0 0 691.2 396" xmlns="http://www.w3.org/2000/svg" version="1.1">
 <metadata>
  <rdf:RDF xmlns:dc="http://purl.org/dc/elements/1.1/" xmlns:cc="http://creativecommons.org/ns#" xmlns:rdf="http://www.w3.org/1999/02/22-rdf-syntax-ns#">
   <cc:Work>
    <dc:type rdf:resource="http://purl.org/dc/dcmitype/StillImage"/>
    <dc:date>2026-04-07T16:03:07.028160</dc:date>
    <dc:format>image/svg+xml</dc:format>
    <dc:creator>
     <cc:Agent>
      <dc:title>Matplotlib v3.10.8, https://matplotlib.org/</dc:title>
     </cc:Agent>
    </dc:creator>
   </cc:Work>
  </rdf:RDF>
 </metadata>
 <defs>
  <style type="text/css">*{stroke-linejoin: round; stroke-linecap: butt}</style>
 </defs>
 <g id="figure_1">
  <g id="patch_1">
   <path d="M 0 396 
L 691.2 396 
L 691.2 0 
L 0 0 
L 0 396 
z
" style="fill: none"/>
  </g>
  <g id="axes_1">
   <g id="patch_2">
    <path d="M 55.296 324.72 
L 546.048 324.72 
L 546.048 55.44 
L 55.296 55.44 
L 55.296 324.72 
z
" style="fill: none"/>
   </g>
   <g id="matplotlib.axis_1">
    <g id="xtick_1">
     <g id="line2d_1">
      <path d="M 85.968 324.72 
L 85.968 55.44 
" clip-path="url(#p753b8df311)" style="fill: none; stroke-dasharray: 2.22,0.96; stroke-dashoffset: 0; stroke: #e2d5f5; stroke-opacity: 0.7; stroke-width: 0.6"/>
     </g>
     <g id="line2d_2">
      <defs>
       <path id="m7f1cf9b91f" d="M 0 0 
L 0 3.5 
" style="stroke: #9b8bb8; stroke-width: 0.8"/>
      </defs>
      <g>
       <use xlink:href="#m7f1cf9b91f" x="85.968" y="324.72" style="fill: #9b8bb8; stroke: #9b8bb8; stroke-width: 0.8"/>
      </g>
     </g>
     <g id="text_1">
      <!-- 03/31 -->
      <g style="fill: #9b8bb8" transform="translate(74.427619 353.301793) rotate(-30) scale(0.1 -0.1)">
       <defs>
        <path id="JetBrainsMono-Regular-30" d="M 1920 -64 
Q 1274 -64 893 310 
Q 512 685 512 1312 
L 512 3360 
Q 512 3987 893 4361 
Q 1274 4736 1920 4736 
Q 2566 4736 2947 4361 
Q 3328 3987 3328 3360 
L 3328 1312 
Q 3328 896 3155 585 
Q 2982 275 2665 105 
Q 2349 -64 1920 -64 
z
M 1920 429 
Q 2304 429 2537 675 
Q 2771 922 2771 1312 
L 2771 3360 
Q 2771 3750 2537 3996 
Q 2304 4243 1920 4243 
Q 1536 4243 1302 3996 
Q 1069 3750 1069 3360 
L 1069 1312 
Q 1069 922 1302 675 
Q 1536 429 1920 429 
z
M 1920 1984 
Q 1747 1984 1641 2080 
Q 1536 2176 1536 2355 
Q 1536 2528 1641 2621 
Q 1747 2714 1920 2714 
Q 2093 2714 2198 2621 
Q 2304 2528 2304 2355 
Q 2304 2176 2198 2080 
Q 2093 1984 1920 1984 
z
" transform="scale(0.015625)"/>
        <path id="JetBrainsMono-Regular-33" d="M 1850 -64 
Q 1203 -64 825 297 
Q 448 659 448 1280 
L 1024 1280 
Q 1024 896 1248 672 
Q 1472 448 1856 448 
Q 2240 448 2464 672 
Q 2688 896 2688 1280 
L 2688 1600 
Q 2688 1984 2464 2208 
Q 2240 2432 1856 2432 
L 1350 2432 
L 1350 2931 
L 2496 4147 
L 576 4147 
L 576 4672 
L 3149 4672 
L 3149 4134 
L 2022 2938 
Q 2598 2893 2931 2537 
Q 3264 2182 3264 1600 
L 3264 1280 
Q 3264 659 2883 297 
Q 2502 -64 1850 -64 
z
" transform="scale(0.015625)"/>
        <path id="JetBrainsMono-Regular-2f" d="M 480 -704 
L 2752 5312 
L 3360 5312 
L 1088 -704 
L 480 -704 
z
" transform="scale(0.015625)"/>
        <path id="JetBrainsMono-Regular-31" d="M 576 0 
L 576 525 
L 1843 525 
L 1843 4173 
L 576 3226 
L 576 3885 
L 1632 4672 
L 2419 4672 
L 2419 525 
L 3456 525 
L 3456 0 
L 576 0 
z
" transform="scale(0.015625)"/>
       </defs>
       <use xlink:href="#JetBrainsMono-Regular-30"/>
       <use xlink:href="#JetBrainsMono-Regular-33" transform="translate(59.999985 0)"/>
       <use xlink:href="#JetBrainsMono-Regular-2f" transform="translate(119.999969 0)"/>
       <use xlink:href="#JetBrainsMono-Regular-33" transform="translate(179.999954 0)"/>
       <use xlink:href="#JetBrainsMono-Regular-31" transform="translate(239.999939 0)"/>
      </g>
     </g>
    </g>
    <g id="xtick_2">
     <g id="line2d_3">
      <path d="M 147.312 324.72 
L 147.312 55.44 
" clip-path="url(#p753b8df311)" style="fill: none; stroke-dasharray: 2.22,0.96; stroke-dashoffset: 0; stroke: #e2d5f5; stroke-opacity: 0.7; stroke-width: 0.6"/>
     </g>
     <g id="line2d_4">
      <g>
       <use xlink:href="#m7f1cf9b91f" x="147.312" y="324.72" style="fill: #9b8bb8; stroke: #9b8bb8; stroke-width: 0.8"/>
      </g>
     </g>
     <g id="text_2">
      <!-- 04/01 -->
      <g style="fill: #9b8bb8" transform="translate(135.771619 353.301793) rotate(-30) scale(0.1 -0.1)">
       <defs>
        <path id="JetBrainsMono-Regular-34" d="M 2560 0 
L 2560 1024 
L 448 1024 
L 448 1926 
L 2150 4672 
L 2803 4672 
L 1024 1798 
L 1024 1549 
L 2560 1549 
L 2560 2688 
L 3136 2688 
L 3136 0 
L 2560 0 
z
" transform="scale(0.015625)"/>
       </defs>
       <use xlink:href="#JetBrainsMono-Regular-30"/>
       <use xlink:href="#JetBrainsMono-Regular-34" transform="translate(59.999985 0)"/>
       <use xlink:href="#JetBrainsMono-Regular-2f" transform="translate(119.999969 0)"/>
       <use xlink:href="#JetBrainsMono-Regular-30" transform="translate(179.999954 0)"/>
       <use xlink:href="#JetBrainsMono-Regular-31" transform="translate(239.999939 0)"/>
      </g>
     </g>
    </g>
    <g id="xtick_3">
     <g id="line2d_5">
      <path d="M 208.656 324.72 
L 208.656 55.44 
" clip-path="url(#p753b8df311)" style="fill: none; stroke-dasharray: 2.22,0.96; stroke-dashoffset: 0; stroke: #e2d5f5; stroke-opacity: 0.7; stroke-width: 0.6"/>
     </g>
     <g id="line2d_6">
      <g>
       <use xlink:href="#m7f1cf9b91f" x="208.656" y="324.72" style="fill: #9b8bb8; stroke: #9b8bb8; stroke-width: 0.8"/>
      </g>
     </g>
     <g id="text_3">
      <!-- 04/02 -->
      <g style="fill: #9b8bb8" transform="translate(197.115619 353.301793) rotate(-30) scale(0.1 -0.1)">
       <defs>
        <path id="JetBrainsMono-Regular-32" d="M 550 0 
L 550 531 
L 2106 2195 
Q 2445 2554 2585 2835 
Q 2726 3117 2726 3386 
Q 2726 3770 2505 3997 
Q 2285 4224 1907 4224 
Q 1517 4224 1289 3990 
Q 1062 3757 1062 3360 
L 486 3360 
Q 506 3994 890 4365 
Q 1274 4736 1907 4736 
Q 2554 4736 2934 4371 
Q 3315 4006 3315 3379 
Q 3315 3046 3132 2675 
Q 2950 2304 2509 1843 
L 1248 525 
L 3373 525 
L 3373 0 
L 550 0 
z
" transform="scale(0.015625)"/>
       </defs>
       <use xlink:href="#JetBrainsMono-Regular-30"/>
       <use xlink:href="#JetBrainsMono-Regular-34" transform="translate(59.999985 0)"/>
       <use xlink:href="#JetBrainsMono-Regular-2f" transform="translate(119.999969 0)"/>
       <use xlink:href="#JetBrainsMono-Regular-30" transform="translate(179.999954 0)"/>
       <use xlink:href="#JetBrainsMono-Regular-32" transform="translate(239.999939 0)"/>
      </g>
     </g>
    </g>
    <g id="xtick_4">
     <g id="line2d_7">
      <path d="M 270 324.72 
L 270 55.44 
" clip-path="url(#p753b8df311)" style="fill: none; stroke-dasharray: 2.22,0.96; stroke-dashoffset: 0; stroke: #e2d5f5; stroke-opacity: 0.7; stroke-width: 0.6"/>
     </g>
     <g id="line2d_8">
      <g>
       <use xlink:href="#m7f1cf9b91f" x="270" y="324.72" style="fill: #9b8bb8; stroke: #9b8bb8; stroke-width: 0.8"/>
      </g>
     </g>
     <g id="text_4">
      <!-- 04/03 -->
      <g style="fill: #9b8bb8" transform="translate(258.459619 353.301793) rotate(-30) scale(0.1 -0.1)">
       <use xlink:href="#JetBrainsMono-Regular-30"/>
       <use xlink:href="#JetBrainsMono-Regular-34" transform="translate(59.999985 0)"/>
       <use xlink:href="#JetBrainsMono-Regular-2f" transform="translate(119.999969 0)"/>
       <use xlink:href="#JetBrainsMono-Regular-30" transform="translate(179.999954 0)"/>
       <use xlink:href="#JetBrainsMono-Regular-33" transform="translate(239.999939 0)"/>
      </g>
     </g>
    </g>
    <g id="xtick_5">
     <g id="line2d_9">
      <path d="M 331.344 324.72 
L 331.344 55.44 
" clip-path="url(#p753b8df311)" style="fill: none; stroke-dasharray: 2.22,0.96; stroke-dashoffset: 0; stroke: #e2d5f5; stroke-opacity: 0.7; stroke-width: 0.6"/>
     </g>
     <g id="line2d_10">
      <g>
       <use xlink:href="#m7f1cf9b91f" x="331.344" y="324.72" style="fill: #9b8bb8; stroke: #9b8bb8; stroke-width: 0.8"/>
      </g>
     </g>
     <g id="text_5">
      <!-- 04/04 -->
      <g style="fill: #9b8bb8" transform="translate(319.803619 353.301793) rotate(-30) scale(0.1 -0.1)">
       <use xlink:href="#JetBrainsMono-Regular-30"/>
       <use xlink:href="#JetBrainsMono-Regular-34" transform="translate(59.999985 0)"/>
       <use xlink:href="#JetBrainsMono-Regular-2f" transform="translate(119.999969 0)"/>
       <use xlink:href="#JetBrainsMono-Regular-30" transform="translate(179.999954 0)"/>
       <use xlink:href="#JetBrainsMono-Regular-34" transform="translate(239.999939 0)"/>
      </g>
     </g>
    </g>
    <g id="xtick_6">
     <g id="line2d_11">
      <path d="M 392.688 324.72 
L 392.688 55.44 
" clip-path="url(#p753b8df311)" style="fill: none; stroke-dasharray: 2.22,0.96; stroke-dashoffset: 0; stroke: #e2d5f5; stroke-opacity: 0.7; stroke-width: 0.6"/>
     </g>
     <g id="line2d_12">
      <g>
       <use xlink:href="#m7f1cf9b91f" x="392.688" y="324.72" style="fill: #9b8bb8; stroke: #9b8bb8; stroke-width: 0.8"/>
      </g>
     </g>
     <g id="text_6">
      <!-- 04/05 -->
      <g style="fill: #9b8bb8" transform="translate(381.147619 353.301793) rotate(-30) scale(0.1 -0.1)">
       <defs>
        <path id="JetBrainsMono-Regular-35" d="M 1882 -64 
Q 1235 -64 857 297 
Q 480 659 480 1280 
L 1056 1280 
Q 1056 896 1280 672 
Q 1504 448 1888 448 
Q 2272 448 2496 672 
Q 2720 896 2720 1280 
L 2720 1568 
Q 2720 1952 2502 2176 
Q 2285 2400 1914 2400 
L 640 2400 
L 640 4672 
L 3130 4672 
L 3130 4147 
L 1178 4147 
L 1190 2925 
L 1946 2925 
Q 2592 2925 2944 2569 
Q 3296 2214 3296 1568 
L 3296 1280 
Q 3296 659 2915 297 
Q 2534 -64 1882 -64 
z
" transform="scale(0.015625)"/>
       </defs>
       <use xlink:href="#JetBrainsMono-Regular-30"/>
       <use xlink:href="#JetBrainsMono-Regular-34" transform="translate(59.999985 0)"/>
       <use xlink:href="#JetBrainsMono-Regular-2f" transform="translate(119.999969 0)"/>
       <use xlink:href="#JetBrainsMono-Regular-30" transform="translate(179.999954 0)"/>
       <use xlink:href="#JetBrainsMono-Regular-35" transform="translate(239.999939 0)"/>
      </g>
     </g>
    </g>
    <g id="xtick_7">
     <g id="line2d_13">
      <path d="M 454.032 324.72 
L 454.032 55.44 
" clip-path="url(#p753b8df311)" style="fill: none; stroke-dasharray: 2.22,0.96; stroke-dashoffset: 0; stroke: #e2d5f5; stroke-opacity: 0.7; stroke-width: 0.6"/>
     </g>
     <g id="line2d_14">
      <g>
       <use xlink:href="#m7f1cf9b91f" x="454.032" y="324.72" style="fill: #9b8bb8; stroke: #9b8bb8; stroke-width: 0.8"/>
      </g>
     </g>
     <g id="text_7">
      <!-- 04/06 -->
      <g style="fill: #9b8bb8" transform="translate(442.491619 353.301793) rotate(-30) scale(0.1 -0.1)">
       <defs>
        <path id="JetBrainsMono-Regular-36" d="M 1926 -64 
Q 1478 -64 1136 125 
Q 794 314 602 650 
Q 410 986 410 1427 
Q 410 1734 525 2057 
Q 640 2381 838 2733 
L 1920 4672 
L 2560 4672 
L 1408 2669 
L 1427 2656 
Q 1510 2765 1676 2822 
Q 1843 2880 2042 2880 
Q 2458 2880 2768 2697 
Q 3078 2515 3254 2195 
Q 3430 1875 3430 1453 
Q 3430 1005 3238 662 
Q 3046 320 2710 128 
Q 2374 -64 1926 -64 
z
M 1920 448 
Q 2336 448 2595 723 
Q 2854 998 2854 1440 
Q 2854 1882 2595 2157 
Q 2336 2432 1920 2432 
Q 1504 2432 1245 2157 
Q 986 1882 986 1440 
Q 986 998 1245 723 
Q 1504 448 1920 448 
z
" transform="scale(0.015625)"/>
       </defs>
       <use xlink:href="#JetBrainsMono-Regular-30"/>
       <use xlink:href="#JetBrainsMono-Regular-34" transform="translate(59.999985 0)"/>
       <use xlink:href="#JetBrainsMono-Regular-2f" transform="translate(119.999969 0)"/>
       <use xlink:href="#JetBrainsMono-Regular-30" transform="translate(179.999954 0)"/>
       <use xlink:href="#JetBrainsMono-Regular-36" transform="translate(239.999939 0)"/>
      </g>
     </g>
    </g>
    <g id="xtick_8">
     <g id="line2d_15">
      <path d="M 515.376 324.72 
L 515.376 55.44 
" clip-path="url(#p753b8df311)" style="fill: none; stroke-dasharray: 2.22,0.96; stroke-dashoffset: 0; stroke: #e2d5f5; stroke-opacity: 0.7; stroke-width: 0.6"/>
     </g>
     <g id="line2d_16">
      <g>
       <use xlink:href="#m7f1cf9b91f" x="515.376" y="324.72" style="fill: #9b8bb8; stroke: #9b8bb8; stroke-width: 0.8"/>
      </g>
     </g>
     <g id="text_8">
      <!-- 04/07 -->
      <g style="fill: #9b8bb8" transform="translate(503.835619 353.301793) rotate(-30) scale(0.1 -0.1)">
       <defs>
        <path id="JetBrainsMono-Regular-37" d="M 1216 0 
L 2880 4147 
L 1101 4147 
L 1101 3392 
L 525 3392 
L 525 4672 
L 3494 4672 
L 3494 4134 
L 1843 0 
L 1216 0 
z
" transform="scale(0.015625)"/>
       </defs>
       <use xlink:href="#JetBrainsMono-Regular-30"/>
       <use xlink:href="#JetBrainsMono-Regular-34" transform="translate(59.999985 0)"/>
       <use xlink:href="#JetBrainsMono-Regular-2f" transform="translate(119.999969 0)"/>
       <use xlink:href="#JetBrainsMono-Regular-30" transform="translate(179.999954 0)"/>
       <use xlink:href="#JetBrainsMono-Regular-37" transform="translate(239.999939 0)"/>
      </g>
     </g>
    </g>
   </g>
   <g id="matplotlib.axis_2">
    <g id="ytick_1">
     <g id="line2d_17">
      <path d="M 55.296 287.22082 
L 546.048 287.22082 
" clip-path="url(#p753b8df311)" style="fill: none; stroke-dasharray: 2.22,0.96; stroke-dashoffset: 0; stroke: #e2d5f5; stroke-opacity: 0.7; stroke-width: 0.6"/>
     </g>
     <g id="line2d_18">
      <defs>
       <path id="mb53b1fa28f" d="M 0 0 
L -3.5 0 
" style="stroke: #9b8bb8; stroke-width: 0.8"/>
      </defs>
      <g>
       <use xlink:href="#mb53b1fa28f" x="55.296" y="287.22082" style="fill: #9b8bb8; stroke: #9b8bb8; stroke-width: 0.8"/>
      </g>
     </g>
     <g id="text_9">
      <!-- 200 -->
      <g style="fill: #9b8bb8" transform="translate(30.296 290.87082) scale(0.1 -0.1)">
       <use xlink:href="#JetBrainsMono-Regular-32"/>
       <use xlink:href="#JetBrainsMono-Regular-30" transform="translate(59.999985 0)"/>
       <use xlink:href="#JetBrainsMono-Regular-30" transform="translate(119.999969 0)"/>
      </g>
     </g>
    </g>
    <g id="ytick_2">
     <g id="line2d_19">
      <path d="M 55.296 240.346844 
L 546.048 240.346844 
" clip-path="url(#p753b8df311)" style="fill: none; stroke-dasharray: 2.22,0.96; stroke-dashoffset: 0; stroke: #e2d5f5; stroke-opacity: 0.7; stroke-width: 0.6"/>
     </g>
     <g id="line2d_20">
      <g>
       <use xlink:href="#mb53b1fa28f" x="55.296" y="240.346844" style="fill: #9b8bb8; stroke: #9b8bb8; stroke-width: 0.8"/>
      </g>
     </g>
     <g id="text_10">
      <!-- 205 -->
      <g style="fill: #9b8bb8" transform="translate(30.296 243.996844) scale(0.1 -0.1)">
       <use xlink:href="#JetBrainsMono-Regular-32"/>
       <use xlink:href="#JetBrainsMono-Regular-30" transform="translate(59.999985 0)"/>
       <use xlink:href="#JetBrainsMono-Regular-35" transform="translate(119.999969 0)"/>
      </g>
     </g>
    </g>
    <g id="ytick_3">
     <g id="line2d_21">
      <path d="M 55.296 193.472869 
L 546.048 193.472869 
" clip-path="url(#p753b8df311)" style="fill: none; stroke-dasharray: 2.22,0.96; stroke-dashoffset: 0; stroke: #e2d5f5; stroke-opacity: 0.7; stroke-width: 0.6"/>
     </g>
     <g id="line2d_22">
      <g>
       <use xlink:href="#mb53b1fa28f" x="55.296" y="193.472869" style="fill: #9b8bb8; stroke: #9b8bb8; stroke-width: 0.8"/>
      </g>
     </g>
     <g id="text_11">
      <!-- 210 -->
      <g style="fill: #9b8bb8" transform="translate(30.296 197.122869) scale(0.1 -0.1)">
       <use xlink:href="#JetBrainsMono-Regular-32"/>
       <use xlink:href="#JetBrainsMono-Regular-31" transform="translate(59.999985 0)"/>
       <use xlink:href="#JetBrainsMono-Regular-30" transform="translate(119.999969 0)"/>
      </g>
     </g>
    </g>
    <g id="ytick_4">
     <g id="line2d_23">
      <path d="M 55.296 146.598893 
L 546.048 146.598893 
" clip-path="url(#p753b8df311)" style="fill: none; stroke-dasharray: 2.22,0.96; stroke-dashoffset: 0; stroke: #e2d5f5; stroke-opacity: 0.7; stroke-width: 0.6"/>
     </g>
     <g id="line2d_24">
      <g>
       <use xlink:href="#mb53b1fa28f" x="55.296" y="146.598893" style="fill: #9b8bb8; stroke: #9b8bb8; stroke-width: 0.8"/>
      </g>
     </g>
     <g id="text_12">
      <!-- 215 -->
      <g style="fill: #9b8bb8" transform="translate(30.296 150.248893) scale(0.1 -0.1)">
       <use xlink:href="#JetBrainsMono-Regular-32"/>
       <use xlink:href="#JetBrainsMono-Regular-31" transform="translate(59.999985 0)"/>
       <use xlink:href="#JetBrainsMono-Regular-35" transform="translate(119.999969 0)"/>
      </g>
     </g>
    </g>
    <g id="ytick_5">
     <g id="line2d_25">
      <path d="M 55.296 99.724917 
L 546.048 99.724917 
" clip-path="url(#p753b8df311)" style="fill: none; stroke-dasharray: 2.22,0.96; stroke-dashoffset: 0; stroke: #e2d5f5; stroke-opacity: 0.7; stroke-width: 0.6"/>
     </g>
     <g id="line2d_26">
      <g>
       <use xlink:href="#mb53b1fa28f" x="55.296" y="99.724917" style="fill: #9b8bb8; stroke: #9b8bb8; stroke-width: 0.8"/>
      </g>
     </g>
     <g id="text_13">
      <!-- 220 -->
      <g style="fill: #9b8bb8" transform="translate(30.296 103.374917) scale(0.1 -0.1)">
       <use xlink:href="#JetBrainsMono-Regular-32"/>
       <use xlink:href="#JetBrainsMono-Regular-32" transform="translate(59.999985 0)"/>
       <use xlink:href="#JetBrainsMono-Regular-30" transform="translate(119.999969 0)"/>
      </g>
     </g>
    </g>
    <g id="text_14">
     <!-- Rating -->
     <g style="fill: #9b8bb8" transform="translate(24.496 208.08) rotate(-90) scale(0.1 -0.1)">
      <defs>
       <path id="JetBrainsMono-Regular-52" d="M 595 0 
L 595 4672 
L 2035 4672 
Q 2451 4672 2764 4502 
Q 3078 4333 3251 4032 
Q 3424 3731 3424 3328 
Q 3424 2854 3181 2515 
Q 2938 2176 2534 2042 
L 3488 0 
L 2854 0 
L 1939 1984 
L 1165 1984 
L 1165 0 
L 595 0 
z
M 1165 2502 
L 2035 2502 
Q 2394 2502 2611 2729 
Q 2829 2957 2829 3328 
Q 2829 3706 2611 3930 
Q 2394 4154 2035 4154 
L 1165 4154 
L 1165 2502 
z
" transform="scale(0.015625)"/>
       <path id="JetBrainsMono-Regular-61" d="M 1613 -64 
Q 1069 -64 749 240 
Q 429 544 429 1037 
Q 429 1363 576 1606 
Q 723 1850 985 1987 
Q 1248 2125 1587 2125 
L 2675 2125 
L 2675 2400 
Q 2675 3085 1926 3085 
Q 1594 3085 1389 2963 
Q 1184 2842 1171 2624 
L 595 2624 
Q 627 3040 982 3312 
Q 1338 3584 1926 3584 
Q 2566 3584 2908 3277 
Q 3251 2970 3251 2419 
L 3251 0 
L 2682 0 
L 2682 640 
L 2669 640 
Q 2618 314 2342 125 
Q 2067 -64 1613 -64 
z
M 1754 422 
Q 2176 422 2425 627 
Q 2675 832 2675 1184 
L 2675 1677 
L 1651 1677 
Q 1370 1677 1194 1507 
Q 1018 1338 1018 1056 
Q 1018 762 1213 592 
Q 1408 422 1754 422 
z
" transform="scale(0.015625)"/>
       <path id="JetBrainsMono-Regular-74" d="M 2272 0 
Q 1837 0 1574 253 
Q 1312 506 1312 928 
L 1312 2995 
L 301 2995 
L 301 3520 
L 1312 3520 
L 1312 4512 
L 1888 4512 
L 1888 3520 
L 3328 3520 
L 3328 2995 
L 1888 2995 
L 1888 928 
Q 1888 749 1993 637 
Q 2099 525 2272 525 
L 3296 525 
L 3296 0 
L 2272 0 
z
" transform="scale(0.015625)"/>
       <path id="JetBrainsMono-Regular-69" d="M 544 0 
L 544 525 
L 1792 525 
L 1792 2995 
L 672 2995 
L 672 3520 
L 2368 3520 
L 2368 525 
L 3552 525 
L 3552 0 
L 544 0 
z
M 2016 4154 
Q 1805 4154 1683 4262 
Q 1562 4371 1562 4557 
Q 1562 4749 1683 4861 
Q 1805 4973 2016 4973 
Q 2227 4973 2348 4861 
Q 2470 4749 2470 4557 
Q 2470 4371 2348 4262 
Q 2227 4154 2016 4154 
z
" transform="scale(0.015625)"/>
       <path id="JetBrainsMono-Regular-6e" d="M 589 0 
L 589 3520 
L 1165 3520 
L 1165 2848 
L 1171 2848 
Q 1216 3200 1459 3392 
Q 1702 3584 2106 3584 
Q 2637 3584 2950 3257 
Q 3264 2931 3264 2368 
L 3264 0 
L 2688 0 
L 2688 2266 
Q 2688 2669 2486 2883 
Q 2285 3098 1939 3098 
Q 1581 3098 1373 2874 
Q 1165 2650 1165 2240 
L 1165 0 
L 589 0 
z
" transform="scale(0.015625)"/>
       <path id="JetBrainsMono-Regular-67" d="M 1030 -1152 
L 1030 -627 
L 2022 -627 
Q 2323 -627 2496 -457 
Q 2669 -288 2669 0 
L 2669 320 
L 2682 896 
L 2662 896 
Q 2611 582 2361 412 
Q 2112 243 1734 243 
Q 1190 243 876 588 
Q 563 934 563 1536 
L 563 2278 
Q 563 2880 876 3232 
Q 1190 3584 1734 3584 
Q 2112 3584 2361 3405 
Q 2611 3226 2662 2912 
L 2675 2912 
L 2675 3520 
L 3245 3520 
L 3245 0 
Q 3245 -531 2915 -841 
Q 2586 -1152 2016 -1152 
L 1030 -1152 
z
M 1907 723 
Q 2266 723 2470 947 
Q 2675 1171 2675 1568 
L 2675 2240 
Q 2675 2637 2470 2861 
Q 2266 3085 1907 3085 
Q 1542 3085 1340 2873 
Q 1139 2662 1139 2304 
L 1139 1504 
Q 1139 1146 1340 934 
Q 1542 723 1907 723 
z
" transform="scale(0.015625)"/>
      </defs>
      <use xlink:href="#JetBrainsMono-Regular-52"/>
      <use xlink:href="#JetBrainsMono-Regular-61" transform="translate(59.999985 0)"/>
      <use xlink:href="#JetBrainsMono-Regular-74" transform="translate(119.999969 0)"/>
      <use xlink:href="#JetBrainsMono-Regular-69" transform="translate(179.999954 0)"/>
      <use xlink:href="#JetBrainsMono-Regular-6e" transform="translate(239.999939 0)"/>
      <use xlink:href="#JetBrainsMono-Regular-67" transform="translate(299.999924 0)"/>
     </g>
    </g>
   </g>
   <g id="patch_3">
    <path d="M 55.296 324.72 
L 55.296 55.44 
" style="fill: none; stroke: #d8c8ef; stroke-width: 0.8; stroke-linejoin: miter; stroke-linecap: square"/>
   </g>
   <g id="patch_4">
    <path d="M 55.296 324.72 
L 546.048 324.72 
" style="fill: none; stroke: #d8c8ef; stroke-width: 0.8; stroke-linejoin: miter; stroke-linecap: square"/>
   </g>
   <g id="FillBetweenPolyCollection_1">
    <defs>
     <path id="m64b7155483" d="M 85.968 -71.28 
L 85.968 -118.153976 
L 87.404147 -119.981386 
L 88.840294 -121.678929 
L 90.276441 -123.249719 
L 91.712589 -124.696869 
L 93.148736 -126.023492 
L 94.584883 -127.232701 
L 96.02103 -128.327609 
L 97.457177 -129.311331 
L 98.893324 -130.186978 
L 100.329472 -130.957664 
L 101.765619 -131.626503 
L 103.201766 -132.196608 
L 104.637913 -132.671092 
L 106.07406 -133.053068 
L 107.510207 -133.345649 
L 108.946355 -133.551949 
L 110.382502 -133.675081 
L 111.818649 -133.718158 
L 113.254796 -133.684293 
L 114.690943 -133.576601 
L 116.12709 -133.398193 
L 117.563237 -133.152183 
L 118.999385 -132.841685 
L 120.435532 -132.469811 
L 121.871679 -132.039675 
L 123.307826 -131.55439 
L 124.743973 -131.01707 
L 126.18012 -130.430827 
L 127.616268 -129.798775 
L 129.052415 -129.124028 
L 130.488562 -128.409697 
L 131.924709 -127.658897 
L 133.360856 -126.874741 
L 134.797003 -126.060342 
L 136.233151 -125.218814 
L 137.669298 -124.353269 
L 139.105445 -123.46682 
L 140.541592 -122.562582 
L 141.977739 -121.643667 
L 143.413886 -120.713188 
L 144.850033 -119.77426 
L 146.286181 -118.829994 
L 147.722328 -117.883505 
L 149.158475 -116.937905 
L 150.594622 -115.996307 
L 152.030769 -115.061826 
L 153.466916 -114.137574 
L 154.903064 -113.226665 
L 156.339211 -112.332211 
L 157.775358 -111.457326 
L 159.211505 -110.605123 
L 160.647652 -109.778716 
L 162.083799 -108.981218 
L 163.519946 -108.215741 
L 164.956094 -107.4854 
L 166.392241 -106.793307 
L 167.828388 -106.142575 
L 169.264535 -105.536319 
L 170.700682 -104.977651 
L 172.136829 -104.469684 
L 173.572977 -104.015531 
L 175.009124 -103.618307 
L 176.445271 -103.281124 
L 177.881418 -103.007095 
L 179.317565 -102.799333 
L 180.753712 -102.660953 
L 182.18986 -102.595067 
L 183.626007 -102.604788 
L 185.062154 -102.693229 
L 186.498301 -102.863504 
L 187.934448 -103.118727 
L 189.370595 -103.462009 
L 190.806742 -103.896466 
L 192.24289 -104.425209 
L 193.679037 -105.051352 
L 195.115184 -105.778008 
L 196.551331 -106.608291 
L 197.987478 -107.545314 
L 199.423625 -108.592189 
L 200.859773 -109.752031 
L 202.29592 -111.027953 
L 203.732067 -112.423067 
L 205.168214 -113.940487 
L 206.604361 -115.583326 
L 208.040508 -117.354698 
L 209.476656 -119.257426 
L 210.912803 -121.289479 
L 212.34895 -123.444796 
L 213.785097 -125.717192 
L 215.221244 -128.100485 
L 216.657391 -130.588492 
L 218.093538 -133.175028 
L 219.529686 -135.853911 
L 220.965833 -138.618958 
L 222.40198 -141.463984 
L 223.838127 -144.382808 
L 225.274274 -147.369245 
L 226.710421 -150.417112 
L 228.146569 -153.520225 
L 229.582716 -156.672403 
L 231.018863 -159.86746 
L 232.45501 -163.099214 
L 233.891157 -166.361482 
L 235.327304 -169.64808 
L 236.763452 -172.952825 
L 238.199599 -176.269534 
L 239.635746 -179.592022 
L 241.071893 -182.914108 
L 242.50804 -186.229607 
L 243.944187 -189.532337 
L 245.380334 -192.816113 
L 246.816482 -196.074754 
L 248.252629 -199.302074 
L 249.688776 -202.491892 
L 251.124923 -205.638023 
L 252.56107 -208.734285 
L 253.997217 -211.774494 
L 255.433365 -214.752466 
L 256.869512 -217.662019 
L 258.305659 -220.496969 
L 259.741806 -223.251133 
L 261.177953 -225.918328 
L 262.6141 -228.492369 
L 264.050247 -230.967075 
L 265.486395 -233.33626 
L 266.922542 -235.593744 
L 268.358689 -237.733341 
L 269.794836 -239.748868 
L 271.230983 -241.635243 
L 272.66713 -243.394171 
L 274.103278 -245.029944 
L 275.539425 -246.54686 
L 276.975572 -247.949217 
L 278.411719 -249.241313 
L 279.847866 -250.427446 
L 281.284013 -251.511913 
L 282.720161 -252.499012 
L 284.156308 -253.39304 
L 285.592455 -254.198297 
L 287.028602 -254.919078 
L 288.464749 -255.559683 
L 289.900896 -256.124408 
L 291.337043 -256.617552 
L 292.773191 -257.043413 
L 294.209338 -257.406287 
L 295.645485 -257.710474 
L 297.081632 -257.96027 
L 298.517779 -258.159973 
L 299.953926 -258.313882 
L 301.390074 -258.426293 
L 302.826221 -258.501506 
L 304.262368 -258.543816 
L 305.698515 -258.557523 
L 307.134662 -258.546924 
L 308.570809 -258.516317 
L 310.006957 -258.469999 
L 311.443104 -258.412268 
L 312.879251 -258.347422 
L 314.315398 -258.279759 
L 315.751545 -258.213577 
L 317.187692 -258.153172 
L 318.623839 -258.102844 
L 320.059987 -258.06689 
L 321.496134 -258.049607 
L 322.932281 -258.055294 
L 324.368428 -258.088247 
L 325.804575 -258.152766 
L 327.240722 -258.253147 
L 328.67687 -258.393689 
L 330.113017 -258.578688 
L 331.549164 -258.812441 
L 332.985311 -259.097779 
L 334.421458 -259.433701 
L 335.857605 -259.81858 
L 337.293753 -260.250792 
L 338.7299 -260.728713 
L 340.166047 -261.250717 
L 341.602194 -261.815179 
L 343.038341 -262.420476 
L 344.474488 -263.064981 
L 345.910635 -263.747071 
L 347.346783 -264.465119 
L 348.78293 -265.217503 
L 350.219077 -266.002595 
L 351.655224 -266.818773 
L 353.091371 -267.664411 
L 354.527518 -268.537884 
L 355.963666 -269.437567 
L 357.399813 -270.361836 
L 358.83596 -271.309065 
L 360.272107 -272.277631 
L 361.708254 -273.265907 
L 363.144401 -274.272269 
L 364.580548 -275.295093 
L 366.016696 -276.332754 
L 367.452843 -277.383626 
L 368.88899 -278.446085 
L 370.325137 -279.518507 
L 371.761284 -280.599265 
L 373.197431 -281.686736 
L 374.633579 -282.779294 
L 376.069726 -283.875316 
L 377.505873 -284.973175 
L 378.94202 -286.071247 
L 380.378167 -287.167908 
L 381.814314 -288.261532 
L 383.250462 -289.350495 
L 384.686609 -290.433172 
L 386.122756 -291.507937 
L 387.558903 -292.573167 
L 388.99505 -293.627236 
L 390.431197 -294.66852 
L 391.867344 -295.695393 
L 393.303492 -296.706253 
L 394.739639 -297.700217 
L 396.175786 -298.677268 
L 397.611933 -299.637444 
L 399.04808 -300.580781 
L 400.484227 -301.507315 
L 401.920375 -302.417082 
L 403.356522 -303.310119 
L 404.792669 -304.186461 
L 406.228816 -305.046146 
L 407.664963 -305.889208 
L 409.10111 -306.715686 
L 410.537258 -307.525614 
L 411.973405 -308.319029 
L 413.409552 -309.095967 
L 414.845699 -309.856465 
L 416.281846 -310.600559 
L 417.717993 -311.328285 
L 419.15414 -312.039679 
L 420.590288 -312.734778 
L 422.026435 -313.413617 
L 423.462582 -314.076234 
L 424.898729 -314.722665 
L 426.334876 -315.352945 
L 427.771023 -315.967111 
L 429.207171 -316.565199 
L 430.643318 -317.147245 
L 432.079465 -317.713286 
L 433.515612 -318.263359 
L 434.951759 -318.797498 
L 436.387906 -319.315741 
L 437.824054 -319.818124 
L 439.260201 -320.304682 
L 440.696348 -320.775453 
L 442.132495 -321.230473 
L 443.568642 -321.669777 
L 445.004789 -322.093402 
L 446.440936 -322.501385 
L 447.877084 -322.893761 
L 449.313231 -323.270568 
L 450.749378 -323.63184 
L 452.185525 -323.977614 
L 453.621672 -324.307927 
L 455.057819 -324.622815 
L 456.493967 -324.922315 
L 457.930114 -325.206461 
L 459.366261 -325.475291 
L 460.802408 -325.728842 
L 462.238555 -325.967148 
L 463.674702 -326.190247 
L 465.110849 -326.398174 
L 466.546997 -326.590967 
L 467.983144 -326.768661 
L 469.419291 -326.931292 
L 470.855438 -327.078897 
L 472.291585 -327.211512 
L 473.727732 -327.329173 
L 475.16388 -327.431917 
L 476.600027 -327.519779 
L 478.036174 -327.592797 
L 479.472321 -327.651006 
L 480.908468 -327.694442 
L 482.344615 -327.723142 
L 483.780763 -327.737143 
L 485.21691 -327.73648 
L 486.653057 -327.721189 
L 488.089204 -327.691307 
L 489.525351 -327.646871 
L 490.961498 -327.587915 
L 492.397645 -327.514478 
L 493.833793 -327.426594 
L 495.26994 -327.324301 
L 496.706087 -327.207634 
L 498.142234 -327.07663 
L 499.578381 -326.931324 
L 501.014528 -326.771754 
L 502.450676 -326.597956 
L 503.886823 -326.409965 
L 505.32297 -326.207818 
L 506.759117 -325.991551 
L 508.195264 -325.761201 
L 509.631411 -325.516804 
L 511.067559 -325.258396 
L 512.503706 -324.986013 
L 513.939853 -324.699691 
L 515.376 -324.399468 
L 515.376 -71.28 
L 515.376 -71.28 
L 513.939853 -71.28 
L 512.503706 -71.28 
L 511.067559 -71.28 
L 509.631411 -71.28 
L 508.195264 -71.28 
L 506.759117 -71.28 
L 505.32297 -71.28 
L 503.886823 -71.28 
L 502.450676 -71.28 
L 501.014528 -71.28 
L 499.578381 -71.28 
L 498.142234 -71.28 
L 496.706087 -71.28 
L 495.26994 -71.28 
L 493.833793 -71.28 
L 492.397645 -71.28 
L 490.961498 -71.28 
L 489.525351 -71.28 
L 488.089204 -71.28 
L 486.653057 -71.28 
L 485.21691 -71.28 
L 483.780763 -71.28 
L 482.344615 -71.28 
L 480.908468 -71.28 
L 479.472321 -71.28 
L 478.036174 -71.28 
L 476.600027 -71.28 
L 475.16388 -71.28 
L 473.727732 -71.28 
L 472.291585 -71.28 
L 470.855438 -71.28 
L 469.419291 -71.28 
L 467.983144 -71.28 
L 466.546997 -71.28 
L 465.110849 -71.28 
L 463.674702 -71.28 
L 462.238555 -71.28 
L 460.802408 -71.28 
L 459.366261 -71.28 
L 457.930114 -71.28 
L 456.493967 -71.28 
L 455.057819 -71.28 
L 453.621672 -71.28 
L 452.185525 -71.28 
L 450.749378 -71.28 
L 449.313231 -71.28 
L 447.877084 -71.28 
L 446.440936 -71.28 
L 445.004789 -71.28 
L 443.568642 -71.28 
L 442.132495 -71.28 
L 440.696348 -71.28 
L 439.260201 -71.28 
L 437.824054 -71.28 
L 436.387906 -71.28 
L 434.951759 -71.28 
L 433.515612 -71.28 
L 432.079465 -71.28 
L 430.643318 -71.28 
L 429.207171 -71.28 
L 427.771023 -71.28 
L 426.334876 -71.28 
L 424.898729 -71.28 
L 423.462582 -71.28 
L 422.026435 -71.28 
L 420.590288 -71.28 
L 419.15414 -71.28 
L 417.717993 -71.28 
L 416.281846 -71.28 
L 414.845699 -71.28 
L 413.409552 -71.28 
L 411.973405 -71.28 
L 410.537258 -71.28 
L 409.10111 -71.28 
L 407.664963 -71.28 
L 406.228816 -71.28 
L 404.792669 -71.28 
L 403.356522 -71.28 
L 401.920375 -71.28 
L 400.484227 -71.28 
L 399.04808 -71.28 
L 397.611933 -71.28 
L 396.175786 -71.28 
L 394.739639 -71.28 
L 393.303492 -71.28 
L 391.867344 -71.28 
L 390.431197 -71.28 
L 388.99505 -71.28 
L 387.558903 -71.28 
L 386.122756 -71.28 
L 384.686609 -71.28 
L 383.250462 -71.28 
L 381.814314 -71.28 
L 380.378167 -71.28 
L 378.94202 -71.28 
L 377.505873 -71.28 
L 376.069726 -71.28 
L 374.633579 -71.28 
L 373.197431 -71.28 
L 371.761284 -71.28 
L 370.325137 -71.28 
L 368.88899 -71.28 
L 367.452843 -71.28 
L 366.016696 -71.28 
L 364.580548 -71.28 
L 363.144401 -71.28 
L 361.708254 -71.28 
L 360.272107 -71.28 
L 358.83596 -71.28 
L 357.399813 -71.28 
L 355.963666 -71.28 
L 354.527518 -71.28 
L 353.091371 -71.28 
L 351.655224 -71.28 
L 350.219077 -71.28 
L 348.78293 -71.28 
L 347.346783 -71.28 
L 345.910635 -71.28 
L 344.474488 -71.28 
L 343.038341 -71.28 
L 341.602194 -71.28 
L 340.166047 -71.28 
L 338.7299 -71.28 
L 337.293753 -71.28 
L 335.857605 -71.28 
L 334.421458 -71.28 
L 332.985311 -71.28 
L 331.549164 -71.28 
L 330.113017 -71.28 
L 328.67687 -71.28 
L 327.240722 -71.28 
L 325.804575 -71.28 
L 324.368428 -71.28 
L 322.932281 -71.28 
L 321.496134 -71.28 
L 320.059987 -71.28 
L 318.623839 -71.28 
L 317.187692 -71.28 
L 315.751545 -71.28 
L 314.315398 -71.28 
L 312.879251 -71.28 
L 311.443104 -71.28 
L 310.006957 -71.28 
L 308.570809 -71.28 
L 307.134662 -71.28 
L 305.698515 -71.28 
L 304.262368 -71.28 
L 302.826221 -71.28 
L 301.390074 -71.28 
L 299.953926 -71.28 
L 298.517779 -71.28 
L 297.081632 -71.28 
L 295.645485 -71.28 
L 294.209338 -71.28 
L 292.773191 -71.28 
L 291.337043 -71.28 
L 289.900896 -71.28 
L 288.464749 -71.28 
L 287.028602 -71.28 
L 285.592455 -71.28 
L 284.156308 -71.28 
L 282.720161 -71.28 
L 281.284013 -71.28 
L 279.847866 -71.28 
L 278.411719 -71.28 
L 276.975572 -71.28 
L 275.539425 -71.28 
L 274.103278 -71.28 
L 272.66713 -71.28 
L 271.230983 -71.28 
L 269.794836 -71.28 
L 268.358689 -71.28 
L 266.922542 -71.28 
L 265.486395 -71.28 
L 264.050247 -71.28 
L 262.6141 -71.28 
L 261.177953 -71.28 
L 259.741806 -71.28 
L 258.305659 -71.28 
L 256.869512 -71.28 
L 255.433365 -71.28 
L 253.997217 -71.28 
L 252.56107 -71.28 
L 251.124923 -71.28 
L 249.688776 -71.28 
L 248.252629 -71.28 
L 246.816482 -71.28 
L 245.380334 -71.28 
L 243.944187 -71.28 
L 242.50804 -71.28 
L 241.071893 -71.28 
L 239.635746 -71.28 
L 238.199599 -71.28 
L 236.763452 -71.28 
L 235.327304 -71.28 
L 233.891157 -71.28 
L 232.45501 -71.28 
L 231.018863 -71.28 
L 229.582716 -71.28 
L 228.146569 -71.28 
L 226.710421 -71.28 
L 225.274274 -71.28 
L 223.838127 -71.28 
L 222.40198 -71.28 
L 220.965833 -71.28 
L 219.529686 -71.28 
L 218.093538 -71.28 
L 216.657391 -71.28 
L 215.221244 -71.28 
L 213.785097 -71.28 
L 212.34895 -71.28 
L 210.912803 -71.28 
L 209.476656 -71.28 
L 208.040508 -71.28 
L 206.604361 -71.28 
L 205.168214 -71.28 
L 203.732067 -71.28 
L 202.29592 -71.28 
L 200.859773 -71.28 
L 199.423625 -71.28 
L 197.987478 -71.28 
L 196.551331 -71.28 
L 195.115184 -71.28 
L 193.679037 -71.28 
L 192.24289 -71.28 
L 190.806742 -71.28 
L 189.370595 -71.28 
L 187.934448 -71.28 
L 186.498301 -71.28 
L 185.062154 -71.28 
L 183.626007 -71.28 
L 182.18986 -71.28 
L 180.753712 -71.28 
L 179.317565 -71.28 
L 177.881418 -71.28 
L 176.445271 -71.28 
L 175.009124 -71.28 
L 173.572977 -71.28 
L 172.136829 -71.28 
L 170.700682 -71.28 
L 169.264535 -71.28 
L 167.828388 -71.28 
L 166.392241 -71.28 
L 164.956094 -71.28 
L 163.519946 -71.28 
L 162.083799 -71.28 
L 160.647652 -71.28 
L 159.211505 -71.28 
L 157.775358 -71.28 
L 156.339211 -71.28 
L 154.903064 -71.28 
L 153.466916 -71.28 
L 152.030769 -71.28 
L 150.594622 -71.28 
L 149.158475 -71.28 
L 147.722328 -71.28 
L 146.286181 -71.28 
L 144.850033 -71.28 
L 143.413886 -71.28 
L 141.977739 -71.28 
L 140.541592 -71.28 
L 139.105445 -71.28 
L 137.669298 -71.28 
L 136.233151 -71.28 
L 134.797003 -71.28 
L 133.360856 -71.28 
L 131.924709 -71.28 
L 130.488562 -71.28 
L 129.052415 -71.28 
L 127.616268 -71.28 
L 126.18012 -71.28 
L 124.743973 -71.28 
L 123.307826 -71.28 
L 121.871679 -71.28 
L 120.435532 -71.28 
L 118.999385 -71.28 
L 117.563237 -71.28 
L 116.12709 -71.28 
L 114.690943 -71.28 
L 113.254796 -71.28 
L 111.818649 -71.28 
L 110.382502 -71.28 
L 108.946355 -71.28 
L 107.510207 -71.28 
L 106.07406 -71.28 
L 104.637913 -71.28 
L 103.201766 -71.28 
L 101.765619 -71.28 
L 100.329472 -71.28 
L 98.893324 -71.28 
L 97.457177 -71.28 
L 96.02103 -71.28 
L 94.584883 -71.28 
L 93.148736 -71.28 
L 91.712589 -71.28 
L 90.276441 -71.28 
L 88.840294 -71.28 
L 87.404147 -71.28 
L 85.968 -71.28 
z
" style="stroke: #8b5cf6; stroke-opacity: 0.12"/>
    </defs>
    <g clip-path="url(#p753b8df311)">
     <use xlink:href="#m64b7155483" x="0" y="396" style="fill: #8b5cf6; fill-opacity: 0.12; stroke: #8b5cf6; stroke-opacity: 0.12"/>
    </g>
   </g>
   <g id="text_15">
    <!-- 223 -->
    <g style="fill: #8b5cf6" transform="translate(518.376 68.600532) scale(0.12 -0.12)">
     <defs>
      <path id="JetBrainsMono-Bold-32" d="M 474 0 
L 474 723 
L 2157 2445 
Q 2566 2874 2566 3315 
Q 2566 3629 2384 3824 
Q 2202 4019 1894 4019 
Q 1581 4019 1392 3817 
Q 1203 3616 1203 3283 
L 403 3283 
Q 403 3718 595 4044 
Q 787 4371 1126 4553 
Q 1466 4736 1914 4736 
Q 2355 4736 2688 4563 
Q 3021 4390 3203 4080 
Q 3386 3770 3386 3354 
Q 3386 2995 3216 2636 
Q 3046 2278 2656 1894 
L 1478 723 
L 3443 723 
L 3443 0 
L 474 0 
z
" transform="scale(0.015625)"/>
      <path id="JetBrainsMono-Bold-33" d="M 1875 -64 
Q 1184 -64 781 297 
Q 378 659 378 1280 
L 1184 1280 
Q 1184 986 1369 810 
Q 1555 634 1882 634 
Q 2202 634 2387 810 
Q 2573 986 2573 1280 
L 2573 1632 
Q 2573 1946 2390 2122 
Q 2208 2298 1882 2298 
L 1293 2298 
L 1293 2938 
L 2368 3968 
L 544 3968 
L 544 4672 
L 3245 4672 
L 3245 3994 
L 2170 2963 
Q 2733 2886 3056 2537 
Q 3379 2189 3379 1632 
L 3379 1280 
Q 3379 659 2972 297 
Q 2566 -64 1875 -64 
z
" transform="scale(0.015625)"/>
     </defs>
     <use xlink:href="#JetBrainsMono-Bold-32"/>
     <use xlink:href="#JetBrainsMono-Bold-32" transform="translate(59.999985 0)"/>
     <use xlink:href="#JetBrainsMono-Bold-33" transform="translate(119.999969 0)"/>
    </g>
   </g>
   <g id="text_16">
    <!-- Rating History -->
    <g style="fill: #8b5cf6" transform="translate(55.296 50.44) scale(0.17 -0.17)">
     <defs>
      <path id="JetBrainsMono-Bold-52" d="M 493 0 
L 493 4672 
L 1965 4672 
Q 2432 4672 2774 4499 
Q 3117 4326 3309 4016 
Q 3501 3706 3501 3283 
Q 3501 2816 3270 2467 
Q 3040 2118 2650 1971 
L 3565 0 
L 2688 0 
L 1869 1856 
L 1286 1856 
L 1286 0 
L 493 0 
z
M 1286 2560 
L 1965 2560 
Q 2304 2560 2496 2745 
Q 2688 2931 2688 3258 
Q 2688 3584 2493 3776 
Q 2298 3968 1965 3968 
L 1286 3968 
L 1286 2560 
z
" transform="scale(0.015625)"/>
      <path id="JetBrainsMono-Bold-61" d="M 1530 -64 
Q 992 -64 681 240 
Q 371 544 371 1037 
Q 371 1549 723 1853 
Q 1075 2157 1690 2157 
L 2547 2157 
L 2547 2406 
Q 2547 2938 1926 2938 
Q 1645 2938 1478 2829 
Q 1312 2720 1293 2522 
L 525 2522 
Q 550 2995 924 3289 
Q 1299 3584 1933 3584 
Q 2605 3584 2976 3270 
Q 3347 2957 3347 2387 
L 3347 0 
L 2566 0 
L 2566 659 
Q 2522 320 2246 128 
Q 1971 -64 1530 -64 
z
M 1786 589 
Q 2138 589 2342 761 
Q 2547 934 2547 1222 
L 2547 1638 
L 1728 1638 
Q 1466 1638 1312 1491 
Q 1158 1344 1158 1114 
Q 1158 877 1321 733 
Q 1485 589 1786 589 
z
" transform="scale(0.015625)"/>
      <path id="JetBrainsMono-Bold-74" d="M 2272 0 
Q 1779 0 1488 285 
Q 1197 570 1197 1056 
L 1197 2797 
L 224 2797 
L 224 3520 
L 1197 3520 
L 1197 4512 
L 2003 4512 
L 2003 3520 
L 3405 3520 
L 3405 2797 
L 2003 2797 
L 2003 1075 
Q 2003 922 2089 822 
Q 2176 723 2330 723 
L 3373 723 
L 3373 0 
L 2272 0 
z
" transform="scale(0.015625)"/>
      <path id="JetBrainsMono-Bold-69" d="M 486 0 
L 486 723 
L 1690 723 
L 1690 2797 
L 614 2797 
L 614 3520 
L 2490 3520 
L 2490 723 
L 3571 723 
L 3571 0 
L 486 0 
z
M 2032 4109 
Q 1789 4109 1648 4233 
Q 1507 4358 1507 4570 
Q 1507 4781 1648 4905 
Q 1789 5030 2032 5030 
Q 2275 5030 2416 4905 
Q 2557 4781 2557 4570 
Q 2557 4358 2416 4233 
Q 2275 4109 2032 4109 
z
" transform="scale(0.015625)"/>
      <path id="JetBrainsMono-Bold-6e" d="M 493 0 
L 493 3520 
L 1274 3520 
L 1274 2861 
Q 1338 3194 1587 3389 
Q 1837 3584 2221 3584 
Q 2739 3584 3049 3238 
Q 3360 2893 3360 2310 
L 3360 0 
L 2560 0 
L 2560 2214 
Q 2560 2541 2390 2717 
Q 2221 2893 1933 2893 
Q 1632 2893 1462 2713 
Q 1293 2534 1293 2202 
L 1293 0 
L 493 0 
z
" transform="scale(0.015625)"/>
      <path id="JetBrainsMono-Bold-67" d="M 973 -1152 
L 973 -486 
L 1965 -486 
Q 2246 -486 2400 -336 
Q 2554 -186 2554 70 
L 2554 282 
L 2566 832 
Q 2458 538 2218 374 
Q 1978 211 1632 211 
Q 1094 211 777 572 
Q 461 934 461 1555 
L 461 2240 
Q 461 2854 777 3219 
Q 1094 3584 1632 3584 
Q 1978 3584 2218 3421 
Q 2458 3258 2566 2957 
L 2566 3520 
L 3347 3520 
L 3347 51 
Q 3347 -506 2979 -829 
Q 2611 -1152 1978 -1152 
L 973 -1152 
z
M 1901 896 
Q 2208 896 2377 1078 
Q 2547 1261 2547 1587 
L 2547 2202 
Q 2547 2528 2377 2710 
Q 2208 2893 1901 2893 
Q 1594 2893 1427 2717 
Q 1261 2541 1261 2227 
L 1261 1562 
Q 1261 1248 1427 1072 
Q 1594 896 1901 896 
z
" transform="scale(0.015625)"/>
      <path id="JetBrainsMono-Bold-20" transform="scale(0.015625)"/>
      <path id="JetBrainsMono-Bold-48" d="M 493 0 
L 493 4672 
L 1293 4672 
L 1293 2778 
L 2547 2778 
L 2547 4672 
L 3347 4672 
L 3347 0 
L 2547 0 
L 2547 2054 
L 1293 2054 
L 1293 0 
L 493 0 
z
" transform="scale(0.015625)"/>
      <path id="JetBrainsMono-Bold-73" d="M 1773 -58 
Q 1146 -58 781 227 
Q 416 512 416 998 
L 1203 998 
Q 1203 794 1353 685 
Q 1504 576 1773 576 
L 2054 576 
Q 2342 576 2499 685 
Q 2656 794 2656 998 
Q 2656 1190 2547 1283 
Q 2438 1376 2214 1408 
L 1338 1523 
Q 915 1581 688 1849 
Q 461 2118 461 2547 
Q 461 3046 793 3312 
Q 1126 3578 1754 3578 
L 2048 3578 
Q 2637 3578 2995 3309 
Q 3354 3040 3366 2592 
L 2573 2592 
Q 2566 2758 2425 2857 
Q 2285 2957 2048 2957 
L 1754 2957 
Q 1498 2957 1363 2851 
Q 1229 2746 1229 2566 
Q 1229 2406 1328 2329 
Q 1427 2253 1619 2234 
L 2445 2118 
Q 2931 2061 3177 1776 
Q 3424 1491 3424 1011 
Q 3424 499 3075 220 
Q 2726 -58 2054 -58 
L 1773 -58 
z
" transform="scale(0.015625)"/>
      <path id="JetBrainsMono-Bold-6f" d="M 1920 -58 
Q 1242 -58 845 323 
Q 448 704 448 1350 
L 448 2170 
Q 448 2822 845 3200 
Q 1242 3578 1920 3578 
Q 2598 3578 2995 3200 
Q 3392 2822 3392 2170 
L 3392 1350 
Q 3392 704 2995 323 
Q 2598 -58 1920 -58 
z
M 1920 640 
Q 2240 640 2416 816 
Q 2592 992 2592 1325 
L 2592 2195 
Q 2592 2528 2416 2704 
Q 2240 2880 1920 2880 
Q 1600 2880 1424 2704 
Q 1248 2528 1248 2195 
L 1248 1325 
Q 1248 992 1424 816 
Q 1600 640 1920 640 
z
" transform="scale(0.015625)"/>
      <path id="JetBrainsMono-Bold-72" d="M 621 0 
L 621 3520 
L 1402 3520 
L 1402 2835 
Q 1466 3181 1718 3382 
Q 1971 3584 2374 3584 
Q 2912 3584 3213 3238 
Q 3514 2893 3514 2272 
L 3514 1939 
L 2714 1939 
L 2714 2234 
Q 2714 2554 2547 2723 
Q 2381 2893 2074 2893 
Q 1754 2893 1587 2701 
Q 1421 2509 1421 2157 
L 1421 0 
L 621 0 
z
" transform="scale(0.015625)"/>
      <path id="JetBrainsMono-Bold-79" d="M 1056 -1152 
L 1555 192 
L 230 3520 
L 1075 3520 
L 1754 1722 
Q 1811 1562 1868 1373 
Q 1926 1184 1952 1024 
Q 1971 1184 2025 1373 
Q 2080 1562 2138 1722 
L 2765 3520 
L 3610 3520 
L 1894 -1152 
L 1056 -1152 
z
" transform="scale(0.015625)"/>
     </defs>
     <use xlink:href="#JetBrainsMono-Bold-52"/>
     <use xlink:href="#JetBrainsMono-Bold-61" transform="translate(59.999985 0)"/>
     <use xlink:href="#JetBrainsMono-Bold-74" transform="translate(119.999969 0)"/>
     <use xlink:href="#JetBrainsMono-Bold-69" transform="translate(179.999954 0)"/>
     <use xlink:href="#JetBrainsMono-Bold-6e" transform="translate(239.999939 0)"/>
     <use xlink:href="#JetBrainsMono-Bold-67" transform="translate(299.999924 0)"/>
     <use xlink:href="#JetBrainsMono-Bold-20" transform="translate(359.999908 0)"/>
     <use xlink:href="#JetBrainsMono-Bold-48" transform="translate(419.999893 0)"/>
     <use xlink:href="#JetBrainsMono-Bold-69" transform="translate(479.999878 0)"/>
     <use xlink:href="#JetBrainsMono-Bold-73" transform="translate(539.999863 0)"/>
     <use xlink:href="#JetBrainsMono-Bold-74" transform="translate(599.999847 0)"/>
     <use xlink:href="#JetBrainsMono-Bold-6f" transform="translate(659.999832 0)"/>
     <use xlink:href="#JetBrainsMono-Bold-72" transform="translate(719.999817 0)"/>
     <use xlink:href="#JetBrainsMono-Bold-79" transform="translate(779.999802 0)"/>
    </g>
   </g>
   <g id="line2d_27">
    <path d="M 85.968 277.846024 
L 88.840294 274.321071 
L 91.712589 271.303131 
L 94.584883 268.767299 
L 97.457177 266.688669 
L 100.329472 265.042336 
L 103.201766 263.803392 
L 106.07406 262.946932 
L 108.946355 262.448051 
L 111.818649 262.281842 
L 114.690943 262.423399 
L 117.563237 262.847817 
L 120.435532 263.530189 
L 123.307826 264.44561 
L 126.18012 265.569173 
L 129.052415 266.875972 
L 133.360856 269.125259 
L 137.669298 271.646731 
L 143.413886 275.286812 
L 156.339211 283.667789 
L 160.647652 286.221284 
L 164.956094 288.5146 
L 167.828388 289.857425 
L 170.700682 291.022349 
L 173.572977 291.984469 
L 176.445271 292.718876 
L 179.317565 293.200667 
L 182.18986 293.404933 
L 185.062154 293.306771 
L 187.934448 292.881273 
L 190.806742 292.103534 
L 193.679037 290.948648 
L 196.551331 289.391709 
L 199.423625 287.407811 
L 202.29592 284.972047 
L 205.168214 282.059513 
L 208.040508 278.645302 
L 210.912803 274.710521 
L 213.785097 270.282808 
L 216.657391 265.411508 
L 219.529686 260.146089 
L 223.838127 251.617192 
L 228.146569 242.479775 
L 233.891157 229.638518 
L 251.124923 190.361977 
L 255.433365 181.247534 
L 259.741806 172.748867 
L 262.6141 167.507631 
L 265.486395 162.66374 
L 268.358689 158.266659 
L 271.230983 154.364757 
L 274.103278 150.970056 
L 276.975572 148.050783 
L 279.847866 145.572554 
L 282.720161 143.500988 
L 285.592455 141.801703 
L 288.464749 140.440317 
L 291.337043 139.382448 
L 294.209338 138.593713 
L 297.081632 138.03973 
L 299.953926 137.686118 
L 304.262368 137.456184 
L 308.570809 137.483683 
L 324.368428 137.911753 
L 327.240722 137.746853 
L 330.113017 137.421312 
L 332.985311 136.902221 
L 335.857605 136.18142 
L 338.7299 135.271287 
L 341.602194 134.184821 
L 345.910635 132.252929 
L 350.219077 129.997405 
L 354.527518 127.462116 
L 358.83596 124.690935 
L 364.580548 120.704907 
L 371.761284 115.400735 
L 391.867344 100.304607 
L 397.611933 96.362556 
L 403.356522 92.689881 
L 409.10111 89.284314 
L 414.845699 86.143535 
L 420.590288 83.265222 
L 426.334876 80.647055 
L 432.079465 78.286714 
L 437.824054 76.181876 
L 443.568642 74.330223 
L 449.313231 72.729432 
L 455.057819 71.377185 
L 460.802408 70.271158 
L 466.546997 69.409033 
L 472.291585 68.788488 
L 478.036174 68.407203 
L 483.780763 68.262857 
L 489.525351 68.353129 
L 495.26994 68.675699 
L 501.014528 69.228246 
L 506.759117 70.008449 
L 512.503706 71.013987 
L 515.376 71.600532 
L 515.376 71.600532 
" clip-path="url(#p753b8df311)" style="fill: none; stroke: #8b5cf6; stroke-width: 1.2; stroke-linecap: round"/>
   </g>
   <g id="PathCollection_1">
    <defs>
     <path id="ma835feb94c" d="M 0 2.236068 
C 0.593012 2.236068 1.161816 2.000462 1.581139 1.581139 
C 2.000462 1.161816 2.236068 0.593012 2.236068 0 
C 2.236068 -0.593012 2.000462 -1.161816 1.581139 -1.581139 
C 1.161816 -2.000462 0.593012 -2.236068 0 -2.236068 
C -0.593012 -2.236068 -1.161816 -2.000462 -1.581139 -1.581139 
C -2.000462 -1.161816 -2.236068 -0.593012 -2.236068 0 
C -2.236068 0.593012 -2.000462 1.161816 -1.581139 1.581139 
C -1.161816 2.000462 -0.593012 2.236068 0 2.236068 
z
" style="stroke: #ffffff; stroke-width: 0.8"/>
    </defs>
    <g clip-path="url(#p753b8df311)">
     <use xlink:href="#ma835feb94c" x="515.376" y="71.600532" style="fill: #8b5cf6; stroke: #ffffff; stroke-width: 0.8"/>
    </g>
   </g>
  </g>
  <g id="axes_2">
   <g id="text_17">
    <!-- Rating -->
    <g style="fill: #9b8bb8" transform="translate(565.7472 48.312) scale(0.11 -0.11)">
     <use xlink:href="#JetBrainsMono-Regular-52"/>
     <use xlink:href="#JetBrainsMono-Regular-61" transform="translate(59.999985 0)"/>
     <use xlink:href="#JetBrainsMono-Regular-74" transform="translate(119.999969 0)"/>
     <use xlink:href="#JetBrainsMono-Regular-69" transform="translate(179.999954 0)"/>
     <use xlink:href="#JetBrainsMono-Regular-6e" transform="translate(239.999939 0)"/>
     <use xlink:href="#JetBrainsMono-Regular-67" transform="translate(299.999924 0)"/>
    </g>
   </g>
   <g id="text_18">
    <!-- 223 -->
    <g style="fill: #8b5cf6" transform="translate(565.7472 81.548) scale(0.26 -0.26)">
     <use xlink:href="#JetBrainsMono-Bold-32"/>
     <use xlink:href="#JetBrainsMono-Bold-32" transform="translate(59.999985 0)"/>
     <use xlink:href="#JetBrainsMono-Bold-33" transform="translate(119.999969 0)"/>
    </g>
   </g>
   <g id="text_19">
    <!-- Rank -->
    <g style="fill: #9b8bb8" transform="translate(565.7472 119.592) scale(0.11 -0.11)">
     <defs>
      <path id="JetBrainsMono-Regular-6b" d="M 621 0 
L 621 4672 
L 1197 4672 
L 1197 2067 
L 1869 2067 
L 2854 3520 
L 3514 3520 
L 2381 1843 
L 3578 0 
L 2906 0 
L 1882 1568 
L 1197 1568 
L 1197 0 
L 621 0 
z
" transform="scale(0.015625)"/>
     </defs>
     <use xlink:href="#JetBrainsMono-Regular-52"/>
     <use xlink:href="#JetBrainsMono-Regular-61" transform="translate(59.999985 0)"/>
     <use xlink:href="#JetBrainsMono-Regular-6e" transform="translate(119.999969 0)"/>
     <use xlink:href="#JetBrainsMono-Regular-6b" transform="translate(179.999954 0)"/>
    </g>
   </g>
   <g id="text_20">
    <!-- #126,396 -->
    <g style="fill: #8b5cf6" transform="translate(565.7472 148.104) scale(0.14 -0.14)">
     <defs>
      <path id="JetBrainsMono-Bold-23" d="M 493 0 
L 710 1216 
L 224 1216 
L 224 1760 
L 800 1760 
L 998 2912 
L 448 2912 
L 448 3456 
L 1094 3456 
L 1312 4672 
L 1875 4672 
L 1658 3456 
L 2566 3456 
L 2784 4672 
L 3347 4672 
L 3130 3456 
L 3616 3456 
L 3616 2912 
L 3034 2912 
L 2835 1760 
L 3392 1760 
L 3392 1216 
L 2739 1216 
L 2528 0 
L 1965 0 
L 2182 1216 
L 1267 1216 
L 1056 0 
L 493 0 
z
M 1363 1760 
L 2272 1760 
L 2470 2912 
L 1562 2912 
L 1363 1760 
z
" transform="scale(0.015625)"/>
      <path id="JetBrainsMono-Bold-31" d="M 538 0 
L 538 723 
L 1754 723 
L 1754 3898 
L 531 3002 
L 531 3898 
L 1606 4672 
L 2554 4672 
L 2554 723 
L 3533 723 
L 3533 0 
L 538 0 
z
" transform="scale(0.015625)"/>
      <path id="JetBrainsMono-Bold-36" d="M 1920 -64 
Q 1440 -64 1085 128 
Q 730 320 534 669 
Q 339 1018 339 1485 
Q 339 1760 457 2115 
Q 576 2470 781 2835 
L 1792 4672 
L 2701 4672 
L 1498 2611 
L 1523 2598 
Q 1619 2733 1804 2809 
Q 1990 2886 2208 2886 
Q 2598 2886 2889 2710 
Q 3181 2534 3341 2214 
Q 3501 1894 3501 1459 
Q 3501 998 3305 656 
Q 3110 314 2755 125 
Q 2400 -64 1920 -64 
z
M 1920 614 
Q 2278 614 2496 841 
Q 2714 1069 2714 1446 
Q 2714 1830 2496 2057 
Q 2278 2285 1920 2285 
Q 1562 2285 1344 2057 
Q 1126 1830 1126 1446 
Q 1126 1069 1344 841 
Q 1562 614 1920 614 
z
" transform="scale(0.015625)"/>
      <path id="JetBrainsMono-Bold-2c" d="M 1216 -1024 
L 1555 934 
L 2470 934 
L 1984 -1024 
L 1216 -1024 
z
" transform="scale(0.015625)"/>
      <path id="JetBrainsMono-Bold-39" d="M 1120 0 
L 2214 1888 
Q 2138 1830 2035 1788 
Q 1933 1747 1728 1747 
Q 1344 1747 1027 1932 
Q 710 2118 524 2448 
Q 339 2778 339 3213 
Q 339 3674 534 4016 
Q 730 4358 1085 4547 
Q 1440 4736 1920 4736 
Q 2400 4736 2755 4544 
Q 3110 4352 3305 4003 
Q 3501 3654 3501 3187 
Q 3501 2912 3382 2557 
Q 3264 2202 3059 1837 
L 2048 0 
L 1120 0 
z
M 1920 2387 
Q 2278 2387 2496 2614 
Q 2714 2842 2714 3226 
Q 2714 3603 2496 3830 
Q 2278 4058 1920 4058 
Q 1562 4058 1344 3830 
Q 1126 3603 1126 3226 
Q 1126 2842 1344 2614 
Q 1562 2387 1920 2387 
z
" transform="scale(0.015625)"/>
     </defs>
     <use xlink:href="#JetBrainsMono-Bold-23"/>
     <use xlink:href="#JetBrainsMono-Bold-31" transform="translate(59.999985 0)"/>
     <use xlink:href="#JetBrainsMono-Bold-32" transform="translate(119.999969 0)"/>
     <use xlink:href="#JetBrainsMono-Bold-36" transform="translate(179.999954 0)"/>
     <use xlink:href="#JetBrainsMono-Bold-2c" transform="translate(239.999939 0)"/>
     <use xlink:href="#JetBrainsMono-Bold-33" transform="translate(299.999924 0)"/>
     <use xlink:href="#JetBrainsMono-Bold-39" transform="translate(359.999908 0)"/>
     <use xlink:href="#JetBrainsMono-Bold-36" transform="translate(419.999893 0)"/>
    </g>
   </g>
   <g id="text_21">
    <!-- ─ 0 -->
    <g style="fill: #9b8bb8" transform="translate(565.7472 169.488) scale(0.11 -0.11)">
     <defs>
      <path id="JetBrainsMono-Bold-2500" d="M -128 2048 
L -128 2688 
L 3968 2688 
L 3968 2048 
L -128 2048 
z
" transform="scale(0.015625)"/>
      <path id="JetBrainsMono-Bold-30" d="M 1920 -64 
Q 1466 -64 1133 109 
Q 800 282 617 595 
Q 435 909 435 1331 
L 435 3341 
Q 435 3763 617 4076 
Q 800 4390 1133 4563 
Q 1466 4736 1920 4736 
Q 2374 4736 2707 4563 
Q 3040 4390 3222 4076 
Q 3405 3763 3405 3341 
L 3405 1331 
Q 3405 909 3222 595 
Q 3040 282 2707 109 
Q 2374 -64 1920 -64 
z
M 1920 627 
Q 2253 627 2451 819 
Q 2650 1011 2650 1331 
L 2650 3341 
Q 2650 3661 2454 3853 
Q 2259 4045 1920 4045 
Q 1581 4045 1385 3853 
Q 1190 3661 1190 3341 
L 1190 1331 
Q 1190 1011 1388 819 
Q 1587 627 1920 627 
z
M 1920 1952 
Q 1728 1952 1613 2057 
Q 1498 2163 1498 2355 
Q 1498 2547 1613 2646 
Q 1728 2746 1920 2746 
Q 2112 2746 2227 2646 
Q 2342 2547 2342 2355 
Q 2342 2163 2227 2057 
Q 2112 1952 1920 1952 
z
" transform="scale(0.015625)"/>
     </defs>
     <use xlink:href="#JetBrainsMono-Bold-2500"/>
     <use xlink:href="#JetBrainsMono-Bold-20" transform="translate(59.999985 0)"/>
     <use xlink:href="#JetBrainsMono-Bold-30" transform="translate(119.999969 0)"/>
    </g>
   </g>
  </g>
 </g>
 <defs>
  <clipPath id="p753b8df311">
   <rect x="55.296" y="55.44" width="490.752" height="269.28"/>
  </clipPath>
 </defs>
</svg>
