<?xml version="1.0" encoding="utf-8" standalone="no"?>
<!DOCTYPE svg PUBLIC "-//W3C//DTD SVG 1.1//EN"
  "http://www.w3.org/Graphics/SVG/1.1/DTD/svg11.dtd">
<svg xmlns:xlink="http://www.w3.org/1999/xlink" width="691.2pt" height="396pt" viewBox="0 0 691.2 396" xmlns="http://www.w3.org/2000/svg" version="1.1">
 <metadata>
  <rdf:RDF xmlns:dc="http://purl.org/dc/elements/1.1/" xmlns:cc="http://creativecommons.org/ns#" xmlns:rdf="http://www.w3.org/1999/02/22-rdf-syntax-ns#">
   <cc:Work>
    <dc:type rdf:resource="http://purl.org/dc/dcmitype/StillImage"/>
    <dc:date>2026-04-25T15:30:52.439829</dc:date>
    <dc:format>image/svg+xml</dc:format>
    <dc:creator>
     <cc:Agent>
      <dc:title>Matplotlib v3.10.9, https://matplotlib.org/</dc:title>
     </cc:Agent>
    </dc:creator>
   </cc:Work>
  </rdf:RDF>
 </metadata>
 <defs>
  <style type="text/css">*{stroke-linejoin: round; stroke-linecap: butt}</style>
 </defs>
 <g id="figure_1">
  <g id="patch_1">
   <path d="M 0 396 
L 691.2 396 
L 691.2 0 
L 0 0 
L 0 396 
z
" style="fill: none"/>
  </g>
  <g id="axes_1">
   <g id="patch_2">
    <path d="M 55.296 324.72 
L 546.048 324.72 
L 546.048 55.44 
L 55.296 55.44 
L 55.296 324.72 
z
" style="fill: none"/>
   </g>
   <g id="matplotlib.axis_1">
    <g id="xtick_1">
     <g id="line2d_1">
      <path d="M 64.733538 324.72 
L 64.733538 55.44 
" clip-path="url(#p879458a0a0)" style="fill: none; stroke-dasharray: 2.22,0.96; stroke-dashoffset: 0; stroke: #e2d5f5; stroke-opacity: 0.7; stroke-width: 0.6"/>
     </g>
     <g id="line2d_2">
      <defs>
       <path id="me6684ed9fc" d="M 0 0 
L 0 3.5 
" style="stroke: #9b8bb8; stroke-width: 0.8"/>
      </defs>
      <g>
       <use xlink:href="#me6684ed9fc" x="64.733538" y="324.72" style="fill: #9b8bb8; stroke: #9b8bb8; stroke-width: 0.8"/>
      </g>
     </g>
     <g id="text_1">
      <!-- 03/31 -->
      <g style="fill: #9b8bb8" transform="translate(53.193157 353.301793) rotate(-30) scale(0.1 -0.1)">
       <defs>
        <path id="JetBrainsMono-Regular-30" d="M 1920 -64 
Q 1274 -64 893 310 
Q 512 685 512 1312 
L 512 3360 
Q 512 3987 893 4361 
Q 1274 4736 1920 4736 
Q 2566 4736 2947 4361 
Q 3328 3987 3328 3360 
L 3328 1312 
Q 3328 896 3155 585 
Q 2982 275 2665 105 
Q 2349 -64 1920 -64 
z
M 1920 429 
Q 2304 429 2537 675 
Q 2771 922 2771 1312 
L 2771 3360 
Q 2771 3750 2537 3996 
Q 2304 4243 1920 4243 
Q 1536 4243 1302 3996 
Q 1069 3750 1069 3360 
L 1069 1312 
Q 1069 922 1302 675 
Q 1536 429 1920 429 
z
M 1920 1984 
Q 1747 1984 1641 2080 
Q 1536 2176 1536 2355 
Q 1536 2528 1641 2621 
Q 1747 2714 1920 2714 
Q 2093 2714 2198 2621 
Q 2304 2528 2304 2355 
Q 2304 2176 2198 2080 
Q 2093 1984 1920 1984 
z
" transform="scale(0.015625)"/>
        <path id="JetBrainsMono-Regular-33" d="M 1850 -64 
Q 1203 -64 825 297 
Q 448 659 448 1280 
L 1024 1280 
Q 1024 896 1248 672 
Q 1472 448 1856 448 
Q 2240 448 2464 672 
Q 2688 896 2688 1280 
L 2688 1600 
Q 2688 1984 2464 2208 
Q 2240 2432 1856 2432 
L 1350 2432 
L 1350 2931 
L 2496 4147 
L 576 4147 
L 576 4672 
L 3149 4672 
L 3149 4134 
L 2022 2938 
Q 2598 2893 2931 2537 
Q 3264 2182 3264 1600 
L 3264 1280 
Q 3264 659 2883 297 
Q 2502 -64 1850 -64 
z
" transform="scale(0.015625)"/>
        <path id="JetBrainsMono-Regular-2f" d="M 480 -704 
L 2752 5312 
L 3360 5312 
L 1088 -704 
L 480 -704 
z
" transform="scale(0.015625)"/>
        <path id="JetBrainsMono-Regular-31" d="M 576 0 
L 576 525 
L 1843 525 
L 1843 4173 
L 576 3226 
L 576 3885 
L 1632 4672 
L 2419 4672 
L 2419 525 
L 3456 525 
L 3456 0 
L 576 0 
z
" transform="scale(0.015625)"/>
       </defs>
       <use xlink:href="#JetBrainsMono-Regular-30"/>
       <use xlink:href="#JetBrainsMono-Regular-33" transform="translate(59.999985 0)"/>
       <use xlink:href="#JetBrainsMono-Regular-2f" transform="translate(119.999969 0)"/>
       <use xlink:href="#JetBrainsMono-Regular-33" transform="translate(179.999954 0)"/>
       <use xlink:href="#JetBrainsMono-Regular-31" transform="translate(239.999939 0)"/>
      </g>
     </g>
    </g>
    <g id="xtick_2">
     <g id="line2d_3">
      <path d="M 121.358769 324.72 
L 121.358769 55.44 
" clip-path="url(#p879458a0a0)" style="fill: none; stroke-dasharray: 2.22,0.96; stroke-dashoffset: 0; stroke: #e2d5f5; stroke-opacity: 0.7; stroke-width: 0.6"/>
     </g>
     <g id="line2d_4">
      <g>
       <use xlink:href="#me6684ed9fc" x="121.358769" y="324.72" style="fill: #9b8bb8; stroke: #9b8bb8; stroke-width: 0.8"/>
      </g>
     </g>
     <g id="text_2">
      <!-- 04/03 -->
      <g style="fill: #9b8bb8" transform="translate(109.818388 353.301793) rotate(-30) scale(0.1 -0.1)">
       <defs>
        <path id="JetBrainsMono-Regular-34" d="M 2560 0 
L 2560 1024 
L 448 1024 
L 448 1926 
L 2150 4672 
L 2803 4672 
L 1024 1798 
L 1024 1549 
L 2560 1549 
L 2560 2688 
L 3136 2688 
L 3136 0 
L 2560 0 
z
" transform="scale(0.015625)"/>
       </defs>
       <use xlink:href="#JetBrainsMono-Regular-30"/>
       <use xlink:href="#JetBrainsMono-Regular-34" transform="translate(59.999985 0)"/>
       <use xlink:href="#JetBrainsMono-Regular-2f" transform="translate(119.999969 0)"/>
       <use xlink:href="#JetBrainsMono-Regular-30" transform="translate(179.999954 0)"/>
       <use xlink:href="#JetBrainsMono-Regular-33" transform="translate(239.999939 0)"/>
      </g>
     </g>
    </g>
    <g id="xtick_3">
     <g id="line2d_5">
      <path d="M 177.984 324.72 
L 177.984 55.44 
" clip-path="url(#p879458a0a0)" style="fill: none; stroke-dasharray: 2.22,0.96; stroke-dashoffset: 0; stroke: #e2d5f5; stroke-opacity: 0.7; stroke-width: 0.6"/>
     </g>
     <g id="line2d_6">
      <g>
       <use xlink:href="#me6684ed9fc" x="177.984" y="324.72" style="fill: #9b8bb8; stroke: #9b8bb8; stroke-width: 0.8"/>
      </g>
     </g>
     <g id="text_3">
      <!-- 04/06 -->
      <g style="fill: #9b8bb8" transform="translate(166.443619 353.301793) rotate(-30) scale(0.1 -0.1)">
       <defs>
        <path id="JetBrainsMono-Regular-36" d="M 1926 -64 
Q 1478 -64 1136 125 
Q 794 314 602 650 
Q 410 986 410 1427 
Q 410 1734 525 2057 
Q 640 2381 838 2733 
L 1920 4672 
L 2560 4672 
L 1408 2669 
L 1427 2656 
Q 1510 2765 1676 2822 
Q 1843 2880 2042 2880 
Q 2458 2880 2768 2697 
Q 3078 2515 3254 2195 
Q 3430 1875 3430 1453 
Q 3430 1005 3238 662 
Q 3046 320 2710 128 
Q 2374 -64 1926 -64 
z
M 1920 448 
Q 2336 448 2595 723 
Q 2854 998 2854 1440 
Q 2854 1882 2595 2157 
Q 2336 2432 1920 2432 
Q 1504 2432 1245 2157 
Q 986 1882 986 1440 
Q 986 998 1245 723 
Q 1504 448 1920 448 
z
" transform="scale(0.015625)"/>
       </defs>
       <use xlink:href="#JetBrainsMono-Regular-30"/>
       <use xlink:href="#JetBrainsMono-Regular-34" transform="translate(59.999985 0)"/>
       <use xlink:href="#JetBrainsMono-Regular-2f" transform="translate(119.999969 0)"/>
       <use xlink:href="#JetBrainsMono-Regular-30" transform="translate(179.999954 0)"/>
       <use xlink:href="#JetBrainsMono-Regular-36" transform="translate(239.999939 0)"/>
      </g>
     </g>
    </g>
    <g id="xtick_4">
     <g id="line2d_7">
      <path d="M 234.609231 324.72 
L 234.609231 55.44 
" clip-path="url(#p879458a0a0)" style="fill: none; stroke-dasharray: 2.22,0.96; stroke-dashoffset: 0; stroke: #e2d5f5; stroke-opacity: 0.7; stroke-width: 0.6"/>
     </g>
     <g id="line2d_8">
      <g>
       <use xlink:href="#me6684ed9fc" x="234.609231" y="324.72" style="fill: #9b8bb8; stroke: #9b8bb8; stroke-width: 0.8"/>
      </g>
     </g>
     <g id="text_4">
      <!-- 04/09 -->
      <g style="fill: #9b8bb8" transform="translate(223.06885 353.301793) rotate(-30) scale(0.1 -0.1)">
       <defs>
        <path id="JetBrainsMono-Regular-39" d="M 1248 0 
L 2400 2003 
L 2381 2016 
Q 2317 1914 2144 1853 
Q 1971 1792 1766 1792 
Q 1363 1792 1059 1974 
Q 755 2157 582 2477 
Q 410 2797 410 3219 
Q 410 3674 602 4013 
Q 794 4352 1133 4544 
Q 1472 4736 1914 4736 
Q 2368 4736 2707 4547 
Q 3046 4358 3238 4022 
Q 3430 3686 3430 3245 
Q 3430 2938 3315 2614 
Q 3200 2291 3002 1939 
L 1920 0 
L 1248 0 
z
M 1920 2240 
Q 2336 2240 2595 2515 
Q 2854 2790 2854 3232 
Q 2854 3674 2595 3949 
Q 2336 4224 1920 4224 
Q 1504 4224 1245 3949 
Q 986 3674 986 3232 
Q 986 2790 1245 2515 
Q 1504 2240 1920 2240 
z
" transform="scale(0.015625)"/>
       </defs>
       <use xlink:href="#JetBrainsMono-Regular-30"/>
       <use xlink:href="#JetBrainsMono-Regular-34" transform="translate(59.999985 0)"/>
       <use xlink:href="#JetBrainsMono-Regular-2f" transform="translate(119.999969 0)"/>
       <use xlink:href="#JetBrainsMono-Regular-30" transform="translate(179.999954 0)"/>
       <use xlink:href="#JetBrainsMono-Regular-39" transform="translate(239.999939 0)"/>
      </g>
     </g>
    </g>
    <g id="xtick_5">
     <g id="line2d_9">
      <path d="M 291.234462 324.72 
L 291.234462 55.44 
" clip-path="url(#p879458a0a0)" style="fill: none; stroke-dasharray: 2.22,0.96; stroke-dashoffset: 0; stroke: #e2d5f5; stroke-opacity: 0.7; stroke-width: 0.6"/>
     </g>
     <g id="line2d_10">
      <g>
       <use xlink:href="#me6684ed9fc" x="291.234462" y="324.72" style="fill: #9b8bb8; stroke: #9b8bb8; stroke-width: 0.8"/>
      </g>
     </g>
     <g id="text_5">
      <!-- 04/12 -->
      <g style="fill: #9b8bb8" transform="translate(279.69408 353.301793) rotate(-30) scale(0.1 -0.1)">
       <defs>
        <path id="JetBrainsMono-Regular-32" d="M 550 0 
L 550 531 
L 2106 2195 
Q 2445 2554 2585 2835 
Q 2726 3117 2726 3386 
Q 2726 3770 2505 3997 
Q 2285 4224 1907 4224 
Q 1517 4224 1289 3990 
Q 1062 3757 1062 3360 
L 486 3360 
Q 506 3994 890 4365 
Q 1274 4736 1907 4736 
Q 2554 4736 2934 4371 
Q 3315 4006 3315 3379 
Q 3315 3046 3132 2675 
Q 2950 2304 2509 1843 
L 1248 525 
L 3373 525 
L 3373 0 
L 550 0 
z
" transform="scale(0.015625)"/>
       </defs>
       <use xlink:href="#JetBrainsMono-Regular-30"/>
       <use xlink:href="#JetBrainsMono-Regular-34" transform="translate(59.999985 0)"/>
       <use xlink:href="#JetBrainsMono-Regular-2f" transform="translate(119.999969 0)"/>
       <use xlink:href="#JetBrainsMono-Regular-31" transform="translate(179.999954 0)"/>
       <use xlink:href="#JetBrainsMono-Regular-32" transform="translate(239.999939 0)"/>
      </g>
     </g>
    </g>
    <g id="xtick_6">
     <g id="line2d_11">
      <path d="M 347.859692 324.72 
L 347.859692 55.44 
" clip-path="url(#p879458a0a0)" style="fill: none; stroke-dasharray: 2.22,0.96; stroke-dashoffset: 0; stroke: #e2d5f5; stroke-opacity: 0.7; stroke-width: 0.6"/>
     </g>
     <g id="line2d_12">
      <g>
       <use xlink:href="#me6684ed9fc" x="347.859692" y="324.72" style="fill: #9b8bb8; stroke: #9b8bb8; stroke-width: 0.8"/>
      </g>
     </g>
     <g id="text_6">
      <!-- 04/15 -->
      <g style="fill: #9b8bb8" transform="translate(336.319311 353.301793) rotate(-30) scale(0.1 -0.1)">
       <defs>
        <path id="JetBrainsMono-Regular-35" d="M 1882 -64 
Q 1235 -64 857 297 
Q 480 659 480 1280 
L 1056 1280 
Q 1056 896 1280 672 
Q 1504 448 1888 448 
Q 2272 448 2496 672 
Q 2720 896 2720 1280 
L 2720 1568 
Q 2720 1952 2502 2176 
Q 2285 2400 1914 2400 
L 640 2400 
L 640 4672 
L 3130 4672 
L 3130 4147 
L 1178 4147 
L 1190 2925 
L 1946 2925 
Q 2592 2925 2944 2569 
Q 3296 2214 3296 1568 
L 3296 1280 
Q 3296 659 2915 297 
Q 2534 -64 1882 -64 
z
" transform="scale(0.015625)"/>
       </defs>
       <use xlink:href="#JetBrainsMono-Regular-30"/>
       <use xlink:href="#JetBrainsMono-Regular-34" transform="translate(59.999985 0)"/>
       <use xlink:href="#JetBrainsMono-Regular-2f" transform="translate(119.999969 0)"/>
       <use xlink:href="#JetBrainsMono-Regular-31" transform="translate(179.999954 0)"/>
       <use xlink:href="#JetBrainsMono-Regular-35" transform="translate(239.999939 0)"/>
      </g>
     </g>
    </g>
    <g id="xtick_7">
     <g id="line2d_13">
      <path d="M 404.484923 324.72 
L 404.484923 55.44 
" clip-path="url(#p879458a0a0)" style="fill: none; stroke-dasharray: 2.22,0.96; stroke-dashoffset: 0; stroke: #e2d5f5; stroke-opacity: 0.7; stroke-width: 0.6"/>
     </g>
     <g id="line2d_14">
      <g>
       <use xlink:href="#me6684ed9fc" x="404.484923" y="324.72" style="fill: #9b8bb8; stroke: #9b8bb8; stroke-width: 0.8"/>
      </g>
     </g>
     <g id="text_7">
      <!-- 04/18 -->
      <g style="fill: #9b8bb8" transform="translate(392.944542 353.301793) rotate(-30) scale(0.1 -0.1)">
       <defs>
        <path id="JetBrainsMono-Regular-38" d="M 1920 -64 
Q 1478 -64 1139 109 
Q 800 282 611 592 
Q 422 902 422 1306 
Q 422 1747 675 2067 
Q 928 2387 1350 2458 
L 1350 2477 
Q 986 2560 768 2845 
Q 550 3130 550 3501 
Q 550 3866 723 4144 
Q 896 4422 1206 4579 
Q 1517 4736 1920 4736 
Q 2330 4736 2637 4579 
Q 2944 4422 3117 4144 
Q 3290 3866 3290 3501 
Q 3290 3130 3072 2845 
Q 2854 2560 2490 2477 
L 2490 2458 
Q 2912 2387 3165 2067 
Q 3418 1747 3418 1306 
Q 3418 902 3229 592 
Q 3040 282 2704 109 
Q 2368 -64 1920 -64 
z
M 1920 2701 
Q 2278 2701 2496 2912 
Q 2714 3123 2714 3462 
Q 2714 3802 2496 4013 
Q 2278 4224 1920 4224 
Q 1568 4224 1347 4013 
Q 1126 3802 1126 3462 
Q 1126 3123 1347 2912 
Q 1568 2701 1920 2701 
z
M 1920 454 
Q 2330 454 2586 694 
Q 2842 934 2842 1318 
Q 2842 1709 2586 1949 
Q 2330 2189 1920 2189 
Q 1510 2189 1254 1949 
Q 998 1709 998 1318 
Q 998 934 1254 694 
Q 1510 454 1920 454 
z
" transform="scale(0.015625)"/>
       </defs>
       <use xlink:href="#JetBrainsMono-Regular-30"/>
       <use xlink:href="#JetBrainsMono-Regular-34" transform="translate(59.999985 0)"/>
       <use xlink:href="#JetBrainsMono-Regular-2f" transform="translate(119.999969 0)"/>
       <use xlink:href="#JetBrainsMono-Regular-31" transform="translate(179.999954 0)"/>
       <use xlink:href="#JetBrainsMono-Regular-38" transform="translate(239.999939 0)"/>
      </g>
     </g>
    </g>
    <g id="xtick_8">
     <g id="line2d_15">
      <path d="M 461.110154 324.72 
L 461.110154 55.44 
" clip-path="url(#p879458a0a0)" style="fill: none; stroke-dasharray: 2.22,0.96; stroke-dashoffset: 0; stroke: #e2d5f5; stroke-opacity: 0.7; stroke-width: 0.6"/>
     </g>
     <g id="line2d_16">
      <g>
       <use xlink:href="#me6684ed9fc" x="461.110154" y="324.72" style="fill: #9b8bb8; stroke: #9b8bb8; stroke-width: 0.8"/>
      </g>
     </g>
     <g id="text_8">
      <!-- 04/21 -->
      <g style="fill: #9b8bb8" transform="translate(449.569773 353.301793) rotate(-30) scale(0.1 -0.1)">
       <use xlink:href="#JetBrainsMono-Regular-30"/>
       <use xlink:href="#JetBrainsMono-Regular-34" transform="translate(59.999985 0)"/>
       <use xlink:href="#JetBrainsMono-Regular-2f" transform="translate(119.999969 0)"/>
       <use xlink:href="#JetBrainsMono-Regular-32" transform="translate(179.999954 0)"/>
       <use xlink:href="#JetBrainsMono-Regular-31" transform="translate(239.999939 0)"/>
      </g>
     </g>
    </g>
    <g id="xtick_9">
     <g id="line2d_17">
      <path d="M 517.735385 324.72 
L 517.735385 55.44 
" clip-path="url(#p879458a0a0)" style="fill: none; stroke-dasharray: 2.22,0.96; stroke-dashoffset: 0; stroke: #e2d5f5; stroke-opacity: 0.7; stroke-width: 0.6"/>
     </g>
     <g id="line2d_18">
      <g>
       <use xlink:href="#me6684ed9fc" x="517.735385" y="324.72" style="fill: #9b8bb8; stroke: #9b8bb8; stroke-width: 0.8"/>
      </g>
     </g>
     <g id="text_9">
      <!-- 04/24 -->
      <g style="fill: #9b8bb8" transform="translate(506.195004 353.301793) rotate(-30) scale(0.1 -0.1)">
       <use xlink:href="#JetBrainsMono-Regular-30"/>
       <use xlink:href="#JetBrainsMono-Regular-34" transform="translate(59.999985 0)"/>
       <use xlink:href="#JetBrainsMono-Regular-2f" transform="translate(119.999969 0)"/>
       <use xlink:href="#JetBrainsMono-Regular-32" transform="translate(179.999954 0)"/>
       <use xlink:href="#JetBrainsMono-Regular-34" transform="translate(239.999939 0)"/>
      </g>
     </g>
    </g>
   </g>
   <g id="matplotlib.axis_2">
    <g id="ytick_1">
     <g id="line2d_19">
      <path d="M 55.296 309.990618 
L 546.048 309.990618 
" clip-path="url(#p879458a0a0)" style="fill: none; stroke-dasharray: 2.22,0.96; stroke-dashoffset: 0; stroke: #e2d5f5; stroke-opacity: 0.7; stroke-width: 0.6"/>
     </g>
     <g id="line2d_20">
      <defs>
       <path id="m4fdc9fc747" d="M 0 0 
L -3.5 0 
" style="stroke: #9b8bb8; stroke-width: 0.8"/>
      </defs>
      <g>
       <use xlink:href="#m4fdc9fc747" x="55.296" y="309.990618" style="fill: #9b8bb8; stroke: #9b8bb8; stroke-width: 0.8"/>
      </g>
     </g>
     <g id="text_10">
      <!-- 200 -->
      <g style="fill: #9b8bb8" transform="translate(30.296 313.640618) scale(0.1 -0.1)">
       <use xlink:href="#JetBrainsMono-Regular-32"/>
       <use xlink:href="#JetBrainsMono-Regular-30" transform="translate(59.999985 0)"/>
       <use xlink:href="#JetBrainsMono-Regular-30" transform="translate(119.999969 0)"/>
      </g>
     </g>
    </g>
    <g id="ytick_2">
     <g id="line2d_21">
      <path d="M 55.296 273.167163 
L 546.048 273.167163 
" clip-path="url(#p879458a0a0)" style="fill: none; stroke-dasharray: 2.22,0.96; stroke-dashoffset: 0; stroke: #e2d5f5; stroke-opacity: 0.7; stroke-width: 0.6"/>
     </g>
     <g id="line2d_22">
      <g>
       <use xlink:href="#m4fdc9fc747" x="55.296" y="273.167163" style="fill: #9b8bb8; stroke: #9b8bb8; stroke-width: 0.8"/>
      </g>
     </g>
     <g id="text_11">
      <!-- 210 -->
      <g style="fill: #9b8bb8" transform="translate(30.296 276.817163) scale(0.1 -0.1)">
       <use xlink:href="#JetBrainsMono-Regular-32"/>
       <use xlink:href="#JetBrainsMono-Regular-31" transform="translate(59.999985 0)"/>
       <use xlink:href="#JetBrainsMono-Regular-30" transform="translate(119.999969 0)"/>
      </g>
     </g>
    </g>
    <g id="ytick_3">
     <g id="line2d_23">
      <path d="M 55.296 236.343708 
L 546.048 236.343708 
" clip-path="url(#p879458a0a0)" style="fill: none; stroke-dasharray: 2.22,0.96; stroke-dashoffset: 0; stroke: #e2d5f5; stroke-opacity: 0.7; stroke-width: 0.6"/>
     </g>
     <g id="line2d_24">
      <g>
       <use xlink:href="#m4fdc9fc747" x="55.296" y="236.343708" style="fill: #9b8bb8; stroke: #9b8bb8; stroke-width: 0.8"/>
      </g>
     </g>
     <g id="text_12">
      <!-- 220 -->
      <g style="fill: #9b8bb8" transform="translate(30.296 239.993708) scale(0.1 -0.1)">
       <use xlink:href="#JetBrainsMono-Regular-32"/>
       <use xlink:href="#JetBrainsMono-Regular-32" transform="translate(59.999985 0)"/>
       <use xlink:href="#JetBrainsMono-Regular-30" transform="translate(119.999969 0)"/>
      </g>
     </g>
    </g>
    <g id="ytick_4">
     <g id="line2d_25">
      <path d="M 55.296 199.520253 
L 546.048 199.520253 
" clip-path="url(#p879458a0a0)" style="fill: none; stroke-dasharray: 2.22,0.96; stroke-dashoffset: 0; stroke: #e2d5f5; stroke-opacity: 0.7; stroke-width: 0.6"/>
     </g>
     <g id="line2d_26">
      <g>
       <use xlink:href="#m4fdc9fc747" x="55.296" y="199.520253" style="fill: #9b8bb8; stroke: #9b8bb8; stroke-width: 0.8"/>
      </g>
     </g>
     <g id="text_13">
      <!-- 230 -->
      <g style="fill: #9b8bb8" transform="translate(30.296 203.170253) scale(0.1 -0.1)">
       <use xlink:href="#JetBrainsMono-Regular-32"/>
       <use xlink:href="#JetBrainsMono-Regular-33" transform="translate(59.999985 0)"/>
       <use xlink:href="#JetBrainsMono-Regular-30" transform="translate(119.999969 0)"/>
      </g>
     </g>
    </g>
    <g id="ytick_5">
     <g id="line2d_27">
      <path d="M 55.296 162.696798 
L 546.048 162.696798 
" clip-path="url(#p879458a0a0)" style="fill: none; stroke-dasharray: 2.22,0.96; stroke-dashoffset: 0; stroke: #e2d5f5; stroke-opacity: 0.7; stroke-width: 0.6"/>
     </g>
     <g id="line2d_28">
      <g>
       <use xlink:href="#m4fdc9fc747" x="55.296" y="162.696798" style="fill: #9b8bb8; stroke: #9b8bb8; stroke-width: 0.8"/>
      </g>
     </g>
     <g id="text_14">
      <!-- 240 -->
      <g style="fill: #9b8bb8" transform="translate(30.296 166.346798) scale(0.1 -0.1)">
       <use xlink:href="#JetBrainsMono-Regular-32"/>
       <use xlink:href="#JetBrainsMono-Regular-34" transform="translate(59.999985 0)"/>
       <use xlink:href="#JetBrainsMono-Regular-30" transform="translate(119.999969 0)"/>
      </g>
     </g>
    </g>
    <g id="ytick_6">
     <g id="line2d_29">
      <path d="M 55.296 125.873343 
L 546.048 125.873343 
" clip-path="url(#p879458a0a0)" style="fill: none; stroke-dasharray: 2.22,0.96; stroke-dashoffset: 0; stroke: #e2d5f5; stroke-opacity: 0.7; stroke-width: 0.6"/>
     </g>
     <g id="line2d_30">
      <g>
       <use xlink:href="#m4fdc9fc747" x="55.296" y="125.873343" style="fill: #9b8bb8; stroke: #9b8bb8; stroke-width: 0.8"/>
      </g>
     </g>
     <g id="text_15">
      <!-- 250 -->
      <g style="fill: #9b8bb8" transform="translate(30.296 129.523343) scale(0.1 -0.1)">
       <use xlink:href="#JetBrainsMono-Regular-32"/>
       <use xlink:href="#JetBrainsMono-Regular-35" transform="translate(59.999985 0)"/>
       <use xlink:href="#JetBrainsMono-Regular-30" transform="translate(119.999969 0)"/>
      </g>
     </g>
    </g>
    <g id="ytick_7">
     <g id="line2d_31">
      <path d="M 55.296 89.049888 
L 546.048 89.049888 
" clip-path="url(#p879458a0a0)" style="fill: none; stroke-dasharray: 2.22,0.96; stroke-dashoffset: 0; stroke: #e2d5f5; stroke-opacity: 0.7; stroke-width: 0.6"/>
     </g>
     <g id="line2d_32">
      <g>
       <use xlink:href="#m4fdc9fc747" x="55.296" y="89.049888" style="fill: #9b8bb8; stroke: #9b8bb8; stroke-width: 0.8"/>
      </g>
     </g>
     <g id="text_16">
      <!-- 260 -->
      <g style="fill: #9b8bb8" transform="translate(30.296 92.699888) scale(0.1 -0.1)">
       <use xlink:href="#JetBrainsMono-Regular-32"/>
       <use xlink:href="#JetBrainsMono-Regular-36" transform="translate(59.999985 0)"/>
       <use xlink:href="#JetBrainsMono-Regular-30" transform="translate(119.999969 0)"/>
      </g>
     </g>
    </g>
    <g id="text_17">
     <!-- Rating -->
     <g style="fill: #9b8bb8" transform="translate(24.496 208.08) rotate(-90) scale(0.1 -0.1)">
      <defs>
       <path id="JetBrainsMono-Regular-52" d="M 595 0 
L 595 4672 
L 2035 4672 
Q 2451 4672 2764 4502 
Q 3078 4333 3251 4032 
Q 3424 3731 3424 3328 
Q 3424 2854 3181 2515 
Q 2938 2176 2534 2042 
L 3488 0 
L 2854 0 
L 1939 1984 
L 1165 1984 
L 1165 0 
L 595 0 
z
M 1165 2502 
L 2035 2502 
Q 2394 2502 2611 2729 
Q 2829 2957 2829 3328 
Q 2829 3706 2611 3930 
Q 2394 4154 2035 4154 
L 1165 4154 
L 1165 2502 
z
" transform="scale(0.015625)"/>
       <path id="JetBrainsMono-Regular-61" d="M 1613 -64 
Q 1069 -64 749 240 
Q 429 544 429 1037 
Q 429 1363 576 1606 
Q 723 1850 985 1987 
Q 1248 2125 1587 2125 
L 2675 2125 
L 2675 2400 
Q 2675 3085 1926 3085 
Q 1594 3085 1389 2963 
Q 1184 2842 1171 2624 
L 595 2624 
Q 627 3040 982 3312 
Q 1338 3584 1926 3584 
Q 2566 3584 2908 3277 
Q 3251 2970 3251 2419 
L 3251 0 
L 2682 0 
L 2682 640 
L 2669 640 
Q 2618 314 2342 125 
Q 2067 -64 1613 -64 
z
M 1754 422 
Q 2176 422 2425 627 
Q 2675 832 2675 1184 
L 2675 1677 
L 1651 1677 
Q 1370 1677 1194 1507 
Q 1018 1338 1018 1056 
Q 1018 762 1213 592 
Q 1408 422 1754 422 
z
" transform="scale(0.015625)"/>
       <path id="JetBrainsMono-Regular-74" d="M 2272 0 
Q 1837 0 1574 253 
Q 1312 506 1312 928 
L 1312 2995 
L 301 2995 
L 301 3520 
L 1312 3520 
L 1312 4512 
L 1888 4512 
L 1888 3520 
L 3328 3520 
L 3328 2995 
L 1888 2995 
L 1888 928 
Q 1888 749 1993 637 
Q 2099 525 2272 525 
L 3296 525 
L 3296 0 
L 2272 0 
z
" transform="scale(0.015625)"/>
       <path id="JetBrainsMono-Regular-69" d="M 544 0 
L 544 525 
L 1792 525 
L 1792 2995 
L 672 2995 
L 672 3520 
L 2368 3520 
L 2368 525 
L 3552 525 
L 3552 0 
L 544 0 
z
M 2016 4154 
Q 1805 4154 1683 4262 
Q 1562 4371 1562 4557 
Q 1562 4749 1683 4861 
Q 1805 4973 2016 4973 
Q 2227 4973 2348 4861 
Q 2470 4749 2470 4557 
Q 2470 4371 2348 4262 
Q 2227 4154 2016 4154 
z
" transform="scale(0.015625)"/>
       <path id="JetBrainsMono-Regular-6e" d="M 589 0 
L 589 3520 
L 1165 3520 
L 1165 2848 
L 1171 2848 
Q 1216 3200 1459 3392 
Q 1702 3584 2106 3584 
Q 2637 3584 2950 3257 
Q 3264 2931 3264 2368 
L 3264 0 
L 2688 0 
L 2688 2266 
Q 2688 2669 2486 2883 
Q 2285 3098 1939 3098 
Q 1581 3098 1373 2874 
Q 1165 2650 1165 2240 
L 1165 0 
L 589 0 
z
" transform="scale(0.015625)"/>
       <path id="JetBrainsMono-Regular-67" d="M 1030 -1152 
L 1030 -627 
L 2022 -627 
Q 2323 -627 2496 -457 
Q 2669 -288 2669 0 
L 2669 320 
L 2682 896 
L 2662 896 
Q 2611 582 2361 412 
Q 2112 243 1734 243 
Q 1190 243 876 588 
Q 563 934 563 1536 
L 563 2278 
Q 563 2880 876 3232 
Q 1190 3584 1734 3584 
Q 2112 3584 2361 3405 
Q 2611 3226 2662 2912 
L 2675 2912 
L 2675 3520 
L 3245 3520 
L 3245 0 
Q 3245 -531 2915 -841 
Q 2586 -1152 2016 -1152 
L 1030 -1152 
z
M 1907 723 
Q 2266 723 2470 947 
Q 2675 1171 2675 1568 
L 2675 2240 
Q 2675 2637 2470 2861 
Q 2266 3085 1907 3085 
Q 1542 3085 1340 2873 
Q 1139 2662 1139 2304 
L 1139 1504 
Q 1139 1146 1340 934 
Q 1542 723 1907 723 
z
" transform="scale(0.015625)"/>
      </defs>
      <use xlink:href="#JetBrainsMono-Regular-52"/>
      <use xlink:href="#JetBrainsMono-Regular-61" transform="translate(59.999985 0)"/>
      <use xlink:href="#JetBrainsMono-Regular-74" transform="translate(119.999969 0)"/>
      <use xlink:href="#JetBrainsMono-Regular-69" transform="translate(179.999954 0)"/>
      <use xlink:href="#JetBrainsMono-Regular-6e" transform="translate(239.999939 0)"/>
      <use xlink:href="#JetBrainsMono-Regular-67" transform="translate(299.999924 0)"/>
     </g>
    </g>
   </g>
   <g id="patch_3">
    <path d="M 55.296 324.72 
L 55.296 55.44 
" style="fill: none; stroke: #d8c8ef; stroke-width: 0.8; stroke-linejoin: miter; stroke-linecap: square"/>
   </g>
   <g id="patch_4">
    <path d="M 55.296 324.72 
L 546.048 324.72 
" style="fill: none; stroke: #d8c8ef; stroke-width: 0.8; stroke-linejoin: miter; stroke-linecap: square"/>
   </g>
   <g id="FillBetweenPolyCollection_1">
    <defs>
     <path id="maaa1926a89" d="M 64.733538 -71.28 
L 64.733538 -89.691727 
L 66.311722 -92.02556 
L 67.889906 -93.748442 
L 69.46809 -94.916116 
L 71.046273 -95.584327 
L 72.624457 -95.808818 
L 74.202641 -95.645333 
L 75.780824 -95.149616 
L 77.359008 -94.377409 
L 78.937192 -93.384458 
L 80.515375 -92.226505 
L 82.093559 -90.959295 
L 83.671743 -89.63857 
L 85.249926 -88.320076 
L 86.82811 -87.059554 
L 88.406294 -85.91275 
L 89.984477 -84.935407 
L 91.562661 -84.183269 
L 93.140845 -83.712078 
L 94.719029 -83.57758 
L 96.297212 -83.835517 
L 97.875396 -84.541634 
L 99.45358 -85.751673 
L 101.031763 -87.52138 
L 102.609947 -89.906483 
L 104.188131 -92.927796 
L 105.766314 -96.496109 
L 107.344498 -100.500595 
L 108.922682 -104.830424 
L 110.500865 -109.374769 
L 112.079049 -114.022801 
L 113.657233 -118.663692 
L 115.235417 -123.186614 
L 116.8136 -127.480739 
L 118.391784 -131.435238 
L 119.969968 -134.939284 
L 121.548151 -137.882102 
L 123.126335 -140.196827 
L 124.704519 -141.939673 
L 126.282702 -143.188258 
L 127.860886 -144.0202 
L 129.43907 -144.513117 
L 131.017253 -144.744627 
L 132.595437 -144.792346 
L 134.173621 -144.733894 
L 135.751804 -144.646888 
L 137.329988 -144.608946 
L 138.908172 -144.697685 
L 140.486356 -144.99065 
L 142.064539 -145.537228 
L 143.642723 -146.316471 
L 145.220907 -147.296627 
L 146.79909 -148.445943 
L 148.377274 -149.732665 
L 149.955458 -151.125041 
L 151.533641 -152.591319 
L 153.111825 -154.099745 
L 154.690009 -155.618567 
L 156.268192 -157.116031 
L 157.846376 -158.560385 
L 159.42456 -159.919934 
L 161.002744 -161.174965 
L 162.580927 -162.332511 
L 164.159111 -163.40322 
L 165.737295 -164.397743 
L 167.315478 -165.326728 
L 168.893662 -166.200826 
L 170.471846 -167.030685 
L 172.050029 -167.826955 
L 173.628213 -168.600286 
L 175.206397 -169.361328 
L 176.78458 -170.120728 
L 178.362764 -170.889178 
L 179.940948 -171.682688 
L 181.519131 -172.527895 
L 183.097315 -173.452698 
L 184.675499 -174.484996 
L 186.253683 -175.652688 
L 187.831866 -176.983672 
L 189.41005 -178.505847 
L 190.988234 -180.247113 
L 192.566417 -182.235367 
L 194.144601 -184.49851 
L 195.722785 -187.064439 
L 197.300968 -189.960693 
L 198.879152 -193.181829 
L 200.457336 -196.663387 
L 202.035519 -200.334782 
L 203.613703 -204.125426 
L 205.191887 -207.964733 
L 206.77007 -211.782118 
L 208.348254 -215.506995 
L 209.926438 -219.068776 
L 211.504622 -222.396875 
L 213.082805 -225.420707 
L 214.660989 -228.069686 
L 216.239173 -230.273941 
L 217.817356 -232.011072 
L 219.39554 -233.334923 
L 220.973724 -234.306221 
L 222.551907 -234.985692 
L 224.130091 -235.434064 
L 225.708275 -235.712061 
L 227.286458 -235.880411 
L 228.864642 -235.999841 
L 230.442826 -236.131077 
L 232.02101 -236.334844 
L 233.599193 -236.671871 
L 235.177377 -237.202176 
L 236.755561 -237.950462 
L 238.333744 -238.890447 
L 239.911928 -239.991871 
L 241.490112 -241.224476 
L 243.068295 -242.558004 
L 244.646479 -243.962195 
L 246.224663 -245.40679 
L 247.802846 -246.861532 
L 249.38103 -248.29616 
L 250.959214 -249.680417 
L 252.537397 -250.984044 
L 254.115581 -252.177334 
L 255.693765 -253.252071 
L 257.271949 -254.227955 
L 258.850132 -255.126549 
L 260.428316 -255.969418 
L 262.0065 -256.778127 
L 263.584683 -257.574241 
L 265.162867 -258.379323 
L 266.741051 -259.214939 
L 268.319234 -260.102653 
L 269.897418 -261.06403 
L 271.475602 -262.120634 
L 273.053785 -263.293479 
L 274.631969 -264.586463 
L 276.210153 -265.983467 
L 277.788337 -267.467236 
L 279.36652 -269.020513 
L 280.944704 -270.626043 
L 282.522888 -272.26657 
L 284.101071 -273.924838 
L 285.679255 -275.583593 
L 287.257439 -277.225577 
L 288.835622 -278.833537 
L 290.413806 -280.390215 
L 291.99199 -281.879073 
L 293.570173 -283.301715 
L 295.148357 -284.678858 
L 296.726541 -286.03213 
L 298.304724 -287.383161 
L 299.882908 -288.753579 
L 301.461092 -290.165013 
L 303.039276 -291.639093 
L 304.617459 -293.197445 
L 306.195643 -294.861701 
L 307.773827 -296.653487 
L 309.35201 -298.594434 
L 310.930194 -300.704645 
L 312.508378 -302.972243 
L 314.086561 -305.354999 
L 315.664745 -307.80948 
L 317.242929 -310.292258 
L 318.821112 -312.759903 
L 320.399296 -315.168982 
L 321.97748 -317.476068 
L 323.555663 -319.637729 
L 325.133847 -321.610535 
L 326.712031 -323.351056 
L 328.290215 -324.815862 
L 329.868398 -325.963843 
L 331.446582 -326.794776 
L 333.024766 -327.343397 
L 334.602949 -327.645566 
L 336.181133 -327.737143 
L 337.759317 -327.653988 
L 339.3375 -327.431962 
L 340.915684 -327.106925 
L 342.493868 -326.714738 
L 344.072051 -326.29126 
L 345.650235 -325.872353 
L 347.228419 -325.493877 
L 348.806603 -325.190054 
L 350.384786 -324.970616 
L 351.96297 -324.82644 
L 353.541154 -324.747915 
L 355.119337 -324.725435 
L 356.697521 -324.749389 
L 358.275705 -324.810169 
L 359.853888 -324.898167 
L 361.432072 -325.003773 
L 363.010256 -325.117379 
L 364.588439 -325.229376 
L 366.166623 -325.330155 
L 367.744807 -325.41064 
L 369.32299 -325.468582 
L 370.901174 -325.506461 
L 372.479358 -325.526852 
L 374.057542 -325.532328 
L 375.635725 -325.525466 
L 377.213909 -325.508838 
L 378.792093 -325.485021 
L 380.370276 -325.456589 
L 381.94846 -325.426116 
L 383.526644 -325.396178 
L 385.104827 -325.369348 
L 386.683011 -325.34803 
L 388.261195 -325.332733 
L 389.839378 -325.322784 
L 391.417562 -325.317493 
L 392.995746 -325.316171 
L 394.57393 -325.318128 
L 396.152113 -325.322674 
L 397.730297 -325.329118 
L 399.308481 -325.336772 
L 400.886664 -325.344944 
L 402.464848 -325.352946 
L 404.043032 -325.360088 
L 405.621215 -325.365733 
L 407.199399 -325.369771 
L 408.777583 -325.372384 
L 410.355766 -325.373755 
L 411.93395 -325.374071 
L 413.512134 -325.373515 
L 415.090317 -325.372273 
L 416.668501 -325.37053 
L 418.246685 -325.36847 
L 419.824869 -325.366278 
L 421.403052 -325.36414 
L 422.981236 -325.362239 
L 424.55942 -325.360745 
L 426.137603 -325.359679 
L 427.715787 -325.358993 
L 429.293971 -325.358638 
L 430.872154 -325.358564 
L 432.450338 -325.358721 
L 434.028522 -325.35906 
L 435.606705 -325.359531 
L 437.184889 -325.360086 
L 438.763073 -325.360673 
L 440.341256 -325.361245 
L 441.91944 -325.36175 
L 443.497624 -325.362146 
L 445.075808 -325.362427 
L 446.653991 -325.362607 
L 448.232175 -325.362699 
L 449.810359 -325.362716 
L 451.388542 -325.362672 
L 452.966726 -325.36258 
L 454.54491 -325.362452 
L 456.123093 -325.362303 
L 457.701277 -325.362145 
L 459.279461 -325.361993 
L 460.857644 -325.361858 
L 462.435828 -325.361753 
L 464.014012 -325.361679 
L 465.592196 -325.361632 
L 467.170379 -325.361608 
L 468.748563 -325.361604 
L 470.326747 -325.361617 
L 471.90493 -325.361642 
L 473.483114 -325.361676 
L 475.061298 -325.361716 
L 476.639481 -325.361759 
L 478.217665 -325.3618 
L 479.795849 -325.361835 
L 481.374032 -325.361863 
L 482.952216 -325.361883 
L 484.5304 -325.361896 
L 486.108583 -325.361902 
L 487.686767 -325.361903 
L 489.264951 -325.3619 
L 490.843135 -325.361893 
L 492.421318 -325.361884 
L 493.999502 -325.361873 
L 495.577686 -325.361861 
L 497.155869 -325.36185 
L 498.734053 -325.36184 
L 500.312237 -325.361832 
L 501.89042 -325.361826 
L 503.468604 -325.361822 
L 505.046788 -325.36182 
L 506.624971 -325.361819 
L 508.203155 -325.361819 
L 509.781339 -325.361821 
L 511.359523 -325.361823 
L 512.937706 -325.361827 
L 514.51589 -325.36183 
L 516.094074 -325.361835 
L 517.672257 -325.361839 
L 519.250441 -325.361843 
L 520.828625 -325.361848 
L 522.406808 -325.361852 
L 523.984992 -325.361855 
L 525.563176 -325.361858 
L 527.141359 -325.361859 
L 528.719543 -325.36186 
L 530.297727 -325.361859 
L 531.87591 -325.361857 
L 533.454094 -325.361853 
L 535.032278 -325.361847 
L 536.610462 -325.361839 
L 536.610462 -71.28 
L 536.610462 -71.28 
L 535.032278 -71.28 
L 533.454094 -71.28 
L 531.87591 -71.28 
L 530.297727 -71.28 
L 528.719543 -71.28 
L 527.141359 -71.28 
L 525.563176 -71.28 
L 523.984992 -71.28 
L 522.406808 -71.28 
L 520.828625 -71.28 
L 519.250441 -71.28 
L 517.672257 -71.28 
L 516.094074 -71.28 
L 514.51589 -71.28 
L 512.937706 -71.28 
L 511.359523 -71.28 
L 509.781339 -71.28 
L 508.203155 -71.28 
L 506.624971 -71.28 
L 505.046788 -71.28 
L 503.468604 -71.28 
L 501.89042 -71.28 
L 500.312237 -71.28 
L 498.734053 -71.28 
L 497.155869 -71.28 
L 495.577686 -71.28 
L 493.999502 -71.28 
L 492.421318 -71.28 
L 490.843135 -71.28 
L 489.264951 -71.28 
L 487.686767 -71.28 
L 486.108583 -71.28 
L 484.5304 -71.28 
L 482.952216 -71.28 
L 481.374032 -71.28 
L 479.795849 -71.28 
L 478.217665 -71.28 
L 476.639481 -71.28 
L 475.061298 -71.28 
L 473.483114 -71.28 
L 471.90493 -71.28 
L 470.326747 -71.28 
L 468.748563 -71.28 
L 467.170379 -71.28 
L 465.592196 -71.28 
L 464.014012 -71.28 
L 462.435828 -71.28 
L 460.857644 -71.28 
L 459.279461 -71.28 
L 457.701277 -71.28 
L 456.123093 -71.28 
L 454.54491 -71.28 
L 452.966726 -71.28 
L 451.388542 -71.28 
L 449.810359 -71.28 
L 448.232175 -71.28 
L 446.653991 -71.28 
L 445.075808 -71.28 
L 443.497624 -71.28 
L 441.91944 -71.28 
L 440.341256 -71.28 
L 438.763073 -71.28 
L 437.184889 -71.28 
L 435.606705 -71.28 
L 434.028522 -71.28 
L 432.450338 -71.28 
L 430.872154 -71.28 
L 429.293971 -71.28 
L 427.715787 -71.28 
L 426.137603 -71.28 
L 424.55942 -71.28 
L 422.981236 -71.28 
L 421.403052 -71.28 
L 419.824869 -71.28 
L 418.246685 -71.28 
L 416.668501 -71.28 
L 415.090317 -71.28 
L 413.512134 -71.28 
L 411.93395 -71.28 
L 410.355766 -71.28 
L 408.777583 -71.28 
L 407.199399 -71.28 
L 405.621215 -71.28 
L 404.043032 -71.28 
L 402.464848 -71.28 
L 400.886664 -71.28 
L 399.308481 -71.28 
L 397.730297 -71.28 
L 396.152113 -71.28 
L 394.57393 -71.28 
L 392.995746 -71.28 
L 391.417562 -71.28 
L 389.839378 -71.28 
L 388.261195 -71.28 
L 386.683011 -71.28 
L 385.104827 -71.28 
L 383.526644 -71.28 
L 381.94846 -71.28 
L 380.370276 -71.28 
L 378.792093 -71.28 
L 377.213909 -71.28 
L 375.635725 -71.28 
L 374.057542 -71.28 
L 372.479358 -71.28 
L 370.901174 -71.28 
L 369.32299 -71.28 
L 367.744807 -71.28 
L 366.166623 -71.28 
L 364.588439 -71.28 
L 363.010256 -71.28 
L 361.432072 -71.28 
L 359.853888 -71.28 
L 358.275705 -71.28 
L 356.697521 -71.28 
L 355.119337 -71.28 
L 353.541154 -71.28 
L 351.96297 -71.28 
L 350.384786 -71.28 
L 348.806603 -71.28 
L 347.228419 -71.28 
L 345.650235 -71.28 
L 344.072051 -71.28 
L 342.493868 -71.28 
L 340.915684 -71.28 
L 339.3375 -71.28 
L 337.759317 -71.28 
L 336.181133 -71.28 
L 334.602949 -71.28 
L 333.024766 -71.28 
L 331.446582 -71.28 
L 329.868398 -71.28 
L 328.290215 -71.28 
L 326.712031 -71.28 
L 325.133847 -71.28 
L 323.555663 -71.28 
L 321.97748 -71.28 
L 320.399296 -71.28 
L 318.821112 -71.28 
L 317.242929 -71.28 
L 315.664745 -71.28 
L 314.086561 -71.28 
L 312.508378 -71.28 
L 310.930194 -71.28 
L 309.35201 -71.28 
L 307.773827 -71.28 
L 306.195643 -71.28 
L 304.617459 -71.28 
L 303.039276 -71.28 
L 301.461092 -71.28 
L 299.882908 -71.28 
L 298.304724 -71.28 
L 296.726541 -71.28 
L 295.148357 -71.28 
L 293.570173 -71.28 
L 291.99199 -71.28 
L 290.413806 -71.28 
L 288.835622 -71.28 
L 287.257439 -71.28 
L 285.679255 -71.28 
L 284.101071 -71.28 
L 282.522888 -71.28 
L 280.944704 -71.28 
L 279.36652 -71.28 
L 277.788337 -71.28 
L 276.210153 -71.28 
L 274.631969 -71.28 
L 273.053785 -71.28 
L 271.475602 -71.28 
L 269.897418 -71.28 
L 268.319234 -71.28 
L 266.741051 -71.28 
L 265.162867 -71.28 
L 263.584683 -71.28 
L 262.0065 -71.28 
L 260.428316 -71.28 
L 258.850132 -71.28 
L 257.271949 -71.28 
L 255.693765 -71.28 
L 254.115581 -71.28 
L 252.537397 -71.28 
L 250.959214 -71.28 
L 249.38103 -71.28 
L 247.802846 -71.28 
L 246.224663 -71.28 
L 244.646479 -71.28 
L 243.068295 -71.28 
L 241.490112 -71.28 
L 239.911928 -71.28 
L 238.333744 -71.28 
L 236.755561 -71.28 
L 235.177377 -71.28 
L 233.599193 -71.28 
L 232.02101 -71.28 
L 230.442826 -71.28 
L 228.864642 -71.28 
L 227.286458 -71.28 
L 225.708275 -71.28 
L 224.130091 -71.28 
L 222.551907 -71.28 
L 220.973724 -71.28 
L 219.39554 -71.28 
L 217.817356 -71.28 
L 216.239173 -71.28 
L 214.660989 -71.28 
L 213.082805 -71.28 
L 211.504622 -71.28 
L 209.926438 -71.28 
L 208.348254 -71.28 
L 206.77007 -71.28 
L 205.191887 -71.28 
L 203.613703 -71.28 
L 202.035519 -71.28 
L 200.457336 -71.28 
L 198.879152 -71.28 
L 197.300968 -71.28 
L 195.722785 -71.28 
L 194.144601 -71.28 
L 192.566417 -71.28 
L 190.988234 -71.28 
L 189.41005 -71.28 
L 187.831866 -71.28 
L 186.253683 -71.28 
L 184.675499 -71.28 
L 183.097315 -71.28 
L 181.519131 -71.28 
L 179.940948 -71.28 
L 178.362764 -71.28 
L 176.78458 -71.28 
L 175.206397 -71.28 
L 173.628213 -71.28 
L 172.050029 -71.28 
L 170.471846 -71.28 
L 168.893662 -71.28 
L 167.315478 -71.28 
L 165.737295 -71.28 
L 164.159111 -71.28 
L 162.580927 -71.28 
L 161.002744 -71.28 
L 159.42456 -71.28 
L 157.846376 -71.28 
L 156.268192 -71.28 
L 154.690009 -71.28 
L 153.111825 -71.28 
L 151.533641 -71.28 
L 149.955458 -71.28 
L 148.377274 -71.28 
L 146.79909 -71.28 
L 145.220907 -71.28 
L 143.642723 -71.28 
L 142.064539 -71.28 
L 140.486356 -71.28 
L 138.908172 -71.28 
L 137.329988 -71.28 
L 135.751804 -71.28 
L 134.173621 -71.28 
L 132.595437 -71.28 
L 131.017253 -71.28 
L 129.43907 -71.28 
L 127.860886 -71.28 
L 126.282702 -71.28 
L 124.704519 -71.28 
L 123.126335 -71.28 
L 121.548151 -71.28 
L 119.969968 -71.28 
L 118.391784 -71.28 
L 116.8136 -71.28 
L 115.235417 -71.28 
L 113.657233 -71.28 
L 112.079049 -71.28 
L 110.500865 -71.28 
L 108.922682 -71.28 
L 107.344498 -71.28 
L 105.766314 -71.28 
L 104.188131 -71.28 
L 102.609947 -71.28 
L 101.031763 -71.28 
L 99.45358 -71.28 
L 97.875396 -71.28 
L 96.297212 -71.28 
L 94.719029 -71.28 
L 93.140845 -71.28 
L 91.562661 -71.28 
L 89.984477 -71.28 
L 88.406294 -71.28 
L 86.82811 -71.28 
L 85.249926 -71.28 
L 83.671743 -71.28 
L 82.093559 -71.28 
L 80.515375 -71.28 
L 78.937192 -71.28 
L 77.359008 -71.28 
L 75.780824 -71.28 
L 74.202641 -71.28 
L 72.624457 -71.28 
L 71.046273 -71.28 
L 69.46809 -71.28 
L 67.889906 -71.28 
L 66.311722 -71.28 
L 64.733538 -71.28 
z
" style="stroke: #8b5cf6; stroke-opacity: 0.12"/>
    </defs>
    <g clip-path="url(#p879458a0a0)">
     <use xlink:href="#maaa1926a89" x="0" y="396" style="fill: #8b5cf6; fill-opacity: 0.12; stroke: #8b5cf6; stroke-opacity: 0.12"/>
    </g>
   </g>
   <g id="text_18">
    <!-- 265 -->
    <g style="fill: #8b5cf6" transform="translate(539.610462 67.638161) scale(0.12 -0.12)">
     <defs>
      <path id="JetBrainsMono-Bold-32" d="M 474 0 
L 474 723 
L 2157 2445 
Q 2566 2874 2566 3315 
Q 2566 3629 2384 3824 
Q 2202 4019 1894 4019 
Q 1581 4019 1392 3817 
Q 1203 3616 1203 3283 
L 403 3283 
Q 403 3718 595 4044 
Q 787 4371 1126 4553 
Q 1466 4736 1914 4736 
Q 2355 4736 2688 4563 
Q 3021 4390 3203 4080 
Q 3386 3770 3386 3354 
Q 3386 2995 3216 2636 
Q 3046 2278 2656 1894 
L 1478 723 
L 3443 723 
L 3443 0 
L 474 0 
z
" transform="scale(0.015625)"/>
      <path id="JetBrainsMono-Bold-36" d="M 1920 -64 
Q 1440 -64 1085 128 
Q 730 320 534 669 
Q 339 1018 339 1485 
Q 339 1760 457 2115 
Q 576 2470 781 2835 
L 1792 4672 
L 2701 4672 
L 1498 2611 
L 1523 2598 
Q 1619 2733 1804 2809 
Q 1990 2886 2208 2886 
Q 2598 2886 2889 2710 
Q 3181 2534 3341 2214 
Q 3501 1894 3501 1459 
Q 3501 998 3305 656 
Q 3110 314 2755 125 
Q 2400 -64 1920 -64 
z
M 1920 614 
Q 2278 614 2496 841 
Q 2714 1069 2714 1446 
Q 2714 1830 2496 2057 
Q 2278 2285 1920 2285 
Q 1562 2285 1344 2057 
Q 1126 1830 1126 1446 
Q 1126 1069 1344 841 
Q 1562 614 1920 614 
z
" transform="scale(0.015625)"/>
      <path id="JetBrainsMono-Bold-35" d="M 1894 -64 
Q 1210 -64 803 297 
Q 397 659 397 1280 
L 1197 1280 
Q 1197 986 1385 810 
Q 1574 634 1901 634 
Q 2227 634 2409 810 
Q 2592 986 2592 1299 
L 2592 1606 
Q 2592 1920 2413 2096 
Q 2234 2272 1907 2272 
L 557 2272 
L 557 4672 
L 3219 4672 
L 3219 3949 
L 1312 3949 
L 1318 2976 
L 1946 2976 
Q 2637 2976 3014 2617 
Q 3392 2259 3392 1606 
L 3392 1299 
Q 3392 666 2992 301 
Q 2592 -64 1894 -64 
z
" transform="scale(0.015625)"/>
     </defs>
     <use xlink:href="#JetBrainsMono-Bold-32"/>
     <use xlink:href="#JetBrainsMono-Bold-36" transform="translate(59.999985 0)"/>
     <use xlink:href="#JetBrainsMono-Bold-35" transform="translate(119.999969 0)"/>
    </g>
   </g>
   <g id="text_19">
    <!-- Rating History -->
    <g style="fill: #8b5cf6" transform="translate(55.296 50.44) scale(0.17 -0.17)">
     <defs>
      <path id="JetBrainsMono-Bold-52" d="M 493 0 
L 493 4672 
L 1965 4672 
Q 2432 4672 2774 4499 
Q 3117 4326 3309 4016 
Q 3501 3706 3501 3283 
Q 3501 2816 3270 2467 
Q 3040 2118 2650 1971 
L 3565 0 
L 2688 0 
L 1869 1856 
L 1286 1856 
L 1286 0 
L 493 0 
z
M 1286 2560 
L 1965 2560 
Q 2304 2560 2496 2745 
Q 2688 2931 2688 3258 
Q 2688 3584 2493 3776 
Q 2298 3968 1965 3968 
L 1286 3968 
L 1286 2560 
z
" transform="scale(0.015625)"/>
      <path id="JetBrainsMono-Bold-61" d="M 1530 -64 
Q 992 -64 681 240 
Q 371 544 371 1037 
Q 371 1549 723 1853 
Q 1075 2157 1690 2157 
L 2547 2157 
L 2547 2406 
Q 2547 2938 1926 2938 
Q 1645 2938 1478 2829 
Q 1312 2720 1293 2522 
L 525 2522 
Q 550 2995 924 3289 
Q 1299 3584 1933 3584 
Q 2605 3584 2976 3270 
Q 3347 2957 3347 2387 
L 3347 0 
L 2566 0 
L 2566 659 
Q 2522 320 2246 128 
Q 1971 -64 1530 -64 
z
M 1786 589 
Q 2138 589 2342 761 
Q 2547 934 2547 1222 
L 2547 1638 
L 1728 1638 
Q 1466 1638 1312 1491 
Q 1158 1344 1158 1114 
Q 1158 877 1321 733 
Q 1485 589 1786 589 
z
" transform="scale(0.015625)"/>
      <path id="JetBrainsMono-Bold-74" d="M 2272 0 
Q 1779 0 1488 285 
Q 1197 570 1197 1056 
L 1197 2797 
L 224 2797 
L 224 3520 
L 1197 3520 
L 1197 4512 
L 2003 4512 
L 2003 3520 
L 3405 3520 
L 3405 2797 
L 2003 2797 
L 2003 1075 
Q 2003 922 2089 822 
Q 2176 723 2330 723 
L 3373 723 
L 3373 0 
L 2272 0 
z
" transform="scale(0.015625)"/>
      <path id="JetBrainsMono-Bold-69" d="M 486 0 
L 486 723 
L 1690 723 
L 1690 2797 
L 614 2797 
L 614 3520 
L 2490 3520 
L 2490 723 
L 3571 723 
L 3571 0 
L 486 0 
z
M 2032 4109 
Q 1789 4109 1648 4233 
Q 1507 4358 1507 4570 
Q 1507 4781 1648 4905 
Q 1789 5030 2032 5030 
Q 2275 5030 2416 4905 
Q 2557 4781 2557 4570 
Q 2557 4358 2416 4233 
Q 2275 4109 2032 4109 
z
" transform="scale(0.015625)"/>
      <path id="JetBrainsMono-Bold-6e" d="M 493 0 
L 493 3520 
L 1274 3520 
L 1274 2861 
Q 1338 3194 1587 3389 
Q 1837 3584 2221 3584 
Q 2739 3584 3049 3238 
Q 3360 2893 3360 2310 
L 3360 0 
L 2560 0 
L 2560 2214 
Q 2560 2541 2390 2717 
Q 2221 2893 1933 2893 
Q 1632 2893 1462 2713 
Q 1293 2534 1293 2202 
L 1293 0 
L 493 0 
z
" transform="scale(0.015625)"/>
      <path id="JetBrainsMono-Bold-67" d="M 973 -1152 
L 973 -486 
L 1965 -486 
Q 2246 -486 2400 -336 
Q 2554 -186 2554 70 
L 2554 282 
L 2566 832 
Q 2458 538 2218 374 
Q 1978 211 1632 211 
Q 1094 211 777 572 
Q 461 934 461 1555 
L 461 2240 
Q 461 2854 777 3219 
Q 1094 3584 1632 3584 
Q 1978 3584 2218 3421 
Q 2458 3258 2566 2957 
L 2566 3520 
L 3347 3520 
L 3347 51 
Q 3347 -506 2979 -829 
Q 2611 -1152 1978 -1152 
L 973 -1152 
z
M 1901 896 
Q 2208 896 2377 1078 
Q 2547 1261 2547 1587 
L 2547 2202 
Q 2547 2528 2377 2710 
Q 2208 2893 1901 2893 
Q 1594 2893 1427 2717 
Q 1261 2541 1261 2227 
L 1261 1562 
Q 1261 1248 1427 1072 
Q 1594 896 1901 896 
z
" transform="scale(0.015625)"/>
      <path id="JetBrainsMono-Bold-20" transform="scale(0.015625)"/>
      <path id="JetBrainsMono-Bold-48" d="M 493 0 
L 493 4672 
L 1293 4672 
L 1293 2778 
L 2547 2778 
L 2547 4672 
L 3347 4672 
L 3347 0 
L 2547 0 
L 2547 2054 
L 1293 2054 
L 1293 0 
L 493 0 
z
" transform="scale(0.015625)"/>
      <path id="JetBrainsMono-Bold-73" d="M 1773 -58 
Q 1146 -58 781 227 
Q 416 512 416 998 
L 1203 998 
Q 1203 794 1353 685 
Q 1504 576 1773 576 
L 2054 576 
Q 2342 576 2499 685 
Q 2656 794 2656 998 
Q 2656 1190 2547 1283 
Q 2438 1376 2214 1408 
L 1338 1523 
Q 915 1581 688 1849 
Q 461 2118 461 2547 
Q 461 3046 793 3312 
Q 1126 3578 1754 3578 
L 2048 3578 
Q 2637 3578 2995 3309 
Q 3354 3040 3366 2592 
L 2573 2592 
Q 2566 2758 2425 2857 
Q 2285 2957 2048 2957 
L 1754 2957 
Q 1498 2957 1363 2851 
Q 1229 2746 1229 2566 
Q 1229 2406 1328 2329 
Q 1427 2253 1619 2234 
L 2445 2118 
Q 2931 2061 3177 1776 
Q 3424 1491 3424 1011 
Q 3424 499 3075 220 
Q 2726 -58 2054 -58 
L 1773 -58 
z
" transform="scale(0.015625)"/>
      <path id="JetBrainsMono-Bold-6f" d="M 1920 -58 
Q 1242 -58 845 323 
Q 448 704 448 1350 
L 448 2170 
Q 448 2822 845 3200 
Q 1242 3578 1920 3578 
Q 2598 3578 2995 3200 
Q 3392 2822 3392 2170 
L 3392 1350 
Q 3392 704 2995 323 
Q 2598 -58 1920 -58 
z
M 1920 640 
Q 2240 640 2416 816 
Q 2592 992 2592 1325 
L 2592 2195 
Q 2592 2528 2416 2704 
Q 2240 2880 1920 2880 
Q 1600 2880 1424 2704 
Q 1248 2528 1248 2195 
L 1248 1325 
Q 1248 992 1424 816 
Q 1600 640 1920 640 
z
" transform="scale(0.015625)"/>
      <path id="JetBrainsMono-Bold-72" d="M 621 0 
L 621 3520 
L 1402 3520 
L 1402 2835 
Q 1466 3181 1718 3382 
Q 1971 3584 2374 3584 
Q 2912 3584 3213 3238 
Q 3514 2893 3514 2272 
L 3514 1939 
L 2714 1939 
L 2714 2234 
Q 2714 2554 2547 2723 
Q 2381 2893 2074 2893 
Q 1754 2893 1587 2701 
Q 1421 2509 1421 2157 
L 1421 0 
L 621 0 
z
" transform="scale(0.015625)"/>
      <path id="JetBrainsMono-Bold-79" d="M 1056 -1152 
L 1555 192 
L 230 3520 
L 1075 3520 
L 1754 1722 
Q 1811 1562 1868 1373 
Q 1926 1184 1952 1024 
Q 1971 1184 2025 1373 
Q 2080 1562 2138 1722 
L 2765 3520 
L 3610 3520 
L 1894 -1152 
L 1056 -1152 
z
" transform="scale(0.015625)"/>
     </defs>
     <use xlink:href="#JetBrainsMono-Bold-52"/>
     <use xlink:href="#JetBrainsMono-Bold-61" transform="translate(59.999985 0)"/>
     <use xlink:href="#JetBrainsMono-Bold-74" transform="translate(119.999969 0)"/>
     <use xlink:href="#JetBrainsMono-Bold-69" transform="translate(179.999954 0)"/>
     <use xlink:href="#JetBrainsMono-Bold-6e" transform="translate(239.999939 0)"/>
     <use xlink:href="#JetBrainsMono-Bold-67" transform="translate(299.999924 0)"/>
     <use xlink:href="#JetBrainsMono-Bold-20" transform="translate(359.999908 0)"/>
     <use xlink:href="#JetBrainsMono-Bold-48" transform="translate(419.999893 0)"/>
     <use xlink:href="#JetBrainsMono-Bold-69" transform="translate(479.999878 0)"/>
     <use xlink:href="#JetBrainsMono-Bold-73" transform="translate(539.999863 0)"/>
     <use xlink:href="#JetBrainsMono-Bold-74" transform="translate(599.999847 0)"/>
     <use xlink:href="#JetBrainsMono-Bold-6f" transform="translate(659.999832 0)"/>
     <use xlink:href="#JetBrainsMono-Bold-72" transform="translate(719.999817 0)"/>
     <use xlink:href="#JetBrainsMono-Bold-79" transform="translate(779.999802 0)"/>
    </g>
   </g>
   <g id="line2d_33">
    <path d="M 64.733538 306.308273 
L 66.311722 303.97444 
L 67.889906 302.251558 
L 69.46809 301.083884 
L 71.046273 300.415673 
L 72.624457 300.191182 
L 74.202641 300.354667 
L 75.780824 300.850384 
L 77.359008 301.622591 
L 78.937192 302.615542 
L 82.093559 305.040705 
L 86.82811 308.940446 
L 88.406294 310.08725 
L 89.984477 311.064593 
L 91.562661 311.816731 
L 93.140845 312.287922 
L 94.719029 312.42242 
L 96.297212 312.164483 
L 97.875396 311.458366 
L 99.45358 310.248327 
L 101.031763 308.47862 
L 102.609947 306.093517 
L 104.188131 303.072204 
L 105.766314 299.503891 
L 107.344498 295.499405 
L 110.500865 286.625231 
L 115.235417 272.813386 
L 116.8136 268.519261 
L 118.391784 264.564762 
L 119.969968 261.060716 
L 121.548151 258.117898 
L 123.126335 255.803173 
L 124.704519 254.060327 
L 126.282702 252.811742 
L 127.860886 251.9798 
L 129.43907 251.486883 
L 131.017253 251.255373 
L 134.173621 251.266106 
L 137.329988 251.391054 
L 138.908172 251.302315 
L 140.486356 251.00935 
L 142.064539 250.462772 
L 143.642723 249.683529 
L 145.220907 248.703373 
L 148.377274 246.267335 
L 151.533641 243.408681 
L 157.846376 237.439615 
L 161.002744 234.825035 
L 164.159111 232.59678 
L 167.315478 230.673272 
L 172.050029 228.173045 
L 181.519131 223.472105 
L 184.675499 221.515004 
L 186.253683 220.347312 
L 187.831866 219.016328 
L 189.41005 217.494153 
L 190.988234 215.752887 
L 192.566417 213.764633 
L 194.144601 211.50149 
L 195.722785 208.935561 
L 197.300968 206.039307 
L 198.879152 202.818171 
L 202.035519 195.665218 
L 209.926438 176.931224 
L 211.504622 173.603125 
L 213.082805 170.579293 
L 214.660989 167.930314 
L 216.239173 165.726059 
L 217.817356 163.988928 
L 219.39554 162.665077 
L 220.973724 161.693779 
L 222.551907 161.014308 
L 224.130091 160.565936 
L 227.286458 160.119589 
L 232.02101 159.665156 
L 233.599193 159.328129 
L 235.177377 158.797824 
L 236.755561 158.049538 
L 238.333744 157.109553 
L 241.490112 154.775524 
L 244.646479 152.037805 
L 250.959214 146.319583 
L 254.115581 143.822666 
L 257.271949 141.772045 
L 260.428316 140.030582 
L 268.319234 135.897347 
L 271.475602 133.879366 
L 274.631969 131.413537 
L 277.788337 128.532764 
L 282.522888 123.73343 
L 288.835622 117.166463 
L 291.99199 114.120927 
L 296.726541 109.96787 
L 301.461092 105.834987 
L 304.617459 102.802555 
L 307.773827 99.346513 
L 310.930194 95.295355 
L 314.086561 90.645001 
L 321.97748 78.523932 
L 323.555663 76.362271 
L 325.133847 74.389465 
L 326.712031 72.648944 
L 328.290215 71.184138 
L 329.868398 70.036157 
L 331.446582 69.205224 
L 333.024766 68.656603 
L 334.602949 68.354434 
L 336.181133 68.262857 
L 337.759317 68.346012 
L 340.915684 68.893075 
L 348.806603 70.809946 
L 351.96297 71.17356 
L 355.119337 71.274565 
L 359.853888 71.101833 
L 369.32299 70.531418 
L 375.635725 70.474534 
L 402.464848 70.647054 
L 427.715787 70.641007 
L 536.610462 70.638161 
L 536.610462 70.638161 
" clip-path="url(#p879458a0a0)" style="fill: none; stroke: #8b5cf6; stroke-width: 1.2; stroke-linecap: round"/>
   </g>
   <g id="PathCollection_1">
    <defs>
     <path id="me257d2be4a" d="M 0 2.236068 
C 0.593012 2.236068 1.161816 2.000462 1.581139 1.581139 
C 2.000462 1.161816 2.236068 0.593012 2.236068 0 
C 2.236068 -0.593012 2.000462 -1.161816 1.581139 -1.581139 
C 1.161816 -2.000462 0.593012 -2.236068 0 -2.236068 
C -0.593012 -2.236068 -1.161816 -2.000462 -1.581139 -1.581139 
C -2.000462 -1.161816 -2.236068 -0.593012 -2.236068 0 
C -2.236068 0.593012 -2.000462 1.161816 -1.581139 1.581139 
C -1.161816 2.000462 -0.593012 2.236068 0 2.236068 
z
" style="stroke: #ffffff; stroke-width: 0.8"/>
    </defs>
    <g clip-path="url(#p879458a0a0)">
     <use xlink:href="#me257d2be4a" x="536.610462" y="70.638161" style="fill: #8b5cf6; stroke: #ffffff; stroke-width: 0.8"/>
    </g>
   </g>
  </g>
  <g id="axes_2">
   <g id="text_20">
    <!-- Rating -->
    <g style="fill: #9b8bb8" transform="translate(565.7472 48.312) scale(0.11 -0.11)">
     <use xlink:href="#JetBrainsMono-Regular-52"/>
     <use xlink:href="#JetBrainsMono-Regular-61" transform="translate(59.999985 0)"/>
     <use xlink:href="#JetBrainsMono-Regular-74" transform="translate(119.999969 0)"/>
     <use xlink:href="#JetBrainsMono-Regular-69" transform="translate(179.999954 0)"/>
     <use xlink:href="#JetBrainsMono-Regular-6e" transform="translate(239.999939 0)"/>
     <use xlink:href="#JetBrainsMono-Regular-67" transform="translate(299.999924 0)"/>
    </g>
   </g>
   <g id="text_21">
    <!-- 265 -->
    <g style="fill: #8b5cf6" transform="translate(565.7472 81.548) scale(0.26 -0.26)">
     <use xlink:href="#JetBrainsMono-Bold-32"/>
     <use xlink:href="#JetBrainsMono-Bold-36" transform="translate(59.999985 0)"/>
     <use xlink:href="#JetBrainsMono-Bold-35" transform="translate(119.999969 0)"/>
    </g>
   </g>
   <g id="text_22">
    <!-- Rank -->
    <g style="fill: #9b8bb8" transform="translate(565.7472 119.592) scale(0.11 -0.11)">
     <defs>
      <path id="JetBrainsMono-Regular-6b" d="M 621 0 
L 621 4672 
L 1197 4672 
L 1197 2067 
L 1869 2067 
L 2854 3520 
L 3514 3520 
L 2381 1843 
L 3578 0 
L 2906 0 
L 1882 1568 
L 1197 1568 
L 1197 0 
L 621 0 
z
" transform="scale(0.015625)"/>
     </defs>
     <use xlink:href="#JetBrainsMono-Regular-52"/>
     <use xlink:href="#JetBrainsMono-Regular-61" transform="translate(59.999985 0)"/>
     <use xlink:href="#JetBrainsMono-Regular-6e" transform="translate(119.999969 0)"/>
     <use xlink:href="#JetBrainsMono-Regular-6b" transform="translate(179.999954 0)"/>
    </g>
   </g>
   <g id="text_23">
    <!-- #118,018 -->
    <g style="fill: #8b5cf6" transform="translate(565.7472 148.104) scale(0.14 -0.14)">
     <defs>
      <path id="JetBrainsMono-Bold-23" d="M 493 0 
L 710 1216 
L 224 1216 
L 224 1760 
L 800 1760 
L 998 2912 
L 448 2912 
L 448 3456 
L 1094 3456 
L 1312 4672 
L 1875 4672 
L 1658 3456 
L 2566 3456 
L 2784 4672 
L 3347 4672 
L 3130 3456 
L 3616 3456 
L 3616 2912 
L 3034 2912 
L 2835 1760 
L 3392 1760 
L 3392 1216 
L 2739 1216 
L 2528 0 
L 1965 0 
L 2182 1216 
L 1267 1216 
L 1056 0 
L 493 0 
z
M 1363 1760 
L 2272 1760 
L 2470 2912 
L 1562 2912 
L 1363 1760 
z
" transform="scale(0.015625)"/>
      <path id="JetBrainsMono-Bold-31" d="M 538 0 
L 538 723 
L 1754 723 
L 1754 3898 
L 531 3002 
L 531 3898 
L 1606 4672 
L 2554 4672 
L 2554 723 
L 3533 723 
L 3533 0 
L 538 0 
z
" transform="scale(0.015625)"/>
      <path id="JetBrainsMono-Bold-38" d="M 1920 -64 
Q 1453 -64 1094 112 
Q 736 288 537 598 
Q 339 909 339 1318 
Q 339 1747 585 2067 
Q 832 2387 1229 2470 
L 1229 2483 
Q 890 2554 682 2829 
Q 474 3104 474 3482 
Q 474 3853 656 4134 
Q 838 4416 1164 4576 
Q 1491 4736 1920 4736 
Q 2349 4736 2678 4576 
Q 3008 4416 3190 4134 
Q 3373 3853 3373 3482 
Q 3373 3104 3161 2829 
Q 2950 2554 2611 2483 
L 2611 2470 
Q 3008 2387 3254 2067 
Q 3501 1747 3501 1318 
Q 3501 909 3302 598 
Q 3104 288 2745 112 
Q 2387 -64 1920 -64 
z
M 1920 2758 
Q 2221 2758 2406 2940 
Q 2592 3123 2592 3411 
Q 2592 3706 2406 3888 
Q 2221 4070 1920 4070 
Q 1619 4070 1433 3888 
Q 1248 3706 1248 3411 
Q 1248 3123 1433 2940 
Q 1619 2758 1920 2758 
z
M 1920 614 
Q 2272 614 2496 819 
Q 2720 1024 2720 1357 
Q 2720 1696 2496 1904 
Q 2272 2112 1920 2112 
Q 1568 2112 1344 1904 
Q 1120 1696 1120 1357 
Q 1120 1024 1344 819 
Q 1568 614 1920 614 
z
" transform="scale(0.015625)"/>
      <path id="JetBrainsMono-Bold-2c" d="M 1216 -1024 
L 1555 934 
L 2470 934 
L 1984 -1024 
L 1216 -1024 
z
" transform="scale(0.015625)"/>
      <path id="JetBrainsMono-Bold-30" d="M 1920 -64 
Q 1466 -64 1133 109 
Q 800 282 617 595 
Q 435 909 435 1331 
L 435 3341 
Q 435 3763 617 4076 
Q 800 4390 1133 4563 
Q 1466 4736 1920 4736 
Q 2374 4736 2707 4563 
Q 3040 4390 3222 4076 
Q 3405 3763 3405 3341 
L 3405 1331 
Q 3405 909 3222 595 
Q 3040 282 2707 109 
Q 2374 -64 1920 -64 
z
M 1920 627 
Q 2253 627 2451 819 
Q 2650 1011 2650 1331 
L 2650 3341 
Q 2650 3661 2454 3853 
Q 2259 4045 1920 4045 
Q 1581 4045 1385 3853 
Q 1190 3661 1190 3341 
L 1190 1331 
Q 1190 1011 1388 819 
Q 1587 627 1920 627 
z
M 1920 1952 
Q 1728 1952 1613 2057 
Q 1498 2163 1498 2355 
Q 1498 2547 1613 2646 
Q 1728 2746 1920 2746 
Q 2112 2746 2227 2646 
Q 2342 2547 2342 2355 
Q 2342 2163 2227 2057 
Q 2112 1952 1920 1952 
z
" transform="scale(0.015625)"/>
     </defs>
     <use xlink:href="#JetBrainsMono-Bold-23"/>
     <use xlink:href="#JetBrainsMono-Bold-31" transform="translate(59.999985 0)"/>
     <use xlink:href="#JetBrainsMono-Bold-31" transform="translate(119.999969 0)"/>
     <use xlink:href="#JetBrainsMono-Bold-38" transform="translate(179.999954 0)"/>
     <use xlink:href="#JetBrainsMono-Bold-2c" transform="translate(239.999939 0)"/>
     <use xlink:href="#JetBrainsMono-Bold-30" transform="translate(299.999924 0)"/>
     <use xlink:href="#JetBrainsMono-Bold-31" transform="translate(359.999908 0)"/>
     <use xlink:href="#JetBrainsMono-Bold-38" transform="translate(419.999893 0)"/>
    </g>
   </g>
   <g id="text_24">
    <!-- ─ 0 -->
    <g style="fill: #9b8bb8" transform="translate(565.7472 169.488) scale(0.11 -0.11)">
     <defs>
      <path id="JetBrainsMono-Bold-2500" d="M -128 2048 
L -128 2688 
L 3968 2688 
L 3968 2048 
L -128 2048 
z
" transform="scale(0.015625)"/>
     </defs>
     <use xlink:href="#JetBrainsMono-Bold-2500"/>
     <use xlink:href="#JetBrainsMono-Bold-20" transform="translate(59.999985 0)"/>
     <use xlink:href="#JetBrainsMono-Bold-30" transform="translate(119.999969 0)"/>
    </g>
   </g>
  </g>
 </g>
 <defs>
  <clipPath id="p879458a0a0">
   <rect x="55.296" y="55.44" width="490.752" height="269.28"/>
  </clipPath>
 </defs>
</svg>
