<?xml version="1.0" encoding="utf-8" standalone="no"?>
<!DOCTYPE svg PUBLIC "-//W3C//DTD SVG 1.1//EN"
  "http://www.w3.org/Graphics/SVG/1.1/DTD/svg11.dtd">
<svg xmlns:xlink="http://www.w3.org/1999/xlink" width="691.2pt" height="396pt" viewBox="0 0 691.2 396" xmlns="http://www.w3.org/2000/svg" version="1.1">
 <metadata>
  <rdf:RDF xmlns:dc="http://purl.org/dc/elements/1.1/" xmlns:cc="http://creativecommons.org/ns#" xmlns:rdf="http://www.w3.org/1999/02/22-rdf-syntax-ns#">
   <cc:Work>
    <dc:type rdf:resource="http://purl.org/dc/dcmitype/StillImage"/>
    <dc:date>2026-04-09T15:29:54.665349</dc:date>
    <dc:format>image/svg+xml</dc:format>
    <dc:creator>
     <cc:Agent>
      <dc:title>Matplotlib v3.10.8, https://matplotlib.org/</dc:title>
     </cc:Agent>
    </dc:creator>
   </cc:Work>
  </rdf:RDF>
 </metadata>
 <defs>
  <style type="text/css">*{stroke-linejoin: round; stroke-linecap: butt}</style>
 </defs>
 <g id="figure_1">
  <g id="patch_1">
   <path d="M 0 396 
L 691.2 396 
L 691.2 0 
L 0 0 
L 0 396 
z
" style="fill: none"/>
  </g>
  <g id="axes_1">
   <g id="patch_2">
    <path d="M 55.296 324.72 
L 546.048 324.72 
L 546.048 55.44 
L 55.296 55.44 
L 55.296 324.72 
z
" style="fill: none"/>
   </g>
   <g id="matplotlib.axis_1">
    <g id="xtick_1">
     <g id="line2d_1">
      <path d="M 79.8336 324.72 
L 79.8336 55.44 
" clip-path="url(#pe3815803f1)" style="fill: none; stroke-dasharray: 2.22,0.96; stroke-dashoffset: 0; stroke: #e2d5f5; stroke-opacity: 0.7; stroke-width: 0.6"/>
     </g>
     <g id="line2d_2">
      <defs>
       <path id="m01f9aa120d" d="M 0 0 
L 0 3.5 
" style="stroke: #9b8bb8; stroke-width: 0.8"/>
      </defs>
      <g>
       <use xlink:href="#m01f9aa120d" x="79.8336" y="324.72" style="fill: #9b8bb8; stroke: #9b8bb8; stroke-width: 0.8"/>
      </g>
     </g>
     <g id="text_1">
      <!-- 03/31 -->
      <g style="fill: #9b8bb8" transform="translate(68.293219 353.301793) rotate(-30) scale(0.1 -0.1)">
       <defs>
        <path id="JetBrainsMono-Regular-30" d="M 1920 -64 
Q 1274 -64 893 310 
Q 512 685 512 1312 
L 512 3360 
Q 512 3987 893 4361 
Q 1274 4736 1920 4736 
Q 2566 4736 2947 4361 
Q 3328 3987 3328 3360 
L 3328 1312 
Q 3328 896 3155 585 
Q 2982 275 2665 105 
Q 2349 -64 1920 -64 
z
M 1920 429 
Q 2304 429 2537 675 
Q 2771 922 2771 1312 
L 2771 3360 
Q 2771 3750 2537 3996 
Q 2304 4243 1920 4243 
Q 1536 4243 1302 3996 
Q 1069 3750 1069 3360 
L 1069 1312 
Q 1069 922 1302 675 
Q 1536 429 1920 429 
z
M 1920 1984 
Q 1747 1984 1641 2080 
Q 1536 2176 1536 2355 
Q 1536 2528 1641 2621 
Q 1747 2714 1920 2714 
Q 2093 2714 2198 2621 
Q 2304 2528 2304 2355 
Q 2304 2176 2198 2080 
Q 2093 1984 1920 1984 
z
" transform="scale(0.015625)"/>
        <path id="JetBrainsMono-Regular-33" d="M 1850 -64 
Q 1203 -64 825 297 
Q 448 659 448 1280 
L 1024 1280 
Q 1024 896 1248 672 
Q 1472 448 1856 448 
Q 2240 448 2464 672 
Q 2688 896 2688 1280 
L 2688 1600 
Q 2688 1984 2464 2208 
Q 2240 2432 1856 2432 
L 1350 2432 
L 1350 2931 
L 2496 4147 
L 576 4147 
L 576 4672 
L 3149 4672 
L 3149 4134 
L 2022 2938 
Q 2598 2893 2931 2537 
Q 3264 2182 3264 1600 
L 3264 1280 
Q 3264 659 2883 297 
Q 2502 -64 1850 -64 
z
" transform="scale(0.015625)"/>
        <path id="JetBrainsMono-Regular-2f" d="M 480 -704 
L 2752 5312 
L 3360 5312 
L 1088 -704 
L 480 -704 
z
" transform="scale(0.015625)"/>
        <path id="JetBrainsMono-Regular-31" d="M 576 0 
L 576 525 
L 1843 525 
L 1843 4173 
L 576 3226 
L 576 3885 
L 1632 4672 
L 2419 4672 
L 2419 525 
L 3456 525 
L 3456 0 
L 576 0 
z
" transform="scale(0.015625)"/>
       </defs>
       <use xlink:href="#JetBrainsMono-Regular-30"/>
       <use xlink:href="#JetBrainsMono-Regular-33" transform="translate(59.999985 0)"/>
       <use xlink:href="#JetBrainsMono-Regular-2f" transform="translate(119.999969 0)"/>
       <use xlink:href="#JetBrainsMono-Regular-33" transform="translate(179.999954 0)"/>
       <use xlink:href="#JetBrainsMono-Regular-31" transform="translate(239.999939 0)"/>
      </g>
     </g>
    </g>
    <g id="xtick_2">
     <g id="line2d_3">
      <path d="M 128.9088 324.72 
L 128.9088 55.44 
" clip-path="url(#pe3815803f1)" style="fill: none; stroke-dasharray: 2.22,0.96; stroke-dashoffset: 0; stroke: #e2d5f5; stroke-opacity: 0.7; stroke-width: 0.6"/>
     </g>
     <g id="line2d_4">
      <g>
       <use xlink:href="#m01f9aa120d" x="128.9088" y="324.72" style="fill: #9b8bb8; stroke: #9b8bb8; stroke-width: 0.8"/>
      </g>
     </g>
     <g id="text_2">
      <!-- 04/01 -->
      <g style="fill: #9b8bb8" transform="translate(117.368419 353.301793) rotate(-30) scale(0.1 -0.1)">
       <defs>
        <path id="JetBrainsMono-Regular-34" d="M 2560 0 
L 2560 1024 
L 448 1024 
L 448 1926 
L 2150 4672 
L 2803 4672 
L 1024 1798 
L 1024 1549 
L 2560 1549 
L 2560 2688 
L 3136 2688 
L 3136 0 
L 2560 0 
z
" transform="scale(0.015625)"/>
       </defs>
       <use xlink:href="#JetBrainsMono-Regular-30"/>
       <use xlink:href="#JetBrainsMono-Regular-34" transform="translate(59.999985 0)"/>
       <use xlink:href="#JetBrainsMono-Regular-2f" transform="translate(119.999969 0)"/>
       <use xlink:href="#JetBrainsMono-Regular-30" transform="translate(179.999954 0)"/>
       <use xlink:href="#JetBrainsMono-Regular-31" transform="translate(239.999939 0)"/>
      </g>
     </g>
    </g>
    <g id="xtick_3">
     <g id="line2d_5">
      <path d="M 177.984 324.72 
L 177.984 55.44 
" clip-path="url(#pe3815803f1)" style="fill: none; stroke-dasharray: 2.22,0.96; stroke-dashoffset: 0; stroke: #e2d5f5; stroke-opacity: 0.7; stroke-width: 0.6"/>
     </g>
     <g id="line2d_6">
      <g>
       <use xlink:href="#m01f9aa120d" x="177.984" y="324.72" style="fill: #9b8bb8; stroke: #9b8bb8; stroke-width: 0.8"/>
      </g>
     </g>
     <g id="text_3">
      <!-- 04/02 -->
      <g style="fill: #9b8bb8" transform="translate(166.443619 353.301793) rotate(-30) scale(0.1 -0.1)">
       <defs>
        <path id="JetBrainsMono-Regular-32" d="M 550 0 
L 550 531 
L 2106 2195 
Q 2445 2554 2585 2835 
Q 2726 3117 2726 3386 
Q 2726 3770 2505 3997 
Q 2285 4224 1907 4224 
Q 1517 4224 1289 3990 
Q 1062 3757 1062 3360 
L 486 3360 
Q 506 3994 890 4365 
Q 1274 4736 1907 4736 
Q 2554 4736 2934 4371 
Q 3315 4006 3315 3379 
Q 3315 3046 3132 2675 
Q 2950 2304 2509 1843 
L 1248 525 
L 3373 525 
L 3373 0 
L 550 0 
z
" transform="scale(0.015625)"/>
       </defs>
       <use xlink:href="#JetBrainsMono-Regular-30"/>
       <use xlink:href="#JetBrainsMono-Regular-34" transform="translate(59.999985 0)"/>
       <use xlink:href="#JetBrainsMono-Regular-2f" transform="translate(119.999969 0)"/>
       <use xlink:href="#JetBrainsMono-Regular-30" transform="translate(179.999954 0)"/>
       <use xlink:href="#JetBrainsMono-Regular-32" transform="translate(239.999939 0)"/>
      </g>
     </g>
    </g>
    <g id="xtick_4">
     <g id="line2d_7">
      <path d="M 227.0592 324.72 
L 227.0592 55.44 
" clip-path="url(#pe3815803f1)" style="fill: none; stroke-dasharray: 2.22,0.96; stroke-dashoffset: 0; stroke: #e2d5f5; stroke-opacity: 0.7; stroke-width: 0.6"/>
     </g>
     <g id="line2d_8">
      <g>
       <use xlink:href="#m01f9aa120d" x="227.0592" y="324.72" style="fill: #9b8bb8; stroke: #9b8bb8; stroke-width: 0.8"/>
      </g>
     </g>
     <g id="text_4">
      <!-- 04/03 -->
      <g style="fill: #9b8bb8" transform="translate(215.518819 353.301793) rotate(-30) scale(0.1 -0.1)">
       <use xlink:href="#JetBrainsMono-Regular-30"/>
       <use xlink:href="#JetBrainsMono-Regular-34" transform="translate(59.999985 0)"/>
       <use xlink:href="#JetBrainsMono-Regular-2f" transform="translate(119.999969 0)"/>
       <use xlink:href="#JetBrainsMono-Regular-30" transform="translate(179.999954 0)"/>
       <use xlink:href="#JetBrainsMono-Regular-33" transform="translate(239.999939 0)"/>
      </g>
     </g>
    </g>
    <g id="xtick_5">
     <g id="line2d_9">
      <path d="M 276.1344 324.72 
L 276.1344 55.44 
" clip-path="url(#pe3815803f1)" style="fill: none; stroke-dasharray: 2.22,0.96; stroke-dashoffset: 0; stroke: #e2d5f5; stroke-opacity: 0.7; stroke-width: 0.6"/>
     </g>
     <g id="line2d_10">
      <g>
       <use xlink:href="#m01f9aa120d" x="276.1344" y="324.72" style="fill: #9b8bb8; stroke: #9b8bb8; stroke-width: 0.8"/>
      </g>
     </g>
     <g id="text_5">
      <!-- 04/04 -->
      <g style="fill: #9b8bb8" transform="translate(264.594019 353.301793) rotate(-30) scale(0.1 -0.1)">
       <use xlink:href="#JetBrainsMono-Regular-30"/>
       <use xlink:href="#JetBrainsMono-Regular-34" transform="translate(59.999985 0)"/>
       <use xlink:href="#JetBrainsMono-Regular-2f" transform="translate(119.999969 0)"/>
       <use xlink:href="#JetBrainsMono-Regular-30" transform="translate(179.999954 0)"/>
       <use xlink:href="#JetBrainsMono-Regular-34" transform="translate(239.999939 0)"/>
      </g>
     </g>
    </g>
    <g id="xtick_6">
     <g id="line2d_11">
      <path d="M 325.2096 324.72 
L 325.2096 55.44 
" clip-path="url(#pe3815803f1)" style="fill: none; stroke-dasharray: 2.22,0.96; stroke-dashoffset: 0; stroke: #e2d5f5; stroke-opacity: 0.7; stroke-width: 0.6"/>
     </g>
     <g id="line2d_12">
      <g>
       <use xlink:href="#m01f9aa120d" x="325.2096" y="324.72" style="fill: #9b8bb8; stroke: #9b8bb8; stroke-width: 0.8"/>
      </g>
     </g>
     <g id="text_6">
      <!-- 04/05 -->
      <g style="fill: #9b8bb8" transform="translate(313.669219 353.301793) rotate(-30) scale(0.1 -0.1)">
       <defs>
        <path id="JetBrainsMono-Regular-35" d="M 1882 -64 
Q 1235 -64 857 297 
Q 480 659 480 1280 
L 1056 1280 
Q 1056 896 1280 672 
Q 1504 448 1888 448 
Q 2272 448 2496 672 
Q 2720 896 2720 1280 
L 2720 1568 
Q 2720 1952 2502 2176 
Q 2285 2400 1914 2400 
L 640 2400 
L 640 4672 
L 3130 4672 
L 3130 4147 
L 1178 4147 
L 1190 2925 
L 1946 2925 
Q 2592 2925 2944 2569 
Q 3296 2214 3296 1568 
L 3296 1280 
Q 3296 659 2915 297 
Q 2534 -64 1882 -64 
z
" transform="scale(0.015625)"/>
       </defs>
       <use xlink:href="#JetBrainsMono-Regular-30"/>
       <use xlink:href="#JetBrainsMono-Regular-34" transform="translate(59.999985 0)"/>
       <use xlink:href="#JetBrainsMono-Regular-2f" transform="translate(119.999969 0)"/>
       <use xlink:href="#JetBrainsMono-Regular-30" transform="translate(179.999954 0)"/>
       <use xlink:href="#JetBrainsMono-Regular-35" transform="translate(239.999939 0)"/>
      </g>
     </g>
    </g>
    <g id="xtick_7">
     <g id="line2d_13">
      <path d="M 374.2848 324.72 
L 374.2848 55.44 
" clip-path="url(#pe3815803f1)" style="fill: none; stroke-dasharray: 2.22,0.96; stroke-dashoffset: 0; stroke: #e2d5f5; stroke-opacity: 0.7; stroke-width: 0.6"/>
     </g>
     <g id="line2d_14">
      <g>
       <use xlink:href="#m01f9aa120d" x="374.2848" y="324.72" style="fill: #9b8bb8; stroke: #9b8bb8; stroke-width: 0.8"/>
      </g>
     </g>
     <g id="text_7">
      <!-- 04/06 -->
      <g style="fill: #9b8bb8" transform="translate(362.744419 353.301793) rotate(-30) scale(0.1 -0.1)">
       <defs>
        <path id="JetBrainsMono-Regular-36" d="M 1926 -64 
Q 1478 -64 1136 125 
Q 794 314 602 650 
Q 410 986 410 1427 
Q 410 1734 525 2057 
Q 640 2381 838 2733 
L 1920 4672 
L 2560 4672 
L 1408 2669 
L 1427 2656 
Q 1510 2765 1676 2822 
Q 1843 2880 2042 2880 
Q 2458 2880 2768 2697 
Q 3078 2515 3254 2195 
Q 3430 1875 3430 1453 
Q 3430 1005 3238 662 
Q 3046 320 2710 128 
Q 2374 -64 1926 -64 
z
M 1920 448 
Q 2336 448 2595 723 
Q 2854 998 2854 1440 
Q 2854 1882 2595 2157 
Q 2336 2432 1920 2432 
Q 1504 2432 1245 2157 
Q 986 1882 986 1440 
Q 986 998 1245 723 
Q 1504 448 1920 448 
z
" transform="scale(0.015625)"/>
       </defs>
       <use xlink:href="#JetBrainsMono-Regular-30"/>
       <use xlink:href="#JetBrainsMono-Regular-34" transform="translate(59.999985 0)"/>
       <use xlink:href="#JetBrainsMono-Regular-2f" transform="translate(119.999969 0)"/>
       <use xlink:href="#JetBrainsMono-Regular-30" transform="translate(179.999954 0)"/>
       <use xlink:href="#JetBrainsMono-Regular-36" transform="translate(239.999939 0)"/>
      </g>
     </g>
    </g>
    <g id="xtick_8">
     <g id="line2d_15">
      <path d="M 423.36 324.72 
L 423.36 55.44 
" clip-path="url(#pe3815803f1)" style="fill: none; stroke-dasharray: 2.22,0.96; stroke-dashoffset: 0; stroke: #e2d5f5; stroke-opacity: 0.7; stroke-width: 0.6"/>
     </g>
     <g id="line2d_16">
      <g>
       <use xlink:href="#m01f9aa120d" x="423.36" y="324.72" style="fill: #9b8bb8; stroke: #9b8bb8; stroke-width: 0.8"/>
      </g>
     </g>
     <g id="text_8">
      <!-- 04/07 -->
      <g style="fill: #9b8bb8" transform="translate(411.819619 353.301793) rotate(-30) scale(0.1 -0.1)">
       <defs>
        <path id="JetBrainsMono-Regular-37" d="M 1216 0 
L 2880 4147 
L 1101 4147 
L 1101 3392 
L 525 3392 
L 525 4672 
L 3494 4672 
L 3494 4134 
L 1843 0 
L 1216 0 
z
" transform="scale(0.015625)"/>
       </defs>
       <use xlink:href="#JetBrainsMono-Regular-30"/>
       <use xlink:href="#JetBrainsMono-Regular-34" transform="translate(59.999985 0)"/>
       <use xlink:href="#JetBrainsMono-Regular-2f" transform="translate(119.999969 0)"/>
       <use xlink:href="#JetBrainsMono-Regular-30" transform="translate(179.999954 0)"/>
       <use xlink:href="#JetBrainsMono-Regular-37" transform="translate(239.999939 0)"/>
      </g>
     </g>
    </g>
    <g id="xtick_9">
     <g id="line2d_17">
      <path d="M 472.4352 324.72 
L 472.4352 55.44 
" clip-path="url(#pe3815803f1)" style="fill: none; stroke-dasharray: 2.22,0.96; stroke-dashoffset: 0; stroke: #e2d5f5; stroke-opacity: 0.7; stroke-width: 0.6"/>
     </g>
     <g id="line2d_18">
      <g>
       <use xlink:href="#m01f9aa120d" x="472.4352" y="324.72" style="fill: #9b8bb8; stroke: #9b8bb8; stroke-width: 0.8"/>
      </g>
     </g>
     <g id="text_9">
      <!-- 04/08 -->
      <g style="fill: #9b8bb8" transform="translate(460.894819 353.301793) rotate(-30) scale(0.1 -0.1)">
       <defs>
        <path id="JetBrainsMono-Regular-38" d="M 1920 -64 
Q 1478 -64 1139 109 
Q 800 282 611 592 
Q 422 902 422 1306 
Q 422 1747 675 2067 
Q 928 2387 1350 2458 
L 1350 2477 
Q 986 2560 768 2845 
Q 550 3130 550 3501 
Q 550 3866 723 4144 
Q 896 4422 1206 4579 
Q 1517 4736 1920 4736 
Q 2330 4736 2637 4579 
Q 2944 4422 3117 4144 
Q 3290 3866 3290 3501 
Q 3290 3130 3072 2845 
Q 2854 2560 2490 2477 
L 2490 2458 
Q 2912 2387 3165 2067 
Q 3418 1747 3418 1306 
Q 3418 902 3229 592 
Q 3040 282 2704 109 
Q 2368 -64 1920 -64 
z
M 1920 2701 
Q 2278 2701 2496 2912 
Q 2714 3123 2714 3462 
Q 2714 3802 2496 4013 
Q 2278 4224 1920 4224 
Q 1568 4224 1347 4013 
Q 1126 3802 1126 3462 
Q 1126 3123 1347 2912 
Q 1568 2701 1920 2701 
z
M 1920 454 
Q 2330 454 2586 694 
Q 2842 934 2842 1318 
Q 2842 1709 2586 1949 
Q 2330 2189 1920 2189 
Q 1510 2189 1254 1949 
Q 998 1709 998 1318 
Q 998 934 1254 694 
Q 1510 454 1920 454 
z
" transform="scale(0.015625)"/>
       </defs>
       <use xlink:href="#JetBrainsMono-Regular-30"/>
       <use xlink:href="#JetBrainsMono-Regular-34" transform="translate(59.999985 0)"/>
       <use xlink:href="#JetBrainsMono-Regular-2f" transform="translate(119.999969 0)"/>
       <use xlink:href="#JetBrainsMono-Regular-30" transform="translate(179.999954 0)"/>
       <use xlink:href="#JetBrainsMono-Regular-38" transform="translate(239.999939 0)"/>
      </g>
     </g>
    </g>
    <g id="xtick_10">
     <g id="line2d_19">
      <path d="M 521.5104 324.72 
L 521.5104 55.44 
" clip-path="url(#pe3815803f1)" style="fill: none; stroke-dasharray: 2.22,0.96; stroke-dashoffset: 0; stroke: #e2d5f5; stroke-opacity: 0.7; stroke-width: 0.6"/>
     </g>
     <g id="line2d_20">
      <g>
       <use xlink:href="#m01f9aa120d" x="521.5104" y="324.72" style="fill: #9b8bb8; stroke: #9b8bb8; stroke-width: 0.8"/>
      </g>
     </g>
     <g id="text_10">
      <!-- 04/09 -->
      <g style="fill: #9b8bb8" transform="translate(509.970019 353.301793) rotate(-30) scale(0.1 -0.1)">
       <defs>
        <path id="JetBrainsMono-Regular-39" d="M 1248 0 
L 2400 2003 
L 2381 2016 
Q 2317 1914 2144 1853 
Q 1971 1792 1766 1792 
Q 1363 1792 1059 1974 
Q 755 2157 582 2477 
Q 410 2797 410 3219 
Q 410 3674 602 4013 
Q 794 4352 1133 4544 
Q 1472 4736 1914 4736 
Q 2368 4736 2707 4547 
Q 3046 4358 3238 4022 
Q 3430 3686 3430 3245 
Q 3430 2938 3315 2614 
Q 3200 2291 3002 1939 
L 1920 0 
L 1248 0 
z
M 1920 2240 
Q 2336 2240 2595 2515 
Q 2854 2790 2854 3232 
Q 2854 3674 2595 3949 
Q 2336 4224 1920 4224 
Q 1504 4224 1245 3949 
Q 986 3674 986 3232 
Q 986 2790 1245 2515 
Q 1504 2240 1920 2240 
z
" transform="scale(0.015625)"/>
       </defs>
       <use xlink:href="#JetBrainsMono-Regular-30"/>
       <use xlink:href="#JetBrainsMono-Regular-34" transform="translate(59.999985 0)"/>
       <use xlink:href="#JetBrainsMono-Regular-2f" transform="translate(119.999969 0)"/>
       <use xlink:href="#JetBrainsMono-Regular-30" transform="translate(179.999954 0)"/>
       <use xlink:href="#JetBrainsMono-Regular-39" transform="translate(239.999939 0)"/>
      </g>
     </g>
    </g>
   </g>
   <g id="matplotlib.axis_2">
    <g id="ytick_1">
     <g id="line2d_21">
      <path d="M 55.296 302.692386 
L 546.048 302.692386 
" clip-path="url(#pe3815803f1)" style="fill: none; stroke-dasharray: 2.22,0.96; stroke-dashoffset: 0; stroke: #e2d5f5; stroke-opacity: 0.7; stroke-width: 0.6"/>
     </g>
     <g id="line2d_22">
      <defs>
       <path id="m16ba6c3975" d="M 0 0 
L -3.5 0 
" style="stroke: #9b8bb8; stroke-width: 0.8"/>
      </defs>
      <g>
       <use xlink:href="#m16ba6c3975" x="55.296" y="302.692386" style="fill: #9b8bb8; stroke: #9b8bb8; stroke-width: 0.8"/>
      </g>
     </g>
     <g id="text_11">
      <!-- 200 -->
      <g style="fill: #9b8bb8" transform="translate(30.296 306.342386) scale(0.1 -0.1)">
       <use xlink:href="#JetBrainsMono-Regular-32"/>
       <use xlink:href="#JetBrainsMono-Regular-30" transform="translate(59.999985 0)"/>
       <use xlink:href="#JetBrainsMono-Regular-30" transform="translate(119.999969 0)"/>
      </g>
     </g>
    </g>
    <g id="ytick_2">
     <g id="line2d_23">
      <path d="M 55.296 247.623352 
L 546.048 247.623352 
" clip-path="url(#pe3815803f1)" style="fill: none; stroke-dasharray: 2.22,0.96; stroke-dashoffset: 0; stroke: #e2d5f5; stroke-opacity: 0.7; stroke-width: 0.6"/>
     </g>
     <g id="line2d_24">
      <g>
       <use xlink:href="#m16ba6c3975" x="55.296" y="247.623352" style="fill: #9b8bb8; stroke: #9b8bb8; stroke-width: 0.8"/>
      </g>
     </g>
     <g id="text_12">
      <!-- 210 -->
      <g style="fill: #9b8bb8" transform="translate(30.296 251.273352) scale(0.1 -0.1)">
       <use xlink:href="#JetBrainsMono-Regular-32"/>
       <use xlink:href="#JetBrainsMono-Regular-31" transform="translate(59.999985 0)"/>
       <use xlink:href="#JetBrainsMono-Regular-30" transform="translate(119.999969 0)"/>
      </g>
     </g>
    </g>
    <g id="ytick_3">
     <g id="line2d_25">
      <path d="M 55.296 192.554318 
L 546.048 192.554318 
" clip-path="url(#pe3815803f1)" style="fill: none; stroke-dasharray: 2.22,0.96; stroke-dashoffset: 0; stroke: #e2d5f5; stroke-opacity: 0.7; stroke-width: 0.6"/>
     </g>
     <g id="line2d_26">
      <g>
       <use xlink:href="#m16ba6c3975" x="55.296" y="192.554318" style="fill: #9b8bb8; stroke: #9b8bb8; stroke-width: 0.8"/>
      </g>
     </g>
     <g id="text_13">
      <!-- 220 -->
      <g style="fill: #9b8bb8" transform="translate(30.296 196.204318) scale(0.1 -0.1)">
       <use xlink:href="#JetBrainsMono-Regular-32"/>
       <use xlink:href="#JetBrainsMono-Regular-32" transform="translate(59.999985 0)"/>
       <use xlink:href="#JetBrainsMono-Regular-30" transform="translate(119.999969 0)"/>
      </g>
     </g>
    </g>
    <g id="ytick_4">
     <g id="line2d_27">
      <path d="M 55.296 137.485284 
L 546.048 137.485284 
" clip-path="url(#pe3815803f1)" style="fill: none; stroke-dasharray: 2.22,0.96; stroke-dashoffset: 0; stroke: #e2d5f5; stroke-opacity: 0.7; stroke-width: 0.6"/>
     </g>
     <g id="line2d_28">
      <g>
       <use xlink:href="#m16ba6c3975" x="55.296" y="137.485284" style="fill: #9b8bb8; stroke: #9b8bb8; stroke-width: 0.8"/>
      </g>
     </g>
     <g id="text_14">
      <!-- 230 -->
      <g style="fill: #9b8bb8" transform="translate(30.296 141.135284) scale(0.1 -0.1)">
       <use xlink:href="#JetBrainsMono-Regular-32"/>
       <use xlink:href="#JetBrainsMono-Regular-33" transform="translate(59.999985 0)"/>
       <use xlink:href="#JetBrainsMono-Regular-30" transform="translate(119.999969 0)"/>
      </g>
     </g>
    </g>
    <g id="ytick_5">
     <g id="line2d_29">
      <path d="M 55.296 82.416249 
L 546.048 82.416249 
" clip-path="url(#pe3815803f1)" style="fill: none; stroke-dasharray: 2.22,0.96; stroke-dashoffset: 0; stroke: #e2d5f5; stroke-opacity: 0.7; stroke-width: 0.6"/>
     </g>
     <g id="line2d_30">
      <g>
       <use xlink:href="#m16ba6c3975" x="55.296" y="82.416249" style="fill: #9b8bb8; stroke: #9b8bb8; stroke-width: 0.8"/>
      </g>
     </g>
     <g id="text_15">
      <!-- 240 -->
      <g style="fill: #9b8bb8" transform="translate(30.296 86.066249) scale(0.1 -0.1)">
       <use xlink:href="#JetBrainsMono-Regular-32"/>
       <use xlink:href="#JetBrainsMono-Regular-34" transform="translate(59.999985 0)"/>
       <use xlink:href="#JetBrainsMono-Regular-30" transform="translate(119.999969 0)"/>
      </g>
     </g>
    </g>
    <g id="text_16">
     <!-- Rating -->
     <g style="fill: #9b8bb8" transform="translate(24.496 208.08) rotate(-90) scale(0.1 -0.1)">
      <defs>
       <path id="JetBrainsMono-Regular-52" d="M 595 0 
L 595 4672 
L 2035 4672 
Q 2451 4672 2764 4502 
Q 3078 4333 3251 4032 
Q 3424 3731 3424 3328 
Q 3424 2854 3181 2515 
Q 2938 2176 2534 2042 
L 3488 0 
L 2854 0 
L 1939 1984 
L 1165 1984 
L 1165 0 
L 595 0 
z
M 1165 2502 
L 2035 2502 
Q 2394 2502 2611 2729 
Q 2829 2957 2829 3328 
Q 2829 3706 2611 3930 
Q 2394 4154 2035 4154 
L 1165 4154 
L 1165 2502 
z
" transform="scale(0.015625)"/>
       <path id="JetBrainsMono-Regular-61" d="M 1613 -64 
Q 1069 -64 749 240 
Q 429 544 429 1037 
Q 429 1363 576 1606 
Q 723 1850 985 1987 
Q 1248 2125 1587 2125 
L 2675 2125 
L 2675 2400 
Q 2675 3085 1926 3085 
Q 1594 3085 1389 2963 
Q 1184 2842 1171 2624 
L 595 2624 
Q 627 3040 982 3312 
Q 1338 3584 1926 3584 
Q 2566 3584 2908 3277 
Q 3251 2970 3251 2419 
L 3251 0 
L 2682 0 
L 2682 640 
L 2669 640 
Q 2618 314 2342 125 
Q 2067 -64 1613 -64 
z
M 1754 422 
Q 2176 422 2425 627 
Q 2675 832 2675 1184 
L 2675 1677 
L 1651 1677 
Q 1370 1677 1194 1507 
Q 1018 1338 1018 1056 
Q 1018 762 1213 592 
Q 1408 422 1754 422 
z
" transform="scale(0.015625)"/>
       <path id="JetBrainsMono-Regular-74" d="M 2272 0 
Q 1837 0 1574 253 
Q 1312 506 1312 928 
L 1312 2995 
L 301 2995 
L 301 3520 
L 1312 3520 
L 1312 4512 
L 1888 4512 
L 1888 3520 
L 3328 3520 
L 3328 2995 
L 1888 2995 
L 1888 928 
Q 1888 749 1993 637 
Q 2099 525 2272 525 
L 3296 525 
L 3296 0 
L 2272 0 
z
" transform="scale(0.015625)"/>
       <path id="JetBrainsMono-Regular-69" d="M 544 0 
L 544 525 
L 1792 525 
L 1792 2995 
L 672 2995 
L 672 3520 
L 2368 3520 
L 2368 525 
L 3552 525 
L 3552 0 
L 544 0 
z
M 2016 4154 
Q 1805 4154 1683 4262 
Q 1562 4371 1562 4557 
Q 1562 4749 1683 4861 
Q 1805 4973 2016 4973 
Q 2227 4973 2348 4861 
Q 2470 4749 2470 4557 
Q 2470 4371 2348 4262 
Q 2227 4154 2016 4154 
z
" transform="scale(0.015625)"/>
       <path id="JetBrainsMono-Regular-6e" d="M 589 0 
L 589 3520 
L 1165 3520 
L 1165 2848 
L 1171 2848 
Q 1216 3200 1459 3392 
Q 1702 3584 2106 3584 
Q 2637 3584 2950 3257 
Q 3264 2931 3264 2368 
L 3264 0 
L 2688 0 
L 2688 2266 
Q 2688 2669 2486 2883 
Q 2285 3098 1939 3098 
Q 1581 3098 1373 2874 
Q 1165 2650 1165 2240 
L 1165 0 
L 589 0 
z
" transform="scale(0.015625)"/>
       <path id="JetBrainsMono-Regular-67" d="M 1030 -1152 
L 1030 -627 
L 2022 -627 
Q 2323 -627 2496 -457 
Q 2669 -288 2669 0 
L 2669 320 
L 2682 896 
L 2662 896 
Q 2611 582 2361 412 
Q 2112 243 1734 243 
Q 1190 243 876 588 
Q 563 934 563 1536 
L 563 2278 
Q 563 2880 876 3232 
Q 1190 3584 1734 3584 
Q 2112 3584 2361 3405 
Q 2611 3226 2662 2912 
L 2675 2912 
L 2675 3520 
L 3245 3520 
L 3245 0 
Q 3245 -531 2915 -841 
Q 2586 -1152 2016 -1152 
L 1030 -1152 
z
M 1907 723 
Q 2266 723 2470 947 
Q 2675 1171 2675 1568 
L 2675 2240 
Q 2675 2637 2470 2861 
Q 2266 3085 1907 3085 
Q 1542 3085 1340 2873 
Q 1139 2662 1139 2304 
L 1139 1504 
Q 1139 1146 1340 934 
Q 1542 723 1907 723 
z
" transform="scale(0.015625)"/>
      </defs>
      <use xlink:href="#JetBrainsMono-Regular-52"/>
      <use xlink:href="#JetBrainsMono-Regular-61" transform="translate(59.999985 0)"/>
      <use xlink:href="#JetBrainsMono-Regular-74" transform="translate(119.999969 0)"/>
      <use xlink:href="#JetBrainsMono-Regular-69" transform="translate(179.999954 0)"/>
      <use xlink:href="#JetBrainsMono-Regular-6e" transform="translate(239.999939 0)"/>
      <use xlink:href="#JetBrainsMono-Regular-67" transform="translate(299.999924 0)"/>
     </g>
    </g>
   </g>
   <g id="patch_3">
    <path d="M 55.296 324.72 
L 55.296 55.44 
" style="fill: none; stroke: #d8c8ef; stroke-width: 0.8; stroke-linejoin: miter; stroke-linecap: square"/>
   </g>
   <g id="patch_4">
    <path d="M 55.296 324.72 
L 546.048 324.72 
" style="fill: none; stroke: #d8c8ef; stroke-width: 0.8; stroke-linejoin: miter; stroke-linecap: square"/>
   </g>
   <g id="FillBetweenPolyCollection_1">
    <defs>
     <path id="mf1894e610b" d="M 79.8336 -71.28 
L 79.8336 -98.814517 
L 81.31078 -100.181685 
L 82.78796 -101.42351 
L 84.26514 -102.543881 
L 85.74232 -103.54669 
L 87.2195 -104.435825 
L 88.69668 -105.215177 
L 90.17386 -105.888636 
L 91.651039 -106.460092 
L 93.128219 -106.933434 
L 94.605399 -107.312552 
L 96.082579 -107.601338 
L 97.559759 -107.80368 
L 99.036939 -107.923468 
L 100.514119 -107.964593 
L 101.991299 -107.930944 
L 103.468479 -107.826411 
L 104.945659 -107.654885 
L 106.422839 -107.420255 
L 107.900019 -107.126411 
L 109.377199 -106.777243 
L 110.854379 -106.376642 
L 112.331559 -105.928496 
L 113.808738 -105.436697 
L 115.285918 -104.905133 
L 116.763098 -104.337696 
L 118.240278 -103.738274 
L 119.717458 -103.110759 
L 121.194638 -102.459039 
L 122.671818 -101.787005 
L 124.148998 -101.098546 
L 125.626178 -100.397554 
L 127.103358 -99.687917 
L 128.580538 -98.973525 
L 130.057718 -98.258269 
L 131.534898 -97.546039 
L 133.012078 -96.840724 
L 134.489258 -96.146215 
L 135.966437 -95.466401 
L 137.443617 -94.805172 
L 138.920797 -94.166419 
L 140.397977 -93.554031 
L 141.875157 -92.971898 
L 143.352337 -92.42391 
L 144.829517 -91.913957 
L 146.306697 -91.44593 
L 147.783877 -91.023718 
L 149.261057 -90.65121 
L 150.738237 -90.332298 
L 152.215417 -90.07087 
L 153.692597 -89.870818 
L 155.169777 -89.73603 
L 156.646957 -89.670397 
L 158.124136 -89.677808 
L 159.601316 -89.762155 
L 161.078496 -89.927326 
L 162.555676 -90.177212 
L 164.032856 -90.515702 
L 165.510036 -90.946687 
L 166.987216 -91.474056 
L 168.464396 -92.1017 
L 169.941576 -92.833508 
L 171.418756 -93.673371 
L 172.895936 -94.625177 
L 174.373116 -95.692819 
L 175.850296 -96.880184 
L 177.327476 -98.191164 
L 178.804656 -99.629315 
L 180.281835 -101.192232 
L 181.759015 -102.872349 
L 183.236195 -104.66193 
L 184.713375 -106.553241 
L 186.190555 -108.538545 
L 187.667735 -110.610107 
L 189.144915 -112.760191 
L 190.622095 -114.981063 
L 192.099275 -117.264986 
L 193.576455 -119.604226 
L 195.053635 -121.991046 
L 196.530815 -124.417711 
L 198.007995 -126.876485 
L 199.485175 -129.359634 
L 200.962355 -131.859421 
L 202.439534 -134.368112 
L 203.916714 -136.87797 
L 205.393894 -139.38126 
L 206.871074 -141.870247 
L 208.348254 -144.337195 
L 209.825434 -146.774369 
L 211.302614 -149.174032 
L 212.779794 -151.528451 
L 214.256974 -153.829888 
L 215.734154 -156.07061 
L 217.211334 -158.242879 
L 218.688514 -160.338961 
L 220.165694 -162.351121 
L 221.642874 -164.271622 
L 223.120054 -166.092729 
L 224.597233 -167.806707 
L 226.074413 -169.40582 
L 227.551593 -170.882414 
L 229.028773 -172.233709 
L 230.505953 -173.464482 
L 231.983133 -174.580156 
L 233.460313 -175.586159 
L 234.937493 -176.487916 
L 236.414673 -177.290852 
L 237.891853 -178.000394 
L 239.369033 -178.621965 
L 240.846213 -179.160994 
L 242.323393 -179.622904 
L 243.800573 -180.013122 
L 245.277753 -180.337073 
L 246.754932 -180.600183 
L 248.232112 -180.807878 
L 249.709292 -180.965582 
L 251.186472 -181.078723 
L 252.663652 -181.152724 
L 254.140832 -181.193013 
L 255.618012 -181.205015 
L 257.095192 -181.194155 
L 258.572372 -181.165858 
L 260.049552 -181.125552 
L 261.526732 -181.07866 
L 263.003912 -181.03061 
L 264.481092 -180.986825 
L 265.958272 -180.952733 
L 267.435452 -180.933759 
L 268.912631 -180.935328 
L 270.389811 -180.962866 
L 271.866991 -181.021799 
L 273.344171 -181.117552 
L 274.821351 -181.255551 
L 276.298531 -181.44122 
L 277.775711 -181.678234 
L 279.252891 -181.965239 
L 280.730071 -182.299982 
L 282.207251 -182.680212 
L 283.684431 -183.103674 
L 285.161611 -183.568117 
L 286.638791 -184.071287 
L 288.115971 -184.610933 
L 289.593151 -185.1848 
L 291.07033 -185.790636 
L 292.54751 -186.426189 
L 294.02469 -187.089206 
L 295.50187 -187.777434 
L 296.97905 -188.48862 
L 298.45623 -189.220511 
L 299.93341 -189.970856 
L 301.41059 -190.7374 
L 302.88777 -191.517892 
L 304.36495 -192.310078 
L 305.84213 -193.111706 
L 307.31931 -193.920523 
L 308.79649 -194.734277 
L 310.27367 -195.550714 
L 311.750849 -196.367582 
L 313.228029 -197.182627 
L 314.705209 -197.993599 
L 316.182389 -198.798242 
L 317.659569 -199.594306 
L 319.136749 -200.379537 
L 320.613929 -201.151682 
L 322.091109 -201.908488 
L 323.568289 -202.647703 
L 325.045469 -203.367075 
L 326.522649 -204.064716 
L 327.999829 -204.740796 
L 329.477009 -205.396195 
L 330.954189 -206.031794 
L 332.431369 -206.648477 
L 333.908548 -207.247126 
L 335.385728 -207.828622 
L 336.862908 -208.393847 
L 338.340088 -208.943683 
L 339.817268 -209.479014 
L 341.294448 -210.00072 
L 342.771628 -210.509683 
L 344.248808 -211.006787 
L 345.725988 -211.492912 
L 347.203168 -211.968941 
L 348.680348 -212.435756 
L 350.157528 -212.894239 
L 351.634708 -213.345272 
L 353.111888 -213.789737 
L 354.589068 -214.228517 
L 356.066247 -214.662492 
L 357.543427 -215.092546 
L 359.020607 -215.51956 
L 360.497787 -215.944417 
L 361.974967 -216.367999 
L 363.452147 -216.791186 
L 364.929327 -217.214863 
L 366.406507 -217.63991 
L 367.883687 -218.06721 
L 369.360867 -218.497645 
L 370.838047 -218.932096 
L 372.315227 -219.371447 
L 373.792407 -219.816578 
L 375.269587 -220.2684 
L 376.746767 -220.728133 
L 378.223946 -221.197204 
L 379.701126 -221.677039 
L 381.178306 -222.169067 
L 382.655486 -222.674714 
L 384.132666 -223.19541 
L 385.609846 -223.732581 
L 387.087026 -224.287656 
L 388.564206 -224.862062 
L 390.041386 -225.457227 
L 391.518566 -226.074579 
L 392.995746 -226.715546 
L 394.472926 -227.381556 
L 395.950106 -228.074035 
L 397.427286 -228.794413 
L 398.904466 -229.544117 
L 400.381645 -230.324575 
L 401.858825 -231.137214 
L 403.336005 -231.983462 
L 404.813185 -232.864747 
L 406.290365 -233.782498 
L 407.767545 -234.738141 
L 409.244725 -235.733104 
L 410.721905 -236.768816 
L 412.199085 -237.846704 
L 413.676265 -238.968196 
L 415.153445 -240.13472 
L 416.630625 -241.347703 
L 418.107805 -242.608573 
L 419.584985 -243.918759 
L 421.062165 -245.279687 
L 422.539344 -246.692786 
L 424.016524 -248.159419 
L 425.493704 -249.678989 
L 426.970884 -251.248634 
L 428.448064 -252.865364 
L 429.925244 -254.52619 
L 431.402424 -256.228125 
L 432.879604 -257.968179 
L 434.356784 -259.743363 
L 435.833964 -261.550688 
L 437.311144 -263.387166 
L 438.788324 -265.249808 
L 440.265504 -267.135624 
L 441.742684 -269.041626 
L 443.219864 -270.964825 
L 444.697043 -272.902232 
L 446.174223 -274.850859 
L 447.651403 -276.807716 
L 449.128583 -278.769814 
L 450.605763 -280.734166 
L 452.082943 -282.697781 
L 453.560123 -284.657671 
L 455.037303 -286.610848 
L 456.514483 -288.554322 
L 457.991663 -290.485104 
L 459.468843 -292.400206 
L 460.946023 -294.296638 
L 462.423203 -296.171413 
L 463.900383 -298.02154 
L 465.377563 -299.844032 
L 466.854742 -301.635899 
L 468.331922 -303.394153 
L 469.809102 -305.115804 
L 471.286282 -306.797863 
L 472.763462 -308.437343 
L 474.240642 -310.031254 
L 475.717822 -311.576607 
L 477.195002 -313.070413 
L 478.672182 -314.509684 
L 480.149362 -315.89143 
L 481.626542 -317.212663 
L 483.103722 -318.470394 
L 484.580902 -319.661634 
L 486.058082 -320.783394 
L 487.535262 -321.832685 
L 489.012441 -322.806519 
L 490.489621 -323.701906 
L 491.966801 -324.515858 
L 493.443981 -325.245386 
L 494.921161 -325.887501 
L 496.398341 -326.439215 
L 497.875521 -326.897537 
L 499.352701 -327.25948 
L 500.829881 -327.522054 
L 502.307061 -327.682272 
L 503.784241 -327.737143 
L 505.261421 -327.683679 
L 506.738601 -327.518891 
L 508.215781 -327.239791 
L 509.692961 -326.843389 
L 511.17014 -326.326696 
L 512.64732 -325.686725 
L 514.1245 -324.920485 
L 515.60168 -324.024988 
L 517.07886 -322.997246 
L 518.55604 -321.834268 
L 520.03322 -320.533067 
L 521.5104 -319.090654 
L 521.5104 -71.28 
L 521.5104 -71.28 
L 520.03322 -71.28 
L 518.55604 -71.28 
L 517.07886 -71.28 
L 515.60168 -71.28 
L 514.1245 -71.28 
L 512.64732 -71.28 
L 511.17014 -71.28 
L 509.692961 -71.28 
L 508.215781 -71.28 
L 506.738601 -71.28 
L 505.261421 -71.28 
L 503.784241 -71.28 
L 502.307061 -71.28 
L 500.829881 -71.28 
L 499.352701 -71.28 
L 497.875521 -71.28 
L 496.398341 -71.28 
L 494.921161 -71.28 
L 493.443981 -71.28 
L 491.966801 -71.28 
L 490.489621 -71.28 
L 489.012441 -71.28 
L 487.535262 -71.28 
L 486.058082 -71.28 
L 484.580902 -71.28 
L 483.103722 -71.28 
L 481.626542 -71.28 
L 480.149362 -71.28 
L 478.672182 -71.28 
L 477.195002 -71.28 
L 475.717822 -71.28 
L 474.240642 -71.28 
L 472.763462 -71.28 
L 471.286282 -71.28 
L 469.809102 -71.28 
L 468.331922 -71.28 
L 466.854742 -71.28 
L 465.377563 -71.28 
L 463.900383 -71.28 
L 462.423203 -71.28 
L 460.946023 -71.28 
L 459.468843 -71.28 
L 457.991663 -71.28 
L 456.514483 -71.28 
L 455.037303 -71.28 
L 453.560123 -71.28 
L 452.082943 -71.28 
L 450.605763 -71.28 
L 449.128583 -71.28 
L 447.651403 -71.28 
L 446.174223 -71.28 
L 444.697043 -71.28 
L 443.219864 -71.28 
L 441.742684 -71.28 
L 440.265504 -71.28 
L 438.788324 -71.28 
L 437.311144 -71.28 
L 435.833964 -71.28 
L 434.356784 -71.28 
L 432.879604 -71.28 
L 431.402424 -71.28 
L 429.925244 -71.28 
L 428.448064 -71.28 
L 426.970884 -71.28 
L 425.493704 -71.28 
L 424.016524 -71.28 
L 422.539344 -71.28 
L 421.062165 -71.28 
L 419.584985 -71.28 
L 418.107805 -71.28 
L 416.630625 -71.28 
L 415.153445 -71.28 
L 413.676265 -71.28 
L 412.199085 -71.28 
L 410.721905 -71.28 
L 409.244725 -71.28 
L 407.767545 -71.28 
L 406.290365 -71.28 
L 404.813185 -71.28 
L 403.336005 -71.28 
L 401.858825 -71.28 
L 400.381645 -71.28 
L 398.904466 -71.28 
L 397.427286 -71.28 
L 395.950106 -71.28 
L 394.472926 -71.28 
L 392.995746 -71.28 
L 391.518566 -71.28 
L 390.041386 -71.28 
L 388.564206 -71.28 
L 387.087026 -71.28 
L 385.609846 -71.28 
L 384.132666 -71.28 
L 382.655486 -71.28 
L 381.178306 -71.28 
L 379.701126 -71.28 
L 378.223946 -71.28 
L 376.746767 -71.28 
L 375.269587 -71.28 
L 373.792407 -71.28 
L 372.315227 -71.28 
L 370.838047 -71.28 
L 369.360867 -71.28 
L 367.883687 -71.28 
L 366.406507 -71.28 
L 364.929327 -71.28 
L 363.452147 -71.28 
L 361.974967 -71.28 
L 360.497787 -71.28 
L 359.020607 -71.28 
L 357.543427 -71.28 
L 356.066247 -71.28 
L 354.589068 -71.28 
L 353.111888 -71.28 
L 351.634708 -71.28 
L 350.157528 -71.28 
L 348.680348 -71.28 
L 347.203168 -71.28 
L 345.725988 -71.28 
L 344.248808 -71.28 
L 342.771628 -71.28 
L 341.294448 -71.28 
L 339.817268 -71.28 
L 338.340088 -71.28 
L 336.862908 -71.28 
L 335.385728 -71.28 
L 333.908548 -71.28 
L 332.431369 -71.28 
L 330.954189 -71.28 
L 329.477009 -71.28 
L 327.999829 -71.28 
L 326.522649 -71.28 
L 325.045469 -71.28 
L 323.568289 -71.28 
L 322.091109 -71.28 
L 320.613929 -71.28 
L 319.136749 -71.28 
L 317.659569 -71.28 
L 316.182389 -71.28 
L 314.705209 -71.28 
L 313.228029 -71.28 
L 311.750849 -71.28 
L 310.27367 -71.28 
L 308.79649 -71.28 
L 307.31931 -71.28 
L 305.84213 -71.28 
L 304.36495 -71.28 
L 302.88777 -71.28 
L 301.41059 -71.28 
L 299.93341 -71.28 
L 298.45623 -71.28 
L 296.97905 -71.28 
L 295.50187 -71.28 
L 294.02469 -71.28 
L 292.54751 -71.28 
L 291.07033 -71.28 
L 289.593151 -71.28 
L 288.115971 -71.28 
L 286.638791 -71.28 
L 285.161611 -71.28 
L 283.684431 -71.28 
L 282.207251 -71.28 
L 280.730071 -71.28 
L 279.252891 -71.28 
L 277.775711 -71.28 
L 276.298531 -71.28 
L 274.821351 -71.28 
L 273.344171 -71.28 
L 271.866991 -71.28 
L 270.389811 -71.28 
L 268.912631 -71.28 
L 267.435452 -71.28 
L 265.958272 -71.28 
L 264.481092 -71.28 
L 263.003912 -71.28 
L 261.526732 -71.28 
L 260.049552 -71.28 
L 258.572372 -71.28 
L 257.095192 -71.28 
L 255.618012 -71.28 
L 254.140832 -71.28 
L 252.663652 -71.28 
L 251.186472 -71.28 
L 249.709292 -71.28 
L 248.232112 -71.28 
L 246.754932 -71.28 
L 245.277753 -71.28 
L 243.800573 -71.28 
L 242.323393 -71.28 
L 240.846213 -71.28 
L 239.369033 -71.28 
L 237.891853 -71.28 
L 236.414673 -71.28 
L 234.937493 -71.28 
L 233.460313 -71.28 
L 231.983133 -71.28 
L 230.505953 -71.28 
L 229.028773 -71.28 
L 227.551593 -71.28 
L 226.074413 -71.28 
L 224.597233 -71.28 
L 223.120054 -71.28 
L 221.642874 -71.28 
L 220.165694 -71.28 
L 218.688514 -71.28 
L 217.211334 -71.28 
L 215.734154 -71.28 
L 214.256974 -71.28 
L 212.779794 -71.28 
L 211.302614 -71.28 
L 209.825434 -71.28 
L 208.348254 -71.28 
L 206.871074 -71.28 
L 205.393894 -71.28 
L 203.916714 -71.28 
L 202.439534 -71.28 
L 200.962355 -71.28 
L 199.485175 -71.28 
L 198.007995 -71.28 
L 196.530815 -71.28 
L 195.053635 -71.28 
L 193.576455 -71.28 
L 192.099275 -71.28 
L 190.622095 -71.28 
L 189.144915 -71.28 
L 187.667735 -71.28 
L 186.190555 -71.28 
L 184.713375 -71.28 
L 183.236195 -71.28 
L 181.759015 -71.28 
L 180.281835 -71.28 
L 178.804656 -71.28 
L 177.327476 -71.28 
L 175.850296 -71.28 
L 174.373116 -71.28 
L 172.895936 -71.28 
L 171.418756 -71.28 
L 169.941576 -71.28 
L 168.464396 -71.28 
L 166.987216 -71.28 
L 165.510036 -71.28 
L 164.032856 -71.28 
L 162.555676 -71.28 
L 161.078496 -71.28 
L 159.601316 -71.28 
L 158.124136 -71.28 
L 156.646957 -71.28 
L 155.169777 -71.28 
L 153.692597 -71.28 
L 152.215417 -71.28 
L 150.738237 -71.28 
L 149.261057 -71.28 
L 147.783877 -71.28 
L 146.306697 -71.28 
L 144.829517 -71.28 
L 143.352337 -71.28 
L 141.875157 -71.28 
L 140.397977 -71.28 
L 138.920797 -71.28 
L 137.443617 -71.28 
L 135.966437 -71.28 
L 134.489258 -71.28 
L 133.012078 -71.28 
L 131.534898 -71.28 
L 130.057718 -71.28 
L 128.580538 -71.28 
L 127.103358 -71.28 
L 125.626178 -71.28 
L 124.148998 -71.28 
L 122.671818 -71.28 
L 121.194638 -71.28 
L 119.717458 -71.28 
L 118.240278 -71.28 
L 116.763098 -71.28 
L 115.285918 -71.28 
L 113.808738 -71.28 
L 112.331559 -71.28 
L 110.854379 -71.28 
L 109.377199 -71.28 
L 107.900019 -71.28 
L 106.422839 -71.28 
L 104.945659 -71.28 
L 103.468479 -71.28 
L 101.991299 -71.28 
L 100.514119 -71.28 
L 99.036939 -71.28 
L 97.559759 -71.28 
L 96.082579 -71.28 
L 94.605399 -71.28 
L 93.128219 -71.28 
L 91.651039 -71.28 
L 90.17386 -71.28 
L 88.69668 -71.28 
L 87.2195 -71.28 
L 85.74232 -71.28 
L 84.26514 -71.28 
L 82.78796 -71.28 
L 81.31078 -71.28 
L 79.8336 -71.28 
z
" style="stroke: #8b5cf6; stroke-opacity: 0.12"/>
    </defs>
    <g clip-path="url(#pe3815803f1)">
     <use xlink:href="#mf1894e610b" x="0" y="396" style="fill: #8b5cf6; fill-opacity: 0.12; stroke: #8b5cf6; stroke-opacity: 0.12"/>
    </g>
   </g>
   <g id="text_17">
    <!-- 241 -->
    <g style="fill: #8b5cf6" transform="translate(524.5104 73.909346) scale(0.12 -0.12)">
     <defs>
      <path id="JetBrainsMono-Bold-32" d="M 474 0 
L 474 723 
L 2157 2445 
Q 2566 2874 2566 3315 
Q 2566 3629 2384 3824 
Q 2202 4019 1894 4019 
Q 1581 4019 1392 3817 
Q 1203 3616 1203 3283 
L 403 3283 
Q 403 3718 595 4044 
Q 787 4371 1126 4553 
Q 1466 4736 1914 4736 
Q 2355 4736 2688 4563 
Q 3021 4390 3203 4080 
Q 3386 3770 3386 3354 
Q 3386 2995 3216 2636 
Q 3046 2278 2656 1894 
L 1478 723 
L 3443 723 
L 3443 0 
L 474 0 
z
" transform="scale(0.015625)"/>
      <path id="JetBrainsMono-Bold-34" d="M 2445 0 
L 2445 928 
L 378 928 
L 378 2086 
L 2106 4672 
L 2995 4672 
L 1146 1875 
L 1146 1632 
L 2445 1632 
L 2445 2688 
L 3251 2688 
L 3251 0 
L 2445 0 
z
" transform="scale(0.015625)"/>
      <path id="JetBrainsMono-Bold-31" d="M 538 0 
L 538 723 
L 1754 723 
L 1754 3898 
L 531 3002 
L 531 3898 
L 1606 4672 
L 2554 4672 
L 2554 723 
L 3533 723 
L 3533 0 
L 538 0 
z
" transform="scale(0.015625)"/>
     </defs>
     <use xlink:href="#JetBrainsMono-Bold-32"/>
     <use xlink:href="#JetBrainsMono-Bold-34" transform="translate(59.999985 0)"/>
     <use xlink:href="#JetBrainsMono-Bold-31" transform="translate(119.999969 0)"/>
    </g>
   </g>
   <g id="text_18">
    <!-- Rating History -->
    <g style="fill: #8b5cf6" transform="translate(55.296 50.44) scale(0.17 -0.17)">
     <defs>
      <path id="JetBrainsMono-Bold-52" d="M 493 0 
L 493 4672 
L 1965 4672 
Q 2432 4672 2774 4499 
Q 3117 4326 3309 4016 
Q 3501 3706 3501 3283 
Q 3501 2816 3270 2467 
Q 3040 2118 2650 1971 
L 3565 0 
L 2688 0 
L 1869 1856 
L 1286 1856 
L 1286 0 
L 493 0 
z
M 1286 2560 
L 1965 2560 
Q 2304 2560 2496 2745 
Q 2688 2931 2688 3258 
Q 2688 3584 2493 3776 
Q 2298 3968 1965 3968 
L 1286 3968 
L 1286 2560 
z
" transform="scale(0.015625)"/>
      <path id="JetBrainsMono-Bold-61" d="M 1530 -64 
Q 992 -64 681 240 
Q 371 544 371 1037 
Q 371 1549 723 1853 
Q 1075 2157 1690 2157 
L 2547 2157 
L 2547 2406 
Q 2547 2938 1926 2938 
Q 1645 2938 1478 2829 
Q 1312 2720 1293 2522 
L 525 2522 
Q 550 2995 924 3289 
Q 1299 3584 1933 3584 
Q 2605 3584 2976 3270 
Q 3347 2957 3347 2387 
L 3347 0 
L 2566 0 
L 2566 659 
Q 2522 320 2246 128 
Q 1971 -64 1530 -64 
z
M 1786 589 
Q 2138 589 2342 761 
Q 2547 934 2547 1222 
L 2547 1638 
L 1728 1638 
Q 1466 1638 1312 1491 
Q 1158 1344 1158 1114 
Q 1158 877 1321 733 
Q 1485 589 1786 589 
z
" transform="scale(0.015625)"/>
      <path id="JetBrainsMono-Bold-74" d="M 2272 0 
Q 1779 0 1488 285 
Q 1197 570 1197 1056 
L 1197 2797 
L 224 2797 
L 224 3520 
L 1197 3520 
L 1197 4512 
L 2003 4512 
L 2003 3520 
L 3405 3520 
L 3405 2797 
L 2003 2797 
L 2003 1075 
Q 2003 922 2089 822 
Q 2176 723 2330 723 
L 3373 723 
L 3373 0 
L 2272 0 
z
" transform="scale(0.015625)"/>
      <path id="JetBrainsMono-Bold-69" d="M 486 0 
L 486 723 
L 1690 723 
L 1690 2797 
L 614 2797 
L 614 3520 
L 2490 3520 
L 2490 723 
L 3571 723 
L 3571 0 
L 486 0 
z
M 2032 4109 
Q 1789 4109 1648 4233 
Q 1507 4358 1507 4570 
Q 1507 4781 1648 4905 
Q 1789 5030 2032 5030 
Q 2275 5030 2416 4905 
Q 2557 4781 2557 4570 
Q 2557 4358 2416 4233 
Q 2275 4109 2032 4109 
z
" transform="scale(0.015625)"/>
      <path id="JetBrainsMono-Bold-6e" d="M 493 0 
L 493 3520 
L 1274 3520 
L 1274 2861 
Q 1338 3194 1587 3389 
Q 1837 3584 2221 3584 
Q 2739 3584 3049 3238 
Q 3360 2893 3360 2310 
L 3360 0 
L 2560 0 
L 2560 2214 
Q 2560 2541 2390 2717 
Q 2221 2893 1933 2893 
Q 1632 2893 1462 2713 
Q 1293 2534 1293 2202 
L 1293 0 
L 493 0 
z
" transform="scale(0.015625)"/>
      <path id="JetBrainsMono-Bold-67" d="M 973 -1152 
L 973 -486 
L 1965 -486 
Q 2246 -486 2400 -336 
Q 2554 -186 2554 70 
L 2554 282 
L 2566 832 
Q 2458 538 2218 374 
Q 1978 211 1632 211 
Q 1094 211 777 572 
Q 461 934 461 1555 
L 461 2240 
Q 461 2854 777 3219 
Q 1094 3584 1632 3584 
Q 1978 3584 2218 3421 
Q 2458 3258 2566 2957 
L 2566 3520 
L 3347 3520 
L 3347 51 
Q 3347 -506 2979 -829 
Q 2611 -1152 1978 -1152 
L 973 -1152 
z
M 1901 896 
Q 2208 896 2377 1078 
Q 2547 1261 2547 1587 
L 2547 2202 
Q 2547 2528 2377 2710 
Q 2208 2893 1901 2893 
Q 1594 2893 1427 2717 
Q 1261 2541 1261 2227 
L 1261 1562 
Q 1261 1248 1427 1072 
Q 1594 896 1901 896 
z
" transform="scale(0.015625)"/>
      <path id="JetBrainsMono-Bold-20" transform="scale(0.015625)"/>
      <path id="JetBrainsMono-Bold-48" d="M 493 0 
L 493 4672 
L 1293 4672 
L 1293 2778 
L 2547 2778 
L 2547 4672 
L 3347 4672 
L 3347 0 
L 2547 0 
L 2547 2054 
L 1293 2054 
L 1293 0 
L 493 0 
z
" transform="scale(0.015625)"/>
      <path id="JetBrainsMono-Bold-73" d="M 1773 -58 
Q 1146 -58 781 227 
Q 416 512 416 998 
L 1203 998 
Q 1203 794 1353 685 
Q 1504 576 1773 576 
L 2054 576 
Q 2342 576 2499 685 
Q 2656 794 2656 998 
Q 2656 1190 2547 1283 
Q 2438 1376 2214 1408 
L 1338 1523 
Q 915 1581 688 1849 
Q 461 2118 461 2547 
Q 461 3046 793 3312 
Q 1126 3578 1754 3578 
L 2048 3578 
Q 2637 3578 2995 3309 
Q 3354 3040 3366 2592 
L 2573 2592 
Q 2566 2758 2425 2857 
Q 2285 2957 2048 2957 
L 1754 2957 
Q 1498 2957 1363 2851 
Q 1229 2746 1229 2566 
Q 1229 2406 1328 2329 
Q 1427 2253 1619 2234 
L 2445 2118 
Q 2931 2061 3177 1776 
Q 3424 1491 3424 1011 
Q 3424 499 3075 220 
Q 2726 -58 2054 -58 
L 1773 -58 
z
" transform="scale(0.015625)"/>
      <path id="JetBrainsMono-Bold-6f" d="M 1920 -58 
Q 1242 -58 845 323 
Q 448 704 448 1350 
L 448 2170 
Q 448 2822 845 3200 
Q 1242 3578 1920 3578 
Q 2598 3578 2995 3200 
Q 3392 2822 3392 2170 
L 3392 1350 
Q 3392 704 2995 323 
Q 2598 -58 1920 -58 
z
M 1920 640 
Q 2240 640 2416 816 
Q 2592 992 2592 1325 
L 2592 2195 
Q 2592 2528 2416 2704 
Q 2240 2880 1920 2880 
Q 1600 2880 1424 2704 
Q 1248 2528 1248 2195 
L 1248 1325 
Q 1248 992 1424 816 
Q 1600 640 1920 640 
z
" transform="scale(0.015625)"/>
      <path id="JetBrainsMono-Bold-72" d="M 621 0 
L 621 3520 
L 1402 3520 
L 1402 2835 
Q 1466 3181 1718 3382 
Q 1971 3584 2374 3584 
Q 2912 3584 3213 3238 
Q 3514 2893 3514 2272 
L 3514 1939 
L 2714 1939 
L 2714 2234 
Q 2714 2554 2547 2723 
Q 2381 2893 2074 2893 
Q 1754 2893 1587 2701 
Q 1421 2509 1421 2157 
L 1421 0 
L 621 0 
z
" transform="scale(0.015625)"/>
      <path id="JetBrainsMono-Bold-79" d="M 1056 -1152 
L 1555 192 
L 230 3520 
L 1075 3520 
L 1754 1722 
Q 1811 1562 1868 1373 
Q 1926 1184 1952 1024 
Q 1971 1184 2025 1373 
Q 2080 1562 2138 1722 
L 2765 3520 
L 3610 3520 
L 1894 -1152 
L 1056 -1152 
z
" transform="scale(0.015625)"/>
     </defs>
     <use xlink:href="#JetBrainsMono-Bold-52"/>
     <use xlink:href="#JetBrainsMono-Bold-61" transform="translate(59.999985 0)"/>
     <use xlink:href="#JetBrainsMono-Bold-74" transform="translate(119.999969 0)"/>
     <use xlink:href="#JetBrainsMono-Bold-69" transform="translate(179.999954 0)"/>
     <use xlink:href="#JetBrainsMono-Bold-6e" transform="translate(239.999939 0)"/>
     <use xlink:href="#JetBrainsMono-Bold-67" transform="translate(299.999924 0)"/>
     <use xlink:href="#JetBrainsMono-Bold-20" transform="translate(359.999908 0)"/>
     <use xlink:href="#JetBrainsMono-Bold-48" transform="translate(419.999893 0)"/>
     <use xlink:href="#JetBrainsMono-Bold-69" transform="translate(479.999878 0)"/>
     <use xlink:href="#JetBrainsMono-Bold-73" transform="translate(539.999863 0)"/>
     <use xlink:href="#JetBrainsMono-Bold-74" transform="translate(599.999847 0)"/>
     <use xlink:href="#JetBrainsMono-Bold-6f" transform="translate(659.999832 0)"/>
     <use xlink:href="#JetBrainsMono-Bold-72" transform="translate(719.999817 0)"/>
     <use xlink:href="#JetBrainsMono-Bold-79" transform="translate(779.999802 0)"/>
    </g>
   </g>
   <g id="line2d_31">
    <path d="M 79.8336 297.185483 
L 82.78796 294.57649 
L 85.74232 292.45331 
L 88.69668 290.784823 
L 91.651039 289.539908 
L 94.605399 288.687448 
L 97.559759 288.19632 
L 100.514119 288.035407 
L 103.468479 288.173589 
L 106.422839 288.579745 
L 109.377199 289.222757 
L 112.331559 290.071504 
L 116.763098 291.662304 
L 121.194638 293.540961 
L 127.103358 296.312083 
L 137.443617 301.194828 
L 141.875157 303.028102 
L 146.306697 304.55407 
L 149.261057 305.34879 
L 152.215417 305.92913 
L 155.169777 306.26397 
L 158.124136 306.322192 
L 161.078496 306.072674 
L 164.032856 305.484298 
L 166.987216 304.525944 
L 169.941576 303.166492 
L 172.895936 301.374823 
L 175.850296 299.119816 
L 178.804656 296.370685 
L 181.759015 293.127651 
L 184.713375 289.446759 
L 187.667735 285.389893 
L 190.622095 281.018937 
L 195.053635 274.008954 
L 200.962355 264.140579 
L 209.825434 249.225631 
L 214.256974 242.170112 
L 217.211334 237.757121 
L 220.165694 233.648879 
L 223.120054 229.907271 
L 226.074413 226.59418 
L 229.028773 223.766291 
L 231.983133 221.419844 
L 234.937493 219.512084 
L 237.891853 217.999606 
L 240.846213 216.839006 
L 243.800573 215.986878 
L 246.754932 215.399817 
L 249.709292 215.034418 
L 252.663652 214.847276 
L 257.095192 214.805845 
L 271.866991 214.978201 
L 274.821351 214.744449 
L 277.775711 214.321766 
L 280.730071 213.700018 
L 283.684431 212.896326 
L 288.115971 211.389067 
L 292.54751 209.573811 
L 296.97905 207.51138 
L 302.88777 204.482108 
L 313.228029 198.817373 
L 320.613929 194.848318 
L 326.522649 191.935284 
L 332.431369 189.351523 
L 338.340088 187.056317 
L 344.248808 184.993213 
L 351.634708 182.654728 
L 363.452147 179.208814 
L 375.269587 175.7316 
L 382.655486 173.325286 
L 388.564206 171.137938 
L 392.995746 169.284454 
L 397.427286 167.205587 
L 401.858825 164.862786 
L 406.290365 162.217502 
L 410.721905 159.231184 
L 415.153445 155.86528 
L 418.107805 153.391427 
L 421.062165 150.720313 
L 424.016524 147.840581 
L 428.448064 143.134636 
L 432.879604 138.031821 
L 437.311144 132.612834 
L 443.219864 125.035175 
L 465.377563 96.155968 
L 469.809102 90.884196 
L 474.240642 85.968746 
L 478.672182 81.490316 
L 481.626542 78.787337 
L 484.580902 76.338366 
L 487.535262 74.167315 
L 490.489621 72.298094 
L 493.443981 70.754614 
L 496.398341 69.560785 
L 499.352701 68.74052 
L 502.307061 68.317728 
L 505.261421 68.316321 
L 506.738601 68.481109 
L 508.215781 68.760209 
L 509.692961 69.156611 
L 511.17014 69.673304 
L 512.64732 70.313275 
L 514.1245 71.079515 
L 515.60168 71.975012 
L 518.55604 74.165732 
L 521.5104 76.909346 
L 521.5104 76.909346 
" clip-path="url(#pe3815803f1)" style="fill: none; stroke: #8b5cf6; stroke-width: 1.2; stroke-linecap: round"/>
   </g>
   <g id="PathCollection_1">
    <defs>
     <path id="m80a7eba458" d="M 0 2.236068 
C 0.593012 2.236068 1.161816 2.000462 1.581139 1.581139 
C 2.000462 1.161816 2.236068 0.593012 2.236068 0 
C 2.236068 -0.593012 2.000462 -1.161816 1.581139 -1.581139 
C 1.161816 -2.000462 0.593012 -2.236068 0 -2.236068 
C -0.593012 -2.236068 -1.161816 -2.000462 -1.581139 -1.581139 
C -2.000462 -1.161816 -2.236068 -0.593012 -2.236068 0 
C -2.236068 0.593012 -2.000462 1.161816 -1.581139 1.581139 
C -1.161816 2.000462 -0.593012 2.236068 0 2.236068 
z
" style="stroke: #ffffff; stroke-width: 0.8"/>
    </defs>
    <g clip-path="url(#pe3815803f1)">
     <use xlink:href="#m80a7eba458" x="521.5104" y="76.909346" style="fill: #8b5cf6; stroke: #ffffff; stroke-width: 0.8"/>
    </g>
   </g>
  </g>
  <g id="axes_2">
   <g id="text_19">
    <!-- Rating -->
    <g style="fill: #9b8bb8" transform="translate(565.7472 48.312) scale(0.11 -0.11)">
     <use xlink:href="#JetBrainsMono-Regular-52"/>
     <use xlink:href="#JetBrainsMono-Regular-61" transform="translate(59.999985 0)"/>
     <use xlink:href="#JetBrainsMono-Regular-74" transform="translate(119.999969 0)"/>
     <use xlink:href="#JetBrainsMono-Regular-69" transform="translate(179.999954 0)"/>
     <use xlink:href="#JetBrainsMono-Regular-6e" transform="translate(239.999939 0)"/>
     <use xlink:href="#JetBrainsMono-Regular-67" transform="translate(299.999924 0)"/>
    </g>
   </g>
   <g id="text_20">
    <!-- 241 -->
    <g style="fill: #8b5cf6" transform="translate(565.7472 81.548) scale(0.26 -0.26)">
     <use xlink:href="#JetBrainsMono-Bold-32"/>
     <use xlink:href="#JetBrainsMono-Bold-34" transform="translate(59.999985 0)"/>
     <use xlink:href="#JetBrainsMono-Bold-31" transform="translate(119.999969 0)"/>
    </g>
   </g>
   <g id="text_21">
    <!-- Rank -->
    <g style="fill: #9b8bb8" transform="translate(565.7472 119.592) scale(0.11 -0.11)">
     <defs>
      <path id="JetBrainsMono-Regular-6b" d="M 621 0 
L 621 4672 
L 1197 4672 
L 1197 2067 
L 1869 2067 
L 2854 3520 
L 3514 3520 
L 2381 1843 
L 3578 0 
L 2906 0 
L 1882 1568 
L 1197 1568 
L 1197 0 
L 621 0 
z
" transform="scale(0.015625)"/>
     </defs>
     <use xlink:href="#JetBrainsMono-Regular-52"/>
     <use xlink:href="#JetBrainsMono-Regular-61" transform="translate(59.999985 0)"/>
     <use xlink:href="#JetBrainsMono-Regular-6e" transform="translate(119.999969 0)"/>
     <use xlink:href="#JetBrainsMono-Regular-6b" transform="translate(179.999954 0)"/>
    </g>
   </g>
   <g id="text_22">
    <!-- #122,556 -->
    <g style="fill: #8b5cf6" transform="translate(565.7472 148.104) scale(0.14 -0.14)">
     <defs>
      <path id="JetBrainsMono-Bold-23" d="M 493 0 
L 710 1216 
L 224 1216 
L 224 1760 
L 800 1760 
L 998 2912 
L 448 2912 
L 448 3456 
L 1094 3456 
L 1312 4672 
L 1875 4672 
L 1658 3456 
L 2566 3456 
L 2784 4672 
L 3347 4672 
L 3130 3456 
L 3616 3456 
L 3616 2912 
L 3034 2912 
L 2835 1760 
L 3392 1760 
L 3392 1216 
L 2739 1216 
L 2528 0 
L 1965 0 
L 2182 1216 
L 1267 1216 
L 1056 0 
L 493 0 
z
M 1363 1760 
L 2272 1760 
L 2470 2912 
L 1562 2912 
L 1363 1760 
z
" transform="scale(0.015625)"/>
      <path id="JetBrainsMono-Bold-2c" d="M 1216 -1024 
L 1555 934 
L 2470 934 
L 1984 -1024 
L 1216 -1024 
z
" transform="scale(0.015625)"/>
      <path id="JetBrainsMono-Bold-35" d="M 1894 -64 
Q 1210 -64 803 297 
Q 397 659 397 1280 
L 1197 1280 
Q 1197 986 1385 810 
Q 1574 634 1901 634 
Q 2227 634 2409 810 
Q 2592 986 2592 1299 
L 2592 1606 
Q 2592 1920 2413 2096 
Q 2234 2272 1907 2272 
L 557 2272 
L 557 4672 
L 3219 4672 
L 3219 3949 
L 1312 3949 
L 1318 2976 
L 1946 2976 
Q 2637 2976 3014 2617 
Q 3392 2259 3392 1606 
L 3392 1299 
Q 3392 666 2992 301 
Q 2592 -64 1894 -64 
z
" transform="scale(0.015625)"/>
      <path id="JetBrainsMono-Bold-36" d="M 1920 -64 
Q 1440 -64 1085 128 
Q 730 320 534 669 
Q 339 1018 339 1485 
Q 339 1760 457 2115 
Q 576 2470 781 2835 
L 1792 4672 
L 2701 4672 
L 1498 2611 
L 1523 2598 
Q 1619 2733 1804 2809 
Q 1990 2886 2208 2886 
Q 2598 2886 2889 2710 
Q 3181 2534 3341 2214 
Q 3501 1894 3501 1459 
Q 3501 998 3305 656 
Q 3110 314 2755 125 
Q 2400 -64 1920 -64 
z
M 1920 614 
Q 2278 614 2496 841 
Q 2714 1069 2714 1446 
Q 2714 1830 2496 2057 
Q 2278 2285 1920 2285 
Q 1562 2285 1344 2057 
Q 1126 1830 1126 1446 
Q 1126 1069 1344 841 
Q 1562 614 1920 614 
z
" transform="scale(0.015625)"/>
     </defs>
     <use xlink:href="#JetBrainsMono-Bold-23"/>
     <use xlink:href="#JetBrainsMono-Bold-31" transform="translate(59.999985 0)"/>
     <use xlink:href="#JetBrainsMono-Bold-32" transform="translate(119.999969 0)"/>
     <use xlink:href="#JetBrainsMono-Bold-32" transform="translate(179.999954 0)"/>
     <use xlink:href="#JetBrainsMono-Bold-2c" transform="translate(239.999939 0)"/>
     <use xlink:href="#JetBrainsMono-Bold-35" transform="translate(299.999924 0)"/>
     <use xlink:href="#JetBrainsMono-Bold-35" transform="translate(359.999908 0)"/>
     <use xlink:href="#JetBrainsMono-Bold-36" transform="translate(419.999893 0)"/>
    </g>
   </g>
   <g id="text_23">
    <!-- ▲ +2 -->
    <g style="fill: #4caf50" transform="translate(565.7472 169.488) scale(0.11 -0.11)">
     <defs>
      <path id="JetBrainsMono-Bold-25b2" d="M -64 384 
L 1920 4288 
L 3904 384 
L -64 384 
z
" transform="scale(0.015625)"/>
      <path id="JetBrainsMono-Bold-2b" d="M 1523 589 
L 1523 1741 
L 378 1741 
L 378 2483 
L 1523 2483 
L 1523 3635 
L 2317 3635 
L 2317 2483 
L 3462 2483 
L 3462 1741 
L 2317 1741 
L 2317 589 
L 1523 589 
z
" transform="scale(0.015625)"/>
     </defs>
     <use xlink:href="#JetBrainsMono-Bold-25b2"/>
     <use xlink:href="#JetBrainsMono-Bold-20" transform="translate(59.999985 0)"/>
     <use xlink:href="#JetBrainsMono-Bold-2b" transform="translate(119.999969 0)"/>
     <use xlink:href="#JetBrainsMono-Bold-32" transform="translate(179.999954 0)"/>
    </g>
   </g>
  </g>
 </g>
 <defs>
  <clipPath id="pe3815803f1">
   <rect x="55.296" y="55.44" width="490.752" height="269.28"/>
  </clipPath>
 </defs>
</svg>
