<?xml version="1.0" encoding="utf-8" standalone="no"?>
<!DOCTYPE svg PUBLIC "-//W3C//DTD SVG 1.1//EN"
  "http://www.w3.org/Graphics/SVG/1.1/DTD/svg11.dtd">
<svg xmlns:xlink="http://www.w3.org/1999/xlink" width="691.2pt" height="396pt" viewBox="0 0 691.2 396" xmlns="http://www.w3.org/2000/svg" version="1.1">
 <metadata>
  <rdf:RDF xmlns:dc="http://purl.org/dc/elements/1.1/" xmlns:cc="http://creativecommons.org/ns#" xmlns:rdf="http://www.w3.org/1999/02/22-rdf-syntax-ns#">
   <cc:Work>
    <dc:type rdf:resource="http://purl.org/dc/dcmitype/StillImage"/>
    <dc:date>2026-04-24T15:56:44.924859</dc:date>
    <dc:format>image/svg+xml</dc:format>
    <dc:creator>
     <cc:Agent>
      <dc:title>Matplotlib v3.10.9, https://matplotlib.org/</dc:title>
     </cc:Agent>
    </dc:creator>
   </cc:Work>
  </rdf:RDF>
 </metadata>
 <defs>
  <style type="text/css">*{stroke-linejoin: round; stroke-linecap: butt}</style>
 </defs>
 <g id="figure_1">
  <g id="patch_1">
   <path d="M 0 396 
L 691.2 396 
L 691.2 0 
L 0 0 
L 0 396 
z
" style="fill: none"/>
  </g>
  <g id="axes_1">
   <g id="patch_2">
    <path d="M 55.296 324.72 
L 546.048 324.72 
L 546.048 55.44 
L 55.296 55.44 
L 55.296 324.72 
z
" style="fill: none"/>
   </g>
   <g id="matplotlib.axis_1">
    <g id="xtick_1">
     <g id="line2d_1">
      <path d="M 84.74112 324.72 
L 84.74112 55.44 
" clip-path="url(#p7bd28b2253)" style="fill: none; stroke-dasharray: 2.22,0.96; stroke-dashoffset: 0; stroke: #e2d5f5; stroke-opacity: 0.7; stroke-width: 0.6"/>
     </g>
     <g id="line2d_2">
      <defs>
       <path id="m2cc167c1dc" d="M 0 0 
L 0 3.5 
" style="stroke: #9b8bb8; stroke-width: 0.8"/>
      </defs>
      <g>
       <use xlink:href="#m2cc167c1dc" x="84.74112" y="324.72" style="fill: #9b8bb8; stroke: #9b8bb8; stroke-width: 0.8"/>
      </g>
     </g>
     <g id="text_1">
      <!-- 04/01 -->
      <g style="fill: #9b8bb8" transform="translate(73.200739 353.301793) rotate(-30) scale(0.1 -0.1)">
       <defs>
        <path id="JetBrainsMono-Regular-30" d="M 1920 -64 
Q 1274 -64 893 310 
Q 512 685 512 1312 
L 512 3360 
Q 512 3987 893 4361 
Q 1274 4736 1920 4736 
Q 2566 4736 2947 4361 
Q 3328 3987 3328 3360 
L 3328 1312 
Q 3328 896 3155 585 
Q 2982 275 2665 105 
Q 2349 -64 1920 -64 
z
M 1920 429 
Q 2304 429 2537 675 
Q 2771 922 2771 1312 
L 2771 3360 
Q 2771 3750 2537 3996 
Q 2304 4243 1920 4243 
Q 1536 4243 1302 3996 
Q 1069 3750 1069 3360 
L 1069 1312 
Q 1069 922 1302 675 
Q 1536 429 1920 429 
z
M 1920 1984 
Q 1747 1984 1641 2080 
Q 1536 2176 1536 2355 
Q 1536 2528 1641 2621 
Q 1747 2714 1920 2714 
Q 2093 2714 2198 2621 
Q 2304 2528 2304 2355 
Q 2304 2176 2198 2080 
Q 2093 1984 1920 1984 
z
" transform="scale(0.015625)"/>
        <path id="JetBrainsMono-Regular-34" d="M 2560 0 
L 2560 1024 
L 448 1024 
L 448 1926 
L 2150 4672 
L 2803 4672 
L 1024 1798 
L 1024 1549 
L 2560 1549 
L 2560 2688 
L 3136 2688 
L 3136 0 
L 2560 0 
z
" transform="scale(0.015625)"/>
        <path id="JetBrainsMono-Regular-2f" d="M 480 -704 
L 2752 5312 
L 3360 5312 
L 1088 -704 
L 480 -704 
z
" transform="scale(0.015625)"/>
        <path id="JetBrainsMono-Regular-31" d="M 576 0 
L 576 525 
L 1843 525 
L 1843 4173 
L 576 3226 
L 576 3885 
L 1632 4672 
L 2419 4672 
L 2419 525 
L 3456 525 
L 3456 0 
L 576 0 
z
" transform="scale(0.015625)"/>
       </defs>
       <use xlink:href="#JetBrainsMono-Regular-30"/>
       <use xlink:href="#JetBrainsMono-Regular-34" transform="translate(59.999985 0)"/>
       <use xlink:href="#JetBrainsMono-Regular-2f" transform="translate(119.999969 0)"/>
       <use xlink:href="#JetBrainsMono-Regular-30" transform="translate(179.999954 0)"/>
       <use xlink:href="#JetBrainsMono-Regular-31" transform="translate(239.999939 0)"/>
      </g>
     </g>
    </g>
    <g id="xtick_2">
     <g id="line2d_3">
      <path d="M 143.63136 324.72 
L 143.63136 55.44 
" clip-path="url(#p7bd28b2253)" style="fill: none; stroke-dasharray: 2.22,0.96; stroke-dashoffset: 0; stroke: #e2d5f5; stroke-opacity: 0.7; stroke-width: 0.6"/>
     </g>
     <g id="line2d_4">
      <g>
       <use xlink:href="#m2cc167c1dc" x="143.63136" y="324.72" style="fill: #9b8bb8; stroke: #9b8bb8; stroke-width: 0.8"/>
      </g>
     </g>
     <g id="text_2">
      <!-- 04/04 -->
      <g style="fill: #9b8bb8" transform="translate(132.090979 353.301793) rotate(-30) scale(0.1 -0.1)">
       <use xlink:href="#JetBrainsMono-Regular-30"/>
       <use xlink:href="#JetBrainsMono-Regular-34" transform="translate(59.999985 0)"/>
       <use xlink:href="#JetBrainsMono-Regular-2f" transform="translate(119.999969 0)"/>
       <use xlink:href="#JetBrainsMono-Regular-30" transform="translate(179.999954 0)"/>
       <use xlink:href="#JetBrainsMono-Regular-34" transform="translate(239.999939 0)"/>
      </g>
     </g>
    </g>
    <g id="xtick_3">
     <g id="line2d_5">
      <path d="M 202.5216 324.72 
L 202.5216 55.44 
" clip-path="url(#p7bd28b2253)" style="fill: none; stroke-dasharray: 2.22,0.96; stroke-dashoffset: 0; stroke: #e2d5f5; stroke-opacity: 0.7; stroke-width: 0.6"/>
     </g>
     <g id="line2d_6">
      <g>
       <use xlink:href="#m2cc167c1dc" x="202.5216" y="324.72" style="fill: #9b8bb8; stroke: #9b8bb8; stroke-width: 0.8"/>
      </g>
     </g>
     <g id="text_3">
      <!-- 04/07 -->
      <g style="fill: #9b8bb8" transform="translate(190.981219 353.301793) rotate(-30) scale(0.1 -0.1)">
       <defs>
        <path id="JetBrainsMono-Regular-37" d="M 1216 0 
L 2880 4147 
L 1101 4147 
L 1101 3392 
L 525 3392 
L 525 4672 
L 3494 4672 
L 3494 4134 
L 1843 0 
L 1216 0 
z
" transform="scale(0.015625)"/>
       </defs>
       <use xlink:href="#JetBrainsMono-Regular-30"/>
       <use xlink:href="#JetBrainsMono-Regular-34" transform="translate(59.999985 0)"/>
       <use xlink:href="#JetBrainsMono-Regular-2f" transform="translate(119.999969 0)"/>
       <use xlink:href="#JetBrainsMono-Regular-30" transform="translate(179.999954 0)"/>
       <use xlink:href="#JetBrainsMono-Regular-37" transform="translate(239.999939 0)"/>
      </g>
     </g>
    </g>
    <g id="xtick_4">
     <g id="line2d_7">
      <path d="M 261.41184 324.72 
L 261.41184 55.44 
" clip-path="url(#p7bd28b2253)" style="fill: none; stroke-dasharray: 2.22,0.96; stroke-dashoffset: 0; stroke: #e2d5f5; stroke-opacity: 0.7; stroke-width: 0.6"/>
     </g>
     <g id="line2d_8">
      <g>
       <use xlink:href="#m2cc167c1dc" x="261.41184" y="324.72" style="fill: #9b8bb8; stroke: #9b8bb8; stroke-width: 0.8"/>
      </g>
     </g>
     <g id="text_4">
      <!-- 04/10 -->
      <g style="fill: #9b8bb8" transform="translate(249.871459 353.301793) rotate(-30) scale(0.1 -0.1)">
       <use xlink:href="#JetBrainsMono-Regular-30"/>
       <use xlink:href="#JetBrainsMono-Regular-34" transform="translate(59.999985 0)"/>
       <use xlink:href="#JetBrainsMono-Regular-2f" transform="translate(119.999969 0)"/>
       <use xlink:href="#JetBrainsMono-Regular-31" transform="translate(179.999954 0)"/>
       <use xlink:href="#JetBrainsMono-Regular-30" transform="translate(239.999939 0)"/>
      </g>
     </g>
    </g>
    <g id="xtick_5">
     <g id="line2d_9">
      <path d="M 320.30208 324.72 
L 320.30208 55.44 
" clip-path="url(#p7bd28b2253)" style="fill: none; stroke-dasharray: 2.22,0.96; stroke-dashoffset: 0; stroke: #e2d5f5; stroke-opacity: 0.7; stroke-width: 0.6"/>
     </g>
     <g id="line2d_10">
      <g>
       <use xlink:href="#m2cc167c1dc" x="320.30208" y="324.72" style="fill: #9b8bb8; stroke: #9b8bb8; stroke-width: 0.8"/>
      </g>
     </g>
     <g id="text_5">
      <!-- 04/13 -->
      <g style="fill: #9b8bb8" transform="translate(308.761699 353.301793) rotate(-30) scale(0.1 -0.1)">
       <defs>
        <path id="JetBrainsMono-Regular-33" d="M 1850 -64 
Q 1203 -64 825 297 
Q 448 659 448 1280 
L 1024 1280 
Q 1024 896 1248 672 
Q 1472 448 1856 448 
Q 2240 448 2464 672 
Q 2688 896 2688 1280 
L 2688 1600 
Q 2688 1984 2464 2208 
Q 2240 2432 1856 2432 
L 1350 2432 
L 1350 2931 
L 2496 4147 
L 576 4147 
L 576 4672 
L 3149 4672 
L 3149 4134 
L 2022 2938 
Q 2598 2893 2931 2537 
Q 3264 2182 3264 1600 
L 3264 1280 
Q 3264 659 2883 297 
Q 2502 -64 1850 -64 
z
" transform="scale(0.015625)"/>
       </defs>
       <use xlink:href="#JetBrainsMono-Regular-30"/>
       <use xlink:href="#JetBrainsMono-Regular-34" transform="translate(59.999985 0)"/>
       <use xlink:href="#JetBrainsMono-Regular-2f" transform="translate(119.999969 0)"/>
       <use xlink:href="#JetBrainsMono-Regular-31" transform="translate(179.999954 0)"/>
       <use xlink:href="#JetBrainsMono-Regular-33" transform="translate(239.999939 0)"/>
      </g>
     </g>
    </g>
    <g id="xtick_6">
     <g id="line2d_11">
      <path d="M 379.19232 324.72 
L 379.19232 55.44 
" clip-path="url(#p7bd28b2253)" style="fill: none; stroke-dasharray: 2.22,0.96; stroke-dashoffset: 0; stroke: #e2d5f5; stroke-opacity: 0.7; stroke-width: 0.6"/>
     </g>
     <g id="line2d_12">
      <g>
       <use xlink:href="#m2cc167c1dc" x="379.19232" y="324.72" style="fill: #9b8bb8; stroke: #9b8bb8; stroke-width: 0.8"/>
      </g>
     </g>
     <g id="text_6">
      <!-- 04/16 -->
      <g style="fill: #9b8bb8" transform="translate(367.651939 353.301793) rotate(-30) scale(0.1 -0.1)">
       <defs>
        <path id="JetBrainsMono-Regular-36" d="M 1926 -64 
Q 1478 -64 1136 125 
Q 794 314 602 650 
Q 410 986 410 1427 
Q 410 1734 525 2057 
Q 640 2381 838 2733 
L 1920 4672 
L 2560 4672 
L 1408 2669 
L 1427 2656 
Q 1510 2765 1676 2822 
Q 1843 2880 2042 2880 
Q 2458 2880 2768 2697 
Q 3078 2515 3254 2195 
Q 3430 1875 3430 1453 
Q 3430 1005 3238 662 
Q 3046 320 2710 128 
Q 2374 -64 1926 -64 
z
M 1920 448 
Q 2336 448 2595 723 
Q 2854 998 2854 1440 
Q 2854 1882 2595 2157 
Q 2336 2432 1920 2432 
Q 1504 2432 1245 2157 
Q 986 1882 986 1440 
Q 986 998 1245 723 
Q 1504 448 1920 448 
z
" transform="scale(0.015625)"/>
       </defs>
       <use xlink:href="#JetBrainsMono-Regular-30"/>
       <use xlink:href="#JetBrainsMono-Regular-34" transform="translate(59.999985 0)"/>
       <use xlink:href="#JetBrainsMono-Regular-2f" transform="translate(119.999969 0)"/>
       <use xlink:href="#JetBrainsMono-Regular-31" transform="translate(179.999954 0)"/>
       <use xlink:href="#JetBrainsMono-Regular-36" transform="translate(239.999939 0)"/>
      </g>
     </g>
    </g>
    <g id="xtick_7">
     <g id="line2d_13">
      <path d="M 438.08256 324.72 
L 438.08256 55.44 
" clip-path="url(#p7bd28b2253)" style="fill: none; stroke-dasharray: 2.22,0.96; stroke-dashoffset: 0; stroke: #e2d5f5; stroke-opacity: 0.7; stroke-width: 0.6"/>
     </g>
     <g id="line2d_14">
      <g>
       <use xlink:href="#m2cc167c1dc" x="438.08256" y="324.72" style="fill: #9b8bb8; stroke: #9b8bb8; stroke-width: 0.8"/>
      </g>
     </g>
     <g id="text_7">
      <!-- 04/19 -->
      <g style="fill: #9b8bb8" transform="translate(426.542179 353.301793) rotate(-30) scale(0.1 -0.1)">
       <defs>
        <path id="JetBrainsMono-Regular-39" d="M 1248 0 
L 2400 2003 
L 2381 2016 
Q 2317 1914 2144 1853 
Q 1971 1792 1766 1792 
Q 1363 1792 1059 1974 
Q 755 2157 582 2477 
Q 410 2797 410 3219 
Q 410 3674 602 4013 
Q 794 4352 1133 4544 
Q 1472 4736 1914 4736 
Q 2368 4736 2707 4547 
Q 3046 4358 3238 4022 
Q 3430 3686 3430 3245 
Q 3430 2938 3315 2614 
Q 3200 2291 3002 1939 
L 1920 0 
L 1248 0 
z
M 1920 2240 
Q 2336 2240 2595 2515 
Q 2854 2790 2854 3232 
Q 2854 3674 2595 3949 
Q 2336 4224 1920 4224 
Q 1504 4224 1245 3949 
Q 986 3674 986 3232 
Q 986 2790 1245 2515 
Q 1504 2240 1920 2240 
z
" transform="scale(0.015625)"/>
       </defs>
       <use xlink:href="#JetBrainsMono-Regular-30"/>
       <use xlink:href="#JetBrainsMono-Regular-34" transform="translate(59.999985 0)"/>
       <use xlink:href="#JetBrainsMono-Regular-2f" transform="translate(119.999969 0)"/>
       <use xlink:href="#JetBrainsMono-Regular-31" transform="translate(179.999954 0)"/>
       <use xlink:href="#JetBrainsMono-Regular-39" transform="translate(239.999939 0)"/>
      </g>
     </g>
    </g>
    <g id="xtick_8">
     <g id="line2d_15">
      <path d="M 496.9728 324.72 
L 496.9728 55.44 
" clip-path="url(#p7bd28b2253)" style="fill: none; stroke-dasharray: 2.22,0.96; stroke-dashoffset: 0; stroke: #e2d5f5; stroke-opacity: 0.7; stroke-width: 0.6"/>
     </g>
     <g id="line2d_16">
      <g>
       <use xlink:href="#m2cc167c1dc" x="496.9728" y="324.72" style="fill: #9b8bb8; stroke: #9b8bb8; stroke-width: 0.8"/>
      </g>
     </g>
     <g id="text_8">
      <!-- 04/22 -->
      <g style="fill: #9b8bb8" transform="translate(485.432419 353.301793) rotate(-30) scale(0.1 -0.1)">
       <defs>
        <path id="JetBrainsMono-Regular-32" d="M 550 0 
L 550 531 
L 2106 2195 
Q 2445 2554 2585 2835 
Q 2726 3117 2726 3386 
Q 2726 3770 2505 3997 
Q 2285 4224 1907 4224 
Q 1517 4224 1289 3990 
Q 1062 3757 1062 3360 
L 486 3360 
Q 506 3994 890 4365 
Q 1274 4736 1907 4736 
Q 2554 4736 2934 4371 
Q 3315 4006 3315 3379 
Q 3315 3046 3132 2675 
Q 2950 2304 2509 1843 
L 1248 525 
L 3373 525 
L 3373 0 
L 550 0 
z
" transform="scale(0.015625)"/>
       </defs>
       <use xlink:href="#JetBrainsMono-Regular-30"/>
       <use xlink:href="#JetBrainsMono-Regular-34" transform="translate(59.999985 0)"/>
       <use xlink:href="#JetBrainsMono-Regular-2f" transform="translate(119.999969 0)"/>
       <use xlink:href="#JetBrainsMono-Regular-32" transform="translate(179.999954 0)"/>
       <use xlink:href="#JetBrainsMono-Regular-32" transform="translate(239.999939 0)"/>
      </g>
     </g>
    </g>
   </g>
   <g id="matplotlib.axis_2">
    <g id="ytick_1">
     <g id="line2d_17">
      <path d="M 55.296 309.990504 
L 546.048 309.990504 
" clip-path="url(#p7bd28b2253)" style="fill: none; stroke-dasharray: 2.22,0.96; stroke-dashoffset: 0; stroke: #e2d5f5; stroke-opacity: 0.7; stroke-width: 0.6"/>
     </g>
     <g id="line2d_18">
      <defs>
       <path id="m5f3471ff63" d="M 0 0 
L -3.5 0 
" style="stroke: #9b8bb8; stroke-width: 0.8"/>
      </defs>
      <g>
       <use xlink:href="#m5f3471ff63" x="55.296" y="309.990504" style="fill: #9b8bb8; stroke: #9b8bb8; stroke-width: 0.8"/>
      </g>
     </g>
     <g id="text_9">
      <!-- 200 -->
      <g style="fill: #9b8bb8" transform="translate(30.296 313.640504) scale(0.1 -0.1)">
       <use xlink:href="#JetBrainsMono-Regular-32"/>
       <use xlink:href="#JetBrainsMono-Regular-30" transform="translate(59.999985 0)"/>
       <use xlink:href="#JetBrainsMono-Regular-30" transform="translate(119.999969 0)"/>
      </g>
     </g>
    </g>
    <g id="ytick_2">
     <g id="line2d_19">
      <path d="M 55.296 273.166765 
L 546.048 273.166765 
" clip-path="url(#p7bd28b2253)" style="fill: none; stroke-dasharray: 2.22,0.96; stroke-dashoffset: 0; stroke: #e2d5f5; stroke-opacity: 0.7; stroke-width: 0.6"/>
     </g>
     <g id="line2d_20">
      <g>
       <use xlink:href="#m5f3471ff63" x="55.296" y="273.166765" style="fill: #9b8bb8; stroke: #9b8bb8; stroke-width: 0.8"/>
      </g>
     </g>
     <g id="text_10">
      <!-- 210 -->
      <g style="fill: #9b8bb8" transform="translate(30.296 276.816765) scale(0.1 -0.1)">
       <use xlink:href="#JetBrainsMono-Regular-32"/>
       <use xlink:href="#JetBrainsMono-Regular-31" transform="translate(59.999985 0)"/>
       <use xlink:href="#JetBrainsMono-Regular-30" transform="translate(119.999969 0)"/>
      </g>
     </g>
    </g>
    <g id="ytick_3">
     <g id="line2d_21">
      <path d="M 55.296 236.343026 
L 546.048 236.343026 
" clip-path="url(#p7bd28b2253)" style="fill: none; stroke-dasharray: 2.22,0.96; stroke-dashoffset: 0; stroke: #e2d5f5; stroke-opacity: 0.7; stroke-width: 0.6"/>
     </g>
     <g id="line2d_22">
      <g>
       <use xlink:href="#m5f3471ff63" x="55.296" y="236.343026" style="fill: #9b8bb8; stroke: #9b8bb8; stroke-width: 0.8"/>
      </g>
     </g>
     <g id="text_11">
      <!-- 220 -->
      <g style="fill: #9b8bb8" transform="translate(30.296 239.993026) scale(0.1 -0.1)">
       <use xlink:href="#JetBrainsMono-Regular-32"/>
       <use xlink:href="#JetBrainsMono-Regular-32" transform="translate(59.999985 0)"/>
       <use xlink:href="#JetBrainsMono-Regular-30" transform="translate(119.999969 0)"/>
      </g>
     </g>
    </g>
    <g id="ytick_4">
     <g id="line2d_23">
      <path d="M 55.296 199.519287 
L 546.048 199.519287 
" clip-path="url(#p7bd28b2253)" style="fill: none; stroke-dasharray: 2.22,0.96; stroke-dashoffset: 0; stroke: #e2d5f5; stroke-opacity: 0.7; stroke-width: 0.6"/>
     </g>
     <g id="line2d_24">
      <g>
       <use xlink:href="#m5f3471ff63" x="55.296" y="199.519287" style="fill: #9b8bb8; stroke: #9b8bb8; stroke-width: 0.8"/>
      </g>
     </g>
     <g id="text_12">
      <!-- 230 -->
      <g style="fill: #9b8bb8" transform="translate(30.296 203.169287) scale(0.1 -0.1)">
       <use xlink:href="#JetBrainsMono-Regular-32"/>
       <use xlink:href="#JetBrainsMono-Regular-33" transform="translate(59.999985 0)"/>
       <use xlink:href="#JetBrainsMono-Regular-30" transform="translate(119.999969 0)"/>
      </g>
     </g>
    </g>
    <g id="ytick_5">
     <g id="line2d_25">
      <path d="M 55.296 162.695548 
L 546.048 162.695548 
" clip-path="url(#p7bd28b2253)" style="fill: none; stroke-dasharray: 2.22,0.96; stroke-dashoffset: 0; stroke: #e2d5f5; stroke-opacity: 0.7; stroke-width: 0.6"/>
     </g>
     <g id="line2d_26">
      <g>
       <use xlink:href="#m5f3471ff63" x="55.296" y="162.695548" style="fill: #9b8bb8; stroke: #9b8bb8; stroke-width: 0.8"/>
      </g>
     </g>
     <g id="text_13">
      <!-- 240 -->
      <g style="fill: #9b8bb8" transform="translate(30.296 166.345548) scale(0.1 -0.1)">
       <use xlink:href="#JetBrainsMono-Regular-32"/>
       <use xlink:href="#JetBrainsMono-Regular-34" transform="translate(59.999985 0)"/>
       <use xlink:href="#JetBrainsMono-Regular-30" transform="translate(119.999969 0)"/>
      </g>
     </g>
    </g>
    <g id="ytick_6">
     <g id="line2d_27">
      <path d="M 55.296 125.871809 
L 546.048 125.871809 
" clip-path="url(#p7bd28b2253)" style="fill: none; stroke-dasharray: 2.22,0.96; stroke-dashoffset: 0; stroke: #e2d5f5; stroke-opacity: 0.7; stroke-width: 0.6"/>
     </g>
     <g id="line2d_28">
      <g>
       <use xlink:href="#m5f3471ff63" x="55.296" y="125.871809" style="fill: #9b8bb8; stroke: #9b8bb8; stroke-width: 0.8"/>
      </g>
     </g>
     <g id="text_14">
      <!-- 250 -->
      <g style="fill: #9b8bb8" transform="translate(30.296 129.521809) scale(0.1 -0.1)">
       <defs>
        <path id="JetBrainsMono-Regular-35" d="M 1882 -64 
Q 1235 -64 857 297 
Q 480 659 480 1280 
L 1056 1280 
Q 1056 896 1280 672 
Q 1504 448 1888 448 
Q 2272 448 2496 672 
Q 2720 896 2720 1280 
L 2720 1568 
Q 2720 1952 2502 2176 
Q 2285 2400 1914 2400 
L 640 2400 
L 640 4672 
L 3130 4672 
L 3130 4147 
L 1178 4147 
L 1190 2925 
L 1946 2925 
Q 2592 2925 2944 2569 
Q 3296 2214 3296 1568 
L 3296 1280 
Q 3296 659 2915 297 
Q 2534 -64 1882 -64 
z
" transform="scale(0.015625)"/>
       </defs>
       <use xlink:href="#JetBrainsMono-Regular-32"/>
       <use xlink:href="#JetBrainsMono-Regular-35" transform="translate(59.999985 0)"/>
       <use xlink:href="#JetBrainsMono-Regular-30" transform="translate(119.999969 0)"/>
      </g>
     </g>
    </g>
    <g id="ytick_7">
     <g id="line2d_29">
      <path d="M 55.296 89.04807 
L 546.048 89.04807 
" clip-path="url(#p7bd28b2253)" style="fill: none; stroke-dasharray: 2.22,0.96; stroke-dashoffset: 0; stroke: #e2d5f5; stroke-opacity: 0.7; stroke-width: 0.6"/>
     </g>
     <g id="line2d_30">
      <g>
       <use xlink:href="#m5f3471ff63" x="55.296" y="89.04807" style="fill: #9b8bb8; stroke: #9b8bb8; stroke-width: 0.8"/>
      </g>
     </g>
     <g id="text_15">
      <!-- 260 -->
      <g style="fill: #9b8bb8" transform="translate(30.296 92.69807) scale(0.1 -0.1)">
       <use xlink:href="#JetBrainsMono-Regular-32"/>
       <use xlink:href="#JetBrainsMono-Regular-36" transform="translate(59.999985 0)"/>
       <use xlink:href="#JetBrainsMono-Regular-30" transform="translate(119.999969 0)"/>
      </g>
     </g>
    </g>
    <g id="text_16">
     <!-- Rating -->
     <g style="fill: #9b8bb8" transform="translate(24.496 208.08) rotate(-90) scale(0.1 -0.1)">
      <defs>
       <path id="JetBrainsMono-Regular-52" d="M 595 0 
L 595 4672 
L 2035 4672 
Q 2451 4672 2764 4502 
Q 3078 4333 3251 4032 
Q 3424 3731 3424 3328 
Q 3424 2854 3181 2515 
Q 2938 2176 2534 2042 
L 3488 0 
L 2854 0 
L 1939 1984 
L 1165 1984 
L 1165 0 
L 595 0 
z
M 1165 2502 
L 2035 2502 
Q 2394 2502 2611 2729 
Q 2829 2957 2829 3328 
Q 2829 3706 2611 3930 
Q 2394 4154 2035 4154 
L 1165 4154 
L 1165 2502 
z
" transform="scale(0.015625)"/>
       <path id="JetBrainsMono-Regular-61" d="M 1613 -64 
Q 1069 -64 749 240 
Q 429 544 429 1037 
Q 429 1363 576 1606 
Q 723 1850 985 1987 
Q 1248 2125 1587 2125 
L 2675 2125 
L 2675 2400 
Q 2675 3085 1926 3085 
Q 1594 3085 1389 2963 
Q 1184 2842 1171 2624 
L 595 2624 
Q 627 3040 982 3312 
Q 1338 3584 1926 3584 
Q 2566 3584 2908 3277 
Q 3251 2970 3251 2419 
L 3251 0 
L 2682 0 
L 2682 640 
L 2669 640 
Q 2618 314 2342 125 
Q 2067 -64 1613 -64 
z
M 1754 422 
Q 2176 422 2425 627 
Q 2675 832 2675 1184 
L 2675 1677 
L 1651 1677 
Q 1370 1677 1194 1507 
Q 1018 1338 1018 1056 
Q 1018 762 1213 592 
Q 1408 422 1754 422 
z
" transform="scale(0.015625)"/>
       <path id="JetBrainsMono-Regular-74" d="M 2272 0 
Q 1837 0 1574 253 
Q 1312 506 1312 928 
L 1312 2995 
L 301 2995 
L 301 3520 
L 1312 3520 
L 1312 4512 
L 1888 4512 
L 1888 3520 
L 3328 3520 
L 3328 2995 
L 1888 2995 
L 1888 928 
Q 1888 749 1993 637 
Q 2099 525 2272 525 
L 3296 525 
L 3296 0 
L 2272 0 
z
" transform="scale(0.015625)"/>
       <path id="JetBrainsMono-Regular-69" d="M 544 0 
L 544 525 
L 1792 525 
L 1792 2995 
L 672 2995 
L 672 3520 
L 2368 3520 
L 2368 525 
L 3552 525 
L 3552 0 
L 544 0 
z
M 2016 4154 
Q 1805 4154 1683 4262 
Q 1562 4371 1562 4557 
Q 1562 4749 1683 4861 
Q 1805 4973 2016 4973 
Q 2227 4973 2348 4861 
Q 2470 4749 2470 4557 
Q 2470 4371 2348 4262 
Q 2227 4154 2016 4154 
z
" transform="scale(0.015625)"/>
       <path id="JetBrainsMono-Regular-6e" d="M 589 0 
L 589 3520 
L 1165 3520 
L 1165 2848 
L 1171 2848 
Q 1216 3200 1459 3392 
Q 1702 3584 2106 3584 
Q 2637 3584 2950 3257 
Q 3264 2931 3264 2368 
L 3264 0 
L 2688 0 
L 2688 2266 
Q 2688 2669 2486 2883 
Q 2285 3098 1939 3098 
Q 1581 3098 1373 2874 
Q 1165 2650 1165 2240 
L 1165 0 
L 589 0 
z
" transform="scale(0.015625)"/>
       <path id="JetBrainsMono-Regular-67" d="M 1030 -1152 
L 1030 -627 
L 2022 -627 
Q 2323 -627 2496 -457 
Q 2669 -288 2669 0 
L 2669 320 
L 2682 896 
L 2662 896 
Q 2611 582 2361 412 
Q 2112 243 1734 243 
Q 1190 243 876 588 
Q 563 934 563 1536 
L 563 2278 
Q 563 2880 876 3232 
Q 1190 3584 1734 3584 
Q 2112 3584 2361 3405 
Q 2611 3226 2662 2912 
L 2675 2912 
L 2675 3520 
L 3245 3520 
L 3245 0 
Q 3245 -531 2915 -841 
Q 2586 -1152 2016 -1152 
L 1030 -1152 
z
M 1907 723 
Q 2266 723 2470 947 
Q 2675 1171 2675 1568 
L 2675 2240 
Q 2675 2637 2470 2861 
Q 2266 3085 1907 3085 
Q 1542 3085 1340 2873 
Q 1139 2662 1139 2304 
L 1139 1504 
Q 1139 1146 1340 934 
Q 1542 723 1907 723 
z
" transform="scale(0.015625)"/>
      </defs>
      <use xlink:href="#JetBrainsMono-Regular-52"/>
      <use xlink:href="#JetBrainsMono-Regular-61" transform="translate(59.999985 0)"/>
      <use xlink:href="#JetBrainsMono-Regular-74" transform="translate(119.999969 0)"/>
      <use xlink:href="#JetBrainsMono-Regular-69" transform="translate(179.999954 0)"/>
      <use xlink:href="#JetBrainsMono-Regular-6e" transform="translate(239.999939 0)"/>
      <use xlink:href="#JetBrainsMono-Regular-67" transform="translate(299.999924 0)"/>
     </g>
    </g>
   </g>
   <g id="patch_3">
    <path d="M 55.296 324.72 
L 55.296 55.44 
" style="fill: none; stroke: #d8c8ef; stroke-width: 0.8; stroke-linejoin: miter; stroke-linecap: square"/>
   </g>
   <g id="patch_4">
    <path d="M 55.296 324.72 
L 546.048 324.72 
" style="fill: none; stroke: #d8c8ef; stroke-width: 0.8; stroke-linejoin: miter; stroke-linecap: square"/>
   </g>
   <g id="FillBetweenPolyCollection_1">
    <defs>
     <path id="m7bf6b16990" d="M 65.11104 -71.28 
L 65.11104 -89.69187 
L 66.686699 -91.944468 
L 68.262357 -93.631954 
L 69.838016 -94.803647 
L 71.413674 -95.508867 
L 72.989333 -95.796931 
L 74.564992 -95.717159 
L 76.14065 -95.318869 
L 77.716309 -94.651381 
L 79.291967 -93.764013 
L 80.867626 -92.706084 
L 82.443285 -91.526913 
L 84.018943 -90.275818 
L 85.594602 -89.002119 
L 87.17026 -87.755135 
L 88.745919 -86.584183 
L 90.321578 -85.538584 
L 91.897236 -84.667655 
L 93.472895 -84.020717 
L 95.048553 -83.647086 
L 96.624212 -83.596084 
L 98.199871 -83.917027 
L 99.775529 -84.659236 
L 101.351188 -85.872028 
L 102.926846 -87.604724 
L 104.502505 -89.906626 
L 106.078163 -92.795869 
L 107.653822 -96.193317 
L 109.229481 -100.000915 
L 110.805139 -104.120609 
L 112.380798 -108.454345 
L 113.956456 -112.904067 
L 115.532115 -117.371723 
L 117.107774 -121.759256 
L 118.683432 -125.968613 
L 120.259091 -129.901739 
L 121.834749 -133.46058 
L 123.410408 -136.547081 
L 124.986067 -139.069971 
L 126.561725 -141.030083 
L 128.137384 -142.494621 
L 129.713042 -143.532259 
L 131.288701 -144.211667 
L 132.86436 -144.601517 
L 134.440018 -144.770482 
L 136.015677 -144.787233 
L 137.591335 -144.720442 
L 139.166994 -144.63878 
L 140.742653 -144.610921 
L 142.318311 -144.705534 
L 143.89397 -144.991218 
L 145.469628 -145.511259 
L 147.045287 -146.246896 
L 148.620946 -147.170036 
L 150.196604 -148.252587 
L 151.772263 -149.466455 
L 153.347921 -150.783548 
L 154.92358 -152.175771 
L 156.499239 -153.615033 
L 158.074897 -155.073239 
L 159.650556 -156.522298 
L 161.226214 -157.934115 
L 162.801873 -159.280599 
L 164.377532 -160.535877 
L 165.95319 -161.696363 
L 167.528849 -162.771324 
L 169.104507 -163.770182 
L 170.680166 -164.702359 
L 172.255824 -165.577277 
L 173.831483 -166.404359 
L 175.407142 -167.193025 
L 176.9828 -167.952699 
L 178.558459 -168.692802 
L 180.134117 -169.422756 
L 181.709776 -170.151984 
L 183.285435 -170.889946 
L 184.861093 -171.650915 
L 186.436752 -172.458499 
L 188.01241 -173.337383 
L 189.588069 -174.31225 
L 191.163728 -175.407782 
L 192.739386 -176.648664 
L 194.315045 -178.059578 
L 195.890703 -179.665207 
L 197.466362 -181.490236 
L 199.042021 -183.559347 
L 200.617679 -185.897224 
L 202.193338 -188.528549 
L 203.768996 -191.470802 
L 205.344655 -194.686757 
L 206.920314 -198.114096 
L 208.495972 -201.690368 
L 210.071631 -205.353123 
L 211.647289 -209.03991 
L 213.222948 -212.688277 
L 214.798607 -216.235775 
L 216.374265 -219.619953 
L 217.949924 -222.778361 
L 219.525582 -225.648546 
L 221.101241 -228.16806 
L 222.6769 -230.275168 
L 224.252558 -231.951165 
L 225.828217 -233.244043 
L 227.403875 -234.207528 
L 228.979534 -234.895347 
L 230.555193 -235.361228 
L 232.130851 -235.658899 
L 233.70651 -235.842086 
L 235.282168 -235.964517 
L 236.857827 -236.079919 
L 238.433485 -236.24202 
L 240.009144 -236.504546 
L 241.584803 -236.921226 
L 243.160461 -237.536798 
L 244.73612 -238.343516 
L 246.311778 -239.314635 
L 247.887437 -240.423382 
L 249.463096 -241.642988 
L 251.038754 -242.94668 
L 252.614413 -244.307688 
L 254.190071 -245.699241 
L 255.76573 -247.094566 
L 257.341389 -248.466894 
L 258.917047 -249.789452 
L 260.492706 -251.03547 
L 262.068364 -252.178729 
L 263.644023 -253.212527 
L 265.219682 -254.154425 
L 266.79534 -255.023502 
L 268.370999 -255.838839 
L 269.946657 -256.619513 
L 271.522316 -257.384604 
L 273.097975 -258.153191 
L 274.673633 -258.944354 
L 276.249292 -259.777171 
L 277.82495 -260.670721 
L 279.400609 -261.644084 
L 280.976268 -262.716338 
L 282.551926 -263.901525 
L 284.127585 -265.190846 
L 285.703243 -266.569036 
L 287.278902 -268.020827 
L 288.854561 -269.530953 
L 290.430219 -271.084146 
L 292.005878 -272.66514 
L 293.581536 -274.258668 
L 295.157195 -275.849464 
L 296.732854 -277.42226 
L 298.308512 -278.961789 
L 299.884171 -280.452785 
L 301.459829 -281.880698 
L 303.035488 -283.247462 
L 304.611146 -284.571497 
L 306.186805 -285.871938 
L 307.762464 -287.167921 
L 309.338122 -288.478582 
L 310.913781 -289.823057 
L 312.489439 -291.220483 
L 314.065098 -292.689994 
L 315.640757 -294.250727 
L 317.216415 -295.921818 
L 318.792074 -297.722402 
L 320.367732 -299.671615 
L 321.943391 -301.777752 
L 323.51905 -304.010832 
L 325.094708 -306.33243 
L 326.670367 -308.704121 
L 328.246025 -311.08748 
L 329.821684 -313.444084 
L 331.397343 -315.735508 
L 332.973001 -317.923327 
L 334.54866 -319.969116 
L 336.124318 -321.834451 
L 337.699977 -323.480908 
L 339.275636 -324.870061 
L 340.851294 -325.965808 
L 342.426953 -326.769169 
L 344.002611 -327.311027 
L 345.57827 -327.62311 
L 347.153929 -327.737143 
L 348.729587 -327.684854 
L 350.305246 -327.497971 
L 351.880904 -327.208221 
L 353.456563 -326.847331 
L 355.032222 -326.447027 
L 356.60788 -326.039038 
L 358.183539 -325.65509 
L 359.759197 -325.326898 
L 361.334856 -325.076682 
L 362.910515 -324.900431 
L 364.486173 -324.789646 
L 366.061832 -324.735823 
L 367.63749 -324.730463 
L 369.213149 -324.765064 
L 370.788807 -324.831125 
L 372.364466 -324.920144 
L 373.940125 -325.02362 
L 375.515783 -325.133051 
L 377.091442 -325.239938 
L 378.6671 -325.335777 
L 380.242759 -325.412601 
L 381.818418 -325.468628 
L 383.394076 -325.50607 
L 384.969735 -325.527205 
L 386.545393 -325.53431 
L 388.121052 -325.529663 
L 389.696711 -325.515543 
L 391.272369 -325.494227 
L 392.848028 -325.467994 
L 394.423686 -325.43912 
L 395.999345 -325.409885 
L 397.575004 -325.382565 
L 399.150662 -325.359435 
L 400.726321 -325.341936 
L 402.301979 -325.329697 
L 403.877638 -325.322107 
L 405.453297 -325.318556 
L 407.028955 -325.318434 
L 408.604614 -325.32113 
L 410.180272 -325.326033 
L 411.755931 -325.332534 
L 413.33159 -325.340022 
L 414.907248 -325.347887 
L 416.482907 -325.355519 
L 418.058565 -325.362306 
L 419.634224 -325.367693 
L 421.209883 -325.371599 
L 422.785541 -325.374183 
L 424.3612 -325.37561 
L 425.936858 -325.376044 
L 427.512517 -325.375647 
L 429.088176 -325.374584 
L 430.663834 -325.373018 
L 432.239493 -325.371113 
L 433.815151 -325.369031 
L 435.39081 -325.366937 
L 436.966468 -325.364995 
L 438.542127 -325.363366 
L 440.117786 -325.362143 
L 441.693444 -325.361293 
L 443.269103 -325.360774 
L 444.844761 -325.360541 
L 446.42042 -325.360551 
L 447.996079 -325.360759 
L 449.571737 -325.361123 
L 451.147396 -325.361597 
L 452.723054 -325.362139 
L 454.298713 -325.362704 
L 455.874372 -325.363248 
L 457.45003 -325.363729 
L 459.025689 -325.364106 
L 460.601347 -325.364379 
L 462.177006 -325.364557 
L 463.752665 -325.364653 
L 465.328323 -325.364679 
L 466.903982 -325.364646 
L 468.47964 -325.364567 
L 470.055299 -325.364452 
L 471.630958 -325.364314 
L 473.206616 -325.364163 
L 474.782275 -325.364013 
L 476.357933 -325.363875 
L 477.933592 -325.36376 
L 479.509251 -325.363674 
L 481.084909 -325.363614 
L 482.660568 -325.363578 
L 484.236226 -325.363562 
L 485.811885 -325.363563 
L 487.387544 -325.363579 
L 488.963202 -325.363605 
L 490.538861 -325.36364 
L 492.114519 -325.36368 
L 493.690178 -325.363721 
L 495.265837 -325.363761 
L 496.841495 -325.363797 
L 498.417154 -325.363826 
L 499.992812 -325.363847 
L 501.568471 -325.363862 
L 503.144129 -325.363872 
L 504.719788 -325.363876 
L 506.295447 -325.363875 
L 507.871105 -325.36387 
L 509.446764 -325.363862 
L 511.022422 -325.363851 
L 512.598081 -325.363838 
L 514.17374 -325.363824 
L 515.749398 -325.363808 
L 517.325057 -325.363792 
L 518.900715 -325.363776 
L 520.476374 -325.363762 
L 522.052033 -325.363748 
L 523.627691 -325.363737 
L 525.20335 -325.363729 
L 526.779008 -325.363724 
L 528.354667 -325.363723 
L 529.930326 -325.363727 
L 531.505984 -325.363735 
L 533.081643 -325.36375 
L 534.657301 -325.363771 
L 536.23296 -325.363799 
L 536.23296 -71.28 
L 536.23296 -71.28 
L 534.657301 -71.28 
L 533.081643 -71.28 
L 531.505984 -71.28 
L 529.930326 -71.28 
L 528.354667 -71.28 
L 526.779008 -71.28 
L 525.20335 -71.28 
L 523.627691 -71.28 
L 522.052033 -71.28 
L 520.476374 -71.28 
L 518.900715 -71.28 
L 517.325057 -71.28 
L 515.749398 -71.28 
L 514.17374 -71.28 
L 512.598081 -71.28 
L 511.022422 -71.28 
L 509.446764 -71.28 
L 507.871105 -71.28 
L 506.295447 -71.28 
L 504.719788 -71.28 
L 503.144129 -71.28 
L 501.568471 -71.28 
L 499.992812 -71.28 
L 498.417154 -71.28 
L 496.841495 -71.28 
L 495.265837 -71.28 
L 493.690178 -71.28 
L 492.114519 -71.28 
L 490.538861 -71.28 
L 488.963202 -71.28 
L 487.387544 -71.28 
L 485.811885 -71.28 
L 484.236226 -71.28 
L 482.660568 -71.28 
L 481.084909 -71.28 
L 479.509251 -71.28 
L 477.933592 -71.28 
L 476.357933 -71.28 
L 474.782275 -71.28 
L 473.206616 -71.28 
L 471.630958 -71.28 
L 470.055299 -71.28 
L 468.47964 -71.28 
L 466.903982 -71.28 
L 465.328323 -71.28 
L 463.752665 -71.28 
L 462.177006 -71.28 
L 460.601347 -71.28 
L 459.025689 -71.28 
L 457.45003 -71.28 
L 455.874372 -71.28 
L 454.298713 -71.28 
L 452.723054 -71.28 
L 451.147396 -71.28 
L 449.571737 -71.28 
L 447.996079 -71.28 
L 446.42042 -71.28 
L 444.844761 -71.28 
L 443.269103 -71.28 
L 441.693444 -71.28 
L 440.117786 -71.28 
L 438.542127 -71.28 
L 436.966468 -71.28 
L 435.39081 -71.28 
L 433.815151 -71.28 
L 432.239493 -71.28 
L 430.663834 -71.28 
L 429.088176 -71.28 
L 427.512517 -71.28 
L 425.936858 -71.28 
L 424.3612 -71.28 
L 422.785541 -71.28 
L 421.209883 -71.28 
L 419.634224 -71.28 
L 418.058565 -71.28 
L 416.482907 -71.28 
L 414.907248 -71.28 
L 413.33159 -71.28 
L 411.755931 -71.28 
L 410.180272 -71.28 
L 408.604614 -71.28 
L 407.028955 -71.28 
L 405.453297 -71.28 
L 403.877638 -71.28 
L 402.301979 -71.28 
L 400.726321 -71.28 
L 399.150662 -71.28 
L 397.575004 -71.28 
L 395.999345 -71.28 
L 394.423686 -71.28 
L 392.848028 -71.28 
L 391.272369 -71.28 
L 389.696711 -71.28 
L 388.121052 -71.28 
L 386.545393 -71.28 
L 384.969735 -71.28 
L 383.394076 -71.28 
L 381.818418 -71.28 
L 380.242759 -71.28 
L 378.6671 -71.28 
L 377.091442 -71.28 
L 375.515783 -71.28 
L 373.940125 -71.28 
L 372.364466 -71.28 
L 370.788807 -71.28 
L 369.213149 -71.28 
L 367.63749 -71.28 
L 366.061832 -71.28 
L 364.486173 -71.28 
L 362.910515 -71.28 
L 361.334856 -71.28 
L 359.759197 -71.28 
L 358.183539 -71.28 
L 356.60788 -71.28 
L 355.032222 -71.28 
L 353.456563 -71.28 
L 351.880904 -71.28 
L 350.305246 -71.28 
L 348.729587 -71.28 
L 347.153929 -71.28 
L 345.57827 -71.28 
L 344.002611 -71.28 
L 342.426953 -71.28 
L 340.851294 -71.28 
L 339.275636 -71.28 
L 337.699977 -71.28 
L 336.124318 -71.28 
L 334.54866 -71.28 
L 332.973001 -71.28 
L 331.397343 -71.28 
L 329.821684 -71.28 
L 328.246025 -71.28 
L 326.670367 -71.28 
L 325.094708 -71.28 
L 323.51905 -71.28 
L 321.943391 -71.28 
L 320.367732 -71.28 
L 318.792074 -71.28 
L 317.216415 -71.28 
L 315.640757 -71.28 
L 314.065098 -71.28 
L 312.489439 -71.28 
L 310.913781 -71.28 
L 309.338122 -71.28 
L 307.762464 -71.28 
L 306.186805 -71.28 
L 304.611146 -71.28 
L 303.035488 -71.28 
L 301.459829 -71.28 
L 299.884171 -71.28 
L 298.308512 -71.28 
L 296.732854 -71.28 
L 295.157195 -71.28 
L 293.581536 -71.28 
L 292.005878 -71.28 
L 290.430219 -71.28 
L 288.854561 -71.28 
L 287.278902 -71.28 
L 285.703243 -71.28 
L 284.127585 -71.28 
L 282.551926 -71.28 
L 280.976268 -71.28 
L 279.400609 -71.28 
L 277.82495 -71.28 
L 276.249292 -71.28 
L 274.673633 -71.28 
L 273.097975 -71.28 
L 271.522316 -71.28 
L 269.946657 -71.28 
L 268.370999 -71.28 
L 266.79534 -71.28 
L 265.219682 -71.28 
L 263.644023 -71.28 
L 262.068364 -71.28 
L 260.492706 -71.28 
L 258.917047 -71.28 
L 257.341389 -71.28 
L 255.76573 -71.28 
L 254.190071 -71.28 
L 252.614413 -71.28 
L 251.038754 -71.28 
L 249.463096 -71.28 
L 247.887437 -71.28 
L 246.311778 -71.28 
L 244.73612 -71.28 
L 243.160461 -71.28 
L 241.584803 -71.28 
L 240.009144 -71.28 
L 238.433485 -71.28 
L 236.857827 -71.28 
L 235.282168 -71.28 
L 233.70651 -71.28 
L 232.130851 -71.28 
L 230.555193 -71.28 
L 228.979534 -71.28 
L 227.403875 -71.28 
L 225.828217 -71.28 
L 224.252558 -71.28 
L 222.6769 -71.28 
L 221.101241 -71.28 
L 219.525582 -71.28 
L 217.949924 -71.28 
L 216.374265 -71.28 
L 214.798607 -71.28 
L 213.222948 -71.28 
L 211.647289 -71.28 
L 210.071631 -71.28 
L 208.495972 -71.28 
L 206.920314 -71.28 
L 205.344655 -71.28 
L 203.768996 -71.28 
L 202.193338 -71.28 
L 200.617679 -71.28 
L 199.042021 -71.28 
L 197.466362 -71.28 
L 195.890703 -71.28 
L 194.315045 -71.28 
L 192.739386 -71.28 
L 191.163728 -71.28 
L 189.588069 -71.28 
L 188.01241 -71.28 
L 186.436752 -71.28 
L 184.861093 -71.28 
L 183.285435 -71.28 
L 181.709776 -71.28 
L 180.134117 -71.28 
L 178.558459 -71.28 
L 176.9828 -71.28 
L 175.407142 -71.28 
L 173.831483 -71.28 
L 172.255824 -71.28 
L 170.680166 -71.28 
L 169.104507 -71.28 
L 167.528849 -71.28 
L 165.95319 -71.28 
L 164.377532 -71.28 
L 162.801873 -71.28 
L 161.226214 -71.28 
L 159.650556 -71.28 
L 158.074897 -71.28 
L 156.499239 -71.28 
L 154.92358 -71.28 
L 153.347921 -71.28 
L 151.772263 -71.28 
L 150.196604 -71.28 
L 148.620946 -71.28 
L 147.045287 -71.28 
L 145.469628 -71.28 
L 143.89397 -71.28 
L 142.318311 -71.28 
L 140.742653 -71.28 
L 139.166994 -71.28 
L 137.591335 -71.28 
L 136.015677 -71.28 
L 134.440018 -71.28 
L 132.86436 -71.28 
L 131.288701 -71.28 
L 129.713042 -71.28 
L 128.137384 -71.28 
L 126.561725 -71.28 
L 124.986067 -71.28 
L 123.410408 -71.28 
L 121.834749 -71.28 
L 120.259091 -71.28 
L 118.683432 -71.28 
L 117.107774 -71.28 
L 115.532115 -71.28 
L 113.956456 -71.28 
L 112.380798 -71.28 
L 110.805139 -71.28 
L 109.229481 -71.28 
L 107.653822 -71.28 
L 106.078163 -71.28 
L 104.502505 -71.28 
L 102.926846 -71.28 
L 101.351188 -71.28 
L 99.775529 -71.28 
L 98.199871 -71.28 
L 96.624212 -71.28 
L 95.048553 -71.28 
L 93.472895 -71.28 
L 91.897236 -71.28 
L 90.321578 -71.28 
L 88.745919 -71.28 
L 87.17026 -71.28 
L 85.594602 -71.28 
L 84.018943 -71.28 
L 82.443285 -71.28 
L 80.867626 -71.28 
L 79.291967 -71.28 
L 77.716309 -71.28 
L 76.14065 -71.28 
L 74.564992 -71.28 
L 72.989333 -71.28 
L 71.413674 -71.28 
L 69.838016 -71.28 
L 68.262357 -71.28 
L 66.686699 -71.28 
L 65.11104 -71.28 
z
" style="stroke: #8b5cf6; stroke-opacity: 0.12"/>
    </defs>
    <g clip-path="url(#p7bd28b2253)">
     <use xlink:href="#m7bf6b16990" x="0" y="396" style="fill: #8b5cf6; fill-opacity: 0.12; stroke: #8b5cf6; stroke-opacity: 0.12"/>
    </g>
   </g>
   <g id="text_17">
    <!-- 265 -->
    <g style="fill: #8b5cf6" transform="translate(539.23296 67.636201) scale(0.12 -0.12)">
     <defs>
      <path id="JetBrainsMono-Bold-32" d="M 474 0 
L 474 723 
L 2157 2445 
Q 2566 2874 2566 3315 
Q 2566 3629 2384 3824 
Q 2202 4019 1894 4019 
Q 1581 4019 1392 3817 
Q 1203 3616 1203 3283 
L 403 3283 
Q 403 3718 595 4044 
Q 787 4371 1126 4553 
Q 1466 4736 1914 4736 
Q 2355 4736 2688 4563 
Q 3021 4390 3203 4080 
Q 3386 3770 3386 3354 
Q 3386 2995 3216 2636 
Q 3046 2278 2656 1894 
L 1478 723 
L 3443 723 
L 3443 0 
L 474 0 
z
" transform="scale(0.015625)"/>
      <path id="JetBrainsMono-Bold-36" d="M 1920 -64 
Q 1440 -64 1085 128 
Q 730 320 534 669 
Q 339 1018 339 1485 
Q 339 1760 457 2115 
Q 576 2470 781 2835 
L 1792 4672 
L 2701 4672 
L 1498 2611 
L 1523 2598 
Q 1619 2733 1804 2809 
Q 1990 2886 2208 2886 
Q 2598 2886 2889 2710 
Q 3181 2534 3341 2214 
Q 3501 1894 3501 1459 
Q 3501 998 3305 656 
Q 3110 314 2755 125 
Q 2400 -64 1920 -64 
z
M 1920 614 
Q 2278 614 2496 841 
Q 2714 1069 2714 1446 
Q 2714 1830 2496 2057 
Q 2278 2285 1920 2285 
Q 1562 2285 1344 2057 
Q 1126 1830 1126 1446 
Q 1126 1069 1344 841 
Q 1562 614 1920 614 
z
" transform="scale(0.015625)"/>
      <path id="JetBrainsMono-Bold-35" d="M 1894 -64 
Q 1210 -64 803 297 
Q 397 659 397 1280 
L 1197 1280 
Q 1197 986 1385 810 
Q 1574 634 1901 634 
Q 2227 634 2409 810 
Q 2592 986 2592 1299 
L 2592 1606 
Q 2592 1920 2413 2096 
Q 2234 2272 1907 2272 
L 557 2272 
L 557 4672 
L 3219 4672 
L 3219 3949 
L 1312 3949 
L 1318 2976 
L 1946 2976 
Q 2637 2976 3014 2617 
Q 3392 2259 3392 1606 
L 3392 1299 
Q 3392 666 2992 301 
Q 2592 -64 1894 -64 
z
" transform="scale(0.015625)"/>
     </defs>
     <use xlink:href="#JetBrainsMono-Bold-32"/>
     <use xlink:href="#JetBrainsMono-Bold-36" transform="translate(59.999985 0)"/>
     <use xlink:href="#JetBrainsMono-Bold-35" transform="translate(119.999969 0)"/>
    </g>
   </g>
   <g id="text_18">
    <!-- Rating History -->
    <g style="fill: #8b5cf6" transform="translate(55.296 50.44) scale(0.17 -0.17)">
     <defs>
      <path id="JetBrainsMono-Bold-52" d="M 493 0 
L 493 4672 
L 1965 4672 
Q 2432 4672 2774 4499 
Q 3117 4326 3309 4016 
Q 3501 3706 3501 3283 
Q 3501 2816 3270 2467 
Q 3040 2118 2650 1971 
L 3565 0 
L 2688 0 
L 1869 1856 
L 1286 1856 
L 1286 0 
L 493 0 
z
M 1286 2560 
L 1965 2560 
Q 2304 2560 2496 2745 
Q 2688 2931 2688 3258 
Q 2688 3584 2493 3776 
Q 2298 3968 1965 3968 
L 1286 3968 
L 1286 2560 
z
" transform="scale(0.015625)"/>
      <path id="JetBrainsMono-Bold-61" d="M 1530 -64 
Q 992 -64 681 240 
Q 371 544 371 1037 
Q 371 1549 723 1853 
Q 1075 2157 1690 2157 
L 2547 2157 
L 2547 2406 
Q 2547 2938 1926 2938 
Q 1645 2938 1478 2829 
Q 1312 2720 1293 2522 
L 525 2522 
Q 550 2995 924 3289 
Q 1299 3584 1933 3584 
Q 2605 3584 2976 3270 
Q 3347 2957 3347 2387 
L 3347 0 
L 2566 0 
L 2566 659 
Q 2522 320 2246 128 
Q 1971 -64 1530 -64 
z
M 1786 589 
Q 2138 589 2342 761 
Q 2547 934 2547 1222 
L 2547 1638 
L 1728 1638 
Q 1466 1638 1312 1491 
Q 1158 1344 1158 1114 
Q 1158 877 1321 733 
Q 1485 589 1786 589 
z
" transform="scale(0.015625)"/>
      <path id="JetBrainsMono-Bold-74" d="M 2272 0 
Q 1779 0 1488 285 
Q 1197 570 1197 1056 
L 1197 2797 
L 224 2797 
L 224 3520 
L 1197 3520 
L 1197 4512 
L 2003 4512 
L 2003 3520 
L 3405 3520 
L 3405 2797 
L 2003 2797 
L 2003 1075 
Q 2003 922 2089 822 
Q 2176 723 2330 723 
L 3373 723 
L 3373 0 
L 2272 0 
z
" transform="scale(0.015625)"/>
      <path id="JetBrainsMono-Bold-69" d="M 486 0 
L 486 723 
L 1690 723 
L 1690 2797 
L 614 2797 
L 614 3520 
L 2490 3520 
L 2490 723 
L 3571 723 
L 3571 0 
L 486 0 
z
M 2032 4109 
Q 1789 4109 1648 4233 
Q 1507 4358 1507 4570 
Q 1507 4781 1648 4905 
Q 1789 5030 2032 5030 
Q 2275 5030 2416 4905 
Q 2557 4781 2557 4570 
Q 2557 4358 2416 4233 
Q 2275 4109 2032 4109 
z
" transform="scale(0.015625)"/>
      <path id="JetBrainsMono-Bold-6e" d="M 493 0 
L 493 3520 
L 1274 3520 
L 1274 2861 
Q 1338 3194 1587 3389 
Q 1837 3584 2221 3584 
Q 2739 3584 3049 3238 
Q 3360 2893 3360 2310 
L 3360 0 
L 2560 0 
L 2560 2214 
Q 2560 2541 2390 2717 
Q 2221 2893 1933 2893 
Q 1632 2893 1462 2713 
Q 1293 2534 1293 2202 
L 1293 0 
L 493 0 
z
" transform="scale(0.015625)"/>
      <path id="JetBrainsMono-Bold-67" d="M 973 -1152 
L 973 -486 
L 1965 -486 
Q 2246 -486 2400 -336 
Q 2554 -186 2554 70 
L 2554 282 
L 2566 832 
Q 2458 538 2218 374 
Q 1978 211 1632 211 
Q 1094 211 777 572 
Q 461 934 461 1555 
L 461 2240 
Q 461 2854 777 3219 
Q 1094 3584 1632 3584 
Q 1978 3584 2218 3421 
Q 2458 3258 2566 2957 
L 2566 3520 
L 3347 3520 
L 3347 51 
Q 3347 -506 2979 -829 
Q 2611 -1152 1978 -1152 
L 973 -1152 
z
M 1901 896 
Q 2208 896 2377 1078 
Q 2547 1261 2547 1587 
L 2547 2202 
Q 2547 2528 2377 2710 
Q 2208 2893 1901 2893 
Q 1594 2893 1427 2717 
Q 1261 2541 1261 2227 
L 1261 1562 
Q 1261 1248 1427 1072 
Q 1594 896 1901 896 
z
" transform="scale(0.015625)"/>
      <path id="JetBrainsMono-Bold-20" transform="scale(0.015625)"/>
      <path id="JetBrainsMono-Bold-48" d="M 493 0 
L 493 4672 
L 1293 4672 
L 1293 2778 
L 2547 2778 
L 2547 4672 
L 3347 4672 
L 3347 0 
L 2547 0 
L 2547 2054 
L 1293 2054 
L 1293 0 
L 493 0 
z
" transform="scale(0.015625)"/>
      <path id="JetBrainsMono-Bold-73" d="M 1773 -58 
Q 1146 -58 781 227 
Q 416 512 416 998 
L 1203 998 
Q 1203 794 1353 685 
Q 1504 576 1773 576 
L 2054 576 
Q 2342 576 2499 685 
Q 2656 794 2656 998 
Q 2656 1190 2547 1283 
Q 2438 1376 2214 1408 
L 1338 1523 
Q 915 1581 688 1849 
Q 461 2118 461 2547 
Q 461 3046 793 3312 
Q 1126 3578 1754 3578 
L 2048 3578 
Q 2637 3578 2995 3309 
Q 3354 3040 3366 2592 
L 2573 2592 
Q 2566 2758 2425 2857 
Q 2285 2957 2048 2957 
L 1754 2957 
Q 1498 2957 1363 2851 
Q 1229 2746 1229 2566 
Q 1229 2406 1328 2329 
Q 1427 2253 1619 2234 
L 2445 2118 
Q 2931 2061 3177 1776 
Q 3424 1491 3424 1011 
Q 3424 499 3075 220 
Q 2726 -58 2054 -58 
L 1773 -58 
z
" transform="scale(0.015625)"/>
      <path id="JetBrainsMono-Bold-6f" d="M 1920 -58 
Q 1242 -58 845 323 
Q 448 704 448 1350 
L 448 2170 
Q 448 2822 845 3200 
Q 1242 3578 1920 3578 
Q 2598 3578 2995 3200 
Q 3392 2822 3392 2170 
L 3392 1350 
Q 3392 704 2995 323 
Q 2598 -58 1920 -58 
z
M 1920 640 
Q 2240 640 2416 816 
Q 2592 992 2592 1325 
L 2592 2195 
Q 2592 2528 2416 2704 
Q 2240 2880 1920 2880 
Q 1600 2880 1424 2704 
Q 1248 2528 1248 2195 
L 1248 1325 
Q 1248 992 1424 816 
Q 1600 640 1920 640 
z
" transform="scale(0.015625)"/>
      <path id="JetBrainsMono-Bold-72" d="M 621 0 
L 621 3520 
L 1402 3520 
L 1402 2835 
Q 1466 3181 1718 3382 
Q 1971 3584 2374 3584 
Q 2912 3584 3213 3238 
Q 3514 2893 3514 2272 
L 3514 1939 
L 2714 1939 
L 2714 2234 
Q 2714 2554 2547 2723 
Q 2381 2893 2074 2893 
Q 1754 2893 1587 2701 
Q 1421 2509 1421 2157 
L 1421 0 
L 621 0 
z
" transform="scale(0.015625)"/>
      <path id="JetBrainsMono-Bold-79" d="M 1056 -1152 
L 1555 192 
L 230 3520 
L 1075 3520 
L 1754 1722 
Q 1811 1562 1868 1373 
Q 1926 1184 1952 1024 
Q 1971 1184 2025 1373 
Q 2080 1562 2138 1722 
L 2765 3520 
L 3610 3520 
L 1894 -1152 
L 1056 -1152 
z
" transform="scale(0.015625)"/>
     </defs>
     <use xlink:href="#JetBrainsMono-Bold-52"/>
     <use xlink:href="#JetBrainsMono-Bold-61" transform="translate(59.999985 0)"/>
     <use xlink:href="#JetBrainsMono-Bold-74" transform="translate(119.999969 0)"/>
     <use xlink:href="#JetBrainsMono-Bold-69" transform="translate(179.999954 0)"/>
     <use xlink:href="#JetBrainsMono-Bold-6e" transform="translate(239.999939 0)"/>
     <use xlink:href="#JetBrainsMono-Bold-67" transform="translate(299.999924 0)"/>
     <use xlink:href="#JetBrainsMono-Bold-20" transform="translate(359.999908 0)"/>
     <use xlink:href="#JetBrainsMono-Bold-48" transform="translate(419.999893 0)"/>
     <use xlink:href="#JetBrainsMono-Bold-69" transform="translate(479.999878 0)"/>
     <use xlink:href="#JetBrainsMono-Bold-73" transform="translate(539.999863 0)"/>
     <use xlink:href="#JetBrainsMono-Bold-74" transform="translate(599.999847 0)"/>
     <use xlink:href="#JetBrainsMono-Bold-6f" transform="translate(659.999832 0)"/>
     <use xlink:href="#JetBrainsMono-Bold-72" transform="translate(719.999817 0)"/>
     <use xlink:href="#JetBrainsMono-Bold-79" transform="translate(779.999802 0)"/>
    </g>
   </g>
   <g id="line2d_31">
    <path d="M 65.11104 306.30813 
L 66.686699 304.055532 
L 68.262357 302.368046 
L 69.838016 301.196353 
L 71.413674 300.491133 
L 72.989333 300.203069 
L 74.564992 300.282841 
L 76.14065 300.681131 
L 77.716309 301.348619 
L 79.291967 302.235987 
L 82.443285 304.473087 
L 88.745919 309.415817 
L 90.321578 310.461416 
L 91.897236 311.332345 
L 93.472895 311.979283 
L 95.048553 312.352914 
L 96.624212 312.403916 
L 98.199871 312.082973 
L 99.775529 311.340764 
L 101.351188 310.127972 
L 102.926846 308.395276 
L 104.502505 306.093374 
L 106.078163 303.204131 
L 107.653822 299.806683 
L 109.229481 295.999085 
L 112.380798 287.545655 
L 118.683432 270.031387 
L 120.259091 266.098261 
L 121.834749 262.53942 
L 123.410408 259.452919 
L 124.986067 256.930029 
L 126.561725 254.969917 
L 128.137384 253.505379 
L 129.713042 252.467741 
L 131.288701 251.788333 
L 132.86436 251.398483 
L 134.440018 251.229518 
L 137.591335 251.279558 
L 140.742653 251.389079 
L 142.318311 251.294466 
L 143.89397 251.008782 
L 145.469628 250.488741 
L 147.045287 249.753104 
L 148.620946 248.829964 
L 151.772263 246.533545 
L 154.92358 243.824229 
L 162.801873 236.719401 
L 165.95319 234.303637 
L 169.104507 232.229818 
L 172.255824 230.422723 
L 176.9828 228.047301 
L 186.436752 223.541501 
L 189.588069 221.68775 
L 191.163728 220.592218 
L 192.739386 219.351336 
L 194.315045 217.940422 
L 195.890703 216.334793 
L 197.466362 214.509764 
L 199.042021 212.440653 
L 200.617679 210.102776 
L 202.193338 207.471451 
L 203.768996 204.529198 
L 206.920314 197.885904 
L 216.374265 176.380047 
L 217.949924 173.221639 
L 219.525582 170.351454 
L 221.101241 167.83194 
L 222.6769 165.724832 
L 224.252558 164.048835 
L 225.828217 162.755957 
L 227.403875 161.792472 
L 228.979534 161.104653 
L 230.555193 160.638772 
L 232.130851 160.341101 
L 235.282168 160.035483 
L 238.433485 159.75798 
L 240.009144 159.495454 
L 241.584803 159.078774 
L 243.160461 158.463202 
L 244.73612 157.656484 
L 246.311778 156.685365 
L 249.463096 154.357012 
L 252.614413 151.692312 
L 258.917047 146.210548 
L 262.068364 143.821271 
L 265.219682 141.845575 
L 268.370999 140.161161 
L 276.249292 136.222829 
L 279.400609 134.355916 
L 282.551926 132.098475 
L 285.703243 129.430964 
L 288.854561 126.469047 
L 301.459829 114.119302 
L 306.186805 110.128062 
L 310.913781 106.176943 
L 314.065098 103.310006 
L 317.216415 100.078182 
L 320.367732 96.328385 
L 323.51905 91.989168 
L 332.973001 78.076673 
L 336.124318 74.165549 
L 337.699977 72.519092 
L 339.275636 71.129939 
L 340.851294 70.034192 
L 342.426953 69.230831 
L 344.002611 68.688973 
L 345.57827 68.37689 
L 347.153929 68.262857 
L 348.729587 68.315146 
L 351.880904 68.791779 
L 361.334856 70.923318 
L 364.486173 71.210354 
L 367.63749 71.269537 
L 372.364466 71.079856 
L 381.818418 70.531372 
L 388.121052 70.470337 
L 418.058565 70.637694 
L 449.571737 70.638877 
L 536.23296 70.636201 
L 536.23296 70.636201 
" clip-path="url(#p7bd28b2253)" style="fill: none; stroke: #8b5cf6; stroke-width: 1.2; stroke-linecap: round"/>
   </g>
   <g id="PathCollection_1">
    <defs>
     <path id="m6055991f3a" d="M 0 2.236068 
C 0.593012 2.236068 1.161816 2.000462 1.581139 1.581139 
C 2.000462 1.161816 2.236068 0.593012 2.236068 0 
C 2.236068 -0.593012 2.000462 -1.161816 1.581139 -1.581139 
C 1.161816 -2.000462 0.593012 -2.236068 0 -2.236068 
C -0.593012 -2.236068 -1.161816 -2.000462 -1.581139 -1.581139 
C -2.000462 -1.161816 -2.236068 -0.593012 -2.236068 0 
C -2.236068 0.593012 -2.000462 1.161816 -1.581139 1.581139 
C -1.161816 2.000462 -0.593012 2.236068 0 2.236068 
z
" style="stroke: #ffffff; stroke-width: 0.8"/>
    </defs>
    <g clip-path="url(#p7bd28b2253)">
     <use xlink:href="#m6055991f3a" x="536.23296" y="70.636201" style="fill: #8b5cf6; stroke: #ffffff; stroke-width: 0.8"/>
    </g>
   </g>
  </g>
  <g id="axes_2">
   <g id="text_19">
    <!-- Rating -->
    <g style="fill: #9b8bb8" transform="translate(565.7472 48.312) scale(0.11 -0.11)">
     <use xlink:href="#JetBrainsMono-Regular-52"/>
     <use xlink:href="#JetBrainsMono-Regular-61" transform="translate(59.999985 0)"/>
     <use xlink:href="#JetBrainsMono-Regular-74" transform="translate(119.999969 0)"/>
     <use xlink:href="#JetBrainsMono-Regular-69" transform="translate(179.999954 0)"/>
     <use xlink:href="#JetBrainsMono-Regular-6e" transform="translate(239.999939 0)"/>
     <use xlink:href="#JetBrainsMono-Regular-67" transform="translate(299.999924 0)"/>
    </g>
   </g>
   <g id="text_20">
    <!-- 265 -->
    <g style="fill: #8b5cf6" transform="translate(565.7472 81.548) scale(0.26 -0.26)">
     <use xlink:href="#JetBrainsMono-Bold-32"/>
     <use xlink:href="#JetBrainsMono-Bold-36" transform="translate(59.999985 0)"/>
     <use xlink:href="#JetBrainsMono-Bold-35" transform="translate(119.999969 0)"/>
    </g>
   </g>
   <g id="text_21">
    <!-- Rank -->
    <g style="fill: #9b8bb8" transform="translate(565.7472 119.592) scale(0.11 -0.11)">
     <defs>
      <path id="JetBrainsMono-Regular-6b" d="M 621 0 
L 621 4672 
L 1197 4672 
L 1197 2067 
L 1869 2067 
L 2854 3520 
L 3514 3520 
L 2381 1843 
L 3578 0 
L 2906 0 
L 1882 1568 
L 1197 1568 
L 1197 0 
L 621 0 
z
" transform="scale(0.015625)"/>
     </defs>
     <use xlink:href="#JetBrainsMono-Regular-52"/>
     <use xlink:href="#JetBrainsMono-Regular-61" transform="translate(59.999985 0)"/>
     <use xlink:href="#JetBrainsMono-Regular-6e" transform="translate(119.999969 0)"/>
     <use xlink:href="#JetBrainsMono-Regular-6b" transform="translate(179.999954 0)"/>
    </g>
   </g>
   <g id="text_22">
    <!-- #118,010 -->
    <g style="fill: #8b5cf6" transform="translate(565.7472 148.104) scale(0.14 -0.14)">
     <defs>
      <path id="JetBrainsMono-Bold-23" d="M 493 0 
L 710 1216 
L 224 1216 
L 224 1760 
L 800 1760 
L 998 2912 
L 448 2912 
L 448 3456 
L 1094 3456 
L 1312 4672 
L 1875 4672 
L 1658 3456 
L 2566 3456 
L 2784 4672 
L 3347 4672 
L 3130 3456 
L 3616 3456 
L 3616 2912 
L 3034 2912 
L 2835 1760 
L 3392 1760 
L 3392 1216 
L 2739 1216 
L 2528 0 
L 1965 0 
L 2182 1216 
L 1267 1216 
L 1056 0 
L 493 0 
z
M 1363 1760 
L 2272 1760 
L 2470 2912 
L 1562 2912 
L 1363 1760 
z
" transform="scale(0.015625)"/>
      <path id="JetBrainsMono-Bold-31" d="M 538 0 
L 538 723 
L 1754 723 
L 1754 3898 
L 531 3002 
L 531 3898 
L 1606 4672 
L 2554 4672 
L 2554 723 
L 3533 723 
L 3533 0 
L 538 0 
z
" transform="scale(0.015625)"/>
      <path id="JetBrainsMono-Bold-38" d="M 1920 -64 
Q 1453 -64 1094 112 
Q 736 288 537 598 
Q 339 909 339 1318 
Q 339 1747 585 2067 
Q 832 2387 1229 2470 
L 1229 2483 
Q 890 2554 682 2829 
Q 474 3104 474 3482 
Q 474 3853 656 4134 
Q 838 4416 1164 4576 
Q 1491 4736 1920 4736 
Q 2349 4736 2678 4576 
Q 3008 4416 3190 4134 
Q 3373 3853 3373 3482 
Q 3373 3104 3161 2829 
Q 2950 2554 2611 2483 
L 2611 2470 
Q 3008 2387 3254 2067 
Q 3501 1747 3501 1318 
Q 3501 909 3302 598 
Q 3104 288 2745 112 
Q 2387 -64 1920 -64 
z
M 1920 2758 
Q 2221 2758 2406 2940 
Q 2592 3123 2592 3411 
Q 2592 3706 2406 3888 
Q 2221 4070 1920 4070 
Q 1619 4070 1433 3888 
Q 1248 3706 1248 3411 
Q 1248 3123 1433 2940 
Q 1619 2758 1920 2758 
z
M 1920 614 
Q 2272 614 2496 819 
Q 2720 1024 2720 1357 
Q 2720 1696 2496 1904 
Q 2272 2112 1920 2112 
Q 1568 2112 1344 1904 
Q 1120 1696 1120 1357 
Q 1120 1024 1344 819 
Q 1568 614 1920 614 
z
" transform="scale(0.015625)"/>
      <path id="JetBrainsMono-Bold-2c" d="M 1216 -1024 
L 1555 934 
L 2470 934 
L 1984 -1024 
L 1216 -1024 
z
" transform="scale(0.015625)"/>
      <path id="JetBrainsMono-Bold-30" d="M 1920 -64 
Q 1466 -64 1133 109 
Q 800 282 617 595 
Q 435 909 435 1331 
L 435 3341 
Q 435 3763 617 4076 
Q 800 4390 1133 4563 
Q 1466 4736 1920 4736 
Q 2374 4736 2707 4563 
Q 3040 4390 3222 4076 
Q 3405 3763 3405 3341 
L 3405 1331 
Q 3405 909 3222 595 
Q 3040 282 2707 109 
Q 2374 -64 1920 -64 
z
M 1920 627 
Q 2253 627 2451 819 
Q 2650 1011 2650 1331 
L 2650 3341 
Q 2650 3661 2454 3853 
Q 2259 4045 1920 4045 
Q 1581 4045 1385 3853 
Q 1190 3661 1190 3341 
L 1190 1331 
Q 1190 1011 1388 819 
Q 1587 627 1920 627 
z
M 1920 1952 
Q 1728 1952 1613 2057 
Q 1498 2163 1498 2355 
Q 1498 2547 1613 2646 
Q 1728 2746 1920 2746 
Q 2112 2746 2227 2646 
Q 2342 2547 2342 2355 
Q 2342 2163 2227 2057 
Q 2112 1952 1920 1952 
z
" transform="scale(0.015625)"/>
     </defs>
     <use xlink:href="#JetBrainsMono-Bold-23"/>
     <use xlink:href="#JetBrainsMono-Bold-31" transform="translate(59.999985 0)"/>
     <use xlink:href="#JetBrainsMono-Bold-31" transform="translate(119.999969 0)"/>
     <use xlink:href="#JetBrainsMono-Bold-38" transform="translate(179.999954 0)"/>
     <use xlink:href="#JetBrainsMono-Bold-2c" transform="translate(239.999939 0)"/>
     <use xlink:href="#JetBrainsMono-Bold-30" transform="translate(299.999924 0)"/>
     <use xlink:href="#JetBrainsMono-Bold-31" transform="translate(359.999908 0)"/>
     <use xlink:href="#JetBrainsMono-Bold-30" transform="translate(419.999893 0)"/>
    </g>
   </g>
   <g id="text_23">
    <!-- ─ 0 -->
    <g style="fill: #9b8bb8" transform="translate(565.7472 169.488) scale(0.11 -0.11)">
     <defs>
      <path id="JetBrainsMono-Bold-2500" d="M -128 2048 
L -128 2688 
L 3968 2688 
L 3968 2048 
L -128 2048 
z
" transform="scale(0.015625)"/>
     </defs>
     <use xlink:href="#JetBrainsMono-Bold-2500"/>
     <use xlink:href="#JetBrainsMono-Bold-20" transform="translate(59.999985 0)"/>
     <use xlink:href="#JetBrainsMono-Bold-30" transform="translate(119.999969 0)"/>
    </g>
   </g>
  </g>
 </g>
 <defs>
  <clipPath id="p7bd28b2253">
   <rect x="55.296" y="55.44" width="490.752" height="269.28"/>
  </clipPath>
 </defs>
</svg>
