<?xml version="1.0" encoding="utf-8" standalone="no"?>
<!DOCTYPE svg PUBLIC "-//W3C//DTD SVG 1.1//EN"
  "http://www.w3.org/Graphics/SVG/1.1/DTD/svg11.dtd">
<svg xmlns:xlink="http://www.w3.org/1999/xlink" width="691.2pt" height="396pt" viewBox="0 0 691.2 396" xmlns="http://www.w3.org/2000/svg" version="1.1">
 <metadata>
  <rdf:RDF xmlns:dc="http://purl.org/dc/elements/1.1/" xmlns:cc="http://creativecommons.org/ns#" xmlns:rdf="http://www.w3.org/1999/02/22-rdf-syntax-ns#">
   <cc:Work>
    <dc:type rdf:resource="http://purl.org/dc/dcmitype/StillImage"/>
    <dc:date>2026-04-15T15:57:40.322925</dc:date>
    <dc:format>image/svg+xml</dc:format>
    <dc:creator>
     <cc:Agent>
      <dc:title>Matplotlib v3.10.8, https://matplotlib.org/</dc:title>
     </cc:Agent>
    </dc:creator>
   </cc:Work>
  </rdf:RDF>
 </metadata>
 <defs>
  <style type="text/css">*{stroke-linejoin: round; stroke-linecap: butt}</style>
 </defs>
 <g id="figure_1">
  <g id="patch_1">
   <path d="M 0 396 
L 691.2 396 
L 691.2 0 
L 0 0 
L 0 396 
z
" style="fill: none"/>
  </g>
  <g id="axes_1">
   <g id="patch_2">
    <path d="M 55.296 324.72 
L 546.048 324.72 
L 546.048 55.44 
L 55.296 55.44 
L 55.296 324.72 
z
" style="fill: none"/>
   </g>
   <g id="matplotlib.axis_1">
    <g id="xtick_1">
     <g id="line2d_1">
      <path d="M 101.304 324.72 
L 101.304 55.44 
" clip-path="url(#p56137ba54f)" style="fill: none; stroke-dasharray: 2.22,0.96; stroke-dashoffset: 0; stroke: #e2d5f5; stroke-opacity: 0.7; stroke-width: 0.6"/>
     </g>
     <g id="line2d_2">
      <defs>
       <path id="mfd6c283db5" d="M 0 0 
L 0 3.5 
" style="stroke: #9b8bb8; stroke-width: 0.8"/>
      </defs>
      <g>
       <use xlink:href="#mfd6c283db5" x="101.304" y="324.72" style="fill: #9b8bb8; stroke: #9b8bb8; stroke-width: 0.8"/>
      </g>
     </g>
     <g id="text_1">
      <!-- 04/01 -->
      <g style="fill: #9b8bb8" transform="translate(89.763619 353.301793) rotate(-30) scale(0.1 -0.1)">
       <defs>
        <path id="JetBrainsMono-Regular-30" d="M 1920 -64 
Q 1274 -64 893 310 
Q 512 685 512 1312 
L 512 3360 
Q 512 3987 893 4361 
Q 1274 4736 1920 4736 
Q 2566 4736 2947 4361 
Q 3328 3987 3328 3360 
L 3328 1312 
Q 3328 896 3155 585 
Q 2982 275 2665 105 
Q 2349 -64 1920 -64 
z
M 1920 429 
Q 2304 429 2537 675 
Q 2771 922 2771 1312 
L 2771 3360 
Q 2771 3750 2537 3996 
Q 2304 4243 1920 4243 
Q 1536 4243 1302 3996 
Q 1069 3750 1069 3360 
L 1069 1312 
Q 1069 922 1302 675 
Q 1536 429 1920 429 
z
M 1920 1984 
Q 1747 1984 1641 2080 
Q 1536 2176 1536 2355 
Q 1536 2528 1641 2621 
Q 1747 2714 1920 2714 
Q 2093 2714 2198 2621 
Q 2304 2528 2304 2355 
Q 2304 2176 2198 2080 
Q 2093 1984 1920 1984 
z
" transform="scale(0.015625)"/>
        <path id="JetBrainsMono-Regular-34" d="M 2560 0 
L 2560 1024 
L 448 1024 
L 448 1926 
L 2150 4672 
L 2803 4672 
L 1024 1798 
L 1024 1549 
L 2560 1549 
L 2560 2688 
L 3136 2688 
L 3136 0 
L 2560 0 
z
" transform="scale(0.015625)"/>
        <path id="JetBrainsMono-Regular-2f" d="M 480 -704 
L 2752 5312 
L 3360 5312 
L 1088 -704 
L 480 -704 
z
" transform="scale(0.015625)"/>
        <path id="JetBrainsMono-Regular-31" d="M 576 0 
L 576 525 
L 1843 525 
L 1843 4173 
L 576 3226 
L 576 3885 
L 1632 4672 
L 2419 4672 
L 2419 525 
L 3456 525 
L 3456 0 
L 576 0 
z
" transform="scale(0.015625)"/>
       </defs>
       <use xlink:href="#JetBrainsMono-Regular-30"/>
       <use xlink:href="#JetBrainsMono-Regular-34" transform="translate(59.999985 0)"/>
       <use xlink:href="#JetBrainsMono-Regular-2f" transform="translate(119.999969 0)"/>
       <use xlink:href="#JetBrainsMono-Regular-30" transform="translate(179.999954 0)"/>
       <use xlink:href="#JetBrainsMono-Regular-31" transform="translate(239.999939 0)"/>
      </g>
     </g>
    </g>
    <g id="xtick_2">
     <g id="line2d_3">
      <path d="M 162.648 324.72 
L 162.648 55.44 
" clip-path="url(#p56137ba54f)" style="fill: none; stroke-dasharray: 2.22,0.96; stroke-dashoffset: 0; stroke: #e2d5f5; stroke-opacity: 0.7; stroke-width: 0.6"/>
     </g>
     <g id="line2d_4">
      <g>
       <use xlink:href="#mfd6c283db5" x="162.648" y="324.72" style="fill: #9b8bb8; stroke: #9b8bb8; stroke-width: 0.8"/>
      </g>
     </g>
     <g id="text_2">
      <!-- 04/03 -->
      <g style="fill: #9b8bb8" transform="translate(151.107619 353.301793) rotate(-30) scale(0.1 -0.1)">
       <defs>
        <path id="JetBrainsMono-Regular-33" d="M 1850 -64 
Q 1203 -64 825 297 
Q 448 659 448 1280 
L 1024 1280 
Q 1024 896 1248 672 
Q 1472 448 1856 448 
Q 2240 448 2464 672 
Q 2688 896 2688 1280 
L 2688 1600 
Q 2688 1984 2464 2208 
Q 2240 2432 1856 2432 
L 1350 2432 
L 1350 2931 
L 2496 4147 
L 576 4147 
L 576 4672 
L 3149 4672 
L 3149 4134 
L 2022 2938 
Q 2598 2893 2931 2537 
Q 3264 2182 3264 1600 
L 3264 1280 
Q 3264 659 2883 297 
Q 2502 -64 1850 -64 
z
" transform="scale(0.015625)"/>
       </defs>
       <use xlink:href="#JetBrainsMono-Regular-30"/>
       <use xlink:href="#JetBrainsMono-Regular-34" transform="translate(59.999985 0)"/>
       <use xlink:href="#JetBrainsMono-Regular-2f" transform="translate(119.999969 0)"/>
       <use xlink:href="#JetBrainsMono-Regular-30" transform="translate(179.999954 0)"/>
       <use xlink:href="#JetBrainsMono-Regular-33" transform="translate(239.999939 0)"/>
      </g>
     </g>
    </g>
    <g id="xtick_3">
     <g id="line2d_5">
      <path d="M 223.992 324.72 
L 223.992 55.44 
" clip-path="url(#p56137ba54f)" style="fill: none; stroke-dasharray: 2.22,0.96; stroke-dashoffset: 0; stroke: #e2d5f5; stroke-opacity: 0.7; stroke-width: 0.6"/>
     </g>
     <g id="line2d_6">
      <g>
       <use xlink:href="#mfd6c283db5" x="223.992" y="324.72" style="fill: #9b8bb8; stroke: #9b8bb8; stroke-width: 0.8"/>
      </g>
     </g>
     <g id="text_3">
      <!-- 04/05 -->
      <g style="fill: #9b8bb8" transform="translate(212.451619 353.301793) rotate(-30) scale(0.1 -0.1)">
       <defs>
        <path id="JetBrainsMono-Regular-35" d="M 1882 -64 
Q 1235 -64 857 297 
Q 480 659 480 1280 
L 1056 1280 
Q 1056 896 1280 672 
Q 1504 448 1888 448 
Q 2272 448 2496 672 
Q 2720 896 2720 1280 
L 2720 1568 
Q 2720 1952 2502 2176 
Q 2285 2400 1914 2400 
L 640 2400 
L 640 4672 
L 3130 4672 
L 3130 4147 
L 1178 4147 
L 1190 2925 
L 1946 2925 
Q 2592 2925 2944 2569 
Q 3296 2214 3296 1568 
L 3296 1280 
Q 3296 659 2915 297 
Q 2534 -64 1882 -64 
z
" transform="scale(0.015625)"/>
       </defs>
       <use xlink:href="#JetBrainsMono-Regular-30"/>
       <use xlink:href="#JetBrainsMono-Regular-34" transform="translate(59.999985 0)"/>
       <use xlink:href="#JetBrainsMono-Regular-2f" transform="translate(119.999969 0)"/>
       <use xlink:href="#JetBrainsMono-Regular-30" transform="translate(179.999954 0)"/>
       <use xlink:href="#JetBrainsMono-Regular-35" transform="translate(239.999939 0)"/>
      </g>
     </g>
    </g>
    <g id="xtick_4">
     <g id="line2d_7">
      <path d="M 285.336 324.72 
L 285.336 55.44 
" clip-path="url(#p56137ba54f)" style="fill: none; stroke-dasharray: 2.22,0.96; stroke-dashoffset: 0; stroke: #e2d5f5; stroke-opacity: 0.7; stroke-width: 0.6"/>
     </g>
     <g id="line2d_8">
      <g>
       <use xlink:href="#mfd6c283db5" x="285.336" y="324.72" style="fill: #9b8bb8; stroke: #9b8bb8; stroke-width: 0.8"/>
      </g>
     </g>
     <g id="text_4">
      <!-- 04/07 -->
      <g style="fill: #9b8bb8" transform="translate(273.795619 353.301793) rotate(-30) scale(0.1 -0.1)">
       <defs>
        <path id="JetBrainsMono-Regular-37" d="M 1216 0 
L 2880 4147 
L 1101 4147 
L 1101 3392 
L 525 3392 
L 525 4672 
L 3494 4672 
L 3494 4134 
L 1843 0 
L 1216 0 
z
" transform="scale(0.015625)"/>
       </defs>
       <use xlink:href="#JetBrainsMono-Regular-30"/>
       <use xlink:href="#JetBrainsMono-Regular-34" transform="translate(59.999985 0)"/>
       <use xlink:href="#JetBrainsMono-Regular-2f" transform="translate(119.999969 0)"/>
       <use xlink:href="#JetBrainsMono-Regular-30" transform="translate(179.999954 0)"/>
       <use xlink:href="#JetBrainsMono-Regular-37" transform="translate(239.999939 0)"/>
      </g>
     </g>
    </g>
    <g id="xtick_5">
     <g id="line2d_9">
      <path d="M 346.68 324.72 
L 346.68 55.44 
" clip-path="url(#p56137ba54f)" style="fill: none; stroke-dasharray: 2.22,0.96; stroke-dashoffset: 0; stroke: #e2d5f5; stroke-opacity: 0.7; stroke-width: 0.6"/>
     </g>
     <g id="line2d_10">
      <g>
       <use xlink:href="#mfd6c283db5" x="346.68" y="324.72" style="fill: #9b8bb8; stroke: #9b8bb8; stroke-width: 0.8"/>
      </g>
     </g>
     <g id="text_5">
      <!-- 04/09 -->
      <g style="fill: #9b8bb8" transform="translate(335.139619 353.301793) rotate(-30) scale(0.1 -0.1)">
       <defs>
        <path id="JetBrainsMono-Regular-39" d="M 1248 0 
L 2400 2003 
L 2381 2016 
Q 2317 1914 2144 1853 
Q 1971 1792 1766 1792 
Q 1363 1792 1059 1974 
Q 755 2157 582 2477 
Q 410 2797 410 3219 
Q 410 3674 602 4013 
Q 794 4352 1133 4544 
Q 1472 4736 1914 4736 
Q 2368 4736 2707 4547 
Q 3046 4358 3238 4022 
Q 3430 3686 3430 3245 
Q 3430 2938 3315 2614 
Q 3200 2291 3002 1939 
L 1920 0 
L 1248 0 
z
M 1920 2240 
Q 2336 2240 2595 2515 
Q 2854 2790 2854 3232 
Q 2854 3674 2595 3949 
Q 2336 4224 1920 4224 
Q 1504 4224 1245 3949 
Q 986 3674 986 3232 
Q 986 2790 1245 2515 
Q 1504 2240 1920 2240 
z
" transform="scale(0.015625)"/>
       </defs>
       <use xlink:href="#JetBrainsMono-Regular-30"/>
       <use xlink:href="#JetBrainsMono-Regular-34" transform="translate(59.999985 0)"/>
       <use xlink:href="#JetBrainsMono-Regular-2f" transform="translate(119.999969 0)"/>
       <use xlink:href="#JetBrainsMono-Regular-30" transform="translate(179.999954 0)"/>
       <use xlink:href="#JetBrainsMono-Regular-39" transform="translate(239.999939 0)"/>
      </g>
     </g>
    </g>
    <g id="xtick_6">
     <g id="line2d_11">
      <path d="M 408.024 324.72 
L 408.024 55.44 
" clip-path="url(#p56137ba54f)" style="fill: none; stroke-dasharray: 2.22,0.96; stroke-dashoffset: 0; stroke: #e2d5f5; stroke-opacity: 0.7; stroke-width: 0.6"/>
     </g>
     <g id="line2d_12">
      <g>
       <use xlink:href="#mfd6c283db5" x="408.024" y="324.72" style="fill: #9b8bb8; stroke: #9b8bb8; stroke-width: 0.8"/>
      </g>
     </g>
     <g id="text_6">
      <!-- 04/11 -->
      <g style="fill: #9b8bb8" transform="translate(396.483619 353.301793) rotate(-30) scale(0.1 -0.1)">
       <use xlink:href="#JetBrainsMono-Regular-30"/>
       <use xlink:href="#JetBrainsMono-Regular-34" transform="translate(59.999985 0)"/>
       <use xlink:href="#JetBrainsMono-Regular-2f" transform="translate(119.999969 0)"/>
       <use xlink:href="#JetBrainsMono-Regular-31" transform="translate(179.999954 0)"/>
       <use xlink:href="#JetBrainsMono-Regular-31" transform="translate(239.999939 0)"/>
      </g>
     </g>
    </g>
    <g id="xtick_7">
     <g id="line2d_13">
      <path d="M 469.368 324.72 
L 469.368 55.44 
" clip-path="url(#p56137ba54f)" style="fill: none; stroke-dasharray: 2.22,0.96; stroke-dashoffset: 0; stroke: #e2d5f5; stroke-opacity: 0.7; stroke-width: 0.6"/>
     </g>
     <g id="line2d_14">
      <g>
       <use xlink:href="#mfd6c283db5" x="469.368" y="324.72" style="fill: #9b8bb8; stroke: #9b8bb8; stroke-width: 0.8"/>
      </g>
     </g>
     <g id="text_7">
      <!-- 04/13 -->
      <g style="fill: #9b8bb8" transform="translate(457.827619 353.301793) rotate(-30) scale(0.1 -0.1)">
       <use xlink:href="#JetBrainsMono-Regular-30"/>
       <use xlink:href="#JetBrainsMono-Regular-34" transform="translate(59.999985 0)"/>
       <use xlink:href="#JetBrainsMono-Regular-2f" transform="translate(119.999969 0)"/>
       <use xlink:href="#JetBrainsMono-Regular-31" transform="translate(179.999954 0)"/>
       <use xlink:href="#JetBrainsMono-Regular-33" transform="translate(239.999939 0)"/>
      </g>
     </g>
    </g>
    <g id="xtick_8">
     <g id="line2d_15">
      <path d="M 530.712 324.72 
L 530.712 55.44 
" clip-path="url(#p56137ba54f)" style="fill: none; stroke-dasharray: 2.22,0.96; stroke-dashoffset: 0; stroke: #e2d5f5; stroke-opacity: 0.7; stroke-width: 0.6"/>
     </g>
     <g id="line2d_16">
      <g>
       <use xlink:href="#mfd6c283db5" x="530.712" y="324.72" style="fill: #9b8bb8; stroke: #9b8bb8; stroke-width: 0.8"/>
      </g>
     </g>
     <g id="text_8">
      <!-- 04/15 -->
      <g style="fill: #9b8bb8" transform="translate(519.171619 353.301793) rotate(-30) scale(0.1 -0.1)">
       <use xlink:href="#JetBrainsMono-Regular-30"/>
       <use xlink:href="#JetBrainsMono-Regular-34" transform="translate(59.999985 0)"/>
       <use xlink:href="#JetBrainsMono-Regular-2f" transform="translate(119.999969 0)"/>
       <use xlink:href="#JetBrainsMono-Regular-31" transform="translate(179.999954 0)"/>
       <use xlink:href="#JetBrainsMono-Regular-35" transform="translate(239.999939 0)"/>
      </g>
     </g>
    </g>
   </g>
   <g id="matplotlib.axis_2">
    <g id="ytick_1">
     <g id="line2d_17">
      <path d="M 55.296 310.201946 
L 546.048 310.201946 
" clip-path="url(#p56137ba54f)" style="fill: none; stroke-dasharray: 2.22,0.96; stroke-dashoffset: 0; stroke: #e2d5f5; stroke-opacity: 0.7; stroke-width: 0.6"/>
     </g>
     <g id="line2d_18">
      <defs>
       <path id="m8a281081b6" d="M 0 0 
L -3.5 0 
" style="stroke: #9b8bb8; stroke-width: 0.8"/>
      </defs>
      <g>
       <use xlink:href="#m8a281081b6" x="55.296" y="310.201946" style="fill: #9b8bb8; stroke: #9b8bb8; stroke-width: 0.8"/>
      </g>
     </g>
     <g id="text_9">
      <!-- 200 -->
      <g style="fill: #9b8bb8" transform="translate(30.296 313.851946) scale(0.1 -0.1)">
       <defs>
        <path id="JetBrainsMono-Regular-32" d="M 550 0 
L 550 531 
L 2106 2195 
Q 2445 2554 2585 2835 
Q 2726 3117 2726 3386 
Q 2726 3770 2505 3997 
Q 2285 4224 1907 4224 
Q 1517 4224 1289 3990 
Q 1062 3757 1062 3360 
L 486 3360 
Q 506 3994 890 4365 
Q 1274 4736 1907 4736 
Q 2554 4736 2934 4371 
Q 3315 4006 3315 3379 
Q 3315 3046 3132 2675 
Q 2950 2304 2509 1843 
L 1248 525 
L 3373 525 
L 3373 0 
L 550 0 
z
" transform="scale(0.015625)"/>
       </defs>
       <use xlink:href="#JetBrainsMono-Regular-32"/>
       <use xlink:href="#JetBrainsMono-Regular-30" transform="translate(59.999985 0)"/>
       <use xlink:href="#JetBrainsMono-Regular-30" transform="translate(119.999969 0)"/>
      </g>
     </g>
    </g>
    <g id="ytick_2">
     <g id="line2d_19">
      <path d="M 55.296 273.906811 
L 546.048 273.906811 
" clip-path="url(#p56137ba54f)" style="fill: none; stroke-dasharray: 2.22,0.96; stroke-dashoffset: 0; stroke: #e2d5f5; stroke-opacity: 0.7; stroke-width: 0.6"/>
     </g>
     <g id="line2d_20">
      <g>
       <use xlink:href="#m8a281081b6" x="55.296" y="273.906811" style="fill: #9b8bb8; stroke: #9b8bb8; stroke-width: 0.8"/>
      </g>
     </g>
     <g id="text_10">
      <!-- 210 -->
      <g style="fill: #9b8bb8" transform="translate(30.296 277.556811) scale(0.1 -0.1)">
       <use xlink:href="#JetBrainsMono-Regular-32"/>
       <use xlink:href="#JetBrainsMono-Regular-31" transform="translate(59.999985 0)"/>
       <use xlink:href="#JetBrainsMono-Regular-30" transform="translate(119.999969 0)"/>
      </g>
     </g>
    </g>
    <g id="ytick_3">
     <g id="line2d_21">
      <path d="M 55.296 237.611676 
L 546.048 237.611676 
" clip-path="url(#p56137ba54f)" style="fill: none; stroke-dasharray: 2.22,0.96; stroke-dashoffset: 0; stroke: #e2d5f5; stroke-opacity: 0.7; stroke-width: 0.6"/>
     </g>
     <g id="line2d_22">
      <g>
       <use xlink:href="#m8a281081b6" x="55.296" y="237.611676" style="fill: #9b8bb8; stroke: #9b8bb8; stroke-width: 0.8"/>
      </g>
     </g>
     <g id="text_11">
      <!-- 220 -->
      <g style="fill: #9b8bb8" transform="translate(30.296 241.261676) scale(0.1 -0.1)">
       <use xlink:href="#JetBrainsMono-Regular-32"/>
       <use xlink:href="#JetBrainsMono-Regular-32" transform="translate(59.999985 0)"/>
       <use xlink:href="#JetBrainsMono-Regular-30" transform="translate(119.999969 0)"/>
      </g>
     </g>
    </g>
    <g id="ytick_4">
     <g id="line2d_23">
      <path d="M 55.296 201.316541 
L 546.048 201.316541 
" clip-path="url(#p56137ba54f)" style="fill: none; stroke-dasharray: 2.22,0.96; stroke-dashoffset: 0; stroke: #e2d5f5; stroke-opacity: 0.7; stroke-width: 0.6"/>
     </g>
     <g id="line2d_24">
      <g>
       <use xlink:href="#m8a281081b6" x="55.296" y="201.316541" style="fill: #9b8bb8; stroke: #9b8bb8; stroke-width: 0.8"/>
      </g>
     </g>
     <g id="text_12">
      <!-- 230 -->
      <g style="fill: #9b8bb8" transform="translate(30.296 204.966541) scale(0.1 -0.1)">
       <use xlink:href="#JetBrainsMono-Regular-32"/>
       <use xlink:href="#JetBrainsMono-Regular-33" transform="translate(59.999985 0)"/>
       <use xlink:href="#JetBrainsMono-Regular-30" transform="translate(119.999969 0)"/>
      </g>
     </g>
    </g>
    <g id="ytick_5">
     <g id="line2d_25">
      <path d="M 55.296 165.021406 
L 546.048 165.021406 
" clip-path="url(#p56137ba54f)" style="fill: none; stroke-dasharray: 2.22,0.96; stroke-dashoffset: 0; stroke: #e2d5f5; stroke-opacity: 0.7; stroke-width: 0.6"/>
     </g>
     <g id="line2d_26">
      <g>
       <use xlink:href="#m8a281081b6" x="55.296" y="165.021406" style="fill: #9b8bb8; stroke: #9b8bb8; stroke-width: 0.8"/>
      </g>
     </g>
     <g id="text_13">
      <!-- 240 -->
      <g style="fill: #9b8bb8" transform="translate(30.296 168.671406) scale(0.1 -0.1)">
       <use xlink:href="#JetBrainsMono-Regular-32"/>
       <use xlink:href="#JetBrainsMono-Regular-34" transform="translate(59.999985 0)"/>
       <use xlink:href="#JetBrainsMono-Regular-30" transform="translate(119.999969 0)"/>
      </g>
     </g>
    </g>
    <g id="ytick_6">
     <g id="line2d_27">
      <path d="M 55.296 128.726271 
L 546.048 128.726271 
" clip-path="url(#p56137ba54f)" style="fill: none; stroke-dasharray: 2.22,0.96; stroke-dashoffset: 0; stroke: #e2d5f5; stroke-opacity: 0.7; stroke-width: 0.6"/>
     </g>
     <g id="line2d_28">
      <g>
       <use xlink:href="#m8a281081b6" x="55.296" y="128.726271" style="fill: #9b8bb8; stroke: #9b8bb8; stroke-width: 0.8"/>
      </g>
     </g>
     <g id="text_14">
      <!-- 250 -->
      <g style="fill: #9b8bb8" transform="translate(30.296 132.376271) scale(0.1 -0.1)">
       <use xlink:href="#JetBrainsMono-Regular-32"/>
       <use xlink:href="#JetBrainsMono-Regular-35" transform="translate(59.999985 0)"/>
       <use xlink:href="#JetBrainsMono-Regular-30" transform="translate(119.999969 0)"/>
      </g>
     </g>
    </g>
    <g id="ytick_7">
     <g id="line2d_29">
      <path d="M 55.296 92.431135 
L 546.048 92.431135 
" clip-path="url(#p56137ba54f)" style="fill: none; stroke-dasharray: 2.22,0.96; stroke-dashoffset: 0; stroke: #e2d5f5; stroke-opacity: 0.7; stroke-width: 0.6"/>
     </g>
     <g id="line2d_30">
      <g>
       <use xlink:href="#m8a281081b6" x="55.296" y="92.431135" style="fill: #9b8bb8; stroke: #9b8bb8; stroke-width: 0.8"/>
      </g>
     </g>
     <g id="text_15">
      <!-- 260 -->
      <g style="fill: #9b8bb8" transform="translate(30.296 96.081135) scale(0.1 -0.1)">
       <defs>
        <path id="JetBrainsMono-Regular-36" d="M 1926 -64 
Q 1478 -64 1136 125 
Q 794 314 602 650 
Q 410 986 410 1427 
Q 410 1734 525 2057 
Q 640 2381 838 2733 
L 1920 4672 
L 2560 4672 
L 1408 2669 
L 1427 2656 
Q 1510 2765 1676 2822 
Q 1843 2880 2042 2880 
Q 2458 2880 2768 2697 
Q 3078 2515 3254 2195 
Q 3430 1875 3430 1453 
Q 3430 1005 3238 662 
Q 3046 320 2710 128 
Q 2374 -64 1926 -64 
z
M 1920 448 
Q 2336 448 2595 723 
Q 2854 998 2854 1440 
Q 2854 1882 2595 2157 
Q 2336 2432 1920 2432 
Q 1504 2432 1245 2157 
Q 986 1882 986 1440 
Q 986 998 1245 723 
Q 1504 448 1920 448 
z
" transform="scale(0.015625)"/>
       </defs>
       <use xlink:href="#JetBrainsMono-Regular-32"/>
       <use xlink:href="#JetBrainsMono-Regular-36" transform="translate(59.999985 0)"/>
       <use xlink:href="#JetBrainsMono-Regular-30" transform="translate(119.999969 0)"/>
      </g>
     </g>
    </g>
    <g id="ytick_8">
     <g id="line2d_31">
      <path d="M 55.296 56.136 
L 546.048 56.136 
" clip-path="url(#p56137ba54f)" style="fill: none; stroke-dasharray: 2.22,0.96; stroke-dashoffset: 0; stroke: #e2d5f5; stroke-opacity: 0.7; stroke-width: 0.6"/>
     </g>
     <g id="line2d_32">
      <g>
       <use xlink:href="#m8a281081b6" x="55.296" y="56.136" style="fill: #9b8bb8; stroke: #9b8bb8; stroke-width: 0.8"/>
      </g>
     </g>
     <g id="text_16">
      <!-- 270 -->
      <g style="fill: #9b8bb8" transform="translate(30.296 59.786) scale(0.1 -0.1)">
       <use xlink:href="#JetBrainsMono-Regular-32"/>
       <use xlink:href="#JetBrainsMono-Regular-37" transform="translate(59.999985 0)"/>
       <use xlink:href="#JetBrainsMono-Regular-30" transform="translate(119.999969 0)"/>
      </g>
     </g>
    </g>
    <g id="text_17">
     <!-- Rating -->
     <g style="fill: #9b8bb8" transform="translate(24.496 208.08) rotate(-90) scale(0.1 -0.1)">
      <defs>
       <path id="JetBrainsMono-Regular-52" d="M 595 0 
L 595 4672 
L 2035 4672 
Q 2451 4672 2764 4502 
Q 3078 4333 3251 4032 
Q 3424 3731 3424 3328 
Q 3424 2854 3181 2515 
Q 2938 2176 2534 2042 
L 3488 0 
L 2854 0 
L 1939 1984 
L 1165 1984 
L 1165 0 
L 595 0 
z
M 1165 2502 
L 2035 2502 
Q 2394 2502 2611 2729 
Q 2829 2957 2829 3328 
Q 2829 3706 2611 3930 
Q 2394 4154 2035 4154 
L 1165 4154 
L 1165 2502 
z
" transform="scale(0.015625)"/>
       <path id="JetBrainsMono-Regular-61" d="M 1613 -64 
Q 1069 -64 749 240 
Q 429 544 429 1037 
Q 429 1363 576 1606 
Q 723 1850 985 1987 
Q 1248 2125 1587 2125 
L 2675 2125 
L 2675 2400 
Q 2675 3085 1926 3085 
Q 1594 3085 1389 2963 
Q 1184 2842 1171 2624 
L 595 2624 
Q 627 3040 982 3312 
Q 1338 3584 1926 3584 
Q 2566 3584 2908 3277 
Q 3251 2970 3251 2419 
L 3251 0 
L 2682 0 
L 2682 640 
L 2669 640 
Q 2618 314 2342 125 
Q 2067 -64 1613 -64 
z
M 1754 422 
Q 2176 422 2425 627 
Q 2675 832 2675 1184 
L 2675 1677 
L 1651 1677 
Q 1370 1677 1194 1507 
Q 1018 1338 1018 1056 
Q 1018 762 1213 592 
Q 1408 422 1754 422 
z
" transform="scale(0.015625)"/>
       <path id="JetBrainsMono-Regular-74" d="M 2272 0 
Q 1837 0 1574 253 
Q 1312 506 1312 928 
L 1312 2995 
L 301 2995 
L 301 3520 
L 1312 3520 
L 1312 4512 
L 1888 4512 
L 1888 3520 
L 3328 3520 
L 3328 2995 
L 1888 2995 
L 1888 928 
Q 1888 749 1993 637 
Q 2099 525 2272 525 
L 3296 525 
L 3296 0 
L 2272 0 
z
" transform="scale(0.015625)"/>
       <path id="JetBrainsMono-Regular-69" d="M 544 0 
L 544 525 
L 1792 525 
L 1792 2995 
L 672 2995 
L 672 3520 
L 2368 3520 
L 2368 525 
L 3552 525 
L 3552 0 
L 544 0 
z
M 2016 4154 
Q 1805 4154 1683 4262 
Q 1562 4371 1562 4557 
Q 1562 4749 1683 4861 
Q 1805 4973 2016 4973 
Q 2227 4973 2348 4861 
Q 2470 4749 2470 4557 
Q 2470 4371 2348 4262 
Q 2227 4154 2016 4154 
z
" transform="scale(0.015625)"/>
       <path id="JetBrainsMono-Regular-6e" d="M 589 0 
L 589 3520 
L 1165 3520 
L 1165 2848 
L 1171 2848 
Q 1216 3200 1459 3392 
Q 1702 3584 2106 3584 
Q 2637 3584 2950 3257 
Q 3264 2931 3264 2368 
L 3264 0 
L 2688 0 
L 2688 2266 
Q 2688 2669 2486 2883 
Q 2285 3098 1939 3098 
Q 1581 3098 1373 2874 
Q 1165 2650 1165 2240 
L 1165 0 
L 589 0 
z
" transform="scale(0.015625)"/>
       <path id="JetBrainsMono-Regular-67" d="M 1030 -1152 
L 1030 -627 
L 2022 -627 
Q 2323 -627 2496 -457 
Q 2669 -288 2669 0 
L 2669 320 
L 2682 896 
L 2662 896 
Q 2611 582 2361 412 
Q 2112 243 1734 243 
Q 1190 243 876 588 
Q 563 934 563 1536 
L 563 2278 
Q 563 2880 876 3232 
Q 1190 3584 1734 3584 
Q 2112 3584 2361 3405 
Q 2611 3226 2662 2912 
L 2675 2912 
L 2675 3520 
L 3245 3520 
L 3245 0 
Q 3245 -531 2915 -841 
Q 2586 -1152 2016 -1152 
L 1030 -1152 
z
M 1907 723 
Q 2266 723 2470 947 
Q 2675 1171 2675 1568 
L 2675 2240 
Q 2675 2637 2470 2861 
Q 2266 3085 1907 3085 
Q 1542 3085 1340 2873 
Q 1139 2662 1139 2304 
L 1139 1504 
Q 1139 1146 1340 934 
Q 1542 723 1907 723 
z
" transform="scale(0.015625)"/>
      </defs>
      <use xlink:href="#JetBrainsMono-Regular-52"/>
      <use xlink:href="#JetBrainsMono-Regular-61" transform="translate(59.999985 0)"/>
      <use xlink:href="#JetBrainsMono-Regular-74" transform="translate(119.999969 0)"/>
      <use xlink:href="#JetBrainsMono-Regular-69" transform="translate(179.999954 0)"/>
      <use xlink:href="#JetBrainsMono-Regular-6e" transform="translate(239.999939 0)"/>
      <use xlink:href="#JetBrainsMono-Regular-67" transform="translate(299.999924 0)"/>
     </g>
    </g>
   </g>
   <g id="patch_3">
    <path d="M 55.296 324.72 
L 55.296 55.44 
" style="fill: none; stroke: #d8c8ef; stroke-width: 0.8; stroke-linejoin: miter; stroke-linecap: square"/>
   </g>
   <g id="patch_4">
    <path d="M 55.296 324.72 
L 546.048 324.72 
" style="fill: none; stroke: #d8c8ef; stroke-width: 0.8; stroke-linejoin: miter; stroke-linecap: square"/>
   </g>
   <g id="FillBetweenPolyCollection_1">
    <defs>
     <path id="mebb1b936e8" d="M 70.632 -71.28 
L 70.632 -89.427568 
L 72.170729 -90.883116 
L 73.709458 -92.113965 
L 75.248187 -93.131984 
L 76.786916 -93.94904 
L 78.325645 -94.577 
L 79.864375 -95.027734 
L 81.403104 -95.313108 
L 82.941833 -95.444991 
L 84.480562 -95.435251 
L 86.019291 -95.295755 
L 87.55802 -95.038371 
L 89.096749 -94.674968 
L 90.635478 -94.217412 
L 92.174207 -93.677573 
L 93.712936 -93.067317 
L 95.251666 -92.398513 
L 96.790395 -91.683029 
L 98.329124 -90.932732 
L 99.867853 -90.159491 
L 101.406582 -89.375173 
L 102.945311 -88.591646 
L 104.48404 -87.820779 
L 106.022769 -87.074438 
L 107.561498 -86.364492 
L 109.100227 -85.702809 
L 110.638957 -85.101256 
L 112.177686 -84.571702 
L 113.716415 -84.126015 
L 115.255144 -83.776062 
L 116.793873 -83.53371 
L 118.332602 -83.410829 
L 119.871331 -83.419286 
L 121.41006 -83.570949 
L 122.948789 -83.877686 
L 124.487518 -84.351364 
L 126.026247 -85.003852 
L 127.564977 -85.847017 
L 129.103706 -86.892727 
L 130.642435 -88.152851 
L 132.181164 -89.639241 
L 133.719893 -91.355205 
L 135.258622 -93.280994 
L 136.797351 -95.393012 
L 138.33608 -97.667665 
L 139.874809 -100.081356 
L 141.413538 -102.610491 
L 142.952268 -105.231473 
L 144.490997 -107.920708 
L 146.029726 -110.654601 
L 147.568455 -113.409554 
L 149.107184 -116.161974 
L 150.645913 -118.888265 
L 152.184642 -121.564831 
L 153.723371 -124.168076 
L 155.2621 -126.674406 
L 156.800829 -129.060226 
L 158.339559 -131.301938 
L 159.878288 -133.375949 
L 161.417017 -135.258663 
L 162.955746 -136.926537 
L 164.494475 -138.367371 
L 166.033204 -139.594265 
L 167.571933 -140.623745 
L 169.110662 -141.472336 
L 170.649391 -142.156563 
L 172.18812 -142.692949 
L 173.726849 -143.098022 
L 175.265579 -143.388304 
L 176.804308 -143.580322 
L 178.343037 -143.6906 
L 179.881766 -143.735663 
L 181.420495 -143.732036 
L 182.959224 -143.696244 
L 184.497953 -143.644812 
L 186.036682 -143.594264 
L 187.575411 -143.561126 
L 189.11414 -143.561923 
L 190.65287 -143.613179 
L 192.191599 -143.731419 
L 193.730328 -143.933095 
L 195.269057 -144.227066 
L 196.807786 -144.608101 
L 198.346515 -145.069441 
L 199.885244 -145.604325 
L 201.423973 -146.205992 
L 202.962702 -146.867684 
L 204.501431 -147.582639 
L 206.040161 -148.344097 
L 207.57889 -149.145298 
L 209.117619 -149.979482 
L 210.656348 -150.839889 
L 212.195077 -151.719758 
L 213.733806 -152.612329 
L 215.272535 -153.510842 
L 216.811264 -154.408537 
L 218.349993 -155.298653 
L 219.888722 -156.17443 
L 221.427452 -157.029108 
L 222.966181 -157.855927 
L 224.50491 -158.648183 
L 226.043639 -159.402513 
L 227.582368 -160.120741 
L 229.121097 -160.805132 
L 230.659826 -161.457956 
L 232.198555 -162.081478 
L 233.737284 -162.677967 
L 235.276013 -163.249689 
L 236.814742 -163.798913 
L 238.353472 -164.327905 
L 239.892201 -164.838933 
L 241.43093 -165.334265 
L 242.969659 -165.816167 
L 244.508388 -166.286907 
L 246.047117 -166.748752 
L 247.585846 -167.203971 
L 249.124575 -167.654829 
L 250.663304 -168.103595 
L 252.202033 -168.552536 
L 253.740763 -169.003919 
L 255.279492 -169.460051 
L 256.818221 -169.924761 
L 258.35695 -170.403857 
L 259.895679 -170.903277 
L 261.434408 -171.42896 
L 262.973137 -171.986847 
L 264.511866 -172.582876 
L 266.050595 -173.222987 
L 267.589324 -173.91312 
L 269.128054 -174.659213 
L 270.666783 -175.467205 
L 272.205512 -176.343037 
L 273.744241 -177.292647 
L 275.28297 -178.321976 
L 276.821699 -179.436961 
L 278.360428 -180.643543 
L 279.899157 -181.94766 
L 281.437886 -183.355253 
L 282.976615 -184.872261 
L 284.515344 -186.504622 
L 286.054074 -188.257921 
L 287.592803 -190.128139 
L 289.131532 -192.100778 
L 290.670261 -194.160813 
L 292.20899 -196.293217 
L 293.747719 -198.482962 
L 295.286448 -200.715024 
L 296.825177 -202.974374 
L 298.363906 -205.245987 
L 299.902635 -207.514836 
L 301.441365 -209.765895 
L 302.980094 -211.984136 
L 304.518823 -214.154534 
L 306.057552 -216.262061 
L 307.596281 -218.291692 
L 309.13501 -220.228399 
L 310.673739 -222.057156 
L 312.212468 -223.762937 
L 313.751197 -225.330715 
L 315.289926 -226.745463 
L 316.828656 -227.992862 
L 318.367385 -229.072559 
L 319.906114 -229.997003 
L 321.444843 -230.779119 
L 322.983572 -231.431831 
L 324.522301 -231.968063 
L 326.06103 -232.400737 
L 327.599759 -232.742778 
L 329.138488 -233.007111 
L 330.677217 -233.206657 
L 332.215946 -233.354343 
L 333.754676 -233.46309 
L 335.293405 -233.545824 
L 336.832134 -233.615467 
L 338.370863 -233.684944 
L 339.909592 -233.767178 
L 341.448321 -233.875093 
L 342.98705 -234.021614 
L 344.525779 -234.219663 
L 346.064508 -234.482165 
L 347.603237 -234.821347 
L 349.141967 -235.239015 
L 350.680696 -235.72895 
L 352.219425 -236.284729 
L 353.758154 -236.899929 
L 355.296883 -237.568126 
L 356.835612 -238.282896 
L 358.374341 -239.037816 
L 359.91307 -239.826461 
L 361.451799 -240.642407 
L 362.990528 -241.479232 
L 364.529258 -242.330512 
L 366.067987 -243.189822 
L 367.606716 -244.050739 
L 369.145445 -244.906839 
L 370.684174 -245.751699 
L 372.222903 -246.578895 
L 373.761632 -247.382003 
L 375.300361 -248.154599 
L 376.83909 -248.89026 
L 378.377819 -249.583102 
L 379.916548 -250.233526 
L 381.455278 -250.845988 
L 382.994007 -251.425009 
L 384.532736 -251.975112 
L 386.071465 -252.50082 
L 387.610194 -253.006655 
L 389.148923 -253.49714 
L 390.687652 -253.976797 
L 392.226381 -254.450148 
L 393.76511 -254.921716 
L 395.303839 -255.396024 
L 396.842569 -255.877594 
L 398.381298 -256.370948 
L 399.920027 -256.88061 
L 401.458756 -257.411101 
L 402.997485 -257.966944 
L 404.536214 -258.552661 
L 406.074943 -259.172776 
L 407.613672 -259.83181 
L 409.152401 -260.533764 
L 410.69113 -261.277835 
L 412.22986 -262.060629 
L 413.768589 -262.878731 
L 415.307318 -263.728721 
L 416.846047 -264.607182 
L 418.384776 -265.510697 
L 419.923505 -266.435848 
L 421.462234 -267.379218 
L 423.000963 -268.337388 
L 424.539692 -269.306941 
L 426.078421 -270.28446 
L 427.617151 -271.266526 
L 429.15588 -272.249723 
L 430.694609 -273.230633 
L 432.233338 -274.205838 
L 433.772067 -275.17192 
L 435.310796 -276.125462 
L 436.849525 -277.063046 
L 438.388254 -277.981254 
L 439.926983 -278.877273 
L 441.465712 -279.752743 
L 443.004441 -280.611305 
L 444.543171 -281.456607 
L 446.0819 -282.292299 
L 447.620629 -283.122028 
L 449.159358 -283.949445 
L 450.698087 -284.778198 
L 452.236816 -285.611936 
L 453.775545 -286.454308 
L 455.314274 -287.308962 
L 456.853003 -288.179548 
L 458.391732 -289.069714 
L 459.930462 -289.983111 
L 461.469191 -290.923385 
L 463.00792 -291.894187 
L 464.546649 -292.899165 
L 466.085378 -293.941968 
L 467.624107 -295.026245 
L 469.162836 -296.155646 
L 470.701565 -297.332806 
L 472.240294 -298.554299 
L 473.779023 -299.814449 
L 475.317753 -301.107579 
L 476.856482 -302.428008 
L 478.395211 -303.770058 
L 479.93394 -305.12805 
L 481.472669 -306.496305 
L 483.011398 -307.869144 
L 484.550127 -309.240887 
L 486.088856 -310.605857 
L 487.627585 -311.958374 
L 489.166314 -313.29276 
L 490.705043 -314.603334 
L 492.243773 -315.884419 
L 493.782502 -317.130335 
L 495.321231 -318.335403 
L 496.85996 -319.493945 
L 498.398689 -320.600281 
L 499.937418 -321.648733 
L 501.476147 -322.633621 
L 503.014876 -323.549267 
L 504.553605 -324.389991 
L 506.092334 -325.150115 
L 507.631064 -325.82396 
L 509.169793 -326.405846 
L 510.708522 -326.890096 
L 512.247251 -327.271029 
L 513.78598 -327.542967 
L 515.324709 -327.700232 
L 516.863438 -327.737143 
L 518.402167 -327.648022 
L 519.940896 -327.42719 
L 521.479625 -327.068969 
L 523.018355 -326.567679 
L 524.557084 -325.917641 
L 526.095813 -325.113176 
L 527.634542 -324.148606 
L 529.173271 -323.018251 
L 530.712 -321.716432 
L 530.712 -71.28 
L 530.712 -71.28 
L 529.173271 -71.28 
L 527.634542 -71.28 
L 526.095813 -71.28 
L 524.557084 -71.28 
L 523.018355 -71.28 
L 521.479625 -71.28 
L 519.940896 -71.28 
L 518.402167 -71.28 
L 516.863438 -71.28 
L 515.324709 -71.28 
L 513.78598 -71.28 
L 512.247251 -71.28 
L 510.708522 -71.28 
L 509.169793 -71.28 
L 507.631064 -71.28 
L 506.092334 -71.28 
L 504.553605 -71.28 
L 503.014876 -71.28 
L 501.476147 -71.28 
L 499.937418 -71.28 
L 498.398689 -71.28 
L 496.85996 -71.28 
L 495.321231 -71.28 
L 493.782502 -71.28 
L 492.243773 -71.28 
L 490.705043 -71.28 
L 489.166314 -71.28 
L 487.627585 -71.28 
L 486.088856 -71.28 
L 484.550127 -71.28 
L 483.011398 -71.28 
L 481.472669 -71.28 
L 479.93394 -71.28 
L 478.395211 -71.28 
L 476.856482 -71.28 
L 475.317753 -71.28 
L 473.779023 -71.28 
L 472.240294 -71.28 
L 470.701565 -71.28 
L 469.162836 -71.28 
L 467.624107 -71.28 
L 466.085378 -71.28 
L 464.546649 -71.28 
L 463.00792 -71.28 
L 461.469191 -71.28 
L 459.930462 -71.28 
L 458.391732 -71.28 
L 456.853003 -71.28 
L 455.314274 -71.28 
L 453.775545 -71.28 
L 452.236816 -71.28 
L 450.698087 -71.28 
L 449.159358 -71.28 
L 447.620629 -71.28 
L 446.0819 -71.28 
L 444.543171 -71.28 
L 443.004441 -71.28 
L 441.465712 -71.28 
L 439.926983 -71.28 
L 438.388254 -71.28 
L 436.849525 -71.28 
L 435.310796 -71.28 
L 433.772067 -71.28 
L 432.233338 -71.28 
L 430.694609 -71.28 
L 429.15588 -71.28 
L 427.617151 -71.28 
L 426.078421 -71.28 
L 424.539692 -71.28 
L 423.000963 -71.28 
L 421.462234 -71.28 
L 419.923505 -71.28 
L 418.384776 -71.28 
L 416.846047 -71.28 
L 415.307318 -71.28 
L 413.768589 -71.28 
L 412.22986 -71.28 
L 410.69113 -71.28 
L 409.152401 -71.28 
L 407.613672 -71.28 
L 406.074943 -71.28 
L 404.536214 -71.28 
L 402.997485 -71.28 
L 401.458756 -71.28 
L 399.920027 -71.28 
L 398.381298 -71.28 
L 396.842569 -71.28 
L 395.303839 -71.28 
L 393.76511 -71.28 
L 392.226381 -71.28 
L 390.687652 -71.28 
L 389.148923 -71.28 
L 387.610194 -71.28 
L 386.071465 -71.28 
L 384.532736 -71.28 
L 382.994007 -71.28 
L 381.455278 -71.28 
L 379.916548 -71.28 
L 378.377819 -71.28 
L 376.83909 -71.28 
L 375.300361 -71.28 
L 373.761632 -71.28 
L 372.222903 -71.28 
L 370.684174 -71.28 
L 369.145445 -71.28 
L 367.606716 -71.28 
L 366.067987 -71.28 
L 364.529258 -71.28 
L 362.990528 -71.28 
L 361.451799 -71.28 
L 359.91307 -71.28 
L 358.374341 -71.28 
L 356.835612 -71.28 
L 355.296883 -71.28 
L 353.758154 -71.28 
L 352.219425 -71.28 
L 350.680696 -71.28 
L 349.141967 -71.28 
L 347.603237 -71.28 
L 346.064508 -71.28 
L 344.525779 -71.28 
L 342.98705 -71.28 
L 341.448321 -71.28 
L 339.909592 -71.28 
L 338.370863 -71.28 
L 336.832134 -71.28 
L 335.293405 -71.28 
L 333.754676 -71.28 
L 332.215946 -71.28 
L 330.677217 -71.28 
L 329.138488 -71.28 
L 327.599759 -71.28 
L 326.06103 -71.28 
L 324.522301 -71.28 
L 322.983572 -71.28 
L 321.444843 -71.28 
L 319.906114 -71.28 
L 318.367385 -71.28 
L 316.828656 -71.28 
L 315.289926 -71.28 
L 313.751197 -71.28 
L 312.212468 -71.28 
L 310.673739 -71.28 
L 309.13501 -71.28 
L 307.596281 -71.28 
L 306.057552 -71.28 
L 304.518823 -71.28 
L 302.980094 -71.28 
L 301.441365 -71.28 
L 299.902635 -71.28 
L 298.363906 -71.28 
L 296.825177 -71.28 
L 295.286448 -71.28 
L 293.747719 -71.28 
L 292.20899 -71.28 
L 290.670261 -71.28 
L 289.131532 -71.28 
L 287.592803 -71.28 
L 286.054074 -71.28 
L 284.515344 -71.28 
L 282.976615 -71.28 
L 281.437886 -71.28 
L 279.899157 -71.28 
L 278.360428 -71.28 
L 276.821699 -71.28 
L 275.28297 -71.28 
L 273.744241 -71.28 
L 272.205512 -71.28 
L 270.666783 -71.28 
L 269.128054 -71.28 
L 267.589324 -71.28 
L 266.050595 -71.28 
L 264.511866 -71.28 
L 262.973137 -71.28 
L 261.434408 -71.28 
L 259.895679 -71.28 
L 258.35695 -71.28 
L 256.818221 -71.28 
L 255.279492 -71.28 
L 253.740763 -71.28 
L 252.202033 -71.28 
L 250.663304 -71.28 
L 249.124575 -71.28 
L 247.585846 -71.28 
L 246.047117 -71.28 
L 244.508388 -71.28 
L 242.969659 -71.28 
L 241.43093 -71.28 
L 239.892201 -71.28 
L 238.353472 -71.28 
L 236.814742 -71.28 
L 235.276013 -71.28 
L 233.737284 -71.28 
L 232.198555 -71.28 
L 230.659826 -71.28 
L 229.121097 -71.28 
L 227.582368 -71.28 
L 226.043639 -71.28 
L 224.50491 -71.28 
L 222.966181 -71.28 
L 221.427452 -71.28 
L 219.888722 -71.28 
L 218.349993 -71.28 
L 216.811264 -71.28 
L 215.272535 -71.28 
L 213.733806 -71.28 
L 212.195077 -71.28 
L 210.656348 -71.28 
L 209.117619 -71.28 
L 207.57889 -71.28 
L 206.040161 -71.28 
L 204.501431 -71.28 
L 202.962702 -71.28 
L 201.423973 -71.28 
L 199.885244 -71.28 
L 198.346515 -71.28 
L 196.807786 -71.28 
L 195.269057 -71.28 
L 193.730328 -71.28 
L 192.191599 -71.28 
L 190.65287 -71.28 
L 189.11414 -71.28 
L 187.575411 -71.28 
L 186.036682 -71.28 
L 184.497953 -71.28 
L 182.959224 -71.28 
L 181.420495 -71.28 
L 179.881766 -71.28 
L 178.343037 -71.28 
L 176.804308 -71.28 
L 175.265579 -71.28 
L 173.726849 -71.28 
L 172.18812 -71.28 
L 170.649391 -71.28 
L 169.110662 -71.28 
L 167.571933 -71.28 
L 166.033204 -71.28 
L 164.494475 -71.28 
L 162.955746 -71.28 
L 161.417017 -71.28 
L 159.878288 -71.28 
L 158.339559 -71.28 
L 156.800829 -71.28 
L 155.2621 -71.28 
L 153.723371 -71.28 
L 152.184642 -71.28 
L 150.645913 -71.28 
L 149.107184 -71.28 
L 147.568455 -71.28 
L 146.029726 -71.28 
L 144.490997 -71.28 
L 142.952268 -71.28 
L 141.413538 -71.28 
L 139.874809 -71.28 
L 138.33608 -71.28 
L 136.797351 -71.28 
L 135.258622 -71.28 
L 133.719893 -71.28 
L 132.181164 -71.28 
L 130.642435 -71.28 
L 129.103706 -71.28 
L 127.564977 -71.28 
L 126.026247 -71.28 
L 124.487518 -71.28 
L 122.948789 -71.28 
L 121.41006 -71.28 
L 119.871331 -71.28 
L 118.332602 -71.28 
L 116.793873 -71.28 
L 115.255144 -71.28 
L 113.716415 -71.28 
L 112.177686 -71.28 
L 110.638957 -71.28 
L 109.100227 -71.28 
L 107.561498 -71.28 
L 106.022769 -71.28 
L 104.48404 -71.28 
L 102.945311 -71.28 
L 101.406582 -71.28 
L 99.867853 -71.28 
L 98.329124 -71.28 
L 96.790395 -71.28 
L 95.251666 -71.28 
L 93.712936 -71.28 
L 92.174207 -71.28 
L 90.635478 -71.28 
L 89.096749 -71.28 
L 87.55802 -71.28 
L 86.019291 -71.28 
L 84.480562 -71.28 
L 82.941833 -71.28 
L 81.403104 -71.28 
L 79.864375 -71.28 
L 78.325645 -71.28 
L 76.786916 -71.28 
L 75.248187 -71.28 
L 73.709458 -71.28 
L 72.170729 -71.28 
L 70.632 -71.28 
z
" style="stroke: #8b5cf6; stroke-opacity: 0.12"/>
    </defs>
    <g clip-path="url(#p56137ba54f)">
     <use xlink:href="#mebb1b936e8" x="0" y="396" style="fill: #8b5cf6; fill-opacity: 0.12; stroke: #8b5cf6; stroke-opacity: 0.12"/>
    </g>
   </g>
   <g id="text_18">
    <!-- 265 -->
    <g style="fill: #8b5cf6" transform="translate(533.712 71.283568) scale(0.12 -0.12)">
     <defs>
      <path id="JetBrainsMono-Bold-32" d="M 474 0 
L 474 723 
L 2157 2445 
Q 2566 2874 2566 3315 
Q 2566 3629 2384 3824 
Q 2202 4019 1894 4019 
Q 1581 4019 1392 3817 
Q 1203 3616 1203 3283 
L 403 3283 
Q 403 3718 595 4044 
Q 787 4371 1126 4553 
Q 1466 4736 1914 4736 
Q 2355 4736 2688 4563 
Q 3021 4390 3203 4080 
Q 3386 3770 3386 3354 
Q 3386 2995 3216 2636 
Q 3046 2278 2656 1894 
L 1478 723 
L 3443 723 
L 3443 0 
L 474 0 
z
" transform="scale(0.015625)"/>
      <path id="JetBrainsMono-Bold-36" d="M 1920 -64 
Q 1440 -64 1085 128 
Q 730 320 534 669 
Q 339 1018 339 1485 
Q 339 1760 457 2115 
Q 576 2470 781 2835 
L 1792 4672 
L 2701 4672 
L 1498 2611 
L 1523 2598 
Q 1619 2733 1804 2809 
Q 1990 2886 2208 2886 
Q 2598 2886 2889 2710 
Q 3181 2534 3341 2214 
Q 3501 1894 3501 1459 
Q 3501 998 3305 656 
Q 3110 314 2755 125 
Q 2400 -64 1920 -64 
z
M 1920 614 
Q 2278 614 2496 841 
Q 2714 1069 2714 1446 
Q 2714 1830 2496 2057 
Q 2278 2285 1920 2285 
Q 1562 2285 1344 2057 
Q 1126 1830 1126 1446 
Q 1126 1069 1344 841 
Q 1562 614 1920 614 
z
" transform="scale(0.015625)"/>
      <path id="JetBrainsMono-Bold-35" d="M 1894 -64 
Q 1210 -64 803 297 
Q 397 659 397 1280 
L 1197 1280 
Q 1197 986 1385 810 
Q 1574 634 1901 634 
Q 2227 634 2409 810 
Q 2592 986 2592 1299 
L 2592 1606 
Q 2592 1920 2413 2096 
Q 2234 2272 1907 2272 
L 557 2272 
L 557 4672 
L 3219 4672 
L 3219 3949 
L 1312 3949 
L 1318 2976 
L 1946 2976 
Q 2637 2976 3014 2617 
Q 3392 2259 3392 1606 
L 3392 1299 
Q 3392 666 2992 301 
Q 2592 -64 1894 -64 
z
" transform="scale(0.015625)"/>
     </defs>
     <use xlink:href="#JetBrainsMono-Bold-32"/>
     <use xlink:href="#JetBrainsMono-Bold-36" transform="translate(59.999985 0)"/>
     <use xlink:href="#JetBrainsMono-Bold-35" transform="translate(119.999969 0)"/>
    </g>
   </g>
   <g id="text_19">
    <!-- Rating History -->
    <g style="fill: #8b5cf6" transform="translate(55.296 50.44) scale(0.17 -0.17)">
     <defs>
      <path id="JetBrainsMono-Bold-52" d="M 493 0 
L 493 4672 
L 1965 4672 
Q 2432 4672 2774 4499 
Q 3117 4326 3309 4016 
Q 3501 3706 3501 3283 
Q 3501 2816 3270 2467 
Q 3040 2118 2650 1971 
L 3565 0 
L 2688 0 
L 1869 1856 
L 1286 1856 
L 1286 0 
L 493 0 
z
M 1286 2560 
L 1965 2560 
Q 2304 2560 2496 2745 
Q 2688 2931 2688 3258 
Q 2688 3584 2493 3776 
Q 2298 3968 1965 3968 
L 1286 3968 
L 1286 2560 
z
" transform="scale(0.015625)"/>
      <path id="JetBrainsMono-Bold-61" d="M 1530 -64 
Q 992 -64 681 240 
Q 371 544 371 1037 
Q 371 1549 723 1853 
Q 1075 2157 1690 2157 
L 2547 2157 
L 2547 2406 
Q 2547 2938 1926 2938 
Q 1645 2938 1478 2829 
Q 1312 2720 1293 2522 
L 525 2522 
Q 550 2995 924 3289 
Q 1299 3584 1933 3584 
Q 2605 3584 2976 3270 
Q 3347 2957 3347 2387 
L 3347 0 
L 2566 0 
L 2566 659 
Q 2522 320 2246 128 
Q 1971 -64 1530 -64 
z
M 1786 589 
Q 2138 589 2342 761 
Q 2547 934 2547 1222 
L 2547 1638 
L 1728 1638 
Q 1466 1638 1312 1491 
Q 1158 1344 1158 1114 
Q 1158 877 1321 733 
Q 1485 589 1786 589 
z
" transform="scale(0.015625)"/>
      <path id="JetBrainsMono-Bold-74" d="M 2272 0 
Q 1779 0 1488 285 
Q 1197 570 1197 1056 
L 1197 2797 
L 224 2797 
L 224 3520 
L 1197 3520 
L 1197 4512 
L 2003 4512 
L 2003 3520 
L 3405 3520 
L 3405 2797 
L 2003 2797 
L 2003 1075 
Q 2003 922 2089 822 
Q 2176 723 2330 723 
L 3373 723 
L 3373 0 
L 2272 0 
z
" transform="scale(0.015625)"/>
      <path id="JetBrainsMono-Bold-69" d="M 486 0 
L 486 723 
L 1690 723 
L 1690 2797 
L 614 2797 
L 614 3520 
L 2490 3520 
L 2490 723 
L 3571 723 
L 3571 0 
L 486 0 
z
M 2032 4109 
Q 1789 4109 1648 4233 
Q 1507 4358 1507 4570 
Q 1507 4781 1648 4905 
Q 1789 5030 2032 5030 
Q 2275 5030 2416 4905 
Q 2557 4781 2557 4570 
Q 2557 4358 2416 4233 
Q 2275 4109 2032 4109 
z
" transform="scale(0.015625)"/>
      <path id="JetBrainsMono-Bold-6e" d="M 493 0 
L 493 3520 
L 1274 3520 
L 1274 2861 
Q 1338 3194 1587 3389 
Q 1837 3584 2221 3584 
Q 2739 3584 3049 3238 
Q 3360 2893 3360 2310 
L 3360 0 
L 2560 0 
L 2560 2214 
Q 2560 2541 2390 2717 
Q 2221 2893 1933 2893 
Q 1632 2893 1462 2713 
Q 1293 2534 1293 2202 
L 1293 0 
L 493 0 
z
" transform="scale(0.015625)"/>
      <path id="JetBrainsMono-Bold-67" d="M 973 -1152 
L 973 -486 
L 1965 -486 
Q 2246 -486 2400 -336 
Q 2554 -186 2554 70 
L 2554 282 
L 2566 832 
Q 2458 538 2218 374 
Q 1978 211 1632 211 
Q 1094 211 777 572 
Q 461 934 461 1555 
L 461 2240 
Q 461 2854 777 3219 
Q 1094 3584 1632 3584 
Q 1978 3584 2218 3421 
Q 2458 3258 2566 2957 
L 2566 3520 
L 3347 3520 
L 3347 51 
Q 3347 -506 2979 -829 
Q 2611 -1152 1978 -1152 
L 973 -1152 
z
M 1901 896 
Q 2208 896 2377 1078 
Q 2547 1261 2547 1587 
L 2547 2202 
Q 2547 2528 2377 2710 
Q 2208 2893 1901 2893 
Q 1594 2893 1427 2717 
Q 1261 2541 1261 2227 
L 1261 1562 
Q 1261 1248 1427 1072 
Q 1594 896 1901 896 
z
" transform="scale(0.015625)"/>
      <path id="JetBrainsMono-Bold-20" transform="scale(0.015625)"/>
      <path id="JetBrainsMono-Bold-48" d="M 493 0 
L 493 4672 
L 1293 4672 
L 1293 2778 
L 2547 2778 
L 2547 4672 
L 3347 4672 
L 3347 0 
L 2547 0 
L 2547 2054 
L 1293 2054 
L 1293 0 
L 493 0 
z
" transform="scale(0.015625)"/>
      <path id="JetBrainsMono-Bold-73" d="M 1773 -58 
Q 1146 -58 781 227 
Q 416 512 416 998 
L 1203 998 
Q 1203 794 1353 685 
Q 1504 576 1773 576 
L 2054 576 
Q 2342 576 2499 685 
Q 2656 794 2656 998 
Q 2656 1190 2547 1283 
Q 2438 1376 2214 1408 
L 1338 1523 
Q 915 1581 688 1849 
Q 461 2118 461 2547 
Q 461 3046 793 3312 
Q 1126 3578 1754 3578 
L 2048 3578 
Q 2637 3578 2995 3309 
Q 3354 3040 3366 2592 
L 2573 2592 
Q 2566 2758 2425 2857 
Q 2285 2957 2048 2957 
L 1754 2957 
Q 1498 2957 1363 2851 
Q 1229 2746 1229 2566 
Q 1229 2406 1328 2329 
Q 1427 2253 1619 2234 
L 2445 2118 
Q 2931 2061 3177 1776 
Q 3424 1491 3424 1011 
Q 3424 499 3075 220 
Q 2726 -58 2054 -58 
L 1773 -58 
z
" transform="scale(0.015625)"/>
      <path id="JetBrainsMono-Bold-6f" d="M 1920 -58 
Q 1242 -58 845 323 
Q 448 704 448 1350 
L 448 2170 
Q 448 2822 845 3200 
Q 1242 3578 1920 3578 
Q 2598 3578 2995 3200 
Q 3392 2822 3392 2170 
L 3392 1350 
Q 3392 704 2995 323 
Q 2598 -58 1920 -58 
z
M 1920 640 
Q 2240 640 2416 816 
Q 2592 992 2592 1325 
L 2592 2195 
Q 2592 2528 2416 2704 
Q 2240 2880 1920 2880 
Q 1600 2880 1424 2704 
Q 1248 2528 1248 2195 
L 1248 1325 
Q 1248 992 1424 816 
Q 1600 640 1920 640 
z
" transform="scale(0.015625)"/>
      <path id="JetBrainsMono-Bold-72" d="M 621 0 
L 621 3520 
L 1402 3520 
L 1402 2835 
Q 1466 3181 1718 3382 
Q 1971 3584 2374 3584 
Q 2912 3584 3213 3238 
Q 3514 2893 3514 2272 
L 3514 1939 
L 2714 1939 
L 2714 2234 
Q 2714 2554 2547 2723 
Q 2381 2893 2074 2893 
Q 1754 2893 1587 2701 
Q 1421 2509 1421 2157 
L 1421 0 
L 621 0 
z
" transform="scale(0.015625)"/>
      <path id="JetBrainsMono-Bold-79" d="M 1056 -1152 
L 1555 192 
L 230 3520 
L 1075 3520 
L 1754 1722 
Q 1811 1562 1868 1373 
Q 1926 1184 1952 1024 
Q 1971 1184 2025 1373 
Q 2080 1562 2138 1722 
L 2765 3520 
L 3610 3520 
L 1894 -1152 
L 1056 -1152 
z
" transform="scale(0.015625)"/>
     </defs>
     <use xlink:href="#JetBrainsMono-Bold-52"/>
     <use xlink:href="#JetBrainsMono-Bold-61" transform="translate(59.999985 0)"/>
     <use xlink:href="#JetBrainsMono-Bold-74" transform="translate(119.999969 0)"/>
     <use xlink:href="#JetBrainsMono-Bold-69" transform="translate(179.999954 0)"/>
     <use xlink:href="#JetBrainsMono-Bold-6e" transform="translate(239.999939 0)"/>
     <use xlink:href="#JetBrainsMono-Bold-67" transform="translate(299.999924 0)"/>
     <use xlink:href="#JetBrainsMono-Bold-20" transform="translate(359.999908 0)"/>
     <use xlink:href="#JetBrainsMono-Bold-48" transform="translate(419.999893 0)"/>
     <use xlink:href="#JetBrainsMono-Bold-69" transform="translate(479.999878 0)"/>
     <use xlink:href="#JetBrainsMono-Bold-73" transform="translate(539.999863 0)"/>
     <use xlink:href="#JetBrainsMono-Bold-74" transform="translate(599.999847 0)"/>
     <use xlink:href="#JetBrainsMono-Bold-6f" transform="translate(659.999832 0)"/>
     <use xlink:href="#JetBrainsMono-Bold-72" transform="translate(719.999817 0)"/>
     <use xlink:href="#JetBrainsMono-Bold-79" transform="translate(779.999802 0)"/>
    </g>
   </g>
   <g id="line2d_33">
    <path d="M 70.632 306.572432 
L 72.170729 305.116884 
L 73.709458 303.886035 
L 75.248187 302.868016 
L 76.786916 302.05096 
L 78.325645 301.423 
L 79.864375 300.972266 
L 81.403104 300.686892 
L 82.941833 300.555009 
L 84.480562 300.564749 
L 86.019291 300.704245 
L 89.096749 301.325032 
L 92.174207 302.322427 
L 95.251666 303.601487 
L 99.867853 305.840509 
L 106.022769 308.925562 
L 109.100227 310.297191 
L 112.177686 311.428298 
L 115.255144 312.223938 
L 116.793873 312.46629 
L 118.332602 312.589171 
L 119.871331 312.580714 
L 121.41006 312.429051 
L 122.948789 312.122314 
L 124.487518 311.648636 
L 126.026247 310.996148 
L 127.564977 310.152983 
L 129.103706 309.107273 
L 130.642435 307.847149 
L 132.181164 306.360759 
L 133.719893 304.644795 
L 135.258622 302.719006 
L 138.33608 298.332335 
L 141.413538 293.389509 
L 146.029726 285.345399 
L 152.184642 274.435169 
L 155.2621 269.325594 
L 158.339559 264.698062 
L 159.878288 262.624051 
L 161.417017 260.741337 
L 162.955746 259.073463 
L 164.494475 257.632629 
L 166.033204 256.405735 
L 167.571933 255.376255 
L 169.110662 254.527664 
L 170.649391 253.843437 
L 172.18812 253.307051 
L 175.265579 252.611696 
L 178.343037 252.3094 
L 181.420495 252.267964 
L 190.65287 252.386821 
L 193.730328 252.066905 
L 196.807786 251.391899 
L 199.885244 250.395675 
L 202.962702 249.132316 
L 206.040161 247.655903 
L 210.656348 245.160111 
L 224.50491 237.351817 
L 229.121097 235.194868 
L 233.737284 233.322033 
L 238.353472 231.672095 
L 244.508388 229.713093 
L 261.434408 224.57104 
L 264.511866 223.417124 
L 267.589324 222.08688 
L 270.666783 220.532795 
L 273.744241 218.707353 
L 276.821699 216.563039 
L 279.899157 214.05234 
L 282.976615 211.127739 
L 286.054074 207.742079 
L 289.131532 203.899222 
L 292.20899 199.706783 
L 296.825177 193.025626 
L 304.518823 181.845466 
L 307.596281 177.708308 
L 310.673739 173.942844 
L 313.751197 170.669285 
L 315.289926 169.254537 
L 316.828656 168.007138 
L 318.367385 166.927441 
L 319.906114 166.002997 
L 321.444843 165.220881 
L 324.522301 164.031937 
L 327.599759 163.257222 
L 330.677217 162.793343 
L 335.293405 162.454176 
L 341.448321 162.124907 
L 344.525779 161.780337 
L 347.603237 161.178653 
L 350.680696 160.27105 
L 353.758154 159.100071 
L 356.835612 157.717104 
L 361.451799 155.357593 
L 376.83909 147.10974 
L 379.916548 145.766474 
L 384.532736 144.024888 
L 390.687652 142.023203 
L 399.920027 139.11939 
L 404.536214 137.447339 
L 407.613672 136.16819 
L 410.69113 134.722165 
L 415.307318 132.271279 
L 419.923505 129.564152 
L 427.617151 124.733474 
L 436.849525 118.936954 
L 443.004441 115.388695 
L 459.930462 106.016889 
L 464.546649 103.100835 
L 469.162836 99.844354 
L 473.779023 96.185551 
L 479.93394 90.87195 
L 490.705043 81.396666 
L 495.321231 77.664597 
L 498.398689 75.399719 
L 501.476147 73.366379 
L 504.553605 71.610009 
L 507.631064 70.17604 
L 510.708522 69.109904 
L 513.78598 68.457033 
L 515.324709 68.299768 
L 516.863438 68.262857 
L 518.402167 68.351978 
L 519.940896 68.57281 
L 521.479625 68.931031 
L 523.018355 69.432321 
L 524.557084 70.082359 
L 526.095813 70.886824 
L 527.634542 71.851394 
L 529.173271 72.981749 
L 530.712 74.283568 
L 530.712 74.283568 
" clip-path="url(#p56137ba54f)" style="fill: none; stroke: #8b5cf6; stroke-width: 1.2; stroke-linecap: round"/>
   </g>
   <g id="PathCollection_1">
    <defs>
     <path id="mff86a50f24" d="M 0 2.236068 
C 0.593012 2.236068 1.161816 2.000462 1.581139 1.581139 
C 2.000462 1.161816 2.236068 0.593012 2.236068 0 
C 2.236068 -0.593012 2.000462 -1.161816 1.581139 -1.581139 
C 1.161816 -2.000462 0.593012 -2.236068 0 -2.236068 
C -0.593012 -2.236068 -1.161816 -2.000462 -1.581139 -1.581139 
C -2.000462 -1.161816 -2.236068 -0.593012 -2.236068 0 
C -2.236068 0.593012 -2.000462 1.161816 -1.581139 1.581139 
C -1.161816 2.000462 -0.593012 2.236068 0 2.236068 
z
" style="stroke: #ffffff; stroke-width: 0.8"/>
    </defs>
    <g clip-path="url(#p56137ba54f)">
     <use xlink:href="#mff86a50f24" x="530.712" y="74.283568" style="fill: #8b5cf6; stroke: #ffffff; stroke-width: 0.8"/>
    </g>
   </g>
  </g>
  <g id="axes_2">
   <g id="text_20">
    <!-- Rating -->
    <g style="fill: #9b8bb8" transform="translate(565.7472 48.312) scale(0.11 -0.11)">
     <use xlink:href="#JetBrainsMono-Regular-52"/>
     <use xlink:href="#JetBrainsMono-Regular-61" transform="translate(59.999985 0)"/>
     <use xlink:href="#JetBrainsMono-Regular-74" transform="translate(119.999969 0)"/>
     <use xlink:href="#JetBrainsMono-Regular-69" transform="translate(179.999954 0)"/>
     <use xlink:href="#JetBrainsMono-Regular-6e" transform="translate(239.999939 0)"/>
     <use xlink:href="#JetBrainsMono-Regular-67" transform="translate(299.999924 0)"/>
    </g>
   </g>
   <g id="text_21">
    <!-- 265 -->
    <g style="fill: #8b5cf6" transform="translate(565.7472 81.548) scale(0.26 -0.26)">
     <use xlink:href="#JetBrainsMono-Bold-32"/>
     <use xlink:href="#JetBrainsMono-Bold-36" transform="translate(59.999985 0)"/>
     <use xlink:href="#JetBrainsMono-Bold-35" transform="translate(119.999969 0)"/>
    </g>
   </g>
   <g id="text_22">
    <!-- Rank -->
    <g style="fill: #9b8bb8" transform="translate(565.7472 119.592) scale(0.11 -0.11)">
     <defs>
      <path id="JetBrainsMono-Regular-6b" d="M 621 0 
L 621 4672 
L 1197 4672 
L 1197 2067 
L 1869 2067 
L 2854 3520 
L 3514 3520 
L 2381 1843 
L 3578 0 
L 2906 0 
L 1882 1568 
L 1197 1568 
L 1197 0 
L 621 0 
z
" transform="scale(0.015625)"/>
     </defs>
     <use xlink:href="#JetBrainsMono-Regular-52"/>
     <use xlink:href="#JetBrainsMono-Regular-61" transform="translate(59.999985 0)"/>
     <use xlink:href="#JetBrainsMono-Regular-6e" transform="translate(119.999969 0)"/>
     <use xlink:href="#JetBrainsMono-Regular-6b" transform="translate(179.999954 0)"/>
    </g>
   </g>
   <g id="text_23">
    <!-- #117,911 -->
    <g style="fill: #8b5cf6" transform="translate(565.7472 148.104) scale(0.14 -0.14)">
     <defs>
      <path id="JetBrainsMono-Bold-23" d="M 493 0 
L 710 1216 
L 224 1216 
L 224 1760 
L 800 1760 
L 998 2912 
L 448 2912 
L 448 3456 
L 1094 3456 
L 1312 4672 
L 1875 4672 
L 1658 3456 
L 2566 3456 
L 2784 4672 
L 3347 4672 
L 3130 3456 
L 3616 3456 
L 3616 2912 
L 3034 2912 
L 2835 1760 
L 3392 1760 
L 3392 1216 
L 2739 1216 
L 2528 0 
L 1965 0 
L 2182 1216 
L 1267 1216 
L 1056 0 
L 493 0 
z
M 1363 1760 
L 2272 1760 
L 2470 2912 
L 1562 2912 
L 1363 1760 
z
" transform="scale(0.015625)"/>
      <path id="JetBrainsMono-Bold-31" d="M 538 0 
L 538 723 
L 1754 723 
L 1754 3898 
L 531 3002 
L 531 3898 
L 1606 4672 
L 2554 4672 
L 2554 723 
L 3533 723 
L 3533 0 
L 538 0 
z
" transform="scale(0.015625)"/>
      <path id="JetBrainsMono-Bold-37" d="M 1011 0 
L 2720 3968 
L 1229 3968 
L 1229 3206 
L 429 3206 
L 429 4672 
L 3584 4672 
L 3584 3968 
L 1888 0 
L 1011 0 
z
" transform="scale(0.015625)"/>
      <path id="JetBrainsMono-Bold-2c" d="M 1216 -1024 
L 1555 934 
L 2470 934 
L 1984 -1024 
L 1216 -1024 
z
" transform="scale(0.015625)"/>
      <path id="JetBrainsMono-Bold-39" d="M 1120 0 
L 2214 1888 
Q 2138 1830 2035 1788 
Q 1933 1747 1728 1747 
Q 1344 1747 1027 1932 
Q 710 2118 524 2448 
Q 339 2778 339 3213 
Q 339 3674 534 4016 
Q 730 4358 1085 4547 
Q 1440 4736 1920 4736 
Q 2400 4736 2755 4544 
Q 3110 4352 3305 4003 
Q 3501 3654 3501 3187 
Q 3501 2912 3382 2557 
Q 3264 2202 3059 1837 
L 2048 0 
L 1120 0 
z
M 1920 2387 
Q 2278 2387 2496 2614 
Q 2714 2842 2714 3226 
Q 2714 3603 2496 3830 
Q 2278 4058 1920 4058 
Q 1562 4058 1344 3830 
Q 1126 3603 1126 3226 
Q 1126 2842 1344 2614 
Q 1562 2387 1920 2387 
z
" transform="scale(0.015625)"/>
     </defs>
     <use xlink:href="#JetBrainsMono-Bold-23"/>
     <use xlink:href="#JetBrainsMono-Bold-31" transform="translate(59.999985 0)"/>
     <use xlink:href="#JetBrainsMono-Bold-31" transform="translate(119.999969 0)"/>
     <use xlink:href="#JetBrainsMono-Bold-37" transform="translate(179.999954 0)"/>
     <use xlink:href="#JetBrainsMono-Bold-2c" transform="translate(239.999939 0)"/>
     <use xlink:href="#JetBrainsMono-Bold-39" transform="translate(299.999924 0)"/>
     <use xlink:href="#JetBrainsMono-Bold-31" transform="translate(359.999908 0)"/>
     <use xlink:href="#JetBrainsMono-Bold-31" transform="translate(419.999893 0)"/>
    </g>
   </g>
   <g id="text_24">
    <!-- ─ 0 -->
    <g style="fill: #9b8bb8" transform="translate(565.7472 169.488) scale(0.11 -0.11)">
     <defs>
      <path id="JetBrainsMono-Bold-2500" d="M -128 2048 
L -128 2688 
L 3968 2688 
L 3968 2048 
L -128 2048 
z
" transform="scale(0.015625)"/>
      <path id="JetBrainsMono-Bold-30" d="M 1920 -64 
Q 1466 -64 1133 109 
Q 800 282 617 595 
Q 435 909 435 1331 
L 435 3341 
Q 435 3763 617 4076 
Q 800 4390 1133 4563 
Q 1466 4736 1920 4736 
Q 2374 4736 2707 4563 
Q 3040 4390 3222 4076 
Q 3405 3763 3405 3341 
L 3405 1331 
Q 3405 909 3222 595 
Q 3040 282 2707 109 
Q 2374 -64 1920 -64 
z
M 1920 627 
Q 2253 627 2451 819 
Q 2650 1011 2650 1331 
L 2650 3341 
Q 2650 3661 2454 3853 
Q 2259 4045 1920 4045 
Q 1581 4045 1385 3853 
Q 1190 3661 1190 3341 
L 1190 1331 
Q 1190 1011 1388 819 
Q 1587 627 1920 627 
z
M 1920 1952 
Q 1728 1952 1613 2057 
Q 1498 2163 1498 2355 
Q 1498 2547 1613 2646 
Q 1728 2746 1920 2746 
Q 2112 2746 2227 2646 
Q 2342 2547 2342 2355 
Q 2342 2163 2227 2057 
Q 2112 1952 1920 1952 
z
" transform="scale(0.015625)"/>
     </defs>
     <use xlink:href="#JetBrainsMono-Bold-2500"/>
     <use xlink:href="#JetBrainsMono-Bold-20" transform="translate(59.999985 0)"/>
     <use xlink:href="#JetBrainsMono-Bold-30" transform="translate(119.999969 0)"/>
    </g>
   </g>
  </g>
 </g>
 <defs>
  <clipPath id="p56137ba54f">
   <rect x="55.296" y="55.44" width="490.752" height="269.28"/>
  </clipPath>
 </defs>
</svg>
