<?xml version="1.0" encoding="utf-8" standalone="no"?>
<!DOCTYPE svg PUBLIC "-//W3C//DTD SVG 1.1//EN"
  "http://www.w3.org/Graphics/SVG/1.1/DTD/svg11.dtd">
<svg xmlns:xlink="http://www.w3.org/1999/xlink" width="691.2pt" height="396pt" viewBox="0 0 691.2 396" xmlns="http://www.w3.org/2000/svg" version="1.1">
 <metadata>
  <rdf:RDF xmlns:dc="http://purl.org/dc/elements/1.1/" xmlns:cc="http://creativecommons.org/ns#" xmlns:rdf="http://www.w3.org/1999/02/22-rdf-syntax-ns#">
   <cc:Work>
    <dc:type rdf:resource="http://purl.org/dc/dcmitype/StillImage"/>
    <dc:date>2026-04-14T15:59:37.061437</dc:date>
    <dc:format>image/svg+xml</dc:format>
    <dc:creator>
     <cc:Agent>
      <dc:title>Matplotlib v3.10.8, https://matplotlib.org/</dc:title>
     </cc:Agent>
    </dc:creator>
   </cc:Work>
  </rdf:RDF>
 </metadata>
 <defs>
  <style type="text/css">*{stroke-linejoin: round; stroke-linecap: butt}</style>
 </defs>
 <g id="figure_1">
  <g id="patch_1">
   <path d="M 0 396 
L 691.2 396 
L 691.2 0 
L 0 0 
L 0 396 
z
" style="fill: none"/>
  </g>
  <g id="axes_1">
   <g id="patch_2">
    <path d="M 55.296 324.72 
L 546.048 324.72 
L 546.048 55.44 
L 55.296 55.44 
L 55.296 324.72 
z
" style="fill: none"/>
   </g>
   <g id="matplotlib.axis_1">
    <g id="xtick_1">
     <g id="line2d_1">
      <path d="M 71.6544 324.72 
L 71.6544 55.44 
" clip-path="url(#p0854e7879d)" style="fill: none; stroke-dasharray: 2.22,0.96; stroke-dashoffset: 0; stroke: #e2d5f5; stroke-opacity: 0.7; stroke-width: 0.6"/>
     </g>
     <g id="line2d_2">
      <defs>
       <path id="mb88d8b8beb" d="M 0 0 
L 0 3.5 
" style="stroke: #9b8bb8; stroke-width: 0.8"/>
      </defs>
      <g>
       <use xlink:href="#mb88d8b8beb" x="71.6544" y="324.72" style="fill: #9b8bb8; stroke: #9b8bb8; stroke-width: 0.8"/>
      </g>
     </g>
     <g id="text_1">
      <!-- 03/31 -->
      <g style="fill: #9b8bb8" transform="translate(60.114019 353.301793) rotate(-30) scale(0.1 -0.1)">
       <defs>
        <path id="JetBrainsMono-Regular-30" d="M 1920 -64 
Q 1274 -64 893 310 
Q 512 685 512 1312 
L 512 3360 
Q 512 3987 893 4361 
Q 1274 4736 1920 4736 
Q 2566 4736 2947 4361 
Q 3328 3987 3328 3360 
L 3328 1312 
Q 3328 896 3155 585 
Q 2982 275 2665 105 
Q 2349 -64 1920 -64 
z
M 1920 429 
Q 2304 429 2537 675 
Q 2771 922 2771 1312 
L 2771 3360 
Q 2771 3750 2537 3996 
Q 2304 4243 1920 4243 
Q 1536 4243 1302 3996 
Q 1069 3750 1069 3360 
L 1069 1312 
Q 1069 922 1302 675 
Q 1536 429 1920 429 
z
M 1920 1984 
Q 1747 1984 1641 2080 
Q 1536 2176 1536 2355 
Q 1536 2528 1641 2621 
Q 1747 2714 1920 2714 
Q 2093 2714 2198 2621 
Q 2304 2528 2304 2355 
Q 2304 2176 2198 2080 
Q 2093 1984 1920 1984 
z
" transform="scale(0.015625)"/>
        <path id="JetBrainsMono-Regular-33" d="M 1850 -64 
Q 1203 -64 825 297 
Q 448 659 448 1280 
L 1024 1280 
Q 1024 896 1248 672 
Q 1472 448 1856 448 
Q 2240 448 2464 672 
Q 2688 896 2688 1280 
L 2688 1600 
Q 2688 1984 2464 2208 
Q 2240 2432 1856 2432 
L 1350 2432 
L 1350 2931 
L 2496 4147 
L 576 4147 
L 576 4672 
L 3149 4672 
L 3149 4134 
L 2022 2938 
Q 2598 2893 2931 2537 
Q 3264 2182 3264 1600 
L 3264 1280 
Q 3264 659 2883 297 
Q 2502 -64 1850 -64 
z
" transform="scale(0.015625)"/>
        <path id="JetBrainsMono-Regular-2f" d="M 480 -704 
L 2752 5312 
L 3360 5312 
L 1088 -704 
L 480 -704 
z
" transform="scale(0.015625)"/>
        <path id="JetBrainsMono-Regular-31" d="M 576 0 
L 576 525 
L 1843 525 
L 1843 4173 
L 576 3226 
L 576 3885 
L 1632 4672 
L 2419 4672 
L 2419 525 
L 3456 525 
L 3456 0 
L 576 0 
z
" transform="scale(0.015625)"/>
       </defs>
       <use xlink:href="#JetBrainsMono-Regular-30"/>
       <use xlink:href="#JetBrainsMono-Regular-33" transform="translate(59.999985 0)"/>
       <use xlink:href="#JetBrainsMono-Regular-2f" transform="translate(119.999969 0)"/>
       <use xlink:href="#JetBrainsMono-Regular-33" transform="translate(179.999954 0)"/>
       <use xlink:href="#JetBrainsMono-Regular-31" transform="translate(239.999939 0)"/>
      </g>
     </g>
    </g>
    <g id="xtick_2">
     <g id="line2d_3">
      <path d="M 137.088 324.72 
L 137.088 55.44 
" clip-path="url(#p0854e7879d)" style="fill: none; stroke-dasharray: 2.22,0.96; stroke-dashoffset: 0; stroke: #e2d5f5; stroke-opacity: 0.7; stroke-width: 0.6"/>
     </g>
     <g id="line2d_4">
      <g>
       <use xlink:href="#mb88d8b8beb" x="137.088" y="324.72" style="fill: #9b8bb8; stroke: #9b8bb8; stroke-width: 0.8"/>
      </g>
     </g>
     <g id="text_2">
      <!-- 04/02 -->
      <g style="fill: #9b8bb8" transform="translate(125.547619 353.301793) rotate(-30) scale(0.1 -0.1)">
       <defs>
        <path id="JetBrainsMono-Regular-34" d="M 2560 0 
L 2560 1024 
L 448 1024 
L 448 1926 
L 2150 4672 
L 2803 4672 
L 1024 1798 
L 1024 1549 
L 2560 1549 
L 2560 2688 
L 3136 2688 
L 3136 0 
L 2560 0 
z
" transform="scale(0.015625)"/>
        <path id="JetBrainsMono-Regular-32" d="M 550 0 
L 550 531 
L 2106 2195 
Q 2445 2554 2585 2835 
Q 2726 3117 2726 3386 
Q 2726 3770 2505 3997 
Q 2285 4224 1907 4224 
Q 1517 4224 1289 3990 
Q 1062 3757 1062 3360 
L 486 3360 
Q 506 3994 890 4365 
Q 1274 4736 1907 4736 
Q 2554 4736 2934 4371 
Q 3315 4006 3315 3379 
Q 3315 3046 3132 2675 
Q 2950 2304 2509 1843 
L 1248 525 
L 3373 525 
L 3373 0 
L 550 0 
z
" transform="scale(0.015625)"/>
       </defs>
       <use xlink:href="#JetBrainsMono-Regular-30"/>
       <use xlink:href="#JetBrainsMono-Regular-34" transform="translate(59.999985 0)"/>
       <use xlink:href="#JetBrainsMono-Regular-2f" transform="translate(119.999969 0)"/>
       <use xlink:href="#JetBrainsMono-Regular-30" transform="translate(179.999954 0)"/>
       <use xlink:href="#JetBrainsMono-Regular-32" transform="translate(239.999939 0)"/>
      </g>
     </g>
    </g>
    <g id="xtick_3">
     <g id="line2d_5">
      <path d="M 202.5216 324.72 
L 202.5216 55.44 
" clip-path="url(#p0854e7879d)" style="fill: none; stroke-dasharray: 2.22,0.96; stroke-dashoffset: 0; stroke: #e2d5f5; stroke-opacity: 0.7; stroke-width: 0.6"/>
     </g>
     <g id="line2d_6">
      <g>
       <use xlink:href="#mb88d8b8beb" x="202.5216" y="324.72" style="fill: #9b8bb8; stroke: #9b8bb8; stroke-width: 0.8"/>
      </g>
     </g>
     <g id="text_3">
      <!-- 04/04 -->
      <g style="fill: #9b8bb8" transform="translate(190.981219 353.301793) rotate(-30) scale(0.1 -0.1)">
       <use xlink:href="#JetBrainsMono-Regular-30"/>
       <use xlink:href="#JetBrainsMono-Regular-34" transform="translate(59.999985 0)"/>
       <use xlink:href="#JetBrainsMono-Regular-2f" transform="translate(119.999969 0)"/>
       <use xlink:href="#JetBrainsMono-Regular-30" transform="translate(179.999954 0)"/>
       <use xlink:href="#JetBrainsMono-Regular-34" transform="translate(239.999939 0)"/>
      </g>
     </g>
    </g>
    <g id="xtick_4">
     <g id="line2d_7">
      <path d="M 267.9552 324.72 
L 267.9552 55.44 
" clip-path="url(#p0854e7879d)" style="fill: none; stroke-dasharray: 2.22,0.96; stroke-dashoffset: 0; stroke: #e2d5f5; stroke-opacity: 0.7; stroke-width: 0.6"/>
     </g>
     <g id="line2d_8">
      <g>
       <use xlink:href="#mb88d8b8beb" x="267.9552" y="324.72" style="fill: #9b8bb8; stroke: #9b8bb8; stroke-width: 0.8"/>
      </g>
     </g>
     <g id="text_4">
      <!-- 04/06 -->
      <g style="fill: #9b8bb8" transform="translate(256.414819 353.301793) rotate(-30) scale(0.1 -0.1)">
       <defs>
        <path id="JetBrainsMono-Regular-36" d="M 1926 -64 
Q 1478 -64 1136 125 
Q 794 314 602 650 
Q 410 986 410 1427 
Q 410 1734 525 2057 
Q 640 2381 838 2733 
L 1920 4672 
L 2560 4672 
L 1408 2669 
L 1427 2656 
Q 1510 2765 1676 2822 
Q 1843 2880 2042 2880 
Q 2458 2880 2768 2697 
Q 3078 2515 3254 2195 
Q 3430 1875 3430 1453 
Q 3430 1005 3238 662 
Q 3046 320 2710 128 
Q 2374 -64 1926 -64 
z
M 1920 448 
Q 2336 448 2595 723 
Q 2854 998 2854 1440 
Q 2854 1882 2595 2157 
Q 2336 2432 1920 2432 
Q 1504 2432 1245 2157 
Q 986 1882 986 1440 
Q 986 998 1245 723 
Q 1504 448 1920 448 
z
" transform="scale(0.015625)"/>
       </defs>
       <use xlink:href="#JetBrainsMono-Regular-30"/>
       <use xlink:href="#JetBrainsMono-Regular-34" transform="translate(59.999985 0)"/>
       <use xlink:href="#JetBrainsMono-Regular-2f" transform="translate(119.999969 0)"/>
       <use xlink:href="#JetBrainsMono-Regular-30" transform="translate(179.999954 0)"/>
       <use xlink:href="#JetBrainsMono-Regular-36" transform="translate(239.999939 0)"/>
      </g>
     </g>
    </g>
    <g id="xtick_5">
     <g id="line2d_9">
      <path d="M 333.3888 324.72 
L 333.3888 55.44 
" clip-path="url(#p0854e7879d)" style="fill: none; stroke-dasharray: 2.22,0.96; stroke-dashoffset: 0; stroke: #e2d5f5; stroke-opacity: 0.7; stroke-width: 0.6"/>
     </g>
     <g id="line2d_10">
      <g>
       <use xlink:href="#mb88d8b8beb" x="333.3888" y="324.72" style="fill: #9b8bb8; stroke: #9b8bb8; stroke-width: 0.8"/>
      </g>
     </g>
     <g id="text_5">
      <!-- 04/08 -->
      <g style="fill: #9b8bb8" transform="translate(321.848419 353.301793) rotate(-30) scale(0.1 -0.1)">
       <defs>
        <path id="JetBrainsMono-Regular-38" d="M 1920 -64 
Q 1478 -64 1139 109 
Q 800 282 611 592 
Q 422 902 422 1306 
Q 422 1747 675 2067 
Q 928 2387 1350 2458 
L 1350 2477 
Q 986 2560 768 2845 
Q 550 3130 550 3501 
Q 550 3866 723 4144 
Q 896 4422 1206 4579 
Q 1517 4736 1920 4736 
Q 2330 4736 2637 4579 
Q 2944 4422 3117 4144 
Q 3290 3866 3290 3501 
Q 3290 3130 3072 2845 
Q 2854 2560 2490 2477 
L 2490 2458 
Q 2912 2387 3165 2067 
Q 3418 1747 3418 1306 
Q 3418 902 3229 592 
Q 3040 282 2704 109 
Q 2368 -64 1920 -64 
z
M 1920 2701 
Q 2278 2701 2496 2912 
Q 2714 3123 2714 3462 
Q 2714 3802 2496 4013 
Q 2278 4224 1920 4224 
Q 1568 4224 1347 4013 
Q 1126 3802 1126 3462 
Q 1126 3123 1347 2912 
Q 1568 2701 1920 2701 
z
M 1920 454 
Q 2330 454 2586 694 
Q 2842 934 2842 1318 
Q 2842 1709 2586 1949 
Q 2330 2189 1920 2189 
Q 1510 2189 1254 1949 
Q 998 1709 998 1318 
Q 998 934 1254 694 
Q 1510 454 1920 454 
z
" transform="scale(0.015625)"/>
       </defs>
       <use xlink:href="#JetBrainsMono-Regular-30"/>
       <use xlink:href="#JetBrainsMono-Regular-34" transform="translate(59.999985 0)"/>
       <use xlink:href="#JetBrainsMono-Regular-2f" transform="translate(119.999969 0)"/>
       <use xlink:href="#JetBrainsMono-Regular-30" transform="translate(179.999954 0)"/>
       <use xlink:href="#JetBrainsMono-Regular-38" transform="translate(239.999939 0)"/>
      </g>
     </g>
    </g>
    <g id="xtick_6">
     <g id="line2d_11">
      <path d="M 398.8224 324.72 
L 398.8224 55.44 
" clip-path="url(#p0854e7879d)" style="fill: none; stroke-dasharray: 2.22,0.96; stroke-dashoffset: 0; stroke: #e2d5f5; stroke-opacity: 0.7; stroke-width: 0.6"/>
     </g>
     <g id="line2d_12">
      <g>
       <use xlink:href="#mb88d8b8beb" x="398.8224" y="324.72" style="fill: #9b8bb8; stroke: #9b8bb8; stroke-width: 0.8"/>
      </g>
     </g>
     <g id="text_6">
      <!-- 04/10 -->
      <g style="fill: #9b8bb8" transform="translate(387.282019 353.301793) rotate(-30) scale(0.1 -0.1)">
       <use xlink:href="#JetBrainsMono-Regular-30"/>
       <use xlink:href="#JetBrainsMono-Regular-34" transform="translate(59.999985 0)"/>
       <use xlink:href="#JetBrainsMono-Regular-2f" transform="translate(119.999969 0)"/>
       <use xlink:href="#JetBrainsMono-Regular-31" transform="translate(179.999954 0)"/>
       <use xlink:href="#JetBrainsMono-Regular-30" transform="translate(239.999939 0)"/>
      </g>
     </g>
    </g>
    <g id="xtick_7">
     <g id="line2d_13">
      <path d="M 464.256 324.72 
L 464.256 55.44 
" clip-path="url(#p0854e7879d)" style="fill: none; stroke-dasharray: 2.22,0.96; stroke-dashoffset: 0; stroke: #e2d5f5; stroke-opacity: 0.7; stroke-width: 0.6"/>
     </g>
     <g id="line2d_14">
      <g>
       <use xlink:href="#mb88d8b8beb" x="464.256" y="324.72" style="fill: #9b8bb8; stroke: #9b8bb8; stroke-width: 0.8"/>
      </g>
     </g>
     <g id="text_7">
      <!-- 04/12 -->
      <g style="fill: #9b8bb8" transform="translate(452.715619 353.301793) rotate(-30) scale(0.1 -0.1)">
       <use xlink:href="#JetBrainsMono-Regular-30"/>
       <use xlink:href="#JetBrainsMono-Regular-34" transform="translate(59.999985 0)"/>
       <use xlink:href="#JetBrainsMono-Regular-2f" transform="translate(119.999969 0)"/>
       <use xlink:href="#JetBrainsMono-Regular-31" transform="translate(179.999954 0)"/>
       <use xlink:href="#JetBrainsMono-Regular-32" transform="translate(239.999939 0)"/>
      </g>
     </g>
    </g>
    <g id="xtick_8">
     <g id="line2d_15">
      <path d="M 529.6896 324.72 
L 529.6896 55.44 
" clip-path="url(#p0854e7879d)" style="fill: none; stroke-dasharray: 2.22,0.96; stroke-dashoffset: 0; stroke: #e2d5f5; stroke-opacity: 0.7; stroke-width: 0.6"/>
     </g>
     <g id="line2d_16">
      <g>
       <use xlink:href="#mb88d8b8beb" x="529.6896" y="324.72" style="fill: #9b8bb8; stroke: #9b8bb8; stroke-width: 0.8"/>
      </g>
     </g>
     <g id="text_8">
      <!-- 04/14 -->
      <g style="fill: #9b8bb8" transform="translate(518.149219 353.301793) rotate(-30) scale(0.1 -0.1)">
       <use xlink:href="#JetBrainsMono-Regular-30"/>
       <use xlink:href="#JetBrainsMono-Regular-34" transform="translate(59.999985 0)"/>
       <use xlink:href="#JetBrainsMono-Regular-2f" transform="translate(119.999969 0)"/>
       <use xlink:href="#JetBrainsMono-Regular-31" transform="translate(179.999954 0)"/>
       <use xlink:href="#JetBrainsMono-Regular-34" transform="translate(239.999939 0)"/>
      </g>
     </g>
    </g>
   </g>
   <g id="matplotlib.axis_2">
    <g id="ytick_1">
     <g id="line2d_17">
      <path d="M 55.296 309.852919 
L 546.048 309.852919 
" clip-path="url(#p0854e7879d)" style="fill: none; stroke-dasharray: 2.22,0.96; stroke-dashoffset: 0; stroke: #e2d5f5; stroke-opacity: 0.7; stroke-width: 0.6"/>
     </g>
     <g id="line2d_18">
      <defs>
       <path id="m6ee2389ea1" d="M 0 0 
L -3.5 0 
" style="stroke: #9b8bb8; stroke-width: 0.8"/>
      </defs>
      <g>
       <use xlink:href="#m6ee2389ea1" x="55.296" y="309.852919" style="fill: #9b8bb8; stroke: #9b8bb8; stroke-width: 0.8"/>
      </g>
     </g>
     <g id="text_9">
      <!-- 200 -->
      <g style="fill: #9b8bb8" transform="translate(30.296 313.502919) scale(0.1 -0.1)">
       <use xlink:href="#JetBrainsMono-Regular-32"/>
       <use xlink:href="#JetBrainsMono-Regular-30" transform="translate(59.999985 0)"/>
       <use xlink:href="#JetBrainsMono-Regular-30" transform="translate(119.999969 0)"/>
      </g>
     </g>
    </g>
    <g id="ytick_2">
     <g id="line2d_19">
      <path d="M 55.296 272.685217 
L 546.048 272.685217 
" clip-path="url(#p0854e7879d)" style="fill: none; stroke-dasharray: 2.22,0.96; stroke-dashoffset: 0; stroke: #e2d5f5; stroke-opacity: 0.7; stroke-width: 0.6"/>
     </g>
     <g id="line2d_20">
      <g>
       <use xlink:href="#m6ee2389ea1" x="55.296" y="272.685217" style="fill: #9b8bb8; stroke: #9b8bb8; stroke-width: 0.8"/>
      </g>
     </g>
     <g id="text_10">
      <!-- 210 -->
      <g style="fill: #9b8bb8" transform="translate(30.296 276.335217) scale(0.1 -0.1)">
       <use xlink:href="#JetBrainsMono-Regular-32"/>
       <use xlink:href="#JetBrainsMono-Regular-31" transform="translate(59.999985 0)"/>
       <use xlink:href="#JetBrainsMono-Regular-30" transform="translate(119.999969 0)"/>
      </g>
     </g>
    </g>
    <g id="ytick_3">
     <g id="line2d_21">
      <path d="M 55.296 235.517516 
L 546.048 235.517516 
" clip-path="url(#p0854e7879d)" style="fill: none; stroke-dasharray: 2.22,0.96; stroke-dashoffset: 0; stroke: #e2d5f5; stroke-opacity: 0.7; stroke-width: 0.6"/>
     </g>
     <g id="line2d_22">
      <g>
       <use xlink:href="#m6ee2389ea1" x="55.296" y="235.517516" style="fill: #9b8bb8; stroke: #9b8bb8; stroke-width: 0.8"/>
      </g>
     </g>
     <g id="text_11">
      <!-- 220 -->
      <g style="fill: #9b8bb8" transform="translate(30.296 239.167516) scale(0.1 -0.1)">
       <use xlink:href="#JetBrainsMono-Regular-32"/>
       <use xlink:href="#JetBrainsMono-Regular-32" transform="translate(59.999985 0)"/>
       <use xlink:href="#JetBrainsMono-Regular-30" transform="translate(119.999969 0)"/>
      </g>
     </g>
    </g>
    <g id="ytick_4">
     <g id="line2d_23">
      <path d="M 55.296 198.349814 
L 546.048 198.349814 
" clip-path="url(#p0854e7879d)" style="fill: none; stroke-dasharray: 2.22,0.96; stroke-dashoffset: 0; stroke: #e2d5f5; stroke-opacity: 0.7; stroke-width: 0.6"/>
     </g>
     <g id="line2d_24">
      <g>
       <use xlink:href="#m6ee2389ea1" x="55.296" y="198.349814" style="fill: #9b8bb8; stroke: #9b8bb8; stroke-width: 0.8"/>
      </g>
     </g>
     <g id="text_12">
      <!-- 230 -->
      <g style="fill: #9b8bb8" transform="translate(30.296 201.999814) scale(0.1 -0.1)">
       <use xlink:href="#JetBrainsMono-Regular-32"/>
       <use xlink:href="#JetBrainsMono-Regular-33" transform="translate(59.999985 0)"/>
       <use xlink:href="#JetBrainsMono-Regular-30" transform="translate(119.999969 0)"/>
      </g>
     </g>
    </g>
    <g id="ytick_5">
     <g id="line2d_25">
      <path d="M 55.296 161.182112 
L 546.048 161.182112 
" clip-path="url(#p0854e7879d)" style="fill: none; stroke-dasharray: 2.22,0.96; stroke-dashoffset: 0; stroke: #e2d5f5; stroke-opacity: 0.7; stroke-width: 0.6"/>
     </g>
     <g id="line2d_26">
      <g>
       <use xlink:href="#m6ee2389ea1" x="55.296" y="161.182112" style="fill: #9b8bb8; stroke: #9b8bb8; stroke-width: 0.8"/>
      </g>
     </g>
     <g id="text_13">
      <!-- 240 -->
      <g style="fill: #9b8bb8" transform="translate(30.296 164.832112) scale(0.1 -0.1)">
       <use xlink:href="#JetBrainsMono-Regular-32"/>
       <use xlink:href="#JetBrainsMono-Regular-34" transform="translate(59.999985 0)"/>
       <use xlink:href="#JetBrainsMono-Regular-30" transform="translate(119.999969 0)"/>
      </g>
     </g>
    </g>
    <g id="ytick_6">
     <g id="line2d_27">
      <path d="M 55.296 124.01441 
L 546.048 124.01441 
" clip-path="url(#p0854e7879d)" style="fill: none; stroke-dasharray: 2.22,0.96; stroke-dashoffset: 0; stroke: #e2d5f5; stroke-opacity: 0.7; stroke-width: 0.6"/>
     </g>
     <g id="line2d_28">
      <g>
       <use xlink:href="#m6ee2389ea1" x="55.296" y="124.01441" style="fill: #9b8bb8; stroke: #9b8bb8; stroke-width: 0.8"/>
      </g>
     </g>
     <g id="text_14">
      <!-- 250 -->
      <g style="fill: #9b8bb8" transform="translate(30.296 127.66441) scale(0.1 -0.1)">
       <defs>
        <path id="JetBrainsMono-Regular-35" d="M 1882 -64 
Q 1235 -64 857 297 
Q 480 659 480 1280 
L 1056 1280 
Q 1056 896 1280 672 
Q 1504 448 1888 448 
Q 2272 448 2496 672 
Q 2720 896 2720 1280 
L 2720 1568 
Q 2720 1952 2502 2176 
Q 2285 2400 1914 2400 
L 640 2400 
L 640 4672 
L 3130 4672 
L 3130 4147 
L 1178 4147 
L 1190 2925 
L 1946 2925 
Q 2592 2925 2944 2569 
Q 3296 2214 3296 1568 
L 3296 1280 
Q 3296 659 2915 297 
Q 2534 -64 1882 -64 
z
" transform="scale(0.015625)"/>
       </defs>
       <use xlink:href="#JetBrainsMono-Regular-32"/>
       <use xlink:href="#JetBrainsMono-Regular-35" transform="translate(59.999985 0)"/>
       <use xlink:href="#JetBrainsMono-Regular-30" transform="translate(119.999969 0)"/>
      </g>
     </g>
    </g>
    <g id="ytick_7">
     <g id="line2d_29">
      <path d="M 55.296 86.846708 
L 546.048 86.846708 
" clip-path="url(#p0854e7879d)" style="fill: none; stroke-dasharray: 2.22,0.96; stroke-dashoffset: 0; stroke: #e2d5f5; stroke-opacity: 0.7; stroke-width: 0.6"/>
     </g>
     <g id="line2d_30">
      <g>
       <use xlink:href="#m6ee2389ea1" x="55.296" y="86.846708" style="fill: #9b8bb8; stroke: #9b8bb8; stroke-width: 0.8"/>
      </g>
     </g>
     <g id="text_15">
      <!-- 260 -->
      <g style="fill: #9b8bb8" transform="translate(30.296 90.496708) scale(0.1 -0.1)">
       <use xlink:href="#JetBrainsMono-Regular-32"/>
       <use xlink:href="#JetBrainsMono-Regular-36" transform="translate(59.999985 0)"/>
       <use xlink:href="#JetBrainsMono-Regular-30" transform="translate(119.999969 0)"/>
      </g>
     </g>
    </g>
    <g id="text_16">
     <!-- Rating -->
     <g style="fill: #9b8bb8" transform="translate(24.496 208.08) rotate(-90) scale(0.1 -0.1)">
      <defs>
       <path id="JetBrainsMono-Regular-52" d="M 595 0 
L 595 4672 
L 2035 4672 
Q 2451 4672 2764 4502 
Q 3078 4333 3251 4032 
Q 3424 3731 3424 3328 
Q 3424 2854 3181 2515 
Q 2938 2176 2534 2042 
L 3488 0 
L 2854 0 
L 1939 1984 
L 1165 1984 
L 1165 0 
L 595 0 
z
M 1165 2502 
L 2035 2502 
Q 2394 2502 2611 2729 
Q 2829 2957 2829 3328 
Q 2829 3706 2611 3930 
Q 2394 4154 2035 4154 
L 1165 4154 
L 1165 2502 
z
" transform="scale(0.015625)"/>
       <path id="JetBrainsMono-Regular-61" d="M 1613 -64 
Q 1069 -64 749 240 
Q 429 544 429 1037 
Q 429 1363 576 1606 
Q 723 1850 985 1987 
Q 1248 2125 1587 2125 
L 2675 2125 
L 2675 2400 
Q 2675 3085 1926 3085 
Q 1594 3085 1389 2963 
Q 1184 2842 1171 2624 
L 595 2624 
Q 627 3040 982 3312 
Q 1338 3584 1926 3584 
Q 2566 3584 2908 3277 
Q 3251 2970 3251 2419 
L 3251 0 
L 2682 0 
L 2682 640 
L 2669 640 
Q 2618 314 2342 125 
Q 2067 -64 1613 -64 
z
M 1754 422 
Q 2176 422 2425 627 
Q 2675 832 2675 1184 
L 2675 1677 
L 1651 1677 
Q 1370 1677 1194 1507 
Q 1018 1338 1018 1056 
Q 1018 762 1213 592 
Q 1408 422 1754 422 
z
" transform="scale(0.015625)"/>
       <path id="JetBrainsMono-Regular-74" d="M 2272 0 
Q 1837 0 1574 253 
Q 1312 506 1312 928 
L 1312 2995 
L 301 2995 
L 301 3520 
L 1312 3520 
L 1312 4512 
L 1888 4512 
L 1888 3520 
L 3328 3520 
L 3328 2995 
L 1888 2995 
L 1888 928 
Q 1888 749 1993 637 
Q 2099 525 2272 525 
L 3296 525 
L 3296 0 
L 2272 0 
z
" transform="scale(0.015625)"/>
       <path id="JetBrainsMono-Regular-69" d="M 544 0 
L 544 525 
L 1792 525 
L 1792 2995 
L 672 2995 
L 672 3520 
L 2368 3520 
L 2368 525 
L 3552 525 
L 3552 0 
L 544 0 
z
M 2016 4154 
Q 1805 4154 1683 4262 
Q 1562 4371 1562 4557 
Q 1562 4749 1683 4861 
Q 1805 4973 2016 4973 
Q 2227 4973 2348 4861 
Q 2470 4749 2470 4557 
Q 2470 4371 2348 4262 
Q 2227 4154 2016 4154 
z
" transform="scale(0.015625)"/>
       <path id="JetBrainsMono-Regular-6e" d="M 589 0 
L 589 3520 
L 1165 3520 
L 1165 2848 
L 1171 2848 
Q 1216 3200 1459 3392 
Q 1702 3584 2106 3584 
Q 2637 3584 2950 3257 
Q 3264 2931 3264 2368 
L 3264 0 
L 2688 0 
L 2688 2266 
Q 2688 2669 2486 2883 
Q 2285 3098 1939 3098 
Q 1581 3098 1373 2874 
Q 1165 2650 1165 2240 
L 1165 0 
L 589 0 
z
" transform="scale(0.015625)"/>
       <path id="JetBrainsMono-Regular-67" d="M 1030 -1152 
L 1030 -627 
L 2022 -627 
Q 2323 -627 2496 -457 
Q 2669 -288 2669 0 
L 2669 320 
L 2682 896 
L 2662 896 
Q 2611 582 2361 412 
Q 2112 243 1734 243 
Q 1190 243 876 588 
Q 563 934 563 1536 
L 563 2278 
Q 563 2880 876 3232 
Q 1190 3584 1734 3584 
Q 2112 3584 2361 3405 
Q 2611 3226 2662 2912 
L 2675 2912 
L 2675 3520 
L 3245 3520 
L 3245 0 
Q 3245 -531 2915 -841 
Q 2586 -1152 2016 -1152 
L 1030 -1152 
z
M 1907 723 
Q 2266 723 2470 947 
Q 2675 1171 2675 1568 
L 2675 2240 
Q 2675 2637 2470 2861 
Q 2266 3085 1907 3085 
Q 1542 3085 1340 2873 
Q 1139 2662 1139 2304 
L 1139 1504 
Q 1139 1146 1340 934 
Q 1542 723 1907 723 
z
" transform="scale(0.015625)"/>
      </defs>
      <use xlink:href="#JetBrainsMono-Regular-52"/>
      <use xlink:href="#JetBrainsMono-Regular-61" transform="translate(59.999985 0)"/>
      <use xlink:href="#JetBrainsMono-Regular-74" transform="translate(119.999969 0)"/>
      <use xlink:href="#JetBrainsMono-Regular-69" transform="translate(179.999954 0)"/>
      <use xlink:href="#JetBrainsMono-Regular-6e" transform="translate(239.999939 0)"/>
      <use xlink:href="#JetBrainsMono-Regular-67" transform="translate(299.999924 0)"/>
     </g>
    </g>
   </g>
   <g id="patch_3">
    <path d="M 55.296 324.72 
L 55.296 55.44 
" style="fill: none; stroke: #d8c8ef; stroke-width: 0.8; stroke-linejoin: miter; stroke-linecap: square"/>
   </g>
   <g id="patch_4">
    <path d="M 55.296 324.72 
L 546.048 324.72 
" style="fill: none; stroke: #d8c8ef; stroke-width: 0.8; stroke-linejoin: miter; stroke-linecap: square"/>
   </g>
   <g id="FillBetweenPolyCollection_1">
    <defs>
     <path id="m1b703ee610" d="M 71.6544 -71.28 
L 71.6544 -89.863851 
L 73.18629 -91.262316 
L 74.718181 -92.459631 
L 76.250071 -93.465679 
L 77.781961 -94.290339 
L 79.313852 -94.943494 
L 80.845742 -95.435023 
L 82.377632 -95.774809 
L 83.909522 -95.972732 
L 85.441413 -96.038672 
L 86.973303 -95.982512 
L 88.505193 -95.814131 
L 90.037084 -95.543412 
L 91.568974 -95.180235 
L 93.100864 -94.73448 
L 94.632755 -94.21603 
L 96.164645 -93.634765 
L 97.696535 -93.000566 
L 99.228425 -92.323314 
L 100.760316 -91.61289 
L 102.292206 -90.879175 
L 103.824096 -90.13205 
L 105.355987 -89.381396 
L 106.887877 -88.637094 
L 108.419767 -87.909025 
L 109.951658 -87.207071 
L 111.483548 -86.541111 
L 113.015438 -85.921028 
L 114.547328 -85.356701 
L 116.079219 -84.858013 
L 117.611109 -84.434844 
L 119.142999 -84.097075 
L 120.67489 -83.854587 
L 122.20678 -83.717261 
L 123.73867 -83.694978 
L 125.270561 -83.79762 
L 126.802451 -84.035066 
L 128.334341 -84.417199 
L 129.866231 -84.953899 
L 131.398122 -85.655047 
L 132.930012 -86.530524 
L 134.461902 -87.590212 
L 135.993793 -88.84399 
L 137.525683 -90.301626 
L 139.057573 -91.962886 
L 140.589464 -93.809917 
L 142.121354 -95.823076 
L 143.653244 -97.982716 
L 145.185134 -100.269192 
L 146.717025 -102.66286 
L 148.248915 -105.144074 
L 149.780805 -107.693189 
L 151.312696 -110.290559 
L 152.844586 -112.916541 
L 154.376476 -115.551487 
L 155.908367 -118.175754 
L 157.440257 -120.769697 
L 158.972147 -123.313669 
L 160.504037 -125.788026 
L 162.035928 -128.173122 
L 163.567818 -130.449314 
L 165.099708 -132.596954 
L 166.631599 -134.596399 
L 168.163489 -136.428002 
L 169.695379 -138.07212 
L 171.22727 -139.513563 
L 172.75916 -140.75925 
L 174.29105 -141.822936 
L 175.82294 -142.71838 
L 177.354831 -143.45934 
L 178.886721 -144.059575 
L 180.418611 -144.532842 
L 181.950502 -144.892901 
L 183.482392 -145.15351 
L 185.014282 -145.328427 
L 186.546173 -145.43141 
L 188.078063 -145.476218 
L 189.609953 -145.47661 
L 191.141843 -145.446343 
L 192.673734 -145.399176 
L 194.205624 -145.348867 
L 195.737514 -145.309175 
L 197.269405 -145.293859 
L 198.801295 -145.316676 
L 200.333185 -145.391384 
L 201.865076 -145.531743 
L 203.396966 -145.750908 
L 204.928856 -146.051907 
L 206.460746 -146.429367 
L 207.992637 -146.877658 
L 209.524527 -147.391153 
L 211.056417 -147.964223 
L 212.588308 -148.591239 
L 214.120198 -149.266573 
L 215.652088 -149.984596 
L 217.183979 -150.73968 
L 218.715869 -151.526196 
L 220.247759 -152.338517 
L 221.779649 -153.171012 
L 223.31154 -154.018055 
L 224.84343 -154.874016 
L 226.37532 -155.733267 
L 227.907211 -156.590179 
L 229.439101 -157.439124 
L 230.970991 -158.274473 
L 232.502882 -159.090599 
L 234.034772 -159.881872 
L 235.566662 -160.642676 
L 237.098553 -161.369588 
L 238.630443 -162.06389 
L 240.162333 -162.727469 
L 241.694223 -163.362213 
L 243.226114 -163.970009 
L 244.758004 -164.552746 
L 246.289894 -165.112313 
L 247.821785 -165.650595 
L 249.353675 -166.169483 
L 250.885565 -166.670863 
L 252.417456 -167.156623 
L 253.949346 -167.628652 
L 255.481236 -168.088838 
L 257.013126 -168.539067 
L 258.545017 -168.981229 
L 260.076907 -169.417211 
L 261.608797 -169.848902 
L 263.140688 -170.278188 
L 264.672578 -170.706959 
L 266.204468 -171.137102 
L 267.736359 -171.570504 
L 269.268249 -172.009375 
L 270.800139 -172.457904 
L 272.332029 -172.921032 
L 273.86392 -173.403705 
L 275.39581 -173.910867 
L 276.9277 -174.447461 
L 278.459591 -175.018434 
L 279.991481 -175.628728 
L 281.523371 -176.283288 
L 283.055262 -176.98706 
L 284.587152 -177.744986 
L 286.119042 -178.562012 
L 287.650932 -179.443081 
L 289.182823 -180.393139 
L 290.714713 -181.41713 
L 292.246603 -182.519997 
L 293.778494 -183.706686 
L 295.310384 -184.98214 
L 296.842274 -186.351305 
L 298.374165 -187.819124 
L 299.906055 -189.390542 
L 301.437945 -191.07014 
L 302.969835 -192.854135 
L 304.501726 -194.730383 
L 306.033616 -196.686375 
L 307.565506 -198.709602 
L 309.097397 -200.787556 
L 310.629287 -202.907729 
L 312.161177 -205.05761 
L 313.693068 -207.224693 
L 315.224958 -209.396469 
L 316.756848 -211.560428 
L 318.288738 -213.704063 
L 319.820629 -215.814864 
L 321.352519 -217.880323 
L 322.884409 -219.887932 
L 324.4163 -221.825181 
L 325.94819 -223.679563 
L 327.48008 -225.438569 
L 329.011971 -227.08969 
L 330.543861 -228.620417 
L 332.075751 -230.018243 
L 333.607641 -231.270669 
L 335.139532 -232.37094 
L 336.671422 -233.327366 
L 338.203312 -234.1507 
L 339.735203 -234.851692 
L 341.267093 -235.441094 
L 342.798983 -235.929659 
L 344.330874 -236.328137 
L 345.862764 -236.647281 
L 347.394654 -236.897842 
L 348.926544 -237.090572 
L 350.458435 -237.236222 
L 351.990325 -237.345545 
L 353.522215 -237.429291 
L 355.054106 -237.498213 
L 356.585996 -237.563061 
L 358.117886 -237.634589 
L 359.649777 -237.723548 
L 361.181667 -237.840688 
L 362.713557 -237.996763 
L 364.245447 -238.202523 
L 365.777338 -238.468721 
L 367.309228 -238.804808 
L 368.841118 -239.210185 
L 370.373009 -239.67956 
L 371.904899 -240.207617 
L 373.436789 -240.78904 
L 374.96868 -241.418511 
L 376.50057 -242.090715 
L 378.03246 -242.800333 
L 379.564351 -243.54205 
L 381.096241 -244.310549 
L 382.628131 -245.100512 
L 384.160021 -245.906624 
L 385.691912 -246.723568 
L 387.223802 -247.546027 
L 388.755692 -248.368683 
L 390.287583 -249.186222 
L 391.819473 -249.993325 
L 393.351363 -250.784676 
L 394.883254 -251.554958 
L 396.415144 -252.298855 
L 397.947034 -253.01105 
L 399.478924 -253.686344 
L 401.010815 -254.323423 
L 402.542705 -254.925655 
L 404.074595 -255.496689 
L 405.606486 -256.040172 
L 407.138376 -256.559751 
L 408.670266 -257.059074 
L 410.202157 -257.541789 
L 411.734047 -258.011542 
L 413.265937 -258.471982 
L 414.797827 -258.926756 
L 416.329718 -259.379511 
L 417.861608 -259.833895 
L 419.393498 -260.293556 
L 420.925389 -260.762141 
L 422.457279 -261.243297 
L 423.989169 -261.740672 
L 425.52106 -262.257914 
L 427.05295 -262.79867 
L 428.58484 -263.366587 
L 430.11673 -263.965314 
L 431.648621 -264.598497 
L 433.180511 -265.268544 
L 434.712401 -265.973857 
L 436.244292 -266.712031 
L 437.776182 -267.480659 
L 439.308072 -268.277336 
L 440.839963 -269.099657 
L 442.371853 -269.945215 
L 443.903743 -270.811605 
L 445.435633 -271.696421 
L 446.967524 -272.597258 
L 448.499414 -273.511709 
L 450.031304 -274.43737 
L 451.563195 -275.371834 
L 453.095085 -276.312696 
L 454.626975 -277.25755 
L 456.158866 -278.20399 
L 457.690756 -279.149611 
L 459.222646 -280.092007 
L 460.754536 -281.028772 
L 462.286427 -281.957501 
L 463.818317 -282.875788 
L 465.350207 -283.781457 
L 466.882098 -284.674604 
L 468.413988 -285.556611 
L 469.945878 -286.428873 
L 471.477769 -287.292789 
L 473.009659 -288.149755 
L 474.541549 -289.001167 
L 476.073439 -289.848423 
L 477.60533 -290.692919 
L 479.13722 -291.536052 
L 480.66911 -292.37922 
L 482.201001 -293.223818 
L 483.732891 -294.071244 
L 485.264781 -294.922894 
L 486.796672 -295.780165 
L 488.328562 -296.644455 
L 489.860452 -297.51716 
L 491.392342 -298.399676 
L 492.924233 -299.293402 
L 494.456123 -300.199732 
L 495.988013 -301.120065 
L 497.519904 -302.055797 
L 499.051794 -303.008325 
L 500.583684 -303.979046 
L 502.115575 -304.969356 
L 503.647465 -305.980653 
L 505.179355 -307.014333 
L 506.711245 -308.071793 
L 508.243136 -309.154429 
L 509.775026 -310.26364 
L 511.306916 -311.400821 
L 512.838807 -312.56737 
L 514.370697 -313.764682 
L 515.902587 -314.994156 
L 517.434478 -316.257188 
L 518.966368 -317.555174 
L 520.498258 -318.889512 
L 522.030148 -320.261598 
L 523.562039 -321.672829 
L 525.093929 -323.124603 
L 526.625819 -324.618315 
L 528.15771 -326.155363 
L 529.6896 -327.737143 
L 529.6896 -71.28 
L 529.6896 -71.28 
L 528.15771 -71.28 
L 526.625819 -71.28 
L 525.093929 -71.28 
L 523.562039 -71.28 
L 522.030148 -71.28 
L 520.498258 -71.28 
L 518.966368 -71.28 
L 517.434478 -71.28 
L 515.902587 -71.28 
L 514.370697 -71.28 
L 512.838807 -71.28 
L 511.306916 -71.28 
L 509.775026 -71.28 
L 508.243136 -71.28 
L 506.711245 -71.28 
L 505.179355 -71.28 
L 503.647465 -71.28 
L 502.115575 -71.28 
L 500.583684 -71.28 
L 499.051794 -71.28 
L 497.519904 -71.28 
L 495.988013 -71.28 
L 494.456123 -71.28 
L 492.924233 -71.28 
L 491.392342 -71.28 
L 489.860452 -71.28 
L 488.328562 -71.28 
L 486.796672 -71.28 
L 485.264781 -71.28 
L 483.732891 -71.28 
L 482.201001 -71.28 
L 480.66911 -71.28 
L 479.13722 -71.28 
L 477.60533 -71.28 
L 476.073439 -71.28 
L 474.541549 -71.28 
L 473.009659 -71.28 
L 471.477769 -71.28 
L 469.945878 -71.28 
L 468.413988 -71.28 
L 466.882098 -71.28 
L 465.350207 -71.28 
L 463.818317 -71.28 
L 462.286427 -71.28 
L 460.754536 -71.28 
L 459.222646 -71.28 
L 457.690756 -71.28 
L 456.158866 -71.28 
L 454.626975 -71.28 
L 453.095085 -71.28 
L 451.563195 -71.28 
L 450.031304 -71.28 
L 448.499414 -71.28 
L 446.967524 -71.28 
L 445.435633 -71.28 
L 443.903743 -71.28 
L 442.371853 -71.28 
L 440.839963 -71.28 
L 439.308072 -71.28 
L 437.776182 -71.28 
L 436.244292 -71.28 
L 434.712401 -71.28 
L 433.180511 -71.28 
L 431.648621 -71.28 
L 430.11673 -71.28 
L 428.58484 -71.28 
L 427.05295 -71.28 
L 425.52106 -71.28 
L 423.989169 -71.28 
L 422.457279 -71.28 
L 420.925389 -71.28 
L 419.393498 -71.28 
L 417.861608 -71.28 
L 416.329718 -71.28 
L 414.797827 -71.28 
L 413.265937 -71.28 
L 411.734047 -71.28 
L 410.202157 -71.28 
L 408.670266 -71.28 
L 407.138376 -71.28 
L 405.606486 -71.28 
L 404.074595 -71.28 
L 402.542705 -71.28 
L 401.010815 -71.28 
L 399.478924 -71.28 
L 397.947034 -71.28 
L 396.415144 -71.28 
L 394.883254 -71.28 
L 393.351363 -71.28 
L 391.819473 -71.28 
L 390.287583 -71.28 
L 388.755692 -71.28 
L 387.223802 -71.28 
L 385.691912 -71.28 
L 384.160021 -71.28 
L 382.628131 -71.28 
L 381.096241 -71.28 
L 379.564351 -71.28 
L 378.03246 -71.28 
L 376.50057 -71.28 
L 374.96868 -71.28 
L 373.436789 -71.28 
L 371.904899 -71.28 
L 370.373009 -71.28 
L 368.841118 -71.28 
L 367.309228 -71.28 
L 365.777338 -71.28 
L 364.245447 -71.28 
L 362.713557 -71.28 
L 361.181667 -71.28 
L 359.649777 -71.28 
L 358.117886 -71.28 
L 356.585996 -71.28 
L 355.054106 -71.28 
L 353.522215 -71.28 
L 351.990325 -71.28 
L 350.458435 -71.28 
L 348.926544 -71.28 
L 347.394654 -71.28 
L 345.862764 -71.28 
L 344.330874 -71.28 
L 342.798983 -71.28 
L 341.267093 -71.28 
L 339.735203 -71.28 
L 338.203312 -71.28 
L 336.671422 -71.28 
L 335.139532 -71.28 
L 333.607641 -71.28 
L 332.075751 -71.28 
L 330.543861 -71.28 
L 329.011971 -71.28 
L 327.48008 -71.28 
L 325.94819 -71.28 
L 324.4163 -71.28 
L 322.884409 -71.28 
L 321.352519 -71.28 
L 319.820629 -71.28 
L 318.288738 -71.28 
L 316.756848 -71.28 
L 315.224958 -71.28 
L 313.693068 -71.28 
L 312.161177 -71.28 
L 310.629287 -71.28 
L 309.097397 -71.28 
L 307.565506 -71.28 
L 306.033616 -71.28 
L 304.501726 -71.28 
L 302.969835 -71.28 
L 301.437945 -71.28 
L 299.906055 -71.28 
L 298.374165 -71.28 
L 296.842274 -71.28 
L 295.310384 -71.28 
L 293.778494 -71.28 
L 292.246603 -71.28 
L 290.714713 -71.28 
L 289.182823 -71.28 
L 287.650932 -71.28 
L 286.119042 -71.28 
L 284.587152 -71.28 
L 283.055262 -71.28 
L 281.523371 -71.28 
L 279.991481 -71.28 
L 278.459591 -71.28 
L 276.9277 -71.28 
L 275.39581 -71.28 
L 273.86392 -71.28 
L 272.332029 -71.28 
L 270.800139 -71.28 
L 269.268249 -71.28 
L 267.736359 -71.28 
L 266.204468 -71.28 
L 264.672578 -71.28 
L 263.140688 -71.28 
L 261.608797 -71.28 
L 260.076907 -71.28 
L 258.545017 -71.28 
L 257.013126 -71.28 
L 255.481236 -71.28 
L 253.949346 -71.28 
L 252.417456 -71.28 
L 250.885565 -71.28 
L 249.353675 -71.28 
L 247.821785 -71.28 
L 246.289894 -71.28 
L 244.758004 -71.28 
L 243.226114 -71.28 
L 241.694223 -71.28 
L 240.162333 -71.28 
L 238.630443 -71.28 
L 237.098553 -71.28 
L 235.566662 -71.28 
L 234.034772 -71.28 
L 232.502882 -71.28 
L 230.970991 -71.28 
L 229.439101 -71.28 
L 227.907211 -71.28 
L 226.37532 -71.28 
L 224.84343 -71.28 
L 223.31154 -71.28 
L 221.779649 -71.28 
L 220.247759 -71.28 
L 218.715869 -71.28 
L 217.183979 -71.28 
L 215.652088 -71.28 
L 214.120198 -71.28 
L 212.588308 -71.28 
L 211.056417 -71.28 
L 209.524527 -71.28 
L 207.992637 -71.28 
L 206.460746 -71.28 
L 204.928856 -71.28 
L 203.396966 -71.28 
L 201.865076 -71.28 
L 200.333185 -71.28 
L 198.801295 -71.28 
L 197.269405 -71.28 
L 195.737514 -71.28 
L 194.205624 -71.28 
L 192.673734 -71.28 
L 191.141843 -71.28 
L 189.609953 -71.28 
L 188.078063 -71.28 
L 186.546173 -71.28 
L 185.014282 -71.28 
L 183.482392 -71.28 
L 181.950502 -71.28 
L 180.418611 -71.28 
L 178.886721 -71.28 
L 177.354831 -71.28 
L 175.82294 -71.28 
L 174.29105 -71.28 
L 172.75916 -71.28 
L 171.22727 -71.28 
L 169.695379 -71.28 
L 168.163489 -71.28 
L 166.631599 -71.28 
L 165.099708 -71.28 
L 163.567818 -71.28 
L 162.035928 -71.28 
L 160.504037 -71.28 
L 158.972147 -71.28 
L 157.440257 -71.28 
L 155.908367 -71.28 
L 154.376476 -71.28 
L 152.844586 -71.28 
L 151.312696 -71.28 
L 149.780805 -71.28 
L 148.248915 -71.28 
L 146.717025 -71.28 
L 145.185134 -71.28 
L 143.653244 -71.28 
L 142.121354 -71.28 
L 140.589464 -71.28 
L 139.057573 -71.28 
L 137.525683 -71.28 
L 135.993793 -71.28 
L 134.461902 -71.28 
L 132.930012 -71.28 
L 131.398122 -71.28 
L 129.866231 -71.28 
L 128.334341 -71.28 
L 126.802451 -71.28 
L 125.270561 -71.28 
L 123.73867 -71.28 
L 122.20678 -71.28 
L 120.67489 -71.28 
L 119.142999 -71.28 
L 117.611109 -71.28 
L 116.079219 -71.28 
L 114.547328 -71.28 
L 113.015438 -71.28 
L 111.483548 -71.28 
L 109.951658 -71.28 
L 108.419767 -71.28 
L 106.887877 -71.28 
L 105.355987 -71.28 
L 103.824096 -71.28 
L 102.292206 -71.28 
L 100.760316 -71.28 
L 99.228425 -71.28 
L 97.696535 -71.28 
L 96.164645 -71.28 
L 94.632755 -71.28 
L 93.100864 -71.28 
L 91.568974 -71.28 
L 90.037084 -71.28 
L 88.505193 -71.28 
L 86.973303 -71.28 
L 85.441413 -71.28 
L 83.909522 -71.28 
L 82.377632 -71.28 
L 80.845742 -71.28 
L 79.313852 -71.28 
L 77.781961 -71.28 
L 76.250071 -71.28 
L 74.718181 -71.28 
L 73.18629 -71.28 
L 71.6544 -71.28 
z
" style="stroke: #8b5cf6; stroke-opacity: 0.12"/>
    </defs>
    <g clip-path="url(#p0854e7879d)">
     <use xlink:href="#m1b703ee610" x="0" y="396" style="fill: #8b5cf6; fill-opacity: 0.12; stroke: #8b5cf6; stroke-opacity: 0.12"/>
    </g>
   </g>
   <g id="text_17">
    <!-- 265 -->
    <g style="fill: #8b5cf6" transform="translate(532.6896 65.262857) scale(0.12 -0.12)">
     <defs>
      <path id="JetBrainsMono-Bold-32" d="M 474 0 
L 474 723 
L 2157 2445 
Q 2566 2874 2566 3315 
Q 2566 3629 2384 3824 
Q 2202 4019 1894 4019 
Q 1581 4019 1392 3817 
Q 1203 3616 1203 3283 
L 403 3283 
Q 403 3718 595 4044 
Q 787 4371 1126 4553 
Q 1466 4736 1914 4736 
Q 2355 4736 2688 4563 
Q 3021 4390 3203 4080 
Q 3386 3770 3386 3354 
Q 3386 2995 3216 2636 
Q 3046 2278 2656 1894 
L 1478 723 
L 3443 723 
L 3443 0 
L 474 0 
z
" transform="scale(0.015625)"/>
      <path id="JetBrainsMono-Bold-36" d="M 1920 -64 
Q 1440 -64 1085 128 
Q 730 320 534 669 
Q 339 1018 339 1485 
Q 339 1760 457 2115 
Q 576 2470 781 2835 
L 1792 4672 
L 2701 4672 
L 1498 2611 
L 1523 2598 
Q 1619 2733 1804 2809 
Q 1990 2886 2208 2886 
Q 2598 2886 2889 2710 
Q 3181 2534 3341 2214 
Q 3501 1894 3501 1459 
Q 3501 998 3305 656 
Q 3110 314 2755 125 
Q 2400 -64 1920 -64 
z
M 1920 614 
Q 2278 614 2496 841 
Q 2714 1069 2714 1446 
Q 2714 1830 2496 2057 
Q 2278 2285 1920 2285 
Q 1562 2285 1344 2057 
Q 1126 1830 1126 1446 
Q 1126 1069 1344 841 
Q 1562 614 1920 614 
z
" transform="scale(0.015625)"/>
      <path id="JetBrainsMono-Bold-35" d="M 1894 -64 
Q 1210 -64 803 297 
Q 397 659 397 1280 
L 1197 1280 
Q 1197 986 1385 810 
Q 1574 634 1901 634 
Q 2227 634 2409 810 
Q 2592 986 2592 1299 
L 2592 1606 
Q 2592 1920 2413 2096 
Q 2234 2272 1907 2272 
L 557 2272 
L 557 4672 
L 3219 4672 
L 3219 3949 
L 1312 3949 
L 1318 2976 
L 1946 2976 
Q 2637 2976 3014 2617 
Q 3392 2259 3392 1606 
L 3392 1299 
Q 3392 666 2992 301 
Q 2592 -64 1894 -64 
z
" transform="scale(0.015625)"/>
     </defs>
     <use xlink:href="#JetBrainsMono-Bold-32"/>
     <use xlink:href="#JetBrainsMono-Bold-36" transform="translate(59.999985 0)"/>
     <use xlink:href="#JetBrainsMono-Bold-35" transform="translate(119.999969 0)"/>
    </g>
   </g>
   <g id="text_18">
    <!-- Rating History -->
    <g style="fill: #8b5cf6" transform="translate(55.296 50.44) scale(0.17 -0.17)">
     <defs>
      <path id="JetBrainsMono-Bold-52" d="M 493 0 
L 493 4672 
L 1965 4672 
Q 2432 4672 2774 4499 
Q 3117 4326 3309 4016 
Q 3501 3706 3501 3283 
Q 3501 2816 3270 2467 
Q 3040 2118 2650 1971 
L 3565 0 
L 2688 0 
L 1869 1856 
L 1286 1856 
L 1286 0 
L 493 0 
z
M 1286 2560 
L 1965 2560 
Q 2304 2560 2496 2745 
Q 2688 2931 2688 3258 
Q 2688 3584 2493 3776 
Q 2298 3968 1965 3968 
L 1286 3968 
L 1286 2560 
z
" transform="scale(0.015625)"/>
      <path id="JetBrainsMono-Bold-61" d="M 1530 -64 
Q 992 -64 681 240 
Q 371 544 371 1037 
Q 371 1549 723 1853 
Q 1075 2157 1690 2157 
L 2547 2157 
L 2547 2406 
Q 2547 2938 1926 2938 
Q 1645 2938 1478 2829 
Q 1312 2720 1293 2522 
L 525 2522 
Q 550 2995 924 3289 
Q 1299 3584 1933 3584 
Q 2605 3584 2976 3270 
Q 3347 2957 3347 2387 
L 3347 0 
L 2566 0 
L 2566 659 
Q 2522 320 2246 128 
Q 1971 -64 1530 -64 
z
M 1786 589 
Q 2138 589 2342 761 
Q 2547 934 2547 1222 
L 2547 1638 
L 1728 1638 
Q 1466 1638 1312 1491 
Q 1158 1344 1158 1114 
Q 1158 877 1321 733 
Q 1485 589 1786 589 
z
" transform="scale(0.015625)"/>
      <path id="JetBrainsMono-Bold-74" d="M 2272 0 
Q 1779 0 1488 285 
Q 1197 570 1197 1056 
L 1197 2797 
L 224 2797 
L 224 3520 
L 1197 3520 
L 1197 4512 
L 2003 4512 
L 2003 3520 
L 3405 3520 
L 3405 2797 
L 2003 2797 
L 2003 1075 
Q 2003 922 2089 822 
Q 2176 723 2330 723 
L 3373 723 
L 3373 0 
L 2272 0 
z
" transform="scale(0.015625)"/>
      <path id="JetBrainsMono-Bold-69" d="M 486 0 
L 486 723 
L 1690 723 
L 1690 2797 
L 614 2797 
L 614 3520 
L 2490 3520 
L 2490 723 
L 3571 723 
L 3571 0 
L 486 0 
z
M 2032 4109 
Q 1789 4109 1648 4233 
Q 1507 4358 1507 4570 
Q 1507 4781 1648 4905 
Q 1789 5030 2032 5030 
Q 2275 5030 2416 4905 
Q 2557 4781 2557 4570 
Q 2557 4358 2416 4233 
Q 2275 4109 2032 4109 
z
" transform="scale(0.015625)"/>
      <path id="JetBrainsMono-Bold-6e" d="M 493 0 
L 493 3520 
L 1274 3520 
L 1274 2861 
Q 1338 3194 1587 3389 
Q 1837 3584 2221 3584 
Q 2739 3584 3049 3238 
Q 3360 2893 3360 2310 
L 3360 0 
L 2560 0 
L 2560 2214 
Q 2560 2541 2390 2717 
Q 2221 2893 1933 2893 
Q 1632 2893 1462 2713 
Q 1293 2534 1293 2202 
L 1293 0 
L 493 0 
z
" transform="scale(0.015625)"/>
      <path id="JetBrainsMono-Bold-67" d="M 973 -1152 
L 973 -486 
L 1965 -486 
Q 2246 -486 2400 -336 
Q 2554 -186 2554 70 
L 2554 282 
L 2566 832 
Q 2458 538 2218 374 
Q 1978 211 1632 211 
Q 1094 211 777 572 
Q 461 934 461 1555 
L 461 2240 
Q 461 2854 777 3219 
Q 1094 3584 1632 3584 
Q 1978 3584 2218 3421 
Q 2458 3258 2566 2957 
L 2566 3520 
L 3347 3520 
L 3347 51 
Q 3347 -506 2979 -829 
Q 2611 -1152 1978 -1152 
L 973 -1152 
z
M 1901 896 
Q 2208 896 2377 1078 
Q 2547 1261 2547 1587 
L 2547 2202 
Q 2547 2528 2377 2710 
Q 2208 2893 1901 2893 
Q 1594 2893 1427 2717 
Q 1261 2541 1261 2227 
L 1261 1562 
Q 1261 1248 1427 1072 
Q 1594 896 1901 896 
z
" transform="scale(0.015625)"/>
      <path id="JetBrainsMono-Bold-20" transform="scale(0.015625)"/>
      <path id="JetBrainsMono-Bold-48" d="M 493 0 
L 493 4672 
L 1293 4672 
L 1293 2778 
L 2547 2778 
L 2547 4672 
L 3347 4672 
L 3347 0 
L 2547 0 
L 2547 2054 
L 1293 2054 
L 1293 0 
L 493 0 
z
" transform="scale(0.015625)"/>
      <path id="JetBrainsMono-Bold-73" d="M 1773 -58 
Q 1146 -58 781 227 
Q 416 512 416 998 
L 1203 998 
Q 1203 794 1353 685 
Q 1504 576 1773 576 
L 2054 576 
Q 2342 576 2499 685 
Q 2656 794 2656 998 
Q 2656 1190 2547 1283 
Q 2438 1376 2214 1408 
L 1338 1523 
Q 915 1581 688 1849 
Q 461 2118 461 2547 
Q 461 3046 793 3312 
Q 1126 3578 1754 3578 
L 2048 3578 
Q 2637 3578 2995 3309 
Q 3354 3040 3366 2592 
L 2573 2592 
Q 2566 2758 2425 2857 
Q 2285 2957 2048 2957 
L 1754 2957 
Q 1498 2957 1363 2851 
Q 1229 2746 1229 2566 
Q 1229 2406 1328 2329 
Q 1427 2253 1619 2234 
L 2445 2118 
Q 2931 2061 3177 1776 
Q 3424 1491 3424 1011 
Q 3424 499 3075 220 
Q 2726 -58 2054 -58 
L 1773 -58 
z
" transform="scale(0.015625)"/>
      <path id="JetBrainsMono-Bold-6f" d="M 1920 -58 
Q 1242 -58 845 323 
Q 448 704 448 1350 
L 448 2170 
Q 448 2822 845 3200 
Q 1242 3578 1920 3578 
Q 2598 3578 2995 3200 
Q 3392 2822 3392 2170 
L 3392 1350 
Q 3392 704 2995 323 
Q 2598 -58 1920 -58 
z
M 1920 640 
Q 2240 640 2416 816 
Q 2592 992 2592 1325 
L 2592 2195 
Q 2592 2528 2416 2704 
Q 2240 2880 1920 2880 
Q 1600 2880 1424 2704 
Q 1248 2528 1248 2195 
L 1248 1325 
Q 1248 992 1424 816 
Q 1600 640 1920 640 
z
" transform="scale(0.015625)"/>
      <path id="JetBrainsMono-Bold-72" d="M 621 0 
L 621 3520 
L 1402 3520 
L 1402 2835 
Q 1466 3181 1718 3382 
Q 1971 3584 2374 3584 
Q 2912 3584 3213 3238 
Q 3514 2893 3514 2272 
L 3514 1939 
L 2714 1939 
L 2714 2234 
Q 2714 2554 2547 2723 
Q 2381 2893 2074 2893 
Q 1754 2893 1587 2701 
Q 1421 2509 1421 2157 
L 1421 0 
L 621 0 
z
" transform="scale(0.015625)"/>
      <path id="JetBrainsMono-Bold-79" d="M 1056 -1152 
L 1555 192 
L 230 3520 
L 1075 3520 
L 1754 1722 
Q 1811 1562 1868 1373 
Q 1926 1184 1952 1024 
Q 1971 1184 2025 1373 
Q 2080 1562 2138 1722 
L 2765 3520 
L 3610 3520 
L 1894 -1152 
L 1056 -1152 
z
" transform="scale(0.015625)"/>
     </defs>
     <use xlink:href="#JetBrainsMono-Bold-52"/>
     <use xlink:href="#JetBrainsMono-Bold-61" transform="translate(59.999985 0)"/>
     <use xlink:href="#JetBrainsMono-Bold-74" transform="translate(119.999969 0)"/>
     <use xlink:href="#JetBrainsMono-Bold-69" transform="translate(179.999954 0)"/>
     <use xlink:href="#JetBrainsMono-Bold-6e" transform="translate(239.999939 0)"/>
     <use xlink:href="#JetBrainsMono-Bold-67" transform="translate(299.999924 0)"/>
     <use xlink:href="#JetBrainsMono-Bold-20" transform="translate(359.999908 0)"/>
     <use xlink:href="#JetBrainsMono-Bold-48" transform="translate(419.999893 0)"/>
     <use xlink:href="#JetBrainsMono-Bold-69" transform="translate(479.999878 0)"/>
     <use xlink:href="#JetBrainsMono-Bold-73" transform="translate(539.999863 0)"/>
     <use xlink:href="#JetBrainsMono-Bold-74" transform="translate(599.999847 0)"/>
     <use xlink:href="#JetBrainsMono-Bold-6f" transform="translate(659.999832 0)"/>
     <use xlink:href="#JetBrainsMono-Bold-72" transform="translate(719.999817 0)"/>
     <use xlink:href="#JetBrainsMono-Bold-79" transform="translate(779.999802 0)"/>
    </g>
   </g>
   <g id="line2d_31">
    <path d="M 71.6544 306.136149 
L 73.18629 304.737684 
L 74.718181 303.540369 
L 76.250071 302.534321 
L 77.781961 301.709661 
L 79.313852 301.056506 
L 80.845742 300.564977 
L 82.377632 300.225191 
L 83.909522 300.027268 
L 85.441413 299.961328 
L 86.973303 300.017488 
L 90.037084 300.456588 
L 93.100864 301.26552 
L 96.164645 302.365235 
L 100.760316 304.38711 
L 111.483548 309.458889 
L 114.547328 310.643299 
L 117.611109 311.565156 
L 120.67489 312.145413 
L 122.20678 312.282739 
L 123.73867 312.305022 
L 125.270561 312.20238 
L 126.802451 311.964934 
L 128.334341 311.582801 
L 129.866231 311.046101 
L 131.398122 310.344953 
L 132.930012 309.469476 
L 134.461902 308.409788 
L 135.993793 307.15601 
L 137.525683 305.698374 
L 139.057573 304.037114 
L 142.121354 300.176924 
L 145.185134 295.730808 
L 148.248915 290.855926 
L 154.376476 280.448513 
L 158.972147 272.686331 
L 162.035928 267.826878 
L 165.099708 263.403046 
L 168.163489 259.571998 
L 169.695379 257.92788 
L 171.22727 256.486437 
L 172.75916 255.24075 
L 174.29105 254.177064 
L 175.82294 253.28162 
L 177.354831 252.54066 
L 178.886721 251.940425 
L 181.950502 251.107099 
L 185.014282 250.671573 
L 188.078063 250.523782 
L 192.673734 250.600824 
L 197.269405 250.706141 
L 200.333185 250.608616 
L 203.396966 250.249092 
L 206.460746 249.570633 
L 209.524527 248.608847 
L 212.588308 247.408761 
L 215.652088 246.015404 
L 220.247759 243.661483 
L 237.098553 234.630412 
L 241.694223 232.637787 
L 246.289894 230.887687 
L 252.417456 228.843377 
L 260.076907 226.582789 
L 273.86392 222.596295 
L 278.459591 220.981566 
L 281.523371 219.716712 
L 284.587152 218.255014 
L 287.650932 216.556919 
L 290.714713 214.58287 
L 293.778494 212.293314 
L 296.842274 209.648695 
L 299.906055 206.609458 
L 302.969835 203.145865 
L 306.033616 199.313625 
L 310.629287 193.092271 
L 321.352519 178.119677 
L 324.4163 174.174819 
L 327.48008 170.561431 
L 330.543861 167.379583 
L 333.607641 164.729331 
L 335.139532 163.62906 
L 336.671422 162.672634 
L 339.735203 161.148308 
L 342.798983 160.070341 
L 345.862764 159.352719 
L 348.926544 158.909428 
L 353.522215 158.570709 
L 361.181667 158.159312 
L 364.245447 157.797477 
L 367.309228 157.195192 
L 370.373009 156.32044 
L 373.436789 155.21096 
L 376.50057 153.909285 
L 381.096241 151.689451 
L 388.755692 147.631317 
L 394.883254 144.445042 
L 399.478924 142.313656 
L 404.074595 140.503311 
L 408.670266 138.940926 
L 416.329718 136.620489 
L 423.989169 134.259328 
L 428.58484 132.633413 
L 433.180511 130.731456 
L 437.776182 128.519341 
L 442.371853 126.054785 
L 448.499414 122.488291 
L 471.477769 108.707211 
L 495.988013 94.879935 
L 502.115575 91.030644 
L 506.711245 87.928207 
L 511.306916 84.599179 
L 515.902587 81.005844 
L 520.498258 77.110488 
L 525.093929 72.875397 
L 529.6896 68.262857 
L 529.6896 68.262857 
" clip-path="url(#p0854e7879d)" style="fill: none; stroke: #8b5cf6; stroke-width: 1.2; stroke-linecap: round"/>
   </g>
   <g id="PathCollection_1">
    <defs>
     <path id="m4bd2fbf8d3" d="M 0 2.236068 
C 0.593012 2.236068 1.161816 2.000462 1.581139 1.581139 
C 2.000462 1.161816 2.236068 0.593012 2.236068 0 
C 2.236068 -0.593012 2.000462 -1.161816 1.581139 -1.581139 
C 1.161816 -2.000462 0.593012 -2.236068 0 -2.236068 
C -0.593012 -2.236068 -1.161816 -2.000462 -1.581139 -1.581139 
C -2.000462 -1.161816 -2.236068 -0.593012 -2.236068 0 
C -2.236068 0.593012 -2.000462 1.161816 -1.581139 1.581139 
C -1.161816 2.000462 -0.593012 2.236068 0 2.236068 
z
" style="stroke: #ffffff; stroke-width: 0.8"/>
    </defs>
    <g clip-path="url(#p0854e7879d)">
     <use xlink:href="#m4bd2fbf8d3" x="529.6896" y="68.262857" style="fill: #8b5cf6; stroke: #ffffff; stroke-width: 0.8"/>
    </g>
   </g>
  </g>
  <g id="axes_2">
   <g id="text_19">
    <!-- Rating -->
    <g style="fill: #9b8bb8" transform="translate(565.7472 48.312) scale(0.11 -0.11)">
     <use xlink:href="#JetBrainsMono-Regular-52"/>
     <use xlink:href="#JetBrainsMono-Regular-61" transform="translate(59.999985 0)"/>
     <use xlink:href="#JetBrainsMono-Regular-74" transform="translate(119.999969 0)"/>
     <use xlink:href="#JetBrainsMono-Regular-69" transform="translate(179.999954 0)"/>
     <use xlink:href="#JetBrainsMono-Regular-6e" transform="translate(239.999939 0)"/>
     <use xlink:href="#JetBrainsMono-Regular-67" transform="translate(299.999924 0)"/>
    </g>
   </g>
   <g id="text_20">
    <!-- 265 -->
    <g style="fill: #8b5cf6" transform="translate(565.7472 81.548) scale(0.26 -0.26)">
     <use xlink:href="#JetBrainsMono-Bold-32"/>
     <use xlink:href="#JetBrainsMono-Bold-36" transform="translate(59.999985 0)"/>
     <use xlink:href="#JetBrainsMono-Bold-35" transform="translate(119.999969 0)"/>
    </g>
   </g>
   <g id="text_21">
    <!-- Rank -->
    <g style="fill: #9b8bb8" transform="translate(565.7472 119.592) scale(0.11 -0.11)">
     <defs>
      <path id="JetBrainsMono-Regular-6b" d="M 621 0 
L 621 4672 
L 1197 4672 
L 1197 2067 
L 1869 2067 
L 2854 3520 
L 3514 3520 
L 2381 1843 
L 3578 0 
L 2906 0 
L 1882 1568 
L 1197 1568 
L 1197 0 
L 621 0 
z
" transform="scale(0.015625)"/>
     </defs>
     <use xlink:href="#JetBrainsMono-Regular-52"/>
     <use xlink:href="#JetBrainsMono-Regular-61" transform="translate(59.999985 0)"/>
     <use xlink:href="#JetBrainsMono-Regular-6e" transform="translate(119.999969 0)"/>
     <use xlink:href="#JetBrainsMono-Regular-6b" transform="translate(179.999954 0)"/>
    </g>
   </g>
   <g id="text_22">
    <!-- #117,881 -->
    <g style="fill: #8b5cf6" transform="translate(565.7472 148.104) scale(0.14 -0.14)">
     <defs>
      <path id="JetBrainsMono-Bold-23" d="M 493 0 
L 710 1216 
L 224 1216 
L 224 1760 
L 800 1760 
L 998 2912 
L 448 2912 
L 448 3456 
L 1094 3456 
L 1312 4672 
L 1875 4672 
L 1658 3456 
L 2566 3456 
L 2784 4672 
L 3347 4672 
L 3130 3456 
L 3616 3456 
L 3616 2912 
L 3034 2912 
L 2835 1760 
L 3392 1760 
L 3392 1216 
L 2739 1216 
L 2528 0 
L 1965 0 
L 2182 1216 
L 1267 1216 
L 1056 0 
L 493 0 
z
M 1363 1760 
L 2272 1760 
L 2470 2912 
L 1562 2912 
L 1363 1760 
z
" transform="scale(0.015625)"/>
      <path id="JetBrainsMono-Bold-31" d="M 538 0 
L 538 723 
L 1754 723 
L 1754 3898 
L 531 3002 
L 531 3898 
L 1606 4672 
L 2554 4672 
L 2554 723 
L 3533 723 
L 3533 0 
L 538 0 
z
" transform="scale(0.015625)"/>
      <path id="JetBrainsMono-Bold-37" d="M 1011 0 
L 2720 3968 
L 1229 3968 
L 1229 3206 
L 429 3206 
L 429 4672 
L 3584 4672 
L 3584 3968 
L 1888 0 
L 1011 0 
z
" transform="scale(0.015625)"/>
      <path id="JetBrainsMono-Bold-2c" d="M 1216 -1024 
L 1555 934 
L 2470 934 
L 1984 -1024 
L 1216 -1024 
z
" transform="scale(0.015625)"/>
      <path id="JetBrainsMono-Bold-38" d="M 1920 -64 
Q 1453 -64 1094 112 
Q 736 288 537 598 
Q 339 909 339 1318 
Q 339 1747 585 2067 
Q 832 2387 1229 2470 
L 1229 2483 
Q 890 2554 682 2829 
Q 474 3104 474 3482 
Q 474 3853 656 4134 
Q 838 4416 1164 4576 
Q 1491 4736 1920 4736 
Q 2349 4736 2678 4576 
Q 3008 4416 3190 4134 
Q 3373 3853 3373 3482 
Q 3373 3104 3161 2829 
Q 2950 2554 2611 2483 
L 2611 2470 
Q 3008 2387 3254 2067 
Q 3501 1747 3501 1318 
Q 3501 909 3302 598 
Q 3104 288 2745 112 
Q 2387 -64 1920 -64 
z
M 1920 2758 
Q 2221 2758 2406 2940 
Q 2592 3123 2592 3411 
Q 2592 3706 2406 3888 
Q 2221 4070 1920 4070 
Q 1619 4070 1433 3888 
Q 1248 3706 1248 3411 
Q 1248 3123 1433 2940 
Q 1619 2758 1920 2758 
z
M 1920 614 
Q 2272 614 2496 819 
Q 2720 1024 2720 1357 
Q 2720 1696 2496 1904 
Q 2272 2112 1920 2112 
Q 1568 2112 1344 1904 
Q 1120 1696 1120 1357 
Q 1120 1024 1344 819 
Q 1568 614 1920 614 
z
" transform="scale(0.015625)"/>
     </defs>
     <use xlink:href="#JetBrainsMono-Bold-23"/>
     <use xlink:href="#JetBrainsMono-Bold-31" transform="translate(59.999985 0)"/>
     <use xlink:href="#JetBrainsMono-Bold-31" transform="translate(119.999969 0)"/>
     <use xlink:href="#JetBrainsMono-Bold-37" transform="translate(179.999954 0)"/>
     <use xlink:href="#JetBrainsMono-Bold-2c" transform="translate(239.999939 0)"/>
     <use xlink:href="#JetBrainsMono-Bold-38" transform="translate(299.999924 0)"/>
     <use xlink:href="#JetBrainsMono-Bold-38" transform="translate(359.999908 0)"/>
     <use xlink:href="#JetBrainsMono-Bold-31" transform="translate(419.999893 0)"/>
    </g>
   </g>
   <g id="text_23">
    <!-- ▲ +7 -->
    <g style="fill: #4caf50" transform="translate(565.7472 169.488) scale(0.11 -0.11)">
     <defs>
      <path id="JetBrainsMono-Bold-25b2" d="M -64 384 
L 1920 4288 
L 3904 384 
L -64 384 
z
" transform="scale(0.015625)"/>
      <path id="JetBrainsMono-Bold-2b" d="M 1523 589 
L 1523 1741 
L 378 1741 
L 378 2483 
L 1523 2483 
L 1523 3635 
L 2317 3635 
L 2317 2483 
L 3462 2483 
L 3462 1741 
L 2317 1741 
L 2317 589 
L 1523 589 
z
" transform="scale(0.015625)"/>
     </defs>
     <use xlink:href="#JetBrainsMono-Bold-25b2"/>
     <use xlink:href="#JetBrainsMono-Bold-20" transform="translate(59.999985 0)"/>
     <use xlink:href="#JetBrainsMono-Bold-2b" transform="translate(119.999969 0)"/>
     <use xlink:href="#JetBrainsMono-Bold-37" transform="translate(179.999954 0)"/>
    </g>
   </g>
  </g>
 </g>
 <defs>
  <clipPath id="p0854e7879d">
   <rect x="55.296" y="55.44" width="490.752" height="269.28"/>
  </clipPath>
 </defs>
</svg>
