<?xml version="1.0" encoding="utf-8" standalone="no"?>
<!DOCTYPE svg PUBLIC "-//W3C//DTD SVG 1.1//EN"
  "http://www.w3.org/Graphics/SVG/1.1/DTD/svg11.dtd">
<svg xmlns:xlink="http://www.w3.org/1999/xlink" width="691.2pt" height="396pt" viewBox="0 0 691.2 396" xmlns="http://www.w3.org/2000/svg" version="1.1">
 <metadata>
  <rdf:RDF xmlns:dc="http://purl.org/dc/elements/1.1/" xmlns:cc="http://creativecommons.org/ns#" xmlns:rdf="http://www.w3.org/1999/02/22-rdf-syntax-ns#">
   <cc:Work>
    <dc:type rdf:resource="http://purl.org/dc/dcmitype/StillImage"/>
    <dc:date>2026-04-13T16:04:49.748539</dc:date>
    <dc:format>image/svg+xml</dc:format>
    <dc:creator>
     <cc:Agent>
      <dc:title>Matplotlib v3.10.8, https://matplotlib.org/</dc:title>
     </cc:Agent>
    </dc:creator>
   </cc:Work>
  </rdf:RDF>
 </metadata>
 <defs>
  <style type="text/css">*{stroke-linejoin: round; stroke-linecap: butt}</style>
 </defs>
 <g id="figure_1">
  <g id="patch_1">
   <path d="M 0 396 
L 691.2 396 
L 691.2 0 
L 0 0 
L 0 396 
z
" style="fill: none"/>
  </g>
  <g id="axes_1">
   <g id="patch_2">
    <path d="M 55.296 324.72 
L 546.048 324.72 
L 546.048 55.44 
L 55.296 55.44 
L 55.296 324.72 
z
" style="fill: none"/>
   </g>
   <g id="matplotlib.axis_1">
    <g id="xtick_1">
     <g id="line2d_1">
      <path d="M 107.876571 324.72 
L 107.876571 55.44 
" clip-path="url(#p943f5589b3)" style="fill: none; stroke-dasharray: 2.22,0.96; stroke-dashoffset: 0; stroke: #e2d5f5; stroke-opacity: 0.7; stroke-width: 0.6"/>
     </g>
     <g id="line2d_2">
      <defs>
       <path id="mded4f98b27" d="M 0 0 
L 0 3.5 
" style="stroke: #9b8bb8; stroke-width: 0.8"/>
      </defs>
      <g>
       <use xlink:href="#mded4f98b27" x="107.876571" y="324.72" style="fill: #9b8bb8; stroke: #9b8bb8; stroke-width: 0.8"/>
      </g>
     </g>
     <g id="text_1">
      <!-- 04/01 -->
      <g style="fill: #9b8bb8" transform="translate(96.33619 353.301793) rotate(-30) scale(0.1 -0.1)">
       <defs>
        <path id="JetBrainsMono-Regular-30" d="M 1920 -64 
Q 1274 -64 893 310 
Q 512 685 512 1312 
L 512 3360 
Q 512 3987 893 4361 
Q 1274 4736 1920 4736 
Q 2566 4736 2947 4361 
Q 3328 3987 3328 3360 
L 3328 1312 
Q 3328 896 3155 585 
Q 2982 275 2665 105 
Q 2349 -64 1920 -64 
z
M 1920 429 
Q 2304 429 2537 675 
Q 2771 922 2771 1312 
L 2771 3360 
Q 2771 3750 2537 3996 
Q 2304 4243 1920 4243 
Q 1536 4243 1302 3996 
Q 1069 3750 1069 3360 
L 1069 1312 
Q 1069 922 1302 675 
Q 1536 429 1920 429 
z
M 1920 1984 
Q 1747 1984 1641 2080 
Q 1536 2176 1536 2355 
Q 1536 2528 1641 2621 
Q 1747 2714 1920 2714 
Q 2093 2714 2198 2621 
Q 2304 2528 2304 2355 
Q 2304 2176 2198 2080 
Q 2093 1984 1920 1984 
z
" transform="scale(0.015625)"/>
        <path id="JetBrainsMono-Regular-34" d="M 2560 0 
L 2560 1024 
L 448 1024 
L 448 1926 
L 2150 4672 
L 2803 4672 
L 1024 1798 
L 1024 1549 
L 2560 1549 
L 2560 2688 
L 3136 2688 
L 3136 0 
L 2560 0 
z
" transform="scale(0.015625)"/>
        <path id="JetBrainsMono-Regular-2f" d="M 480 -704 
L 2752 5312 
L 3360 5312 
L 1088 -704 
L 480 -704 
z
" transform="scale(0.015625)"/>
        <path id="JetBrainsMono-Regular-31" d="M 576 0 
L 576 525 
L 1843 525 
L 1843 4173 
L 576 3226 
L 576 3885 
L 1632 4672 
L 2419 4672 
L 2419 525 
L 3456 525 
L 3456 0 
L 576 0 
z
" transform="scale(0.015625)"/>
       </defs>
       <use xlink:href="#JetBrainsMono-Regular-30"/>
       <use xlink:href="#JetBrainsMono-Regular-34" transform="translate(59.999985 0)"/>
       <use xlink:href="#JetBrainsMono-Regular-2f" transform="translate(119.999969 0)"/>
       <use xlink:href="#JetBrainsMono-Regular-30" transform="translate(179.999954 0)"/>
       <use xlink:href="#JetBrainsMono-Regular-31" transform="translate(239.999939 0)"/>
      </g>
     </g>
    </g>
    <g id="xtick_2">
     <g id="line2d_3">
      <path d="M 177.984 324.72 
L 177.984 55.44 
" clip-path="url(#p943f5589b3)" style="fill: none; stroke-dasharray: 2.22,0.96; stroke-dashoffset: 0; stroke: #e2d5f5; stroke-opacity: 0.7; stroke-width: 0.6"/>
     </g>
     <g id="line2d_4">
      <g>
       <use xlink:href="#mded4f98b27" x="177.984" y="324.72" style="fill: #9b8bb8; stroke: #9b8bb8; stroke-width: 0.8"/>
      </g>
     </g>
     <g id="text_2">
      <!-- 04/03 -->
      <g style="fill: #9b8bb8" transform="translate(166.443619 353.301793) rotate(-30) scale(0.1 -0.1)">
       <defs>
        <path id="JetBrainsMono-Regular-33" d="M 1850 -64 
Q 1203 -64 825 297 
Q 448 659 448 1280 
L 1024 1280 
Q 1024 896 1248 672 
Q 1472 448 1856 448 
Q 2240 448 2464 672 
Q 2688 896 2688 1280 
L 2688 1600 
Q 2688 1984 2464 2208 
Q 2240 2432 1856 2432 
L 1350 2432 
L 1350 2931 
L 2496 4147 
L 576 4147 
L 576 4672 
L 3149 4672 
L 3149 4134 
L 2022 2938 
Q 2598 2893 2931 2537 
Q 3264 2182 3264 1600 
L 3264 1280 
Q 3264 659 2883 297 
Q 2502 -64 1850 -64 
z
" transform="scale(0.015625)"/>
       </defs>
       <use xlink:href="#JetBrainsMono-Regular-30"/>
       <use xlink:href="#JetBrainsMono-Regular-34" transform="translate(59.999985 0)"/>
       <use xlink:href="#JetBrainsMono-Regular-2f" transform="translate(119.999969 0)"/>
       <use xlink:href="#JetBrainsMono-Regular-30" transform="translate(179.999954 0)"/>
       <use xlink:href="#JetBrainsMono-Regular-33" transform="translate(239.999939 0)"/>
      </g>
     </g>
    </g>
    <g id="xtick_3">
     <g id="line2d_5">
      <path d="M 248.091429 324.72 
L 248.091429 55.44 
" clip-path="url(#p943f5589b3)" style="fill: none; stroke-dasharray: 2.22,0.96; stroke-dashoffset: 0; stroke: #e2d5f5; stroke-opacity: 0.7; stroke-width: 0.6"/>
     </g>
     <g id="line2d_6">
      <g>
       <use xlink:href="#mded4f98b27" x="248.091429" y="324.72" style="fill: #9b8bb8; stroke: #9b8bb8; stroke-width: 0.8"/>
      </g>
     </g>
     <g id="text_3">
      <!-- 04/05 -->
      <g style="fill: #9b8bb8" transform="translate(236.551048 353.301793) rotate(-30) scale(0.1 -0.1)">
       <defs>
        <path id="JetBrainsMono-Regular-35" d="M 1882 -64 
Q 1235 -64 857 297 
Q 480 659 480 1280 
L 1056 1280 
Q 1056 896 1280 672 
Q 1504 448 1888 448 
Q 2272 448 2496 672 
Q 2720 896 2720 1280 
L 2720 1568 
Q 2720 1952 2502 2176 
Q 2285 2400 1914 2400 
L 640 2400 
L 640 4672 
L 3130 4672 
L 3130 4147 
L 1178 4147 
L 1190 2925 
L 1946 2925 
Q 2592 2925 2944 2569 
Q 3296 2214 3296 1568 
L 3296 1280 
Q 3296 659 2915 297 
Q 2534 -64 1882 -64 
z
" transform="scale(0.015625)"/>
       </defs>
       <use xlink:href="#JetBrainsMono-Regular-30"/>
       <use xlink:href="#JetBrainsMono-Regular-34" transform="translate(59.999985 0)"/>
       <use xlink:href="#JetBrainsMono-Regular-2f" transform="translate(119.999969 0)"/>
       <use xlink:href="#JetBrainsMono-Regular-30" transform="translate(179.999954 0)"/>
       <use xlink:href="#JetBrainsMono-Regular-35" transform="translate(239.999939 0)"/>
      </g>
     </g>
    </g>
    <g id="xtick_4">
     <g id="line2d_7">
      <path d="M 318.198857 324.72 
L 318.198857 55.44 
" clip-path="url(#p943f5589b3)" style="fill: none; stroke-dasharray: 2.22,0.96; stroke-dashoffset: 0; stroke: #e2d5f5; stroke-opacity: 0.7; stroke-width: 0.6"/>
     </g>
     <g id="line2d_8">
      <g>
       <use xlink:href="#mded4f98b27" x="318.198857" y="324.72" style="fill: #9b8bb8; stroke: #9b8bb8; stroke-width: 0.8"/>
      </g>
     </g>
     <g id="text_4">
      <!-- 04/07 -->
      <g style="fill: #9b8bb8" transform="translate(306.658476 353.301793) rotate(-30) scale(0.1 -0.1)">
       <defs>
        <path id="JetBrainsMono-Regular-37" d="M 1216 0 
L 2880 4147 
L 1101 4147 
L 1101 3392 
L 525 3392 
L 525 4672 
L 3494 4672 
L 3494 4134 
L 1843 0 
L 1216 0 
z
" transform="scale(0.015625)"/>
       </defs>
       <use xlink:href="#JetBrainsMono-Regular-30"/>
       <use xlink:href="#JetBrainsMono-Regular-34" transform="translate(59.999985 0)"/>
       <use xlink:href="#JetBrainsMono-Regular-2f" transform="translate(119.999969 0)"/>
       <use xlink:href="#JetBrainsMono-Regular-30" transform="translate(179.999954 0)"/>
       <use xlink:href="#JetBrainsMono-Regular-37" transform="translate(239.999939 0)"/>
      </g>
     </g>
    </g>
    <g id="xtick_5">
     <g id="line2d_9">
      <path d="M 388.306286 324.72 
L 388.306286 55.44 
" clip-path="url(#p943f5589b3)" style="fill: none; stroke-dasharray: 2.22,0.96; stroke-dashoffset: 0; stroke: #e2d5f5; stroke-opacity: 0.7; stroke-width: 0.6"/>
     </g>
     <g id="line2d_10">
      <g>
       <use xlink:href="#mded4f98b27" x="388.306286" y="324.72" style="fill: #9b8bb8; stroke: #9b8bb8; stroke-width: 0.8"/>
      </g>
     </g>
     <g id="text_5">
      <!-- 04/09 -->
      <g style="fill: #9b8bb8" transform="translate(376.765905 353.301793) rotate(-30) scale(0.1 -0.1)">
       <defs>
        <path id="JetBrainsMono-Regular-39" d="M 1248 0 
L 2400 2003 
L 2381 2016 
Q 2317 1914 2144 1853 
Q 1971 1792 1766 1792 
Q 1363 1792 1059 1974 
Q 755 2157 582 2477 
Q 410 2797 410 3219 
Q 410 3674 602 4013 
Q 794 4352 1133 4544 
Q 1472 4736 1914 4736 
Q 2368 4736 2707 4547 
Q 3046 4358 3238 4022 
Q 3430 3686 3430 3245 
Q 3430 2938 3315 2614 
Q 3200 2291 3002 1939 
L 1920 0 
L 1248 0 
z
M 1920 2240 
Q 2336 2240 2595 2515 
Q 2854 2790 2854 3232 
Q 2854 3674 2595 3949 
Q 2336 4224 1920 4224 
Q 1504 4224 1245 3949 
Q 986 3674 986 3232 
Q 986 2790 1245 2515 
Q 1504 2240 1920 2240 
z
" transform="scale(0.015625)"/>
       </defs>
       <use xlink:href="#JetBrainsMono-Regular-30"/>
       <use xlink:href="#JetBrainsMono-Regular-34" transform="translate(59.999985 0)"/>
       <use xlink:href="#JetBrainsMono-Regular-2f" transform="translate(119.999969 0)"/>
       <use xlink:href="#JetBrainsMono-Regular-30" transform="translate(179.999954 0)"/>
       <use xlink:href="#JetBrainsMono-Regular-39" transform="translate(239.999939 0)"/>
      </g>
     </g>
    </g>
    <g id="xtick_6">
     <g id="line2d_11">
      <path d="M 458.413714 324.72 
L 458.413714 55.44 
" clip-path="url(#p943f5589b3)" style="fill: none; stroke-dasharray: 2.22,0.96; stroke-dashoffset: 0; stroke: #e2d5f5; stroke-opacity: 0.7; stroke-width: 0.6"/>
     </g>
     <g id="line2d_12">
      <g>
       <use xlink:href="#mded4f98b27" x="458.413714" y="324.72" style="fill: #9b8bb8; stroke: #9b8bb8; stroke-width: 0.8"/>
      </g>
     </g>
     <g id="text_6">
      <!-- 04/11 -->
      <g style="fill: #9b8bb8" transform="translate(446.873333 353.301793) rotate(-30) scale(0.1 -0.1)">
       <use xlink:href="#JetBrainsMono-Regular-30"/>
       <use xlink:href="#JetBrainsMono-Regular-34" transform="translate(59.999985 0)"/>
       <use xlink:href="#JetBrainsMono-Regular-2f" transform="translate(119.999969 0)"/>
       <use xlink:href="#JetBrainsMono-Regular-31" transform="translate(179.999954 0)"/>
       <use xlink:href="#JetBrainsMono-Regular-31" transform="translate(239.999939 0)"/>
      </g>
     </g>
    </g>
    <g id="xtick_7">
     <g id="line2d_13">
      <path d="M 528.521143 324.72 
L 528.521143 55.44 
" clip-path="url(#p943f5589b3)" style="fill: none; stroke-dasharray: 2.22,0.96; stroke-dashoffset: 0; stroke: #e2d5f5; stroke-opacity: 0.7; stroke-width: 0.6"/>
     </g>
     <g id="line2d_14">
      <g>
       <use xlink:href="#mded4f98b27" x="528.521143" y="324.72" style="fill: #9b8bb8; stroke: #9b8bb8; stroke-width: 0.8"/>
      </g>
     </g>
     <g id="text_7">
      <!-- 04/13 -->
      <g style="fill: #9b8bb8" transform="translate(516.980762 353.301793) rotate(-30) scale(0.1 -0.1)">
       <use xlink:href="#JetBrainsMono-Regular-30"/>
       <use xlink:href="#JetBrainsMono-Regular-34" transform="translate(59.999985 0)"/>
       <use xlink:href="#JetBrainsMono-Regular-2f" transform="translate(119.999969 0)"/>
       <use xlink:href="#JetBrainsMono-Regular-31" transform="translate(179.999954 0)"/>
       <use xlink:href="#JetBrainsMono-Regular-33" transform="translate(239.999939 0)"/>
      </g>
     </g>
    </g>
   </g>
   <g id="matplotlib.axis_2">
    <g id="ytick_1">
     <g id="line2d_15">
      <path d="M 55.296 308.174378 
L 546.048 308.174378 
" clip-path="url(#p943f5589b3)" style="fill: none; stroke-dasharray: 2.22,0.96; stroke-dashoffset: 0; stroke: #e2d5f5; stroke-opacity: 0.7; stroke-width: 0.6"/>
     </g>
     <g id="line2d_16">
      <defs>
       <path id="m8c8ecc8d5e" d="M 0 0 
L -3.5 0 
" style="stroke: #9b8bb8; stroke-width: 0.8"/>
      </defs>
      <g>
       <use xlink:href="#m8c8ecc8d5e" x="55.296" y="308.174378" style="fill: #9b8bb8; stroke: #9b8bb8; stroke-width: 0.8"/>
      </g>
     </g>
     <g id="text_8">
      <!-- 200 -->
      <g style="fill: #9b8bb8" transform="translate(30.296 311.824378) scale(0.1 -0.1)">
       <defs>
        <path id="JetBrainsMono-Regular-32" d="M 550 0 
L 550 531 
L 2106 2195 
Q 2445 2554 2585 2835 
Q 2726 3117 2726 3386 
Q 2726 3770 2505 3997 
Q 2285 4224 1907 4224 
Q 1517 4224 1289 3990 
Q 1062 3757 1062 3360 
L 486 3360 
Q 506 3994 890 4365 
Q 1274 4736 1907 4736 
Q 2554 4736 2934 4371 
Q 3315 4006 3315 3379 
Q 3315 3046 3132 2675 
Q 2950 2304 2509 1843 
L 1248 525 
L 3373 525 
L 3373 0 
L 550 0 
z
" transform="scale(0.015625)"/>
       </defs>
       <use xlink:href="#JetBrainsMono-Regular-32"/>
       <use xlink:href="#JetBrainsMono-Regular-30" transform="translate(59.999985 0)"/>
       <use xlink:href="#JetBrainsMono-Regular-30" transform="translate(119.999969 0)"/>
      </g>
     </g>
    </g>
    <g id="ytick_2">
     <g id="line2d_17">
      <path d="M 55.296 266.810323 
L 546.048 266.810323 
" clip-path="url(#p943f5589b3)" style="fill: none; stroke-dasharray: 2.22,0.96; stroke-dashoffset: 0; stroke: #e2d5f5; stroke-opacity: 0.7; stroke-width: 0.6"/>
     </g>
     <g id="line2d_18">
      <g>
       <use xlink:href="#m8c8ecc8d5e" x="55.296" y="266.810323" style="fill: #9b8bb8; stroke: #9b8bb8; stroke-width: 0.8"/>
      </g>
     </g>
     <g id="text_9">
      <!-- 210 -->
      <g style="fill: #9b8bb8" transform="translate(30.296 270.460323) scale(0.1 -0.1)">
       <use xlink:href="#JetBrainsMono-Regular-32"/>
       <use xlink:href="#JetBrainsMono-Regular-31" transform="translate(59.999985 0)"/>
       <use xlink:href="#JetBrainsMono-Regular-30" transform="translate(119.999969 0)"/>
      </g>
     </g>
    </g>
    <g id="ytick_3">
     <g id="line2d_19">
      <path d="M 55.296 225.446267 
L 546.048 225.446267 
" clip-path="url(#p943f5589b3)" style="fill: none; stroke-dasharray: 2.22,0.96; stroke-dashoffset: 0; stroke: #e2d5f5; stroke-opacity: 0.7; stroke-width: 0.6"/>
     </g>
     <g id="line2d_20">
      <g>
       <use xlink:href="#m8c8ecc8d5e" x="55.296" y="225.446267" style="fill: #9b8bb8; stroke: #9b8bb8; stroke-width: 0.8"/>
      </g>
     </g>
     <g id="text_10">
      <!-- 220 -->
      <g style="fill: #9b8bb8" transform="translate(30.296 229.096267) scale(0.1 -0.1)">
       <use xlink:href="#JetBrainsMono-Regular-32"/>
       <use xlink:href="#JetBrainsMono-Regular-32" transform="translate(59.999985 0)"/>
       <use xlink:href="#JetBrainsMono-Regular-30" transform="translate(119.999969 0)"/>
      </g>
     </g>
    </g>
    <g id="ytick_4">
     <g id="line2d_21">
      <path d="M 55.296 184.082212 
L 546.048 184.082212 
" clip-path="url(#p943f5589b3)" style="fill: none; stroke-dasharray: 2.22,0.96; stroke-dashoffset: 0; stroke: #e2d5f5; stroke-opacity: 0.7; stroke-width: 0.6"/>
     </g>
     <g id="line2d_22">
      <g>
       <use xlink:href="#m8c8ecc8d5e" x="55.296" y="184.082212" style="fill: #9b8bb8; stroke: #9b8bb8; stroke-width: 0.8"/>
      </g>
     </g>
     <g id="text_11">
      <!-- 230 -->
      <g style="fill: #9b8bb8" transform="translate(30.296 187.732212) scale(0.1 -0.1)">
       <use xlink:href="#JetBrainsMono-Regular-32"/>
       <use xlink:href="#JetBrainsMono-Regular-33" transform="translate(59.999985 0)"/>
       <use xlink:href="#JetBrainsMono-Regular-30" transform="translate(119.999969 0)"/>
      </g>
     </g>
    </g>
    <g id="ytick_5">
     <g id="line2d_23">
      <path d="M 55.296 142.718157 
L 546.048 142.718157 
" clip-path="url(#p943f5589b3)" style="fill: none; stroke-dasharray: 2.22,0.96; stroke-dashoffset: 0; stroke: #e2d5f5; stroke-opacity: 0.7; stroke-width: 0.6"/>
     </g>
     <g id="line2d_24">
      <g>
       <use xlink:href="#m8c8ecc8d5e" x="55.296" y="142.718157" style="fill: #9b8bb8; stroke: #9b8bb8; stroke-width: 0.8"/>
      </g>
     </g>
     <g id="text_12">
      <!-- 240 -->
      <g style="fill: #9b8bb8" transform="translate(30.296 146.368157) scale(0.1 -0.1)">
       <use xlink:href="#JetBrainsMono-Regular-32"/>
       <use xlink:href="#JetBrainsMono-Regular-34" transform="translate(59.999985 0)"/>
       <use xlink:href="#JetBrainsMono-Regular-30" transform="translate(119.999969 0)"/>
      </g>
     </g>
    </g>
    <g id="ytick_6">
     <g id="line2d_25">
      <path d="M 55.296 101.354101 
L 546.048 101.354101 
" clip-path="url(#p943f5589b3)" style="fill: none; stroke-dasharray: 2.22,0.96; stroke-dashoffset: 0; stroke: #e2d5f5; stroke-opacity: 0.7; stroke-width: 0.6"/>
     </g>
     <g id="line2d_26">
      <g>
       <use xlink:href="#m8c8ecc8d5e" x="55.296" y="101.354101" style="fill: #9b8bb8; stroke: #9b8bb8; stroke-width: 0.8"/>
      </g>
     </g>
     <g id="text_13">
      <!-- 250 -->
      <g style="fill: #9b8bb8" transform="translate(30.296 105.004101) scale(0.1 -0.1)">
       <use xlink:href="#JetBrainsMono-Regular-32"/>
       <use xlink:href="#JetBrainsMono-Regular-35" transform="translate(59.999985 0)"/>
       <use xlink:href="#JetBrainsMono-Regular-30" transform="translate(119.999969 0)"/>
      </g>
     </g>
    </g>
    <g id="ytick_7">
     <g id="line2d_27">
      <path d="M 55.296 59.990046 
L 546.048 59.990046 
" clip-path="url(#p943f5589b3)" style="fill: none; stroke-dasharray: 2.22,0.96; stroke-dashoffset: 0; stroke: #e2d5f5; stroke-opacity: 0.7; stroke-width: 0.6"/>
     </g>
     <g id="line2d_28">
      <g>
       <use xlink:href="#m8c8ecc8d5e" x="55.296" y="59.990046" style="fill: #9b8bb8; stroke: #9b8bb8; stroke-width: 0.8"/>
      </g>
     </g>
     <g id="text_14">
      <!-- 260 -->
      <g style="fill: #9b8bb8" transform="translate(30.296 63.640046) scale(0.1 -0.1)">
       <defs>
        <path id="JetBrainsMono-Regular-36" d="M 1926 -64 
Q 1478 -64 1136 125 
Q 794 314 602 650 
Q 410 986 410 1427 
Q 410 1734 525 2057 
Q 640 2381 838 2733 
L 1920 4672 
L 2560 4672 
L 1408 2669 
L 1427 2656 
Q 1510 2765 1676 2822 
Q 1843 2880 2042 2880 
Q 2458 2880 2768 2697 
Q 3078 2515 3254 2195 
Q 3430 1875 3430 1453 
Q 3430 1005 3238 662 
Q 3046 320 2710 128 
Q 2374 -64 1926 -64 
z
M 1920 448 
Q 2336 448 2595 723 
Q 2854 998 2854 1440 
Q 2854 1882 2595 2157 
Q 2336 2432 1920 2432 
Q 1504 2432 1245 2157 
Q 986 1882 986 1440 
Q 986 998 1245 723 
Q 1504 448 1920 448 
z
" transform="scale(0.015625)"/>
       </defs>
       <use xlink:href="#JetBrainsMono-Regular-32"/>
       <use xlink:href="#JetBrainsMono-Regular-36" transform="translate(59.999985 0)"/>
       <use xlink:href="#JetBrainsMono-Regular-30" transform="translate(119.999969 0)"/>
      </g>
     </g>
    </g>
    <g id="text_15">
     <!-- Rating -->
     <g style="fill: #9b8bb8" transform="translate(24.496 208.08) rotate(-90) scale(0.1 -0.1)">
      <defs>
       <path id="JetBrainsMono-Regular-52" d="M 595 0 
L 595 4672 
L 2035 4672 
Q 2451 4672 2764 4502 
Q 3078 4333 3251 4032 
Q 3424 3731 3424 3328 
Q 3424 2854 3181 2515 
Q 2938 2176 2534 2042 
L 3488 0 
L 2854 0 
L 1939 1984 
L 1165 1984 
L 1165 0 
L 595 0 
z
M 1165 2502 
L 2035 2502 
Q 2394 2502 2611 2729 
Q 2829 2957 2829 3328 
Q 2829 3706 2611 3930 
Q 2394 4154 2035 4154 
L 1165 4154 
L 1165 2502 
z
" transform="scale(0.015625)"/>
       <path id="JetBrainsMono-Regular-61" d="M 1613 -64 
Q 1069 -64 749 240 
Q 429 544 429 1037 
Q 429 1363 576 1606 
Q 723 1850 985 1987 
Q 1248 2125 1587 2125 
L 2675 2125 
L 2675 2400 
Q 2675 3085 1926 3085 
Q 1594 3085 1389 2963 
Q 1184 2842 1171 2624 
L 595 2624 
Q 627 3040 982 3312 
Q 1338 3584 1926 3584 
Q 2566 3584 2908 3277 
Q 3251 2970 3251 2419 
L 3251 0 
L 2682 0 
L 2682 640 
L 2669 640 
Q 2618 314 2342 125 
Q 2067 -64 1613 -64 
z
M 1754 422 
Q 2176 422 2425 627 
Q 2675 832 2675 1184 
L 2675 1677 
L 1651 1677 
Q 1370 1677 1194 1507 
Q 1018 1338 1018 1056 
Q 1018 762 1213 592 
Q 1408 422 1754 422 
z
" transform="scale(0.015625)"/>
       <path id="JetBrainsMono-Regular-74" d="M 2272 0 
Q 1837 0 1574 253 
Q 1312 506 1312 928 
L 1312 2995 
L 301 2995 
L 301 3520 
L 1312 3520 
L 1312 4512 
L 1888 4512 
L 1888 3520 
L 3328 3520 
L 3328 2995 
L 1888 2995 
L 1888 928 
Q 1888 749 1993 637 
Q 2099 525 2272 525 
L 3296 525 
L 3296 0 
L 2272 0 
z
" transform="scale(0.015625)"/>
       <path id="JetBrainsMono-Regular-69" d="M 544 0 
L 544 525 
L 1792 525 
L 1792 2995 
L 672 2995 
L 672 3520 
L 2368 3520 
L 2368 525 
L 3552 525 
L 3552 0 
L 544 0 
z
M 2016 4154 
Q 1805 4154 1683 4262 
Q 1562 4371 1562 4557 
Q 1562 4749 1683 4861 
Q 1805 4973 2016 4973 
Q 2227 4973 2348 4861 
Q 2470 4749 2470 4557 
Q 2470 4371 2348 4262 
Q 2227 4154 2016 4154 
z
" transform="scale(0.015625)"/>
       <path id="JetBrainsMono-Regular-6e" d="M 589 0 
L 589 3520 
L 1165 3520 
L 1165 2848 
L 1171 2848 
Q 1216 3200 1459 3392 
Q 1702 3584 2106 3584 
Q 2637 3584 2950 3257 
Q 3264 2931 3264 2368 
L 3264 0 
L 2688 0 
L 2688 2266 
Q 2688 2669 2486 2883 
Q 2285 3098 1939 3098 
Q 1581 3098 1373 2874 
Q 1165 2650 1165 2240 
L 1165 0 
L 589 0 
z
" transform="scale(0.015625)"/>
       <path id="JetBrainsMono-Regular-67" d="M 1030 -1152 
L 1030 -627 
L 2022 -627 
Q 2323 -627 2496 -457 
Q 2669 -288 2669 0 
L 2669 320 
L 2682 896 
L 2662 896 
Q 2611 582 2361 412 
Q 2112 243 1734 243 
Q 1190 243 876 588 
Q 563 934 563 1536 
L 563 2278 
Q 563 2880 876 3232 
Q 1190 3584 1734 3584 
Q 2112 3584 2361 3405 
Q 2611 3226 2662 2912 
L 2675 2912 
L 2675 3520 
L 3245 3520 
L 3245 0 
Q 3245 -531 2915 -841 
Q 2586 -1152 2016 -1152 
L 1030 -1152 
z
M 1907 723 
Q 2266 723 2470 947 
Q 2675 1171 2675 1568 
L 2675 2240 
Q 2675 2637 2470 2861 
Q 2266 3085 1907 3085 
Q 1542 3085 1340 2873 
Q 1139 2662 1139 2304 
L 1139 1504 
Q 1139 1146 1340 934 
Q 1542 723 1907 723 
z
" transform="scale(0.015625)"/>
      </defs>
      <use xlink:href="#JetBrainsMono-Regular-52"/>
      <use xlink:href="#JetBrainsMono-Regular-61" transform="translate(59.999985 0)"/>
      <use xlink:href="#JetBrainsMono-Regular-74" transform="translate(119.999969 0)"/>
      <use xlink:href="#JetBrainsMono-Regular-69" transform="translate(179.999954 0)"/>
      <use xlink:href="#JetBrainsMono-Regular-6e" transform="translate(239.999939 0)"/>
      <use xlink:href="#JetBrainsMono-Regular-67" transform="translate(299.999924 0)"/>
     </g>
    </g>
   </g>
   <g id="patch_3">
    <path d="M 55.296 324.72 
L 55.296 55.44 
" style="fill: none; stroke: #d8c8ef; stroke-width: 0.8; stroke-linejoin: miter; stroke-linecap: square"/>
   </g>
   <g id="patch_4">
    <path d="M 55.296 324.72 
L 546.048 324.72 
" style="fill: none; stroke: #d8c8ef; stroke-width: 0.8; stroke-linejoin: miter; stroke-linecap: square"/>
   </g>
   <g id="FillBetweenPolyCollection_1">
    <defs>
     <path id="m9c07c0415c" d="M 72.822857 -71.28 
L 72.822857 -91.962028 
L 74.346932 -93.414769 
L 75.871006 -94.673812 
L 77.395081 -95.747961 
L 78.919155 -96.64602 
L 80.44323 -97.376793 
L 81.967304 -97.949085 
L 83.491379 -98.371701 
L 85.015453 -98.653445 
L 86.539528 -98.803121 
L 88.063602 -98.829535 
L 89.587677 -98.74149 
L 91.111752 -98.547791 
L 92.635826 -98.257242 
L 94.159901 -97.878649 
L 95.683975 -97.420815 
L 97.20805 -96.892545 
L 98.732124 -96.302644 
L 100.256199 -95.659916 
L 101.780273 -94.973165 
L 103.304348 -94.251197 
L 104.828422 -93.502814 
L 106.352497 -92.736823 
L 107.876571 -91.962028 
L 109.400646 -91.187232 
L 110.92472 -90.421241 
L 112.448795 -89.672859 
L 113.97287 -88.95089 
L 115.496944 -88.264139 
L 117.021019 -87.621411 
L 118.545093 -87.03151 
L 120.069168 -86.50324 
L 121.593242 -86.045406 
L 123.117317 -85.666813 
L 124.641391 -85.376265 
L 126.165466 -85.182566 
L 127.68954 -85.094521 
L 129.213615 -85.120934 
L 130.737689 -85.270611 
L 132.261764 -85.552355 
L 133.785839 -85.97497 
L 135.309913 -86.547263 
L 136.833988 -87.278036 
L 138.358062 -88.176094 
L 139.882137 -89.250243 
L 141.406211 -90.509286 
L 142.930286 -91.962028 
L 144.45436 -93.612888 
L 145.978435 -95.448747 
L 147.502509 -97.452099 
L 149.026584 -99.605441 
L 150.550658 -101.891266 
L 152.074733 -104.29207 
L 153.598807 -106.790348 
L 155.122882 -109.368596 
L 156.646957 -112.009308 
L 158.171031 -114.694979 
L 159.695106 -117.408105 
L 161.21918 -120.131181 
L 162.743255 -122.846702 
L 164.267329 -125.537162 
L 165.791404 -128.185058 
L 167.315478 -130.772883 
L 168.839553 -133.283135 
L 170.363627 -135.698306 
L 171.887702 -138.000893 
L 173.411776 -140.173391 
L 174.935851 -142.198295 
L 176.459925 -144.058099 
L 177.984 -145.7353 
L 179.508075 -147.217352 
L 181.032149 -148.511555 
L 182.556224 -149.630168 
L 184.080298 -150.585451 
L 185.604373 -151.389662 
L 187.128447 -152.055062 
L 188.652522 -152.59391 
L 190.176596 -153.018465 
L 191.700671 -153.340987 
L 193.224745 -153.573736 
L 194.74882 -153.72897 
L 196.272894 -153.818949 
L 197.796969 -153.855933 
L 199.321043 -153.852181 
L 200.845118 -153.819953 
L 202.369193 -153.771508 
L 203.893267 -153.719105 
L 205.417342 -153.675004 
L 206.941416 -153.651465 
L 208.465491 -153.660746 
L 209.989565 -153.715108 
L 211.51364 -153.82681 
L 213.037714 -154.008111 
L 214.561789 -154.268391 
L 216.085863 -154.605515 
L 217.609938 -155.014467 
L 219.134012 -155.490231 
L 220.658087 -156.027793 
L 222.182161 -156.622136 
L 223.706236 -157.268247 
L 225.230311 -157.961108 
L 226.754385 -158.695705 
L 228.27846 -159.467023 
L 229.802534 -160.270046 
L 231.326609 -161.099759 
L 232.850683 -161.951146 
L 234.374758 -162.819192 
L 235.898832 -163.698882 
L 237.422907 -164.5852 
L 238.946981 -165.473132 
L 240.471056 -166.357661 
L 241.99513 -167.233772 
L 243.519205 -168.09645 
L 245.04328 -168.94068 
L 246.567354 -169.761446 
L 248.091429 -170.553733 
L 249.615503 -171.313641 
L 251.139578 -172.041738 
L 252.663652 -172.739705 
L 254.187727 -173.409226 
L 255.711801 -174.051982 
L 257.235876 -174.669656 
L 258.75995 -175.26393 
L 260.284025 -175.836488 
L 261.808099 -176.389012 
L 263.332174 -176.923183 
L 264.856248 -177.440686 
L 266.380323 -177.943201 
L 267.904398 -178.432413 
L 269.428472 -178.910002 
L 270.952547 -179.377653 
L 272.476621 -179.837047 
L 274.000696 -180.289867 
L 275.52477 -180.737795 
L 277.048845 -181.182514 
L 278.572919 -181.625706 
L 280.096994 -182.069055 
L 281.621068 -182.514241 
L 283.145143 -182.962949 
L 284.669217 -183.417314 
L 286.193292 -183.881288 
L 287.717366 -184.359274 
L 289.241441 -184.855678 
L 290.765516 -185.374904 
L 292.28959 -185.921357 
L 293.813665 -186.499442 
L 295.337739 -187.113564 
L 296.861814 -187.768127 
L 298.385888 -188.467536 
L 299.909963 -189.216195 
L 301.434037 -190.01851 
L 302.958112 -190.878885 
L 304.482186 -191.801725 
L 306.006261 -192.791434 
L 307.530335 -193.852418 
L 309.05441 -194.98908 
L 310.578484 -196.205826 
L 312.102559 -197.507061 
L 313.626634 -198.897188 
L 315.150708 -200.380614 
L 316.674783 -201.961742 
L 318.198857 -203.644977 
L 319.722932 -205.432133 
L 321.247006 -207.314659 
L 322.771081 -209.281412 
L 324.295155 -211.321252 
L 325.81923 -213.423034 
L 327.343304 -215.575618 
L 328.867379 -217.767861 
L 330.391453 -219.988622 
L 331.915528 -222.226757 
L 333.439602 -224.471125 
L 334.963677 -226.710584 
L 336.487752 -228.933992 
L 338.011826 -231.130206 
L 339.535901 -233.288084 
L 341.059975 -235.396485 
L 342.58405 -237.444266 
L 344.108124 -239.420285 
L 345.632199 -241.3134 
L 347.156273 -243.112468 
L 348.680348 -244.806348 
L 350.204422 -246.383898 
L 351.728497 -247.833975 
L 353.252571 -249.145438 
L 354.776646 -250.310595 
L 356.30072 -251.335562 
L 357.824795 -252.229905 
L 359.34887 -253.003191 
L 360.872944 -253.664986 
L 362.397019 -254.224857 
L 363.921093 -254.69237 
L 365.445168 -255.077093 
L 366.969242 -255.388591 
L 368.493317 -255.636431 
L 370.017391 -255.830179 
L 371.541466 -255.979403 
L 373.06554 -256.093668 
L 374.589615 -256.182541 
L 376.113689 -256.25559 
L 377.637764 -256.322379 
L 379.161839 -256.392476 
L 380.685913 -256.475448 
L 382.209988 -256.58086 
L 383.734062 -256.71828 
L 385.258137 -256.897273 
L 386.782211 -257.127408 
L 388.306286 -257.418249 
L 389.83036 -257.776988 
L 391.354435 -258.201315 
L 392.878509 -258.686543 
L 394.402584 -259.227987 
L 395.926658 -259.82096 
L 397.450733 -260.460776 
L 398.974807 -261.14275 
L 400.498882 -261.862194 
L 402.022957 -262.614424 
L 403.547031 -263.394752 
L 405.071106 -264.198494 
L 406.59518 -265.020962 
L 408.119255 -265.857471 
L 409.643329 -266.703335 
L 411.167404 -267.553867 
L 412.691478 -268.404382 
L 414.215553 -269.250194 
L 415.739627 -270.086616 
L 417.263702 -270.908962 
L 418.787776 -271.712547 
L 420.311851 -272.492684 
L 421.835925 -273.244688 
L 423.36 -273.963871 
L 424.884075 -274.646839 
L 426.408149 -275.29536 
L 427.932224 -275.912491 
L 429.456298 -276.501291 
L 430.980373 -277.064818 
L 432.504447 -277.606131 
L 434.028522 -278.128288 
L 435.552596 -278.634346 
L 437.076671 -279.127365 
L 438.600745 -279.610402 
L 440.12482 -280.086516 
L 441.648894 -280.558765 
L 443.172969 -281.030208 
L 444.697043 -281.503902 
L 446.221118 -281.982906 
L 447.745193 -282.470278 
L 449.269267 -282.969077 
L 450.793342 -283.48236 
L 452.317416 -284.013187 
L 453.841491 -284.564614 
L 455.365565 -285.139702 
L 456.88964 -285.741506 
L 458.413714 -286.373088 
L 459.937789 -287.036755 
L 461.461863 -287.73183 
L 462.985938 -288.456884 
L 464.510012 -289.210489 
L 466.034087 -289.991218 
L 467.558161 -290.797644 
L 469.082236 -291.628339 
L 470.606311 -292.481875 
L 472.130385 -293.356825 
L 473.65446 -294.251761 
L 475.178534 -295.165255 
L 476.702609 -296.09588 
L 478.226683 -297.042209 
L 479.750758 -298.002814 
L 481.274832 -298.976266 
L 482.798907 -299.96114 
L 484.322981 -300.956006 
L 485.847056 -301.959438 
L 487.37113 -302.970008 
L 488.895205 -303.986288 
L 490.41928 -305.006851 
L 491.943354 -306.03027 
L 493.467429 -307.055115 
L 494.991503 -308.079961 
L 496.515578 -309.103379 
L 498.039652 -310.123942 
L 499.563727 -311.140222 
L 501.087801 -312.150792 
L 502.611876 -313.154224 
L 504.13595 -314.149091 
L 505.660025 -315.133964 
L 507.184099 -316.107417 
L 508.708174 -317.068021 
L 510.232248 -318.01435 
L 511.756323 -318.944975 
L 513.280398 -319.85847 
L 514.804472 -320.753406 
L 516.328547 -321.628355 
L 517.852621 -322.481891 
L 519.376696 -323.312586 
L 520.90077 -324.119012 
L 522.424845 -324.899741 
L 523.948919 -325.653347 
L 525.472994 -326.378401 
L 526.997068 -327.073475 
L 528.521143 -327.737143 
L 528.521143 -71.28 
L 528.521143 -71.28 
L 526.997068 -71.28 
L 525.472994 -71.28 
L 523.948919 -71.28 
L 522.424845 -71.28 
L 520.90077 -71.28 
L 519.376696 -71.28 
L 517.852621 -71.28 
L 516.328547 -71.28 
L 514.804472 -71.28 
L 513.280398 -71.28 
L 511.756323 -71.28 
L 510.232248 -71.28 
L 508.708174 -71.28 
L 507.184099 -71.28 
L 505.660025 -71.28 
L 504.13595 -71.28 
L 502.611876 -71.28 
L 501.087801 -71.28 
L 499.563727 -71.28 
L 498.039652 -71.28 
L 496.515578 -71.28 
L 494.991503 -71.28 
L 493.467429 -71.28 
L 491.943354 -71.28 
L 490.41928 -71.28 
L 488.895205 -71.28 
L 487.37113 -71.28 
L 485.847056 -71.28 
L 484.322981 -71.28 
L 482.798907 -71.28 
L 481.274832 -71.28 
L 479.750758 -71.28 
L 478.226683 -71.28 
L 476.702609 -71.28 
L 475.178534 -71.28 
L 473.65446 -71.28 
L 472.130385 -71.28 
L 470.606311 -71.28 
L 469.082236 -71.28 
L 467.558161 -71.28 
L 466.034087 -71.28 
L 464.510012 -71.28 
L 462.985938 -71.28 
L 461.461863 -71.28 
L 459.937789 -71.28 
L 458.413714 -71.28 
L 456.88964 -71.28 
L 455.365565 -71.28 
L 453.841491 -71.28 
L 452.317416 -71.28 
L 450.793342 -71.28 
L 449.269267 -71.28 
L 447.745193 -71.28 
L 446.221118 -71.28 
L 444.697043 -71.28 
L 443.172969 -71.28 
L 441.648894 -71.28 
L 440.12482 -71.28 
L 438.600745 -71.28 
L 437.076671 -71.28 
L 435.552596 -71.28 
L 434.028522 -71.28 
L 432.504447 -71.28 
L 430.980373 -71.28 
L 429.456298 -71.28 
L 427.932224 -71.28 
L 426.408149 -71.28 
L 424.884075 -71.28 
L 423.36 -71.28 
L 421.835925 -71.28 
L 420.311851 -71.28 
L 418.787776 -71.28 
L 417.263702 -71.28 
L 415.739627 -71.28 
L 414.215553 -71.28 
L 412.691478 -71.28 
L 411.167404 -71.28 
L 409.643329 -71.28 
L 408.119255 -71.28 
L 406.59518 -71.28 
L 405.071106 -71.28 
L 403.547031 -71.28 
L 402.022957 -71.28 
L 400.498882 -71.28 
L 398.974807 -71.28 
L 397.450733 -71.28 
L 395.926658 -71.28 
L 394.402584 -71.28 
L 392.878509 -71.28 
L 391.354435 -71.28 
L 389.83036 -71.28 
L 388.306286 -71.28 
L 386.782211 -71.28 
L 385.258137 -71.28 
L 383.734062 -71.28 
L 382.209988 -71.28 
L 380.685913 -71.28 
L 379.161839 -71.28 
L 377.637764 -71.28 
L 376.113689 -71.28 
L 374.589615 -71.28 
L 373.06554 -71.28 
L 371.541466 -71.28 
L 370.017391 -71.28 
L 368.493317 -71.28 
L 366.969242 -71.28 
L 365.445168 -71.28 
L 363.921093 -71.28 
L 362.397019 -71.28 
L 360.872944 -71.28 
L 359.34887 -71.28 
L 357.824795 -71.28 
L 356.30072 -71.28 
L 354.776646 -71.28 
L 353.252571 -71.28 
L 351.728497 -71.28 
L 350.204422 -71.28 
L 348.680348 -71.28 
L 347.156273 -71.28 
L 345.632199 -71.28 
L 344.108124 -71.28 
L 342.58405 -71.28 
L 341.059975 -71.28 
L 339.535901 -71.28 
L 338.011826 -71.28 
L 336.487752 -71.28 
L 334.963677 -71.28 
L 333.439602 -71.28 
L 331.915528 -71.28 
L 330.391453 -71.28 
L 328.867379 -71.28 
L 327.343304 -71.28 
L 325.81923 -71.28 
L 324.295155 -71.28 
L 322.771081 -71.28 
L 321.247006 -71.28 
L 319.722932 -71.28 
L 318.198857 -71.28 
L 316.674783 -71.28 
L 315.150708 -71.28 
L 313.626634 -71.28 
L 312.102559 -71.28 
L 310.578484 -71.28 
L 309.05441 -71.28 
L 307.530335 -71.28 
L 306.006261 -71.28 
L 304.482186 -71.28 
L 302.958112 -71.28 
L 301.434037 -71.28 
L 299.909963 -71.28 
L 298.385888 -71.28 
L 296.861814 -71.28 
L 295.337739 -71.28 
L 293.813665 -71.28 
L 292.28959 -71.28 
L 290.765516 -71.28 
L 289.241441 -71.28 
L 287.717366 -71.28 
L 286.193292 -71.28 
L 284.669217 -71.28 
L 283.145143 -71.28 
L 281.621068 -71.28 
L 280.096994 -71.28 
L 278.572919 -71.28 
L 277.048845 -71.28 
L 275.52477 -71.28 
L 274.000696 -71.28 
L 272.476621 -71.28 
L 270.952547 -71.28 
L 269.428472 -71.28 
L 267.904398 -71.28 
L 266.380323 -71.28 
L 264.856248 -71.28 
L 263.332174 -71.28 
L 261.808099 -71.28 
L 260.284025 -71.28 
L 258.75995 -71.28 
L 257.235876 -71.28 
L 255.711801 -71.28 
L 254.187727 -71.28 
L 252.663652 -71.28 
L 251.139578 -71.28 
L 249.615503 -71.28 
L 248.091429 -71.28 
L 246.567354 -71.28 
L 245.04328 -71.28 
L 243.519205 -71.28 
L 241.99513 -71.28 
L 240.471056 -71.28 
L 238.946981 -71.28 
L 237.422907 -71.28 
L 235.898832 -71.28 
L 234.374758 -71.28 
L 232.850683 -71.28 
L 231.326609 -71.28 
L 229.802534 -71.28 
L 228.27846 -71.28 
L 226.754385 -71.28 
L 225.230311 -71.28 
L 223.706236 -71.28 
L 222.182161 -71.28 
L 220.658087 -71.28 
L 219.134012 -71.28 
L 217.609938 -71.28 
L 216.085863 -71.28 
L 214.561789 -71.28 
L 213.037714 -71.28 
L 211.51364 -71.28 
L 209.989565 -71.28 
L 208.465491 -71.28 
L 206.941416 -71.28 
L 205.417342 -71.28 
L 203.893267 -71.28 
L 202.369193 -71.28 
L 200.845118 -71.28 
L 199.321043 -71.28 
L 197.796969 -71.28 
L 196.272894 -71.28 
L 194.74882 -71.28 
L 193.224745 -71.28 
L 191.700671 -71.28 
L 190.176596 -71.28 
L 188.652522 -71.28 
L 187.128447 -71.28 
L 185.604373 -71.28 
L 184.080298 -71.28 
L 182.556224 -71.28 
L 181.032149 -71.28 
L 179.508075 -71.28 
L 177.984 -71.28 
L 176.459925 -71.28 
L 174.935851 -71.28 
L 173.411776 -71.28 
L 171.887702 -71.28 
L 170.363627 -71.28 
L 168.839553 -71.28 
L 167.315478 -71.28 
L 165.791404 -71.28 
L 164.267329 -71.28 
L 162.743255 -71.28 
L 161.21918 -71.28 
L 159.695106 -71.28 
L 158.171031 -71.28 
L 156.646957 -71.28 
L 155.122882 -71.28 
L 153.598807 -71.28 
L 152.074733 -71.28 
L 150.550658 -71.28 
L 149.026584 -71.28 
L 147.502509 -71.28 
L 145.978435 -71.28 
L 144.45436 -71.28 
L 142.930286 -71.28 
L 141.406211 -71.28 
L 139.882137 -71.28 
L 138.358062 -71.28 
L 136.833988 -71.28 
L 135.309913 -71.28 
L 133.785839 -71.28 
L 132.261764 -71.28 
L 130.737689 -71.28 
L 129.213615 -71.28 
L 127.68954 -71.28 
L 126.165466 -71.28 
L 124.641391 -71.28 
L 123.117317 -71.28 
L 121.593242 -71.28 
L 120.069168 -71.28 
L 118.545093 -71.28 
L 117.021019 -71.28 
L 115.496944 -71.28 
L 113.97287 -71.28 
L 112.448795 -71.28 
L 110.92472 -71.28 
L 109.400646 -71.28 
L 107.876571 -71.28 
L 106.352497 -71.28 
L 104.828422 -71.28 
L 103.304348 -71.28 
L 101.780273 -71.28 
L 100.256199 -71.28 
L 98.732124 -71.28 
L 97.20805 -71.28 
L 95.683975 -71.28 
L 94.159901 -71.28 
L 92.635826 -71.28 
L 91.111752 -71.28 
L 89.587677 -71.28 
L 88.063602 -71.28 
L 86.539528 -71.28 
L 85.015453 -71.28 
L 83.491379 -71.28 
L 81.967304 -71.28 
L 80.44323 -71.28 
L 78.919155 -71.28 
L 77.395081 -71.28 
L 75.871006 -71.28 
L 74.346932 -71.28 
L 72.822857 -71.28 
z
" style="stroke: #8b5cf6; stroke-opacity: 0.12"/>
    </defs>
    <g clip-path="url(#p943f5589b3)">
     <use xlink:href="#m9c07c0415c" x="0" y="396" style="fill: #8b5cf6; fill-opacity: 0.12; stroke: #8b5cf6; stroke-opacity: 0.12"/>
    </g>
   </g>
   <g id="text_16">
    <!-- 258 -->
    <g style="fill: #8b5cf6" transform="translate(531.521143 65.262857) scale(0.12 -0.12)">
     <defs>
      <path id="JetBrainsMono-Bold-32" d="M 474 0 
L 474 723 
L 2157 2445 
Q 2566 2874 2566 3315 
Q 2566 3629 2384 3824 
Q 2202 4019 1894 4019 
Q 1581 4019 1392 3817 
Q 1203 3616 1203 3283 
L 403 3283 
Q 403 3718 595 4044 
Q 787 4371 1126 4553 
Q 1466 4736 1914 4736 
Q 2355 4736 2688 4563 
Q 3021 4390 3203 4080 
Q 3386 3770 3386 3354 
Q 3386 2995 3216 2636 
Q 3046 2278 2656 1894 
L 1478 723 
L 3443 723 
L 3443 0 
L 474 0 
z
" transform="scale(0.015625)"/>
      <path id="JetBrainsMono-Bold-35" d="M 1894 -64 
Q 1210 -64 803 297 
Q 397 659 397 1280 
L 1197 1280 
Q 1197 986 1385 810 
Q 1574 634 1901 634 
Q 2227 634 2409 810 
Q 2592 986 2592 1299 
L 2592 1606 
Q 2592 1920 2413 2096 
Q 2234 2272 1907 2272 
L 557 2272 
L 557 4672 
L 3219 4672 
L 3219 3949 
L 1312 3949 
L 1318 2976 
L 1946 2976 
Q 2637 2976 3014 2617 
Q 3392 2259 3392 1606 
L 3392 1299 
Q 3392 666 2992 301 
Q 2592 -64 1894 -64 
z
" transform="scale(0.015625)"/>
      <path id="JetBrainsMono-Bold-38" d="M 1920 -64 
Q 1453 -64 1094 112 
Q 736 288 537 598 
Q 339 909 339 1318 
Q 339 1747 585 2067 
Q 832 2387 1229 2470 
L 1229 2483 
Q 890 2554 682 2829 
Q 474 3104 474 3482 
Q 474 3853 656 4134 
Q 838 4416 1164 4576 
Q 1491 4736 1920 4736 
Q 2349 4736 2678 4576 
Q 3008 4416 3190 4134 
Q 3373 3853 3373 3482 
Q 3373 3104 3161 2829 
Q 2950 2554 2611 2483 
L 2611 2470 
Q 3008 2387 3254 2067 
Q 3501 1747 3501 1318 
Q 3501 909 3302 598 
Q 3104 288 2745 112 
Q 2387 -64 1920 -64 
z
M 1920 2758 
Q 2221 2758 2406 2940 
Q 2592 3123 2592 3411 
Q 2592 3706 2406 3888 
Q 2221 4070 1920 4070 
Q 1619 4070 1433 3888 
Q 1248 3706 1248 3411 
Q 1248 3123 1433 2940 
Q 1619 2758 1920 2758 
z
M 1920 614 
Q 2272 614 2496 819 
Q 2720 1024 2720 1357 
Q 2720 1696 2496 1904 
Q 2272 2112 1920 2112 
Q 1568 2112 1344 1904 
Q 1120 1696 1120 1357 
Q 1120 1024 1344 819 
Q 1568 614 1920 614 
z
" transform="scale(0.015625)"/>
     </defs>
     <use xlink:href="#JetBrainsMono-Bold-32"/>
     <use xlink:href="#JetBrainsMono-Bold-35" transform="translate(59.999985 0)"/>
     <use xlink:href="#JetBrainsMono-Bold-38" transform="translate(119.999969 0)"/>
    </g>
   </g>
   <g id="text_17">
    <!-- Rating History -->
    <g style="fill: #8b5cf6" transform="translate(55.296 50.44) scale(0.17 -0.17)">
     <defs>
      <path id="JetBrainsMono-Bold-52" d="M 493 0 
L 493 4672 
L 1965 4672 
Q 2432 4672 2774 4499 
Q 3117 4326 3309 4016 
Q 3501 3706 3501 3283 
Q 3501 2816 3270 2467 
Q 3040 2118 2650 1971 
L 3565 0 
L 2688 0 
L 1869 1856 
L 1286 1856 
L 1286 0 
L 493 0 
z
M 1286 2560 
L 1965 2560 
Q 2304 2560 2496 2745 
Q 2688 2931 2688 3258 
Q 2688 3584 2493 3776 
Q 2298 3968 1965 3968 
L 1286 3968 
L 1286 2560 
z
" transform="scale(0.015625)"/>
      <path id="JetBrainsMono-Bold-61" d="M 1530 -64 
Q 992 -64 681 240 
Q 371 544 371 1037 
Q 371 1549 723 1853 
Q 1075 2157 1690 2157 
L 2547 2157 
L 2547 2406 
Q 2547 2938 1926 2938 
Q 1645 2938 1478 2829 
Q 1312 2720 1293 2522 
L 525 2522 
Q 550 2995 924 3289 
Q 1299 3584 1933 3584 
Q 2605 3584 2976 3270 
Q 3347 2957 3347 2387 
L 3347 0 
L 2566 0 
L 2566 659 
Q 2522 320 2246 128 
Q 1971 -64 1530 -64 
z
M 1786 589 
Q 2138 589 2342 761 
Q 2547 934 2547 1222 
L 2547 1638 
L 1728 1638 
Q 1466 1638 1312 1491 
Q 1158 1344 1158 1114 
Q 1158 877 1321 733 
Q 1485 589 1786 589 
z
" transform="scale(0.015625)"/>
      <path id="JetBrainsMono-Bold-74" d="M 2272 0 
Q 1779 0 1488 285 
Q 1197 570 1197 1056 
L 1197 2797 
L 224 2797 
L 224 3520 
L 1197 3520 
L 1197 4512 
L 2003 4512 
L 2003 3520 
L 3405 3520 
L 3405 2797 
L 2003 2797 
L 2003 1075 
Q 2003 922 2089 822 
Q 2176 723 2330 723 
L 3373 723 
L 3373 0 
L 2272 0 
z
" transform="scale(0.015625)"/>
      <path id="JetBrainsMono-Bold-69" d="M 486 0 
L 486 723 
L 1690 723 
L 1690 2797 
L 614 2797 
L 614 3520 
L 2490 3520 
L 2490 723 
L 3571 723 
L 3571 0 
L 486 0 
z
M 2032 4109 
Q 1789 4109 1648 4233 
Q 1507 4358 1507 4570 
Q 1507 4781 1648 4905 
Q 1789 5030 2032 5030 
Q 2275 5030 2416 4905 
Q 2557 4781 2557 4570 
Q 2557 4358 2416 4233 
Q 2275 4109 2032 4109 
z
" transform="scale(0.015625)"/>
      <path id="JetBrainsMono-Bold-6e" d="M 493 0 
L 493 3520 
L 1274 3520 
L 1274 2861 
Q 1338 3194 1587 3389 
Q 1837 3584 2221 3584 
Q 2739 3584 3049 3238 
Q 3360 2893 3360 2310 
L 3360 0 
L 2560 0 
L 2560 2214 
Q 2560 2541 2390 2717 
Q 2221 2893 1933 2893 
Q 1632 2893 1462 2713 
Q 1293 2534 1293 2202 
L 1293 0 
L 493 0 
z
" transform="scale(0.015625)"/>
      <path id="JetBrainsMono-Bold-67" d="M 973 -1152 
L 973 -486 
L 1965 -486 
Q 2246 -486 2400 -336 
Q 2554 -186 2554 70 
L 2554 282 
L 2566 832 
Q 2458 538 2218 374 
Q 1978 211 1632 211 
Q 1094 211 777 572 
Q 461 934 461 1555 
L 461 2240 
Q 461 2854 777 3219 
Q 1094 3584 1632 3584 
Q 1978 3584 2218 3421 
Q 2458 3258 2566 2957 
L 2566 3520 
L 3347 3520 
L 3347 51 
Q 3347 -506 2979 -829 
Q 2611 -1152 1978 -1152 
L 973 -1152 
z
M 1901 896 
Q 2208 896 2377 1078 
Q 2547 1261 2547 1587 
L 2547 2202 
Q 2547 2528 2377 2710 
Q 2208 2893 1901 2893 
Q 1594 2893 1427 2717 
Q 1261 2541 1261 2227 
L 1261 1562 
Q 1261 1248 1427 1072 
Q 1594 896 1901 896 
z
" transform="scale(0.015625)"/>
      <path id="JetBrainsMono-Bold-20" transform="scale(0.015625)"/>
      <path id="JetBrainsMono-Bold-48" d="M 493 0 
L 493 4672 
L 1293 4672 
L 1293 2778 
L 2547 2778 
L 2547 4672 
L 3347 4672 
L 3347 0 
L 2547 0 
L 2547 2054 
L 1293 2054 
L 1293 0 
L 493 0 
z
" transform="scale(0.015625)"/>
      <path id="JetBrainsMono-Bold-73" d="M 1773 -58 
Q 1146 -58 781 227 
Q 416 512 416 998 
L 1203 998 
Q 1203 794 1353 685 
Q 1504 576 1773 576 
L 2054 576 
Q 2342 576 2499 685 
Q 2656 794 2656 998 
Q 2656 1190 2547 1283 
Q 2438 1376 2214 1408 
L 1338 1523 
Q 915 1581 688 1849 
Q 461 2118 461 2547 
Q 461 3046 793 3312 
Q 1126 3578 1754 3578 
L 2048 3578 
Q 2637 3578 2995 3309 
Q 3354 3040 3366 2592 
L 2573 2592 
Q 2566 2758 2425 2857 
Q 2285 2957 2048 2957 
L 1754 2957 
Q 1498 2957 1363 2851 
Q 1229 2746 1229 2566 
Q 1229 2406 1328 2329 
Q 1427 2253 1619 2234 
L 2445 2118 
Q 2931 2061 3177 1776 
Q 3424 1491 3424 1011 
Q 3424 499 3075 220 
Q 2726 -58 2054 -58 
L 1773 -58 
z
" transform="scale(0.015625)"/>
      <path id="JetBrainsMono-Bold-6f" d="M 1920 -58 
Q 1242 -58 845 323 
Q 448 704 448 1350 
L 448 2170 
Q 448 2822 845 3200 
Q 1242 3578 1920 3578 
Q 2598 3578 2995 3200 
Q 3392 2822 3392 2170 
L 3392 1350 
Q 3392 704 2995 323 
Q 2598 -58 1920 -58 
z
M 1920 640 
Q 2240 640 2416 816 
Q 2592 992 2592 1325 
L 2592 2195 
Q 2592 2528 2416 2704 
Q 2240 2880 1920 2880 
Q 1600 2880 1424 2704 
Q 1248 2528 1248 2195 
L 1248 1325 
Q 1248 992 1424 816 
Q 1600 640 1920 640 
z
" transform="scale(0.015625)"/>
      <path id="JetBrainsMono-Bold-72" d="M 621 0 
L 621 3520 
L 1402 3520 
L 1402 2835 
Q 1466 3181 1718 3382 
Q 1971 3584 2374 3584 
Q 2912 3584 3213 3238 
Q 3514 2893 3514 2272 
L 3514 1939 
L 2714 1939 
L 2714 2234 
Q 2714 2554 2547 2723 
Q 2381 2893 2074 2893 
Q 1754 2893 1587 2701 
Q 1421 2509 1421 2157 
L 1421 0 
L 621 0 
z
" transform="scale(0.015625)"/>
      <path id="JetBrainsMono-Bold-79" d="M 1056 -1152 
L 1555 192 
L 230 3520 
L 1075 3520 
L 1754 1722 
Q 1811 1562 1868 1373 
Q 1926 1184 1952 1024 
Q 1971 1184 2025 1373 
Q 2080 1562 2138 1722 
L 2765 3520 
L 3610 3520 
L 1894 -1152 
L 1056 -1152 
z
" transform="scale(0.015625)"/>
     </defs>
     <use xlink:href="#JetBrainsMono-Bold-52"/>
     <use xlink:href="#JetBrainsMono-Bold-61" transform="translate(59.999985 0)"/>
     <use xlink:href="#JetBrainsMono-Bold-74" transform="translate(119.999969 0)"/>
     <use xlink:href="#JetBrainsMono-Bold-69" transform="translate(179.999954 0)"/>
     <use xlink:href="#JetBrainsMono-Bold-6e" transform="translate(239.999939 0)"/>
     <use xlink:href="#JetBrainsMono-Bold-67" transform="translate(299.999924 0)"/>
     <use xlink:href="#JetBrainsMono-Bold-20" transform="translate(359.999908 0)"/>
     <use xlink:href="#JetBrainsMono-Bold-48" transform="translate(419.999893 0)"/>
     <use xlink:href="#JetBrainsMono-Bold-69" transform="translate(479.999878 0)"/>
     <use xlink:href="#JetBrainsMono-Bold-73" transform="translate(539.999863 0)"/>
     <use xlink:href="#JetBrainsMono-Bold-74" transform="translate(599.999847 0)"/>
     <use xlink:href="#JetBrainsMono-Bold-6f" transform="translate(659.999832 0)"/>
     <use xlink:href="#JetBrainsMono-Bold-72" transform="translate(719.999817 0)"/>
     <use xlink:href="#JetBrainsMono-Bold-79" transform="translate(779.999802 0)"/>
    </g>
   </g>
   <g id="line2d_29">
    <path d="M 72.822857 304.037972 
L 74.346932 302.585231 
L 75.871006 301.326188 
L 77.395081 300.252039 
L 78.919155 299.35398 
L 80.44323 298.623207 
L 81.967304 298.050915 
L 83.491379 297.628299 
L 85.015453 297.346555 
L 86.539528 297.196879 
L 88.063602 297.170465 
L 91.111752 297.452209 
L 94.159901 298.121351 
L 97.20805 299.107455 
L 100.256199 300.340084 
L 104.828422 302.497186 
L 115.496944 307.735861 
L 118.545093 308.96849 
L 121.593242 309.954594 
L 124.641391 310.623735 
L 127.68954 310.905479 
L 129.213615 310.879066 
L 130.737689 310.729389 
L 132.261764 310.447645 
L 133.785839 310.02503 
L 135.309913 309.452737 
L 136.833988 308.721964 
L 138.358062 307.823906 
L 139.882137 306.749757 
L 141.406211 305.490714 
L 142.930286 304.037972 
L 144.45436 302.387112 
L 147.502509 298.547901 
L 150.550658 294.108734 
L 153.598807 289.209652 
L 158.171031 281.305021 
L 167.315478 265.227117 
L 170.363627 260.301694 
L 173.411776 255.826609 
L 176.459925 251.941901 
L 177.984 250.2647 
L 179.508075 248.782648 
L 181.032149 247.488445 
L 182.556224 246.369832 
L 184.080298 245.414549 
L 185.604373 244.610338 
L 187.128447 243.944938 
L 190.176596 242.981535 
L 193.224745 242.426264 
L 196.272894 242.181051 
L 200.845118 242.180047 
L 208.465491 242.339254 
L 211.51364 242.17319 
L 214.561789 241.731609 
L 217.609938 240.985533 
L 220.658087 239.972207 
L 223.706236 238.731753 
L 228.27846 236.532977 
L 232.850683 234.048854 
L 248.091429 225.446267 
L 252.663652 223.260295 
L 257.235876 221.330344 
L 261.808099 219.610988 
L 267.904398 217.567587 
L 277.048845 214.817486 
L 287.717366 211.640726 
L 292.28959 210.078643 
L 296.861814 208.231873 
L 299.909963 206.783805 
L 302.958112 205.121115 
L 306.006261 203.208566 
L 309.05441 201.01092 
L 312.102559 198.492939 
L 315.150708 195.619386 
L 318.198857 192.355023 
L 321.247006 188.685341 
L 324.295155 184.678748 
L 328.867379 178.232139 
L 341.059975 160.603515 
L 344.108124 156.579715 
L 347.156273 152.887532 
L 350.204422 149.616102 
L 353.252571 146.854562 
L 354.776646 145.689405 
L 357.824795 143.770095 
L 360.872944 142.335014 
L 363.921093 141.30763 
L 366.969242 140.611409 
L 370.017391 140.169821 
L 374.589615 139.817459 
L 383.734062 139.28172 
L 386.782211 138.872592 
L 389.83036 138.223012 
L 392.878509 137.313457 
L 395.926658 136.17904 
L 398.974807 134.85725 
L 403.547031 132.605248 
L 409.643329 129.296665 
L 418.787776 124.287453 
L 423.36 122.036129 
L 427.932224 120.087509 
L 432.504447 118.393869 
L 438.600745 116.389598 
L 450.793342 112.51764 
L 455.365565 110.860298 
L 459.937789 108.963245 
L 464.510012 106.789511 
L 469.082236 104.371661 
L 475.178534 100.834745 
L 481.274832 97.023734 
L 490.41928 90.993149 
L 505.660025 80.866036 
L 511.756323 77.055025 
L 517.852621 73.518109 
L 522.424845 71.100259 
L 526.997068 68.926525 
L 528.521143 68.262857 
L 528.521143 68.262857 
" clip-path="url(#p943f5589b3)" style="fill: none; stroke: #8b5cf6; stroke-width: 1.2; stroke-linecap: round"/>
   </g>
   <g id="PathCollection_1">
    <defs>
     <path id="mcf284613a8" d="M 0 2.236068 
C 0.593012 2.236068 1.161816 2.000462 1.581139 1.581139 
C 2.000462 1.161816 2.236068 0.593012 2.236068 0 
C 2.236068 -0.593012 2.000462 -1.161816 1.581139 -1.581139 
C 1.161816 -2.000462 0.593012 -2.236068 0 -2.236068 
C -0.593012 -2.236068 -1.161816 -2.000462 -1.581139 -1.581139 
C -2.000462 -1.161816 -2.236068 -0.593012 -2.236068 0 
C -2.236068 0.593012 -2.000462 1.161816 -1.581139 1.581139 
C -1.161816 2.000462 -0.593012 2.236068 0 2.236068 
z
" style="stroke: #ffffff; stroke-width: 0.8"/>
    </defs>
    <g clip-path="url(#p943f5589b3)">
     <use xlink:href="#mcf284613a8" x="528.521143" y="68.262857" style="fill: #8b5cf6; stroke: #ffffff; stroke-width: 0.8"/>
    </g>
   </g>
  </g>
  <g id="axes_2">
   <g id="text_18">
    <!-- Rating -->
    <g style="fill: #9b8bb8" transform="translate(565.7472 48.312) scale(0.11 -0.11)">
     <use xlink:href="#JetBrainsMono-Regular-52"/>
     <use xlink:href="#JetBrainsMono-Regular-61" transform="translate(59.999985 0)"/>
     <use xlink:href="#JetBrainsMono-Regular-74" transform="translate(119.999969 0)"/>
     <use xlink:href="#JetBrainsMono-Regular-69" transform="translate(179.999954 0)"/>
     <use xlink:href="#JetBrainsMono-Regular-6e" transform="translate(239.999939 0)"/>
     <use xlink:href="#JetBrainsMono-Regular-67" transform="translate(299.999924 0)"/>
    </g>
   </g>
   <g id="text_19">
    <!-- 258 -->
    <g style="fill: #8b5cf6" transform="translate(565.7472 81.548) scale(0.26 -0.26)">
     <use xlink:href="#JetBrainsMono-Bold-32"/>
     <use xlink:href="#JetBrainsMono-Bold-35" transform="translate(59.999985 0)"/>
     <use xlink:href="#JetBrainsMono-Bold-38" transform="translate(119.999969 0)"/>
    </g>
   </g>
   <g id="text_20">
    <!-- Rank -->
    <g style="fill: #9b8bb8" transform="translate(565.7472 119.592) scale(0.11 -0.11)">
     <defs>
      <path id="JetBrainsMono-Regular-6b" d="M 621 0 
L 621 4672 
L 1197 4672 
L 1197 2067 
L 1869 2067 
L 2854 3520 
L 3514 3520 
L 2381 1843 
L 3578 0 
L 2906 0 
L 1882 1568 
L 1197 1568 
L 1197 0 
L 621 0 
z
" transform="scale(0.015625)"/>
     </defs>
     <use xlink:href="#JetBrainsMono-Regular-52"/>
     <use xlink:href="#JetBrainsMono-Regular-61" transform="translate(59.999985 0)"/>
     <use xlink:href="#JetBrainsMono-Regular-6e" transform="translate(119.999969 0)"/>
     <use xlink:href="#JetBrainsMono-Regular-6b" transform="translate(179.999954 0)"/>
    </g>
   </g>
   <g id="text_21">
    <!-- #119,201 -->
    <g style="fill: #8b5cf6" transform="translate(565.7472 148.104) scale(0.14 -0.14)">
     <defs>
      <path id="JetBrainsMono-Bold-23" d="M 493 0 
L 710 1216 
L 224 1216 
L 224 1760 
L 800 1760 
L 998 2912 
L 448 2912 
L 448 3456 
L 1094 3456 
L 1312 4672 
L 1875 4672 
L 1658 3456 
L 2566 3456 
L 2784 4672 
L 3347 4672 
L 3130 3456 
L 3616 3456 
L 3616 2912 
L 3034 2912 
L 2835 1760 
L 3392 1760 
L 3392 1216 
L 2739 1216 
L 2528 0 
L 1965 0 
L 2182 1216 
L 1267 1216 
L 1056 0 
L 493 0 
z
M 1363 1760 
L 2272 1760 
L 2470 2912 
L 1562 2912 
L 1363 1760 
z
" transform="scale(0.015625)"/>
      <path id="JetBrainsMono-Bold-31" d="M 538 0 
L 538 723 
L 1754 723 
L 1754 3898 
L 531 3002 
L 531 3898 
L 1606 4672 
L 2554 4672 
L 2554 723 
L 3533 723 
L 3533 0 
L 538 0 
z
" transform="scale(0.015625)"/>
      <path id="JetBrainsMono-Bold-39" d="M 1120 0 
L 2214 1888 
Q 2138 1830 2035 1788 
Q 1933 1747 1728 1747 
Q 1344 1747 1027 1932 
Q 710 2118 524 2448 
Q 339 2778 339 3213 
Q 339 3674 534 4016 
Q 730 4358 1085 4547 
Q 1440 4736 1920 4736 
Q 2400 4736 2755 4544 
Q 3110 4352 3305 4003 
Q 3501 3654 3501 3187 
Q 3501 2912 3382 2557 
Q 3264 2202 3059 1837 
L 2048 0 
L 1120 0 
z
M 1920 2387 
Q 2278 2387 2496 2614 
Q 2714 2842 2714 3226 
Q 2714 3603 2496 3830 
Q 2278 4058 1920 4058 
Q 1562 4058 1344 3830 
Q 1126 3603 1126 3226 
Q 1126 2842 1344 2614 
Q 1562 2387 1920 2387 
z
" transform="scale(0.015625)"/>
      <path id="JetBrainsMono-Bold-2c" d="M 1216 -1024 
L 1555 934 
L 2470 934 
L 1984 -1024 
L 1216 -1024 
z
" transform="scale(0.015625)"/>
      <path id="JetBrainsMono-Bold-30" d="M 1920 -64 
Q 1466 -64 1133 109 
Q 800 282 617 595 
Q 435 909 435 1331 
L 435 3341 
Q 435 3763 617 4076 
Q 800 4390 1133 4563 
Q 1466 4736 1920 4736 
Q 2374 4736 2707 4563 
Q 3040 4390 3222 4076 
Q 3405 3763 3405 3341 
L 3405 1331 
Q 3405 909 3222 595 
Q 3040 282 2707 109 
Q 2374 -64 1920 -64 
z
M 1920 627 
Q 2253 627 2451 819 
Q 2650 1011 2650 1331 
L 2650 3341 
Q 2650 3661 2454 3853 
Q 2259 4045 1920 4045 
Q 1581 4045 1385 3853 
Q 1190 3661 1190 3341 
L 1190 1331 
Q 1190 1011 1388 819 
Q 1587 627 1920 627 
z
M 1920 1952 
Q 1728 1952 1613 2057 
Q 1498 2163 1498 2355 
Q 1498 2547 1613 2646 
Q 1728 2746 1920 2746 
Q 2112 2746 2227 2646 
Q 2342 2547 2342 2355 
Q 2342 2163 2227 2057 
Q 2112 1952 1920 1952 
z
" transform="scale(0.015625)"/>
     </defs>
     <use xlink:href="#JetBrainsMono-Bold-23"/>
     <use xlink:href="#JetBrainsMono-Bold-31" transform="translate(59.999985 0)"/>
     <use xlink:href="#JetBrainsMono-Bold-31" transform="translate(119.999969 0)"/>
     <use xlink:href="#JetBrainsMono-Bold-39" transform="translate(179.999954 0)"/>
     <use xlink:href="#JetBrainsMono-Bold-2c" transform="translate(239.999939 0)"/>
     <use xlink:href="#JetBrainsMono-Bold-32" transform="translate(299.999924 0)"/>
     <use xlink:href="#JetBrainsMono-Bold-30" transform="translate(359.999908 0)"/>
     <use xlink:href="#JetBrainsMono-Bold-31" transform="translate(419.999893 0)"/>
    </g>
   </g>
   <g id="text_22">
    <!-- ▲ +5 -->
    <g style="fill: #4caf50" transform="translate(565.7472 169.488) scale(0.11 -0.11)">
     <defs>
      <path id="JetBrainsMono-Bold-25b2" d="M -64 384 
L 1920 4288 
L 3904 384 
L -64 384 
z
" transform="scale(0.015625)"/>
      <path id="JetBrainsMono-Bold-2b" d="M 1523 589 
L 1523 1741 
L 378 1741 
L 378 2483 
L 1523 2483 
L 1523 3635 
L 2317 3635 
L 2317 2483 
L 3462 2483 
L 3462 1741 
L 2317 1741 
L 2317 589 
L 1523 589 
z
" transform="scale(0.015625)"/>
     </defs>
     <use xlink:href="#JetBrainsMono-Bold-25b2"/>
     <use xlink:href="#JetBrainsMono-Bold-20" transform="translate(59.999985 0)"/>
     <use xlink:href="#JetBrainsMono-Bold-2b" transform="translate(119.999969 0)"/>
     <use xlink:href="#JetBrainsMono-Bold-35" transform="translate(179.999954 0)"/>
    </g>
   </g>
  </g>
 </g>
 <defs>
  <clipPath id="p943f5589b3">
   <rect x="55.296" y="55.44" width="490.752" height="269.28"/>
  </clipPath>
 </defs>
</svg>
